<svg width="1186" height="475" viewBox="0 0 1186 475" fill="none" xmlns="http://www.w3.org/2000/svg">
<g opacity="0.6">
<mask id="mask0_796_39176" style="mask-type:alpha" maskUnits="userSpaceOnUse" x="11" y="28" width="1176" height="418">
<path d="M113 28.4995C113 28.4995 560.5 28.7482 560.5 28.7515L977.016 28.7515L1186.02 29L1186.02 379.099L1116.5 445.599L400 436.099L10.9999 431L113 28.4995Z" fill="#4376FF"/>
</mask>
<g mask="url(#mask0_796_39176)">
<path d="M337.877 53.8476L350.582 43.7914L363.663 33.47L371.065 27.6573L378.755 21.7562L393.979 10.1087C398.84 6.39567 403.37 2.88163 407.237 -0.0136542C415.125 -5.84844 420.361 -9.76047 420.361 -9.76047C427.14 -14.3646 431.973 -21.317 433.928 -29.276C434.657 -32.5827 434.441 -36.028 433.304 -39.2174C432.167 -42.4069 430.155 -45.2116 427.499 -47.3108L421.422 -52.2394C415.699 -56.9028 407.281 -58.8698 398.332 -58.0742C388.879 -57.2948 379.836 -53.8713 372.236 -48.1949L358.979 -38.1608L345.456 -27.8616L329.989 -15.8825L314.676 -3.90352C309.815 -0.0578733 305.307 3.61094 301.419 6.70514L288.581 17.0486C285.093 19.7609 282.102 23.0589 279.742 26.7954C277.744 29.9649 276.434 33.5189 275.897 37.2272C275.36 40.5784 275.775 44.0132 277.096 47.1396C278.416 50.266 280.589 52.958 283.366 54.9084L289.664 59.5277C295.585 63.9479 303.937 65.4287 312.621 64.412C321.867 63.3437 330.623 59.6813 337.877 53.8476Z" fill="#6991FF"/>
<path d="M471.558 133.239L483.755 122.52L489.676 117.349L496.305 111.646L510.867 99.2254C520.788 90.7163 530.886 82.4725 538.464 76.2178L551.125 65.7859C551.589 65.4102 551.634 64.8797 551.125 64.5703L535.459 53.1439L519.683 41.7616C519.43 41.6299 519.144 41.5764 518.861 41.6079C518.577 41.6393 518.31 41.7544 518.092 41.9385L505.321 52.4367L477.546 75.8421C467.514 84.3954 457.659 93.0812 450.213 99.5348C442.767 105.988 437.928 110.387 437.928 110.387C437.486 110.784 437.442 111.337 437.928 111.602L442.944 114.984C445.949 116.995 449.97 119.713 453.992 122.454L469.945 133.505C470.207 133.636 470.504 133.682 470.794 133.634C471.084 133.586 471.351 133.448 471.558 133.239Z" fill="#6991FF"/>
<path d="M735.759 173.803L745.371 170.333L766.627 162.951L778.007 159.017C781.631 157.779 785.056 156.674 787.95 155.702L797.695 152.475C798.048 152.475 798.247 152.055 798.136 151.79L790.049 130.727C789.966 130.588 789.836 130.482 789.682 130.429C789.528 130.377 789.361 130.38 789.21 130.44L779.399 133.689C773.499 135.59 765.7 138.352 757.878 141.027C750.056 143.701 742.278 146.419 736.444 148.497L726.722 152.011C726.646 152.026 726.573 152.057 726.509 152.102C726.445 152.146 726.39 152.203 726.349 152.27C726.308 152.336 726.28 152.41 726.268 152.487C726.257 152.564 726.261 152.643 726.28 152.718L734.92 173.449C734.951 173.528 734.998 173.6 735.058 173.66C735.117 173.72 735.188 173.768 735.266 173.801C735.344 173.834 735.428 173.851 735.512 173.852C735.597 173.852 735.681 173.835 735.759 173.803Z" fill="#6991FF"/>
<path d="M512.349 400.783C512.349 400.783 513.719 397.579 515.796 392.783C517.873 387.986 520.701 381.732 523.551 375.3C529.23 362.592 535.085 349.817 535.085 349.817C535.117 349.753 535.134 349.682 535.134 349.61C535.134 349.538 535.117 349.468 535.085 349.403C535.053 349.339 535.006 349.283 534.948 349.24C534.891 349.197 534.824 349.167 534.754 349.154L509.41 343.629C509.249 343.597 509.082 343.618 508.934 343.69C508.786 343.762 508.666 343.88 508.592 344.027L504.969 352.005C502.759 356.757 499.953 363.233 497.147 369.687C491.512 382.527 486.099 395.302 486.099 395.302C486.071 395.367 486.058 395.437 486.062 395.508C486.066 395.578 486.085 395.647 486.119 395.709C486.153 395.771 486.201 395.824 486.259 395.864C486.316 395.905 486.383 395.932 486.452 395.943L511.619 401.093C511.758 401.114 511.899 401.097 512.028 401.042C512.157 400.987 512.268 400.898 512.349 400.783Z" fill="#6991FF"/>
<path d="M1159.81 361.192L1150.86 310.734C1150.86 310.699 1150.86 310.664 1150.87 310.631C1150.88 310.597 1150.9 310.567 1150.92 310.54C1150.94 310.513 1150.97 310.491 1151 310.475C1151.03 310.459 1151.07 310.45 1151.1 310.447L1164.58 308.237L1178.08 306.292C1178.15 306.278 1178.22 306.29 1178.28 306.327C1178.35 306.364 1178.39 306.422 1178.41 306.491L1186.46 357.081C1186.46 357.116 1186.45 357.151 1186.44 357.184C1186.43 357.218 1186.42 357.249 1186.39 357.275C1186.37 357.302 1186.34 357.324 1186.31 357.34C1186.28 357.356 1186.25 357.366 1186.21 357.368L1173.18 359.247C1169.91 359.711 1166.66 360.264 1164.2 360.639L1160.14 361.28C1160.08 361.303 1160.02 361.307 1159.96 361.291C1159.9 361.275 1159.85 361.24 1159.81 361.192Z" fill="#6991FF"/>
<path d="M1011.6 180.76L1020.04 184.495C1025.1 186.705 1031.82 189.711 1038.52 192.783C1045.21 195.855 1051.77 198.861 1056.88 201.204L1065.21 205.094C1065.36 205.17 1065.53 205.191 1065.69 205.155C1065.85 205.118 1065.99 205.026 1066.09 204.895L1068.5 201.801C1069.96 199.966 1071.88 197.381 1073.85 195.038L1081.69 185.203C1081.74 185.147 1081.77 185.081 1081.79 185.01C1081.8 184.939 1081.8 184.866 1081.78 184.796C1081.76 184.726 1081.73 184.662 1081.68 184.609C1081.63 184.557 1081.56 184.518 1081.49 184.495L1073.14 180.539C1068.1 178.13 1061.43 175.08 1054.67 171.964C1047.91 168.848 1041.17 165.82 1036.09 163.543L1027.58 159.764C1027.42 159.699 1027.25 159.685 1027.08 159.725C1026.91 159.765 1026.76 159.855 1026.65 159.985L1018.98 170.019L1011.41 180.053C1011.36 180.108 1011.33 180.174 1011.31 180.245C1011.29 180.316 1011.3 180.39 1011.32 180.46C1011.34 180.53 1011.37 180.594 1011.42 180.646C1011.47 180.698 1011.54 180.738 1011.6 180.76Z" fill="#6991FF"/>
<path d="M201.677 332.581L203.047 329.509C203.909 327.586 205.256 324.757 206.671 321.464C209.742 314.833 213.83 305.993 217.939 297.152C222.049 288.312 226.248 279.361 229.474 272.841C232.7 266.321 234.821 261.79 234.821 261.79C234.896 261.662 234.937 261.516 234.941 261.367C234.945 261.219 234.911 261.071 234.843 260.939C234.774 260.807 234.674 260.694 234.55 260.611C234.427 260.528 234.284 260.477 234.136 260.464L216.923 257.679C212.504 256.972 208.328 256.353 205.08 255.867L199.688 255.049C199.333 255.019 198.977 255.092 198.663 255.261C198.349 255.43 198.091 255.686 197.921 256L192.618 267.05C189.48 273.681 185.26 282.521 181.194 291.583C172.996 309.507 165.108 327.321 165.108 327.321C165.036 327.45 164.998 327.596 164.999 327.744C164.999 327.893 165.038 328.038 165.111 328.167C165.185 328.296 165.29 328.404 165.417 328.48C165.544 328.556 165.689 328.598 165.837 328.602L182.94 331.011L199.975 333.465C200.316 333.512 200.662 333.452 200.967 333.294C201.272 333.135 201.52 332.886 201.677 332.581Z" fill="#6991FF"/>
<path d="M1196.18 39.0248L1185.46 32.2397C1179.03 28.1951 1170.46 22.8907 1161.77 17.5864C1153.09 12.282 1144.41 7.13235 1137.82 3.22039L1126.88 -3.18896C1126.75 -3.25317 1126.63 -3.35173 1126.55 -3.47494C1126.46 -3.59816 1126.41 -3.74171 1126.39 -3.89137C1126.38 -4.04103 1126.41 -4.19163 1126.47 -4.32817C1126.53 -4.4647 1126.63 -4.58255 1126.75 -4.66986L1131.17 -8.31653C1133.73 -10.5267 1137.23 -13.3779 1140.74 -16.2732L1154.61 -27.7879C1154.93 -28.03 1155.3 -28.174 1155.7 -28.2015C1156.09 -28.2291 1156.48 -28.139 1156.82 -27.9427L1167.87 -21.3122L1179.16 -14.527L1192.05 -6.57057L1204.84 1.40804L1215.89 8.48055L1226.65 15.4205C1226.78 15.4969 1226.88 15.6052 1226.96 15.735C1227.03 15.8648 1227.07 16.0116 1227.07 16.1609C1227.07 16.3102 1227.03 16.4568 1226.96 16.5866C1226.88 16.7164 1226.78 16.8248 1226.65 16.9012L1212.24 27.952C1208.66 30.6705 1205.1 33.4331 1202.47 35.5328L1198.06 39.0027C1197.77 39.171 1197.45 39.2616 1197.12 39.2655C1196.79 39.2694 1196.46 39.1864 1196.18 39.0248Z" fill="#6991FF"/>
<path d="M645.123 54.0967L658.933 49.7869C663.065 48.505 667.772 46.9358 673.075 45.3666L689.359 40.5043L705.644 35.6641L719.918 31.6196L733.839 27.6855C734.192 27.575 734.413 27.2877 734.347 27.0225L725.95 -1.99664C725.95 -2.26186 725.508 -2.39448 725.155 -2.28397L711.08 1.69425C706.859 2.88773 701.91 4.23599 696.651 5.78309L680.189 10.6895L663.706 15.5961C658.469 17.1653 653.586 18.7345 649.388 20.0164L635.445 24.4367C635.092 24.5472 634.871 24.8566 634.959 25.1218L644.372 53.8536C644.449 53.9753 644.567 54.0662 644.704 54.1106C644.841 54.155 644.989 54.1501 645.123 54.0967Z" fill="#6991FF"/>
<path d="M493.455 237.331L517.628 218.434C523.683 213.66 529.825 209.041 534.421 205.549L542.111 199.736C550.949 193.106 552.805 182.409 545.978 176.242L542.354 172.949C535.504 166.783 522.467 167.313 513.408 174.12L511.199 175.712L505.586 180.132L488.66 193.238L479.645 200.222L471.867 206.433L464.288 212.489C455.45 219.495 454.147 230.17 461.195 236.049L464.929 239.231C472.022 245.088 484.794 244.315 493.455 237.331Z" fill="#6991FF"/>
<path d="M876.092 86.2849L885.726 87.2795L906.872 89.4897C910.695 89.9096 914.517 90.2853 918.119 90.7052L927.952 91.8767L937.497 93.0258C942.936 93.6432 948.435 92.6033 953.274 90.0422C957.723 87.9182 961.199 84.181 962.996 79.5883L964.587 74.9469C967.614 66.1063 960.985 57.8184 949.76 56.3597L947.087 56.0281L940.104 55.2104L918.782 52.735L907.358 51.4531L897.415 50.4365L887.67 49.464C882.117 48.9366 876.533 50.0753 871.629 52.735C867.171 55.0129 863.755 58.912 862.083 63.631L860.625 68.3386C857.929 77.2013 864.934 85.2904 876.092 86.2849Z" fill="#6991FF"/>
<path d="M359.952 432.499C359.952 432.499 361.897 419.812 363.974 407.06C364.482 403.877 365.012 400.695 365.498 397.711C365.984 394.727 366.47 391.965 366.868 389.578L368.26 381.666C369.873 372.449 362.537 365.09 351.821 365.355L348.992 365.355L346.164 365.355C335.514 365.753 325.482 373.687 324.068 383.036C324.068 383.036 323.56 386.218 322.787 390.992L320.113 408.673C318.19 421.448 316.401 434.178 316.401 434.178C315.097 443.417 322.654 450.555 333.083 450.113L338.607 449.87C348.882 449.384 358.538 441.693 359.952 432.499Z" fill="#6991FF"/>
<path d="M573.706 291.161L580.888 284.729L588.268 278.099L596.819 270.65L612.927 256.704C617.346 252.881 620.285 250.405 620.285 250.405C620.372 250.337 620.443 250.25 620.491 250.151C620.54 250.051 620.565 249.942 620.565 249.831C620.565 249.72 620.54 249.611 620.491 249.511C620.443 249.412 620.372 249.324 620.285 249.256L611.049 241.963L601.746 234.691C601.543 234.537 601.294 234.454 601.039 234.454C600.784 234.454 600.536 234.537 600.332 234.691L592.93 241.057C588.511 244.902 582.589 249.897 576.734 255.091L553.511 275.756C553.423 275.824 553.353 275.911 553.304 276.011C553.256 276.11 553.231 276.22 553.231 276.33C553.231 276.441 553.256 276.551 553.304 276.65C553.353 276.75 553.423 276.837 553.511 276.905L572.337 291.183C572.537 291.327 572.778 291.402 573.025 291.398C573.272 291.394 573.511 291.311 573.706 291.161Z" fill="#6991FF"/>
<path d="M839.224 194.768L849.123 194.945C855.045 195.055 862.911 195.122 870.822 195.409L902.33 196.426C902.576 196.447 902.821 196.384 903.026 196.248C903.231 196.111 903.383 195.909 903.457 195.674L907.611 173.197C907.611 172.755 907.324 172.38 906.772 172.335L896.851 171.915L874.998 171.252C867.043 171.031 859.067 170.722 853.101 170.678L843.135 170.545C842.886 170.521 842.637 170.585 842.431 170.726C842.225 170.868 842.075 171.078 842.008 171.319L838.363 193.95C838.296 194.392 838.76 194.768 839.224 194.768Z" fill="#6991FF"/>
<path d="M733.465 319.955L739.165 317.745C742.59 316.463 747.142 314.629 751.738 312.993L770.078 306.363C770.409 306.23 770.586 305.943 770.475 305.678L765.172 292.682C765.14 292.616 765.094 292.557 765.038 292.509C764.983 292.461 764.918 292.425 764.848 292.402C764.778 292.38 764.704 292.371 764.631 292.377C764.557 292.384 764.486 292.405 764.421 292.439L745.949 299.202L727.565 306.208C727.424 306.249 727.306 306.344 727.235 306.473C727.165 306.601 727.148 306.753 727.189 306.893L732.581 319.712C732.614 319.795 732.665 319.869 732.731 319.928C732.798 319.987 732.877 320.03 732.962 320.054C733.048 320.077 733.138 320.081 733.225 320.064C733.312 320.046 733.394 320.009 733.465 319.955Z" fill="#6991FF"/>
<path d="M598.102 461.609L605.084 445.829C606.852 441.873 608.619 437.917 609.967 434.978L612.177 430.093C612.205 430.03 612.218 429.961 612.216 429.892C612.213 429.823 612.196 429.755 612.164 429.694C612.132 429.632 612.087 429.579 612.032 429.537C611.977 429.495 611.913 429.466 611.845 429.452L604.266 427.441L596.687 425.518C596.538 425.489 596.383 425.507 596.244 425.571C596.105 425.634 595.99 425.739 595.914 425.872L588.843 441.696C585.374 449.586 581.883 457.477 581.883 457.477C581.855 457.538 581.842 457.606 581.844 457.674C581.846 457.741 581.864 457.808 581.896 457.868C581.928 457.928 581.973 457.979 582.029 458.019C582.084 458.058 582.148 458.084 582.215 458.095L597.306 461.963C597.459 462.01 597.624 462 597.77 461.935C597.916 461.87 598.034 461.754 598.102 461.609Z" fill="#6991FF"/>
<path d="M1146.9 203.216C1146.9 203.216 1140.47 192.475 1133.88 181.734L1124.8 167.058L1120.63 160.428C1115.77 152.714 1120.14 142.879 1130.57 138.68L1136.09 136.47C1146.55 132.271 1159.12 135.431 1163.82 143.255L1167.87 149.974C1170.25 154.041 1173.48 159.455 1176.71 164.892C1183.07 175.766 1189.28 186.662 1189.28 186.662C1193.7 194.574 1189.06 204.211 1178.96 208.056L1176.26 209.073L1173.59 210.134C1168.66 212.073 1163.25 212.398 1158.12 211.062C1153.51 209.999 1149.48 207.186 1146.9 203.216Z" fill="#6991FF"/>
<path d="M1072.19 301.638L1067.11 295.14L1055.86 280.907L1044.46 266.718C1041.35 262.85 1039.25 260.287 1039.25 260.287C1039.18 260.197 1039.14 260.094 1039.12 259.985C1039.09 259.875 1039.1 259.763 1039.12 259.655C1039.15 259.547 1039.2 259.447 1039.27 259.361C1039.35 259.275 1039.43 259.207 1039.54 259.16L1050.98 252.529L1058.87 247.998L1062.49 245.965C1062.7 245.836 1062.95 245.783 1063.2 245.815C1063.44 245.847 1063.67 245.963 1063.84 246.142C1063.84 246.142 1072.13 256.529 1080.24 266.939C1084.3 272.155 1088.35 277.415 1091.28 281.349L1096.28 287.98C1096.34 288.071 1096.39 288.175 1096.41 288.285C1096.43 288.396 1096.42 288.509 1096.39 288.617C1096.36 288.725 1096.31 288.825 1096.24 288.91C1096.16 288.995 1096.07 289.062 1095.97 289.107L1084.66 295.45L1073.41 301.903C1073.2 301.993 1072.98 302.015 1072.76 301.968C1072.54 301.92 1072.34 301.805 1072.19 301.638Z" fill="#6991FF"/>
<path d="M1000.69 428.978L992.297 397.572C992.283 397.505 992.297 397.435 992.334 397.377C992.371 397.32 992.429 397.279 992.495 397.263L1008.78 393.218C1008.81 393.204 1008.84 393.197 1008.88 393.197C1008.91 393.198 1008.94 393.206 1008.97 393.221C1009 393.236 1009.03 393.257 1009.05 393.283C1009.07 393.31 1009.08 393.34 1009.09 393.373L1017.27 424.823C1017.27 424.892 1017.25 424.962 1017.21 425.019C1017.17 425.076 1017.11 425.116 1017.04 425.132L1001 429.133C1000.94 429.148 1000.88 429.141 1000.82 429.113C1000.76 429.084 1000.72 429.036 1000.69 428.978Z" fill="#6991FF"/>
<path d="M901.152 320.379L917.769 327.01L929.126 331.673L934.297 333.883C934.434 333.946 934.589 333.958 934.735 333.918C934.88 333.878 935.007 333.787 935.092 333.662L943.356 320.932C943.394 320.876 943.418 320.812 943.427 320.745C943.436 320.678 943.429 320.61 943.408 320.546C943.387 320.482 943.351 320.424 943.304 320.376C943.256 320.328 943.199 320.291 943.135 320.269L926.563 313.285L909.925 306.522C909.78 306.468 909.623 306.462 909.475 306.506C909.327 306.55 909.198 306.641 909.107 306.765L900.909 319.628C900.858 319.688 900.823 319.761 900.808 319.838C900.792 319.916 900.797 319.996 900.821 320.071C900.846 320.147 900.889 320.215 900.947 320.268C901.005 320.322 901.076 320.36 901.152 320.379Z" fill="#6991FF"/>
</g>
</g>
</svg>
