<svg width="1315" height="368" viewBox="0 0 1315 368" fill="none" xmlns="http://www.w3.org/2000/svg">
<path d="M203.052 -0.00810242C266.311 -20.3445 322.039 -59.1419 363.068 -111.41C378.498 -130.802 345.275 -151.223 329.96 -131.983C294.911 -87.8794 247.622 -55.1035 194.022 -37.7643C170.477 -30.1445 179.278 7.95459 203.014 -0.00810242H203.052Z" fill="#FF2F73" fill-opacity="0.45"/>
<path d="M760.318 81.3311C793.157 91.4631 822 111.62 842.803 138.975C858.233 158.748 886.579 132.46 871.263 112.839C845.709 80.2538 810.756 56.3129 771.138 44.2607C747.25 36.8314 736.316 73.8637 760.318 81.3311Z" fill="#FF2F73" fill-opacity="0.45"/>
<path d="M175.278 204.398C199.407 210.338 224.575 210.68 248.856 205.397C273.137 200.114 295.888 189.347 315.368 173.919C334.989 158.679 308.32 130.143 288.699 145.344C274.298 156.489 257.577 164.254 239.772 168.065C221.966 171.877 203.532 171.638 185.831 167.366C161.6 161.574 150.513 198.569 174.973 204.436L175.278 204.398Z" fill="#FF2F73" fill-opacity="0.45"/>
<path d="M301.878 333.813C349.716 330.432 397.65 338.899 441.435 358.463C464.294 368.521 475 331.375 452.293 321.393C405.311 300.652 353.991 291.644 302.754 295.142C278.066 296.781 276.885 335.451 301.878 333.813Z" fill="#FF2F73" fill-opacity="0.45"/>
<path d="M550.471 237.698C614.858 246.232 695.933 242.46 718.716 169.12C726.107 145.422 688.808 134.221 681.417 157.995C664.539 212.057 595.694 204.78 551.385 198.913C526.583 195.636 525.821 234.307 550.471 237.584V237.698Z" fill="#FF2F73" fill-opacity="0.45"/>
<path d="M396.858 84.7583C444.585 89.2213 490.876 103.489 532.834 126.667C554.741 138.706 575.238 106.018 553.217 93.902C505.258 67.379 452.338 51.0489 397.773 45.9353C372.856 43.5351 372.018 82.2056 396.858 84.6058V84.7583Z" fill="#FF2F73" fill-opacity="0.45"/>
<path d="M842.883 323.375L839.607 321.318C835.262 318.615 830.021 317.748 825.037 318.91C820.054 320.071 815.735 323.164 813.032 327.509C810.329 331.854 809.463 337.094 810.624 342.078C811.785 347.062 814.879 351.38 819.223 354.083L822.538 356.14C824.69 357.476 827.083 358.375 829.582 358.786C832.081 359.197 834.636 359.112 837.102 358.535C839.568 357.958 841.896 356.901 843.953 355.425C846.011 353.949 847.757 352.081 849.093 349.93C850.429 347.779 851.328 345.385 851.739 342.886C852.15 340.387 852.065 337.832 851.488 335.366C850.911 332.901 849.855 330.572 848.378 328.515C846.902 326.457 845.034 324.711 842.883 323.375Z" fill="#FF2F73" fill-opacity="0.45"/>
<path d="M672.504 376.451L578.362 299.338C559.007 283.527 538.815 316.445 557.979 332.103L652.274 409.216C671.628 425.027 691.821 392.109 672.657 376.451H672.504Z" fill="#FF2F73" fill-opacity="0.45"/>
<path d="M414.535 252.097C427.641 230.99 394.571 210.188 381.427 231.485C368.283 252.782 401.391 273.203 414.535 252.097Z" fill="#FF2F73" fill-opacity="0.45"/>
<path d="M287.555 86.8974C300.699 65.8286 267.591 45.2171 254.485 66.324C241.379 87.4308 274.449 108.233 287.555 86.8974Z" fill="#FF2F73" fill-opacity="0.45"/>
<path d="M666.484 68.1093L663.17 66.0519C661.018 64.7135 658.624 63.8121 656.124 63.3989C653.625 62.9857 651.068 63.069 648.6 63.6439C643.617 64.8049 639.298 67.8981 636.596 72.243C633.893 76.5879 633.026 81.8287 634.187 86.8123C635.348 91.7959 638.442 96.1142 642.787 98.8171L646.101 100.874C648.253 102.213 650.647 103.114 653.146 103.528C655.646 103.941 658.203 103.857 660.67 103.283C663.138 102.708 665.468 101.652 667.528 100.177C669.588 98.7015 671.337 96.8348 672.675 94.6834C674.014 92.532 674.915 90.138 675.328 87.6382C675.742 85.1384 675.658 82.5817 675.083 80.1141C674.509 77.6464 673.453 75.3162 671.978 73.2564C670.502 71.1966 668.636 69.4477 666.484 68.1093Z" fill="#FF2F73" fill-opacity="0.45"/>
<path d="M-62.7292 269.58C-15.3427 263.501 32.7075 273.611 73.6272 298.269C95.1912 310.994 115.536 278.267 94.0102 265.503C44.184 235.809 -14.2562 223.932 -71.7206 231.824C-96.5231 235.024 -87.3411 272.742 -62.7292 269.58Z" fill="#FF2F73" fill-opacity="0.45"/>
<path d="M102.732 396.675C164.719 377.625 224.877 343.755 231.049 273.119C233.221 248.317 194.36 247.136 192.189 271.862C187.693 323.182 137.135 345.736 93.7405 358.957C70.0048 366.157 78.8439 403.951 102.732 396.675Z" fill="#FF2F73" fill-opacity="0.45"/>
<path d="M-93.251 -2.25532C-28.8637 6.24077 52.173 2.50706 74.9943 -70.8336C82.3855 -94.5312 45.0484 -105.732 37.6572 -81.9585C20.8174 -27.896 -48.0275 -35.211 -92.3747 -41.0401C-117.177 -44.3547 -117.939 -5.64613 -93.251 -2.36961V-2.25532Z" fill="#FF2F73" fill-opacity="0.45"/>
<path d="M28.7491 136.69L-65.5078 59.3868C-84.8621 43.5376 -105.055 76.4551 -85.8908 92.152L8.40427 169.264C27.7586 185.075 47.9511 152.158 28.7873 136.499L28.7491 136.69Z" fill="#FF2F73" fill-opacity="0.45"/>
<path d="M873.019 -50.986C936.282 -30.6789 992.015 8.10846 1033.03 60.3775C1048.27 79.77 1015.24 100.229 999.927 80.951C964.897 36.8773 917.654 4.1057 864.103 -13.2678C840.558 -20.8876 849.359 -58.7582 873.095 -50.986H873.019Z" fill="#FF2F73" fill-opacity="0.45"/>
<path d="M1154.15 -28.4701C1167.26 -7.36327 1134.19 13.4388 1121.04 -7.89668C1107.9 -29.2321 1141.01 -49.577 1154.15 -28.4701Z" fill="#FF2F73" fill-opacity="0.45"/>
<path d="M1173.81 307.264C1198.86 288.663 1229.14 278.437 1260.33 278.042C1285.21 277.585 1286.32 238.914 1261.21 239.371C1220.05 239.989 1180.17 253.767 1147.41 278.689C1127.52 293.624 1154.19 322.046 1174.08 307.264H1173.81Z" fill="#FF2F73" fill-opacity="0.45"/>
<path d="M956.187 285.78C981.21 267.218 1011.44 257.007 1042.6 256.596C1067.51 256.139 1068.58 217.469 1043.47 217.926C1002.32 218.519 962.445 232.301 929.708 257.244C909.782 272.141 936.49 300.563 956.187 285.78Z" fill="#FF2F73" fill-opacity="0.45"/>
<path d="M1198.42 413.672C1261.7 393.365 1317.43 354.562 1358.44 302.27C1373.68 282.878 1340.65 262.457 1325.37 281.697C1290.31 325.793 1243.02 358.577 1189.43 375.954C1165.89 383.573 1174.69 421.444 1198.42 413.672Z" fill="#FF2F73" fill-opacity="0.45"/>
<path d="M1363.62 149.266C1335.08 161.753 1303.33 164.952 1272.87 158.41C1248.53 153.266 1238.81 190.756 1263.38 195.899C1303.62 204.51 1345.57 199.996 1383.05 183.022C1405.91 172.963 1386.14 139.284 1363.62 149.266Z" fill="#FF2F73" fill-opacity="0.45"/>
<path d="M1363.43 40.0393C1297.22 45.6983 1234.22 71.042 1182.53 112.809C1163.18 128.277 1190.99 155.632 1210.19 140.278C1254.23 105.145 1307.65 83.7702 1363.77 78.8241C1388.42 76.5763 1388.31 37.7915 1363.43 40.0393Z" fill="#FF2F73" fill-opacity="0.45"/>
</svg>
