<svg width="375" height="286" viewBox="0 0 375 286" fill="none" xmlns="http://www.w3.org/2000/svg">
<mask id="mask0_887_10228" style="mask-type:alpha" maskUnits="userSpaceOnUse" x="0" y="1" width="375" height="276">
<path d="M47 36.998C52.4611 16.1838 80.5529 8.24627 102.1 7.68943L325.026 1.9285C351.76 1.23762 373.992 22.3111 374.681 48.9974L374.681 227.37C375.417 255.856 351.432 278.795 322.952 276.844L43.9996 262.201C15.9994 259.488 -5.6933 231.307 1.9994 201.988L47 36.998Z" fill="#4376FF"/>
</mask>
<g mask="url(#mask0_887_10228)">
<g opacity="0.6">
<path d="M99.6789 92.5249L104.105 89.0213L108.663 85.4253L111.242 83.4001L113.921 81.3442L119.225 77.2861C120.919 75.9925 122.497 74.7682 123.844 73.7594C126.592 71.7266 128.417 70.3636 128.417 70.3636C130.778 68.7595 132.462 66.3372 133.144 63.5643C133.398 62.4122 133.322 61.2119 132.926 60.1007C132.53 58.9895 131.829 58.0122 130.903 57.2809L128.786 55.5638C126.793 53.939 123.859 53.2537 120.742 53.5309C117.448 53.8024 114.298 54.9952 111.65 56.9729L107.031 60.4688L102.319 64.0571L96.9306 68.2307L91.5956 72.4042C89.9019 73.744 88.3315 75.0223 86.9765 76.1003L82.5039 79.704C81.2885 80.649 80.2466 81.798 79.4245 83.0998C78.7284 84.2041 78.2719 85.4423 78.0849 86.7343C77.8976 87.9019 78.0423 89.0986 78.5024 90.1878C78.9625 91.2771 79.7195 92.215 80.687 92.8945L82.8811 94.5039C84.9442 96.0439 87.8541 96.5598 90.8796 96.2056C94.101 95.8334 97.1516 94.5574 99.6789 92.5249Z" fill="#6991FF"/>
<path d="M146.254 120.184L150.503 116.45L152.566 114.648L154.876 112.661L159.949 108.334C163.406 105.369 166.924 102.497 169.564 100.318L173.975 96.6831C174.137 96.5522 174.153 96.3674 173.975 96.2596L168.517 92.2786L163.021 88.313C162.933 88.2671 162.833 88.2484 162.734 88.2594C162.635 88.2704 162.542 88.3105 162.466 88.3746L158.017 92.0322L148.34 100.187C144.845 103.167 141.411 106.193 138.817 108.441C136.223 110.69 134.537 112.222 134.537 112.222C134.383 112.361 134.367 112.553 134.537 112.646L136.284 113.824C137.331 114.525 138.732 115.472 140.134 116.427L145.692 120.277C145.783 120.323 145.887 120.338 145.988 120.322C146.089 120.305 146.182 120.257 146.254 120.184Z" fill="#6991FF"/>
<path d="M302.9 67.2008L304.509 67.2701C305.533 67.3163 306.988 67.3625 308.751 67.4703L321.584 68.2403L328.512 68.7023L334.571 69.1489C336.342 69.2798 337.812 69.3953 338.859 69.4877L340.491 69.6186C340.587 69.6352 340.685 69.6192 340.77 69.5731C340.855 69.527 340.922 69.4535 340.961 69.3645L342.778 63.1197C343.686 59.9857 344.641 56.8748 344.641 56.8748C344.687 56.7131 344.548 56.5667 344.333 56.5513L342.662 56.4204L338.297 56.0739L335.372 55.8352L332.131 55.6042C329.883 55.4425 327.465 55.2654 325.079 55.1191L318.066 54.6802L312.015 54.3491L306.087 54.0334C305.992 54.0249 305.896 54.0462 305.813 54.0945C305.73 54.1428 305.665 54.2156 305.625 54.3029C305.625 54.3029 304.855 57.46 304.086 60.6171L302.584 66.9389C302.546 67.0929 302.692 67.2008 302.9 67.2008Z" fill="#6991FF"/>
<path d="M94.6675 274.627C94.6675 274.627 94.4596 272.848 94.1517 270.184C93.8438 267.52 93.4281 263.954 93.0509 260.405C92.2811 253.305 91.6113 246.159 91.6113 246.159C91.6058 246.119 91.5914 246.081 91.569 246.047C91.5467 246.013 91.517 245.985 91.4823 245.964C91.4475 245.944 91.4085 245.931 91.3682 245.928C91.3279 245.924 91.2874 245.929 91.2495 245.944L88.94 246.437C87.5774 246.745 85.7298 247.122 83.913 247.561L76.5996 249.263C76.5133 249.277 76.4354 249.323 76.3802 249.391C76.325 249.459 76.2962 249.545 76.2994 249.632L76.7998 254.083C77.1 256.747 77.5311 260.312 77.9699 263.87C78.8552 270.992 79.8174 278.069 79.8174 278.069C79.8254 278.108 79.8414 278.145 79.8643 278.177C79.8873 278.209 79.9167 278.236 79.9508 278.257C79.9849 278.277 80.0227 278.29 80.0621 278.295C80.1014 278.3 80.1414 278.296 80.1793 278.285L87.2618 276.583L94.3596 274.989C94.4473 274.979 94.5282 274.936 94.5854 274.869C94.6426 274.802 94.672 274.715 94.6675 274.627Z" fill="#6991FF"/>
<path d="M238.303 134.319L241.652 133.11L249.057 130.538L253.022 129.168C254.285 128.736 255.478 128.351 256.486 128.012L259.881 126.888C260.004 126.888 260.074 126.742 260.035 126.65L257.218 119.311C257.189 119.263 257.143 119.226 257.09 119.207C257.036 119.189 256.978 119.19 256.925 119.211L253.507 120.343C251.452 121.005 248.734 121.968 246.009 122.9C243.284 123.831 240.574 124.778 238.541 125.502L235.154 126.727C235.128 126.732 235.102 126.743 235.08 126.758C235.058 126.774 235.039 126.794 235.024 126.817C235.01 126.84 235 126.866 234.996 126.892C234.992 126.919 234.993 126.947 235 126.973L238.01 134.196C238.021 134.223 238.038 134.248 238.058 134.269C238.079 134.29 238.104 134.307 238.131 134.318C238.158 134.33 238.187 134.336 238.217 134.336C238.246 134.336 238.276 134.33 238.303 134.319Z" fill="#6991FF"/>
<path d="M160.466 213.405C160.466 213.405 160.943 212.288 161.667 210.617C162.39 208.946 163.376 206.767 164.369 204.526C166.347 200.099 168.387 195.648 168.387 195.648C168.399 195.626 168.404 195.601 168.404 195.576C168.404 195.551 168.398 195.526 168.387 195.504C168.376 195.481 168.36 195.462 168.34 195.447C168.32 195.432 168.297 195.422 168.272 195.417L159.442 193.492C159.386 193.481 159.328 193.488 159.276 193.513C159.225 193.538 159.183 193.579 159.157 193.631L157.895 196.41C157.125 198.066 156.147 200.322 155.169 202.57C153.206 207.044 151.32 211.495 151.32 211.495C151.311 211.518 151.306 211.542 151.307 211.567C151.309 211.591 151.316 211.615 151.327 211.637C151.339 211.658 151.356 211.677 151.376 211.691C151.396 211.705 151.419 211.714 151.443 211.718L160.212 213.513C160.26 213.52 160.309 213.514 160.354 213.495C160.399 213.476 160.438 213.445 160.466 213.405Z" fill="#6991FF"/>
<path d="M334.409 136.745L337.35 138.046C339.113 138.816 341.453 139.863 343.786 140.934C346.118 142.004 348.405 143.051 350.183 143.868L353.085 145.223C353.137 145.249 353.196 145.257 353.252 145.244C353.308 145.231 353.358 145.199 353.393 145.154L354.232 144.076C354.741 143.436 355.41 142.535 356.095 141.719L358.828 138.293C358.845 138.273 358.856 138.25 358.862 138.226C358.867 138.201 358.866 138.175 358.859 138.151C358.853 138.127 358.84 138.104 358.822 138.086C358.805 138.068 358.783 138.054 358.759 138.046L355.849 136.668C354.094 135.829 351.769 134.766 349.413 133.68C347.058 132.594 344.71 131.539 342.939 130.746L339.975 129.43C339.92 129.407 339.859 129.402 339.801 129.416C339.743 129.43 339.691 129.462 339.652 129.507L336.98 133.003L334.34 136.498C334.323 136.518 334.312 136.541 334.307 136.565C334.301 136.59 334.302 136.616 334.309 136.64C334.316 136.664 334.328 136.687 334.346 136.705C334.363 136.723 334.385 136.737 334.409 136.745Z" fill="#6991FF"/>
<path d="M369.221 275.006L370.761 272.696C371.7 271.31 372.955 269.454 374.217 267.606L377.72 262.54L379.329 260.229C379.358 260.19 379.402 260.163 379.45 260.154C379.499 260.145 379.549 260.156 379.591 260.183L382.924 262.378C384.587 263.471 386.219 264.595 386.219 264.595C386.239 264.609 386.257 264.626 386.27 264.646C386.283 264.666 386.293 264.689 386.297 264.713C386.301 264.736 386.301 264.761 386.295 264.784C386.29 264.808 386.279 264.83 386.265 264.85L384.664 267.113L381.169 272.134C379.914 273.951 378.659 275.807 377.728 277.178C376.796 278.548 376.188 279.488 376.188 279.488C376.175 279.508 376.159 279.525 376.14 279.538C376.121 279.552 376.099 279.561 376.076 279.566C376.053 279.571 376.029 279.572 376.006 279.567C375.983 279.563 375.961 279.554 375.942 279.542L374.91 278.864L372.6 277.401L369.252 275.268C369.232 275.253 369.216 275.234 369.204 275.213C369.192 275.191 369.184 275.168 369.181 275.144C369.179 275.119 369.181 275.094 369.187 275.071C369.194 275.047 369.206 275.025 369.221 275.006Z" fill="#6991FF"/>
<path d="M52.2259 189.64L52.7032 188.569C53.0034 187.899 53.4731 186.914 53.9657 185.766C55.0358 183.456 56.46 180.376 57.8919 177.296C59.3238 174.216 60.7865 171.098 61.9105 168.826C63.0344 166.554 63.7734 164.976 63.7734 164.976C63.7995 164.931 63.814 164.88 63.8153 164.829C63.8167 164.777 63.8048 164.725 63.781 164.679C63.7572 164.633 63.7222 164.594 63.6792 164.565C63.6361 164.536 63.5865 164.518 63.5348 164.514L57.5378 163.544C55.9981 163.297 54.5431 163.082 53.4115 162.912L51.533 162.627C51.4093 162.617 51.2852 162.642 51.1759 162.701C51.0665 162.76 50.9766 162.849 50.9172 162.958L49.0696 166.809C47.9765 169.119 46.506 172.199 45.0895 175.356C42.2335 181.601 39.4852 187.807 39.4852 187.807C39.4601 187.852 39.4469 187.903 39.4471 187.955C39.4473 188.006 39.4608 188.057 39.4864 188.102C39.5119 188.147 39.5486 188.184 39.5929 188.211C39.6372 188.238 39.6876 188.252 39.7392 188.254L45.6977 189.093L51.6331 189.948C51.7517 189.964 51.8724 189.943 51.9786 189.888C52.0848 189.833 52.1712 189.746 52.2259 189.64Z" fill="#6991FF"/>
<path d="M398.714 87.3614L394.98 84.9974C392.74 83.5883 389.753 81.7402 386.728 79.8922C383.702 78.0441 380.677 76.2499 378.383 74.887L374.572 72.6539C374.525 72.6316 374.484 72.5972 374.454 72.5543C374.424 72.5114 374.406 72.4614 374.401 72.4092C374.397 72.3571 374.406 72.3046 374.427 72.257C374.449 72.2095 374.483 72.1684 374.526 72.138L376.065 70.8675C376.958 70.0974 378.175 69.1041 379.399 68.0954L384.233 64.0835C384.342 63.9992 384.473 63.949 384.61 63.9394C384.747 63.9298 384.884 63.9613 385.003 64.0296L388.852 66.3397L392.786 68.7037L397.274 71.4758L401.732 74.2556L405.581 76.7197L409.33 79.1375C409.375 79.1642 409.412 79.2019 409.437 79.2471C409.463 79.2924 409.477 79.3435 409.477 79.3955C409.477 79.4475 409.463 79.4986 409.437 79.5439C409.412 79.5891 409.375 79.6268 409.33 79.6535L404.311 83.5036C403.064 84.4507 401.824 85.4132 400.908 86.1448L399.368 87.3537C399.27 87.4123 399.157 87.4439 399.042 87.4453C398.927 87.4466 398.814 87.4177 398.714 87.3614Z" fill="#6991FF"/>
<path d="M206.725 92.6097L211.536 91.1081C212.976 90.6615 214.615 90.1148 216.463 89.5681L222.137 87.874L227.81 86.1877L232.783 84.7786L237.633 83.4079C237.756 83.3694 237.833 83.2693 237.81 83.1769L234.885 73.0665C234.885 72.9741 234.731 72.9279 234.608 72.9664L229.704 74.3524C228.234 74.7683 226.509 75.238 224.677 75.777L218.942 77.4864L213.199 79.1959C211.374 79.7426 209.673 80.2893 208.21 80.736L203.353 82.276C203.229 82.3145 203.152 82.4223 203.183 82.5147L206.463 92.525C206.49 92.5674 206.531 92.5991 206.578 92.6145C206.626 92.63 206.678 92.6283 206.725 92.6097Z" fill="#6991FF"/>
<path d="M153.883 156.45L162.305 149.866C164.414 148.203 166.554 146.593 168.156 145.377L170.835 143.351C173.914 141.041 174.561 137.315 172.182 135.166L170.919 134.019C168.533 131.87 163.991 132.055 160.835 134.427L160.065 134.981L158.109 136.521L152.212 141.088L149.072 143.521L146.362 145.685L143.721 147.795C140.642 150.235 140.188 153.955 142.643 156.003L143.944 157.112C146.416 159.152 150.865 158.883 153.883 156.45Z" fill="#6991FF"/>
<path d="M287.195 103.825L290.552 104.172L297.919 104.942C299.251 105.088 300.583 105.219 301.837 105.365L305.263 105.774L308.589 106.174C310.484 106.389 312.4 106.027 314.085 105.134C315.636 104.394 316.847 103.092 317.473 101.492L318.027 99.8752C319.082 96.7951 316.772 93.9075 312.861 93.3993L311.93 93.2838L309.497 92.9989L302.068 92.1365L298.088 91.6898L294.624 91.3357L291.229 90.9968C289.294 90.8131 287.349 91.2098 285.64 92.1365C284.087 92.9301 282.897 94.2885 282.314 95.9327L281.806 97.5728C280.867 100.661 283.307 103.479 287.195 103.825Z" fill="#6991FF"/>
<path d="M107.37 224.45C107.37 224.45 108.047 220.03 108.771 215.587C108.948 214.478 109.133 213.369 109.302 212.33C109.471 211.29 109.641 210.328 109.779 209.496L110.264 206.739C110.826 203.529 108.271 200.964 104.537 201.057L103.551 201.057L102.566 201.057C98.8554 201.195 95.3603 203.96 94.8676 207.217C94.8676 207.217 94.6906 208.326 94.4211 209.989L93.4896 216.149C92.8198 220.6 92.1963 225.035 92.1963 225.035C91.7421 228.254 94.3749 230.741 98.0085 230.587L99.9331 230.502C103.513 230.333 106.877 227.653 107.37 224.45Z" fill="#6991FF"/>
<path d="M181.843 175.206L184.345 172.965L186.916 170.655L189.896 168.06L195.508 163.201C197.047 161.869 198.071 161.007 198.071 161.007C198.102 160.983 198.126 160.953 198.143 160.918C198.16 160.883 198.169 160.845 198.169 160.807C198.169 160.768 198.16 160.73 198.143 160.695C198.126 160.661 198.102 160.63 198.071 160.607L194.853 158.065L191.612 155.532C191.542 155.478 191.455 155.449 191.366 155.449C191.277 155.449 191.191 155.478 191.12 155.532L188.541 157.75C187.001 159.09 184.938 160.83 182.898 162.639L174.807 169.839C174.777 169.863 174.752 169.893 174.735 169.928C174.718 169.963 174.709 170.001 174.709 170.039C174.709 170.078 174.718 170.116 174.735 170.151C174.752 170.185 174.777 170.216 174.807 170.24L181.366 175.214C181.436 175.264 181.52 175.29 181.606 175.289C181.692 175.288 181.775 175.259 181.843 175.206Z" fill="#6991FF"/>
<path d="M274.35 141.624L277.799 141.686C279.862 141.724 282.603 141.747 285.359 141.847L296.337 142.202C296.422 142.209 296.508 142.187 296.579 142.14C296.651 142.092 296.704 142.022 296.73 141.94L298.177 134.109C298.177 133.955 298.077 133.824 297.884 133.809L294.428 133.662L286.814 133.431C284.043 133.354 281.264 133.246 279.185 133.231L275.713 133.185C275.626 133.176 275.539 133.199 275.468 133.248C275.396 133.297 275.344 133.37 275.32 133.454L274.05 141.339C274.027 141.493 274.189 141.624 274.35 141.624Z" fill="#6991FF"/>
<path d="M148.271 271.174L148.079 268.363C147.979 266.684 147.84 264.444 147.702 262.203L147.209 253.217C147.205 253.179 147.192 253.142 147.173 253.11C147.153 253.077 147.127 253.049 147.096 253.027C147.064 253.005 147.029 252.99 146.991 252.983C146.954 252.976 146.915 252.977 146.878 252.986L142.413 253.656C141.289 253.817 140.188 254.018 139.334 254.149L137.94 254.38C137.859 254.39 137.785 254.43 137.73 254.49C137.675 254.551 137.643 254.629 137.64 254.711C137.64 254.711 137.94 259.208 138.233 263.697L138.887 272.66C138.892 272.698 138.904 272.734 138.924 272.767C138.943 272.8 138.969 272.828 139.001 272.85C139.032 272.872 139.068 272.887 139.105 272.894C139.143 272.901 139.181 272.9 139.218 272.891L147.964 271.497C148.046 271.491 148.123 271.455 148.18 271.395C148.237 271.335 148.27 271.256 148.271 271.174Z" fill="#6991FF"/>
<path d="M237.502 185.24L239.488 184.47C240.681 184.023 242.267 183.384 243.869 182.814L250.258 180.504C250.374 180.458 250.435 180.358 250.397 180.265L248.549 175.738C248.538 175.715 248.522 175.694 248.502 175.678C248.483 175.661 248.46 175.648 248.436 175.64C248.412 175.632 248.386 175.629 248.36 175.632C248.335 175.634 248.31 175.641 248.287 175.653L241.852 178.009L235.447 180.45C235.398 180.465 235.356 180.498 235.332 180.542C235.307 180.587 235.301 180.64 235.316 180.689L237.194 185.155C237.206 185.184 237.224 185.21 237.247 185.23C237.27 185.251 237.297 185.266 237.327 185.274C237.357 185.282 237.388 185.283 237.419 185.278C237.449 185.272 237.477 185.259 237.502 185.24Z" fill="#6991FF"/>
<path d="M190.342 234.593L192.775 229.095C193.391 227.717 194.007 226.339 194.476 225.315L195.246 223.613C195.256 223.591 195.26 223.567 195.26 223.543C195.259 223.519 195.253 223.495 195.242 223.474C195.231 223.452 195.215 223.434 195.196 223.419C195.176 223.404 195.154 223.394 195.131 223.39L192.49 222.689L189.85 222.019C189.797 222.009 189.743 222.015 189.695 222.037C189.647 222.059 189.607 222.096 189.58 222.142L187.117 227.655C185.908 230.404 184.692 233.153 184.692 233.153C184.682 233.175 184.677 233.198 184.678 233.222C184.679 233.246 184.685 233.269 184.696 233.29C184.707 233.31 184.723 233.328 184.742 233.342C184.762 233.356 184.784 233.365 184.807 233.369L190.065 234.716C190.118 234.733 190.176 234.729 190.227 234.707C190.278 234.684 190.319 234.644 190.342 234.593Z" fill="#6991FF"/>
<path d="M381.547 144.563C381.547 144.563 379.307 140.82 377.013 137.078L373.849 131.965L372.394 129.655C370.7 126.968 372.224 123.541 375.858 122.078L377.783 121.308C381.424 119.845 385.804 120.946 387.444 123.672L388.853 126.013C389.684 127.43 390.808 129.316 391.932 131.211C394.149 134.999 396.313 138.795 396.313 138.795C397.852 141.552 396.236 144.909 392.717 146.249L391.778 146.603L390.847 146.973C389.13 147.648 387.243 147.762 385.458 147.296C383.85 146.926 382.448 145.946 381.547 144.563Z" fill="#6991FF"/>
<path d="M355.519 178.853L353.748 176.589L349.829 171.63L345.857 166.687C344.772 165.339 344.04 164.446 344.04 164.446C344.017 164.415 344.002 164.379 343.994 164.341C343.987 164.303 343.988 164.264 343.997 164.226C344.007 164.189 344.025 164.154 344.049 164.124C344.074 164.094 344.105 164.07 344.14 164.053L348.128 161.743L350.876 160.165L352.139 159.456C352.213 159.411 352.299 159.393 352.385 159.404C352.47 159.415 352.549 159.456 352.609 159.518C352.609 159.518 355.495 163.137 358.321 166.764C359.737 168.581 361.146 170.414 362.17 171.784L363.91 174.095C363.933 174.126 363.948 174.163 363.955 174.201C363.962 174.24 363.96 174.279 363.95 174.317C363.939 174.354 363.921 174.389 363.895 174.419C363.87 174.448 363.838 174.472 363.802 174.487L359.86 176.697L355.942 178.946C355.871 178.977 355.791 178.985 355.715 178.968C355.639 178.951 355.57 178.911 355.519 178.853Z" fill="#6991FF"/>
<path d="M371.73 254.882C371.73 254.882 372.708 250.547 373.74 246.204C374.263 244.032 374.779 241.861 375.171 240.236C375.564 238.611 375.834 237.526 375.834 237.526C375.855 237.45 375.905 237.386 375.972 237.346C376.039 237.306 376.119 237.293 376.195 237.31L380.26 238.149C381.276 238.349 382.285 238.565 383.039 238.727L384.302 238.996C384.338 239.003 384.373 239.016 384.404 239.037C384.435 239.057 384.461 239.084 384.482 239.115C384.502 239.146 384.516 239.181 384.522 239.217C384.528 239.254 384.526 239.291 384.517 239.327C384.517 239.327 383.401 243.64 382.339 247.959C381.276 252.279 380.237 256.614 380.237 256.614C380.215 256.686 380.168 256.747 380.104 256.785C380.04 256.824 379.964 256.837 379.891 256.822L378.659 256.56L375.934 256.014L371.954 255.244C371.913 255.238 371.875 255.223 371.841 255.201C371.807 255.179 371.779 255.149 371.757 255.115C371.736 255.08 371.723 255.042 371.718 255.001C371.713 254.961 371.717 254.92 371.73 254.882Z" fill="#6991FF"/>
<path d="M330.607 223.225L327.681 212.283C327.677 212.259 327.681 212.235 327.694 212.215C327.707 212.195 327.727 212.18 327.75 212.175L333.424 210.766C333.435 210.761 333.446 210.758 333.458 210.758C333.469 210.759 333.481 210.761 333.491 210.767C333.501 210.772 333.51 210.779 333.518 210.788C333.525 210.798 333.53 210.808 333.532 210.82L336.38 221.777C336.383 221.801 336.376 221.826 336.362 221.845C336.348 221.865 336.327 221.879 336.303 221.885L330.714 223.278C330.693 223.284 330.67 223.281 330.65 223.271C330.631 223.262 330.615 223.245 330.607 223.225Z" fill="#6991FF"/>
<path d="M295.925 185.384L301.715 187.694L305.672 189.319L307.473 190.089C307.521 190.111 307.575 190.115 307.626 190.101C307.676 190.087 307.72 190.056 307.75 190.012L310.629 185.577C310.642 185.557 310.651 185.535 310.654 185.512C310.657 185.488 310.655 185.465 310.647 185.442C310.64 185.42 310.628 185.4 310.611 185.383C310.595 185.366 310.574 185.354 310.552 185.346L304.778 182.913L298.982 180.556C298.931 180.537 298.876 180.536 298.825 180.551C298.774 180.566 298.729 180.598 298.697 180.641L295.841 185.122C295.823 185.143 295.811 185.169 295.805 185.196C295.8 185.223 295.802 185.251 295.81 185.277C295.819 185.303 295.834 185.327 295.854 185.346C295.874 185.364 295.899 185.378 295.925 185.384Z" fill="#6991FF"/>
<path d="M323.208 272.025L324.147 270.485L326.218 267.12L329.297 262.223C329.324 262.182 329.365 262.153 329.411 262.14C329.458 262.128 329.508 262.132 329.551 262.153L331.815 263.339L333.354 264.109L334.063 264.487C334.083 264.498 334.101 264.513 334.115 264.531C334.129 264.549 334.139 264.57 334.145 264.593C334.151 264.615 334.152 264.638 334.148 264.661C334.145 264.684 334.137 264.706 334.124 264.725L333.162 266.265L331.068 269.63L328.05 274.52C328.024 274.56 327.983 274.59 327.936 274.602C327.89 274.615 327.84 274.61 327.796 274.589L325.548 273.403L323.293 272.233C323.257 272.213 323.229 272.182 323.213 272.144C323.198 272.106 323.196 272.064 323.208 272.025Z" fill="#6991FF"/>
</g>
</g>
</svg>
