<svg width="911" height="908" viewBox="0 0 911 908" fill="none" xmlns="http://www.w3.org/2000/svg">
<path d="M-438.058 32.351L-708.063 686.704C-713.313 699.431 -707.539 714.035 -695.008 719.721L144.564 1100.72C152.79 1104.45 162.37 1103.57 169.766 1098.38L824.097 640.323C834.214 633.244 837.816 619.943 832.668 608.724L516.526 -80.1024C511.889 -90.2093 501.236 -96.1636 490.2 -94.8092L-417.557 16.7243C-426.702 17.8487 -434.545 23.8157 -438.058 32.3382V32.351Z" fill="#DA0081"/>
<path d="M156.43 -100.938L-649.58 333.783C-662.042 340.511 -666.656 356.075 -659.869 368.486L-333.452 965.704C-328.723 974.36 -319.418 979.531 -309.55 978.957L609.679 926.225C619.712 925.651 628.48 919.254 632.085 909.882L864.302 305.361C868.852 293.5 863.995 280.107 852.9 273.914L181.034 -100.759C173.404 -105.011 164.124 -105.088 156.43 -100.938Z" fill="#200020"/>
<path d="M908.442 280.93L901.047 254.32C900.182 251.209 896.958 249.388 893.846 250.253L871.296 256.522C868.183 257.387 866.362 260.611 867.226 263.722L874.621 290.332C875.486 293.443 878.71 295.264 881.822 294.399L904.372 288.13C907.485 287.265 909.306 284.041 908.442 280.93Z" fill="#200020"/>
</svg>
