<svg width="768" height="1002" viewBox="0 0 768 1002" fill="none" xmlns="http://www.w3.org/2000/svg">
<path d="M1200.84 -173.998L767.309 -885.811C758.877 -899.654 741.449 -905.768 727.909 -899.632L-179.31 -488.536C-188.197 -484.507 -193.668 -475.915 -193.683 -465.919L-195.886 417.747C-195.923 431.407 -185.872 444.313 -172.017 448.42L678.744 700.498C691.226 704.199 703.783 699.818 709.768 689.667L1201.96 -145.36C1206.92 -153.773 1206.5 -164.721 1200.85 -173.988L1200.84 -173.998Z" fill="#DA0081"/>
<path d="M944.116 411.763L1067.74 -580.115C1069.65 -595.456 1058.15 -610.89 1042.1 -614.528L270.118 -789.75C258.93 -792.292 247.989 -788.443 242.044 -779.842L-312.581 20.8159C-318.636 29.5545 -318.423 41.5887 -312.042 51.5658L99.7871 694.904C107.872 707.522 123.566 713.492 136.636 708.923L927.786 432.008C936.768 428.86 942.935 421.232 944.116 411.763Z" fill="#200020"/>
<path d="M84.2293 755.731L113.93 769.459C117.403 771.064 121.22 769.753 122.457 766.53L131.418 743.176C132.655 739.953 130.842 736.039 127.369 734.434L97.6686 720.706C94.1959 719.101 90.3781 720.412 89.1415 723.635L80.1805 746.989C78.9438 750.212 80.7566 754.126 84.2293 755.731Z" fill="#200020"/>
</svg>
