<svg width="375" height="296" viewBox="0 0 375 296" fill="none" xmlns="http://www.w3.org/2000/svg">
<path d="M347.878 252.735L925.021 -792.645C936.244 -812.977 934.425 -841.575 920.906 -857.297L15.1197 -1910.8C6.24418 -1921.12 -6.01526 -1923.83 -17.138 -1917.89L-1000.86 -1393.77C-1016.07 -1385.67 -1025.45 -1363.58 -1023.17 -1341.3L-882.752 27.0881C-880.694 47.165 -869.613 62.528 -855.366 65.04L316.587 271.428C328.395 273.506 340.361 266.375 347.873 252.758L347.878 252.735Z" fill="#DA0081"/>
<path d="M663.535 174.935L1071.14 -1001.75C1079.06 -1024.63 1072.96 -1052.17 1057.34 -1064.01L10.6521 -1857.18C0.396557 -1864.95 -12.0245 -1864.36 -22.0256 -1855.61L-906.763 -1082.36C-920.442 -1070.41 -926.297 -1046.28 -920.692 -1025.05L-576.394 278.705C-571.345 297.834 -558.166 309.962 -543.826 308.662L635.698 201.512C647.582 200.431 658.231 190.284 663.534 174.958L663.535 174.935Z" fill="#ECE7F5"/>
</svg>
