<svg width="1200" height="394" viewBox="0 0 1200 394" fill="none" xmlns="http://www.w3.org/2000/svg">
<path d="M1066.15 359.341L2012.04 -936.689C2030.43 -961.896 2027.45 -997.351 2005.29 -1016.84L520.785 -2322.95C506.239 -2335.74 486.147 -2339.1 467.917 -2331.73L-1144.32 -1681.95C-1169.25 -1671.91 -1184.62 -1644.52 -1180.88 -1616.89L-950.75 79.5908C-947.377 104.482 -929.216 123.528 -905.866 126.642L1014.86 382.516C1034.22 385.092 1053.83 376.251 1066.14 359.369L1066.15 359.341Z" fill="#DA0081"/>
<path d="M1265.48 253.209L1933.5 -1205.61C1946.49 -1233.98 1936.49 -1268.12 1910.88 -1282.8L195.456 -2266.15C178.648 -2275.78 158.291 -2275.05 141.9 -2264.19L-1308.11 -1305.54C-1330.53 -1290.73 -1340.12 -1260.82 -1330.94 -1234.5L-766.662 381.86C-758.386 405.576 -736.788 420.612 -713.285 419.001L1219.85 286.159C1239.33 284.819 1256.78 272.239 1265.47 253.238L1265.48 253.209Z" fill="#ECE7F5"/>
</svg>
