<svg width="1439" height="455" viewBox="0 0 1439 455" fill="none" xmlns="http://www.w3.org/2000/svg">
<path d="M1296.15 412.825L2242.04 -883.205C2260.43 -908.411 2257.45 -943.866 2235.29 -963.359L750.785 -2269.47C736.239 -2282.26 716.147 -2285.61 697.917 -2278.24L-914.324 -1628.46C-939.249 -1618.42 -954.625 -1591.04 -950.879 -1563.41L-720.75 133.075C-717.377 157.966 -699.216 177.012 -675.866 180.127L1244.86 436C1264.22 438.577 1283.83 429.735 1296.14 412.853L1296.15 412.825Z" fill="#DA0081"/>
<path d="M1488.72 287.858L2156.75 -1170.96C2169.74 -1199.33 2159.74 -1233.48 2134.13 -1248.15L418.704 -2231.5C401.896 -2241.13 381.539 -2240.4 365.148 -2229.54L-1084.86 -1270.89C-1107.28 -1256.08 -1116.88 -1226.17 -1107.69 -1199.85L-543.414 416.508C-535.138 440.224 -513.539 455.26 -490.037 453.649L1443.1 320.807C1462.58 319.467 1480.03 306.887 1488.72 287.887L1488.72 287.858Z" fill="#ECE7F5"/>
</svg>
