<svg width="1920" height="455" viewBox="0 0 1920 455" fill="none" xmlns="http://www.w3.org/2000/svg">
<path d="M1697.15 412.825L2643.04 -883.205C2661.43 -908.411 2658.45 -943.866 2636.29 -963.359L1151.79 -2269.47C1137.24 -2282.26 1117.15 -2285.61 1098.92 -2278.24L-513.324 -1628.46C-538.249 -1618.42 -553.625 -1591.04 -549.879 -1563.41L-319.75 133.075C-316.377 157.966 -298.216 177.012 -274.866 180.127L1645.86 436C1665.22 438.577 1684.83 429.735 1697.14 412.853L1697.15 412.825Z" fill="#DA0081"/>
<path d="M1974.91 287.858L2642.94 -1170.96C2655.92 -1199.33 2645.92 -1233.48 2620.32 -1248.15L904.892 -2231.5C888.084 -2241.13 867.727 -2240.4 851.336 -2229.54L-598.673 -1270.89C-621.091 -1256.08 -630.688 -1226.17 -621.5 -1199.85L-57.2261 416.508C-48.9506 440.224 -27.352 455.26 -3.84964 453.649L1929.29 320.807C1948.77 319.467 1966.22 306.887 1974.91 287.887L1974.91 287.858Z" fill="#ECE7F5"/>
</svg>
