<svg width="669" height="468" viewBox="0 0 669 468" fill="none" xmlns="http://www.w3.org/2000/svg">
<path d="M-555.23 43.7918L-755.986 555.018C-759.89 564.961 -755.212 576.212 -745.411 580.454L-88.6801 864.703C-82.2455 867.487 -74.8221 866.674 -69.1518 862.55L432.527 498.425C440.284 492.798 442.901 482.431 438.755 473.798L184.128 -56.2837C180.393 -64.0614 172.045 -68.5368 163.498 -67.3377L-539.529 31.394C-546.612 32.3893 -552.619 37.1236 -555.23 43.7819L-555.23 43.7918Z" fill="#DA0081"/>
<path d="M-103.528 -72.0813L-722.902 276.288C-732.479 281.679 -735.848 293.826 -730.417 303.37L-469.175 762.679C-465.39 769.336 -458.102 773.226 -450.456 772.647L261.885 719.344C269.661 718.763 276.376 713.679 279.046 706.354L451.041 233.863C454.411 224.592 450.463 214.258 441.773 209.6L-84.4397 -72.2734C-90.416 -75.4719 -97.6151 -75.4066 -103.528 -72.0813Z" fill="#ECE7F5"/>
</svg>
