<svg width="656" height="803" viewBox="0 0 656 803" fill="none" xmlns="http://www.w3.org/2000/svg">
<g clip-path="url(#clip0_355_32592)">
<path d="M821.796 137.829L824.021 -411.398C824.064 -422.08 815.633 -430.877 804.961 -431.286L89.8801 -458.714C82.8743 -458.982 76.2477 -455.538 72.4532 -449.643L-263.53 71.3031C-268.725 79.3551 -267.415 89.9661 -260.426 96.5147L168.712 498.587C175.007 504.487 184.408 505.64 191.943 501.43L811.642 155.067C817.886 151.577 821.773 144.99 821.799 137.838L821.796 137.829Z" fill="#DA0081"/>
<path d="M442.617 409.255L894.024 -139.578C901.001 -148.069 899.748 -160.612 891.232 -167.545L481.529 -501.244C475.592 -506.082 467.391 -507.072 460.472 -503.766L-184.345 -196.386C-191.383 -193.031 -195.805 -185.862 -195.644 -178.067L-185.069 324.643C-184.857 334.505 -177.438 342.711 -167.652 343.911L424.891 416.339C431.619 417.159 438.307 414.494 442.617 409.255Z" fill="#200020"/>
</g>
<defs>
<clipPath id="clip0_355_32592">
<rect width="675" height="838" fill="white" transform="translate(-3 -35)"/>
</clipPath>
</defs>
</svg>
