<svg width="24" height="416" viewBox="0 0 24 416" fill="none" xmlns="http://www.w3.org/2000/svg">
<path d="M3.20591 342.367L3 410.662H4.83607L5.05914 342.367H3.20591Z" fill="#646464"/>
<path d="M19.1639 342.414L18.958 410.709H20.8112L21 342.414H19.1639Z" fill="#646464"/>
<path d="M8.90295 338.932L8.79999 337.902C9.16034 337.851 9.41773 337.714 9.58932 337.525C9.74376 337.319 9.82956 337.079 9.82956 336.752C9.8467 336.392 9.76091 336.152 9.62368 335.981C9.48639 335.792 9.31478 335.706 9.10886 335.706C8.98875 335.706 8.88579 335.74 8.78283 335.808C8.71419 335.877 8.6284 335.997 8.55976 336.186C8.50828 336.306 8.43964 336.598 8.31953 337.027C8.18225 337.61 8.01066 338.005 7.80474 338.228C7.51303 338.554 7.15268 338.726 6.72369 338.726C6.48346 338.726 6.20891 338.64 5.98583 338.486C5.76276 338.332 5.574 338.108 5.45389 337.817C5.33377 337.542 5.26514 337.181 5.26514 336.77C5.2823 336.117 5.41957 335.62 5.71128 335.294C6.003 334.968 6.39766 334.779 6.87813 334.762L6.91244 335.826C6.6379 335.861 6.44914 335.963 6.31186 336.117C6.19174 336.255 6.14027 336.495 6.14027 336.787C6.14027 337.096 6.20891 337.336 6.32903 337.508C6.39766 337.628 6.51778 337.662 6.65506 337.662C6.77517 337.662 6.87813 337.61 6.96393 337.525C7.08404 337.388 7.20416 337.061 7.32427 336.547C7.44439 336.015 7.5645 335.654 7.70179 335.397C7.83906 335.157 8.01066 334.968 8.25089 334.83C8.47396 334.694 8.74851 334.625 9.0917 334.625C9.38342 334.642 9.67512 334.728 9.93249 334.865C10.2071 335.037 10.3958 335.277 10.516 335.586C10.636 335.895 10.7047 336.272 10.7047 336.735C10.6875 337.405 10.5502 337.902 10.2242 338.28C9.9497 338.657 9.48639 338.863 8.90295 338.932Z" fill="#646464"/>
<path d="M5.35107 333.837V332.773L8.23388 332.79C8.69718 332.79 8.98889 332.79 9.10901 332.756C9.33208 332.704 9.52084 332.601 9.64093 332.43C9.76108 332.258 9.84687 332.035 9.84687 331.726C9.84687 331.435 9.77822 331.195 9.65814 331.04C9.53799 330.886 9.38356 330.8 9.19481 330.766C9.00605 330.731 8.71434 330.714 8.28535 330.714L5.35107 330.697V329.633L8.14808 329.65C8.78298 329.65 9.22912 329.684 9.48649 329.736C9.74393 329.804 9.96701 329.89 10.1557 330.062C10.3273 330.216 10.4818 330.422 10.5847 330.68C10.6877 330.937 10.7391 331.263 10.7391 331.692C10.7391 332.189 10.6877 332.567 10.5504 332.824C10.4303 333.099 10.2758 333.288 10.0871 333.442C9.89837 333.58 9.70957 333.682 9.5037 333.734C9.19481 333.802 8.74866 333.837 8.16524 333.837H5.35107Z" fill="#646464"/>
<path d="M10.6362 328.637L5.35107 328.62L5.36823 326.904C5.36823 326.252 5.40256 325.841 5.45403 325.634C5.52267 325.343 5.69427 325.068 5.96882 324.879C6.24337 324.674 6.58656 324.57 6.99839 324.57C7.32442 324.57 7.58182 324.639 7.80489 324.759C8.02796 324.879 8.19955 325.034 8.33683 325.205C8.45695 325.394 8.54275 325.583 8.57706 325.754C8.62855 326.029 8.6457 326.39 8.6457 326.87V327.573H10.6534L10.6362 328.637ZM6.26053 327.573H7.77056V326.99C7.77056 326.578 7.75341 326.286 7.68477 326.149C7.63329 326.012 7.54749 325.892 7.42738 325.823C7.30726 325.754 7.18714 325.703 7.03271 325.703C6.82679 325.703 6.67236 325.754 6.55224 325.857C6.43213 325.977 6.34633 326.115 6.32917 326.286C6.29485 326.424 6.29485 326.681 6.29485 327.059L6.26053 327.573Z" fill="#646464"/>
<path d="M10.6705 323.832L5.36816 323.814L5.38532 319.902L6.27762 319.92V322.751H7.44447L7.46162 320.108H8.33676V322.751L9.77818 322.768V319.816H10.6876L10.6705 323.832Z" fill="#646464"/>
<path d="M10.6709 319.009L5.38574 318.993V316.744C5.38574 316.178 5.43722 315.766 5.54018 315.509C5.64314 315.251 5.81473 315.046 6.05497 314.891C6.27804 314.754 6.56975 314.668 6.87862 314.668C7.27329 314.668 7.59932 314.788 7.85671 315.029C8.1141 315.269 8.2857 315.612 8.33718 316.075C8.47446 315.869 8.61173 315.664 8.78333 315.526C8.95492 315.372 9.22948 315.166 9.65844 314.909L10.688 314.273L10.6709 315.56L9.52121 316.298C9.10936 316.59 8.85196 316.762 8.74901 316.865C8.64605 316.967 8.56026 317.071 8.52593 317.191C8.49162 317.294 8.47446 317.482 8.47446 317.722V317.946L10.6709 317.963V319.009ZM7.63364 317.946V317.156C7.63364 316.658 7.61648 316.333 7.58216 316.213C7.53068 316.075 7.46204 315.973 7.35909 315.904C7.25613 315.835 7.11886 315.784 6.96442 315.784C6.77567 315.784 6.63839 315.835 6.53543 315.921C6.41531 316.024 6.34668 316.144 6.32952 316.316C6.31236 316.402 6.2952 316.676 6.2952 317.087V317.929H7.63364V317.946Z" fill="#646464"/>
<path d="M10.687 313.846L5.40186 313.812V312.766H10.687V313.846Z" fill="#646464"/>
<path d="M10.7041 311.854L5.40186 311.836V310.807L8.97103 308.645L5.41901 308.628V307.633L10.7041 307.65V308.731L7.23793 310.858L10.7041 310.876V311.854Z" fill="#646464"/>
<path d="M10.7217 305.455H6.31166V306.999H5.43652V302.812H6.32882V304.374L10.7217 304.392V305.455Z" fill="#646464"/>
<path d="M10.7217 302.244L5.43652 302.227L5.45369 298.331H6.32882V301.18H7.51283V298.52H8.40512V301.18H9.84652V298.246H10.7388L10.7217 302.244Z" fill="#646464"/>
<path d="M10.7397 297.44L5.45459 297.422V296.376L9.00661 294.213H5.47175V293.219L10.7569 293.235V294.299L7.2735 296.444H10.7397V297.44Z" fill="#646464"/>
<path d="M5.4707 292.209L5.48786 290.27C5.48786 289.841 5.52218 289.515 5.59082 289.275C5.67662 288.966 5.83105 288.708 6.07128 288.468C6.29435 288.245 6.58607 288.091 6.92926 287.971C7.25529 287.868 7.68428 287.816 8.16474 287.816C8.61089 287.833 8.9884 287.868 9.29727 287.971C9.67481 288.108 9.98362 288.297 10.2239 288.537C10.3955 288.726 10.5327 288.983 10.6357 289.292C10.7044 289.532 10.7558 289.841 10.7558 290.235L10.7387 292.226L5.4707 292.209ZM6.36299 291.145L9.86354 291.162V290.373C9.86354 290.081 9.84639 289.875 9.81204 289.721C9.7606 289.55 9.69195 289.412 9.58895 289.309C9.48601 289.189 9.31443 289.103 9.09136 289.017C8.85113 288.949 8.5251 288.915 8.11327 288.915C7.7186 288.915 7.39257 288.949 7.18665 289.017C6.96358 289.086 6.79198 289.189 6.67187 289.309C6.55175 289.446 6.46595 289.601 6.43163 289.806C6.39731 289.944 6.38015 290.235 6.38015 290.682V291.145H6.36299Z" fill="#646464"/>
<path d="M10.7734 287.008L5.48828 286.99V283.095H6.38058V285.944H7.54743L7.56458 283.284L8.45687 283.301L8.43972 285.944H9.88109L9.8983 282.992H10.7734V287.008Z" fill="#646464"/>
<path d="M10.7905 282.206L5.50537 282.189V281.159L9.05739 278.98H5.50537V277.984L10.7905 278.002V279.066L7.30712 281.211H10.7905V282.206Z" fill="#646464"/>
<path d="M8.86843 273.59L9.19446 272.543C9.76073 272.697 10.1897 272.989 10.4814 273.35C10.7559 273.727 10.8932 274.19 10.8932 274.756C10.8932 275.46 10.653 276.043 10.1725 276.49C9.69209 276.953 9.04003 277.159 8.19921 277.159C7.32407 277.159 6.63769 276.936 6.15722 276.472C5.67676 276.009 5.43652 275.426 5.43652 274.67C5.43652 274.036 5.64244 273.504 6.00279 273.092C6.22586 272.852 6.55189 272.68 6.98088 272.56L7.22111 273.607C6.94656 273.658 6.74065 273.796 6.56905 274.001C6.41462 274.207 6.32882 274.448 6.32882 274.722C6.32882 275.117 6.4661 275.443 6.74065 275.683C7.0152 275.923 7.47851 276.061 8.11341 276.061C8.78263 276.061 9.24594 275.941 9.53765 275.7C9.81223 275.46 9.94946 275.151 9.96661 274.756C9.96661 274.482 9.86367 274.241 9.69209 274.036C9.53765 273.83 9.24594 273.692 8.86843 273.59Z" fill="#646464"/>
<path d="M10.8247 271.803L5.53955 271.787V270.723L10.8247 270.74V271.803Z" fill="#646464"/>
<path d="M10.8252 265.062V266.212L9.62408 266.658L9.60694 268.769L10.8081 269.215V270.365L5.52295 268.305L5.54011 267.173L10.8252 265.062ZM8.73178 267.001L6.75844 267.739L8.71462 268.46L8.73178 267.001Z" fill="#646464"/>
<path d="M10.8418 262.95L5.55664 262.933V259.312H6.44894V261.886H7.68442L7.70158 259.655H8.59387V261.886H10.8418V262.95Z" fill="#646464"/>
<path d="M10.8589 258.576L5.57373 258.558V257.512L10.8589 257.528V258.576Z" fill="#646464"/>
<path d="M10.8589 256.619L5.57373 256.603V255.573L9.12575 253.394H5.59089V252.398L10.876 252.416V253.479L7.39264 255.607L10.876 255.625L10.8589 256.619Z" fill="#646464"/>
<path d="M10.8932 246.633L10.876 247.765L9.67487 248.229L9.65773 250.339L10.8589 250.785V251.918L5.57373 249.858V248.709L10.8932 246.633ZM8.78256 248.572L6.82638 249.309L8.78256 250.03V248.572Z" fill="#646464"/>
<path d="M10.893 246.186L5.60791 246.169V245.139L9.15993 242.96L5.60791 242.943V241.965L10.893 241.982V243.063L7.42682 245.19L10.893 245.208V246.186Z" fill="#646464"/>
<path d="M8.97201 237.57L9.29804 236.541C9.88146 236.696 10.3104 236.97 10.585 237.33C10.8595 237.708 11.014 238.171 10.9968 238.737C10.9968 239.441 10.7566 240.024 10.2761 240.47C9.79567 240.934 9.14361 241.139 8.30279 241.139C7.4105 241.123 6.74128 240.899 6.24365 240.453C5.76318 239.99 5.52295 239.389 5.52295 238.634C5.52295 237.999 5.71171 237.467 6.08921 237.072C6.31229 236.832 6.63832 236.644 7.06731 236.523L7.30754 237.587C7.03299 237.656 6.82708 237.776 6.67264 237.982C6.5182 238.171 6.43241 238.428 6.43241 238.686C6.43241 239.08 6.56968 239.423 6.84423 239.647C7.11878 239.904 7.58209 240.024 8.19984 240.024C8.88621 240.024 9.34952 239.904 9.62408 239.664C9.91575 239.423 10.053 239.115 10.053 238.72C10.053 238.445 9.96725 238.188 9.77852 237.999C9.64123 237.81 9.36668 237.674 8.97201 237.57Z" fill="#646464"/>
<path d="M10.9277 235.788L5.64258 235.77V234.707L10.9277 234.724V235.788Z" fill="#646464"/>
<path d="M10.9277 233.816L5.64258 233.799V229.886H6.55203L6.53488 232.752H7.71888V230.092H8.61118L8.59402 232.752H10.0354L10.0526 229.801H10.9449L10.9277 233.816Z" fill="#646464"/>
<path d="M10.9443 228.993L5.65918 228.976L5.67634 226.728C5.67634 226.162 5.71066 225.75 5.81362 225.492C5.91658 225.218 6.08817 225.029 6.3284 224.892C6.56864 224.738 6.84319 224.652 7.15206 224.652C7.54673 224.652 7.87276 224.772 8.13015 224.995C8.38754 225.235 8.55914 225.578 8.61062 226.042C8.7479 225.818 8.90233 225.63 9.05677 225.476C9.22836 225.321 9.50294 225.132 9.91475 224.874L10.9443 224.223V225.51L9.79461 226.265C9.3828 226.539 9.1254 226.728 9.00528 226.814C8.90233 226.934 8.81653 227.037 8.78221 227.14C8.7479 227.243 8.73074 227.432 8.73074 227.672V227.895L10.9272 227.912V228.993H10.9443ZM7.88992 227.929V227.14C7.88992 226.642 7.87276 226.316 7.83844 226.179C7.78696 226.059 7.71832 225.956 7.61537 225.87C7.51241 225.801 7.37514 225.767 7.2207 225.767C7.04911 225.767 6.91182 225.801 6.79171 225.904C6.67159 225.99 6.62011 226.145 6.58579 226.299C6.56864 226.367 6.56864 226.642 6.56864 227.089V227.912H7.88992V227.929Z" fill="#646464"/>
<path d="M10.9786 219.023L10.9615 220.19L9.76032 220.637L9.74317 222.747L10.9443 223.194V224.326L5.65918 222.267L5.67634 221.134L10.9786 219.023ZM8.86801 220.963L6.91182 221.701L8.86801 222.421V220.963Z" fill="#646464"/>
<path d="M13.6211 304.117V302.161C13.6382 301.732 13.6726 301.389 13.7412 301.166C13.8442 300.857 13.9815 300.6 14.2217 300.377C14.4448 300.153 14.7365 299.999 15.0797 299.879C15.4057 299.776 15.8347 299.707 16.3323 299.707C16.7785 299.724 17.1388 299.776 17.4649 299.879C17.8424 300.016 18.1684 300.205 18.3914 300.445C18.5802 300.617 18.7175 300.874 18.8205 301.183C18.8891 301.424 18.9405 301.749 18.9234 302.144V304.135L13.6211 304.117ZM14.5306 303.053L18.0311 303.071V302.264C18.0311 301.989 18.014 301.766 17.9796 301.629C17.9282 301.458 17.8595 301.303 17.7565 301.2C17.6536 301.08 17.482 300.995 17.2589 300.909C17.0187 300.84 16.6927 300.788 16.298 300.788C15.8862 300.788 15.5773 300.822 15.3542 300.909C15.1311 300.977 14.9595 301.08 14.8566 301.2C14.7365 301.32 14.6335 301.492 14.5992 301.698C14.5649 301.835 14.5477 302.127 14.5477 302.573V303.053H14.5306Z" fill="#646464"/>
<path d="M18.9419 298.918L13.6396 298.9L13.6568 294.988H14.5491L14.5319 297.837H15.6988L15.7159 295.177L16.6254 295.195L16.6082 297.837H18.0325L18.0496 294.902H18.9419V298.918Z" fill="#646464"/>
<path d="M17.0188 288.777L17.3448 287.73C17.911 287.885 18.34 288.177 18.6317 288.537C18.9235 288.915 19.0607 289.36 19.0436 289.927C19.0436 290.63 18.8033 291.214 18.3229 291.66C17.8424 292.123 17.1903 292.329 16.3495 292.329C15.4744 292.312 14.788 292.106 14.3247 291.643C13.8443 291.18 13.5868 290.596 13.604 289.841C13.5868 289.206 13.7928 288.674 14.1703 288.262C14.3934 288.039 14.7194 287.851 15.1484 287.73L15.3886 288.777C15.1141 288.829 14.891 288.966 14.7537 289.155C14.5821 289.36 14.4963 289.601 14.5135 289.893C14.4963 290.27 14.6507 290.613 14.9253 290.837C15.1999 291.093 15.6632 291.214 16.2981 291.214C16.9673 291.214 17.4477 291.093 17.7223 290.853C18.014 290.613 18.1513 290.304 18.1513 289.91C18.1513 289.635 18.0655 289.378 17.8768 289.189C17.688 289.017 17.4134 288.863 17.0188 288.777Z" fill="#646464"/>
<path d="M16.3668 287.146C15.8349 287.146 15.3887 287.078 14.994 286.906C14.7366 286.786 14.4964 286.631 14.2733 286.409C14.0674 286.202 13.8958 285.962 13.7929 285.74C13.6556 285.413 13.5869 285.019 13.5869 284.59C13.5869 283.818 13.8443 283.2 14.3248 282.737C14.8053 282.256 15.4745 282.016 16.3325 282.016C17.1732 282.016 17.8425 282.256 18.3401 282.737C18.8206 283.2 19.0608 283.818 19.0608 284.59C19.0437 285.379 18.8034 285.997 18.323 286.46C17.8768 286.924 17.2076 287.146 16.3668 287.146ZM16.3325 286.048C16.933 286.048 17.3792 285.928 17.7052 285.653C18.0141 285.379 18.1857 285.019 18.1857 284.607C18.1857 284.178 18.0312 283.852 17.7223 283.56C17.4135 283.286 16.9674 283.166 16.3496 283.166C15.7319 283.148 15.2857 283.286 14.994 283.543C14.6851 283.818 14.5307 284.161 14.5307 284.607C14.5135 285.053 14.668 285.396 14.9769 285.671C15.2685 285.911 15.7147 286.048 16.3325 286.048Z" fill="#646464"/>
<path d="M18.9925 281.294L13.7417 281.277V280.213H18.083L18.1002 277.57H18.9925V281.294Z" fill="#646464"/>
<path d="M16.3838 277.142C15.8518 277.142 15.4057 277.056 15.0282 276.902C14.7708 276.764 14.5306 276.61 14.3075 276.387C14.1016 276.181 13.93 275.941 13.827 275.717C13.6897 275.374 13.6211 274.997 13.6211 274.568C13.6211 273.795 13.8613 273.161 14.359 272.715C14.8395 272.252 15.5087 272.011 16.3666 272.028C17.2074 272.028 17.8767 272.252 18.3743 272.715C18.8547 273.195 19.095 273.813 19.095 274.585C19.095 275.374 18.8547 275.992 18.3743 276.455C17.911 276.902 17.2418 277.142 16.3838 277.142ZM16.3666 276.026C16.9672 276.026 17.4134 275.89 17.7394 275.615C18.0483 275.323 18.2198 274.997 18.2198 274.568C18.2198 274.156 18.0654 273.779 17.7565 273.504C17.4477 273.23 17.0015 273.11 16.3838 273.11C15.766 273.11 15.3199 273.23 15.0282 273.504C14.7193 273.761 14.5649 274.122 14.5649 274.551C14.5649 274.997 14.7193 275.357 15.0282 275.615C15.3027 275.89 15.7489 276.026 16.3666 276.026Z" fill="#646464"/>
<path d="M19.0097 271.309L13.7246 271.291V269.679L17.3452 268.752L13.7246 267.808L13.7418 266.195L19.0441 266.213L19.0269 267.191L14.8571 267.173L19.0269 268.237V269.267L14.8571 270.297L19.0097 270.313V271.309Z" fill="#646464"/>
<path d="M13.7417 265.251L13.7588 263.14C13.7588 262.712 13.776 262.403 13.8103 262.18C13.8618 261.991 13.9304 261.802 14.0334 261.63C14.1535 261.476 14.2907 261.339 14.4795 261.236C14.6683 261.116 14.8742 261.064 15.1144 261.064C15.3547 261.064 15.5949 261.133 15.7836 261.27C15.9896 261.407 16.1612 261.579 16.2641 261.819C16.3499 261.493 16.5043 261.253 16.7446 261.064C16.9676 260.892 17.225 260.824 17.5339 260.824C17.757 260.824 17.9972 260.876 18.2374 260.978C18.4605 261.098 18.6321 261.253 18.7694 261.442C18.9067 261.647 18.9925 261.871 19.0096 262.162C19.0439 262.351 19.0439 262.763 19.0439 263.449V265.251H13.7417ZM14.634 264.187H15.8694L15.8866 263.483C15.8694 263.054 15.8694 262.798 15.8523 262.694C15.8351 262.505 15.7836 262.369 15.6635 262.248C15.5605 262.145 15.4233 262.094 15.2517 262.094C15.0973 262.094 14.96 262.128 14.8571 262.214C14.7369 262.317 14.6854 262.437 14.6511 262.625C14.634 262.729 14.634 263.02 14.634 263.535V264.187ZM16.7618 264.187L18.1517 264.205V263.209C18.1517 262.814 18.1345 262.574 18.1174 262.471C18.083 262.317 18.0144 262.18 17.9114 262.076C17.8085 261.974 17.654 261.939 17.4653 261.939C17.3109 261.939 17.1907 261.991 17.0706 262.06C16.9676 262.145 16.8819 262.248 16.8304 262.403C16.7789 262.54 16.7618 262.866 16.7618 263.347V264.187Z" fill="#646464"/>
<path d="M19.0444 260.068H13.7593V259.004H19.0444V260.068Z" fill="#646464"/>
<path d="M19.0611 253.34V254.472L17.8428 254.936V257.063L19.0439 257.509V258.642L13.7417 256.6V255.45L19.0611 253.34ZM16.9676 255.279L15.0115 256.016L16.9676 256.737V255.279Z" fill="#646464"/>
<path d="M16.298 405.29L7.47803 408.379L7.49519 406.457L13.9986 404.261L7.49519 402.099L7.51234 400.211L16.298 403.368V405.29Z" fill="#646464"/>
<path d="M16.3155 398.751L7.5127 398.734V396.949L16.3155 396.967V398.751Z" fill="#646464"/>
<path d="M13.1068 390.567L11.6139 390.549L11.631 386.723L15.1316 386.74C15.4919 387.117 15.818 387.649 16.0925 388.352C16.3671 389.056 16.4872 389.777 16.5044 390.515C16.4872 391.425 16.2984 392.248 15.921 392.917C15.5263 393.587 14.9772 394.118 14.2565 394.461C13.5357 394.788 12.7464 394.976 11.9056 394.976C10.979 394.976 10.1725 394.77 9.45179 394.376C8.73109 393.998 8.19915 393.432 7.82163 392.694C7.51276 392.128 7.37549 391.407 7.37549 390.583C7.37549 389.503 7.59856 388.645 8.07902 388.027C8.54233 387.409 9.16008 387.032 9.98375 386.86L10.3098 388.627C9.88075 388.747 9.53758 388.988 9.29735 389.331C9.05712 389.657 8.91984 390.086 8.91984 390.618C8.91984 391.373 9.16008 392.008 9.65773 392.471C10.1382 392.934 10.876 393.174 11.837 393.174C12.8837 393.192 13.673 392.952 14.205 392.471C14.7197 392.008 14.9943 391.407 15.0115 390.635C15.0115 390.274 14.9428 389.914 14.7884 389.519C14.6339 389.159 14.4624 388.816 14.2565 388.559L13.1239 388.525L13.1068 390.567Z" fill="#646464"/>
<path d="M16.3506 384.56L7.56494 384.525V382.758L16.3678 382.775L16.3506 384.56Z" fill="#646464"/>
<path d="M16.367 380.425L7.63281 380.391V378.623H14.8913V374.23L16.3842 374.248L16.367 380.425Z" fill="#646464"/>
<path d="M16.4019 364.398V366.32L14.4114 367.076L14.3943 370.61L16.3848 371.348V373.236L7.59912 369.803V367.934L16.4019 364.398ZM12.9186 367.641L9.65826 368.877L12.9186 370.078V367.641Z" fill="#646464"/>
<path d="M7.61621 362.821L7.63337 359.577C7.63337 358.84 7.68484 358.29 7.80497 357.913C7.9594 357.415 8.2168 356.952 8.62862 356.592C9.00613 356.232 9.46942 355.957 10.0529 355.751C10.6191 355.562 11.3055 355.477 12.1292 355.477C12.867 355.477 13.4848 355.579 14.0167 355.751C14.6516 355.974 15.1664 356.283 15.5611 356.695C15.8699 357.004 16.093 357.415 16.2646 357.948C16.3847 358.342 16.4533 358.874 16.4533 359.509L16.4362 362.838L7.61621 362.821ZM9.10909 361.053L14.9433 361.07V359.749C14.9433 359.252 14.9262 358.908 14.8747 358.668C14.8061 358.377 14.6859 358.136 14.4972 357.964C14.3428 357.759 14.051 357.604 13.6564 357.501C13.2788 357.364 12.7469 357.312 12.0605 357.312C11.3913 357.312 10.8594 357.364 10.499 357.501C10.1215 357.621 9.84695 357.793 9.65822 357.982C9.45228 358.205 9.29784 358.479 9.24636 358.806C9.19489 359.046 9.16057 359.543 9.1434 360.264V361.053H9.10909Z" fill="#646464"/>
<path d="M12.0944 353.708C11.202 353.708 10.4471 353.587 9.84644 353.313C9.38316 353.107 8.98849 352.833 8.62813 352.489C8.26779 352.129 8.01039 351.769 7.8388 351.34C7.61573 350.791 7.49561 350.173 7.49561 349.453C7.51277 348.165 7.90743 347.118 8.71393 346.346C9.52042 345.557 10.6358 345.18 12.0772 345.18C13.5014 345.18 14.6168 345.557 15.4233 346.346C16.2298 347.136 16.6245 348.165 16.6245 349.453C16.6073 350.756 16.2127 351.803 15.4061 352.575C14.6168 353.313 13.5014 353.708 12.0944 353.708ZM12.0429 351.872C13.0382 351.872 13.7931 351.649 14.3251 351.203C14.8399 350.74 15.1144 350.156 15.1144 349.435C15.1144 348.731 14.8399 348.148 14.3423 347.702C13.8446 347.238 13.0725 346.998 12.0429 346.998C11.0305 346.998 10.2755 347.204 9.7778 347.667C9.2802 348.097 9.0228 348.68 9.0228 349.418C9.0228 350.156 9.26304 350.756 9.7778 351.203C10.2755 351.649 11.0305 351.872 12.0429 351.872Z" fill="#646464"/>
<path d="M16.0104 206.651L7.56787 206.616L7.58503 203.871C7.58503 202.704 7.9797 202.309 8.46017 201.984C8.92347 201.692 9.4211 201.658 9.5927 201.658C10.6394 201.675 11.343 202.035 11.5832 203.116H11.6347C11.7719 201.915 12.5098 201.383 13.6595 201.383C15.8216 201.4 16.0275 202.962 16.0275 203.923L16.0104 206.651ZM11.137 205.57V204.009C11.1199 203.151 10.6223 202.756 9.79858 202.756C9.09507 202.756 8.51164 203.151 8.51164 204.06L8.49449 205.57H11.137ZM15.0837 205.57V204.06C15.1009 202.911 14.2772 202.498 13.6595 202.498C12.321 202.498 12.0808 203.322 12.0808 204.42V205.57H15.0837Z" fill="#646464"/>
<path d="M7.60205 198.103V196.731L16.0617 194.02L16.0445 195.22L14.0369 195.821L14.0197 199.082L16.0274 199.716V200.798L7.60205 198.103ZM8.59731 197.451V197.469L13.0931 198.807L13.1103 196.113L8.59731 197.451Z" fill="#646464"/>
<path d="M7.63637 187.434L16.0788 187.468L16.0617 188.927L8.73458 192.238V192.256L16.0617 192.29V193.251L7.60205 193.234L7.61921 191.706L14.8605 188.429V188.412L7.63637 188.394V187.434Z" fill="#646464"/>
<path d="M9.97118 182.18C9.49071 182.163 9.01025 182.197 8.73569 182.42C8.46114 182.643 8.37534 183.141 8.37534 183.381C8.37534 184.273 8.90729 184.617 9.0274 184.651C9.13036 184.685 9.33628 184.891 10.7777 184.908H13.0255C15.1019 184.925 15.3421 184.239 15.3593 183.415C15.3593 183.09 15.2391 182.094 13.5919 182.077V180.961C16.2687 180.927 16.2516 182.797 16.2516 183.364C16.2516 184.41 16.1829 186.024 12.9055 186.024H10.5203C8.13511 186.006 7.44873 184.959 7.44873 183.295C7.46589 181.631 8.32386 180.979 9.95404 181.099V182.18H9.97118Z" fill="#646464"/>
<path d="M13.0088 179.862L10.2289 179.846C8.54729 179.846 7.4834 178.97 7.4834 177.186C7.50056 175.401 8.56445 174.526 10.2461 174.543L13.0088 174.56C15.3596 174.56 16.2691 175.435 16.2691 177.22C16.2691 179.004 15.3424 179.862 13.0088 179.862ZM13.0603 175.641L10.2118 175.624C8.44433 175.624 8.39285 176.842 8.37569 177.168C8.37569 177.512 8.42717 178.73 10.1946 178.73L13.0431 178.747C14.8963 178.747 15.3596 178.215 15.3596 177.203C15.3768 176.19 14.9135 175.659 13.0603 175.641Z" fill="#646464"/>
<path d="M16.1138 173.105L7.67139 173.071V172.007L15.1873 172.024V168.918L16.131 168.935L16.1138 173.105Z" fill="#646464"/>
<path d="M13.0424 168.351L10.2626 168.334C8.58098 168.334 7.51709 167.459 7.51709 165.674C7.53425 163.889 8.59814 163.014 10.2798 163.032L13.0424 163.048C15.3933 163.048 16.3027 163.923 16.3027 165.708C16.3027 167.493 15.3762 168.368 13.0424 168.351ZM13.0939 164.147L10.2455 164.13C8.47802 164.13 8.42655 165.348 8.40939 165.674C8.40939 166.017 8.46086 167.236 10.2283 167.236L13.0768 167.252C14.93 167.252 15.3933 166.721 15.3933 165.708C15.4105 164.696 14.9472 164.147 13.0939 164.147Z" fill="#646464"/>
<path d="M16.1485 160.577V161.59L7.70605 161.556L7.72321 159.823L14.8101 157.712V157.695L7.72321 155.515V153.73L16.1657 153.765V154.829L8.66699 154.812V154.846L16.1657 157.214V158.244L8.64983 160.526V160.56L16.1485 160.577Z" fill="#646464"/>
<path d="M16.1823 152.169L7.73975 152.134L7.7569 149.389C7.7569 148.222 8.15157 147.827 8.63204 147.501C9.09535 147.21 9.59297 147.175 9.76459 147.175C10.8113 147.192 11.5149 147.553 11.7551 148.634H11.8065C11.9267 147.433 12.6645 146.918 13.8142 146.918C15.9763 146.935 16.1823 148.496 16.1823 149.458V152.169ZM11.2918 151.088V149.526C11.2746 148.668 10.777 148.274 9.95332 148.274C9.24978 148.274 8.66636 148.668 8.66636 149.578L8.6492 151.088H11.2918ZM15.2385 151.088V149.578C15.2556 148.428 14.4319 148.016 13.8142 148.016C12.4758 148.016 12.2356 148.84 12.2356 149.938V151.088H15.2385Z" fill="#646464"/>
<path d="M16.1998 144.326V145.407L7.75732 145.373V144.309L16.1998 144.326Z" fill="#646464"/>
<path d="M7.77441 140.776V139.403L16.2341 136.691L16.2169 137.893L14.2092 138.493L14.1921 141.754L16.1998 142.389V143.469L7.77441 140.776ZM8.76967 140.123V140.14L13.2655 141.479L13.2826 138.785L8.76967 140.123Z" fill="#646464"/>
<path d="M13.7108 132.949H13.951C15.1008 132.949 15.4611 132.228 15.4611 131.541C15.4783 130.701 15.1008 130.032 14.0883 130.032C12.218 130.014 12.4239 133.807 9.88425 133.807C8.39139 133.807 7.60205 132.743 7.60205 131.319C7.60205 129.774 8.35707 128.916 10.073 128.985V130.1C9.14641 130.083 8.52867 130.375 8.52867 131.405C8.52867 132.039 8.85469 132.709 9.76417 132.709C11.6174 132.726 11.36 128.934 14.054 128.934C15.8215 128.934 16.4049 130.169 16.3877 131.559C16.4049 134.047 14.5001 134.047 13.6937 134.012V132.949H13.7108Z" fill="#646464"/>
<path d="M16.251 126.809H15.0327V127.907H16.251V126.809Z" fill="#646464"/>
<path d="M7.82617 123.58V122.207L16.2858 119.496L16.2686 120.697L14.261 121.298L14.2438 124.558L16.2515 125.193V126.274L7.82617 123.58ZM8.82142 122.945V122.962L13.3172 124.301L13.3344 121.607L8.82142 122.945Z" fill="#646464"/>
<path d="M16.2857 117.902H15.0674V119H16.2857V117.902Z" fill="#646464"/>
<path d="M15.9898 114.418L7.54736 114.4L7.56453 110.059H8.5083L8.49114 113.319L11.2024 113.337L11.2195 110.299H12.1461L12.1289 113.337L15.0632 113.353V110.008H16.007L15.9898 114.418Z" fill="#646464"/>
<path d="M16.1271 107.347C16.1271 108.634 15.5608 109.424 14.2052 109.372L14.2224 108.291C14.5484 108.291 15.3549 108.274 15.3549 107.313C15.3549 106.747 15.0631 106.3 14.4626 106.3C13.4158 106.3 13.3815 109.252 11.6141 109.235C10.9964 109.235 10.0011 108.857 10.0183 107.193C10.0183 106.146 10.5159 105.254 11.6999 105.34L11.6828 106.404C11.065 106.386 10.739 106.713 10.739 107.33C10.7218 107.845 11.0135 108.24 11.5283 108.24C12.575 108.24 12.5407 105.288 14.3596 105.305C15.6294 105.288 16.1271 106.198 16.1271 107.347Z" fill="#646464"/>
<path d="M10.1211 104.192H8.98856L8.55957 103.231L10.1211 103.248L10.1382 101.961H10.8589L10.8418 103.248L14.4625 103.265C14.8399 103.265 15.3032 103.265 15.3204 102.39C15.3204 102.322 15.2861 102.167 15.2689 101.961H16.0068C16.0239 102.27 16.1097 102.596 16.1097 102.905C16.0926 103.814 15.7323 104.226 15.0459 104.226L10.8418 104.192V105.17H10.1211V104.192Z" fill="#646464"/>
<path d="M15.1831 98.4412V98.4579C15.8523 98.7501 16.144 99.2131 16.144 99.951C16.144 101.204 15.3375 101.564 14.205 101.547C12.4204 101.547 12.3518 99.7968 12.3861 98.4412C11.5967 98.4066 10.7388 98.4066 10.7388 99.4366C10.7388 100.071 11.1678 100.415 11.7855 100.363V101.41C10.4642 101.358 10.0181 100.655 10.0181 99.4019C10.0352 97.8922 10.8074 97.4799 11.8027 97.4973H14.6512C15.1144 97.5146 15.5949 97.4632 16.0582 97.3945L16.0411 98.4412H15.1831ZM14.2736 100.603C14.8399 100.603 15.3547 100.329 15.3547 99.6934C15.3547 99.1104 14.9943 98.3725 13.0896 98.4579C13.1068 99.3679 13.021 100.603 14.2736 100.603Z" fill="#646464"/>
<path d="M16.0573 95.0119L16.0401 95.9733L7.59766 95.9559V94.9946L10.7207 95.0119V94.9779C10.2574 94.6517 10.0172 94.2401 10.0172 93.6737C10.0172 91.769 11.7159 91.7344 13.1917 91.7344C15.7828 91.7517 16.1602 92.6957 16.1431 93.639C16.1431 94.2568 15.8686 94.669 15.3195 94.9946V95.0293H16.0573V95.0119ZM15.3881 93.9312C15.3881 92.7297 14.1011 92.713 13.2088 92.713C11.6301 92.713 10.8065 92.8498 10.8065 93.8798C10.8065 94.9432 12.0592 94.9946 12.8485 94.9946C13.7579 94.9946 15.3881 95.1153 15.3881 93.9312Z" fill="#646464"/>
<path d="M16.0587 89.6736V90.6343L7.61621 90.6176V89.6562L16.0587 89.6736Z" fill="#646464"/>
<path d="M13.4331 87.493C15.0804 87.493 15.4236 87.0467 15.4236 86.2915C15.4236 85.6397 14.8917 85.2962 14.291 85.2622L14.3082 84.2154C15.6124 84.2328 16.2129 85.0393 16.2129 86.2742C16.2129 87.527 15.8354 88.5224 13.2272 88.5051C11.4941 88.5051 10.0698 88.2996 10.0698 86.2575C10.0698 84.5757 10.9964 84.1641 12.9526 84.1641H13.4502L13.4331 87.493ZM12.7124 85.1761C10.9964 85.1594 10.7905 85.6571 10.7905 86.3429C10.7734 86.9607 11.0823 87.4583 12.7124 87.4757V85.1761Z" fill="#646464"/>
<path d="M12.0775 79.8934C11.0994 79.8593 10.842 80.3397 10.842 80.6999C10.842 81.4377 11.1852 81.9354 12.8153 81.9527C14.7372 81.9701 15.4236 81.7126 15.4236 80.7172C15.4236 80.4944 15.2005 79.8246 14.1195 79.8593L14.1366 78.864C15.8011 78.8299 16.2129 80.0654 16.2129 80.7172C16.2129 81.9701 15.8354 82.9648 13.2272 82.9481C11.4941 82.9481 10.0698 82.742 10.0698 80.6999C10.0698 79.5158 10.7734 78.8299 12.0775 78.898V79.8934Z" fill="#646464"/>
<path d="M7.6499 77.6283V76.5469H8.67947V77.6283H7.6499ZM16.1096 76.6329V77.5936L10.2066 77.5769V76.6156L16.1096 76.6329Z" fill="#646464"/>
<path d="M16.1094 72.4808L12.0083 72.4634C11.4249 72.4634 10.8586 72.6176 10.8586 73.3901C10.8586 73.6816 11.0302 74.0939 11.2533 74.2307C11.545 74.4028 11.9053 74.4541 12.1284 74.4541L16.0923 74.4708V75.4321L11.4249 75.4148C11.0131 75.4148 10.6012 75.4495 10.1894 75.4662L10.2066 74.4541H10.9444V74.4195C10.3095 74.162 10.0864 73.6476 10.0864 72.9611C10.0864 72.4121 10.3095 71.7943 10.8415 71.5708C10.2066 71.2453 10.0864 70.6962 10.0864 70.1639C10.0864 69.5461 10.2237 68.5508 11.6308 68.5508L16.1094 68.5681V69.5294H12.0255C11.4421 69.5294 10.8758 69.6835 10.8758 70.4728C10.8758 70.833 10.893 70.9364 11.0989 71.1939C11.3219 71.4681 11.9053 71.5195 12.1456 71.5195L16.1094 71.5368V72.4808Z" fill="#646464"/>
<path d="M7.68457 67.4169V66.3359L8.71414 66.3531V67.4169H7.68457ZM16.1271 66.4217V67.3827L10.2242 67.3655V66.4046L16.1271 66.4217Z" fill="#646464"/>
<path d="M13.5024 64.2274C15.1497 64.2274 15.4757 63.7813 15.493 63.0262C15.493 62.3742 14.961 62.031 14.3604 61.9967L14.3775 60.9499C15.6817 60.9671 16.2822 61.7736 16.2822 63.0091C16.2651 64.2617 15.9048 65.257 13.2965 65.2398C11.5634 65.2398 10.1392 65.0339 10.1392 62.9919C10.1392 61.3103 11.0658 60.8984 13.0219 60.8984H13.5196L13.5024 64.2274ZM12.7817 61.928C11.0658 61.9109 10.8599 62.4085 10.8427 63.0949C10.8427 63.7126 11.1344 64.2102 12.7646 64.2274L12.7817 61.928Z" fill="#646464"/>
<path d="M16.1622 56.5406L12.061 56.5235C11.4261 56.5235 10.9114 56.7465 10.9114 57.5702C10.8942 58.6169 11.8379 58.7714 12.6445 58.7714L16.145 58.7885V59.7494L11.4776 59.7323C11.0658 59.7323 10.6539 59.7494 10.2421 59.7838L10.2593 58.7542L11.0143 58.7714V58.7199C10.3451 58.3423 10.1392 57.8962 10.1392 57.1412C10.1392 55.8886 10.8942 55.5625 12.061 55.5625L16.1622 55.5797V56.5406Z" fill="#646464"/>
<path d="M10.2583 54.1893H9.12576L8.69678 53.2284L10.2583 53.2455L10.2755 51.9585H10.9962V53.2284L14.6168 53.2455C14.9943 53.2455 15.4576 53.2455 15.4748 52.3704C15.4748 52.3018 15.4405 52.1473 15.4233 51.9414H16.1612C16.1783 52.2503 16.2641 52.5763 16.2641 52.8852C16.247 53.7946 15.8866 54.2065 15.2002 54.2065L10.9962 54.1893V55.1674H10.2583V54.1893Z" fill="#646464"/>
<path d="M13.3126 51.6319C11.5795 51.6319 10.1553 51.426 10.1553 49.384C10.1553 47.342 11.5795 47.1361 13.3126 47.1533C15.9208 47.1705 16.2983 48.1485 16.2983 49.4012C16.2983 50.6539 15.9208 51.6319 13.3126 51.6319ZM12.918 48.1485C11.3049 48.1485 10.9446 48.6461 10.9446 49.384C10.9446 50.1219 11.2878 50.6195 12.9008 50.6366C14.8227 50.6366 15.509 50.3964 15.509 49.4012C15.509 48.4059 14.8227 48.1485 12.918 48.1485Z" fill="#646464"/>
<path d="M16.1959 43.6508L7.75342 43.6165L7.77058 40.871C7.77058 39.7041 8.16524 39.3094 8.64571 38.9834C9.10901 38.6917 9.60665 38.6574 9.77823 38.6574C10.8249 38.6745 11.5285 39.0349 11.7687 40.1159H11.8202C11.9575 38.9148 12.6954 38.3828 13.845 38.3828C16.0072 38.4 16.213 39.9615 16.213 40.9224L16.1959 43.6508ZM11.3226 42.5526V40.9911C11.3054 40.1331 10.8078 39.7384 9.98417 39.7384C9.28061 39.7384 8.69719 40.1331 8.69719 41.0426L8.68003 42.5526H11.3226ZM15.2693 42.5697V41.0426C15.2865 39.8928 14.4628 39.481 13.845 39.481C12.5066 39.481 12.2663 40.3047 12.2663 41.4029V42.5526L15.2693 42.5697Z" fill="#646464"/>
<path d="M15.3715 34.096V34.1131C16.0579 34.4049 16.3496 34.8682 16.3325 35.606C16.3325 36.8587 15.526 37.219 14.3934 37.219C12.6089 37.2018 12.5402 35.4516 12.5746 34.1131C11.7852 34.0788 10.9272 34.0788 10.9272 35.1084C10.9272 35.7433 11.3562 36.0865 11.974 36.035V37.0818C10.6526 37.0303 10.2065 36.3267 10.2065 35.074C10.2237 33.564 10.9959 33.1522 11.9911 33.1693H14.8396C15.3029 33.1866 15.7834 33.1351 16.2467 33.0664L16.2295 34.1131H15.3715V34.096ZM14.4621 36.2409C15.0283 36.2409 15.5431 35.9664 15.5431 35.3315C15.5431 34.748 15.1828 34.0102 13.278 34.096C13.3124 35.0055 13.2266 36.2409 14.4621 36.2409Z" fill="#646464"/>
<path d="M16.2467 28.482L12.1455 28.4648C11.5106 28.4648 10.9959 28.6879 10.9959 29.4944C10.9787 30.5583 11.9225 30.7127 12.7289 30.7127L16.2295 30.7299V31.6908L11.5621 31.6736C11.1503 31.6736 10.7384 31.6908 10.3266 31.7251V30.6956L11.0817 30.7127V30.6612C10.4124 30.2837 10.2065 29.8376 10.2065 29.0826C10.2065 27.8299 10.9615 27.5039 12.1284 27.5039L16.2295 27.5211V28.482H16.2467Z" fill="#646464"/>
<path d="M12.2489 23.1631C11.2708 23.1287 11.0134 23.6092 11.0134 23.9696C11.0134 24.7074 11.3737 25.2051 12.9867 25.2222C14.9086 25.2394 15.5949 24.982 15.5949 23.9867C15.5949 23.7636 15.3719 23.0944 14.2909 23.1287L14.308 22.1335C15.9725 22.0992 16.3843 23.3347 16.3843 23.9867C16.3843 25.2394 16.0068 26.2347 13.3986 26.2174C11.6655 26.2174 10.2412 26.0116 10.2412 23.9696C10.2412 22.7856 10.9448 22.0992 12.2489 22.1678V23.1631Z" fill="#646464"/>
<path d="M15.4233 17.7928V17.81C16.0926 18.1017 16.4014 18.5649 16.3842 19.3028C16.3842 20.5555 15.5777 20.9158 14.4452 20.9158C12.6607 20.8987 12.592 19.1484 12.6263 17.81C11.837 17.7756 10.979 17.7585 10.979 18.788C10.979 19.4229 11.408 19.7662 12.0258 19.7147V20.7614C10.7045 20.7099 10.2583 20.0064 10.2583 18.7537C10.2583 17.2437 11.0476 16.8319 12.0429 16.849H14.8914C15.3547 16.849 15.818 16.8147 16.2813 16.7461V17.7928H15.4233ZM14.5139 19.9549C15.0801 19.9549 15.595 19.6804 15.595 19.0455C15.595 18.462 15.2346 17.7242 13.3299 17.81C13.347 18.7194 13.2612 19.9549 14.5139 19.9549Z" fill="#646464"/>
<path d="M11.2702 14.3962V14.379C10.3778 13.9672 10.2749 13.4696 10.2749 12.543H11.2702C11.253 12.6288 11.2358 12.7146 11.2358 12.8003C11.2187 12.8861 11.2015 12.972 11.2015 13.0578C11.2015 14.1216 12.008 14.3962 12.7974 14.3962L16.2979 14.4134L16.2808 15.3572L10.3778 15.34V14.3962H11.2702Z" fill="#646464"/>
<path d="M7.85645 11.9756V10.8945H8.88602V11.9756H7.85645ZM16.2989 10.9803V11.9412L10.3961 11.9241V10.9632L16.2989 10.9803Z" fill="#646464"/>
<path d="M13.4323 9.88191C11.6991 9.88191 10.2749 9.67598 10.2749 7.634C10.2749 5.59201 11.6991 5.3861 13.4323 5.40326C16.0405 5.42042 16.418 6.39851 16.418 7.65116C16.418 8.9038 16.0405 9.89906 13.4323 9.88191ZM13.0376 6.39851C11.4246 6.39851 11.0642 6.89613 11.0642 7.634C11.0642 8.37186 11.4074 8.86948 13.0204 8.88664C14.9423 8.88664 15.6287 8.6464 15.6287 7.65116C15.6458 6.6559 14.9594 6.41567 13.0376 6.39851Z" fill="#646464"/>
<path d="M16.3155 3.29297H15.0972V4.39117H16.3155V3.29297Z" fill="#646464"/>
</svg>
