<svg width="24" height="416" viewBox="0 0 24 416" fill="none" xmlns="http://www.w3.org/2000/svg">
<path d="M3.20591 342.363L3 410.658H4.83607L5.05914 342.363H3.20591Z" fill="#C2C2C2"/>
<path d="M19.1639 342.414L18.958 410.709H20.8112L21 342.414H19.1639Z" fill="#C2C2C2"/>
<path d="M8.90295 338.93L8.79999 337.9C9.16034 337.849 9.41773 337.712 9.58932 337.523C9.74376 337.317 9.82956 337.077 9.82956 336.751C9.8467 336.39 9.76091 336.15 9.62368 335.979C9.48639 335.79 9.31478 335.704 9.10886 335.704C8.98875 335.704 8.88579 335.738 8.78283 335.807C8.71419 335.875 8.6284 335.995 8.55976 336.184C8.50828 336.304 8.43964 336.596 8.31953 337.025C8.18225 337.608 8.01066 338.003 7.80474 338.226C7.51303 338.552 7.15268 338.724 6.72369 338.724C6.48346 338.724 6.20891 338.638 5.98583 338.484C5.76276 338.33 5.574 338.106 5.45389 337.815C5.33377 337.54 5.26514 337.179 5.26514 336.768C5.2823 336.115 5.41957 335.618 5.71128 335.292C6.003 334.966 6.39766 334.777 6.87813 334.76L6.91244 335.824C6.6379 335.859 6.44914 335.961 6.31186 336.115C6.19174 336.253 6.14027 336.493 6.14027 336.785C6.14027 337.094 6.20891 337.334 6.32903 337.506C6.39766 337.626 6.51778 337.66 6.65506 337.66C6.77517 337.66 6.87813 337.608 6.96393 337.523C7.08404 337.386 7.20416 337.059 7.32427 336.545C7.44439 336.013 7.5645 335.652 7.70179 335.395C7.83906 335.155 8.01066 334.966 8.25089 334.829C8.47396 334.692 8.74851 334.623 9.0917 334.623C9.38342 334.64 9.67512 334.726 9.93249 334.863C10.2071 335.035 10.3958 335.275 10.516 335.584C10.636 335.893 10.7047 336.27 10.7047 336.733C10.6875 337.403 10.5502 337.9 10.2242 338.278C9.9497 338.655 9.48639 338.861 8.90295 338.93Z" fill="#C2C2C2"/>
<path d="M5.35107 333.835V332.771L8.23388 332.788C8.69718 332.788 8.98889 332.788 9.10901 332.754C9.33208 332.702 9.52084 332.6 9.64093 332.428C9.76108 332.256 9.84687 332.033 9.84687 331.724C9.84687 331.433 9.77822 331.193 9.65814 331.038C9.53799 330.884 9.38356 330.798 9.19481 330.764C9.00605 330.729 8.71434 330.712 8.28535 330.712L5.35107 330.695V329.631L8.14808 329.648C8.78298 329.648 9.22912 329.682 9.48649 329.734C9.74393 329.802 9.96701 329.888 10.1557 330.06C10.3273 330.214 10.4818 330.42 10.5847 330.678C10.6877 330.935 10.7391 331.261 10.7391 331.69C10.7391 332.187 10.6877 332.565 10.5504 332.822C10.4303 333.097 10.2758 333.286 10.0871 333.44C9.89837 333.578 9.70957 333.68 9.5037 333.732C9.19481 333.8 8.74866 333.835 8.16524 333.835H5.35107Z" fill="#C2C2C2"/>
<path d="M10.6362 328.635L5.35107 328.618L5.36823 326.902C5.36823 326.25 5.40256 325.839 5.45403 325.632C5.52267 325.341 5.69427 325.066 5.96882 324.877C6.24337 324.672 6.58656 324.568 6.99839 324.568C7.32442 324.568 7.58182 324.637 7.80489 324.757C8.02796 324.877 8.19955 325.032 8.33683 325.203C8.45695 325.392 8.54275 325.581 8.57706 325.753C8.62855 326.027 8.6457 326.388 8.6457 326.868V327.571H10.6534L10.6362 328.635ZM6.26053 327.571H7.77056V326.988C7.77056 326.576 7.75341 326.284 7.68477 326.147C7.63329 326.01 7.54749 325.89 7.42738 325.821C7.30726 325.753 7.18714 325.701 7.03271 325.701C6.82679 325.701 6.67236 325.753 6.55224 325.855C6.43213 325.975 6.34633 326.113 6.32917 326.284C6.29485 326.422 6.29485 326.679 6.29485 327.057L6.26053 327.571Z" fill="#C2C2C2"/>
<path d="M10.6705 323.83L5.36816 323.813L5.38532 319.9L6.27762 319.918V322.749H7.44447L7.46162 320.106H8.33676V322.749L9.77818 322.766V319.814H10.6876L10.6705 323.83Z" fill="#C2C2C2"/>
<path d="M10.6709 319.009L5.38574 318.993V316.744C5.38574 316.178 5.43722 315.766 5.54018 315.509C5.64314 315.251 5.81473 315.046 6.05497 314.891C6.27804 314.754 6.56975 314.668 6.87862 314.668C7.27329 314.668 7.59932 314.788 7.85671 315.029C8.1141 315.269 8.2857 315.612 8.33718 316.075C8.47446 315.869 8.61173 315.664 8.78333 315.526C8.95492 315.372 9.22948 315.166 9.65844 314.909L10.688 314.273L10.6709 315.56L9.52121 316.298C9.10936 316.59 8.85196 316.762 8.74901 316.865C8.64605 316.967 8.56026 317.071 8.52593 317.191C8.49162 317.294 8.47446 317.482 8.47446 317.722V317.946L10.6709 317.963V319.009ZM7.63364 317.946V317.156C7.63364 316.658 7.61648 316.333 7.58216 316.213C7.53068 316.075 7.46204 315.973 7.35909 315.904C7.25613 315.835 7.11886 315.784 6.96442 315.784C6.77567 315.784 6.63839 315.835 6.53543 315.921C6.41531 316.024 6.34668 316.144 6.32952 316.316C6.31236 316.402 6.2952 316.676 6.2952 317.087V317.929H7.63364V317.946Z" fill="#C2C2C2"/>
<path d="M10.687 313.844L5.40186 313.81V312.764H10.687V313.844Z" fill="#C2C2C2"/>
<path d="M10.7041 311.854L5.40186 311.836V310.807L8.97103 308.645L5.41901 308.628V307.633L10.7041 307.65V308.731L7.23793 310.858L10.7041 310.876V311.854Z" fill="#C2C2C2"/>
<path d="M10.7217 305.453H6.31166V306.997H5.43652V302.811H6.32882V304.372L10.7217 304.39V305.453Z" fill="#C2C2C2"/>
<path d="M10.7217 302.244L5.43652 302.227L5.45369 298.331H6.32882V301.18H7.51283V298.52H8.40512V301.18H9.84652V298.246H10.7388L10.7217 302.244Z" fill="#C2C2C2"/>
<path d="M10.7397 297.44L5.45459 297.422V296.376L9.00661 294.213H5.47175V293.219L10.7569 293.235V294.299L7.2735 296.444H10.7397V297.44Z" fill="#C2C2C2"/>
<path d="M5.4707 292.205L5.48786 290.266C5.48786 289.837 5.52218 289.511 5.59082 289.271C5.67662 288.962 5.83105 288.704 6.07128 288.464C6.29435 288.241 6.58607 288.087 6.92926 287.967C7.25529 287.864 7.68428 287.812 8.16474 287.812C8.61089 287.829 8.9884 287.864 9.29727 287.967C9.67481 288.104 9.98362 288.293 10.2239 288.533C10.3955 288.722 10.5327 288.979 10.6357 289.288C10.7044 289.528 10.7558 289.837 10.7558 290.232L10.7387 292.222L5.4707 292.205ZM6.36299 291.141L9.86354 291.158V290.369C9.86354 290.077 9.84639 289.871 9.81204 289.717C9.7606 289.546 9.69195 289.408 9.58895 289.305C9.48601 289.185 9.31443 289.099 9.09136 289.013C8.85113 288.945 8.5251 288.911 8.11327 288.911C7.7186 288.911 7.39257 288.945 7.18665 289.013C6.96358 289.082 6.79198 289.185 6.67187 289.305C6.55175 289.442 6.46595 289.597 6.43163 289.803C6.39731 289.94 6.38015 290.232 6.38015 290.678V291.141H6.36299Z" fill="#C2C2C2"/>
<path d="M10.7734 287.008L5.48828 286.99V283.095H6.38058V285.944H7.54743L7.56458 283.284L8.45687 283.301L8.43972 285.944H9.88109L9.8983 282.992H10.7734V287.008Z" fill="#C2C2C2"/>
<path d="M10.7905 282.202L5.50537 282.185V281.155L9.05739 278.976H5.50537V277.98L10.7905 277.998V279.062L7.30712 281.207H10.7905V282.202Z" fill="#C2C2C2"/>
<path d="M8.86843 273.588L9.19446 272.541C9.76073 272.695 10.1897 272.987 10.4814 273.348C10.7559 273.725 10.8932 274.188 10.8932 274.755C10.8932 275.458 10.653 276.041 10.1725 276.488C9.69209 276.951 9.04003 277.157 8.19921 277.157C7.32407 277.157 6.63769 276.934 6.15722 276.47C5.67676 276.007 5.43652 275.424 5.43652 274.668C5.43652 274.034 5.64244 273.502 6.00279 273.09C6.22586 272.85 6.55189 272.678 6.98088 272.558L7.22111 273.605C6.94656 273.656 6.74065 273.794 6.56905 273.999C6.41462 274.205 6.32882 274.446 6.32882 274.721C6.32882 275.115 6.4661 275.441 6.74065 275.681C7.0152 275.921 7.47851 276.059 8.11341 276.059C8.78263 276.059 9.24594 275.939 9.53765 275.698C9.81223 275.458 9.94946 275.149 9.96661 274.755C9.96661 274.48 9.86367 274.24 9.69209 274.034C9.53765 273.828 9.24594 273.69 8.86843 273.588Z" fill="#C2C2C2"/>
<path d="M10.8247 271.803L5.53955 271.787V270.723L10.8247 270.74V271.803Z" fill="#C2C2C2"/>
<path d="M10.8252 265.061V266.21L9.62408 266.656L9.60694 268.767L10.8081 269.213V270.363L5.52295 268.303L5.54011 267.171L10.8252 265.061ZM8.73178 266.999L6.75844 267.737L8.71462 268.458L8.73178 266.999Z" fill="#C2C2C2"/>
<path d="M10.8418 262.948L5.55664 262.931V259.311H6.44894V261.884H7.68442L7.70158 259.653H8.59387V261.884H10.8418V262.948Z" fill="#C2C2C2"/>
<path d="M10.8589 258.574L5.57373 258.556V257.51L10.8589 257.526V258.574Z" fill="#C2C2C2"/>
<path d="M10.8589 256.617L5.57373 256.601V255.571L9.12575 253.392H5.59089V252.396L10.876 252.414V253.477L7.39264 255.605L10.876 255.623L10.8589 256.617Z" fill="#C2C2C2"/>
<path d="M10.8932 246.631L10.876 247.763L9.67487 248.227L9.65773 250.337L10.8589 250.783V251.916L5.57373 249.856V248.707L10.8932 246.631ZM8.78256 248.57L6.82638 249.307L8.78256 250.029V248.57Z" fill="#C2C2C2"/>
<path d="M10.893 246.184L5.60791 246.167V245.137L9.15993 242.958L5.60791 242.941V241.963L10.893 241.98V243.061L7.42682 245.188L10.893 245.206V246.184Z" fill="#C2C2C2"/>
<path d="M8.97201 237.57L9.29804 236.541C9.88146 236.696 10.3104 236.97 10.585 237.33C10.8595 237.708 11.014 238.171 10.9968 238.737C10.9968 239.441 10.7566 240.024 10.2761 240.47C9.79567 240.934 9.14361 241.139 8.30279 241.139C7.4105 241.123 6.74128 240.899 6.24365 240.453C5.76318 239.99 5.52295 239.389 5.52295 238.634C5.52295 237.999 5.71171 237.467 6.08921 237.072C6.31229 236.832 6.63832 236.644 7.06731 236.523L7.30754 237.587C7.03299 237.656 6.82708 237.776 6.67264 237.982C6.5182 238.171 6.43241 238.428 6.43241 238.686C6.43241 239.08 6.56968 239.423 6.84423 239.647C7.11878 239.904 7.58209 240.024 8.19984 240.024C8.88621 240.024 9.34952 239.904 9.62408 239.664C9.91575 239.423 10.053 239.115 10.053 238.72C10.053 238.445 9.96725 238.188 9.77852 237.999C9.64123 237.81 9.36668 237.674 8.97201 237.57Z" fill="#C2C2C2"/>
<path d="M10.9277 235.786L5.64258 235.768V234.705L10.9277 234.722V235.786Z" fill="#C2C2C2"/>
<path d="M10.9277 233.812L5.64258 233.795V229.882H6.55203L6.53488 232.748H7.71888V230.088H8.61118L8.59402 232.748H10.0354L10.0526 229.797H10.9449L10.9277 233.812Z" fill="#C2C2C2"/>
<path d="M10.9443 228.989L5.65918 228.972L5.67634 226.724C5.67634 226.158 5.71066 225.746 5.81362 225.488C5.91658 225.214 6.08817 225.025 6.3284 224.888C6.56864 224.734 6.84319 224.648 7.15206 224.648C7.54673 224.648 7.87276 224.768 8.13015 224.991C8.38754 225.231 8.55914 225.574 8.61062 226.038C8.7479 225.815 8.90233 225.626 9.05677 225.472C9.22836 225.317 9.50294 225.128 9.91475 224.871L10.9443 224.219V225.506L9.79461 226.261C9.3828 226.535 9.1254 226.724 9.00528 226.81C8.90233 226.93 8.81653 227.033 8.78221 227.136C8.7479 227.239 8.73074 227.428 8.73074 227.668V227.891L10.9272 227.908V228.989H10.9443ZM7.88992 227.925V227.136C7.88992 226.638 7.87276 226.312 7.83844 226.175C7.78696 226.055 7.71832 225.952 7.61537 225.866C7.51241 225.797 7.37514 225.763 7.2207 225.763C7.04911 225.763 6.91182 225.797 6.79171 225.901C6.67159 225.986 6.62011 226.141 6.58579 226.295C6.56864 226.364 6.56864 226.638 6.56864 227.085V227.908H7.88992V227.925Z" fill="#C2C2C2"/>
<path d="M10.9786 219.02L10.9615 220.186L9.76032 220.633L9.74317 222.743L10.9443 223.19V224.322L5.65918 222.263L5.67634 221.13L10.9786 219.02ZM8.86801 220.959L6.91182 221.697L8.86801 222.417V220.959Z" fill="#C2C2C2"/>
<path d="M13.6211 304.113V302.157C13.6382 301.729 13.6726 301.385 13.7412 301.162C13.8442 300.853 13.9815 300.596 14.2217 300.373C14.4448 300.149 14.7365 299.995 15.0797 299.875C15.4057 299.772 15.8347 299.703 16.3323 299.703C16.7785 299.72 17.1388 299.772 17.4649 299.875C17.8424 300.012 18.1684 300.201 18.3914 300.441C18.5802 300.613 18.7175 300.871 18.8205 301.179C18.8891 301.42 18.9405 301.745 18.9234 302.14V304.131L13.6211 304.113ZM14.5306 303.049L18.0311 303.067V302.26C18.0311 301.985 18.014 301.763 17.9796 301.625C17.9282 301.454 17.8595 301.3 17.7565 301.196C17.6536 301.076 17.482 300.991 17.2589 300.905C17.0187 300.836 16.6927 300.785 16.298 300.785C15.8862 300.785 15.5773 300.819 15.3542 300.905C15.1311 300.973 14.9595 301.076 14.8566 301.196C14.7365 301.316 14.6335 301.488 14.5992 301.694C14.5649 301.831 14.5477 302.123 14.5477 302.569V303.049H14.5306Z" fill="#C2C2C2"/>
<path d="M18.9419 298.914L13.6396 298.897L13.6568 294.984H14.5491L14.5319 297.833H15.6988L15.7159 295.173L16.6254 295.191L16.6082 297.833H18.0325L18.0496 294.898H18.9419V298.914Z" fill="#C2C2C2"/>
<path d="M17.0188 288.773L17.3448 287.727C17.911 287.881 18.34 288.173 18.6317 288.533C18.9235 288.911 19.0607 289.356 19.0436 289.923C19.0436 290.627 18.8033 291.21 18.3229 291.656C17.8424 292.12 17.1903 292.325 16.3495 292.325C15.4744 292.308 14.788 292.102 14.3247 291.639C13.8443 291.176 13.5868 290.592 13.604 289.837C13.5868 289.202 13.7928 288.671 14.1703 288.258C14.3934 288.035 14.7194 287.847 15.1484 287.727L15.3886 288.773C15.1141 288.825 14.891 288.962 14.7537 289.151C14.5821 289.356 14.4963 289.597 14.5135 289.889C14.4963 290.266 14.6507 290.609 14.9253 290.833C15.1999 291.09 15.6632 291.21 16.2981 291.21C16.9673 291.21 17.4477 291.09 17.7223 290.849C18.014 290.609 18.1513 290.3 18.1513 289.906C18.1513 289.631 18.0655 289.374 17.8768 289.185C17.688 289.013 17.4134 288.859 17.0188 288.773Z" fill="#C2C2C2"/>
<path d="M16.3668 287.143C15.8349 287.143 15.3887 287.074 14.994 286.902C14.7366 286.782 14.4964 286.628 14.2733 286.405C14.0674 286.199 13.8958 285.958 13.7929 285.736C13.6556 285.409 13.5869 285.015 13.5869 284.586C13.5869 283.814 13.8443 283.196 14.3248 282.733C14.8053 282.252 15.4745 282.012 16.3325 282.012C17.1732 282.012 17.8425 282.252 18.3401 282.733C18.8206 283.196 19.0608 283.814 19.0608 284.586C19.0437 285.375 18.8034 285.993 18.323 286.456C17.8768 286.92 17.2076 287.143 16.3668 287.143ZM16.3325 286.044C16.933 286.044 17.3792 285.924 17.7052 285.65C18.0141 285.375 18.1857 285.015 18.1857 284.603C18.1857 284.174 18.0312 283.848 17.7223 283.556C17.4135 283.282 16.9674 283.162 16.3496 283.162C15.7319 283.144 15.2857 283.282 14.994 283.539C14.6851 283.814 14.5307 284.157 14.5307 284.603C14.5135 285.049 14.668 285.392 14.9769 285.667C15.2685 285.907 15.7147 286.044 16.3325 286.044Z" fill="#C2C2C2"/>
<path d="M18.9925 281.292L13.7417 281.275V280.211H18.083L18.1002 277.568H18.9925V281.292Z" fill="#C2C2C2"/>
<path d="M16.3838 277.14C15.8518 277.14 15.4057 277.054 15.0282 276.9C14.7708 276.762 14.5306 276.608 14.3075 276.385C14.1016 276.179 13.93 275.939 13.827 275.715C13.6897 275.373 13.6211 274.995 13.6211 274.566C13.6211 273.793 13.8613 273.159 14.359 272.713C14.8395 272.25 15.5087 272.009 16.3666 272.026C17.2074 272.026 17.8767 272.25 18.3743 272.713C18.8547 273.193 19.095 273.811 19.095 274.583C19.095 275.373 18.8547 275.99 18.3743 276.453C17.911 276.9 17.2418 277.14 16.3838 277.14ZM16.3666 276.024C16.9672 276.024 17.4134 275.888 17.7394 275.613C18.0483 275.321 18.2198 274.995 18.2198 274.566C18.2198 274.154 18.0654 273.777 17.7565 273.502C17.4477 273.228 17.0015 273.108 16.3838 273.108C15.766 273.108 15.3199 273.228 15.0282 273.502C14.7193 273.759 14.5649 274.12 14.5649 274.549C14.5649 274.995 14.7193 275.355 15.0282 275.613C15.3027 275.888 15.7489 276.024 16.3666 276.024Z" fill="#C2C2C2"/>
<path d="M19.0097 271.305L13.7246 271.288V269.675L17.3452 268.748L13.7246 267.805L13.7418 266.191L19.0441 266.209L19.0269 267.187L14.8571 267.169L19.0269 268.233V269.263L14.8571 270.293L19.0097 270.31V271.305Z" fill="#C2C2C2"/>
<path d="M13.7417 265.249L13.7588 263.139C13.7588 262.71 13.776 262.401 13.8103 262.178C13.8618 261.989 13.9304 261.8 14.0334 261.628C14.1535 261.474 14.2907 261.337 14.4795 261.234C14.6683 261.114 14.8742 261.062 15.1144 261.062C15.3547 261.062 15.5949 261.131 15.7836 261.268C15.9896 261.405 16.1612 261.577 16.2641 261.817C16.3499 261.491 16.5043 261.251 16.7446 261.062C16.9676 260.89 17.225 260.822 17.5339 260.822C17.757 260.822 17.9972 260.874 18.2374 260.976C18.4605 261.096 18.6321 261.251 18.7694 261.44C18.9067 261.646 18.9925 261.869 19.0096 262.161C19.0439 262.349 19.0439 262.761 19.0439 263.447V265.249H13.7417ZM14.634 264.185H15.8694L15.8866 263.481C15.8694 263.052 15.8694 262.796 15.8523 262.692C15.8351 262.503 15.7836 262.367 15.6635 262.246C15.5605 262.143 15.4233 262.092 15.2517 262.092C15.0973 262.092 14.96 262.126 14.8571 262.212C14.7369 262.315 14.6854 262.435 14.6511 262.624C14.634 262.727 14.634 263.018 14.634 263.533V264.185ZM16.7618 264.185L18.1517 264.203V263.207C18.1517 262.812 18.1345 262.572 18.1174 262.469C18.083 262.315 18.0144 262.178 17.9114 262.074C17.8085 261.972 17.654 261.937 17.4653 261.937C17.3109 261.937 17.1907 261.989 17.0706 262.058C16.9676 262.143 16.8819 262.246 16.8304 262.401C16.7789 262.538 16.7618 262.864 16.7618 263.345V264.185Z" fill="#C2C2C2"/>
<path d="M19.0444 260.066H13.7593V259.002H19.0444V260.066Z" fill="#C2C2C2"/>
<path d="M19.0611 253.34V254.472L17.8428 254.936V257.063L19.0439 257.509V258.642L13.7417 256.6V255.45L19.0611 253.34ZM16.9676 255.279L15.0115 256.016L16.9676 256.737V255.279Z" fill="#C2C2C2"/>
<path d="M16.298 405.286L7.47803 408.375L7.49519 406.453L13.9986 404.257L7.49519 402.095L7.51234 400.207L16.298 403.364V405.286Z" fill="#C2C2C2"/>
<path d="M16.3155 398.749L7.5127 398.732V396.947L16.3155 396.965V398.749Z" fill="#C2C2C2"/>
<path d="M13.1068 390.565L11.6139 390.547L11.631 386.721L15.1316 386.738C15.4919 387.115 15.818 387.647 16.0925 388.351C16.3671 389.054 16.4872 389.775 16.5044 390.513C16.4872 391.423 16.2984 392.246 15.921 392.915C15.5263 393.585 14.9772 394.116 14.2565 394.459C13.5357 394.786 12.7464 394.974 11.9056 394.974C10.979 394.974 10.1725 394.768 9.45179 394.374C8.73109 393.996 8.19915 393.43 7.82163 392.692C7.51276 392.126 7.37549 391.405 7.37549 390.581C7.37549 389.501 7.59856 388.643 8.07902 388.025C8.54233 387.407 9.16008 387.03 9.98375 386.858L10.3098 388.625C9.88075 388.745 9.53758 388.986 9.29735 389.329C9.05712 389.655 8.91984 390.084 8.91984 390.616C8.91984 391.371 9.16008 392.006 9.65773 392.469C10.1382 392.932 10.876 393.172 11.837 393.172C12.8837 393.19 13.673 392.95 14.205 392.469C14.7197 392.006 14.9943 391.405 15.0115 390.633C15.0115 390.273 14.9428 389.912 14.7884 389.517C14.6339 389.157 14.4624 388.814 14.2565 388.557L13.1239 388.523L13.1068 390.565Z" fill="#C2C2C2"/>
<path d="M16.3506 384.558L7.56494 384.523V382.756L16.3678 382.773L16.3506 384.558Z" fill="#C2C2C2"/>
<path d="M16.367 380.423L7.63281 380.389V378.622H14.8913V374.229L16.3842 374.246L16.367 380.423Z" fill="#C2C2C2"/>
<path d="M16.4019 364.396V366.318L14.4114 367.074L14.3943 370.608L16.3848 371.346V373.234L7.59912 369.802V367.932L16.4019 364.396ZM12.9186 367.639L9.65826 368.875L12.9186 370.076V367.639Z" fill="#C2C2C2"/>
<path d="M7.61621 362.817L7.63337 359.573C7.63337 358.836 7.68484 358.287 7.80497 357.909C7.9594 357.411 8.2168 356.948 8.62862 356.588C9.00613 356.228 9.46942 355.953 10.0529 355.747C10.6191 355.558 11.3055 355.473 12.1292 355.473C12.867 355.473 13.4848 355.575 14.0167 355.747C14.6516 355.97 15.1664 356.279 15.5611 356.691C15.8699 357 16.093 357.411 16.2646 357.944C16.3847 358.338 16.4533 358.87 16.4533 359.505L16.4362 362.834L7.61621 362.817ZM9.10909 361.049L14.9433 361.066V359.745C14.9433 359.248 14.9262 358.904 14.8747 358.664C14.8061 358.373 14.6859 358.132 14.4972 357.96C14.3428 357.755 14.051 357.6 13.6564 357.497C13.2788 357.36 12.7469 357.309 12.0605 357.309C11.3913 357.309 10.8594 357.36 10.499 357.497C10.1215 357.617 9.84695 357.789 9.65822 357.978C9.45228 358.201 9.29784 358.475 9.24636 358.802C9.19489 359.042 9.16057 359.539 9.1434 360.26V361.049H9.10909Z" fill="#C2C2C2"/>
<path d="M12.0944 353.706C11.202 353.706 10.4471 353.586 9.84644 353.311C9.38316 353.105 8.98849 352.831 8.62813 352.487C8.26779 352.127 8.01039 351.767 7.8388 351.338C7.61573 350.789 7.49561 350.171 7.49561 349.451C7.51277 348.163 7.90743 347.116 8.71393 346.345C9.52042 345.555 10.6358 345.178 12.0772 345.178C13.5014 345.178 14.6168 345.555 15.4233 346.345C16.2298 347.134 16.6245 348.163 16.6245 349.451C16.6073 350.754 16.2127 351.801 15.4061 352.573C14.6168 353.311 13.5014 353.706 12.0944 353.706ZM12.0429 351.87C13.0382 351.87 13.7931 351.647 14.3251 351.201C14.8399 350.738 15.1144 350.154 15.1144 349.433C15.1144 348.73 14.8399 348.146 14.3423 347.7C13.8446 347.237 13.0725 346.996 12.0429 346.996C11.0305 346.996 10.2755 347.202 9.7778 347.665C9.2802 348.095 9.0228 348.678 9.0228 349.416C9.0228 350.154 9.26304 350.754 9.7778 351.201C10.2755 351.647 11.0305 351.87 12.0429 351.87Z" fill="#C2C2C2"/>
<path d="M16.0104 206.649L7.56787 206.614L7.58503 203.869C7.58503 202.702 7.9797 202.307 8.46017 201.982C8.92347 201.69 9.4211 201.656 9.5927 201.656C10.6394 201.673 11.343 202.033 11.5832 203.114H11.6347C11.7719 201.913 12.5098 201.381 13.6595 201.381C15.8216 201.398 16.0275 202.96 16.0275 203.921L16.0104 206.649ZM11.137 205.568V204.007C11.1199 203.149 10.6223 202.754 9.79858 202.754C9.09507 202.754 8.51164 203.149 8.51164 204.058L8.49449 205.568H11.137ZM15.0837 205.568V204.058C15.1009 202.909 14.2772 202.496 13.6595 202.496C12.321 202.496 12.0808 203.32 12.0808 204.418V205.568H15.0837Z" fill="#C2C2C2"/>
<path d="M7.60205 198.103V196.731L16.0617 194.02L16.0445 195.22L14.0369 195.821L14.0197 199.082L16.0274 199.716V200.798L7.60205 198.103ZM8.59731 197.451V197.469L13.0931 198.807L13.1103 196.113L8.59731 197.451Z" fill="#C2C2C2"/>
<path d="M7.63637 187.43L16.0788 187.464L16.0617 188.923L8.73458 192.234V192.252L16.0617 192.286V193.247L7.60205 193.23L7.61921 191.703L14.8605 188.425V188.408L7.63637 188.39V187.43Z" fill="#C2C2C2"/>
<path d="M9.97118 182.18C9.49071 182.163 9.01025 182.197 8.73569 182.42C8.46114 182.643 8.37534 183.141 8.37534 183.381C8.37534 184.273 8.90729 184.617 9.0274 184.651C9.13036 184.685 9.33628 184.891 10.7777 184.908H13.0255C15.1019 184.925 15.3421 184.239 15.3593 183.415C15.3593 183.09 15.2391 182.094 13.5919 182.077V180.961C16.2687 180.927 16.2516 182.797 16.2516 183.364C16.2516 184.41 16.1829 186.024 12.9055 186.024H10.5203C8.13511 186.006 7.44873 184.959 7.44873 183.295C7.46589 181.631 8.32386 180.979 9.95404 181.099V182.18H9.97118Z" fill="#C2C2C2"/>
<path d="M13.0088 179.862L10.2289 179.846C8.54729 179.846 7.4834 178.97 7.4834 177.186C7.50056 175.401 8.56445 174.526 10.2461 174.543L13.0088 174.56C15.3596 174.56 16.2691 175.435 16.2691 177.22C16.2691 179.004 15.3424 179.862 13.0088 179.862ZM13.0603 175.641L10.2118 175.624C8.44433 175.624 8.39285 176.842 8.37569 177.168C8.37569 177.512 8.42717 178.73 10.1946 178.73L13.0431 178.747C14.8963 178.747 15.3596 178.215 15.3596 177.203C15.3768 176.19 14.9135 175.659 13.0603 175.641Z" fill="#C2C2C2"/>
<path d="M16.1138 173.101L7.67139 173.067V172.003L15.1873 172.02V168.914L16.131 168.931L16.1138 173.101Z" fill="#C2C2C2"/>
<path d="M13.0424 168.349L10.2626 168.332C8.58098 168.332 7.51709 167.457 7.51709 165.672C7.53425 163.887 8.59814 163.012 10.2798 163.03L13.0424 163.046C15.3933 163.046 16.3027 163.922 16.3027 165.706C16.3027 167.491 15.3762 168.366 13.0424 168.349ZM13.0939 164.145L10.2455 164.128C8.47802 164.128 8.42655 165.346 8.40939 165.672C8.40939 166.015 8.46086 167.234 10.2283 167.234L13.0768 167.25C14.93 167.25 15.3933 166.719 15.3933 165.706C15.4105 164.694 14.9472 164.145 13.0939 164.145Z" fill="#C2C2C2"/>
<path d="M16.1485 160.575V161.588L7.70605 161.554L7.72321 159.821L14.8101 157.71V157.693L7.72321 155.513V153.729L16.1657 153.763V154.827L8.66699 154.81V154.844L16.1657 157.212V158.242L8.64983 160.524V160.559L16.1485 160.575Z" fill="#C2C2C2"/>
<path d="M16.1823 152.167L7.73975 152.132L7.7569 149.387C7.7569 148.22 8.15157 147.825 8.63204 147.499C9.09535 147.208 9.59297 147.174 9.76459 147.174C10.8113 147.19 11.5149 147.551 11.7551 148.632H11.8065C11.9267 147.431 12.6645 146.916 13.8142 146.916C15.9763 146.933 16.1823 148.494 16.1823 149.456V152.167ZM11.2918 151.086V149.524C11.2746 148.667 10.777 148.272 9.95332 148.272C9.24978 148.272 8.66636 148.667 8.66636 149.576L8.6492 151.086H11.2918ZM15.2385 151.086V149.576C15.2556 148.426 14.4319 148.014 13.8142 148.014C12.4758 148.014 12.2356 148.838 12.2356 149.936V151.086H15.2385Z" fill="#C2C2C2"/>
<path d="M16.1998 144.326V145.407L7.75732 145.373V144.309L16.1998 144.326Z" fill="#C2C2C2"/>
<path d="M7.77441 140.774V139.401L16.2341 136.689L16.2169 137.891L14.2092 138.491L14.1921 141.752L16.1998 142.387V143.467L7.77441 140.774ZM8.76967 140.121V140.138L13.2655 141.477L13.2826 138.783L8.76967 140.121Z" fill="#C2C2C2"/>
<path d="M13.7108 132.949H13.951C15.1008 132.949 15.4611 132.228 15.4611 131.541C15.4783 130.701 15.1008 130.032 14.0883 130.032C12.218 130.014 12.4239 133.807 9.88425 133.807C8.39139 133.807 7.60205 132.743 7.60205 131.319C7.60205 129.774 8.35707 128.916 10.073 128.985V130.1C9.14641 130.083 8.52867 130.375 8.52867 131.405C8.52867 132.039 8.85469 132.709 9.76417 132.709C11.6174 132.726 11.36 128.934 14.054 128.934C15.8215 128.934 16.4049 130.169 16.3877 131.559C16.4049 134.047 14.5001 134.047 13.6937 134.012V132.949H13.7108Z" fill="#C2C2C2"/>
<path d="M16.251 126.805H15.0327V127.903H16.251V126.805Z" fill="#C2C2C2"/>
<path d="M7.82617 123.58V122.207L16.2858 119.496L16.2686 120.697L14.261 121.298L14.2438 124.558L16.2515 125.193V126.274L7.82617 123.58ZM8.82142 122.945V122.962L13.3172 124.301L13.3344 121.607L8.82142 122.945Z" fill="#C2C2C2"/>
<path d="M16.2857 117.9H15.0674V118.998H16.2857V117.9Z" fill="#C2C2C2"/>
<path d="M15.9898 114.416L7.54736 114.398L7.56453 110.057H8.5083L8.49114 113.317L11.2024 113.335L11.2195 110.297H12.1461L12.1289 113.335L15.0632 113.352V110.006H16.007L15.9898 114.416Z" fill="#C2C2C2"/>
<path d="M16.1271 107.347C16.1271 108.634 15.5608 109.424 14.2052 109.372L14.2224 108.291C14.5484 108.291 15.3549 108.274 15.3549 107.313C15.3549 106.747 15.0631 106.3 14.4626 106.3C13.4158 106.3 13.3815 109.252 11.6141 109.235C10.9964 109.235 10.0011 108.857 10.0183 107.193C10.0183 106.146 10.5159 105.254 11.6999 105.34L11.6828 106.404C11.065 106.386 10.739 106.713 10.739 107.33C10.7218 107.845 11.0135 108.24 11.5283 108.24C12.575 108.24 12.5407 105.288 14.3596 105.305C15.6294 105.288 16.1271 106.198 16.1271 107.347Z" fill="#C2C2C2"/>
<path d="M10.1211 104.188H8.98856L8.55957 103.227L10.1211 103.245L10.1382 101.957H10.8589L10.8418 103.245L14.4625 103.261C14.8399 103.261 15.3032 103.261 15.3204 102.386C15.3204 102.318 15.2861 102.163 15.2689 101.957H16.0068C16.0239 102.266 16.1097 102.592 16.1097 102.901C16.0926 103.81 15.7323 104.223 15.0459 104.223L10.8418 104.188V105.166H10.1211V104.188Z" fill="#C2C2C2"/>
<path d="M15.1831 98.4412V98.4579C15.8523 98.7501 16.144 99.2131 16.144 99.951C16.144 101.204 15.3375 101.564 14.205 101.547C12.4204 101.547 12.3518 99.7968 12.3861 98.4412C11.5967 98.4066 10.7388 98.4066 10.7388 99.4366C10.7388 100.071 11.1678 100.415 11.7855 100.363V101.41C10.4642 101.358 10.0181 100.655 10.0181 99.4019C10.0352 97.8922 10.8074 97.4799 11.8027 97.4973H14.6512C15.1144 97.5146 15.5949 97.4632 16.0582 97.3945L16.0411 98.4412H15.1831ZM14.2736 100.603C14.8399 100.603 15.3547 100.329 15.3547 99.6934C15.3547 99.1104 14.9943 98.3725 13.0896 98.4579C13.1068 99.3679 13.021 100.603 14.2736 100.603Z" fill="#C2C2C2"/>
<path d="M16.0573 95.008L16.0401 95.9694L7.59766 95.952V94.9907L10.7207 95.008V94.974C10.2574 94.6478 10.0172 94.2362 10.0172 93.6698C10.0172 91.7651 11.7159 91.7305 13.1917 91.7305C15.7828 91.7478 16.1602 92.6918 16.1431 93.6351C16.1431 94.2529 15.8686 94.6651 15.3195 94.9907V95.0254H16.0573V95.008ZM15.3881 93.9273C15.3881 92.7258 14.1011 92.7091 13.2088 92.7091C11.6301 92.7091 10.8065 92.8459 10.8065 93.8759C10.8065 94.9393 12.0592 94.9907 12.8485 94.9907C13.7579 94.9907 15.3881 95.1114 15.3881 93.9273Z" fill="#C2C2C2"/>
<path d="M16.0587 89.6716V90.6323L7.61621 90.6156V89.6543L16.0587 89.6716Z" fill="#C2C2C2"/>
<path d="M13.4331 87.493C15.0804 87.493 15.4236 87.0467 15.4236 86.2915C15.4236 85.6397 14.8917 85.2962 14.291 85.2622L14.3082 84.2154C15.6124 84.2328 16.2129 85.0393 16.2129 86.2742C16.2129 87.527 15.8354 88.5224 13.2272 88.5051C11.4941 88.5051 10.0698 88.2996 10.0698 86.2575C10.0698 84.5757 10.9964 84.1641 12.9526 84.1641H13.4502L13.4331 87.493ZM12.7124 85.1761C10.9964 85.1594 10.7905 85.6571 10.7905 86.3429C10.7734 86.9607 11.0823 87.4583 12.7124 87.4757V85.1761Z" fill="#C2C2C2"/>
<path d="M12.0775 79.8914C11.0994 79.8574 10.842 80.3377 10.842 80.6979C10.842 81.4358 11.1852 81.9335 12.8153 81.9508C14.7372 81.9681 15.4236 81.7106 15.4236 80.7153C15.4236 80.4925 15.2005 79.8227 14.1195 79.8574L14.1366 78.862C15.8011 78.828 16.2129 80.0635 16.2129 80.7153C16.2129 81.9681 15.8354 82.9628 13.2272 82.9461C11.4941 82.9461 10.0698 82.74 10.0698 80.6979C10.0698 79.5138 10.7734 78.828 12.0775 78.8961V79.8914Z" fill="#C2C2C2"/>
<path d="M7.6499 77.6263V76.5449H8.67947V77.6263H7.6499ZM16.1096 76.631V77.5916L10.2066 77.5749V76.6136L16.1096 76.631Z" fill="#C2C2C2"/>
<path d="M16.1094 72.4788L12.0083 72.4615C11.4249 72.4615 10.8586 72.6156 10.8586 73.3881C10.8586 73.6797 11.0302 74.0919 11.2533 74.2287C11.545 74.4008 11.9053 74.4522 12.1284 74.4522L16.0923 74.4689V75.4302L11.4249 75.4128C11.0131 75.4128 10.6012 75.4475 10.1894 75.4642L10.2066 74.4522H10.9444V74.4175C10.3095 74.16 10.0864 73.6456 10.0864 72.9592C10.0864 72.4101 10.3095 71.7924 10.8415 71.5689C10.2066 71.2433 10.0864 70.6943 10.0864 70.1619C10.0864 69.5442 10.2237 68.5488 11.6308 68.5488L16.1094 68.5662V69.5275H12.0255C11.4421 69.5275 10.8758 69.6816 10.8758 70.4708C10.8758 70.8311 10.893 70.9344 11.0989 71.1919C11.3219 71.4661 11.9053 71.5175 12.1456 71.5175L16.1094 71.5349V72.4788Z" fill="#C2C2C2"/>
<path d="M7.68457 67.4169V66.3359L8.71414 66.3531V67.4169H7.68457ZM16.1271 66.4217V67.3827L10.2242 67.3655V66.4046L16.1271 66.4217Z" fill="#C2C2C2"/>
<path d="M13.5024 64.2254C15.1497 64.2254 15.4757 63.7793 15.493 63.0243C15.493 62.3722 14.961 62.029 14.3604 61.9947L14.3775 60.948C15.6817 60.9651 16.2822 61.7716 16.2822 63.0071C16.2651 64.2598 15.9048 65.255 13.2965 65.2379C11.5634 65.2379 10.1392 65.0319 10.1392 62.99C10.1392 61.3083 11.0658 60.8965 13.0219 60.8965H13.5196L13.5024 64.2254ZM12.7817 61.9261C11.0658 61.9089 10.8599 62.4065 10.8427 63.0929C10.8427 63.7107 11.1344 64.2083 12.7646 64.2254L12.7817 61.9261Z" fill="#C2C2C2"/>
<path d="M16.1622 56.5367L12.061 56.5196C11.4261 56.5196 10.9114 56.7426 10.9114 57.5663C10.8942 58.613 11.8379 58.7675 12.6445 58.7675L16.145 58.7846V59.7455L11.4776 59.7284C11.0658 59.7284 10.6539 59.7455 10.2421 59.7799L10.2593 58.7503L11.0143 58.7675V58.716C10.3451 58.3384 10.1392 57.8923 10.1392 57.1373C10.1392 55.8847 10.8942 55.5586 12.061 55.5586L16.1622 55.5758V56.5367Z" fill="#C2C2C2"/>
<path d="M10.2583 54.1854H9.12576L8.69678 53.2244L10.2583 53.2416L10.2755 51.9546H10.9962V53.2244L14.6168 53.2416C14.9943 53.2416 15.4576 53.2416 15.4748 52.3665C15.4748 52.2979 15.4405 52.1434 15.4233 51.9375H16.1612C16.1783 52.2464 16.2641 52.5724 16.2641 52.8813C16.247 53.7907 15.8866 54.2026 15.2002 54.2026L10.9962 54.1854V55.1635H10.2583V54.1854Z" fill="#C2C2C2"/>
<path d="M13.3126 51.63C11.5795 51.63 10.1553 51.424 10.1553 49.3821C10.1553 47.3401 11.5795 47.1342 13.3126 47.1513C15.9208 47.1685 16.2983 48.1466 16.2983 49.3992C16.2983 50.6519 15.9208 51.63 13.3126 51.63ZM12.918 48.1466C11.3049 48.1466 10.9446 48.6442 10.9446 49.3821C10.9446 50.1199 11.2878 50.6175 12.9008 50.6347C14.8227 50.6347 15.509 50.3945 15.509 49.3992C15.509 48.404 14.8227 48.1466 12.918 48.1466Z" fill="#C2C2C2"/>
<path d="M16.1959 43.6508L7.75342 43.6165L7.77058 40.871C7.77058 39.7041 8.16524 39.3094 8.64571 38.9834C9.10901 38.6917 9.60665 38.6574 9.77823 38.6574C10.8249 38.6745 11.5285 39.0349 11.7687 40.1159H11.8202C11.9575 38.9148 12.6954 38.3828 13.845 38.3828C16.0072 38.4 16.213 39.9615 16.213 40.9224L16.1959 43.6508ZM11.3226 42.5526V40.9911C11.3054 40.1331 10.8078 39.7384 9.98417 39.7384C9.28061 39.7384 8.69719 40.1331 8.69719 41.0426L8.68003 42.5526H11.3226ZM15.2693 42.5697V41.0426C15.2865 39.8928 14.4628 39.481 13.845 39.481C12.5066 39.481 12.2663 40.3047 12.2663 41.4029V42.5526L15.2693 42.5697Z" fill="#C2C2C2"/>
<path d="M15.3715 34.0921V34.1092C16.0579 34.4009 16.3496 34.8643 16.3325 35.6021C16.3325 36.8548 15.526 37.2151 14.3934 37.2151C12.6089 37.1979 12.5402 35.4477 12.5746 34.1092C11.7852 34.0749 10.9272 34.0749 10.9272 35.1045C10.9272 35.7394 11.3562 36.0826 11.974 36.0311V37.0778C10.6526 37.0263 10.2065 36.3228 10.2065 35.0701C10.2237 33.5601 10.9959 33.1483 11.9911 33.1654H14.8396C15.3029 33.1826 15.7834 33.1311 16.2467 33.0625L16.2295 34.1092H15.3715V34.0921ZM14.4621 36.237C15.0283 36.237 15.5431 35.9625 15.5431 35.3276C15.5431 34.7441 15.1828 34.0063 13.278 34.0921C13.3124 35.0016 13.2266 36.237 14.4621 36.237Z" fill="#C2C2C2"/>
<path d="M16.2467 28.482L12.1455 28.4648C11.5106 28.4648 10.9959 28.6879 10.9959 29.4944C10.9787 30.5583 11.9225 30.7127 12.7289 30.7127L16.2295 30.7299V31.6908L11.5621 31.6736C11.1503 31.6736 10.7384 31.6908 10.3266 31.7251V30.6956L11.0817 30.7127V30.6612C10.4124 30.2837 10.2065 29.8376 10.2065 29.0826C10.2065 27.8299 10.9615 27.5039 12.1284 27.5039L16.2295 27.5211V28.482H16.2467Z" fill="#C2C2C2"/>
<path d="M12.2489 23.1611C11.2708 23.1268 11.0134 23.6072 11.0134 23.9676C11.0134 24.7055 11.3737 25.2031 12.9867 25.2203C14.9086 25.2374 15.5949 24.98 15.5949 23.9848C15.5949 23.7617 15.3719 23.0925 14.2909 23.1268L14.308 22.1316C15.9725 22.0972 16.3843 23.3327 16.3843 23.9848C16.3843 25.2374 16.0068 26.2327 13.3986 26.2155C11.6655 26.2155 10.2412 26.0096 10.2412 23.9676C10.2412 22.7836 10.9448 22.0972 12.2489 22.1659V23.1611Z" fill="#C2C2C2"/>
<path d="M15.4233 17.7909V17.808C16.0926 18.0997 16.4014 18.563 16.3842 19.3009C16.3842 20.5535 15.5777 20.9139 14.4452 20.9139C12.6607 20.8967 12.592 19.1465 12.6263 17.808C11.837 17.7736 10.979 17.7565 10.979 18.7861C10.979 19.421 11.408 19.7642 12.0258 19.7127V20.7594C10.7045 20.7079 10.2583 20.0044 10.2583 18.7518C10.2583 17.2417 11.0476 16.8299 12.0429 16.8471H14.8914C15.3547 16.8471 15.818 16.8127 16.2813 16.7441V17.7909H15.4233ZM14.5139 19.9529C15.0801 19.9529 15.595 19.6784 15.595 19.0435C15.595 18.46 15.2346 17.7222 13.3299 17.808C13.347 18.7174 13.2612 19.9529 14.5139 19.9529Z" fill="#C2C2C2"/>
<path d="M11.2702 14.3923V14.3751C10.3778 13.9633 10.2749 13.4657 10.2749 12.5391H11.2702C11.253 12.6249 11.2358 12.7106 11.2358 12.7964C11.2187 12.8822 11.2015 12.9681 11.2015 13.0539C11.2015 14.1177 12.008 14.3923 12.7974 14.3923L16.2979 14.4095L16.2808 15.3533L10.3778 15.336V14.3923H11.2702Z" fill="#C2C2C2"/>
<path d="M7.85645 11.9737V10.8926H8.88602V11.9737H7.85645ZM16.2989 10.9784V11.9393L10.3961 11.9222V10.9612L16.2989 10.9784Z" fill="#C2C2C2"/>
<path d="M13.4323 9.87996C11.6991 9.87996 10.2749 9.67402 10.2749 7.63204C10.2749 5.59006 11.6991 5.38415 13.4323 5.4013C16.0405 5.41846 16.418 6.39656 16.418 7.6492C16.418 8.90185 16.0405 9.8971 13.4323 9.87996ZM13.0376 6.39656C11.4246 6.39656 11.0642 6.89418 11.0642 7.63204C11.0642 8.3699 11.4074 8.86752 13.0204 8.88468C14.9423 8.88468 15.6287 8.64445 15.6287 7.6492C15.6458 6.65395 14.9594 6.41372 13.0376 6.39656Z" fill="#C2C2C2"/>
<path d="M16.3155 3.29102H15.0972V4.38922H16.3155V3.29102Z" fill="#C2C2C2"/>
</svg>
