<svg width="200" height="200" viewBox="0 0 200 200" fill="none" xmlns="http://www.w3.org/2000/svg">
<path d="M134.41 55.64C135.85 53.04 134.91 49.76 132.31 48.32C134.91 49.76 138.19 48.82 139.63 46.22C138.19 48.82 139.13 52.1 141.73 53.54C139.13 52.1 135.85 53.04 134.41 55.64Z" stroke="#DA0081" stroke-width="2" stroke-linecap="round" stroke-linejoin="round"/>
<path d="M164.51 149.94C145.8 138.98 139.9 129.91 138.33 126.85C138.36 126.63 138.39 126.41 138.41 126.19C138.52 125.02 138.43 122.62 138.34 121.42" stroke="#DA0081" stroke-width="2" stroke-linecap="round" stroke-linejoin="round"/>
<path d="M87.35 142.66C88.84 144.89 91.57 148.06 93.28 149.21C95.83 150.93 95.86 151.51 99.63 153.19C99.91 153.32 100.2 153.43 100.48 153.54C107.78 160.46 116.42 166.76 125.75 172.45" stroke="#DA0081" stroke-width="2" stroke-linecap="round" stroke-linejoin="round"/>
<path d="M121.88 110.09L111.04 103.99L111.01 104.04L112.98 105.42C115.96 107.5 116.68 111.59 114.61 114.57C113.24 116.53 111 117.51 108.77 117.36C109.59 119.19 109.56 121.36 108.52 123.24C107.32 125.41 105.07 126.62 102.75 126.62C103.8 128.45 103.96 130.75 102.96 132.79C102.08 134.6 100.47 135.81 98.6699 136.27C99.6199 137.9 99.7599 139.96 98.8699 141.78C98.8299 141.87 98.7799 141.95 98.7399 142.04C99.0299 142.27 99.3399 142.48 99.6599 142.68C104.7 145.81 111.33 144.27 114.46 139.22L123.74 124.28C124 119.75 123.05 114.55 121.88 110.09Z" fill="#ECE7F5" stroke="#200020" stroke-width="2" stroke-linejoin="round"/>
<path d="M138.34 121.42C138.34 121.42 137.81 109.03 129.5 99.65C128.16 98.14 126.08 97.52 124.12 98.03C121.11 98.81 119.4 101.97 120.36 104.92C122.2 110.53 124.52 119.4 123.56 126.15" stroke="#DA0081" stroke-width="2" stroke-linecap="round" stroke-linejoin="round"/>
<path d="M124.12 98.04C124.18 98.02 124.25 98.01 124.31 98C124.3 98 124.29 98 124.27 98L110.42 90.21L108.04 94.44C106.19 97.74 107.35 101.91 110.65 103.77L121.88 110.09C121.39 108.2 120.85 106.44 120.36 104.93C119.39 101.98 121.11 98.82 124.12 98.04Z" stroke="#200020" stroke-width="2" stroke-linejoin="round"/>
<path d="M125.75 97.87C125.64 97.87 125.53 97.87 125.43 97.87C125.54 97.87 125.65 97.87 125.75 97.87Z" stroke="#DA0081" stroke-width="2" stroke-linecap="round" stroke-linejoin="round"/>
<path d="M124.62 97.93C124.62 97.93 124.66 97.93 124.68 97.93C124.66 97.93 124.64 97.93 124.62 97.93Z" stroke="#DA0081" stroke-width="2" stroke-linecap="round" stroke-linejoin="round"/>
<path d="M124.99 97.89C125.11 97.88 125.23 97.87 125.35 97.87" stroke="#DA0081" stroke-width="2" stroke-linecap="round" stroke-linejoin="round"/>
<path d="M150.13 85L120.93 68.57C120.91 69.16 120.75 69.75 120.44 70.29L110.45 88.05C110.11 88.65 109.63 89.12 109.08 89.45L124.28 98C126.19 97.56 128.2 98.18 129.5 99.65C130.18 100.41 130.8 101.19 131.38 101.99L138.37 105.92C142.93 108.49 148.71 106.87 151.27 102.31L153.76 97.89C156.33 93.33 154.71 87.55 150.15 84.99L150.13 85Z" fill="#ECE7F5"/>
<path d="M130.01 100.26C130.21 100.49 130.4 100.73 130.59 100.97C130.4 100.73 130.21 100.5 130.01 100.26Z" stroke="#DA0081" stroke-width="2" stroke-linecap="round" stroke-linejoin="round"/>
<path d="M131.14 101.68C131 101.49 130.85 101.29 130.7 101.1" stroke="#DA0081" stroke-width="2" stroke-linecap="round" stroke-linejoin="round"/>
<path d="M138.36 105.93L131.37 102C131.37 102 131.3 101.9 131.26 101.86C133.9 105.45 135.56 109.28 136.6 112.6C137.02 112.17 137.39 111.69 137.7 111.14L140.18 106.73C139.56 106.54 138.95 106.27 138.35 105.94L138.36 105.93Z" fill="#ECE7F5" stroke="#200020" stroke-width="2" stroke-linejoin="round"/>
<path d="M119.23 65.21C112.96 60.97 98.8199 49.71 95.6999 32.71C94.4299 39.77 90.2899 50.25 84.0999 61.26C77.6499 72.73 70.5199 82 65.0499 86.57C81.3299 80.13 98.5399 86.45 105.49 89.64C107.31 90.48 109.47 89.79 110.46 88.04L120.45 70.28C121.43 68.53 120.9 66.33 119.24 65.2L119.23 65.21Z" fill="#ECE7F5"/>
<path d="M68.0799 52.26C57.9499 70.27 53.3199 86.88 57.7399 89.37C62.1599 91.86 73.9599 79.28 84.0899 61.27C94.2199 43.26 98.8499 26.65 94.4299 24.16C90.0099 21.67 78.2099 34.25 68.0799 52.26Z" fill="#ECE7F5"/>
<path d="M73.7999 55.39C70.4899 61.28 68.7899 66.61 70.0099 67.3C71.2299 67.99 74.9099 63.77 78.2199 57.88C81.5299 51.99 83.2299 46.66 82.0099 45.97C80.7899 45.28 77.1099 49.5 73.7999 55.39Z" stroke="#DA0081" stroke-width="2" stroke-linecap="round" stroke-linejoin="round"/>
<path d="M66.51 36.93L65.93 31.9C65.78 30.6 64.64 29.64 63.33 29.72L60.4 29.89L58.78 22.32C58.6 21.46 57.38 21.46 57.19 22.32L55.29 30.79C54.93 32.39 56.21 33.89 57.84 33.79L61.84 33.55L65.06 37.54C65.57 38.18 66.6 37.75 66.51 36.93Z" stroke="#200020" stroke-width="2" stroke-linecap="round" stroke-linejoin="round"/>
<path d="M54.15 58.16L49.77 55.61C48.64 54.95 47.19 55.29 46.47 56.38L44.85 58.83L37.82 55.59C37.02 55.22 36.29 56.2 36.86 56.86L42.51 63.46C43.58 64.71 45.54 64.58 46.45 63.21L48.65 59.86L53.77 59.67C54.59 59.64 54.86 58.56 54.15 58.15" stroke="#200020" stroke-width="2" stroke-linecap="round" stroke-linejoin="round"/>
<path d="M58.04 46.69L55.05 42.49C54.17 41.25 52.52 40.81 51.13 41.44L48.02 42.86L45.97 38.2C45.32 36.73 43.67 35.97 42.13 36.44L35.28 38.52C34.62 38.72 34.7 39.68 35.38 39.76L41.46 40.53L44.74 46.35C45.51 47.72 47.16 48.32 48.63 47.77L53.18 46.06L57.28 47.65C57.87 47.88 58.4 47.2 58.03 46.69" stroke="#DA0081" stroke-width="2" stroke-linecap="round" stroke-linejoin="round"/>
<path d="M112.99 105.41L107.26 101.41C104.28 99.33 100.19 100.06 98.11 103.04C96.58 105.23 96.57 108.03 97.87 110.18C98.56 110.31 99.23 110.54 99.88 110.9L105.98 114.3C107.27 115.02 108.22 116.1 108.78 117.35C111 117.5 113.25 116.52 114.62 114.56C116.7 111.58 115.97 107.49 112.99 105.41Z" stroke="#DA0081" stroke-width="2" stroke-linecap="round" stroke-linejoin="round"/>
<path d="M93.4899 122.39L99.5899 125.79C102.76 127.55 106.76 126.41 108.52 123.24C110.28 120.07 109.14 116.07 105.97 114.31L99.8699 110.91C96.6999 109.15 92.6999 110.29 90.9399 113.46C89.1799 116.63 90.3199 120.63 93.4899 122.39Z" stroke="#DA0081" stroke-width="2" stroke-linecap="round" stroke-linejoin="round"/>
<path d="M99.5899 125.78L93.4899 122.38C92.5299 121.85 91.7699 121.11 91.1999 120.26C88.6299 120.1 86.0899 121.47 84.8899 123.93C83.2999 127.19 84.6499 131.12 87.8999 132.72L94.1699 135.79C97.4299 137.38 101.36 136.03 102.96 132.78C103.96 130.74 103.8 128.44 102.75 126.61C101.68 126.61 100.59 126.34 99.5799 125.78H99.5899Z" stroke="#DA0081" stroke-width="2" stroke-linecap="round" stroke-linejoin="round"/>
<path d="M94.1799 135.79L87.9099 132.72C87.0599 132.3 86.3399 131.73 85.7699 131.05C84.4999 131.58 83.4099 132.55 82.7499 133.88C81.3299 136.79 82.5299 140.29 85.4399 141.71L91.0299 144.45C93.9399 145.87 97.4399 144.67 98.8599 141.76C99.7499 139.94 99.6099 137.88 98.6599 136.25C97.2099 136.62 95.6199 136.49 94.1699 135.78L94.1799 135.79Z" stroke="#DA0081" stroke-width="2" stroke-linecap="round" stroke-linejoin="round"/>
<path d="M147.97 83.78L120.93 68.57C120.91 69.16 120.75 69.75 120.44 70.29L110.45 88.05C110.11 88.65 109.63 89.12 109.08 89.45L124.28 98C126.19 97.56 128.2 98.18 129.5 99.65C130.18 100.41 130.8 101.19 131.38 101.99L138.37 105.92C142.93 108.49 148.71 106.87 151.27 102.31" stroke="#200020" stroke-width="2" stroke-linejoin="round"/>
<path d="M138.34 121.42C138.34 121.42 137.81 109.03 129.5 99.65C128.16 98.14 126.08 97.52 124.12 98.03C121.11 98.81 119.4 101.97 120.36 104.92C122.2 110.53 124.52 119.4 123.56 126.15C123.56 126.15 125.68 131.68 122.68 131.68C118.77 131.68 123.68 125.68 123.68 125.68" stroke="#DA0081" stroke-width="2" stroke-linecap="round" stroke-linejoin="round"/>
<path d="M87.2999 55.27C95.1599 39.7 98.3699 26.36 94.4399 24.15C90.0199 21.66 78.2199 34.24 68.0899 52.25C57.9599 70.26 53.3299 86.87 57.7499 89.36C60.6999 91.02 66.9299 85.98 73.7499 77.09" stroke="#200020" stroke-width="2" stroke-linejoin="round"/>
<path d="M95.6999 32.72C94.4299 39.78 90.2899 50.26 84.0999 61.27C77.6499 72.74 70.5199 82.01 65.0499 86.58" stroke="#200020" stroke-width="2" stroke-linejoin="round"/>
<path d="M93.8099 85.55C98.7699 86.79 102.86 88.45 105.48 89.65C107.3 90.49 109.46 89.8 110.45 88.05L120.44 70.29C121.42 68.54 120.89 66.34 119.23 65.21C112.96 60.97 98.8199 49.71 95.6999 32.71" stroke="#200020" stroke-width="2" stroke-linejoin="round"/>
<path d="M65.0399 86.58C69.0099 85.01 73.0399 84.2 76.9599 83.91" stroke="#200020" stroke-width="2" stroke-linejoin="round"/>
<path d="M73.71 113.59L72.57 112.94C72.41 112.85 72.36 112.65 72.45 112.49L72.86 111.76L76.95 104.57L77.4 103.78C77.49 103.62 77.69 103.57 77.85 103.66L78.99 104.31C79.15 104.4 79.2 104.6 79.11 104.76L78.66 105.55L74.57 112.74L74.16 113.47C74.07 113.63 73.87 113.68 73.71 113.59Z" fill="#2B0D2B"/>
<path d="M78.8299 109.612L78.1816 110.75C78.0914 110.909 78.1467 111.11 78.3051 111.2L79.652 111.967C79.8104 112.058 80.0119 112.002 80.1021 111.844L80.7503 110.706C80.8405 110.547 80.7852 110.346 80.6268 110.255L79.2799 109.488C79.1216 109.398 78.9201 109.454 78.8299 109.612Z" fill="#2B0D2B"/>
<path d="M77.21 110.2L77.86 109.06C77.95 108.9 77.89 108.7 77.74 108.61L76.93 108.15L72.71 105.75L71.92 105.3C71.76 105.21 71.56 105.27 71.47 105.42L70.82 106.56C70.73 106.72 70.79 106.92 70.94 107.01L71.73 107.46L75.95 109.86L76.76 110.32C76.92 110.41 77.12 110.35 77.21 110.2Z" fill="#2B0D2B"/>
<path d="M153.644 100.3L151.652 99.2762C151.465 99.1803 151.236 99.2539 151.14 99.4405L150.573 100.543C150.477 100.73 150.551 100.959 150.738 101.055L152.73 102.079C152.916 102.175 153.146 102.101 153.241 101.915L153.808 100.812C153.904 100.625 153.831 100.396 153.644 100.3Z" fill="#200020"/>
</svg>
