<svg width="408" height="271" viewBox="0 0 408 271" fill="none" xmlns="http://www.w3.org/2000/svg">
<g clip-path="url(#clip0_393_16898)">
<path d="M389.143 199.736L153.289 142.437C151.147 141.917 148.597 142.867 146.869 144.833L-93.5496 418.097C-95.202 419.974 -95.7895 422.423 -95.0544 424.353L4.01519 683.775C4.50138 685.051 5.52276 685.97 6.86184 686.335L265.37 757.122C267.518 757.711 270.117 756.786 271.885 754.803L515.32 482.014C517.082 480.039 517.652 477.429 516.755 475.462L392.013 202.074C391.472 200.887 390.446 200.053 389.143 199.736Z" fill="#5A9EFB"/>
<path d="M420.852 622.132L467.439 347.966C467.772 346.005 467.097 343.891 465.657 342.384L282.836 151.103C281.318 149.517 279.188 148.849 277.28 149.36L21.317 218.099C19.8945 218.481 18.7414 219.483 18.1269 220.872L-130.227 556.449C-131.386 559.069 -130.376 562.409 -127.891 564.168L280.519 853.007C283.17 854.884 286.538 854.286 288.056 851.668L420.199 623.959C420.519 623.405 420.741 622.788 420.853 622.13L420.852 622.132Z" fill="#200020"/>
<path d="M279.854 137.549L278.371 143.549C278.166 144.377 278.652 145.298 279.455 145.606L286.327 148.235C287.13 148.542 287.948 148.12 288.152 147.292L289.636 141.291C289.841 140.463 289.355 139.542 288.551 139.235L281.68 136.606C280.876 136.298 280.059 136.72 279.854 137.549Z" fill="#200020"/>
</g>
<defs>
<clipPath id="clip0_393_16898">
<rect width="408" height="271" rx="2.86105" fill="white"/>
</clipPath>
</defs>
</svg>
