<svg width="510" height="560" viewBox="0 0 510 560" fill="none" xmlns="http://www.w3.org/2000/svg">
<g clip-path="url(#clip0_355_32314)">
<path d="M282.16 420.97C282.16 420.97 282.16 420.96 282.16 420.95C280.63 420.23 279.1 419.49 277.58 418.71C275.66 417.72 273.73 416.64 271.78 415.49C271.89 415.66 271.99 415.83 272.07 416.01C272.49 417.02 272.16 417.93 271.53 418.65C273.12 419.57 274.7 420.43 276.27 421.24C278.3 422.28 280.34 423.27 282.39 424.21C282.32 423.13 282.25 422.04 282.15 420.96L282.16 420.97Z" fill="#200020"/>
<path d="M325.63 435.1C322.67 434.48 319.51 433.76 316.2 432.93C316.24 433.89 316.22 434.84 316.1 435.82V435.84C319.57 436.71 322.87 437.45 325.95 438.08C325.8 437.09 325.71 436.09 325.64 435.1H325.63Z" fill="#200020"/>
<path d="M234.35 388.74C222.64 376.61 217.91 368.34 217.71 367.99L220.19 366.59C220.24 366.67 224.97 374.92 236.39 386.76L234.34 388.74H234.35Z" fill="#200020"/>
<path d="M349.304 280.93L313.713 391.65L316.426 392.522L352.017 281.802L349.304 280.93Z" fill="#200020"/>
<path d="M350.66 282.81C350.22 282.81 349.8 282.61 349.52 282.25C349.27 281.92 324.17 249.61 290.57 255.46C290.18 255.53 289.77 255.43 289.46 255.19C289.14 254.95 288.94 254.58 288.91 254.19C288.9 254.06 287.61 241.36 276.19 232.26C265.84 224.01 250.61 221.17 230.93 223.8C230.27 223.9 229.63 223.5 229.4 222.87C229.17 222.24 229.41 221.54 229.98 221.18C230.75 220.69 308.02 172.54 380.16 198.09C380.9 198.35 381.29 199.17 381.03 199.91L352 281.88C351.83 282.37 351.39 282.73 350.88 282.81C350.81 282.82 350.73 282.83 350.66 282.83V282.81ZM298.78 251.89C324.8 251.89 344.5 272.07 350.16 278.55L377.87 200.3C318.74 180.14 256.28 209.9 237.31 220.25C254.6 218.97 268.28 222.25 278.03 230.05C288.12 238.12 290.85 248.55 291.55 252.41C294.01 252.05 296.43 251.89 298.79 251.89H298.78Z" fill="#DA0081"/>
<path d="M290.34 255.47C290.04 255.47 289.74 255.38 289.49 255.19C288.86 254.72 288.73 253.82 289.2 253.19C289.59 252.67 328.83 200.99 379.61 197.99C380.34 197.92 381.07 198.54 381.12 199.33C381.17 200.12 380.57 200.79 379.78 200.84C330.3 203.76 291.87 254.39 291.49 254.9C291.21 255.28 290.78 255.47 290.35 255.47H290.34Z" fill="#DA0081"/>
<path d="M480.99 312.41C480.61 312.41 480.23 312.26 479.95 311.96C466.3 297.5 452.66 290.13 439.4 290.05H439.18C424.69 290.05 415.86 299 415.77 299.09C415.49 299.38 415.15 299.52 414.71 299.52C414.31 299.51 413.93 299.33 413.67 299.03C391.25 273.3 351.4 282.66 351 282.75C350.5 282.88 349.96 282.71 349.6 282.32C349.25 281.93 349.14 281.38 349.31 280.89L378.34 198.92C378.61 198.18 379.43 197.79 380.16 198.05C452.3 223.6 482.05 309.64 482.34 310.51C482.55 311.15 482.3 311.84 481.72 312.19C481.49 312.33 481.24 312.39 480.99 312.39V312.41ZM439.18 287.2H439.42C451.91 287.28 464.61 293.33 477.24 305.21C469.01 285.22 439.2 222.79 380.56 201.24L352.85 279.49C362.09 277.88 394.58 274.11 414.85 296.07C417.8 293.51 426.4 287.19 439.19 287.19L439.18 287.2Z" fill="#DA0081"/>
<path d="M414.75 299.53C414.75 299.53 414.71 299.53 414.69 299.53C413.9 299.5 413.29 298.84 413.32 298.05C413.34 297.41 415.32 233.86 378.72 200.47C378.14 199.94 378.1 199.04 378.63 198.45C379.16 197.87 380.06 197.83 380.65 198.36C418.23 232.66 416.2 297.51 416.17 298.16C416.14 298.93 415.51 299.53 414.75 299.53Z" fill="#DA0081"/>
<path d="M379.95 199.64C379.77 199.64 379.59 199.61 379.42 199.54C378.96 199.35 378.62 198.94 378.54 198.44C378.37 197.4 377.65 192.13 379.85 190.05C380.41 189.51 381.41 188.95 382.93 189.28C384.85 189.7 385.39 190.91 385.54 191.59C386.28 194.96 380.88 199.31 380.82 199.35C380.57 199.54 380.26 199.64 379.96 199.64H379.95ZM382.06 192.04C381.9 192.04 381.85 192.09 381.81 192.13C381.39 192.53 381.18 193.7 381.16 195.05C382.14 193.87 382.87 192.66 382.75 192.21C382.75 192.22 382.64 192.15 382.32 192.08C382.21 192.06 382.13 192.05 382.06 192.05V192.04Z" fill="#DA0081"/>
<path d="M221.46 228.62C220.98 228.62 220.53 228.52 220.11 228.3C219.45 227.94 218.66 227.12 218.69 225.3C218.71 223.85 219.3 222.63 220.4 221.78C223.6 219.29 230.32 220.8 231.08 220.98C231.75 221.14 232.21 221.76 232.17 222.45C232.13 223.13 231.63 223.68 230.96 223.78C230.55 223.9 229.3 224.74 228.37 225.35C225.93 226.96 223.42 228.62 221.45 228.62H221.46ZM225.83 223.22C224.32 223.22 222.92 223.44 222.15 224.04C221.74 224.36 221.56 224.76 221.55 225.35C221.55 225.55 221.56 225.69 221.58 225.78C222.53 225.74 225 224.16 226.4 223.23C226.21 223.23 226.02 223.22 225.83 223.22Z" fill="#DA0081"/>
<path d="M283.58 264.57H283.53C282.78 264.55 281.71 264.19 280.89 262.57C280.24 261.27 280.2 259.92 280.77 258.66C282.46 254.98 289.11 253.2 289.87 253.01C290.55 252.85 291.23 253.18 291.52 253.81C291.8 254.43 291.61 255.15 291.07 255.55C290.77 255.85 290.03 257.17 289.5 258.14C287.75 261.3 285.94 264.58 283.59 264.58L283.58 264.57ZM286.76 257.16C285.21 257.9 283.82 258.84 283.36 259.84C283.15 260.31 283.17 260.75 283.43 261.28C283.52 261.46 283.6 261.58 283.65 261.65C284.47 261.17 285.93 258.63 286.75 257.16H286.76Z" fill="#DA0081"/>
<path d="M415.23 311.26C414.75 311.26 414.18 311.15 413.52 310.85C412.19 310.26 411.3 309.24 410.94 307.91C409.9 303.99 413.91 298.39 414.37 297.77C414.78 297.21 415.53 297.03 416.15 297.33C416.76 297.63 417.07 298.31 416.91 298.96C416.86 299.38 417.14 300.86 417.34 301.95C418.01 305.53 418.7 309.24 416.83 310.71C416.47 310.99 415.95 311.25 415.22 311.25L415.23 311.26ZM414.62 302.95C413.9 304.51 413.42 306.12 413.7 307.18C413.83 307.68 414.13 308.01 414.67 308.24C414.86 308.32 414.99 308.36 415.08 308.38C415.41 307.49 414.92 304.6 414.62 302.94V302.95Z" fill="#DA0081"/>
<path d="M484.18 321.75C482.91 321.75 481.79 321.28 480.93 320.37C478.15 317.42 479.02 310.59 479.12 309.82C479.22 309.14 479.79 308.62 480.48 308.59C481.25 308.56 481.76 309.02 481.92 309.67C482.08 310.06 483.03 311.23 483.72 312.09C486.01 314.93 488.38 317.86 487.44 320.04C487.14 320.73 486.4 321.59 484.59 321.73C484.45 321.74 484.31 321.75 484.17 321.75H484.18ZM481.81 314.26C481.91 315.97 482.26 317.61 483.01 318.42C483.36 318.8 483.78 318.94 484.37 318.89C484.57 318.88 484.71 318.85 484.8 318.82C484.67 317.88 482.86 315.57 481.8 314.26H481.81Z" fill="#DA0081"/>
<path d="M203.31 481.26C185.37 486.18 169.32 484.77 169.09 484.74L168.82 487.58C169.18 487.62 171.67 487.84 175.6 487.84C182.03 487.84 192.31 487.24 203.44 484.25C203.36 483.26 203.33 482.26 203.31 481.26Z" fill="#200020"/>
<path d="M266.31 401.79C266.18 402.98 266.03 404.16 265.87 405.34C266.98 405.26 267.86 405.76 268.59 406.47C268.8 405.03 268.99 403.57 269.15 402.1C271.95 375.77 265.75 353.76 264.48 349.62L261.75 350.46C262.99 354.51 269.06 376.03 266.31 401.8V401.79Z" fill="#200020"/>
<path d="M237.33 450.45H207.93C204.47 450.45 201.66 453.26 201.66 456.72V507.74C201.66 508.53 202.3 509.17 203.09 509.17C203.88 509.17 204.52 508.53 204.52 507.74V456.72C204.52 454.84 206.05 453.3 207.94 453.3H237.34V450.45H237.33Z" fill="#DA0081"/>
<path d="M348.12 472.86H345.91C345.65 472.86 345.44 473.07 345.44 473.33V475.2C345.44 475.46 345.65 475.67 345.91 475.67H348.12C348.38 475.67 348.59 475.46 348.59 475.2V473.33C348.59 473.07 348.38 472.86 348.12 472.86Z" fill="#DA0081"/>
<path d="M343.86 475.2V473.32C343.86 473.06 343.65 472.85 343.39 472.85H207.87C206.54 472.87 205.19 473.31 204.14 474.13C203.07 474.93 202.28 476.09 201.92 477.38C201.72 478 201.68 478.76 201.68 479.3V501.71C201.68 501.97 201.89 502.18 202.15 502.18H204.03C204.29 502.18 204.5 501.97 204.5 501.71V479.3C204.5 478.81 204.52 478.53 204.64 478.15C204.84 477.45 205.27 476.8 205.86 476.36C206.44 475.9 207.17 475.67 207.91 475.66H211.01H260.75H343.4C343.66 475.66 343.87 475.45 343.87 475.19L343.86 475.2Z" fill="#DA0081"/>
<path d="M267.07 531.47C265.94 531.47 264.8 531.35 263.66 531.09C259.59 530.18 256.12 527.74 253.89 524.22C251.66 520.7 250.93 516.52 251.84 512.45C252.75 508.38 255.19 504.91 258.71 502.67C262.23 500.44 266.41 499.71 270.48 500.62C278.88 502.5 284.19 510.86 282.31 519.27C280.69 526.53 274.22 531.47 267.08 531.47H267.07ZM264.28 528.31C270.19 529.63 276.1 526.59 278.6 521.33C278.12 521.9 277.27 521.99 276.66 521.54C276.03 521.06 275.91 520.17 276.38 519.54C277.14 518.53 277.67 517.38 277.96 516.13C279.03 511.34 276.01 506.58 271.22 505.5C268.9 504.99 266.52 505.4 264.51 506.67C262.99 507.63 261.82 509.01 261.12 510.62C262.97 508.52 265.87 507.46 268.81 508.12C273.08 509.07 275.77 513.32 274.82 517.59C274.36 519.66 273.12 521.42 271.33 522.55C271.08 522.71 270.82 522.86 270.55 522.99C271.34 522.88 272.11 522.66 272.85 522.33C273.57 522.01 274.41 522.33 274.73 523.06C275.05 523.79 274.72 524.62 274 524.94C271.69 525.95 269.17 526.2 266.72 525.64C263.66 524.96 261.04 523.12 259.36 520.47C257.68 517.82 257.13 514.67 257.82 511.61C258.5 508.55 260.34 505.93 262.99 504.25C263.6 503.86 264.23 503.54 264.88 503.27C263.25 503.55 261.68 504.16 260.25 505.07C257.37 506.89 255.38 509.73 254.63 513.06C253.89 516.38 254.48 519.8 256.31 522.68C258.14 525.56 260.97 527.55 264.3 528.3L264.28 528.31ZM267.07 510.78C264.75 510.78 262.64 512.39 262.11 514.75C261.81 516.07 262.05 517.43 262.78 518.58C263.5 519.72 264.63 520.52 265.96 520.82C267.28 521.11 268.64 520.88 269.79 520.15C270.93 519.43 271.73 518.3 272.03 516.97C272.64 514.24 270.92 511.52 268.18 510.91C267.81 510.83 267.44 510.79 267.07 510.79V510.78Z" fill="#DA0081"/>
<path d="M261.06 490.31C258.02 486.7 253.75 484.49 249.04 484.08C244.31 483.67 239.75 485.13 236.14 488.18C232.53 491.22 230.32 495.49 229.91 500.2C229.51 504.91 230.96 509.49 234.01 513.1C237.05 516.71 241.32 518.92 246.03 519.33C246.54 519.37 247.06 519.4 247.57 519.4C249.3 519.4 251 519.13 252.62 518.64C252.53 518.18 252.48 517.71 252.49 517.24C252.45 517.12 252.43 516.99 252.43 516.84C252.45 515.78 252.66 514.73 253.01 513.71C251.11 514.89 248.9 515.44 246.65 515.24C243.88 515 241.37 513.7 239.58 511.58C238.61 510.43 237.92 509.13 237.52 507.7C237.34 507.07 236.77 506.66 236.15 506.66C236.02 506.66 235.89 506.68 235.76 506.71C235 506.92 234.56 507.71 234.77 508.47C234.94 509.08 235.15 509.67 235.41 510.24C233.4 507.39 232.46 503.95 232.76 500.44C233.1 496.49 234.95 492.91 237.98 490.36C241.01 487.81 244.87 486.61 248.8 486.92C252.75 487.26 256.33 489.11 258.88 492.14C261.31 495.03 262.52 498.65 262.34 502.39C263.12 502.02 263.89 501.73 264.58 501.51C264.8 501.44 265.02 501.44 265.22 501.48C265.18 497.38 263.73 493.46 261.06 490.29V490.31Z" fill="#DA0081"/>
<path d="M240.74 507.43C243.89 511.17 249.51 511.65 253.26 508.5C255.07 506.97 256.18 504.83 256.39 502.46C256.5 501.15 256.33 499.87 255.89 498.67C257.41 500.71 258.13 503.21 257.91 505.76C257.91 505.85 257.89 505.93 257.88 506.02C258.53 504.94 259.56 504.03 260.71 503.3C260.41 500.75 259.38 498.34 257.68 496.33C252.97 490.74 244.59 490.02 239 494.73C236.82 496.57 235.32 498.99 234.65 501.75C234.47 502.52 234.94 503.29 235.7 503.47C236.46 503.65 237.24 503.18 237.42 502.42C237.75 501.04 238.36 499.76 239.2 498.64C238.14 501.54 238.62 504.9 240.74 507.43ZM243.65 497.1C244.78 496.15 246.16 495.68 247.53 495.68C249.25 495.68 250.95 496.41 252.15 497.82C253.19 499.05 253.68 500.61 253.55 502.22C253.41 503.82 252.66 505.28 251.43 506.32C248.89 508.46 245.07 508.13 242.94 505.59C240.8 503.05 241.12 499.24 243.67 497.1H243.65Z" fill="#DA0081"/>
<path d="M281.48 501.96C280.86 501.96 280.29 501.55 280.11 500.93C279.65 499.32 278.58 498 277.12 497.19C275.66 496.39 273.96 496.2 272.36 496.66C271.6 496.87 270.81 496.44 270.59 495.69C270.55 495.56 270.53 495.42 270.53 495.29C270.53 494.67 270.94 494.1 271.56 493.92C274.87 492.96 276.79 489.48 275.83 486.17C275.79 486.04 275.77 485.9 275.77 485.77C275.77 485.15 276.18 484.58 276.8 484.4C277.57 484.19 278.35 484.62 278.57 485.37C279.53 488.68 283 490.6 286.32 489.64C287.09 489.43 287.87 489.86 288.09 490.61C288.13 490.74 288.15 490.88 288.15 491.01C288.15 491.63 287.74 492.2 287.12 492.38C285.51 492.84 284.19 493.91 283.38 495.37C282.57 496.83 282.39 498.53 282.85 500.13C282.89 500.26 282.91 500.4 282.91 500.53C282.91 501.15 282.5 501.72 281.88 501.9C281.75 501.94 281.61 501.96 281.48 501.96ZM276.66 493.92C277.29 494.11 277.91 494.36 278.49 494.69C279.08 495.01 279.62 495.4 280.12 495.83C280.5 494.56 281.15 493.38 282.02 492.38C280.74 492 279.56 491.35 278.56 490.48C278.18 491.75 277.53 492.94 276.66 493.94V493.92Z" fill="#DA0081"/>
<path d="M239.79 540.26C239.53 540.26 239.27 540.19 239.04 540.04C238.61 539.77 238.37 539.3 238.37 538.83C238.37 538.57 238.44 538.31 238.59 538.08C240.39 535.21 239.51 531.4 236.64 529.6C236.21 529.33 235.97 528.86 235.97 528.39C235.97 528.13 236.04 527.87 236.19 527.64C236.61 526.97 237.49 526.77 238.16 527.19C241.04 528.99 244.84 528.11 246.64 525.24C247.06 524.57 247.94 524.37 248.61 524.79C249.04 525.06 249.28 525.53 249.28 526C249.28 526.26 249.21 526.52 249.06 526.75C247.26 529.62 248.14 533.43 251.01 535.23C251.44 535.5 251.68 535.97 251.68 536.44C251.68 536.7 251.61 536.96 251.46 537.19C251.04 537.86 250.16 538.06 249.49 537.64C248.1 536.77 246.45 536.5 244.85 536.86C243.25 537.23 241.89 538.2 241.02 539.59C240.75 540.02 240.28 540.26 239.81 540.26H239.79ZM241.5 530.97C242.05 532.14 242.35 533.42 242.36 534.71C242.94 534.44 243.55 534.23 244.18 534.08C244.81 533.93 245.45 533.86 246.09 533.85C245.82 533.27 245.61 532.67 245.46 532.03C245.32 531.39 245.24 530.75 245.23 530.11C244.06 530.66 242.78 530.95 241.49 530.97H241.5Z" fill="#DA0081"/>
<path d="M250.09 599.32L247.28 598.84C247.29 598.77 248.51 591.37 247.04 582.63C245.09 571.09 239.61 562.78 230.75 557.92C224.43 554.46 219.3 552.85 215.43 552.42C214.9 553.3 214.33 554.1 213.74 554.81C211.47 557.48 208.88 558.69 206.8 558.04C205.45 557.61 204.53 556.61 204.33 555.36C204.1 553.88 204.91 552.33 206.49 551.22C207.41 550.58 209.7 549.34 213.79 549.45C216.72 543.3 217.37 533.38 211.21 521.26C199.79 498.8 170.2 497.24 157.54 502.7L156.41 500.08C164.4 496.63 175.8 496.15 186.14 498.81C198.66 502.04 208.46 509.55 213.76 519.96C220.07 532.38 219.67 542.82 216.79 549.7C220.65 550.28 225.69 551.89 232.12 555.41C255.15 568.03 250.15 599 250.09 599.31V599.32ZM212.05 552.35C210.33 552.49 209.01 552.94 208.13 553.56C207.39 554.08 207.1 554.63 207.15 554.93C207.18 555.14 207.48 555.26 207.65 555.32C208.42 555.56 209.98 554.83 211.55 552.97C211.72 552.77 211.88 552.56 212.05 552.35Z" fill="#200020"/>
<path d="M161.17 397.82L158.8 396.24C158.83 396.19 161.99 390.98 158.53 385.82L160.9 384.23C164.74 389.95 162.4 395.98 161.17 397.82Z" fill="#200020"/>
<path d="M40.4598 447.48C35.8898 444.6 33.6198 440.33 33.0598 436.47C32.1598 436.55 31.1898 436.56 30.1598 436.49C18.5198 435.69 13.0998 422.15 13.0998 413.26C13.0998 409.81 14.3998 405.72 16.2898 402.35C14.0798 400.97 11.7498 398.42 10.1098 393.73C8.00984 387.74 8.53984 381.54 11.6398 375.8C15.5198 368.61 22.6098 363.58 27.6098 362.33C30.3498 361.64 33.4698 354.29 36.4798 347.18C40.7998 336.97 46.1798 324.27 54.7598 318.19C79.9998 300.28 102.64 315.42 106.03 317.91H106.05C109.33 317.91 124.99 319.09 131.75 341.05C134.35 349.49 137.9 361.05 154.55 370.52L153.14 373C135.51 362.97 131.76 350.78 129.02 341.89C122.19 319.71 106.37 320.71 105.68 320.77C105.32 320.81 104.95 320.69 104.66 320.46C103.74 319.71 81.8598 302.46 56.3998 320.51C48.4798 326.13 43.2798 338.42 39.0998 348.29C35.3698 357.1 32.4198 364.07 28.2998 365.1C24.0198 366.17 17.5998 370.76 14.1498 377.15C11.4098 382.24 10.9498 387.5 12.7998 392.78C14.1998 396.77 16.0998 398.86 17.8398 399.94C19.0598 398.3 20.4098 397.01 21.7698 396.3C23.5598 395.37 25.3698 395.43 26.8498 396.47C28.1398 397.38 28.6598 398.74 28.2398 400.1C27.5898 402.23 24.8598 403.82 21.7498 403.89C21.0198 403.89 20.0398 403.84 18.8798 403.51C17.1698 406.49 15.9398 410.24 15.9398 413.25C15.9398 419.32 19.5698 432.89 30.3398 433.64C31.2798 433.71 32.1498 433.69 32.9498 433.61C32.9698 433.34 32.9998 433.08 33.0398 432.82C33.5498 429.55 35.3798 427.19 37.9298 426.52C40.3098 425.89 41.4598 426.97 41.8498 427.45C42.6898 428.5 42.6998 430.05 41.8998 431.58C41.0098 433.27 38.9998 435.07 35.8398 435.97C36.2498 439.12 38.1198 442.66 41.9498 445.07L40.4298 447.49L40.4598 447.48ZM39.3398 429.19C39.1898 429.19 38.9698 429.21 38.6798 429.29C37.3298 429.64 36.3198 431 35.9398 432.95C37.5998 432.32 38.7098 431.39 39.2698 430.5C39.7098 429.81 39.6998 429.33 39.6398 429.24C39.6398 429.24 39.5498 429.2 39.3398 429.2V429.19ZM20.6398 400.97C21.0598 401.03 21.4098 401.04 21.7098 401.04C23.8998 401 25.3398 399.88 25.5298 399.27C25.5498 399.19 25.5898 399.06 25.2298 398.81C24.8498 398.54 24.2198 398.26 23.1098 398.83C22.2798 399.26 21.4498 400.01 20.6498 400.97H20.6398Z" fill="#200020"/>
<path d="M71.7599 493.64L70.1799 494.65C69.9599 494.79 69.9599 495.16 70.1299 495.38C70.6599 496.04 71.1999 496.63 71.7899 497.17C71.9999 497.36 72.2999 497.36 72.4699 497.17L73.7099 495.76C73.8799 495.56 73.8799 495.28 73.7099 495.12C73.1999 494.67 72.7599 494.16 72.3599 493.67C72.2199 493.49 71.9699 493.5 71.7599 493.65V493.64Z" fill="#DA0081"/>
<path d="M74.89 496.69L73.77 498.2C73.62 498.41 73.67 498.7 73.9 498.86L74.63 499.36L76.35 500.36C78.52 501.51 80.86 502.26 83.22 502.77C87.96 503.75 92.81 503.65 97.48 502.92C102.19 502.25 106.75 500.71 111.03 498.85L117.34 496.06C119.4 495.21 121.51 494.41 123.4 494.49C123.76 494.47 124.1 494.54 124.43 494.61C124.63 494.65 124.85 494.47 124.93 494.23L125.45 492.43C125.53 492.18 125.34 491.93 125.03 491.87C124.51 491.75 124 491.67 123.49 491.69C120.73 491.63 118.43 492.6 116.25 493.48L109.91 496.28C105.74 498.08 101.48 499.52 97.05 500.15C92.62 500.85 88.11 500.92 83.8 500.03C81.66 499.56 79.57 498.9 77.66 497.88L76.15 497L75.52 496.56C75.32 496.42 75.04 496.48 74.88 496.69H74.89Z" fill="#DA0081"/>
<path d="M89.5997 411.68C86.4597 411.68 83.2997 411.06 80.3297 409.8C71.7697 406.16 66.3397 400.96 63.7297 393.92C61.2397 394.44 58.0297 392.91 54.7797 389.54C50.0497 384.63 46.6897 377.29 49.7897 373.38C51.2397 371.55 52.8897 370.67 54.7597 370.7C55.8597 370.74 56.8797 371.13 57.7697 371.67C57.7197 371.4 57.6597 371.14 57.6097 370.89C57.5497 370.59 57.5897 370.27 57.7197 369.99C57.7297 369.96 59.1697 366.9 61.0697 359.05C61.2497 358.29 61.4397 357.54 61.5797 356.79C58.5597 356.15 56.2097 354.67 55.8297 351.91C55.5797 350.09 56.7697 348.02 59.1697 347.69C61.7897 347.34 63.9797 349.62 64.4597 351.95C64.6297 352.76 64.6897 353.54 64.6897 354.3C66.0197 354.36 67.4997 354.3 69.0597 354.08C74.9497 353.27 82.4697 350.32 88.6797 346.37C91.3697 344.66 93.4097 343.03 94.8797 341.56C94.1897 340.16 93.6897 338.61 93.4497 336.89C93.3097 335.9 93.4897 334.92 93.9597 334.14C94.5097 333.22 95.4097 332.63 96.4997 332.48C97.5597 332.33 98.5797 332.66 99.3497 333.4C100.04 334.06 100.48 334.98 100.63 336.06C100.9 338.01 99.9097 340.04 98.3897 341.91C100.96 345.57 105.12 347.38 107.57 347.56C108.27 347.61 108.84 348.17 108.89 348.87C109.04 350.83 111.07 356.16 116.36 360.14C116.68 360.38 116.89 360.75 116.92 361.15C116.99 361.88 117.05 362.61 117.1 363.34C117.79 362.66 118.61 362.09 119.58 361.79C121.3 361.26 123.11 361.66 124.98 362.96C129.69 366.23 127.33 375.99 123.91 381.48C121.75 384.94 119.26 386.75 116.9 386.64C116.07 393.74 112.54 399.68 105.82 405.32L104.76 406.22C100.49 409.81 95.0497 411.69 89.5597 411.69L89.5997 411.68ZM64.5897 390.59C64.7297 390.59 64.8797 390.61 65.0197 390.66C65.4497 390.8 65.7997 391.14 65.9397 391.57L66.1897 392.32C68.4097 398.9 73.3997 403.76 81.4497 407.18C88.6197 410.23 97.0597 408.99 102.96 404.03L104.02 403.13C110.31 397.86 113.53 392.35 114.15 385.8L114.24 384.71C114.28 384.23 114.56 383.8 114.99 383.57C115.42 383.34 115.93 383.34 116.36 383.58C117.97 384.46 120.07 382.3 121.52 379.97C124.65 374.96 126.12 367.2 123.38 365.3C122.26 364.52 121.3 364.27 120.44 364.52C118.71 365.05 117.6 367.61 117.3 368.39C117.06 369.02 116.41 369.4 115.74 369.28C115.07 369.17 114.58 368.61 114.55 367.93C114.47 366.01 114.33 364.03 114.16 362.02C109.31 358.17 106.91 353.3 106.24 350.24C103.07 349.66 99.1197 347.58 96.4197 344.02C94.2597 346.07 91.7697 347.78 90.2197 348.77C83.6797 352.93 75.7197 356.04 69.4497 356.9C67.8097 357.12 66.0797 357.22 64.4097 357.14C64.2597 357.98 64.0597 358.78 63.8797 359.54C62.2497 366.25 60.9697 369.61 60.4897 370.76C60.7997 372.25 61.1497 373.89 61.5497 375.64C61.6997 376.31 61.3597 376.99 60.7297 377.26C60.0997 377.53 59.3697 377.33 58.9797 376.77C57.9697 375.31 56.2297 373.6 54.6497 373.55C53.6897 373.55 52.8797 374.04 52.0097 375.15C50.2897 377.32 52.5397 383.11 56.8197 387.55C59.5997 390.44 62.4397 391.8 63.7297 390.85C63.9797 390.67 64.2697 390.57 64.5697 390.57L64.5897 390.59ZM59.7297 350.51C59.6797 350.51 59.6297 350.51 59.5697 350.52C58.7397 350.63 58.6397 351.3 58.6697 351.53C58.8197 352.64 59.9997 353.46 61.8497 353.92C61.8297 353.46 61.7797 352.99 61.6797 352.53C61.4797 351.53 60.6197 350.51 59.7297 350.51ZM97.0197 335.29C97.0197 335.29 96.9497 335.29 96.9197 335.29C96.6897 335.32 96.5497 335.41 96.4497 335.58C96.3197 335.8 96.2697 336.13 96.3197 336.48C96.4497 337.41 96.6697 338.27 96.9597 339.08C97.6497 338 97.9297 337.1 97.8397 336.43C97.7797 336 97.6297 335.65 97.4197 335.45C97.2997 335.34 97.1797 335.28 97.0297 335.28L97.0197 335.29Z" fill="#200020"/>
<path d="M73.9696 379.11C75.3796 378.92 76.3396 377.42 76.1196 375.78C75.8996 374.14 74.5696 372.95 73.1496 373.15C71.7396 373.34 70.7796 374.84 70.9996 376.48C71.2196 378.12 72.5496 379.31 73.9696 379.11Z" fill="#200020"/>
<path d="M103.38 375.08C104.79 374.89 105.75 373.39 105.53 371.75C105.3 370.1 103.98 368.92 102.56 369.12C101.15 369.31 100.19 370.81 100.41 372.45C100.64 374.1 101.96 375.28 103.38 375.08Z" fill="#200020"/>
<path d="M97.7098 388.78L99.5798 388.94C99.8398 388.97 100.02 389.26 99.9698 389.54C99.8998 389.98 99.8098 390.41 99.6998 390.83C99.2298 392.68 98.4198 394.5 97.0798 396.05C95.7298 397.58 93.7398 398.66 91.7198 398.93C89.7798 399.24 87.5998 398.95 85.7798 397.93C83.9398 396.93 82.6198 395.31 81.6998 393.61C81.4798 393.17 81.2698 392.74 81.0898 392.27C80.9798 392 81.0998 391.67 81.3498 391.59L83.1498 391.07C83.3998 390.99 83.6398 391.07 83.7198 391.27C83.8498 391.61 84.0198 391.96 84.1898 392.3C84.9098 393.64 85.9098 394.82 87.1498 395.48C88.3798 396.16 89.8298 396.39 91.3198 396.16C92.7598 395.95 93.9998 395.27 94.9698 394.2C95.9198 393.11 96.5898 391.68 96.9698 390.16C97.0598 389.82 97.1298 389.46 97.1898 389.12C97.2298 388.89 97.4498 388.76 97.7098 388.79V388.78Z" fill="#2B0D2B"/>
<path d="M126.44 451.08L121.71 404.06C121.59 402.68 122.01 401.36 122.88 400.32C123.76 399.28 124.99 398.64 126.34 398.52L159.86 395.61C161.2 395.49 162.54 395.91 163.58 396.79C164.62 397.67 165.26 398.9 165.38 400.26L169.28 437.22L166.44 437.52L162.54 400.53C162.49 399.91 162.2 399.36 161.74 398.98C161.28 398.59 160.7 398.41 160.1 398.46L126.58 401.37C125.98 401.42 125.44 401.7 125.05 402.17C124.66 402.63 124.48 403.21 124.53 403.81L129.26 450.81L126.42 451.1L126.44 451.08Z" fill="#DA0081"/>
<path d="M136.04 422.66C134.58 422.66 133.17 422.17 132.01 421.24C130.66 420.16 129.82 418.62 129.63 416.91L128.98 411.02C128.59 407.48 131.15 404.29 134.69 403.9C138.22 403.51 141.42 406.07 141.81 409.61L142.46 415.5C142.85 419.04 140.29 422.24 136.75 422.62C136.51 422.65 136.27 422.66 136.03 422.66H136.04ZM135.41 406.71C135.28 406.71 135.15 406.71 135.01 406.73C133.04 406.95 131.61 408.73 131.82 410.7L132.47 416.59C132.69 418.57 134.5 419.95 136.44 419.78C138.42 419.56 139.84 417.78 139.63 415.81L138.98 409.92C138.78 408.08 137.21 406.71 135.4 406.71H135.41Z" fill="#DA0081"/>
<path d="M135.44 412.87C134.22 412.87 133.23 411.88 133.23 410.66C133.23 409.44 134.22 408.45 135.44 408.45C136.66 408.45 137.65 409.44 137.65 410.66C137.65 411.88 136.66 412.87 135.44 412.87ZM135.44 410.02C135.09 410.02 134.8 410.31 134.8 410.66C134.8 411.01 135.09 411.3 135.44 411.3C135.79 411.3 136.08 411.01 136.08 410.66C136.08 410.31 135.79 410.02 135.44 410.02Z" fill="#DA0081"/>
<path d="M136.23 418.23C135.01 418.23 134.02 417.24 134.02 416.02C134.02 414.8 135.01 413.81 136.23 413.81C137.45 413.81 138.44 414.8 138.44 416.02C138.44 417.24 137.45 418.23 136.23 418.23ZM136.23 415.38C135.88 415.38 135.59 415.67 135.59 416.02C135.59 416.37 135.88 416.66 136.23 416.66C136.58 416.66 136.87 416.37 136.87 416.02C136.87 415.67 136.58 415.38 136.23 415.38Z" fill="#DA0081"/>
<path d="M55.1098 494.12C37.9498 494.12 24.3698 485.67 23.7698 485.29L25.2898 482.88C25.4398 482.97 40.2798 492.19 57.8098 491.19L57.9698 494.04C57.0098 494.09 56.0498 494.12 55.0998 494.12H55.1098Z" fill="#DA0081"/>
<path d="M85.4297 530.51C72.5997 530.51 65.5997 524.3 61.9297 518.88C55.1197 508.81 54.6097 493.59 60.6697 481L63.2397 482.24C57.6097 493.95 58.0397 508.03 64.2997 517.28C69.3197 524.71 77.5297 528.26 88.0397 527.57C106.32 526.35 119.05 513 124.87 488.95C125.28 487.27 125.93 485.74 126.72 484.42C124.09 482.79 118.85 478.12 116.75 466.13C114.07 450.8 114.87 435.65 114.88 435.5L114.93 434.63L115.73 434.28C115.88 434.21 119.31 432.74 122.81 434.92C126.77 437.39 128.99 443.38 129.39 452.73C130.1 456.43 131.72 458.98 134.33 460.5C138.58 462.98 145.63 462.66 154.72 459.56C168.54 454.85 166.57 435.07 166.04 431.15C165.95 430.5 166.22 429.85 166.76 429.46C167.29 429.07 167.99 429 168.59 429.29C170.31 430.11 176 433.34 177.05 440.5C178.25 448.64 171.7 462.37 171.42 462.95L168.85 461.71C168.92 461.58 175.3 448.19 174.22 440.91C173.6 436.72 171.08 434.22 169.09 432.86C169.69 439.82 169.75 457.44 155.63 462.26C145.59 465.68 137.93 465.92 132.88 462.97C129.54 461.02 127.41 457.71 126.56 453.16L126.54 452.96C126.1 442.53 123.47 438.73 121.33 437.37C119.93 436.48 118.53 436.52 117.68 436.67C117.56 440.26 117.33 452.9 119.56 465.65C121.54 476.97 126.48 480.95 128.42 482.11C130.15 480.19 132.14 479.1 133.76 479.13C135.43 479.17 136.65 480.28 137.01 482.12C137.35 483.86 136.69 484.85 136.07 485.37C134.39 486.79 131.21 486.14 129.35 485.58C128.63 486.7 128.01 488.07 127.63 489.64C119.87 521.71 101.92 529.52 88.2197 530.43C87.2597 530.5 86.3297 530.52 85.4297 530.52V530.51ZM131.41 483.14C132.82 483.43 133.97 483.45 134.23 483.18C134.23 483.18 134.28 483.04 134.21 482.66C134.07 481.95 133.83 481.99 133.67 481.98C133.11 481.98 132.28 482.39 131.41 483.14Z" fill="#200020"/>
<path d="M173.65 473.34L171.49 471.48C171.56 471.4 178.35 463.43 178.82 456.58C179.28 449.85 174.72 444.22 174.67 444.16L176.87 442.34C177.09 442.6 182.21 448.88 181.67 456.78C181.13 464.58 173.96 472.99 173.66 473.34H173.65Z" fill="#200020"/>
<path d="M100.72 447.69C73.7699 447.69 67.6899 428.54 67.6199 428.32L70.3499 427.5C70.6399 428.46 77.9399 450.96 114.73 443.27L115.31 446.06C109.87 447.2 105.02 447.69 100.71 447.69H100.72Z" fill="#DA0081"/>
<path d="M79.7199 567.86C55.4199 566.91 28.5599 553 23.3399 524.06C18.2099 495.58 22.8199 471.34 37.0399 451.99C49.6099 434.89 65.4099 427.82 68.4499 426.58C72.1199 425.08 75.5599 424.56 78.3899 424.52L72.9099 405.05L75.6599 404.28L81.4199 424.78C84.4299 425.28 86.6099 426.46 87.5999 427.75C88.4399 428.84 88.5099 430.11 87.7799 431.07C86.4399 432.85 85.0599 433.08 84.1199 432.97C81.4099 432.63 79.7499 429 79.4399 428.27L79.1999 427.41C76.5199 427.25 73.2099 427.73 69.5299 429.23C63.7699 431.58 13.6499 454.24 26.1499 523.56C31.0799 550.94 56.6599 564.11 79.8299 565.01L79.7199 567.86ZM82.4299 427.92C82.9999 428.96 83.8799 430.06 84.4699 430.13C84.7999 430.17 85.1299 429.8 85.3599 429.52C85.1999 429.31 84.7799 428.89 83.8599 428.46C83.4399 428.26 82.9499 428.08 82.4199 427.92H82.4299Z" fill="#200020"/>
<path d="M153.54 517.36L150.93 516.21C154.67 507.73 155.97 502.27 156.7 491.84C156.84 489.92 158.25 488.38 160.14 488.1C163.74 487.57 172.79 484.92 179.01 471.79C181.04 467.5 178.45 460.06 178.42 459.99L181.11 459.03C181.23 459.38 184.13 467.65 181.59 473.01C174.77 487.38 164.61 490.32 160.56 490.92C160.01 491 159.59 491.46 159.55 492.03C158.8 502.71 157.4 508.63 153.55 517.35L153.54 517.36Z" fill="#200020"/>
<path d="M118.09 416.9L116.275 417.349C116.023 417.411 115.869 417.666 115.931 417.918L116.461 420.063C116.524 420.315 116.778 420.469 117.03 420.407L118.846 419.958C119.098 419.896 119.251 419.641 119.189 419.389L118.659 417.244C118.597 416.992 118.342 416.838 118.09 416.9Z" fill="#200020"/>
<path d="M115.92 415.81L117.74 415.36C117.99 415.3 118.14 415.04 118.08 414.79L117.76 413.5L113.75 397.26L113.44 396C113.38 395.75 113.12 395.59 112.87 395.66L111.05 396.11C110.8 396.17 110.64 396.43 110.71 396.68L111.02 397.94L115.03 414.18L115.35 415.47C115.41 415.72 115.67 415.88 115.92 415.81Z" fill="#200020"/>
<path d="M187.36 442.42C186.99 442.42 186.61 442.27 186.33 441.98C185.78 441.42 185.8 440.51 186.36 439.96C186.59 439.74 209.11 417.45 217.47 367.48C216.59 365.43 213.04 356.27 212.83 340.36C212.82 339.57 213.45 338.93 214.24 338.91H214.26C215.04 338.91 215.68 339.54 215.69 340.32C215.92 357.42 220.2 366.58 220.25 366.67C220.37 366.93 220.42 367.23 220.37 367.52C211.9 418.8 189.31 441.09 188.35 442.01C188.07 442.28 187.72 442.41 187.36 442.41V442.42Z" fill="#DA0081"/>
<path d="M181.43 442.39C177.82 442.39 175.55 442.13 175.46 442.12L175.81 439.29C176.16 439.33 211.03 443.33 226.47 418.34C240.91 394.95 230.92 355.65 229.27 349.68C227.47 349.15 223.32 347.55 220.69 343.54C218.43 340.1 217.86 335.77 219 330.67C221.23 320.64 235.93 318.04 236.55 317.94L237.3 317.81L237.82 318.37C237.95 318.51 240.99 321.81 240.02 325.62C239.31 328.43 236.68 330.6 232.21 332.08L231.31 329.37C234.75 328.23 236.8 326.69 237.25 324.91C237.65 323.34 236.78 321.75 236.2 320.92C233.26 321.58 223.32 324.32 221.77 331.29C220.81 335.59 221.24 339.18 223.05 341.95C225.73 346.07 230.63 347.09 230.68 347.1L231.52 347.27L231.77 348.09C231.8 348.2 235.17 359.52 236.5 373.88C237.73 387.22 237.41 406.03 228.88 419.84C216.49 439.89 192.55 442.39 181.41 442.39H181.43Z" fill="#200020"/>
<path d="M249.93 305.55L251.09 307.03C251.26 307.23 251.5 307.32 251.63 307.23C252.09 306.96 252.68 306.73 253.25 306.61C253.45 306.56 253.58 306.35 253.55 306.08L253.29 304.22C253.26 303.97 252.97 303.78 252.67 303.85C251.8 304.03 250.99 304.34 250.18 304.82C249.88 305.01 249.78 305.35 249.95 305.55H249.93Z" fill="#200020"/>
<path d="M255.11 304.2L254.87 306.06C254.84 306.31 254.97 306.54 255.14 306.59C255.35 306.62 255.54 306.71 255.73 306.79C255.78 306.81 255.83 306.82 255.87 306.85L256.31 307.14C256.97 307.68 257.45 308.58 257.74 309.62C258 310.64 258.16 311.95 258.29 313.16C258.55 315.62 258.67 318.12 258.64 320.58C258.59 323.04 258.41 325.52 257.81 327.77C257.52 328.88 257.08 329.95 256.5 330.62C255.91 331.26 255.38 331.42 254.51 331.14C253.67 330.96 252.96 330.21 252.31 329.4C251.72 328.49 251.18 327.48 250.8 326.34C250 324.11 249.52 321.68 249.2 319.24C249.05 318.01 248.93 316.78 248.85 315.55L248.8 314.63L248.78 314.18C248.78 313.89 248.75 313.76 248.74 313.6L248.54 311.69C247.96 306.61 247.19 301.56 246.12 296.53C245.58 294.02 244.96 291.52 244.16 289.04C243.35 286.57 242.44 284.09 240.87 281.75C240.05 280.62 239.05 279.4 237.35 278.76C236.92 278.64 236.46 278.54 236.01 278.51C235.57 278.54 235.07 278.52 234.68 278.66C233.87 278.85 233.07 279.27 232.43 279.82C231.12 280.94 230.54 282.42 230.15 283.77C229.78 285.15 229.63 286.5 229.57 287.84C229.41 293.18 230.36 298.26 231.48 303.28C231.77 304.53 232.09 305.78 232.43 307.02C232.79 308.26 233.08 309.49 233.71 310.86C234.01 311.53 234.43 312.19 235.01 312.81C235.58 313.4 236.43 314.06 237.67 314.07C238.27 314.1 238.89 313.86 239.38 313.53C239.85 313.18 240.2 312.73 240.41 312.28C240.81 311.35 240.98 310.56 240.76 309.5C240.34 307.91 239.72 306.85 239.1 305.66C238.47 304.5 237.8 303.4 237.1 302.31C235.71 300.13 234.2 298.04 232.62 296C231.02 293.98 229.34 292 227.46 290.17C225.56 288.36 223.61 286.55 220.81 285.45C220.11 285.19 219.29 285.01 218.4 285.05C217.5 285.13 216.55 285.38 215.81 286.11C215.39 286.43 215.19 286.87 214.92 287.27C214.76 287.67 214.58 288.1 214.51 288.49C214.35 289.29 214.32 290.03 214.35 290.75C214.52 293.59 215.34 296.07 216.16 298.54C217.91 303.43 220.11 308.05 222.43 312.6C223.6 314.87 224.81 317.12 226.06 319.35L226.8 320.66L227.26 321.46C227.39 321.69 227.68 321.77 227.91 321.64L229.53 320.68C229.75 320.55 229.83 320.27 229.7 320.05L229.25 319.27L228.52 317.98C227.29 315.78 226.09 313.56 224.94 311.32C222.65 306.84 220.49 302.28 218.82 297.61C218.03 295.29 217.28 292.88 217.16 290.63C217.07 288.18 217.79 287.41 219.86 288.11C221.81 288.86 223.76 290.5 225.48 292.19C227.23 293.9 228.85 295.8 230.4 297.75C231.93 299.71 233.39 301.74 234.73 303.84C235.4 304.89 236.04 305.95 236.62 307.02C237.18 308.06 237.79 309.25 238 310.13C238.09 310.3 238 310.83 237.88 311.04C237.74 311.3 237.69 311.27 237.66 311.27C237.49 311.38 236.62 310.62 236.24 309.66C235.8 308.73 235.47 307.48 235.13 306.29C234.8 305.09 234.5 303.87 234.21 302.66C233.11 297.8 232.22 292.81 232.37 287.98C232.47 285.65 232.94 283.11 234.26 281.97C234.9 281.44 235.8 281.18 236.43 281.44C237.14 281.69 237.92 282.46 238.55 283.37C239.82 285.26 240.72 287.58 241.47 289.92C242.23 292.27 242.83 294.7 243.36 297.14C244.41 302.04 245.16 307.03 245.74 312.02L245.94 313.89C245.95 314.04 245.98 314.23 245.97 314.26L245.99 314.76L246.04 315.74C246.12 317.04 246.24 318.33 246.4 319.62C246.74 322.2 247.23 324.78 248.14 327.33C248.57 328.6 249.21 329.86 250.01 331.06C250.91 332.2 252.03 333.42 253.72 333.87C254.49 334.14 255.43 334.2 256.35 333.96C257.27 333.7 258.07 333.14 258.6 332.51C259.68 331.24 260.15 329.86 260.52 328.54C261.22 325.88 261.39 323.26 261.44 320.65C261.47 318.05 261.35 315.46 261.07 312.88C260.92 311.57 260.8 310.35 260.44 308.91C260.05 307.53 259.37 306.04 258.04 304.96C257.88 304.82 257.69 304.72 257.52 304.6L257.35 304.5L257.29 304.46L257.16 304.38C257.07 304.33 256.98 304.3 256.88 304.26C256.51 304.1 256.14 303.95 255.75 303.88C255.42 303.79 255.12 303.97 255.1 304.23L255.11 304.2Z" fill="#200020"/>
<path d="M265.38 332.14C261.46 332.14 258.39 328.4 258.25 328.24L260.47 326.44C261.2 327.33 263.6 329.6 265.84 329.25C266.32 329.18 266.88 328.44 267.32 327.27C269.32 322.06 268.62 311.14 266.1 308.11C265.13 306.94 264.12 306.35 263.11 306.35C263.1 306.35 263.09 306.35 263.08 306.35C261.16 306.37 259.55 308.38 259.54 308.4L257.29 306.64C257.39 306.51 259.73 303.55 263.02 303.49C264.94 303.42 266.73 304.39 268.3 306.27C271.74 310.4 272.19 322.56 270 328.28C269.13 330.56 267.87 331.83 266.26 332.07C265.96 332.11 265.67 332.13 265.39 332.13L265.38 332.14Z" fill="#200020"/>
<path d="M256.11 350.98C255.36 350.98 254.57 350.87 253.77 350.64C251.02 349.87 250.86 348.17 250.92 347.47C251.09 345.35 253.75 343.81 256.21 343.55C258 343.36 259.63 343.74 260.98 344.62C263.48 340.38 264.45 333.45 264.61 330.58L267.46 330.75C267.43 331.24 266.82 340.9 263.06 346.67C263.64 347.5 264.12 348.49 264.46 349.62L261.73 350.46C261.56 349.9 261.35 349.4 261.13 348.98C260.88 349.2 260.63 349.41 260.37 349.6C259.07 350.53 257.64 350.99 256.11 350.99V350.98ZM253.83 347.61C253.95 347.69 254.18 347.8 254.54 347.9C256.14 348.35 257.5 348.14 258.72 347.27C258.88 347.15 259.04 347.03 259.2 346.89C258.48 346.49 257.73 346.37 257.07 346.37H257.05C255.36 346.37 254.15 347.19 253.83 347.61Z" fill="#200020"/>
<path d="M211.27 315.78C210.57 315.78 209.95 315.26 209.86 314.54C208.82 306.73 213.08 303.43 213.26 303.3C213.89 302.83 214.79 302.96 215.26 303.58C215.73 304.21 215.61 305.09 214.99 305.57C214.85 305.68 211.88 308.11 212.69 314.16C212.79 314.94 212.25 315.66 211.46 315.76C211.4 315.76 211.33 315.77 211.27 315.77V315.78Z" fill="#DA0081"/>
<path d="M129.719 327.777L129.219 329.93C129.16 330.183 129.317 330.435 129.57 330.494L131.392 330.918C131.644 330.976 131.897 330.819 131.956 330.566L132.456 328.414C132.515 328.161 132.358 327.908 132.105 327.85L130.284 327.426C130.031 327.367 129.778 327.525 129.719 327.777Z" fill="#5A9EFB"/>
<path d="M130.64 325.92L132.47 326.35C132.72 326.41 132.97 326.25 133.03 326L135.73 314.39L137.95 304.83L139.06 300.05L139.15 299.67L140.81 300.06L159.92 304.5L198.14 313.39L207.7 315.61L212.45 316.72C213.73 317.03 214.88 317.81 215.68 318.86C216.48 319.92 216.88 321.24 216.84 322.55C216.82 322.88 216.79 323.21 216.72 323.53L216.46 324.7L215.9 327.09L213.67 336.65L204.77 374.87L204.21 377.26C204.02 378.05 203.85 378.91 203.64 379.46C203.2 380.7 202.29 381.75 201.16 382.43C200.03 383.12 198.66 383.36 197.37 383.18L196.88 383.09L196.28 382.95L195.09 382.67L192.7 382.11L183.14 379.89C179.83 379.05 176.4 378.85 173.02 378.99C166.28 379.27 159.29 381.58 154.3 386.52C153.65 387.1 153.15 387.81 152.57 388.45L151.73 389.44L151.66 389.55L151.53 389.75L151.47 389.32C151.4 388.94 151.39 388.56 151.35 388.18C151.28 387.42 151.26 386.64 151.28 385.87C151.28 384.32 151.51 382.78 151.79 381.26C152.4 378.21 153.54 375.26 155.06 372.5L155.95 371L156.4 370.25C156.53 370.04 156.46 369.75 156.24 369.61L154.67 368.58C154.45 368.44 154.17 368.51 154.03 368.74L153.54 369.55L152.59 371.16C150.96 374.13 149.71 377.35 149.03 380.72C148.72 382.41 148.47 384.11 148.47 385.84C148.45 386.7 148.47 387.57 148.55 388.43C148.6 388.86 148.61 389.29 148.69 389.72L148.81 390.5C148.87 390.9 148.97 391.28 149.07 391.66C149.4 393.29 149.96 394.4 150.44 395.69L150.54 395.94C150.54 395.94 150.64 395.82 150.69 395.76L150.99 395.34L151.59 394.5L152.8 392.82L154.01 391.14L154.76 390.26C155.28 389.69 155.72 389.05 156.29 388.54C160.69 384.2 166.91 382.08 173.17 381.82C176.31 381.69 179.48 381.88 182.52 382.65L192.07 384.87L194.46 385.43L195.65 385.71L196.25 385.85L196.97 385.98C198.9 386.26 200.94 385.88 202.61 384.86C204.28 383.86 205.63 382.29 206.29 380.44C206.63 379.46 206.76 378.69 206.96 377.9L207.52 375.51L216.42 337.29L218.65 327.74L219.21 325.35L219.49 324.12C219.59 323.64 219.65 323.16 219.67 322.67C219.74 320.71 219.12 318.74 217.95 317.18C216.78 315.62 215.06 314.47 213.16 314L208.36 312.88L198.8 310.66L160.58 301.77L141.47 297.33L138.35 296.6L137.16 296.32C137.02 296.24 137.07 296.45 137.03 296.52L136.96 296.82L136.82 297.42L136.35 299.43L135.24 304.21L133.02 313.77L130.32 325.38C130.26 325.63 130.42 325.88 130.67 325.94L130.64 325.92Z" fill="#5A9EFB"/>
<path d="M138.6 298.9C138.39 298.9 138.17 298.85 137.98 298.76C131.02 295.38 130.24 292.53 130.82 290.73C131.36 289.07 133.27 288.12 135.36 288.48C139.32 289.17 139.94 296.02 140.02 297.39C140.05 297.9 139.81 298.38 139.39 298.66C139.15 298.82 138.88 298.9 138.6 298.9ZM134.5 291.26C133.97 291.26 133.58 291.46 133.54 291.61C133.46 291.86 133.9 293.09 136.79 294.87C136.36 293 135.66 291.43 134.88 291.3C134.75 291.28 134.62 291.27 134.51 291.27L134.5 291.26Z" fill="#5A9EFB"/>
<path d="M0.169974 442.44L-0.0400251 444.3C-0.0700251 444.56 0.099976 444.8 0.339976 444.83L1.10998 444.94L1.49998 445L1.91997 445.06C2.10997 445.09 2.30998 445.11 2.48998 445.18C3.97998 445.65 5.50998 445.97 6.92998 446.68C9.84998 447.85 12.54 449.62 15.07 451.56C20.1 455.51 24.45 460.43 28.07 465.76L28.76 466.81C28.9 467.02 29.17 467.07 29.39 466.94L31 465.98C31.22 465.85 31.28 465.54 31.14 465.31L30.41 464.19C26.63 458.62 22.14 453.54 16.8 449.34C14.11 447.28 11.24 445.38 8.02997 444.09C6.47997 443.33 4.77997 442.94 3.11997 442.44C2.90997 442.37 2.69998 442.34 2.47998 442.31L2.00997 442.24L1.57998 442.18L0.709975 442.05C0.439975 442.01 0.189974 442.19 0.169974 442.44Z" fill="#200020"/>
<path d="M264.5 404.09C264.52 404.2 264.56 404.3 264.56 404.42C264.56 405.29 264.52 406.17 264.57 407.04C267.96 408 270.46 411.13 270.46 414.82C270.46 415.33 270.41 415.84 270.31 416.32C270.86 416.09 271.52 416.14 271.92 416.63C272.28 417.07 272.57 417.62 272.77 418.21C273.12 417.14 273.31 416 273.31 414.82C273.31 409.51 269.52 405.08 264.5 404.08V404.09Z" fill="#200020"/>
<path d="M265.05 409.7C265.2 410.88 265.09 412.03 264.78 413.17C265.11 413.64 265.3 414.22 265.3 414.84C265.3 415.67 264.95 416.41 264.4 416.95C264.53 417.06 264.64 417.18 264.73 417.34C264.94 417.71 265.12 418.09 265.27 418.48C265.87 418.37 266.47 418.27 267.07 418.2C267.75 417.25 268.15 416.09 268.15 414.84C268.15 412.61 266.89 410.68 265.04 409.71L265.05 409.7Z" fill="#200020"/>
<path d="M262.29 410.46C262.29 407.26 259.69 404.66 256.49 404.66C253.29 404.66 250.69 407.26 250.69 410.46C250.69 413.66 253.29 416.26 256.49 416.26C259.69 416.26 262.29 413.66 262.29 410.46ZM256.49 413.41C254.86 413.41 253.54 412.09 253.54 410.46C253.54 408.83 254.86 407.51 256.49 407.51C258.12 407.51 259.44 408.83 259.44 410.46C259.44 412.09 258.12 413.41 256.49 413.41Z" fill="#200020"/>
<path d="M249.06 416.49C249.78 417.54 250.42 418.71 251.76 417.95C252.01 417.81 252.25 417.65 252.49 417.5C250.04 416.11 248.38 413.48 248.38 410.46C248.38 405.99 252.01 402.36 256.48 402.36C260.95 402.36 264.58 405.99 264.58 410.46C264.58 413.77 262.58 416.63 259.72 417.88C260.75 417.76 261.92 417.17 262.68 416.8C263.4 416.46 264.32 416.59 264.73 417.34C264.77 417.41 264.79 417.47 264.82 417.54C266.44 415.63 267.43 413.16 267.43 410.46C267.43 404.42 262.52 399.51 256.48 399.51C250.44 399.51 245.53 404.42 245.53 410.46C245.53 412.46 246.08 414.34 247.02 415.95C247.72 415.55 248.59 415.81 249.06 416.49Z" fill="#200020"/>
<path d="M247.42 411.99C247.38 411.88 247.32 411.77 247.28 411.66C246.97 410.84 246.87 409.99 246.92 409.16C244.39 409.81 242.52 412.11 242.52 414.83C242.52 415.49 242.63 416.12 242.83 416.71C243.19 416.7 243.54 416.69 243.91 416.64C244.56 416.56 245.34 416.46 245.99 416.64C245.61 416.14 245.37 415.51 245.37 414.83C245.37 413.51 246.23 412.4 247.42 411.99Z" fill="#200020"/>
<path d="M247.57 406.63C248.05 405.57 248.76 404.6 249.61 403.8C249.21 403.76 248.81 403.73 248.4 403.73C242.28 403.73 237.31 408.71 237.31 414.82C237.31 415.57 237.39 416.3 237.53 417C237.77 416.68 238.15 416.47 238.68 416.5C239.25 416.53 239.81 416.58 240.37 416.62C240.24 416.04 240.17 415.44 240.17 414.82C240.17 410.56 243.43 407.04 247.58 406.62L247.57 406.63Z" fill="#200020"/>
<path d="M267.32 464.24H243.3C239.43 464.24 236.28 461.09 236.28 457.22V415.23C236.28 414.44 236.92 413.8 237.71 413.8C239.28 413.8 240.76 414.41 241.87 415.52L243.36 417.01L246.15 414.22C246.42 413.95 246.78 413.8 247.16 413.8H247.47C247.85 413.8 248.21 413.95 248.48 414.22L251.27 417.01L254.06 414.22C254.33 413.95 254.69 413.8 255.07 413.8H255.38C255.76 413.8 256.12 413.95 256.39 414.22L259.18 417.01L261.97 414.22C262.24 413.95 262.6 413.8 262.98 413.8H263.29C263.67 413.8 264.03 413.95 264.3 414.22L267.09 417.01L268.58 415.52C269.69 414.41 271.16 413.8 272.74 413.8C273.53 413.8 274.36 414.44 274.36 415.23V457.22C274.36 461.09 271.21 464.24 267.34 464.24H267.32ZM239.13 417.02V457.22C239.13 459.52 241 461.39 243.3 461.39H267.32C269.62 461.39 271.49 459.52 271.49 457.22V416.93C271.15 417.08 270.85 417.28 270.59 417.54L268.09 420.04C267.53 420.6 266.63 420.6 266.07 420.04L263.12 417.09L260.17 420.04C259.61 420.6 258.71 420.6 258.15 420.04L255.2 417.09L252.25 420.04C251.69 420.6 250.79 420.6 250.23 420.04L247.28 417.09L244.33 420.04C243.77 420.6 242.87 420.6 242.31 420.04L239.81 417.54C239.6 417.33 239.36 417.15 239.1 417.01L239.13 417.02Z" fill="#DA0081"/>
<path d="M308.5 404.09C308.52 404.2 308.56 404.3 308.56 404.42C308.56 405.29 308.52 406.17 308.57 407.04C311.96 408 314.46 411.13 314.46 414.82C314.46 415.33 314.41 415.84 314.31 416.32C314.86 416.09 315.52 416.14 315.92 416.63C316.28 417.07 316.57 417.62 316.77 418.21C317.12 417.14 317.31 416 317.31 414.82C317.31 409.51 313.52 405.08 308.5 404.08V404.09Z" fill="#200020"/>
<path d="M309.05 409.7C309.2 410.88 309.09 412.03 308.78 413.17C309.11 413.64 309.3 414.22 309.3 414.84C309.3 415.67 308.95 416.41 308.4 416.95C308.53 417.06 308.64 417.18 308.73 417.34C308.94 417.71 309.12 418.09 309.27 418.48C309.87 418.37 310.47 418.27 311.07 418.2C311.75 417.25 312.15 416.09 312.15 414.84C312.15 412.61 310.89 410.68 309.04 409.71L309.05 409.7Z" fill="#200020"/>
<path d="M306.29 410.46C306.29 407.26 303.69 404.66 300.49 404.66C297.29 404.66 294.69 407.26 294.69 410.46C294.69 413.66 297.29 416.26 300.49 416.26C303.69 416.26 306.29 413.66 306.29 410.46ZM300.49 413.41C298.86 413.41 297.54 412.09 297.54 410.46C297.54 408.83 298.86 407.51 300.49 407.51C302.12 407.51 303.44 408.83 303.44 410.46C303.44 412.09 302.12 413.41 300.49 413.41Z" fill="#200020"/>
<path d="M293.06 416.49C293.78 417.54 294.42 418.71 295.76 417.95C296.01 417.81 296.25 417.65 296.49 417.5C294.04 416.11 292.38 413.48 292.38 410.46C292.38 405.99 296.01 402.36 300.48 402.36C304.95 402.36 308.58 405.99 308.58 410.46C308.58 413.77 306.58 416.63 303.72 417.88C304.75 417.76 305.92 417.17 306.68 416.8C307.4 416.46 308.32 416.59 308.73 417.34C308.77 417.41 308.79 417.47 308.82 417.54C310.44 415.63 311.43 413.16 311.43 410.46C311.43 404.42 306.52 399.51 300.48 399.51C294.44 399.51 289.53 404.42 289.53 410.46C289.53 412.46 290.08 414.34 291.02 415.95C291.72 415.55 292.59 415.81 293.06 416.49Z" fill="#200020"/>
<path d="M291.42 411.99C291.38 411.88 291.32 411.77 291.28 411.66C290.97 410.84 290.87 409.99 290.92 409.16C288.39 409.81 286.52 412.11 286.52 414.83C286.52 415.49 286.63 416.12 286.83 416.71C287.19 416.7 287.54 416.69 287.91 416.64C288.56 416.56 289.34 416.46 289.99 416.64C289.61 416.14 289.37 415.51 289.37 414.83C289.37 413.51 290.23 412.4 291.42 411.99Z" fill="#200020"/>
<path d="M291.57 406.63C292.05 405.57 292.76 404.6 293.61 403.8C293.21 403.76 292.81 403.73 292.4 403.73C286.28 403.73 281.31 408.71 281.31 414.82C281.31 415.57 281.39 416.3 281.53 417C281.77 416.68 282.15 416.47 282.68 416.5C283.25 416.53 283.81 416.58 284.37 416.62C284.24 416.04 284.17 415.44 284.17 414.82C284.17 410.56 287.43 407.04 291.58 406.62L291.57 406.63Z" fill="#200020"/>
<path d="M311.32 464.24H287.3C283.43 464.24 280.28 461.09 280.28 457.22V415.23C280.28 414.44 280.92 413.8 281.71 413.8C283.28 413.8 284.76 414.41 285.87 415.52L287.36 417.01L290.15 414.22C290.42 413.95 290.78 413.8 291.16 413.8H291.47C291.85 413.8 292.21 413.95 292.48 414.22L295.27 417.01L298.06 414.22C298.33 413.95 298.69 413.8 299.07 413.8H299.38C299.76 413.8 300.12 413.95 300.39 414.22L303.18 417.01L305.97 414.22C306.24 413.95 306.6 413.8 306.98 413.8H307.29C307.67 413.8 308.03 413.95 308.3 414.22L311.09 417.01L312.58 415.52C313.69 414.41 315.16 413.8 316.74 413.8C317.53 413.8 318.36 414.44 318.36 415.23V457.22C318.36 461.09 315.21 464.24 311.34 464.24H311.32ZM283.13 417.02V457.22C283.13 459.52 285 461.39 287.3 461.39H311.32C313.62 461.39 315.49 459.52 315.49 457.22V416.93C315.15 417.08 314.85 417.28 314.59 417.54L312.09 420.04C311.53 420.6 310.63 420.6 310.07 420.04L307.12 417.09L304.17 420.04C303.61 420.6 302.71 420.6 302.15 420.04L299.2 417.09L296.25 420.04C295.69 420.6 294.79 420.6 294.23 420.04L291.28 417.09L288.33 420.04C287.77 420.6 286.87 420.6 286.31 420.04L283.81 417.54C283.6 417.33 283.36 417.15 283.1 417.01L283.13 417.02Z" fill="#DA0081"/>
<path d="M351.07 404C351.55 405.04 351.94 406.11 352.21 407.2C355.36 408.31 357.63 411.31 357.63 414.83C357.63 415.49 357.54 416.12 357.39 416.73C357.43 416.69 357.47 416.67 357.51 416.63C358.09 416.03 359.04 416.09 359.63 416.63C359.85 416.83 360.03 417.05 360.19 417.28C360.37 416.49 360.48 415.67 360.48 414.82C360.48 409.31 356.38 404.74 351.07 403.99V404Z" fill="#200020"/>
<path d="M352.61 409.93C352.64 410.65 352.61 411.37 352.51 412.1C352.44 412.61 352.33 413.11 352.2 413.6C352.37 413.98 352.48 414.39 352.48 414.83C352.48 415.27 352.38 415.68 352.2 416.06C352.44 416.13 352.66 416.23 352.81 416.42C353.3 417.01 353.96 417.37 354.67 417.51C355.09 416.71 355.33 415.8 355.33 414.84C355.33 412.77 354.24 410.96 352.61 409.93Z" fill="#200020"/>
<path d="M336.09 416.71C337.08 417.55 337.87 418.21 339.23 417.7C339.39 417.64 339.54 417.57 339.69 417.51C337.23 416.12 335.56 413.48 335.56 410.46C335.56 405.99 339.19 402.36 343.66 402.36C348.13 402.36 351.76 405.99 351.76 410.46C351.76 413.73 349.82 416.54 347.03 417.82C348.36 417.82 349.93 416.81 351 416.19C351.54 415.88 352.4 415.92 352.82 416.42C352.82 416.42 352.82 416.42 352.83 416.43C353.95 414.71 354.61 412.66 354.61 410.46C354.61 404.42 349.7 399.51 343.66 399.51C337.62 399.51 332.71 404.42 332.71 410.46C332.71 412.66 333.37 414.71 334.49 416.43C334.99 416.23 335.59 416.29 336.1 416.72L336.09 416.71Z" fill="#200020"/>
<path d="M349.46 410.46C349.46 407.26 346.86 404.66 343.66 404.66C340.46 404.66 337.86 407.26 337.86 410.46C337.86 413.66 340.46 416.26 343.66 416.26C346.86 416.26 349.46 413.66 349.46 410.46ZM343.66 413.41C342.03 413.41 340.71 412.09 340.71 410.46C340.71 408.83 342.03 407.51 343.66 407.51C345.29 407.51 346.61 408.83 346.61 410.46C346.61 412.09 345.29 413.41 343.66 413.41Z" fill="#200020"/>
<path d="M334.29 406.7C334.66 405.59 335.26 404.58 336.12 403.77C335.93 403.77 335.75 403.74 335.56 403.74C329.44 403.74 324.46 408.72 324.46 414.83C324.46 415.68 324.56 416.5 324.74 417.29C324.97 416.38 325.89 415.69 326.83 416.4C327.08 416.59 327.33 416.76 327.59 416.93C327.41 416.26 327.31 415.56 327.31 414.83C327.31 410.72 330.34 407.31 334.28 406.7H334.29Z" fill="#200020"/>
<path d="M332.55 414.83C332.55 413.66 333.23 412.66 334.2 412.16C334.15 411.98 334.1 411.81 334.06 411.63C333.89 410.85 333.81 410.04 333.84 409.23C331.44 409.97 329.7 412.2 329.7 414.84C329.7 415.97 330.02 417.01 330.58 417.91C330.67 417.91 330.75 417.92 330.84 417.91C331.4 417.9 331.96 417.79 332.51 417.67C332.77 417.62 333.05 417.51 333.31 417.47C333.5 417.45 333.58 417.39 333.62 417.36C333.64 417.29 333.68 417.24 333.7 417.18C333.01 416.63 332.55 415.79 332.55 414.83Z" fill="#200020"/>
<path d="M354.49 464.24H330.47C326.6 464.24 323.45 461.09 323.45 457.22V415.23C323.45 414.44 324.09 413.8 324.88 413.8C326.45 413.8 327.93 414.41 329.04 415.52L330.53 417.01L333.32 414.22C333.59 413.95 333.95 413.8 334.33 413.8H334.64C335.02 413.8 335.38 413.95 335.65 414.22L338.44 417.01L341.23 414.22C341.5 413.95 341.86 413.8 342.24 413.8H342.55C342.93 413.8 343.29 413.95 343.56 414.22L346.35 417.01L349.14 414.22C349.41 413.95 349.77 413.8 350.15 413.8H350.46C350.84 413.8 351.2 413.95 351.47 414.22L354.26 417.01L355.75 415.52C356.86 414.41 358.33 413.8 359.91 413.8H360.1C360.89 413.8 361.53 414.44 361.53 415.23V420.77C361.53 421.56 360.89 422.2 360.1 422.2C359.31 422.2 358.67 421.56 358.67 420.77V416.92C358.34 417.07 358.03 417.28 357.77 417.54L355.27 420.04C354.73 420.57 353.79 420.58 353.25 420.04L350.3 417.09L347.35 420.04C346.79 420.6 345.89 420.6 345.33 420.04L342.38 417.09L339.43 420.04C338.87 420.6 337.97 420.6 337.41 420.04L334.46 417.09L331.51 420.04C330.95 420.6 330.05 420.6 329.49 420.04L326.99 417.54C326.78 417.33 326.54 417.15 326.28 417.01V457.21C326.28 459.51 328.15 461.38 330.45 461.38H354.47C356.77 461.38 358.64 459.51 358.64 457.21V456.74C358.64 455.95 359.28 455.31 360.07 455.31C360.86 455.31 361.5 455.95 361.5 456.74V457.21C361.5 461.08 358.35 464.23 354.48 464.23L354.49 464.24Z" fill="#DA0081"/>
<path d="M178.83 279.35C173.86 279.35 168.89 277.81 164.76 274.79C157.25 269.3 153.13 263.01 152.2 255.56C149.65 255.51 146.88 253.28 144.48 249.27C140.98 243.41 139.37 235.5 143.28 232.4C145.11 230.94 146.95 230.45 148.73 230.92C149.68 231.17 150.5 231.69 151.2 232.31C151.17 231.7 151.14 231.07 151.12 230.44C150.96 226.93 150.81 223.61 150.83 222.69L153.68 222.77C153.66 223.58 153.82 227.15 153.96 230.31C154.1 233.39 154.23 236.29 154.23 237.27C154.23 237.95 153.74 238.54 153.07 238.67C152.39 238.79 151.73 238.43 151.48 237.79C150.83 236.15 149.53 234.08 148 233.67C147.12 233.43 146.16 233.75 145.06 234.62C142.9 236.34 143.77 242.5 146.93 247.8C148.98 251.24 151.44 253.21 152.9 252.58C153.32 252.4 153.8 252.43 154.19 252.66C154.58 252.89 154.84 253.3 154.88 253.75L154.96 254.55C155.63 261.46 159.39 267.33 166.45 272.48C172.74 277.07 181.25 277.79 188.11 274.3L189.36 273.66C196.68 269.95 201.07 265.32 203.16 259.08L203.49 258.04C203.64 257.58 204.01 257.22 204.48 257.09C204.95 256.96 205.45 257.09 205.81 257.41C207.16 258.63 209.72 257 211.66 255.07C215.84 250.9 219.03 243.68 216.8 241.21C215.88 240.19 214.98 239.7 214.12 239.78C212.91 239.86 211.43 241 210.18 242.83C209.8 243.39 209.07 243.6 208.46 243.34C207.84 243.08 207.48 242.42 207.6 241.76C207.71 241.16 207.93 240.36 208.19 239.43C208.83 237.11 209.7 233.93 209.7 230.78H212.55C212.55 233.21 212.11 235.57 211.62 237.61C212.33 237.24 213.1 236.98 213.94 236.93C215.73 236.82 217.41 237.6 218.93 239.29C222.77 243.55 218.27 252.51 213.69 257.08C210.8 259.96 207.95 261.16 205.69 260.52C203.27 267.25 198.49 272.23 190.67 276.19L189.43 276.83C186.13 278.51 182.49 279.33 178.85 279.33L178.83 279.35Z" fill="#200020"/>
<path d="M195.09 246.2C196.51 246.33 197.79 245.1 197.94 243.44C198.09 241.78 197.07 240.33 195.65 240.2C194.23 240.07 192.95 241.3 192.8 242.96C192.65 244.62 193.67 246.07 195.09 246.2Z" fill="#200020"/>
<path d="M186.46 258.26L188.24 258.84C188.48 258.93 188.6 259.25 188.49 259.52C188.32 259.94 188.14 260.33 187.94 260.72C187.06 262.41 185.86 264 184.21 265.21C182.55 266.39 180.37 266.99 178.34 266.8C176.38 266.66 174.32 265.89 172.78 264.48C171.22 263.09 170.29 261.21 169.78 259.34C169.66 258.87 169.56 258.39 169.49 257.9C169.45 257.61 169.64 257.31 169.9 257.29L171.77 257.19C172.03 257.17 172.25 257.29 172.28 257.52C172.33 257.88 172.41 258.26 172.5 258.63C172.9 260.09 173.6 261.47 174.66 262.4C175.7 263.34 177.06 263.89 178.57 264.01C180.02 264.13 181.38 263.75 182.57 262.93C183.74 262.08 184.72 260.84 185.43 259.45C185.59 259.13 185.75 258.81 185.88 258.49C185.97 258.28 186.21 258.2 186.46 258.29V258.26Z" fill="#2B0D2B"/>
<path d="M97.2401 311.05C96.5901 311.05 96.0001 310.6 95.8501 309.94C95.6801 309.17 96.1601 308.41 96.9301 308.23C127.06 301.39 129.64 274.42 129.74 273.28C129.81 272.5 130.47 271.92 131.28 271.98C132.06 272.05 132.65 272.73 132.59 273.52C132.56 273.82 129.78 303.71 97.5701 311.02C97.4601 311.04 97.3601 311.06 97.2501 311.06L97.2401 311.05Z" fill="#DA0081"/>
<path d="M155.15 298.42C154.52 298.42 153.9 298.23 153.38 297.85C152.55 297.24 151.34 295.68 152.48 292.06C152.61 291.66 152.74 291.21 152.89 290.73C150.92 288.94 148.04 287.05 144.6 284.78C137.74 280.26 128.33 274.07 118.78 263.79C93.2099 236.29 85.5199 178.93 100.47 127.38L117.29 85.94C116.25 85.12 114.11 83.78 111.64 84.13C108.79 84.54 106.14 87.03 103.77 91.55C96.8299 104.76 93.6499 110.25 93.6199 110.31L91.1499 108.88C91.1799 108.83 94.3399 103.37 101.24 90.23C104.07 84.84 107.44 81.84 111.27 81.3C116.21 80.61 119.87 84.39 120.03 84.55C120.41 84.96 120.53 85.55 120.32 86.07L103.17 128.3C88.5199 178.8 95.9499 235.02 120.87 261.83C130.19 271.85 139.43 277.94 146.17 282.38C149.15 284.35 151.75 286.06 153.79 287.73C156.03 280.27 159.23 269.1 159.27 268.96L162.01 269.74C161.97 269.89 158.35 282.5 156.11 289.9C157.2 291.11 157.97 292.35 158.34 293.71C158.79 295.35 158.27 296.92 156.98 297.81C156.41 298.2 155.76 298.39 155.13 298.39L155.15 298.42ZM155.1 293.29C154.68 294.85 154.97 295.47 155.09 295.55C155.13 295.58 155.26 295.57 155.39 295.48C155.55 295.37 155.78 295.1 155.61 294.49C155.5 294.09 155.33 293.69 155.1 293.29Z" fill="#200020"/>
<path d="M77.8558 45.7445L78.893 43.793C79.015 43.5634 79.299 43.4766 79.5286 43.5986L81.1887 44.4809C81.4183 44.6029 81.5052 44.8869 81.3832 45.1165L80.346 47.068C80.224 47.2976 79.94 47.3845 79.7104 47.2624L78.0503 46.3801C77.8207 46.2581 77.7338 45.9741 77.8558 45.7445Z" fill="#DA0081"/>
<path d="M80.27 42.19L81.93 43.07C82.16 43.19 82.44 43.1 82.57 42.88L83 42.07L83.43 41.26L84.18 39.86L84.36 39.52C84.4 39.46 84.43 39.38 84.48 39.32C84.57 39.2 84.67 39.08 84.78 38.98C85.23 38.57 85.9 38.41 86.49 38.56C86.64 38.59 86.78 38.65 86.92 38.72L87.61 39.08L89.02 39.82L91.83 41.3L97.45 44.25L108.69 50.16L114.31 53.11L117.12 54.59C117.33 54.7 117.65 54.86 117.77 54.94C117.91 55.01 118.02 55.11 118.14 55.21C118.36 55.42 118.52 55.69 118.62 55.98C118.73 56.27 118.74 56.58 118.7 56.88C118.64 57.22 118.58 57.35 118.28 57.91L116.8 60.72L113.85 66.34L102.03 88.83L90.21 111.32L84.36 122.41C84.02 122.92 83.42 123.23 82.81 123.24C82.5 123.24 82.2 123.17 81.93 123.03L80.55 122.31L74.93 119.36L52.44 107.54L51.08 106.82C50.81 106.67 50.58 106.46 50.42 106.2C50.08 105.68 50.02 105.01 50.25 104.45L50.79 103.45L51.23 102.66C51.36 102.44 51.27 102.15 51.05 102.02L49.41 101.1C49.18 100.97 48.9 101.05 48.77 101.28L48.32 102.08L48.21 102.28L48.15 102.38L48.06 102.53C47.94 102.74 47.8 102.98 47.62 103.39C47.05 104.8 47.22 106.46 48.04 107.72C48.45 108.36 49.02 108.88 49.67 109.26L51.11 110.03L73.6 121.85L79.22 124.8L80.65 125.55C81.32 125.88 82.08 126.06 82.83 126.05C84.34 126.03 85.81 125.25 86.66 123.99C86.77 123.84 86.86 123.67 86.95 123.51L87.13 123.16L87.5 122.46L88.24 121.05L89.72 118.24L92.67 112.62L104.49 90.13L116.31 67.64L119.26 62.02L120.74 59.21C120.95 58.84 121.38 58.01 121.45 57.29C121.56 56.54 121.5 55.77 121.25 55.06C121.01 54.35 120.6 53.69 120.05 53.17C119.78 52.91 119.48 52.67 119.15 52.49C118.82 52.29 118.65 52.22 118.4 52.08L115.59 50.6L109.97 47.65L98.73 41.74L93.11 38.79L90.3 37.31L88.89 36.57L88.17 36.2C87.83 36.04 87.48 35.89 87.11 35.81C85.64 35.45 84.02 35.85 82.89 36.86C82.6 37.11 82.35 37.39 82.14 37.7C82.03 37.85 81.94 38.02 81.85 38.18L81.66 38.54L80.91 39.94L80.48 40.75L80.05 41.55C79.93 41.78 80.02 42.06 80.24 42.18L80.27 42.19Z" fill="#DA0081"/>
<path d="M72.8101 63.5201C72.5001 63.5201 72.1901 63.5201 71.8801 63.4901L72.0401 60.6401C77.1101 60.9401 79.4801 58.4201 80.2901 57.3201C81.3901 55.8201 81.5801 54.3301 81.2701 53.5101C80.9601 52.8501 78.0201 51.1601 73.2601 50.1901C68.3801 49.1901 62.0501 49.1101 58.9301 51.9101C53.4801 56.7901 56.6201 61.4701 56.7601 61.6701L54.4101 63.3001C52.7501 60.9101 51.1701 55.0201 57.0201 49.7801C61.2501 45.9901 69.1701 46.2201 75.1601 47.7001C76.9601 48.1401 82.9101 49.8001 83.9301 52.5101C84.6501 54.4101 84.1301 56.9101 82.5801 59.0101C80.4501 61.9001 76.9201 63.5101 72.8001 63.5101L72.8101 63.5201Z" fill="#200020"/>
<path d="M68.4399 77.32C68.1099 77.32 67.7699 77.31 67.4299 77.29L67.5899 74.44C73.1599 74.76 75.8499 71.97 76.7399 70.75C77.9799 69.07 78.1799 67.38 77.8299 66.45C77.5799 65.82 74.8899 64.09 69.8299 62.92C64.1499 61.61 56.7999 61.37 53.1399 64.64C47.0799 70.07 50.5899 75.29 50.7399 75.51L48.3899 77.14C48.3399 77.07 43.3099 69.6 51.2299 62.51C55.8199 58.39 64.4499 58.65 70.9899 60.26C72.9399 60.74 79.3999 62.53 80.4899 65.45C81.2599 67.49 80.6899 70.17 79.0199 72.44C76.7199 75.57 72.8899 77.32 68.4199 77.32H68.4399Z" fill="#200020"/>
<path d="M63.1599 90.77C62.8199 90.77 62.4799 90.76 62.1399 90.74L62.3099 87.89C67.8599 88.24 70.5599 85.42 71.4599 84.2C72.6999 82.52 72.8999 80.83 72.5499 79.9C72.2899 79.27 69.6099 77.53 64.5499 76.37C58.8799 75.06 51.5199 74.83 47.8699 78.09C41.8099 83.52 45.3199 88.74 45.4699 88.96L43.1199 90.59C43.0699 90.52 38.0399 83.05 45.9599 75.96C50.5499 71.85 59.1699 72.1 65.7099 73.71C67.6599 74.19 74.1299 75.98 75.2199 78.9C75.9899 80.94 75.4199 83.62 73.7499 85.89C71.4499 89.02 67.6199 90.76 63.1499 90.76L63.1599 90.77Z" fill="#200020"/>
<path d="M98.5 314.69L95.68 314.28C96.74 307.02 91.54 299.74 90.94 298.94C52.62 261.7 50.37 215.26 49.01 187.51C48.87 184.67 48.74 182.04 48.59 179.67C48.14 172.95 48 165.91 48.16 158.76C48.48 144.85 45.29 130.46 38.94 117.17C35.29 109.54 34.14 103.17 35.52 98.24C37.92 89.61 47.59 86.79 55.76 86.95C61.15 87.08 66.9 88.67 67.63 91.91C68.08 93.91 67.25 96.07 65.29 97.99C61.63 101.59 54.01 104.28 46.54 102.45L47.22 99.68C53.6 101.24 60.26 98.93 63.29 95.95C64 95.25 65.15 93.88 64.84 92.54C64.64 91.64 61.4 89.95 55.68 89.81C48.95 89.65 40.22 91.95 38.26 99.01C37.08 103.26 38.17 108.96 41.51 115.95C48.05 129.65 51.33 144.47 51.01 158.83C50.85 165.9 50.99 172.85 51.43 179.49C51.59 181.88 51.72 184.52 51.86 187.39C53.19 214.74 55.42 260.51 93 296.98L93.13 297.13C93.4 297.48 99.79 305.84 98.49 314.71L98.5 314.69Z" fill="#200020"/>
<path d="M102.29 52.35L101.43 54.02C101.31 54.25 101.03 54.34 100.8 54.22L99.74 53.6799L97.13 52.3399L95.97 51.74C95.74 51.62 95.65 51.34 95.77 51.11L96.63 49.44C96.75 49.21 97.03 49.12 97.26 49.24L98.42 49.83L101.03 51.17L102.09 51.72C102.32 51.84 102.41 52.12 102.29 52.35Z" fill="#DA0081"/>
<path d="M211.12 232.21C210.8 232.21 210.47 232.1 210.21 231.88C210.03 231.73 191.2 216.51 152.54 224.13C152.19 224.19 151.84 224.13 151.54 223.96C151.12 223.71 141.13 217.78 139.48 211.03C138.97 208.94 139.28 206.98 140.4 205.21C142.53 201.82 149.46 200.47 158.91 201.59C174.2 203.41 196.23 211.78 212.2 229.84C212.69 230.4 212.67 231.24 212.16 231.78C211.88 232.07 211.51 232.21 211.13 232.21H211.12ZM173.67 219.1C186.71 219.1 196.31 221.76 202.65 224.41C188.29 211.96 171.09 205.91 158.56 204.43C149.41 203.34 143.98 204.86 142.81 206.73C142.11 207.84 141.93 209.03 142.25 210.36C143.32 214.75 149.64 219.44 152.52 221.23C160.37 219.72 167.42 219.1 173.67 219.1Z" fill="#200020"/>
<path d="M155.4 247.76C154.81 247.76 154.12 247.63 153.5 247.16C151.89 245.93 151.61 243.22 151.38 237.32L154.23 237.21C154.32 239.37 154.51 244.44 155.22 244.89C155.22 244.89 155.38 244.96 155.95 244.82C156.35 244.28 156.05 241.06 155.86 238.92C155.68 236.96 155.48 234.74 155.55 232.71C155.75 226.72 160.01 220.7 160.19 220.45L162.51 222.11C162.47 222.17 158.57 227.69 158.4 232.81C158.34 234.66 158.52 236.69 158.7 238.67C159.1 243.1 159.44 246.92 156.6 247.6C156.37 247.65 155.93 247.76 155.39 247.76H155.4Z" fill="#200020"/>
<path d="M205.21 251.1C204.74 251.1 203.56 251.1 202.79 250.15C201.9 249.06 202.2 247.64 202.69 245.29C202.91 244.24 203.18 242.95 203.4 241.41C204.48 234.06 201.61 226.71 201.58 226.64L204.23 225.59C204.36 225.92 207.4 233.73 206.22 241.83C205.98 243.45 205.7 244.79 205.47 245.88C205.29 246.76 205.08 247.74 205.06 248.25C205.1 248.25 205.15 248.25 205.2 248.25C205.79 247.91 206.99 244.81 207.6 241.76L210.4 242.31C209.75 245.6 208.21 251.11 205.2 251.11L205.21 251.1Z" fill="#200020"/>
<path d="M212.43 231.34L209.8 230.23C209.84 230.14 213.72 220.71 211.23 210.8C207.93 197.66 192.72 194.24 183.95 193.37C179.67 192.95 158.1 191.42 154.15 203.08L151.44 202.17C155.96 188.81 177.68 189.88 184.22 190.53C193.74 191.47 210.26 195.27 213.99 210.1C216.72 220.96 212.6 230.92 212.42 231.34H212.43Z" fill="#200020"/>
<path d="M182.1 249.09L181.99 250.96C181.98 251.22 181.75 251.42 181.49 251.4L180.3 251.33L179.43 251.28L179 251.25C178.74 251.23 178.42 251.23 178.15 251.17C177.07 250.96 176.24 249.94 176.25 248.85C176.25 248.57 176.32 248.29 176.37 248L176.45 247.54L176.6 246.69L176.91 244.98L178.15 238.14L178.38 236.86C178.43 236.6 178.67 236.44 178.93 236.48L180.78 236.81C181.04 236.86 181.2 237.1 181.16 237.36L180.93 238.64L179.69 245.48L179.16 248.44L180.47 248.52L181.66 248.59C181.92 248.6 182.12 248.83 182.1 249.09Z" fill="#200020"/>
<path d="M170.32 242.57L168.45 242.39C168.19 242.39 167.99 242.24 167.98 242.05C167.98 241.75 167.93 241.46 167.86 241.19C167.57 240.29 167.22 239.96 166.28 239.89C165.83 239.86 165.3 239.92 165.02 240.06C164.73 240.21 164.58 240.39 164.43 240.71C164.35 240.93 164.3 241.21 164.3 241.5C164.3 241.67 164.1 241.81 163.84 241.82L161.98 242.1C161.72 242.1 161.47 241.83 161.48 241.48C161.48 240.9 161.57 240.32 161.79 239.72C162.12 238.81 162.89 237.92 163.82 237.51C164.75 237.09 165.6 237.04 166.46 237.08C167.31 237.12 168.32 237.4 169.11 238.07C169.9 238.73 170.35 239.64 170.58 240.47C170.71 240.97 170.78 241.47 170.79 241.97C170.8 242.3 170.57 242.57 170.31 242.57H170.32Z" fill="#200020"/>
<path d="M221.14 309.59C221.06 309.54 213.29 304.77 202.38 301.79C196.36 300.15 190.8 299.72 186.86 300.11C185.31 303.55 182.46 306.11 180.27 305.81C179.24 305.66 178.15 304.82 178.14 302.9C178.14 301.51 178.79 300.27 180.01 299.34C181.17 298.46 182.81 297.86 184.77 297.52C186.3 292.26 191.34 273.22 191.39 273.03L194.15 273.76C194.1 273.94 189.66 290.73 187.84 297.19C192.53 296.94 198.23 297.71 203.12 299.04C214.44 302.13 222.3 306.96 222.63 307.16L221.12 309.59H221.14ZM183.12 300.9C182.57 301.11 182.11 301.35 181.76 301.61C181.11 302.11 181.01 302.56 181.01 302.87C181.52 302.61 182.34 301.94 183.12 300.89V300.9Z" fill="#200020"/>
<path d="M353.58 458.87C350.03 458.87 346 458.23 341.68 456.4C337.74 455.05 336.61 452 337.26 449.74C337.94 447.38 340.66 445.47 344.55 446.4C349.93 447.68 357.57 447.64 361.63 444.53L363.36 446.8C358.54 450.49 350.11 450.65 343.89 449.18C341.64 448.65 340.3 449.51 340 450.54C339.7 451.57 340.42 452.96 342.7 453.74C355.76 459.26 366.08 452.86 366.19 452.79L366.5 452.64C366.88 452.51 375.82 449.31 376.41 438.53C376.96 428.36 374.32 421.43 368.34 417.36C362.8 413.6 360.27 412.76 358.76 412.26C358.22 412.08 357.78 411.93 357.39 411.74L358.62 409.16C358.92 409.3 359.25 409.41 359.66 409.54C361.32 410.09 364.09 411 369.95 414.99C376.73 419.6 379.87 427.57 379.27 438.67C378.63 450.53 369.03 454.71 367.6 455.26C366.65 455.83 361.28 458.86 353.59 458.86L353.58 458.87Z" fill="#200020"/>
<path d="M341.56 449.04C341.26 449 338.58 448.63 337.06 446.67C336.26 445.64 335.93 444.35 336.12 442.93C336.69 438.62 341.73 438.65 345.38 438.66C346.36 438.66 347.31 438.67 348.16 438.61C351.63 438.35 358.84 437.81 361.63 435.16L363.6 437.23C360.07 440.59 352.46 441.16 348.37 441.46C347.45 441.53 346.43 441.53 345.37 441.52C341.79 441.48 339.17 441.62 338.95 443.31C338.82 444.34 339.17 445.04 340.09 445.58C340.94 446.08 341.9 446.21 341.91 446.21L341.56 449.04Z" fill="#200020"/>
<path d="M339.56 441.82C339.29 441.72 336.92 440.74 336.24 438.4C335.79 436.85 336.2 435.18 337.48 433.45C339.08 431.27 342.31 431.13 346.04 430.97C350.66 430.77 356.42 430.52 361.26 426.6L363.06 428.82C357.49 433.34 350.94 433.62 346.17 433.82C343.17 433.95 340.58 434.06 339.79 435.14C339.07 436.12 338.81 436.94 338.99 437.6C339.23 438.45 340.25 439.03 340.62 439.18L339.58 441.84L339.56 441.82Z" fill="#200020"/>
<path d="M339.77 434.2C339.55 434.06 337.64 432.72 337.25 430.57C337.03 429.38 337.33 428.17 338.12 427.08C340.17 424.21 344.1 423.74 348.26 423.24C352.52 422.73 357.35 422.15 360.8 418.94L362.74 421.03C358.61 424.87 353.29 425.51 348.6 426.07C344.93 426.51 341.76 426.89 340.43 428.74C339.99 429.36 340 429.79 340.05 430.06C340.21 430.91 341.11 431.67 341.35 431.83L339.76 434.2H339.77Z" fill="#200020"/>
<path d="M337.1 403.83C336.82 403.75 309.11 395.6 286.92 373.15C262.62 348.57 262.32 341.88 262.8 340.41L264.15 340.86L265.55 341.12C265.53 341.36 265.42 347.35 288.94 371.15C310.59 393.05 337.61 401.01 337.88 401.09L337.09 403.83H337.1Z" fill="#200020"/>
<path d="M-1.92988 318.03L-0.139879 318.6C0.100121 318.68 0.37012 318.55 0.460119 318.32L0.75012 317.5L0.82012 317.3L0.860121 317.2C0.890121 317.12 0.820119 317.27 1.01012 316.83C1.53012 315.56 2.13012 314.33 2.83012 313.16C5.55012 308.42 10.1101 304.96 15.3701 303.61C17.9801 302.94 20.7701 302.58 23.4601 302.77C26.1001 302.95 28.7901 303.72 30.3101 305.45C31.0601 306.24 31.4101 307.45 31.1901 308.02C31.1101 308.22 31.1801 308.08 31.1301 308.12C30.9601 308.09 30.4601 307.77 30.1101 307.36C29.4301 306.6 29.0901 305.43 28.9001 304.2C28.8201 302.92 28.8401 301.6 29.0701 300.26C29.9601 294.9 32.4201 289.66 35.6401 285.16C37.2701 282.91 39.1101 280.81 41.2101 279.07C43.3401 277.33 45.7101 275.87 48.2201 274.71C53.2401 272.41 58.8501 271.22 64.3501 271.42C65.7201 271.48 67.0801 271.63 68.3801 271.93L69.2901 272.14L70.0701 272.4C70.2901 272.47 70.5501 272.33 70.6401 272.09L71.3101 270.34C71.4001 270.1 71.2601 269.83 70.9901 269.74L70.0401 269.43L68.9801 269.18C67.4701 268.83 65.9601 268.68 64.4501 268.61C58.4301 268.4 52.4701 269.67 47.0301 272.16C44.3101 273.41 41.7401 274.99 39.4101 276.9C37.0801 278.84 35.0901 281.11 33.3501 283.52C29.9001 288.37 27.2901 293.82 26.2801 299.84C26.0301 301.34 25.9801 302.91 26.1001 304.51C26.3501 306.11 26.7701 307.82 28.0401 309.26C28.6501 309.89 29.3101 310.55 30.5501 310.87C31.2301 311.02 32.0001 310.92 32.6101 310.54C33.2201 310.18 33.6801 309.5 33.8401 308.96C34.4901 306.72 33.5301 304.91 32.4301 303.6C30.0201 300.95 26.6701 300.2 23.6601 299.96C20.6001 299.75 17.6001 300.14 14.6501 300.89C8.73012 302.38 3.43012 306.43 0.420119 311.72C-0.359881 313.02 -1.01988 314.39 -1.58988 315.78C-1.79988 316.27 -1.71988 316.1 -1.75988 316.19L-1.79988 316.3L-1.87988 316.52L-2.19988 317.42C-2.28988 317.68 -2.15988 317.95 -1.91988 318.03H-1.92988Z" fill="#200020"/>
<path d="M376.1 366.59C375.38 366.59 374.76 366.05 374.68 365.32C373.95 358.51 367.82 353.57 361 354.3C360.2 354.39 359.51 353.81 359.43 353.03C359.43 352.98 359.43 352.93 359.43 352.88C359.43 352.16 359.97 351.54 360.7 351.46C364 351.11 366.96 349.49 369.05 346.91C371.13 344.33 372.08 341.09 371.73 337.79C371.73 337.74 371.73 337.69 371.73 337.64C371.73 336.92 372.27 336.3 373 336.22C373.78 336.13 374.49 336.7 374.57 337.49C375.3 344.3 381.43 349.25 388.25 348.51C389.05 348.41 389.74 348.99 389.82 349.78C389.82 349.83 389.82 349.88 389.82 349.93C389.82 350.65 389.28 351.27 388.55 351.35C381.74 352.08 376.79 358.22 377.53 365.03C377.53 365.08 377.53 365.13 377.53 365.18C377.53 365.9 376.99 366.52 376.26 366.6C376.21 366.6 376.16 366.6 376.11 366.6L376.1 366.59ZM367.28 352.18C368.94 352.75 370.51 353.61 371.92 354.75C373.33 355.89 374.5 357.23 375.41 358.74C375.98 357.08 376.84 355.51 377.98 354.1C379.12 352.69 380.47 351.51 381.98 350.6C378.59 349.44 375.7 347.11 373.84 344.04C373.27 345.7 372.41 347.28 371.27 348.69C370.13 350.1 368.79 351.27 367.28 352.18Z" fill="#200020"/>
<path d="M351.91 374.72L350.3 375.68C350.08 375.81 349.79 375.74 349.66 375.52L349.05 374.5L343.54 365.26L342.87 364.14C342.74 363.92 342.81 363.63 343.03 363.5L344.64 362.54C344.86 362.41 345.15 362.48 345.28 362.7L345.95 363.82L351.46 373.06L352.07 374.08C352.2 374.3 352.13 374.59 351.91 374.72Z" fill="#200020"/>
<path d="M352.426 364.509L350.528 365.641C350.305 365.774 350.232 366.063 350.365 366.286L351.323 367.892C351.456 368.115 351.745 368.188 351.968 368.055L353.866 366.922C354.089 366.789 354.162 366.501 354.029 366.278L353.07 364.672C352.937 364.449 352.649 364.376 352.426 364.509Z" fill="#200020"/>
<path d="M349.98 368.7L349.02 367.09C348.89 366.87 348.6 366.79 348.38 366.93L347.24 367.61L342.18 370.63L341.06 371.3C340.84 371.43 340.77 371.72 340.9 371.94L341.86 373.55C341.99 373.77 342.28 373.85 342.5 373.71L343.62 373.04L348.68 370.02L349.82 369.34C350.04 369.21 350.12 368.92 349.98 368.7Z" fill="#200020"/>
<path d="M246.44 571.42L243.64 570.85C243.71 570.53 250.53 538.72 281.48 543.33C309.27 547.48 323.51 542.54 329.13 526.82C335.92 507.81 350.25 487.56 368.87 490.96C368.85 486.92 369.58 482.23 371.08 477.77C373.54 470.46 380.05 457.86 396.03 455.66L396.42 458.49C381.96 460.48 376.03 472 373.78 478.69C372.17 483.49 371.62 488.07 371.73 491.67C379.35 493.97 380.44 497.32 380.55 498.68C380.68 500.26 379.83 501.67 378.33 502.36C376.23 503.33 373.56 502.63 371.51 500.58C370.19 499.26 369.37 496.88 369.04 493.91C346.4 488.97 333.27 523.73 331.82 527.78C324.02 549.62 300.59 549.07 281.07 546.16C269.2 544.39 259.78 548.07 253.07 557.12C248.01 563.94 246.46 571.35 246.45 571.42H246.44ZM372.03 494.76C372.35 496.58 372.88 497.91 373.52 498.56C374.88 499.91 376.31 500.15 377.13 499.76C377.41 499.63 377.74 499.38 377.7 498.9C377.63 498.02 376.32 496.26 372.03 494.76Z" fill="#200020"/>
<path d="M147.111 315.145L145.781 320.975C145.599 321.772 146.097 322.565 146.894 322.747L153.768 324.315C154.565 324.497 155.358 323.998 155.54 323.201L156.87 317.371C157.052 316.574 156.553 315.781 155.756 315.599L148.883 314.031C148.086 313.849 147.292 314.348 147.111 315.145Z" fill="#DA0081"/>
<path d="M197.64 325.13L191.73 323.78C190.92 323.6 190.14 324.11 189.96 324.89L184.57 348.52C184.46 349 183.79 349.03 183.66 348.55L175.54 320.74C175.4 320.28 175.05 319.96 174.57 319.85L164.74 317.61C163.93 317.43 163.15 317.94 162.97 318.72L154.36 356.48C154.18 357.29 154.69 358.07 155.47 358.25L161.38 359.6C162.19 359.78 162.97 359.27 163.15 358.49L168.7 334.15C168.81 333.67 169.48 333.64 169.61 334.12L177.95 362.75C178.09 363.21 178.44 363.53 178.92 363.64L188.32 365.78C189.13 365.96 189.91 365.45 190.09 364.67L198.71 326.88C198.89 326.07 198.38 325.29 197.6 325.11H197.65L197.64 325.13Z" fill="#200020"/>
</g>
<defs>
<clipPath id="clip0_355_32314">
<rect width="501" height="614" fill="white" transform="translate(-2 1)"/>
</clipPath>
</defs>
</svg>
