<svg width="1359" height="804" viewBox="0 0 1359 804" fill="none" xmlns="http://www.w3.org/2000/svg">
<g clip-path="url(#clip0_81_3315)">
<path d="M1110.98 326.273C1105.78 332.315 1096.65 336.743 1089.82 339.421C1085.19 341.229 1083.21 346.687 1085.6 351.035C1087.22 353.964 1090.45 355.612 1093.77 355.234C1107.9 353.632 1119.65 345.348 1127.13 338.528C1132.45 333.676 1133.04 325.506 1128.57 319.865C1125.08 315.46 1119.26 313.629 1113.88 315.208L1084.1 323.973C1091.68 308.903 1083.11 296.214 1076.62 289.485C1073.45 286.19 1068.51 285.32 1064.36 287.243C1059.06 289.691 1056.69 295.882 1058.94 301.271C1059.42 302.415 1059.92 303.685 1060.44 305.116C1064.47 316.112 1059.02 329.706 1052.94 338.677C1046.93 347.556 1045.98 361.756 1051.8 364.205C1058.34 366.951 1059.14 361.345 1053.38 361.367C1046.29 361.402 1034.65 377.467 1034.65 377.467C1034.65 377.467 1019.7 398.144 1014.44 427.723" stroke="#200020" stroke-width="3.5" stroke-linecap="round" stroke-linejoin="round"/>
<path d="M1131.51 331.869L1131.93 331.96C1135.53 332.761 1138.53 335.233 1139.99 338.608C1141.69 342.499 1141.13 347.019 1138.47 350.337C1133.31 356.813 1122.57 366.448 1103.26 368.851C1101.06 369.126 1098.75 369.309 1096.31 369.377C1092.61 369.48 1089.28 367.123 1088.11 363.61C1087.16 360.773 1087.79 357.649 1089.76 355.406L1090.23 354.868" stroke="#200020" stroke-width="3.5" stroke-linecap="round" stroke-linejoin="round"/>
<path d="M1103.27 368.862C1101.78 371.803 1102.1 375.339 1104.09 377.971L1104.37 378.337C1106.13 380.671 1108.95 381.987 1111.87 381.769C1118.37 381.266 1129.99 378.577 1138.55 366.597C1142.18 361.528 1142.42 354.788 1139.12 349.501" stroke="#200020" stroke-width="3.5" stroke-linecap="round" stroke-linejoin="round"/>
<path d="M1137.18 368.427C1137.18 368.427 1147.24 371.059 1157.67 368.839C1159.89 368.37 1161.8 367.958 1163.44 367.603C1168.1 366.585 1172.74 369.32 1174.13 373.885C1175.51 378.462 1173.12 383.326 1168.66 385.053C1161.77 387.708 1150.79 390.74 1137.79 390.008C1115.52 388.738 1096.23 391.621 1086 407.343" stroke="#200020" stroke-width="3.5" stroke-linecap="round" stroke-linejoin="round"/>
<path d="M1084.1 323.984C1084.1 323.984 1077.34 324.396 1077.56 327.829C1077.77 331.262 1082.8 326.982 1084.1 323.984Z" stroke="#200020" stroke-width="3.5" stroke-linecap="round" stroke-linejoin="round"/>
<path d="M760.018 312.816C766.818 319.281 786.737 343.391 785.432 381.06" stroke="#200020" stroke-width="3.5" stroke-miterlimit="10"/>
<path d="M696.975 311.123L695.029 309.35C694.765 309.109 694.731 308.697 694.949 308.434C695.269 308.068 695.601 307.702 695.899 307.324L696.803 306.18C697.181 305.619 697.605 305.082 697.937 304.498C698.669 303.365 699.23 302.175 699.619 300.997C699.997 299.807 700.157 298.628 700.043 297.507C699.917 296.397 699.482 295.355 698.795 294.417C698.108 293.479 697.17 292.655 696.105 291.968C695.567 291.625 695.006 291.316 694.422 291.042L694.285 290.973L692.957 292.197C692.407 292.724 691.858 293.261 691.32 293.811C690.255 294.909 689.225 296.042 688.252 297.221C686.294 299.566 684.554 302.061 683.157 304.704C681.761 307.336 680.731 310.139 680.353 312.977C680.17 314.396 680.158 315.815 680.307 317.211C680.479 318.607 680.879 319.923 681.383 321.387C683.318 327.051 686.741 332.235 691.812 334.958C694.319 336.343 697.158 337.098 700.054 337.315C701.508 337.418 702.985 337.395 704.439 337.247C705.171 337.166 705.893 337.064 706.614 336.926C706.969 336.858 707.324 336.777 707.679 336.697L708.24 336.549C708.617 336.446 708.995 336.251 709.384 336.4C709.602 336.434 709.854 336.48 710.025 336.514L710.403 336.594L711.124 336.777C711.605 336.892 712.063 337.052 712.544 337.189C713.471 337.51 714.387 337.83 715.268 338.242C716.173 338.608 717.02 339.1 717.879 339.547C718.714 340.05 719.55 340.553 720.34 341.126C723.522 343.403 726.213 346.355 728.193 349.719C730.242 353.06 731.364 356.836 732.085 360.566L732.463 362.969C732.52 363.347 732.28 363.679 731.914 363.725L729.292 363.999C728.926 364.034 728.594 363.793 728.536 363.45L728.193 361.287C727.54 357.923 726.556 354.605 724.793 351.733C723.087 348.838 720.786 346.309 718.062 344.352C717.375 343.872 716.654 343.426 715.932 342.991C715.188 342.602 714.456 342.178 713.677 341.869C712.91 341.515 712.12 341.229 711.33 340.965C710.93 340.851 710.529 340.714 710.128 340.611L709.533 340.462L709.213 340.393L708.629 340.542C708.205 340.645 707.793 340.737 707.369 340.817C706.534 340.977 705.698 341.091 704.851 341.194C703.168 341.366 701.462 341.4 699.768 341.274C696.38 341.023 692.957 340.13 689.912 338.448C688.401 337.601 686.97 336.606 685.676 335.462C684.417 334.283 683.226 333.036 682.23 331.651C680.181 328.916 678.739 325.838 677.64 322.726C677.113 321.204 676.575 319.488 676.369 317.737C676.163 315.986 676.197 314.224 676.415 312.508C676.873 309.064 678.086 305.848 679.643 302.907C681.2 299.955 683.1 297.255 685.195 294.737C686.237 293.479 687.336 292.266 688.469 291.099C689.042 290.515 689.625 289.943 690.209 289.382L691.114 288.547L691.572 288.135L692.396 287.426L693.231 286.739L693.438 286.567C693.506 286.51 693.609 286.602 693.689 286.613L694.193 286.785C694.525 286.899 694.868 287.002 695.212 287.151C695.532 287.277 695.956 287.46 696.082 287.517C696.826 287.861 697.547 288.261 698.234 288.707C699.619 289.6 700.924 290.721 701.966 292.14C703.008 293.547 703.741 295.298 703.947 297.095C704.153 298.891 703.878 300.653 703.374 302.244C702.859 303.834 702.138 305.299 701.291 306.626C700.89 307.313 700.409 307.931 699.974 308.572L698.967 309.865C698.635 310.288 698.269 310.677 697.914 311.089C697.662 311.375 697.238 311.409 696.975 311.169V311.123Z" fill="#200020"/>
<path d="M702.367 256.702L704.805 257.709C705.149 257.846 705.515 257.766 705.618 257.537C705.996 256.851 706.545 256.141 707.141 255.512C707.358 255.306 707.347 254.917 707.095 254.654L705.309 252.72C705.068 252.445 704.611 252.468 704.301 252.754C703.477 253.635 702.733 254.562 702.115 255.684C701.897 256.107 702.012 256.565 702.355 256.702H702.367Z" fill="#200020"/>
<path d="M707.289 251.221L708.663 253.464C708.858 253.773 709.213 253.899 709.464 253.75L710.38 253.35L710.609 253.281L710.724 253.247H710.781L710.964 253.178C711.17 253.098 711.365 253.086 711.571 253.063C713.196 252.835 714.845 253.35 716.345 254.505L717.421 255.455C717.787 255.775 718.085 256.187 718.428 256.542L718.932 257.103L719.436 257.743C719.767 258.167 720.099 258.602 720.42 259.037C723.019 262.526 725.411 266.222 727.575 270.01C729.716 273.797 731.673 277.722 732.955 281.739C733.585 283.73 734.066 285.789 734.031 287.643C734.009 288.57 733.86 289.416 733.551 290.069C733.219 290.709 732.795 291.19 732.131 291.533C731.799 291.694 731.433 291.865 731.021 291.934C730.815 291.968 730.62 292.025 730.414 292.06L729.784 292.105C728.937 292.105 728.056 292.003 727.174 291.682C725.388 291.11 723.637 289.989 722 288.73C718.714 286.144 715.829 282.86 713.162 279.439C711.834 277.711 710.563 275.937 709.361 274.129C708.755 273.225 708.171 272.298 707.598 271.383L707.141 270.628L706.625 269.884L705.652 268.511C700.432 261.222 694.949 254.151 689.042 247.365C686.088 243.978 683.009 240.683 679.723 237.547C676.415 234.446 672.958 231.426 668.779 229.103C666.673 227.993 664.337 226.94 661.452 226.974C660.033 227.009 658.476 227.432 657.251 228.325C656.61 228.748 656.164 229.274 655.66 229.778C655.191 230.293 654.813 230.922 654.458 231.529C653.164 234.126 653.222 236.952 653.702 239.344C654.195 241.781 655.088 243.978 656.095 246.084C658.133 250.271 660.697 254.059 663.41 257.686C666.135 261.302 669.042 264.758 672.065 268.088C673.576 269.758 675.121 271.394 676.701 272.996C677.491 273.797 678.292 274.598 679.105 275.388C679.895 276.166 680.799 276.99 681.795 277.745C682.814 278.477 683.879 279.187 685.195 279.667C686.489 280.114 688.069 280.468 689.832 279.839C690.267 279.725 690.679 279.404 691.079 279.164C691.423 278.832 691.823 278.5 692.064 278.088C692.19 277.882 692.316 277.676 692.43 277.459C692.533 277.242 692.59 277.024 692.659 276.807C692.819 276.361 692.842 275.937 692.888 275.514C692.934 274.667 692.785 273.889 692.568 273.168C692.465 272.802 692.304 272.493 692.155 272.15L692.041 271.898L691.858 271.578C691.72 271.349 691.606 271.223 691.48 271.04C690.507 269.884 689.58 269.209 688.618 268.477C687.668 267.779 686.706 267.138 685.745 266.52C683.81 265.296 681.841 264.174 679.849 263.099C675.865 260.97 671.778 259.048 667.611 257.309C663.433 255.581 659.186 254.025 654.767 252.823C652.558 252.228 650.314 251.725 647.99 251.393C645.666 251.084 643.273 250.912 640.732 251.324C639.473 251.542 638.133 251.942 636.874 252.755C636.256 253.166 635.649 253.67 635.18 254.299C634.917 254.597 634.733 254.94 634.527 255.272C634.356 255.649 634.15 256.016 634.058 256.416C633.566 258.03 633.829 259.597 634.241 260.867C634.665 262.16 635.271 263.27 635.924 264.3C638.591 268.374 641.957 271.463 645.345 274.484C652.203 280.423 659.541 285.572 667.005 290.515C670.748 292.975 674.526 295.367 678.349 297.689L680.49 298.971L681.601 299.623C681.921 299.806 682.322 299.703 682.505 299.394L683.821 297.117C684.005 296.808 683.902 296.408 683.593 296.225L682.505 295.584L680.399 294.314C676.621 292.014 672.866 289.657 669.18 287.22C661.807 282.334 654.549 277.242 647.944 271.509C644.693 268.637 641.476 265.582 639.267 262.183C638.191 260.535 637.469 258.613 637.859 257.549C637.882 257.4 637.973 257.286 638.019 257.148C638.122 257.011 638.179 256.862 638.294 256.737C638.488 256.473 638.752 256.256 639.061 256.05C639.679 255.65 640.503 255.363 641.43 255.215C643.285 254.906 645.391 255.02 647.475 255.306C649.57 255.604 651.665 256.073 653.76 256.634C657.938 257.766 662.059 259.277 666.112 260.947C670.153 262.641 674.137 264.506 677.995 266.577C679.918 267.607 681.818 268.694 683.65 269.85C684.554 270.433 685.458 271.028 686.294 271.646C687.107 272.253 687.966 272.951 688.412 273.5C688.446 273.557 688.515 273.626 688.515 273.649L688.549 273.694L688.607 273.832C688.675 274.015 688.778 274.186 688.824 274.358C688.927 274.701 688.984 275.033 688.962 275.296C688.939 275.422 688.962 275.56 688.904 275.64C688.881 275.685 688.881 275.743 688.87 275.777C688.836 275.8 688.824 275.834 688.801 275.868C688.79 275.96 688.698 275.949 688.675 276.029C688.584 276.029 688.572 276.12 688.458 276.132C688.103 276.269 687.359 276.235 686.58 275.937C685.79 275.663 684.978 275.136 684.199 274.564C682.688 273.408 681.085 271.726 679.551 270.204C678.017 268.637 676.506 267.035 675.018 265.41C672.065 262.16 669.226 258.785 666.593 255.295C663.982 251.805 661.533 248.166 659.678 244.356C658.762 242.456 657.984 240.488 657.595 238.554C657.205 236.621 657.274 234.755 657.984 233.325C658.201 232.993 658.384 232.639 658.659 232.341C658.957 232.066 659.22 231.723 659.518 231.54C660.102 231.117 660.788 230.922 661.578 230.899C663.193 230.842 665.116 231.586 666.902 232.547C670.519 234.549 673.85 237.41 677.01 240.385C680.17 243.395 683.169 246.61 686.065 249.928C691.858 256.576 697.284 263.579 702.424 270.765L703.374 272.115C703.741 272.619 703.878 272.848 704.21 273.408C704.805 274.381 705.423 275.342 706.053 276.28C707.312 278.168 708.629 280.011 710.014 281.819C712.807 285.4 715.829 288.879 719.55 291.808C721.427 293.238 723.465 294.6 725.926 295.401C727.14 295.824 728.491 296.03 729.864 296.019L730.906 295.95C731.25 295.904 731.593 295.813 731.936 295.744C732.623 295.607 733.287 295.332 733.951 295C735.279 294.337 736.447 293.101 737.088 291.751C737.729 290.389 737.924 288.993 737.947 287.7C737.981 285.091 737.386 282.768 736.687 280.526C735.256 276.063 733.196 271.989 730.975 268.03C728.72 264.094 726.258 260.307 723.557 256.656C723.225 256.199 722.881 255.741 722.526 255.295L722 254.62L721.393 253.933C720.969 253.487 720.603 252.995 720.134 252.583L718.703 251.336L717.043 250.271C716.425 249.997 715.807 249.699 715.165 249.482C713.837 249.116 712.395 248.887 711.01 249.139C710.655 249.173 710.312 249.219 709.98 249.333L709.682 249.413L709.59 249.436L709.396 249.493L709.018 249.608C708.526 249.791 708.068 250.02 707.587 250.226C707.209 250.443 707.06 250.878 707.255 251.187L707.289 251.221Z" fill="#200020"/>
<path d="M734.97 281.578C734.97 281.578 742.961 284.759 747.952 280.926C754.729 275.72 739.435 248.063 729.681 244.356C718.463 240.088 716.631 252.343 716.631 252.343" stroke="#200020" stroke-width="3.5" stroke-miterlimit="10"/>
<path d="M747.952 280.926C747.952 280.926 759.949 318.08 746.91 317.886C739.252 317.771 749.898 302.576 760.018 312.817" stroke="#200020" stroke-width="3.5" stroke-miterlimit="10"/>
<path d="M1359 696.966L1357.13 687.412C1357.13 687.412 1275.41 578.959 1179.82 612.577C1179.82 612.577 1220.87 584.474 1172.73 534.722C1153.56 514.904 1131.01 512.329 1112.62 515.087C1102.1 516.666 1093.66 506.882 1096.81 496.721C1102.31 478.974 1100.98 455.002 1075.37 428.558C1022.26 373.702 956.771 416.177 956.771 416.177L901.112 349.925C901.112 349.925 855.481 316.112 803.554 348.357C751.627 380.602 728.021 489.123 798.047 534.734C798.047 534.734 707.576 486.766 682.391 537.88C671.057 560.88 674.869 581.179 682.482 596.546C688.572 608.836 680.112 623.299 666.398 623.516C622.313 624.237 554.702 638.964 529.929 717.597C494.933 703.157 428.307 685.032 362.849 718.604C268.038 767.235 234.359 784.696 180.715 774.718C127.07 764.74 97.1344 752.268 74.6739 775.966C74.6739 775.966 14.0464 752.474 0 804.023H1359V696.989V696.966Z" fill="#D60080"/>
<path d="M954.607 313.755C951.024 296.786 949.078 279.279 950.337 261.932C950.475 260.055 955.58 233.039 955.535 233.016C953.852 232.284 951.94 233.016 950.211 233.623C940.996 236.884 930.544 236.529 921.569 232.673C920.665 232.284 919.76 231.861 918.787 231.735C917.746 231.598 916.692 231.826 915.662 232.044C908.29 233.566 900.791 234.493 893.27 234.79C887.947 235.007 882.979 234.618 877.953 232.811C873.637 231.254 874.335 232.57 873.717 236.415C872.698 242.685 871.863 248.945 871.462 255.284C870.134 276.029 872.286 297.198 879.086 316.902C894.037 360.155 924.717 470.244 890.099 516.643L986.867 512.707C1010.47 445.081 966.41 369.583 954.607 313.755Z" fill="#D60080"/>
<path d="M902.508 233.291L900.104 232.227C899.772 232.078 899.349 232.307 899.223 232.673C898.834 233.726 898.502 234.755 898.216 235.797C898.112 236.163 898.319 236.529 898.673 236.632L901.215 237.319C901.57 237.41 901.925 237.216 902.016 236.884C902.279 235.923 902.589 234.984 902.909 234.092C903.035 233.771 902.84 233.462 902.508 233.314V233.291Z" fill="#E9E4F2"/>
<path d="M900.688 239.401L898.124 238.818C897.769 238.738 897.403 238.966 897.334 239.333L897.094 240.511L896.979 241.095L896.876 241.587L896.773 242.228C896.464 243.944 896.235 245.66 896.029 247.388C895.674 250.832 895.411 254.288 895.399 257.732C895.285 264.632 895.777 271.521 896.682 278.329L896.922 280.16C896.968 280.526 897.3 280.778 897.655 280.72L900.265 280.331C900.62 280.274 900.883 279.942 900.837 279.588L900.608 277.803C899.715 271.154 899.246 264.46 899.36 257.789C899.36 254.448 899.635 251.13 899.967 247.823C900.173 246.175 900.391 244.528 900.677 242.903L900.78 242.296L900.871 241.827L900.986 241.278L901.215 240.168C901.284 239.825 901.066 239.481 900.711 239.401H900.688Z" fill="#E9E4F2"/>
<path d="M916.646 298.811C916.646 298.811 907.797 265.193 912.514 252.217" stroke="#E9E4F2" stroke-width="3.5" stroke-miterlimit="10"/>
<path d="M933.177 230.396C933.177 230.396 926.686 253.396 929.044 269.907" stroke="#E9E4F2" stroke-width="3.5" stroke-miterlimit="10"/>
<path d="M890.099 516.643C924.717 470.244 894.037 360.155 879.086 316.902C864.135 273.649 874.736 231.472 874.736 231.472" stroke="#E9E4F2" stroke-width="3.5" stroke-miterlimit="10"/>
<path d="M957.229 231.472C957.229 231.472 942.805 257.915 954.607 313.755C966.41 369.583 1010.46 445.081 986.867 512.707" stroke="#E9E4F2" stroke-width="3.5" stroke-miterlimit="10"/>
<path d="M920.779 384.527C920.779 384.527 932.582 440.355 925.496 471.811" stroke="#E9E4F2" stroke-width="3.5" stroke-miterlimit="10"/>
<path d="M940.355 401.119L937.802 401.76C937.447 401.851 937.229 402.183 937.31 402.526C937.539 403.511 937.745 404.506 937.951 405.502C938.019 405.856 938.363 406.085 938.718 406.016L941.305 405.513C941.66 405.444 941.9 405.09 941.82 404.735C941.614 403.705 941.396 402.675 941.156 401.634C941.076 401.279 940.71 401.027 940.355 401.119Z" fill="#E9E4F2"/>
<path d="M941.706 407.698L939.107 408.156C938.752 408.225 938.512 408.557 938.569 408.911L938.763 410.044L939.004 411.555C939.233 412.939 939.393 414.335 939.588 415.731C939.908 418.523 940.206 421.315 940.332 424.107C940.629 429.691 940.561 435.309 939.702 440.745L939.416 442.484C939.359 442.827 939.599 443.17 939.954 443.239L942.541 443.765C942.896 443.834 943.24 443.594 943.297 443.228L943.606 441.362C944.533 435.538 944.59 429.68 944.281 423.901C944.144 421.006 943.846 418.123 943.514 415.251C943.32 413.82 943.148 412.378 942.908 410.96L942.667 409.403L942.461 408.236C942.404 407.87 942.06 407.63 941.694 407.698H941.706Z" fill="#E9E4F2"/>
<path d="M1186.72 608.046C1186.72 608.046 1164.24 604.945 1167.14 615.907C1170.03 626.869 1186.72 608.046 1186.72 608.046Z" stroke="#E9E4F2" stroke-width="3.5" stroke-miterlimit="10"/>
<path d="M572.023 316.41L572.938 318.881C573.064 319.225 573.431 319.419 573.763 319.316L576.59 318.424C576.922 318.309 577.117 317.955 577.025 317.611L576.373 315.06C576.281 314.693 575.915 314.499 575.548 314.613L572.446 315.586C572.08 315.7 571.897 316.066 572.023 316.41Z" fill="#D60080"/>
<path d="M578.616 314.59L579.12 317.176C579.189 317.531 579.521 317.771 579.853 317.691C580.254 317.622 580.643 317.497 581.043 317.474L582.314 317.359C585.348 316.97 588.393 317.245 591.301 317.909C597.162 319.247 602.233 323.092 605.633 328.058C607.305 330.575 608.564 333.367 609.319 336.274C610.144 339.318 610.808 342.968 613.544 345.989C614.94 347.465 616.783 348.403 618.523 348.952C620.286 349.501 621.969 349.73 623.629 349.959C626.938 350.36 630.154 350.577 633.36 350.909C634.962 351.058 636.554 351.252 638.156 351.424C639.656 351.641 641.11 351.893 642.529 352.385C645.391 353.266 648.059 354.776 650.509 356.573C655.339 360.269 659.266 365.349 661.498 370.979C662.597 373.783 663.25 376.792 662.964 379.527C662.815 380.888 662.391 382.124 661.682 383.085C661.006 384.001 659.884 384.859 658.957 384.996C658.007 385.214 657.366 384.836 656.954 384.161C656.748 383.806 656.679 383.314 656.656 382.788C656.69 382.513 656.667 382.239 656.759 381.953L656.851 381.518L657.011 381.071C657.904 378.669 660.125 376.483 662.54 374.721C667.508 371.185 673.564 368.988 679.632 367.249C685.733 365.544 692.075 364.354 698.395 363.679C701.543 363.164 704.725 363.187 707.896 363.004C709.487 362.878 711.067 362.992 712.647 363.049C714.227 363.118 715.818 363.152 717.398 363.244C723.694 363.885 729.945 365.006 735.955 366.986C741.93 369.022 747.654 371.769 752.875 375.27C755.45 377.055 757.969 378.955 760.201 381.117L761.518 382.433C761.815 382.719 762.056 383.017 762.33 383.314C762.571 383.566 762.914 383.543 763.212 383.326L765.272 381.689C765.57 381.483 765.559 380.991 765.295 380.705C764.986 380.373 764.689 380.007 764.368 379.698L762.926 378.257C760.499 375.911 757.831 373.886 755.084 371.986C749.543 368.256 743.487 365.361 737.191 363.221C730.861 361.139 724.301 359.96 717.718 359.296C716.07 359.193 714.41 359.159 712.762 359.079C711.113 359.022 709.453 358.907 707.805 359.033C704.508 359.216 701.188 359.193 697.937 359.731C691.366 360.441 684.921 361.642 678.544 363.416C672.213 365.246 665.86 367.489 660.205 371.494C657.457 373.542 654.71 375.991 653.267 379.687L653.016 380.385L652.844 381.14C652.718 381.632 652.695 382.181 652.661 382.708C652.672 383.795 652.844 384.951 653.439 386.015C654.023 387.079 654.973 387.994 656.129 388.498C657.286 389.024 658.568 389.081 659.678 388.841C660.262 388.761 660.754 388.521 661.269 388.337C661.727 388.086 662.231 387.857 662.62 387.548C663.021 387.239 663.445 386.953 663.788 386.575C664.166 386.221 664.509 385.843 664.795 385.42C666.02 383.76 666.616 381.815 666.822 379.973C667.199 376.243 666.352 372.753 665.116 369.537C662.563 363.13 658.27 357.591 652.821 353.415C650.062 351.378 647.006 349.65 643.674 348.609C642.026 348.048 640.274 347.728 638.568 347.488C636.943 347.304 635.317 347.11 633.692 346.961C630.452 346.629 627.189 346.401 624.076 346.023C622.53 345.817 620.996 345.588 619.657 345.165C618.317 344.73 617.207 344.146 616.36 343.254C615.49 342.396 614.906 341.091 614.368 339.752C614.15 339.032 613.864 338.368 613.704 337.601C613.509 336.835 613.338 336.159 613.097 335.278C612.227 331.914 610.785 328.722 608.873 325.838C605.004 320.128 599.051 315.62 592.205 314.052C588.828 313.263 585.302 312.977 581.902 313.412L580.471 313.549C580.013 313.572 579.59 313.709 579.143 313.789C578.765 313.869 578.525 314.213 578.594 314.579L578.616 314.59Z" fill="#D60080"/>
<path d="M944.774 94.79H882.063C875.196 94.79 869.63 100.354 869.63 107.217V232.124C869.63 238.987 875.196 244.55 882.063 244.55H944.774C951.64 244.55 957.206 238.987 957.206 232.124V107.217C957.206 100.354 951.64 94.79 944.774 94.79Z" fill="#200020" stroke="#200020" stroke-width="4.31" stroke-linecap="round" stroke-linejoin="round"/>
<path d="M889.091 153.193L895.41 153.183C896.143 153.182 896.739 153.776 896.74 154.508L896.749 159.886C896.75 160.618 896.155 161.214 895.423 161.215L889.104 161.225C888.371 161.227 887.775 160.632 887.773 159.9L887.765 154.522C887.764 153.79 888.358 153.194 889.091 153.193Z" fill="#D60080"/>
<path d="M933.91 153.158H928.472C927.728 153.158 927.144 153.776 927.144 154.497L927.178 176.238C927.178 176.684 926.594 176.845 926.388 176.444L913.716 153.765C913.51 153.399 913.132 153.181 912.697 153.181H903.653C902.909 153.193 902.325 153.799 902.325 154.52L902.382 189.26C902.382 190.003 902.989 190.587 903.71 190.587H909.148C909.892 190.587 910.476 189.969 910.476 189.248L910.442 166.855C910.442 166.409 911.025 166.249 911.232 166.649L924.259 190.003C924.465 190.37 924.843 190.587 925.278 190.587H933.921C934.665 190.576 935.249 189.969 935.249 189.248L935.192 154.474C935.192 153.731 934.585 153.147 933.864 153.147H933.91V153.158Z" fill="#E9E4F2"/>
<path d="M907.088 106.393H919.749" stroke="#E9E4F2" stroke-width="3.5" stroke-linecap="round" stroke-linejoin="round"/>
<path d="M914.082 50.6221H916.715C917.082 50.6221 917.379 50.9196 917.379 51.2857V83.1876C917.379 83.5537 917.082 83.8513 916.715 83.8513H914.082C913.716 83.8513 913.418 83.5537 913.418 83.1876V51.2857C913.418 50.9196 913.716 50.6221 914.082 50.6221Z" fill="#200020"/>
<path d="M914.082 0H916.715C917.082 0 917.379 0.297507 917.379 0.663668V32.1765C917.379 32.5426 917.082 32.8401 916.715 32.8401H914.082C913.716 32.8401 913.418 32.5426 913.418 32.1765V0.663668C913.418 0.297507 913.716 0 914.082 0Z" fill="#200020"/>
<path d="M862.624 99.6077L860.61 101.313C860.335 101.553 859.911 101.507 859.682 101.232L858.606 99.9509L838.309 75.933L837.13 74.537C836.89 74.2624 836.936 73.839 837.21 73.6102L839.225 71.9167C839.5 71.6764 839.924 71.7221 840.152 71.9968L841.332 73.3927L861.628 97.4107L862.705 98.6922C862.945 98.9669 862.899 99.3902 862.624 99.6191V99.6077Z" fill="#D60080"/>
<path d="M830.376 61.4696L828.361 63.1745C828.086 63.4034 827.663 63.3691 827.434 63.0944L826.358 61.8129L818.573 52.6131L817.394 51.2171C817.154 50.9424 817.2 50.5191 817.474 50.2902L819.489 48.5853C819.764 48.3564 820.187 48.3907 820.416 48.6654L821.596 50.0614L829.38 59.2612L830.456 60.5427C830.697 60.8174 830.651 61.2407 830.376 61.4696Z" fill="#D60080"/>
<path d="M886.585 80.224L884.112 81.128C883.769 81.2538 883.391 81.0822 883.265 80.7389L882.692 79.1713L861.8 22.3818L861.171 20.6655C861.045 20.3222 861.216 19.9446 861.56 19.8187L864.033 18.9148C864.376 18.7889 864.754 18.9605 864.88 19.3038L865.509 21.0202L886.402 77.8096L886.974 79.3772C887.1 79.7205 886.928 80.0981 886.585 80.224Z" fill="#200020"/>
<path d="M961.762 39.6258L959.301 38.676C958.957 38.5502 958.797 38.1611 958.923 37.8293L959.518 36.2731L963.72 25.3455L964.372 23.6405C964.498 23.2972 964.887 23.1371 965.219 23.2629L967.681 24.2127C968.024 24.3385 968.184 24.7276 968.058 25.0594L967.406 26.7643L963.205 37.692L962.609 39.2482C962.483 39.5915 962.094 39.7516 961.762 39.6258Z" fill="#D60080"/>
<path d="M946.353 84.6636L943.858 83.8169C943.514 83.7024 943.331 83.3248 943.446 82.9815L943.984 81.391L953.52 53.1279L954.104 51.4001C954.218 51.0568 954.596 50.8737 954.939 50.9882L957.435 51.8349C957.778 51.9493 957.961 52.3269 957.847 52.6702L957.263 54.398L947.727 82.6612L947.189 84.2517C947.075 84.595 946.697 84.778 946.353 84.6636Z" fill="#D60080"/>
<path d="M1015.59 48.6023L1013.52 50.9176C1013.28 51.1912 1013.3 51.6108 1013.58 51.8546L1015.54 53.5977C1015.81 53.8415 1016.23 53.8173 1016.47 53.5437L1018.54 51.2284C1018.78 50.9547 1018.76 50.5352 1018.48 50.2914L1016.53 48.5483C1016.25 48.3044 1015.83 48.3286 1015.59 48.6023Z" fill="#200020"/>
<path d="M1014.08 55.2679L1012.11 53.5172C1011.83 53.2769 1011.42 53.2998 1011.18 53.5744L982.082 86.22L980.868 87.5817C980.628 87.8563 980.651 88.2683 980.926 88.5086L982.895 90.2593C983.17 90.4996 983.582 90.4767 983.822 90.2021L985.036 88.8404L1014.14 56.1948C1014.38 55.9202 1014.35 55.5082 1014.08 55.2679Z" fill="#200020"/>
<path d="M973.393 96.8156L975.362 98.5663C975.637 98.8066 975.66 99.2185 975.419 99.4931L974.309 100.74L968.013 107.823L966.799 109.185C966.559 109.46 966.147 109.482 965.872 109.242L963.903 107.491C963.628 107.251 963.605 106.839 963.846 106.565L965.059 105.203L971.355 98.12L972.466 96.8728C972.706 96.5981 973.118 96.5753 973.393 96.8156Z" fill="#200020"/>
<path d="M1020.02 105.248L1021.34 107.526C1021.52 107.846 1021.41 108.246 1021.1 108.43L1019.64 109.265L979.895 132.173L978.316 133.088C977.995 133.271 977.594 133.157 977.411 132.848L976.095 130.571C975.912 130.25 976.026 129.85 976.335 129.667L977.915 128.751L1017.66 105.843L1019.12 105.008C1019.44 104.825 1019.84 104.94 1020.02 105.248Z" fill="#200020"/>
<path d="M1059.63 81.4941L1060.87 83.817C1061.04 84.1374 1060.91 84.5379 1060.59 84.7095L1059.11 85.4876L1043.19 93.9093L1041.58 94.7675C1041.26 94.9391 1040.85 94.8133 1040.68 94.4929L1039.45 92.1701C1039.28 91.8497 1039.4 91.4492 1039.72 91.2775L1041.34 90.4193L1057.26 81.9976L1058.74 81.2195C1059.06 81.0479 1059.46 81.1738 1059.63 81.4941Z" fill="#200020"/>
<path d="M973.757 153.519L970.707 154.085C970.347 154.152 970.109 154.498 970.175 154.859L970.654 157.435C970.721 157.795 971.067 158.033 971.428 157.966L974.478 157.401C974.838 157.334 975.077 156.988 975.01 156.627L974.531 154.051C974.465 153.69 974.118 153.452 973.757 153.519Z" fill="#D60080"/>
<path d="M976.713 153.719L977.194 156.305C977.262 156.66 977.606 156.9 977.961 156.832L1028.09 147.54L1029.89 147.209C1030.24 147.14 1030.48 146.797 1030.41 146.442L1029.93 143.856C1029.86 143.501 1029.52 143.261 1029.17 143.33L1027.37 143.661L977.24 152.953C976.885 153.021 976.644 153.365 976.713 153.719Z" fill="#D60080"/>
<path d="M1062.77 138.718L1063.26 141.304C1063.33 141.659 1063.09 142.002 1062.73 142.071L1061.08 142.38L1049.2 144.646L1047.4 144.989C1047.05 145.057 1046.7 144.817 1046.64 144.462L1046.14 141.876C1046.08 141.522 1046.32 141.178 1046.67 141.11L1048.47 140.766L1060.35 138.501L1062 138.192C1062.35 138.123 1062.7 138.364 1062.77 138.718Z" fill="#D60080"/>
<path d="M989.695 178.664L989.134 181.239C989.054 181.593 988.699 181.822 988.344 181.742L986.707 181.387L971.63 178.069L969.844 177.68C969.489 177.6 969.26 177.245 969.341 176.89L969.902 174.316C969.982 173.961 970.337 173.732 970.691 173.812L972.477 174.201L987.554 177.52L989.191 177.874C989.546 177.955 989.775 178.309 989.695 178.664Z" fill="#200020"/>
<path d="M1064.06 192.498L1063.56 195.084C1063.49 195.439 1063.14 195.679 1062.79 195.599L1061.14 195.279L1008.89 185.118L1007.1 184.775C1006.74 184.706 1006.5 184.363 1006.58 184.008L1007.08 181.422C1007.15 181.067 1007.5 180.827 1007.85 180.907L1009.65 181.25L1061.9 191.4L1063.54 191.72C1063.9 191.789 1064.14 192.132 1064.06 192.487V192.498Z" fill="#200020"/>
<path d="M1022.09 225.064L1020.86 227.387C1020.68 227.707 1020.28 227.833 1019.96 227.661L1018.49 226.872L982.769 207.785L981.155 206.927C980.834 206.756 980.708 206.355 980.88 206.035L982.116 203.712C982.288 203.392 982.689 203.266 983.009 203.437L984.623 204.295L1020.34 223.382L1021.82 224.171C1022.14 224.343 1022.26 224.743 1022.09 225.064Z" fill="#200020"/>
<path d="M1054.16 242.88L1052.88 245.18C1052.69 245.5 1052.29 245.614 1051.98 245.431L1050.52 244.619L1034.94 235.9L1033.35 235.007C1033.02 234.824 1032.91 234.424 1033.09 234.115L1034.38 231.815C1034.56 231.494 1034.96 231.38 1035.27 231.563L1036.86 232.455L1052.44 241.175L1053.91 241.987C1054.23 242.17 1054.34 242.571 1054.16 242.88Z" fill="#200020"/>
<path d="M970.274 230.98L968.287 232.69C968.01 232.929 967.978 233.348 968.218 233.626L970.242 235.976C970.481 236.254 970.9 236.285 971.178 236.046L973.165 234.336C973.443 234.097 973.474 233.678 973.235 233.4L971.21 231.05C970.971 230.772 970.552 230.741 970.274 230.98Z" fill="#D60080"/>
<path d="M974.572 235.934L972.58 237.651C972.306 237.891 972.271 238.303 972.512 238.577L990.656 259.643L991.847 261.028C992.087 261.302 992.499 261.337 992.774 261.096L994.766 259.38C995.041 259.14 995.075 258.728 994.835 258.453L993.644 257.069L975.5 236.003C975.259 235.728 974.847 235.694 974.572 235.934Z" fill="#D60080"/>
<path d="M1012.18 281.521L1010.19 283.238C1009.91 283.478 1009.5 283.444 1009.26 283.169L1008.16 281.899L998.647 270.903L997.456 269.518C997.216 269.243 997.25 268.831 997.525 268.591L999.517 266.863C999.792 266.623 1000.2 266.657 1000.44 266.932L1001.63 268.317L1011.15 279.313L1012.25 280.583C1012.49 280.858 1012.45 281.27 1012.18 281.51V281.521Z" fill="#D60080"/>
<path d="M979.941 309.945L977.526 310.997C977.194 311.146 976.805 310.997 976.656 310.654L975.992 309.121L953.371 256.977L952.65 255.307C952.501 254.975 952.65 254.586 952.993 254.437L955.409 253.384C955.741 253.235 956.13 253.384 956.279 253.727L957 255.398L979.621 307.542L980.285 309.075C980.434 309.407 980.285 309.796 979.941 309.945Z" fill="#200020"/>
<path d="M869.962 280.881L867.501 279.931C867.158 279.805 866.997 279.416 867.123 279.084L867.73 277.528L875.492 257.492L876.156 255.787C876.282 255.444 876.671 255.284 877.003 255.409L879.464 256.359C879.808 256.485 879.968 256.874 879.842 257.206L879.178 258.911L871.416 278.947L870.81 280.503C870.684 280.846 870.294 281.006 869.962 280.881Z" fill="#D60080"/>
<path d="M859.224 301.168L856.866 299.99C856.546 299.83 856.408 299.429 856.568 299.109L857.313 297.61L859.511 293.216L860.323 291.579C860.484 291.259 860.884 291.122 861.205 291.282L863.563 292.461C863.884 292.621 864.021 293.021 863.861 293.342L863.048 294.978L860.85 299.372L860.106 300.871C859.946 301.191 859.545 301.329 859.224 301.168Z" fill="#D60080"/>
<path d="M854.245 237.673L856.317 239.298C856.603 239.527 856.649 239.939 856.431 240.225L855.401 241.541L821.172 285.206L820.05 286.648C819.821 286.934 819.409 286.979 819.123 286.762L817.051 285.137C816.765 284.908 816.719 284.496 816.936 284.21L818.058 282.769L852.287 239.104L853.317 237.788C853.546 237.502 853.958 237.456 854.245 237.673Z" fill="#200020"/>
<path d="M788.912 238.944L790.297 241.186C790.492 241.495 790.389 241.896 790.08 242.09L788.649 242.971L772.176 253.11L770.619 254.071C770.31 254.265 769.909 254.162 769.714 253.853L768.329 251.611C768.135 251.302 768.238 250.901 768.547 250.707L770.104 249.745L786.577 239.607L788.008 238.726C788.317 238.532 788.718 238.635 788.912 238.944Z" fill="#200020"/>
<path d="M807.567 226.126L804.945 227.783C804.635 227.979 804.542 228.389 804.738 228.699L806.14 230.913C806.336 231.223 806.746 231.315 807.056 231.119L809.678 229.462C809.988 229.266 810.08 228.856 809.884 228.546L808.483 226.332C808.287 226.022 807.877 225.93 807.567 226.126Z" fill="#200020"/>
<path d="M810.331 225.121L811.739 227.341C811.934 227.65 812.346 227.741 812.643 227.547L850.673 203.506L852.218 202.533C852.528 202.339 852.619 201.927 852.424 201.629L851.016 199.41C850.822 199.101 850.41 199.009 850.112 199.204L848.567 200.176L810.537 224.217C810.228 224.412 810.136 224.824 810.331 225.121Z" fill="#200020"/>
<path d="M858.217 174.705L858.686 177.291C858.755 177.646 858.515 177.989 858.16 178.058L856.511 178.355L773.011 193.322L771.214 193.643C770.859 193.711 770.516 193.471 770.447 193.116L769.978 190.53C769.909 190.175 770.149 189.832 770.504 189.763L772.301 189.443L855.802 174.476L857.45 174.179C857.805 174.11 858.148 174.35 858.217 174.705Z" fill="#D60080"/>
<path d="M838.424 152.77L838.916 150.184C838.985 149.829 839.328 149.589 839.683 149.657L841.332 149.966L859.545 153.422L861.342 153.765C861.697 153.834 861.938 154.177 861.869 154.532L861.377 157.118C861.308 157.473 860.965 157.713 860.61 157.644L858.812 157.301L840.599 153.845L838.95 153.536C838.596 153.468 838.355 153.124 838.424 152.77Z" fill="#200020"/>
<path d="M761.277 140.515L761.735 137.917C761.804 137.563 762.136 137.322 762.502 137.38L764.151 137.677L819.546 147.518L821.344 147.838C821.699 147.907 821.939 148.239 821.882 148.605L821.424 151.202C821.355 151.557 821.023 151.797 820.657 151.74L818.86 151.42L763.464 141.579L761.815 141.281C761.46 141.213 761.22 140.881 761.277 140.515Z" fill="#200020"/>
<path d="M798.941 97.7196L797.658 100.02C797.487 100.34 797.086 100.454 796.765 100.271L795.3 99.4589L771.019 85.9796L769.428 85.0985C769.108 84.9268 768.993 84.5263 769.176 84.206L770.458 81.906C770.63 81.5856 771.031 81.4712 771.351 81.6543L772.943 82.5353L797.223 96.0147L798.689 96.8271C799.009 96.9987 799.124 97.3992 798.941 97.7196Z" fill="#200020"/>
<path d="M810.434 104.466L809.112 106.729C808.927 107.045 809.034 107.452 809.351 107.636L812.029 109.201C812.346 109.385 812.753 109.279 812.938 108.962L814.26 106.7C814.445 106.383 814.338 105.977 814.022 105.792L811.343 104.228C811.026 104.043 810.619 104.15 810.434 104.466Z" fill="#200020"/>
<path d="M816.17 107.812L814.842 110.089C814.658 110.398 814.761 110.81 815.082 110.993L846.598 129.393L848.177 130.308C848.487 130.491 848.899 130.388 849.082 130.068L850.41 127.791C850.593 127.482 850.49 127.07 850.169 126.887L848.59 125.971L817.074 107.572C816.765 107.389 816.353 107.492 816.17 107.812Z" fill="#200020"/>
<path d="M672.568 471.422C672.568 471.422 726.064 457.268 726.064 484.787C726.064 512.306 651.321 488.323 672.568 471.422Z" fill="#D60080"/>
<path d="M993.129 346.275C993.564 346.298 993.999 346.389 994.411 346.538C996.46 347.316 997.411 349.628 998.178 351.687C999.998 356.562 1002.4 361.711 1007.03 364.102C1009.43 365.338 1012.26 365.716 1014.48 367.272C1027.77 376.575 1004.9 391.873 994.858 386.598C985.379 381.61 980.834 365.464 983.009 355.543C983.982 351.127 987.337 346.961 991.824 346.344C992.259 346.286 992.705 346.263 993.14 346.286L993.129 346.275Z" fill="#D60080"/>
<path d="M1170.57 503.667C1170.57 503.667 1166.24 491.481 1196.14 485.977C1226.05 480.473 1224.85 506.425 1239.81 508.782C1254.76 511.139 1272.84 508.782 1264.59 521.758C1256.32 534.734 1222.5 530.409 1213.06 524.516C1203.62 518.623 1170.97 524.516 1170.58 503.679L1170.57 503.667Z" fill="#D60080"/>
<path d="M1121.4 467.486C1121.4 467.486 1115.51 491.469 1139.5 495.795C1163.49 500.12 1129.67 443.891 1121.4 467.486Z" fill="#D60080"/>
<path d="M645.174 514.377C645.174 514.377 627.853 531.999 646.284 547.95C664.715 563.912 664.314 498.3 645.174 514.377Z" fill="#D60080"/>
<path d="M813.388 428.57C813.868 422.208 809.106 416.658 802.73 416.166C809.095 416.647 814.647 411.887 815.139 405.513C814.658 411.875 819.421 417.425 825.797 417.917C819.432 417.436 813.88 422.196 813.388 428.57Z" stroke="#E9E4F2" stroke-width="3.5" stroke-linecap="round" stroke-linejoin="round"/>
<path d="M635.764 591.386C636.245 585.024 631.482 579.474 625.106 578.982C631.471 579.463 637.023 574.703 637.515 568.329C637.035 574.691 641.797 580.241 648.173 580.733C641.808 580.252 636.256 585.013 635.764 591.386Z" stroke="#200020" stroke-width="3.5" stroke-linecap="round" stroke-linejoin="round"/>
<path d="M728.743 170.323C729.224 163.961 724.461 158.411 718.085 157.919C724.45 158.4 730.002 153.64 730.494 147.266C730.013 153.628 734.776 159.178 741.152 159.67C734.787 159.189 729.235 163.949 728.743 170.323Z" stroke="#D60080" stroke-width="3.5" stroke-linecap="round" stroke-linejoin="round"/>
<path d="M1100.82 226.334C1094.28 232.467 1093.95 242.743 1100.1 249.288C1093.96 242.754 1083.68 242.422 1077.13 248.567C1083.67 242.434 1084 232.158 1077.85 225.613C1083.99 232.147 1094.27 232.479 1100.82 226.334Z" stroke="#D60080" stroke-width="3.5" stroke-linecap="round" stroke-linejoin="round"/>
<path d="M1100.59 160.242C1096.1 164.453 1095.87 171.501 1100.09 175.987C1095.87 171.501 1088.82 171.272 1084.33 175.483C1088.82 171.272 1089.05 164.224 1084.84 159.738C1089.05 164.224 1096.1 164.453 1100.59 160.242Z" stroke="#200020" stroke-width="3.5" stroke-linecap="round" stroke-linejoin="round"/>
<path d="M800.818 454.533L798.757 452.897C798.471 452.668 798.425 452.256 798.654 451.97L799.696 450.665L804.584 444.532L805.718 443.102C805.946 442.816 806.359 442.77 806.645 442.999L808.705 444.635C808.992 444.864 809.037 445.276 808.808 445.562L807.675 446.992L802.787 453.126L801.745 454.43C801.516 454.716 801.104 454.762 800.818 454.533Z" fill="#E9E4F2"/>
<path d="M806.042 448.957L804.407 451.006C804.179 451.292 804.226 451.71 804.512 451.938L806.937 453.872C807.224 454.101 807.642 454.054 807.871 453.767L809.505 451.719C809.734 451.432 809.687 451.015 809.4 450.786L806.975 448.852C806.688 448.624 806.271 448.671 806.042 448.957Z" fill="#E9E4F2"/>
<path d="M802.672 449.601L804.309 447.542C804.538 447.255 804.493 446.844 804.206 446.615L802.741 445.448L801.951 444.818L800.52 443.685C800.234 443.457 799.822 443.502 799.593 443.788L797.956 445.848C797.727 446.134 797.773 446.546 798.059 446.775L799.49 447.908L800.28 448.537L801.745 449.704C802.031 449.933 802.443 449.887 802.672 449.601Z" fill="#E9E4F2"/>
<path d="M740.465 100.569L738.404 98.9326C738.118 98.7037 738.072 98.2918 738.301 98.0057L739.343 96.7013L744.231 90.5681L745.365 89.1378C745.594 88.8517 746.006 88.8059 746.292 89.0348L748.353 90.6711C748.639 90.8999 748.685 91.3119 748.456 91.5979L747.322 93.0282L742.434 99.1614L741.392 100.466C741.163 100.752 740.751 100.798 740.465 100.569Z" fill="#200020"/>
<path d="M745.709 94.9689L744.074 97.0174C743.845 97.3039 743.892 97.7214 744.179 97.95L746.604 99.8838C746.891 100.112 747.308 100.065 747.537 99.7789L749.172 97.7304C749.401 97.4439 749.354 97.0263 749.067 96.7977L746.642 94.864C746.355 94.6354 745.937 94.6824 745.709 94.9689Z" fill="#200020"/>
<path d="M742.32 95.6371L743.957 93.5774C744.186 93.2914 744.14 92.8794 743.854 92.6506L742.388 91.4834L741.598 90.8541L740.168 89.7213C739.881 89.4925 739.469 89.5382 739.24 89.8243L737.603 91.8839C737.374 92.17 737.42 92.5819 737.706 92.8108L739.137 93.9436L739.927 94.5729L741.392 95.7401C741.679 95.9689 742.091 95.9232 742.32 95.6371Z" fill="#200020"/>
<path d="M1242.22 563.844C1244.73 569.714 1251.53 572.437 1257.4 569.931C1251.53 572.437 1248.8 579.234 1251.31 585.104C1248.8 579.234 1242 576.511 1236.13 579.017C1242 576.511 1244.73 569.714 1242.22 563.844Z" stroke="#D60080" stroke-width="3.5" stroke-linecap="round" stroke-linejoin="round"/>
<path d="M1215.88 545.398L1218.47 545.902C1218.82 545.97 1219.05 546.314 1218.98 546.68L1218.66 548.316L1217.15 556.006L1216.8 557.791C1216.73 558.145 1216.38 558.374 1216.02 558.306L1213.43 557.802C1213.08 557.733 1212.85 557.39 1212.92 557.024L1213.27 555.239L1214.78 547.55L1215.1 545.913C1215.17 545.559 1215.51 545.33 1215.88 545.398Z" fill="#200020"/>
<path d="M1209.91 549.295L1209.41 551.867C1209.34 552.226 1209.57 552.575 1209.93 552.645L1212.98 553.241C1213.34 553.312 1213.69 553.077 1213.76 552.718L1214.26 550.146C1214.33 549.786 1214.1 549.438 1213.74 549.367L1210.69 548.771C1210.33 548.701 1209.98 548.935 1209.91 549.295Z" fill="#200020"/>
<path d="M1216.51 550.628L1216.01 553.214C1215.94 553.568 1216.17 553.912 1216.52 553.992L1218.35 554.346L1219.35 554.541L1221.15 554.896C1221.5 554.964 1221.84 554.736 1221.92 554.381L1222.43 551.795C1222.5 551.44 1222.27 551.097 1221.91 551.017L1220.12 550.662L1219.12 550.467L1217.29 550.113C1216.93 550.044 1216.59 550.273 1216.51 550.628Z" fill="#200020"/>
<path d="M1158.25 409.689L1159.17 407.218C1159.29 406.874 1159.1 406.497 1158.73 406.382L1157.18 405.856L1155.58 405.433C1155.21 405.33 1154.84 405.536 1154.76 405.902L1154.16 408.465C1154.08 408.82 1154.29 409.174 1154.61 409.266L1156.03 409.644L1157.42 410.113C1157.74 410.216 1158.1 410.033 1158.24 409.689H1158.25Z" fill="#D60080"/>
<path d="M1152.09 408.053L1152.52 405.456C1152.57 405.101 1152.31 404.769 1151.93 404.712L1150.59 404.529C1150.48 404.506 1150.36 404.506 1150.26 404.494L1149.49 404.437C1147.43 404.266 1145.36 404.323 1143.31 404.529C1135.09 405.375 1127.3 409.026 1121.29 414.667C1118.3 417.493 1115.71 420.846 1114.06 424.759C1113.24 426.716 1112.66 428.81 1112.46 430.984C1112.28 433.192 1112.46 435.344 1113.08 437.495C1113.72 439.623 1114.76 441.74 1116.67 443.388C1117.65 444.177 1118.85 444.955 1120.63 444.978C1121.57 444.944 1122.55 444.566 1123.26 443.903C1123.58 443.548 1123.92 443.159 1124.07 442.781C1124.29 442.392 1124.4 442.026 1124.48 441.66C1124.81 440.207 1124.63 439.017 1124.43 437.884C1124.18 436.785 1123.86 435.744 1123.45 434.771C1122.65 432.815 1121.68 431.007 1120.59 429.29C1118.44 425.846 1116.01 422.734 1113.27 419.702C1110.49 416.738 1107.3 414.118 1103.77 412.035C1100.25 409.952 1096.37 408.431 1092.36 407.561C1088.35 406.68 1084.24 406.428 1080.19 406.657C1072.07 407.195 1064.27 409.552 1057.03 412.905C1055.22 413.751 1053.44 414.667 1051.7 415.651L1050.45 416.372L1049.31 417.07C1048.99 417.276 1048.88 417.699 1049.09 418.008L1050.56 420.182C1050.77 420.48 1051.13 420.583 1051.43 420.4L1052.47 419.759L1053.64 419.084C1055.29 418.157 1056.97 417.287 1058.7 416.486C1065.58 413.294 1072.97 411.097 1080.43 410.605C1087.88 410.136 1095.41 411.646 1101.76 415.445C1104.94 417.322 1107.84 419.679 1110.39 422.402C1112.87 425.148 1115.27 428.203 1117.23 431.373C1118.24 432.952 1119.1 434.588 1119.79 436.236C1120.14 437.06 1120.38 437.884 1120.57 438.685C1120.71 439.463 1120.77 440.252 1120.65 440.71C1120.47 441.191 1120.59 440.973 1120.52 441.019C1120.34 441.019 1119.72 440.813 1119.21 440.355C1118.15 439.463 1117.33 437.964 1116.87 436.373C1116.4 434.783 1116.25 432.986 1116.4 431.316C1116.55 429.611 1117.02 427.906 1117.7 426.281C1119.08 422.997 1121.34 420.033 1124 417.516C1129.35 412.481 1136.41 409.186 1143.71 408.442C1145.53 408.259 1147.38 408.202 1149.21 408.362L1149.89 408.408C1150 408.408 1150.1 408.408 1150.19 408.431L1151.38 408.591C1151.73 408.637 1152.05 408.385 1152.1 408.019L1152.09 408.053Z" fill="#D60080"/>
<path d="M851.154 498.747C851.154 498.747 906.618 504.056 902.485 551.829C898.353 599.602 881.834 570.698 893.636 559.495C905.439 548.293 946.743 535.901 962.083 555.365" stroke="#E9E4F2" stroke-width="3.5" stroke-miterlimit="10"/>
<path d="M966.811 522.341C966.811 522.341 988.641 498.747 1015.2 514.08C1041.75 529.413 1016.38 537.079 1016.38 521.163C1016.38 505.246 1038.21 479.878 1055.91 495.806" stroke="#E9E4F2" stroke-width="3.5" stroke-miterlimit="10"/>
<path d="M788.168 636.573C792.175 635.28 796.937 631.824 801.012 626.858C805.088 621.88 807.549 616.548 808.03 612.36L810.445 609.419L806.221 605.952C802.283 602.726 793.56 606.833 786.737 615.152C779.914 623.459 777.59 632.819 781.528 636.046L785.753 639.513L788.168 636.573Z" fill="#D60080" stroke="#E9E4F2" stroke-width="3.5" stroke-miterlimit="10"/>
<path d="M805.253 630.37C812.073 622.059 814.404 612.699 810.459 609.465C806.514 606.231 797.787 610.347 790.967 618.658C784.147 626.969 781.816 636.329 785.76 639.563C789.705 642.797 798.432 638.682 805.253 630.37Z" fill="#D60080" stroke="#E9E4F2" stroke-width="3.5" stroke-miterlimit="10"/>
<path d="M794.661 627.522L795.947 625.956L797.723 627.412L796.437 628.978L794.661 627.522ZM803.22 617.093L804.505 615.526L806.281 616.982L804.996 618.549L803.22 617.093ZM796.473 627.152C795.798 626.598 795.297 625.98 794.969 625.297C794.645 624.609 794.503 623.899 794.543 623.168C794.586 622.432 794.819 621.713 795.242 621.011L797.23 622.183C796.926 622.792 796.837 623.403 796.961 624.014C797.09 624.63 797.415 625.151 797.938 625.579C798.429 625.983 798.931 626.201 799.442 626.235C799.958 626.272 800.355 626.12 800.634 625.781C800.823 625.55 800.906 625.302 800.884 625.037C800.87 624.77 800.752 624.466 800.53 624.124L798.795 621.5C797.793 619.988 797.794 618.62 798.798 617.397C799.269 616.823 799.813 616.436 800.429 616.235C801.05 616.037 801.701 616.029 802.383 616.21C803.072 616.39 803.755 616.76 804.431 617.321C805.046 617.84 805.506 618.406 805.81 619.02C806.119 619.629 806.266 620.271 806.252 620.944C806.247 621.616 806.079 622.304 805.748 623.009L803.652 621.836C803.82 621.508 803.907 621.171 803.913 620.827C803.922 620.478 803.851 620.143 803.7 619.822C803.556 619.501 803.337 619.212 803.044 618.957C802.764 618.713 802.469 618.54 802.159 618.439C801.853 618.341 801.563 618.318 801.288 618.369C801.021 618.419 800.803 618.547 800.636 618.751C800.45 618.978 800.385 619.252 800.441 619.574C800.5 619.892 800.691 620.281 801.012 620.741L802.285 622.571C802.92 623.492 803.252 624.307 803.282 625.016C803.317 625.728 803.057 626.421 802.504 627.096C802.018 627.688 801.441 628.084 800.773 628.286C800.105 628.488 799.397 628.494 798.651 628.304C797.908 628.117 797.182 627.733 796.473 627.152Z" fill="#E9E4F2"/>
<path d="M547.421 103.155C551.829 105.031 556.866 109.437 560.975 115.49C565.085 121.543 567.317 127.848 567.432 132.642L569.859 136.224L564.719 139.714C559.922 142.963 550.455 137.402 543.586 127.287C536.718 117.172 535.046 106.324 539.843 103.074L544.983 99.5845L547.41 103.166L547.421 103.155Z" fill="#E9E4F2" stroke="#200020" stroke-width="3.5" stroke-miterlimit="10"/>
<path d="M569.869 136.229C574.672 132.972 572.998 122.128 566.131 112.009C559.263 101.889 549.802 96.3252 544.999 99.5818C540.195 102.838 541.869 113.682 548.737 123.802C555.604 133.922 565.065 139.486 569.869 136.229Z" fill="#E9E4F2" stroke="#200020" stroke-width="3.5" stroke-miterlimit="10"/>
<path d="M553.775 114.409L555.069 116.317L557.232 114.851L555.937 112.943L553.775 114.409ZM562.394 127.111L563.689 129.018L565.851 127.552L564.557 125.645L562.394 127.111ZM555.789 115.017C554.967 115.574 554.336 116.222 553.894 116.963C553.456 117.709 553.222 118.498 553.191 119.331C553.164 120.17 553.354 121.008 553.76 121.847L556.134 120.725C555.852 120.003 555.814 119.301 556.018 118.621C556.227 117.938 556.65 117.38 557.286 116.949C557.885 116.543 558.476 116.348 559.059 116.362C559.647 116.374 560.081 116.586 560.362 116.999C560.552 117.28 560.621 117.57 560.569 117.869C560.525 118.169 560.36 118.502 560.073 118.866L557.836 121.66C556.545 123.27 556.405 124.82 557.415 126.309C557.89 127.008 558.466 127.503 559.143 127.795C559.826 128.082 560.563 128.159 561.354 128.025C562.155 127.892 562.966 127.543 563.79 126.977C564.54 126.453 565.12 125.858 565.529 125.195C565.941 124.536 566.174 123.825 566.228 123.061C566.291 122.298 566.172 121.501 565.87 120.669L563.374 121.781C563.53 122.17 563.594 122.56 563.565 122.951C563.54 123.348 563.425 123.72 563.22 124.068C563.024 124.417 562.746 124.721 562.388 124.98C562.045 125.228 561.693 125.393 561.331 125.476C560.975 125.555 560.643 125.551 560.337 125.465C560.04 125.38 559.807 125.213 559.638 124.964C559.451 124.689 559.405 124.371 559.502 124.012C559.602 123.658 559.858 123.237 560.27 122.748L561.901 120.807C562.715 119.829 563.176 118.94 563.284 118.14C563.396 117.337 563.174 116.524 562.616 115.703C562.127 114.982 561.515 114.473 560.778 114.175C560.042 113.877 559.241 113.798 558.376 113.936C557.515 114.071 556.653 114.431 555.789 115.017Z" fill="#200020"/>
<path d="M1142.68 236.106C1146.45 233.142 1152.72 230.831 1160.01 230.133C1167.3 229.435 1173.9 230.487 1178.17 232.684L1182.48 232.273L1183.07 238.463C1183.63 244.23 1174.21 249.86 1162.03 251.038C1149.85 252.217 1139.53 248.487 1138.97 242.708L1138.38 236.518L1142.68 236.106Z" fill="#E9E4F2" stroke="#200020" stroke-width="3.5" stroke-miterlimit="10"/>
<path d="M1161.43 244.858C1173.61 243.684 1183.03 238.051 1182.47 232.276C1181.91 226.502 1171.59 222.773 1159.41 223.947C1147.24 225.121 1137.82 230.754 1138.37 236.528C1138.93 242.303 1149.25 246.032 1161.43 244.858Z" fill="#E9E4F2" stroke="#200020" stroke-width="3.5" stroke-miterlimit="10"/>
<path d="M1155.65 235.874L1157.95 235.653L1157.69 233.052L1155.4 233.274L1155.65 235.874ZM1170.93 234.401L1173.23 234.18L1172.97 231.579L1170.68 231.8L1170.93 234.401ZM1157.15 234.398C1157.24 235.386 1157.51 236.251 1157.95 236.994C1158.39 237.736 1158.98 238.32 1159.69 238.747C1160.42 239.172 1161.24 239.408 1162.17 239.453L1162.33 236.833C1161.56 236.733 1160.92 236.431 1160.42 235.926C1159.92 235.414 1159.64 234.776 1159.56 234.011C1159.49 233.291 1159.6 232.678 1159.9 232.174C1160.19 231.663 1160.58 231.384 1161.08 231.336C1161.42 231.304 1161.71 231.382 1161.94 231.572C1162.19 231.754 1162.4 232.058 1162.58 232.485L1163.96 235.787C1164.76 237.692 1166.05 238.558 1167.84 238.385C1168.68 238.304 1169.39 238.036 1169.97 237.582C1170.55 237.12 1170.97 236.51 1171.23 235.752C1171.5 234.986 1171.58 234.106 1171.48 233.113C1171.38 232.202 1171.14 231.409 1170.75 230.732C1170.37 230.055 1169.86 229.509 1169.21 229.095C1168.57 228.674 1167.82 228.396 1166.94 228.262L1166.72 230.985C1167.14 231.035 1167.51 231.167 1167.84 231.379C1168.18 231.591 1168.45 231.871 1168.65 232.218C1168.87 232.557 1169 232.947 1169.06 233.385C1169.11 233.805 1169.09 234.193 1168.99 234.55C1168.88 234.901 1168.72 235.19 1168.5 235.417C1168.28 235.637 1168.03 235.762 1167.73 235.791C1167.39 235.823 1167.09 235.71 1166.82 235.453C1166.56 235.196 1166.31 234.769 1166.08 234.174L1165.16 231.811C1164.69 230.628 1164.13 229.797 1163.48 229.319C1162.83 228.835 1162.01 228.641 1161.02 228.736C1160.16 228.82 1159.42 229.113 1158.8 229.616C1158.19 230.119 1157.73 230.784 1157.44 231.61C1157.15 232.43 1157.05 233.359 1157.15 234.398Z" fill="#200020"/>
<path d="M971.779 622.67C975.545 619.706 981.819 617.395 989.111 616.697C996.392 615.999 1003 617.052 1007.27 619.249L1011.57 618.837L1012.17 625.027C1012.73 630.794 1003.31 636.424 991.126 637.602C978.945 638.781 968.631 635.051 968.07 629.272L967.475 623.082L971.779 622.67Z" fill="#E9E4F2" stroke="#200020" stroke-width="3.5" stroke-miterlimit="10"/>
<path d="M990.535 631.404C1002.71 630.23 1012.13 624.597 1011.58 618.822C1011.02 613.048 1000.69 609.318 988.517 610.492C976.34 611.667 966.92 617.3 967.477 623.074C968.035 628.849 978.358 632.578 990.535 631.404Z" fill="#E9E4F2" stroke="#200020" stroke-width="3.5" stroke-miterlimit="10"/>
<path d="M984.736 622.427L987.031 622.206L986.78 619.605L984.485 619.826L984.736 622.427ZM1000.02 620.954L1002.31 620.733L1002.06 618.132L999.764 618.353L1000.02 620.954ZM986.234 620.951C986.329 621.939 986.596 622.804 987.035 623.547C987.479 624.289 988.06 624.873 988.777 625.299C989.5 625.725 990.327 625.96 991.258 626.006L991.41 623.386C990.641 623.286 990.007 622.984 989.508 622.478C989.008 621.967 988.722 621.329 988.648 620.564C988.578 619.843 988.69 619.231 988.982 618.727C989.274 618.216 989.668 617.937 990.165 617.889C990.503 617.856 990.791 617.935 991.028 618.124C991.27 618.307 991.483 618.611 991.666 619.037L993.046 622.34C993.841 624.245 995.134 625.111 996.925 624.938C997.767 624.857 998.478 624.589 999.058 624.134C999.637 623.673 1000.06 623.063 1000.32 622.305C1000.59 621.539 1000.67 620.659 1000.57 619.665C1000.47 618.755 1000.22 617.962 999.835 617.285C999.454 616.607 998.941 616.062 998.297 615.648C997.658 615.227 996.901 614.949 996.026 614.815L995.806 617.538C996.223 617.588 996.595 617.719 996.925 617.932C997.261 618.144 997.532 618.424 997.739 618.77C997.952 619.11 998.086 619.499 998.141 619.938C998.195 620.357 998.171 620.746 998.07 621.103C997.969 621.453 997.807 621.743 997.585 621.97C997.368 622.19 997.11 622.315 996.81 622.344C996.479 622.376 996.178 622.263 995.909 622.006C995.646 621.748 995.399 621.322 995.168 620.726L994.245 618.364C993.777 617.18 993.218 616.35 992.567 615.872C991.915 615.388 991.095 615.194 990.107 615.289C989.241 615.373 988.5 615.666 987.886 616.169C987.272 616.672 986.818 617.337 986.525 618.163C986.231 618.983 986.134 619.912 986.234 620.951Z" fill="#200020"/>
<path d="M679.666 77.7982L687.977 104.711C689.202 109.551 685.71 114.391 680.479 114.575C663.215 114.861 649.81 130.171 649.81 130.171L635.237 94.4242C634.081 91.3233 634.825 87.8104 637.011 85.808C651.871 72.0082 665.814 71.5048 673.164 72.2828C675.968 72.7062 678.487 74.7087 679.643 77.7982H679.666Z" fill="#E9E4F2"/>
<path d="M649.822 130.171L653.908 141.888C647.418 155.207 634.401 157.427 626.56 157.713C623.08 157.839 620.206 155.676 619.039 152.575L610.979 127.928C609.434 123.797 611.884 119.346 615.856 118.156C627.407 114.426 637.424 101.839 637.424 101.839" fill="#E9E4F2"/>
<path d="M646.731 121.921C646.731 121.921 662.803 112.961 653.233 99.1843C645.426 90.9228 634.905 94.2755 634.905 94.2755" stroke="#D60080" stroke-width="3.5" stroke-linecap="round" stroke-linejoin="round"/>
<path d="M639.278 109.105C639.278 109.105 623.205 118.065 632.776 131.841C640.583 140.103 651.104 136.75 651.104 136.75" stroke="#D60080" stroke-width="3.5" stroke-linecap="round" stroke-linejoin="round"/>
<path d="M679.185 83.5766C664.395 89.6984 660.663 73.4385 660.663 73.4385" stroke="#D60080" stroke-width="3.5" stroke-linecap="round" stroke-linejoin="round"/>
<path d="M673.484 113.968C671.778 100.775 684.176 96.1289 684.176 96.1289" stroke="#D60080" stroke-width="3.5" stroke-linecap="round" stroke-linejoin="round"/>
<path d="M613.509 129.93C625.06 126.2 621.397 116.382 621.397 116.382" stroke="#D60080" stroke-width="3.5" stroke-linecap="round" stroke-linejoin="round"/>
<path d="M632.089 155.939C630.772 143.776 618.283 145.801 618.283 145.801" stroke="#D60080" stroke-width="3.5" stroke-linecap="round" stroke-linejoin="round"/>
<path d="M679.666 77.7982L687.977 104.711C689.202 109.551 685.71 114.391 680.479 114.575C663.215 114.861 649.81 130.171 649.81 130.171L635.237 94.4242C634.081 91.3233 634.825 87.8104 637.011 85.808C651.871 72.0082 665.814 71.5048 673.164 72.2828C675.968 72.7062 678.487 74.7087 679.643 77.7982H679.666Z" stroke="#200020" stroke-width="3.5" stroke-linecap="round" stroke-linejoin="round"/>
<path d="M649.822 130.171L653.908 141.888C647.418 155.207 634.401 157.427 626.56 157.713C623.08 157.839 620.206 155.676 619.039 152.575L610.979 127.928C609.434 123.797 611.884 119.346 615.856 118.156C627.407 114.426 637.424 101.839 637.424 101.839" stroke="#200020" stroke-width="3.5" stroke-linecap="round" stroke-linejoin="round"/>
<path d="M638.969 620.221L663.41 606.216C667.863 603.961 673.347 606.307 674.686 611.365C678.739 628.139 696.632 637.854 696.632 637.854L664.921 659.893C662.151 661.701 658.556 661.746 656.129 660.041C639.404 648.576 635.855 635.097 634.997 627.75C634.791 624.924 636.199 622.029 638.969 620.221Z" fill="#E9E4F2"/>
<path d="M696.632 637.854L707.164 631.298C721.588 634.719 726.602 646.917 728.605 654.503C729.498 657.879 728.01 661.151 725.24 662.959L702.939 676.221C699.242 678.635 694.365 677.217 692.327 673.601C686.146 663.154 671.676 656.139 671.676 656.139" fill="#E9E4F2"/>
<path d="M689.248 642.683C689.248 642.683 676.976 628.963 665.631 641.321C659.278 650.75 664.853 660.27 664.853 660.27" stroke="#D60080" stroke-width="3.5" stroke-linecap="round" stroke-linejoin="round"/>
<path d="M678.372 652.752C678.372 652.752 690.644 666.472 701.989 654.114C708.343 644.685 702.768 635.165 702.768 635.165" stroke="#D60080" stroke-width="3.5" stroke-linecap="round" stroke-linejoin="round"/>
<path d="M644.716 619.432C653.931 632.511 638.878 639.72 638.878 639.72" stroke="#D60080" stroke-width="3.5" stroke-linecap="round" stroke-linejoin="round"/>
<path d="M675.625 618.333C663.113 622.887 655.878 611.811 655.878 611.811" stroke="#D60080" stroke-width="3.5" stroke-linecap="round" stroke-linejoin="round"/>
<path d="M704.348 673.326C698.166 662.879 689.397 668.612 689.397 668.612" stroke="#D60080" stroke-width="3.5" stroke-linecap="round" stroke-linejoin="round"/>
<path d="M725.675 649.503C714.09 653.45 718.806 665.19 718.806 665.19" stroke="#D60080" stroke-width="3.5" stroke-linecap="round" stroke-linejoin="round"/>
<path d="M638.969 620.221L663.41 606.216C667.863 603.961 673.347 606.307 674.686 611.365C678.739 628.139 696.632 637.854 696.632 637.854L664.921 659.893C662.151 661.701 658.556 661.746 656.129 660.041C639.404 648.576 635.855 635.097 634.997 627.75C634.791 624.924 636.199 622.029 638.969 620.221Z" stroke="#200020" stroke-width="3.5" stroke-linecap="round" stroke-linejoin="round"/>
<path d="M696.632 637.854L707.164 631.298C721.588 634.719 726.602 646.917 728.605 654.503C729.498 657.879 728.01 661.151 725.24 662.959L702.939 676.221C699.242 678.635 694.365 677.217 692.327 673.601C686.146 663.154 671.676 656.139 671.676 656.139" stroke="#200020" stroke-width="3.5" stroke-linecap="round" stroke-linejoin="round"/>
<path d="M1015.51 654.835C1015.51 654.835 1039.8 659.492 1053.71 643.587C1067.62 627.693 1087.63 612.269 1094.73 618.608C1101.83 624.947 1119.72 659.606 1115.31 660.339C1110.92 661.083 1089.87 672.662 1081.44 684.711C1066.61 705.88 1036.5 704.313 1028.39 699.06C1020.27 693.797 1006.19 660.304 1015.52 654.823L1015.51 654.835Z" fill="#D60080" stroke="#E9E4F2" stroke-width="3.5" stroke-linecap="round" stroke-linejoin="round"/>
<path d="M1079.85 669.626C1082.37 661.396 1078.09 652.79 1070.29 650.403C1062.49 648.017 1054.12 652.755 1051.6 660.985C1049.08 669.215 1053.36 677.822 1061.16 680.208C1068.96 682.594 1077.32 677.856 1079.85 669.626Z" stroke="#200020" stroke-width="3.5" stroke-linecap="round" stroke-linejoin="round"/>
<path d="M1022.15 687.801C1022.15 687.801 1037.36 685.238 1041.62 699.941" stroke="#200020" stroke-width="3.5" stroke-linecap="round" stroke-linejoin="round"/>
<path d="M1013.71 668.223C1013.71 668.223 1024.62 667.948 1026.52 656.689" stroke="#200020" stroke-width="3.5" stroke-linecap="round" stroke-linejoin="round"/>
<path d="M1103.84 663.348C1103.84 663.348 1099.01 657.238 1110.48 648.381" stroke="#200020" stroke-width="3.5" stroke-linecap="round" stroke-linejoin="round"/>
<path d="M1080.66 621.228C1080.66 621.228 1086.22 631.687 1098.56 626.709" stroke="#200020" stroke-width="3.5" stroke-linecap="round" stroke-linejoin="round"/>
<path d="M1015.51 654.835C1015.51 654.835 1039.8 659.492 1053.71 643.587C1067.62 627.693 1087.63 612.269 1094.73 618.608C1101.83 624.947 1119.72 659.606 1115.31 660.339C1110.92 661.083 1089.87 672.662 1081.44 684.711C1066.61 705.88 1036.5 704.313 1028.39 699.06C1020.27 693.797 1006.19 660.304 1015.52 654.823L1015.51 654.835Z" stroke="#E9E4F2" stroke-width="3.5" stroke-linecap="round" stroke-linejoin="round"/>
<path d="M1172.7 295.71C1172.7 295.71 1196.99 300.368 1210.9 284.462C1224.81 268.569 1244.82 253.144 1251.92 259.483C1259.01 265.822 1276.91 300.482 1272.5 301.214C1268.1 301.958 1247.06 313.538 1238.63 325.587C1223.8 346.756 1193.69 345.188 1185.58 339.936C1177.46 334.672 1163.38 301.18 1172.71 295.699L1172.7 295.71Z" fill="#E9E4F2" stroke="#D60080" stroke-width="3.5" stroke-linecap="round" stroke-linejoin="round"/>
<path d="M1237.04 310.477C1239.56 302.247 1235.28 293.64 1227.49 291.254C1219.69 288.868 1211.32 293.605 1208.8 301.836C1206.28 310.066 1210.56 318.672 1218.36 321.058C1226.16 323.445 1234.52 318.707 1237.04 310.477Z" stroke="#200020" stroke-width="3.5" stroke-linecap="round" stroke-linejoin="round"/>
<path d="M1179.33 328.676C1179.33 328.676 1194.54 326.113 1198.8 340.817" stroke="#200020" stroke-width="3.5" stroke-linecap="round" stroke-linejoin="round"/>
<path d="M1170.9 309.098C1170.9 309.098 1181.81 308.823 1183.71 297.564" stroke="#200020" stroke-width="3.5" stroke-linecap="round" stroke-linejoin="round"/>
<path d="M1261.03 304.224C1261.03 304.224 1256.2 298.113 1267.67 289.257" stroke="#200020" stroke-width="3.5" stroke-linecap="round" stroke-linejoin="round"/>
<path d="M1237.85 262.104C1237.85 262.104 1243.41 272.562 1255.75 267.585" stroke="#200020" stroke-width="3.5" stroke-linecap="round" stroke-linejoin="round"/>
<path d="M1172.7 295.71C1172.7 295.71 1196.99 300.368 1210.9 284.462C1224.81 268.569 1244.82 253.144 1251.92 259.483C1259.01 265.822 1276.91 300.482 1272.5 301.214C1268.1 301.958 1247.06 313.538 1238.63 325.587C1223.8 346.756 1193.69 345.188 1185.58 339.936C1177.46 334.672 1163.38 301.18 1172.71 295.699L1172.7 295.71Z" stroke="#D60080" stroke-width="3.5" stroke-linecap="round" stroke-linejoin="round"/>
</g>
<defs>
<clipPath id="clip0_81_3315">
<rect width="1359" height="804" fill="white"/>
</clipPath>
</defs>
</svg>
