<svg width="1202" height="901" viewBox="0 0 1202 901" fill="none" xmlns="http://www.w3.org/2000/svg">
<g clip-path="url(#clip0_60_9973)">
<path d="M992.885 901L1000.85 899.444C1000.85 899.444 1091.27 831.309 1063.24 751.617C1071.36 763.471 1087.49 767.775 1100.79 763.48C1122.43 756.494 1129.08 735.44 1130 714.758C1130.51 703.124 1130.99 691.213 1127.54 680.094C1127.4 679.626 1127.25 679.168 1127.09 678.71C1122.78 666.331 1126.95 652.693 1137.6 645.058C1144.36 640.209 1150.09 633.92 1154.08 626.609C1163.73 608.943 1162.89 586.028 1151.97 569.116C1149.56 565.403 1146.71 561.92 1143.62 558.589C1176.72 553.197 1202 524.469 1202 489.824C1202 452.555 1172.75 422.109 1135.96 420.229C1148.29 386.978 1148.46 355.129 1125.59 339.534C1107.93 327.49 1089.42 330.639 1076.62 336.986C1066.38 342.064 1054.32 335.011 1054.14 323.577C1053.54 286.823 1041.26 230.456 975.705 209.803C987.744 180.626 1002.85 125.08 974.865 70.5074C934.323 -8.53618 919.765 -36.6147 928.084 -81.338C936.402 -126.061 946.8 -151.019 927.044 -169.744C927.044 -169.744 946.628 -220.289 903.653 -232L-724 -227.82V901H992.885Z" fill="#D80080"/>
<path d="M1067.03 757.372C1067.03 757.372 1069.61 738.628 1060.47 741.042C1051.33 743.457 1067.03 757.372 1067.03 757.372Z" stroke="white" stroke-width="3.5" stroke-miterlimit="10"/>
<path d="M1145.9 559.515C1145.9 559.515 1135.94 543.433 1130.43 551.116C1124.93 558.808 1145.9 559.515 1145.9 559.515Z" stroke="white" stroke-width="3.5" stroke-miterlimit="10"/>
<path d="M1138.7 418.177C1138.7 418.177 1119.98 420.85 1124.81 428.981C1129.64 437.113 1138.7 418.177 1138.7 418.177Z" stroke="white" stroke-width="3.5" stroke-miterlimit="10"/>
<path d="M977.765 208.276C977.765 208.276 958.867 208.944 962.807 217.543C966.747 226.142 977.765 208.276 977.765 208.276Z" stroke="white" stroke-width="3.5" stroke-miterlimit="10"/>
</g>
<defs>
<clipPath id="clip0_60_9973">
<rect width="1926" height="1133" fill="white" transform="translate(-724 -232)"/>
</clipPath>
</defs>
</svg>
