<svg width="375" height="395" viewBox="0 0 375 395" fill="none" xmlns="http://www.w3.org/2000/svg">
<g clip-path="url(#clip0_81_4365)">
<path d="M238.325 218.07C238.267 218.07 238.209 218.07 238.145 218.052C237.594 217.953 237.223 217.425 237.321 216.873C239.997 201.811 247.426 191.394 247.739 190.958C248.215 190.302 251.535 185.808 254.849 183.595C254.762 183.392 254.687 183.171 254.617 182.945C253.659 179.728 254.681 174.723 256.997 171.303C260.003 166.86 262.551 160.293 260.682 155.189C260.432 154.51 260.183 153.871 259.939 153.279C258.581 150.021 260.009 146.322 263.195 144.847C265.708 143.686 268.668 144.232 270.572 146.2C273.573 149.319 277.92 155.421 275.401 162.825L288.448 158.981C291.594 158.052 294.943 159.114 296.98 161.687C299.58 164.968 299.214 169.735 296.138 172.539C292.279 176.058 286.115 180.425 278.657 181.273C276.556 181.511 274.53 180.471 273.514 178.619C272.795 177.312 272.673 175.762 273.178 174.357C273.683 172.952 274.774 171.837 276.167 171.291C279.493 169.984 283.991 167.819 286.504 164.904C286.869 164.48 287.514 164.433 287.937 164.799C288.361 165.165 288.407 165.809 288.042 166.233C285.256 169.468 280.45 171.796 276.91 173.19C276.062 173.521 275.401 174.2 275.093 175.054C274.786 175.907 274.861 176.848 275.296 177.643C275.917 178.77 277.148 179.403 278.43 179.258C285.354 178.474 291.135 174.357 294.774 171.041C297.061 168.957 297.334 165.403 295.395 162.953C293.875 161.036 291.379 160.241 289.028 160.932L273.932 165.38C273.544 165.496 273.126 165.368 272.864 165.055C272.603 164.741 272.557 164.306 272.737 163.946C274.629 160.171 275.54 154.277 269.121 147.606C267.821 146.258 265.79 145.887 264.06 146.688C261.872 147.698 260.891 150.248 261.825 152.495C262.081 153.11 262.348 153.784 262.603 154.486C265.285 161.814 260.287 170.077 258.691 172.435C256.492 175.692 255.888 180.036 256.579 182.358C256.608 182.446 256.637 182.538 256.672 182.637C257.153 182.463 257.623 182.364 258.07 182.364C259.475 182.364 260.537 182.899 260.92 183.816C261.181 184.443 261.048 185.134 260.566 185.616C260.206 185.97 259.132 186.702 256.886 185.755C256.573 185.628 256.288 185.448 256.027 185.227C253.793 186.725 251.019 189.919 249.405 192.143C249.33 192.247 241.93 202.641 239.341 217.228C239.254 217.721 238.825 218.064 238.343 218.064L238.325 218.07Z" fill="#200020"/>
<path d="M279.707 188.467C277.467 188.467 275.424 186.998 274.71 184.844C274.118 183.073 274.519 181.098 275.743 179.687L275.981 179.415C276.353 178.991 276.991 178.95 277.415 179.316C277.838 179.687 277.879 180.326 277.513 180.75L277.276 181.023C276.521 181.888 276.271 183.108 276.637 184.199C277.09 185.552 278.39 186.452 279.8 186.429C280.967 186.394 282.122 186.307 283.225 186.168C292.401 185.024 297.636 180.634 300.41 177.15C301.513 175.762 301.756 173.881 301.043 172.232C300.427 170.821 299.168 169.781 297.665 169.444L297.444 169.398C296.899 169.276 296.55 168.73 296.678 168.184C296.8 167.639 297.345 167.296 297.891 167.418L298.106 167.464C300.236 167.941 302.029 169.421 302.9 171.425C303.915 173.759 303.567 176.442 301.994 178.416C299.533 181.511 293.851 186.894 283.474 188.188C282.307 188.334 281.089 188.426 279.858 188.461C279.806 188.461 279.76 188.461 279.707 188.461V188.467Z" fill="#200020"/>
<path d="M287.38 194.762C285.709 194.762 284.13 193.972 283.097 192.607L282.952 192.416C281.704 190.761 281.506 188.578 282.441 186.725C282.69 186.226 283.3 186.023 283.805 186.272C284.304 186.522 284.507 187.137 284.258 187.637C283.677 188.792 283.799 190.157 284.577 191.191L284.716 191.382C285.413 192.305 286.504 192.811 287.63 192.718C290.624 192.485 296.272 191.231 300.416 185.442C302.023 183.195 302.122 180.228 300.665 177.893C300.369 177.417 300.514 176.79 300.99 176.494C301.466 176.198 302.093 176.343 302.389 176.819C304.281 179.856 304.153 183.706 302.064 186.626C297.444 193.083 291.135 194.483 287.786 194.744C287.647 194.756 287.514 194.762 287.374 194.762H287.38Z" fill="#200020"/>
<path d="M274.588 207.722C274.397 207.722 274.205 207.67 274.037 207.559C273.567 207.252 273.433 206.625 273.741 206.154C279.742 196.916 291.414 196.353 300.909 196.893C307.311 197.253 312.72 195.766 316.133 194.448C317.891 193.769 318.843 191.823 318.297 190.023C317.758 188.229 315.9 187.137 314.066 187.538C313.236 187.718 312.267 187.927 311.135 188.171C305.674 189.332 300.497 188.008 300.276 187.95C299.737 187.805 299.412 187.253 299.551 186.713C299.69 186.168 300.247 185.848 300.787 185.988C300.833 185.999 305.732 187.248 310.706 186.185C311.832 185.947 312.801 185.738 313.625 185.558C316.487 184.937 319.389 186.638 320.236 189.443C321.083 192.253 319.603 195.29 316.858 196.347C313.26 197.735 307.549 199.314 300.787 198.925C287.496 198.17 279.678 200.737 275.441 207.263C275.244 207.565 274.919 207.728 274.588 207.728V207.722Z" fill="#200020"/>
<path d="M270.81 168.022C270.723 168.022 270.636 168.016 270.549 167.999C269.986 167.9 269.359 167.435 269.295 166.425C269.254 165.827 269.452 165.269 269.858 164.811C270.908 163.615 273.131 163.423 273.567 163.394C273.921 163.382 274.257 163.539 274.46 163.824C274.664 164.114 274.698 164.486 274.559 164.811C274.037 166.013 272.272 168.016 270.804 168.016L270.81 168.022Z" fill="#200020"/>
<path d="M123.216 193.403L121.185 193.333C121.899 172.737 109.978 160.769 108.62 159.474L110.018 158C111.446 159.358 123.959 171.918 123.216 193.397V193.403Z" fill="#200020"/>
<path d="M77.3597 157.883L76.373 156.983C76.2395 156.861 76.2221 156.652 76.3324 156.519C76.4949 156.333 76.6632 156.147 76.8141 155.955L77.2726 155.375C77.4642 155.09 77.6789 154.817 77.8472 154.521C78.2187 153.946 78.5031 153.342 78.7004 152.744C78.8919 152.14 78.9732 151.542 78.9152 150.973C78.8513 150.41 78.6307 149.882 78.2825 149.405C77.9343 148.929 77.4584 148.511 76.9186 148.163C76.6458 147.989 76.3614 147.832 76.0654 147.692L75.9958 147.658L75.3225 148.279C75.0439 148.546 74.7654 148.819 74.4926 149.098C73.9528 149.655 73.4305 150.23 72.9371 150.828C71.9447 152.018 71.0625 153.284 70.3544 154.626C69.6463 155.961 69.1239 157.384 68.9324 158.824C68.8396 159.544 68.8338 160.264 68.9092 160.972C68.9963 161.681 69.1994 162.349 69.4548 163.092C70.4356 165.966 72.171 168.597 74.7421 169.978C76.0132 170.681 77.4526 171.064 78.921 171.175C79.6581 171.227 80.4067 171.215 81.1438 171.14C81.5153 171.099 81.8809 171.047 82.2466 170.977C82.4265 170.942 82.6064 170.902 82.7864 170.861L83.0707 170.786C83.2623 170.733 83.4538 170.635 83.6511 170.71C83.7614 170.728 83.8891 170.751 83.9761 170.768L84.1677 170.809L84.5333 170.902C84.7771 170.96 85.0093 171.041 85.253 171.111C85.7231 171.273 86.1874 171.436 86.6343 171.645C87.0929 171.831 87.5224 172.08 87.9577 172.307C88.3813 172.562 88.805 172.818 89.2055 173.108C90.819 174.264 92.1829 175.762 93.187 177.469C94.2259 179.165 94.7947 181.081 95.1603 182.974L95.3518 184.193C95.3809 184.385 95.259 184.553 95.0732 184.576L93.7441 184.716C93.5584 184.733 93.3901 184.611 93.3611 184.437L93.187 183.34C92.8561 181.632 92.357 179.949 91.4632 178.491C90.5984 177.022 89.4318 175.739 88.0505 174.746C87.7023 174.502 87.3366 174.275 86.971 174.055C86.5937 173.857 86.2223 173.642 85.8276 173.486C85.4387 173.306 85.0383 173.161 84.6378 173.027C84.4347 172.969 84.2315 172.899 84.0284 172.847L83.7266 172.771L83.5641 172.737L83.2681 172.812C83.0533 172.864 82.8444 172.911 82.6296 172.952C82.2059 173.033 81.7823 173.091 81.3528 173.143C80.4996 173.23 79.6348 173.248 78.7759 173.184C77.0579 173.056 75.3225 172.603 73.7787 171.75C73.0126 171.32 72.2871 170.815 71.6312 170.234C70.9928 169.636 70.3892 169.003 69.8843 168.3C68.8454 166.913 68.1141 165.351 67.5569 163.771C67.2899 162.999 67.0171 162.128 66.9127 161.239C66.8082 160.351 66.8256 159.457 66.9359 158.586C67.168 156.838 67.7832 155.206 68.5726 153.714C69.3619 152.216 70.3253 150.845 71.3875 149.568C71.9156 148.929 72.4728 148.314 73.0474 147.722C73.3376 147.425 73.6336 147.135 73.9296 146.851L74.3881 146.427L74.6202 146.218L75.0381 145.858L75.4618 145.509L75.5663 145.422C75.6011 145.393 75.6534 145.439 75.694 145.445L75.9494 145.532C76.1177 145.59 76.2918 145.643 76.4659 145.718C76.6284 145.782 76.8431 145.875 76.907 145.904C77.2842 146.078 77.6499 146.281 77.9981 146.508C78.7004 146.961 79.362 147.53 79.8902 148.25C80.4184 148.964 80.7898 149.853 80.8943 150.764C80.9987 151.676 80.8594 152.57 80.6041 153.377C80.3429 154.184 79.9772 154.928 79.5478 155.601C79.3446 155.95 79.1009 156.263 78.8803 156.588L78.3696 157.244C78.2013 157.459 78.0156 157.657 77.8356 157.866C77.7079 158.011 77.4932 158.028 77.3597 157.906V157.883Z" fill="#200020"/>
<path d="M80.0933 130.267L81.3295 130.778C81.5036 130.848 81.6894 130.807 81.7416 130.691C81.9331 130.342 82.2117 129.982 82.5135 129.663C82.6238 129.559 82.618 129.361 82.4903 129.228L81.5849 128.246C81.463 128.107 81.2308 128.118 81.0741 128.264C80.6562 128.711 80.279 129.181 79.9656 129.75C79.8553 129.965 79.9134 130.197 80.0875 130.267H80.0933Z" fill="#200020"/>
<path d="M82.589 127.485L83.2855 128.624C83.3842 128.78 83.5641 128.844 83.6918 128.769L84.1561 128.565L84.2722 128.531L84.3302 128.513H84.3592L84.4521 128.478C84.5565 128.438 84.6552 128.432 84.7597 128.42C85.5839 128.304 86.4196 128.565 87.1799 129.152L87.7255 129.634C87.9112 129.796 88.0621 130.006 88.2362 130.186L88.4916 130.47L88.747 130.795C88.9153 131.01 89.0836 131.231 89.2461 131.451C90.5636 133.222 91.7766 135.098 92.8736 137.02C93.9589 138.942 94.9514 140.934 95.6014 142.972C95.9206 143.982 96.1644 145.027 96.147 145.968C96.1354 146.438 96.0599 146.868 95.9032 147.199C95.7349 147.524 95.5201 147.768 95.1835 147.942C95.0152 148.024 94.8295 148.111 94.6205 148.146C94.5161 148.163 94.4174 148.192 94.3129 148.209L93.9937 148.233C93.5642 148.233 93.1173 148.18 92.6704 148.018C91.765 147.727 90.877 147.158 90.0471 146.52C88.3813 145.207 86.9187 143.541 85.5664 141.805C84.8932 140.928 84.249 140.028 83.6395 139.11C83.3319 138.652 83.0359 138.181 82.7457 137.717L82.5136 137.334L82.2524 136.956L81.7591 136.259C79.1125 132.56 76.3324 128.972 73.3376 125.529C71.8402 123.81 70.2789 122.137 68.6132 120.546C66.9359 118.973 65.1831 117.44 63.0647 116.261C61.9967 115.698 60.8127 115.164 59.3502 115.181C58.6305 115.198 57.8411 115.413 57.2201 115.866C56.8951 116.081 56.6687 116.348 56.4134 116.604C56.1754 116.865 55.9839 117.184 55.804 117.492C55.1481 118.81 55.1772 120.244 55.4209 121.458C55.6705 122.695 56.1232 123.81 56.6339 124.878C57.667 127.003 58.9671 128.925 60.3426 130.766C61.724 132.601 63.1982 134.355 64.7304 136.044C65.4965 136.892 66.28 137.723 67.081 138.536C67.4814 138.942 67.8877 139.348 68.2998 139.749C68.7002 140.144 69.1588 140.562 69.6637 140.945C70.1803 141.317 70.72 141.677 71.3875 141.921C72.0433 142.147 72.8443 142.327 73.7381 142.008C73.9586 141.95 74.1675 141.787 74.3707 141.665C74.5448 141.497 74.7479 141.329 74.8698 141.119C74.9337 141.015 74.9975 140.91 75.0555 140.8C75.1078 140.69 75.1368 140.579 75.1716 140.469C75.2529 140.243 75.2645 140.028 75.2877 139.813C75.3109 139.383 75.2355 138.988 75.1252 138.623C75.0729 138.437 74.9917 138.28 74.9163 138.106L74.8582 137.978L74.7653 137.815C74.6957 137.699 74.6377 137.635 74.5738 137.543C74.0805 136.956 73.6104 136.614 73.1229 136.242C72.6411 135.888 72.1536 135.562 71.6661 135.249C70.6852 134.628 69.6869 134.059 68.677 133.513C66.6573 132.433 64.5853 131.457 62.4727 130.575C60.3542 129.698 58.201 128.908 55.9607 128.298C54.8405 127.996 53.7029 127.741 52.5247 127.573C51.3465 127.416 50.1336 127.329 48.8451 127.538C48.2067 127.648 47.5276 127.851 46.8892 128.264C46.5758 128.473 46.2681 128.728 46.0302 129.047C45.8967 129.198 45.8038 129.373 45.6994 129.541C45.6123 129.733 45.5078 129.918 45.4614 130.122C45.2118 130.94 45.3453 131.736 45.5543 132.38C45.769 133.037 46.0766 133.6 46.4074 134.122C47.7597 136.19 49.4661 137.757 51.184 139.29C54.6606 142.304 58.3809 144.917 62.1651 147.426C64.063 148.674 65.9782 149.888 67.9167 151.066L69.0021 151.717L69.5651 152.048C69.7276 152.141 69.9307 152.088 70.0236 151.931L70.691 150.776C70.7839 150.619 70.7316 150.416 70.5749 150.323L70.0236 149.998L68.9556 149.353C67.0403 148.186 65.1367 146.99 63.2678 145.753C59.5301 143.274 55.8504 140.69 52.5015 137.781C50.8532 136.323 49.2223 134.773 48.1022 133.048C47.5566 132.212 47.191 131.237 47.3883 130.697C47.3999 130.621 47.4463 130.563 47.4696 130.493C47.5218 130.424 47.5508 130.348 47.6088 130.284C47.7075 130.151 47.841 130.04 47.9977 129.936C48.3111 129.733 48.729 129.587 49.1991 129.512C50.1393 129.355 51.2073 129.413 52.2636 129.558C53.3257 129.709 54.3878 129.947 55.4499 130.232C57.5684 130.807 59.6578 131.573 61.7123 132.421C63.7611 133.28 65.7809 134.227 67.7368 135.278C68.7119 135.801 69.6753 136.352 70.6039 136.939C71.0625 137.235 71.521 137.537 71.9447 137.85C72.3567 138.158 72.792 138.512 73.0184 138.791C73.0358 138.82 73.0706 138.855 73.0706 138.866L73.088 138.89L73.1171 138.959C73.1519 139.052 73.2041 139.139 73.2273 139.227C73.2796 139.401 73.3086 139.569 73.297 139.703C73.2854 139.767 73.297 139.836 73.268 139.877C73.2564 139.9 73.2563 139.929 73.2505 139.947C73.2331 139.958 73.2273 139.976 73.2157 139.993C73.2099 140.039 73.1635 140.034 73.1519 140.074C73.1054 140.074 73.0996 140.121 73.0416 140.127C72.8617 140.196 72.4844 140.179 72.0897 140.028C71.6893 139.888 71.2772 139.621 70.8825 139.331C70.1164 138.745 69.3039 137.891 68.5261 137.119C67.7484 136.323 66.9823 135.51 66.2278 134.686C64.7304 133.037 63.291 131.324 61.9561 129.553C60.6328 127.782 59.3908 125.935 58.4506 124.001C57.9862 123.038 57.5916 122.039 57.3942 121.057C57.1969 120.076 57.2317 119.13 57.5916 118.404C57.7019 118.235 57.7947 118.055 57.934 117.904C58.0849 117.765 58.2184 117.591 58.3693 117.498C58.6653 117.283 59.0135 117.184 59.414 117.173C60.2323 117.144 61.2074 117.521 62.1128 118.009C63.9469 119.025 65.6358 120.477 67.2377 121.986C68.8396 123.514 70.3602 125.145 71.8286 126.829C74.7653 130.203 77.5164 133.757 80.1224 137.403L80.6041 138.088C80.7898 138.344 80.8595 138.46 81.0278 138.745C81.3296 139.238 81.643 139.726 81.9622 140.202C82.6006 141.16 83.2681 142.095 83.9703 143.012C85.3865 144.83 86.9187 146.595 88.805 148.082C89.7569 148.808 90.79 149.499 92.0378 149.905C92.653 150.12 93.3379 150.224 94.0343 150.219L94.5625 150.184C94.7366 150.16 94.9107 150.114 95.0849 150.079C95.4331 150.009 95.7697 149.87 96.1063 149.702C96.7796 149.365 97.3716 148.738 97.6966 148.053C98.0216 147.362 98.1203 146.653 98.1319 145.997C98.1493 144.673 97.8475 143.494 97.4935 142.356C96.768 140.092 95.7233 138.025 94.5973 136.015C93.454 134.018 92.2061 132.096 90.8364 130.244C90.6681 130.011 90.494 129.779 90.314 129.553L90.0471 129.21L89.7394 128.862C89.5247 128.635 89.339 128.385 89.101 128.176L88.3755 127.543L87.534 127.003C87.2205 126.864 86.9071 126.713 86.5821 126.603C85.9088 126.417 85.1776 126.301 84.4753 126.429C84.2954 126.446 84.1213 126.469 83.9529 126.527L83.802 126.568L83.7556 126.58L83.6569 126.609L83.4654 126.667C83.2158 126.76 82.9837 126.876 82.7399 126.98C82.5484 127.091 82.4729 127.311 82.5716 127.468L82.589 127.485Z" fill="#200020"/>
<path d="M99.995 144.534C98.0333 144.534 96.3559 143.883 96.2457 143.837L97.0002 141.95L96.6229 142.896L96.9944 141.95C97.0292 141.967 100.546 143.326 102.584 141.758C103.001 141.439 103.141 140.562 102.961 139.36C102.235 134.424 96.8899 126.214 93.5759 124.954C92.2352 124.443 91.1266 124.437 90.2793 124.925C88.7122 125.836 88.3291 128.188 88.3233 128.211L86.3152 127.909C86.3326 127.776 86.8375 124.588 89.2462 123.177C90.6507 122.352 92.3513 122.312 94.2956 123.055C97.9811 124.46 104.04 132.787 104.963 139.064C105.265 141.102 104.876 142.548 103.814 143.367C102.653 144.261 101.26 144.54 99.9834 144.54L99.995 144.534Z" fill="#200020"/>
<path d="M102.729 162.326C102.729 162.326 102.682 162.326 102.659 162.326C101.487 162.308 100.645 161.733 100.401 160.781C100.053 159.411 101.115 157.628 102.874 156.635C103.477 156.298 104.098 156.078 104.737 155.979C104.714 152.1 103.408 146.497 102.235 142.867L104.168 142.246C104.516 143.326 106.797 150.614 106.757 156.072C107.906 156.345 109.032 157.007 110.036 158.029L108.591 159.457C107.888 158.749 107.221 158.342 106.606 158.133C106.437 159.242 106.118 160.2 105.596 160.909C104.905 161.838 103.913 162.331 102.723 162.331L102.729 162.326ZM102.369 160.247C102.421 160.264 102.526 160.293 102.694 160.293C103.268 160.316 103.663 160.119 103.971 159.695C104.261 159.306 104.458 158.76 104.58 158.098C104.29 158.185 104.04 158.307 103.843 158.423C102.775 159.045 102.351 159.962 102.369 160.241V160.247Z" fill="#200020"/>
<path d="M413 353.684L412.054 348.836C412.054 348.836 370.62 293.8 322.157 310.86C322.157 310.86 342.97 296.599 318.565 271.352C308.843 261.295 297.409 259.988 288.088 261.387C282.754 262.189 278.477 257.224 280.073 252.068C282.859 243.062 282.186 230.897 269.202 217.477C242.278 189.64 209.074 211.195 209.074 211.195L180.855 177.574C180.855 177.574 157.721 160.415 131.394 176.778C105.068 193.142 93.0999 248.212 128.602 271.357C128.602 271.357 82.7341 247.016 69.9655 272.954C64.2196 284.626 66.1523 294.927 70.0119 302.725C73.0996 308.962 68.8105 316.301 61.8574 316.411C39.5065 316.777 5.22864 324.25 -7.33102 364.154C-25.0736 356.826 -58.8524 347.628 -92.0392 364.665C-140.107 389.343 -157.182 398.204 -184.379 393.141C-211.577 388.077 -226.754 381.748 -238.141 393.774C-238.141 393.774 -268.879 381.853 -276 408.012H413V353.696V353.684Z" fill="#D60080"/>
<path d="M207.977 159.219C206.16 150.608 205.174 141.723 205.812 132.921C205.882 131.968 208.47 118.259 208.447 118.247C207.594 117.875 206.625 118.247 205.748 118.555C201.076 120.21 195.777 120.03 191.227 118.073C190.768 117.875 190.31 117.661 189.816 117.597C189.288 117.527 188.754 117.643 188.232 117.754C184.494 118.526 180.693 118.996 176.879 119.147C174.181 119.257 171.662 119.06 169.114 118.143C166.926 117.353 167.28 118.021 166.966 119.972C166.45 123.154 166.026 126.33 165.823 129.547C165.15 140.074 166.241 150.817 169.688 160.816C177.268 182.765 192.823 238.631 175.272 262.177L224.332 260.18C236.3 225.862 213.961 187.55 207.977 159.219Z" fill="#D60080"/>
<path d="M181.563 118.387L180.344 117.847C180.176 117.771 179.961 117.887 179.897 118.073C179.7 118.607 179.532 119.13 179.387 119.658C179.335 119.844 179.439 120.03 179.619 120.082L180.907 120.431C181.087 120.477 181.267 120.378 181.314 120.21C181.447 119.722 181.604 119.246 181.766 118.793C181.83 118.63 181.732 118.474 181.563 118.398V118.387Z" fill="#E9E4F2"/>
<path d="M180.64 121.487L179.34 121.191C179.16 121.151 178.975 121.267 178.94 121.453L178.818 122.051L178.76 122.347L178.708 122.596L178.655 122.922C178.499 123.793 178.383 124.664 178.278 125.54C178.098 127.288 177.965 129.042 177.959 130.79C177.901 134.291 178.151 137.787 178.609 141.242L178.731 142.171C178.754 142.357 178.922 142.484 179.102 142.455L180.426 142.258C180.606 142.229 180.739 142.06 180.716 141.88L180.6 140.975C180.147 137.601 179.909 134.204 179.967 130.819C179.967 129.123 180.106 127.439 180.275 125.761C180.379 124.925 180.49 124.089 180.635 123.264L180.687 122.956L180.733 122.718L180.791 122.44L180.907 121.876C180.942 121.702 180.832 121.528 180.652 121.487H180.64Z" fill="#E9E4F2"/>
<path d="M187.75 151.891C187.564 151.182 183.211 134.448 185.684 127.642L187.593 128.339C185.336 134.552 189.671 151.211 189.718 151.38L187.756 151.897L187.75 151.891Z" fill="#E9E4F2"/>
<path d="M194.013 137.113C192.8 128.618 195.998 117.126 196.137 116.639L198.093 117.19C198.058 117.306 194.877 128.757 196.027 136.823L194.018 137.107L194.013 137.113Z" fill="#E9E4F2"/>
<path d="M176.084 262.781L174.453 261.567C181.894 251.586 184.059 234.584 180.89 211.032C177.982 189.385 171.412 168.933 168.719 161.147C161.128 139.168 166.432 117.434 166.49 117.219L168.458 117.713C168.406 117.922 163.252 139.093 170.64 160.485C174.958 172.992 195.516 236.709 176.078 262.787L176.084 262.781Z" fill="#E9E4F2"/>
<path d="M225.29 260.517L223.375 259.849C231.848 235.548 222.817 209.023 214.854 185.616C211.68 176.297 208.685 167.488 206.984 159.434C200.995 131.063 208.11 117.545 208.412 116.981L210.194 117.957L209.3 117.469L210.194 117.951C210.124 118.085 203.148 131.457 208.969 159.01C210.647 166.948 213.624 175.699 216.775 184.96C224.843 208.675 233.996 235.554 225.29 260.517Z" fill="#E9E4F2"/>
<path d="M194.21 239.653L192.225 239.206C195.725 223.644 189.886 195.627 189.828 195.342L191.813 194.924C191.83 194.994 193.328 202.159 194.372 211.177C195.777 223.342 195.719 232.917 194.204 239.653H194.21Z" fill="#E9E4F2"/>
<path d="M200.751 203.553L199.457 203.878C199.277 203.924 199.167 204.093 199.207 204.267C199.323 204.766 199.428 205.272 199.532 205.777C199.567 205.957 199.741 206.073 199.921 206.038L201.233 205.783C201.413 205.748 201.535 205.568 201.494 205.388C201.389 204.865 201.279 204.343 201.157 203.814C201.117 203.634 200.931 203.506 200.751 203.553Z" fill="#E9E4F2"/>
<path d="M201.436 206.892L200.118 207.124C199.938 207.159 199.817 207.327 199.846 207.507L199.944 208.082L200.066 208.849C200.182 209.551 200.263 210.26 200.362 210.968C200.525 212.385 200.676 213.802 200.739 215.218C200.89 218.052 200.855 220.903 200.42 223.661L200.275 224.544C200.246 224.718 200.368 224.892 200.548 224.927L201.86 225.194C202.039 225.229 202.214 225.107 202.243 224.921L202.399 223.975C202.869 221.019 202.898 218.046 202.742 215.114C202.672 213.645 202.521 212.182 202.353 210.724C202.254 209.998 202.167 209.267 202.045 208.547L201.923 207.757L201.819 207.165C201.79 206.979 201.616 206.857 201.43 206.892H201.436Z" fill="#E9E4F2"/>
<path d="M317.578 315.302C317.351 315.302 317.131 315.279 316.916 315.227C316.167 315.047 315.187 314.483 314.745 312.805C314.293 311.081 314.873 309.96 315.436 309.321C317.891 306.546 324.995 307.44 325.796 307.55L327.677 307.812L326.417 309.234C325.471 310.297 320.863 315.302 317.572 315.302H317.578ZM322.418 309.362C320.178 309.362 317.833 309.687 316.963 310.668C316.742 310.918 316.469 311.365 316.713 312.288C316.939 313.142 317.276 313.223 317.386 313.247C318.628 313.537 321.345 311.452 323.463 309.379C323.121 309.362 322.767 309.356 322.412 309.356L322.418 309.362Z" fill="#E9E4F2"/>
<path d="M14.0098 160.566L14.4742 161.82C14.538 161.995 14.7237 162.093 14.892 162.041L16.3256 161.588C16.4939 161.53 16.5926 161.35 16.5461 161.176L16.2153 159.881C16.1689 159.695 15.9832 159.596 15.7974 159.655L14.2246 160.148C14.0388 160.206 13.946 160.392 14.0098 160.566Z" fill="#D60080"/>
<path d="M17.353 159.643L17.6084 160.955C17.6432 161.135 17.8115 161.257 17.9798 161.216C18.1829 161.182 18.3803 161.118 18.5834 161.106L19.2277 161.048C20.7657 160.851 22.3095 160.99 23.7837 161.327C26.7553 162.006 29.3264 163.957 31.0502 166.477C31.8976 167.755 32.536 169.172 32.9191 170.646C33.337 172.191 33.6736 174.043 35.0607 175.576C35.7688 176.325 36.7032 176.802 37.5854 177.08C38.4792 177.359 39.3324 177.475 40.174 177.591C41.8513 177.794 43.4822 177.905 45.1073 178.073C45.9198 178.149 46.7266 178.247 47.5391 178.334C48.2995 178.445 49.0366 178.573 49.7562 178.822C51.2072 179.269 52.5595 180.036 53.8015 180.947C56.2508 182.823 58.2416 185.401 59.3733 188.258C59.9305 189.681 60.2613 191.208 60.1162 192.596C60.0408 193.287 59.826 193.914 59.4662 194.402C59.1237 194.866 58.555 195.302 58.0848 195.371C57.6031 195.482 57.2781 195.29 57.0692 194.947C56.9647 194.767 56.9299 194.518 56.9182 194.251C56.9357 194.111 56.9241 193.972 56.9705 193.827L57.0169 193.606L57.0982 193.38C57.5509 192.16 58.6768 191.051 59.9015 190.157C62.4204 188.363 65.4906 187.248 68.5667 186.365C71.6602 185.5 74.8756 184.896 78.0793 184.553C79.6754 184.292 81.2889 184.304 82.8966 184.211C83.7033 184.147 84.5043 184.205 85.3052 184.234C86.1061 184.269 86.9129 184.286 87.7138 184.333C90.906 184.658 94.0749 185.227 97.122 186.232C100.152 187.265 103.054 188.659 105.7 190.436C107.006 191.341 108.283 192.305 109.415 193.403L110.082 194.071C110.233 194.216 110.355 194.367 110.494 194.518C110.616 194.645 110.79 194.634 110.941 194.523L111.986 193.693C112.137 193.589 112.131 193.339 111.997 193.194C111.841 193.025 111.69 192.84 111.527 192.683L110.796 191.951C109.566 190.761 108.213 189.733 106.82 188.769C104.011 186.876 100.941 185.407 97.7488 184.321C94.5392 183.264 91.2136 182.666 87.8763 182.329C87.0406 182.277 86.199 182.26 85.3632 182.219C84.5275 182.19 83.6859 182.132 82.8501 182.196C81.1786 182.289 79.4955 182.277 77.8472 182.55C74.5157 182.91 71.2481 183.52 68.0153 184.42C64.8058 185.349 61.5846 186.487 58.7175 188.519C57.3245 189.559 55.9316 190.801 55.2003 192.677L55.0726 193.031L54.9856 193.414C54.9217 193.664 54.9101 193.943 54.8927 194.21C54.8985 194.762 54.9855 195.348 55.2873 195.888C55.5834 196.428 56.0651 196.893 56.6513 197.148C57.2375 197.415 57.8875 197.444 58.4505 197.322C58.7465 197.282 58.9961 197.16 59.2572 197.067C59.4894 196.939 59.7448 196.823 59.9421 196.666C60.1452 196.509 60.36 196.364 60.5341 196.173C60.7256 195.993 60.8997 195.801 61.0448 195.586C61.6658 194.744 61.9677 193.757 62.0721 192.822C62.2637 190.929 61.8342 189.158 61.2073 187.526C59.9131 184.275 57.7366 181.464 54.9739 179.345C53.5752 178.311 52.0256 177.434 50.3366 176.906C49.5009 176.622 48.6129 176.459 47.7481 176.337C46.9239 176.244 46.0998 176.145 45.2756 176.07C43.6331 175.901 41.979 175.785 40.4003 175.594C39.6168 175.489 38.8391 175.373 38.16 175.158C37.4809 174.938 36.918 174.641 36.4885 174.189C36.0474 173.753 35.7514 173.091 35.4786 172.412C35.3683 172.046 35.2232 171.709 35.142 171.32C35.0433 170.931 34.9562 170.588 34.8344 170.141C34.3933 168.434 33.662 166.814 32.6927 165.351C30.731 162.453 27.713 160.165 24.2422 159.37C22.5301 158.969 20.7425 158.824 19.0187 159.045L18.2932 159.114C18.0611 159.126 17.8463 159.196 17.62 159.236C17.4284 159.277 17.3066 159.451 17.3414 159.637L17.353 159.643Z" fill="#D60080"/>
<path d="M202.991 48.1025H171.197C167.716 48.1025 164.894 50.9259 164.894 54.4086V117.794C164.894 121.277 167.716 124.1 171.197 124.1H202.991C206.472 124.1 209.294 121.277 209.294 117.794V54.4086C209.294 50.9259 206.472 48.1025 202.991 48.1025Z" fill="#200020"/>
<path d="M202.991 125.354H171.197C167.03 125.354 163.641 121.963 163.641 117.794V54.4084C163.641 50.2392 167.03 46.8481 171.197 46.8481H202.991C207.158 46.8481 210.548 50.2392 210.548 54.4084V117.794C210.548 121.963 207.158 125.354 202.991 125.354ZM171.197 49.3566C168.411 49.3566 166.148 51.6212 166.148 54.4084V117.794C166.148 120.581 168.411 122.846 171.197 122.846H202.991C205.777 122.846 208.041 120.581 208.041 117.794V54.4084C208.041 51.6212 205.777 49.3566 202.991 49.3566H171.197Z" fill="#200020"/>
<path d="M174.761 77.7397L177.964 77.7346C178.336 77.734 178.638 78.0355 178.639 78.4071L178.643 81.1363C178.644 81.5079 178.342 81.8103 177.971 81.8109L174.767 81.8159C174.396 81.8165 174.093 81.5151 174.093 81.1434L174.088 78.4143C174.088 78.0427 174.389 77.7402 174.761 77.7397Z" fill="#D60080"/>
<path d="M197.483 77.7221H194.727C194.349 77.7221 194.053 78.0357 194.053 78.4015L194.071 89.4342C194.071 89.6606 193.775 89.7419 193.67 89.5387L187.245 78.0299C187.141 77.8441 186.949 77.7337 186.729 77.7337H182.144C181.766 77.7395 181.47 78.0473 181.47 78.4131L181.499 96.0422C181.499 96.4196 181.807 96.7157 182.173 96.7157H184.93C185.307 96.7157 185.603 96.4022 185.603 96.0364L185.585 84.6727C185.585 84.4462 185.881 84.3649 185.986 84.5682L192.591 96.4196C192.695 96.6054 192.887 96.7157 193.107 96.7157H197.489C197.867 96.7099 198.162 96.4022 198.162 96.0364L198.133 78.3899C198.133 78.0125 197.826 77.7163 197.46 77.7163H197.483V77.7221Z" fill="#E9E4F2"/>
<path d="M190.304 55.0065H183.885C183.322 55.0065 182.869 54.5535 182.869 53.9903C182.869 53.427 183.322 52.9741 183.885 52.9741H190.304C190.867 52.9741 191.319 53.427 191.319 53.9903C191.319 54.5535 190.867 55.0065 190.304 55.0065Z" fill="#E9E4F2"/>
<path d="M187.431 25.6885H188.766C188.952 25.6885 189.103 25.8394 189.103 26.0253V42.2143C189.103 42.4001 188.952 42.5511 188.766 42.5511H187.431C187.245 42.5511 187.094 42.4001 187.094 42.2143V26.0253C187.094 25.8394 187.245 25.6885 187.431 25.6885Z" fill="#200020"/>
<path d="M187.431 0H188.766C188.952 0 189.103 0.150973 189.103 0.336787V16.3284C189.103 16.5142 188.952 16.6651 188.766 16.6651H187.431C187.245 16.6651 187.094 16.5142 187.094 16.3284V0.336787C187.094 0.150973 187.245 0 187.431 0Z" fill="#200020"/>
<path d="M161.343 50.5473L160.321 51.4125C160.182 51.5344 159.967 51.5112 159.851 51.3718L159.305 50.7215L149.015 38.5333L148.417 37.8249C148.295 37.6855 148.319 37.4707 148.458 37.3545L149.479 36.4951C149.619 36.3732 149.833 36.3964 149.949 36.5358L150.547 37.2442L160.838 49.4324L161.383 50.0828C161.505 50.2221 161.482 50.437 161.343 50.5531V50.5473Z" fill="#D60080"/>
<path d="M144.993 31.1936L143.971 32.0588C143.832 32.175 143.617 32.1576 143.501 32.0182L142.956 31.3678L139.009 26.6993L138.411 25.9909C138.289 25.8515 138.312 25.6367 138.452 25.5205L139.473 24.6553C139.612 24.5392 139.827 24.5566 139.943 24.696L140.541 25.4044L144.488 30.073L145.033 30.7233C145.155 30.8627 145.132 31.0775 144.993 31.1936Z" fill="#D60080"/>
<path d="M173.49 40.7107L172.236 41.1694C172.062 41.2333 171.871 41.1462 171.807 40.972L171.517 40.1765L160.925 11.358L160.605 10.487C160.542 10.3128 160.629 10.1212 160.803 10.0573L162.056 9.59855C162.23 9.53468 162.422 9.62178 162.486 9.79598L162.805 10.667L173.397 39.4855L173.687 40.281C173.751 40.4552 173.664 40.6468 173.49 40.7107Z" fill="#200020"/>
<path d="M211.604 20.1084L210.356 19.6265C210.182 19.5626 210.101 19.3652 210.165 19.1968L210.467 18.4071L212.597 12.8617L212.928 11.9965C212.991 11.8223 213.189 11.741 213.357 11.8049L214.605 12.2868C214.779 12.3507 214.86 12.5481 214.796 12.7165L214.466 13.5817L212.336 19.1271L212.034 19.9168C211.97 20.091 211.773 20.1723 211.604 20.1084Z" fill="#D60080"/>
<path d="M203.792 42.9637L202.527 42.534C202.353 42.476 202.26 42.2844 202.318 42.1102L202.591 41.303L207.425 26.9606L207.721 26.0837C207.78 25.9095 207.971 25.8166 208.145 25.8747L209.41 26.3044C209.585 26.3625 209.677 26.5541 209.619 26.7283L209.323 27.6051L204.489 41.9476L204.216 42.7547C204.158 42.9289 203.966 43.0218 203.792 42.9637Z" fill="#D60080"/>
<path d="M238.894 24.6639L237.847 25.8389C237.724 25.9777 237.736 26.1906 237.875 26.3144L238.867 27.1989C239.006 27.3227 239.219 27.3104 239.343 27.1715L240.389 25.9966C240.513 25.8577 240.5 25.6449 240.361 25.5211L239.369 24.6365C239.23 24.5128 239.017 24.5251 238.894 24.6639Z" fill="#200020"/>
<path d="M238.128 28.0462L237.13 27.1578C236.991 27.0359 236.782 27.0475 236.66 27.1868L221.906 43.7533L221.291 44.4443C221.169 44.5836 221.181 44.7927 221.32 44.9146L222.318 45.803C222.458 45.925 222.667 45.9133 222.788 45.774L223.404 45.083L238.157 28.5166C238.279 28.3772 238.268 28.1682 238.128 28.0462Z" fill="#200020"/>
<path d="M217.501 49.1304L218.499 50.0189C218.639 50.1408 218.65 50.3498 218.528 50.4892L217.965 51.1221L214.773 54.7165L214.158 55.4075C214.036 55.5468 213.827 55.5584 213.688 55.4365L212.69 54.5481C212.55 54.4261 212.539 54.2171 212.661 54.0777L213.276 53.3867L216.468 49.7924L217.031 49.1595C217.153 49.0201 217.362 49.0085 217.501 49.1304Z" fill="#200020"/>
<path d="M241.14 53.4096L241.808 54.5652C241.901 54.7278 241.843 54.931 241.686 55.0239L240.949 55.4478L220.798 67.0727L219.997 67.5373C219.834 67.6302 219.631 67.5721 219.538 67.4153L218.871 66.2598C218.778 66.0972 218.836 65.894 218.993 65.8011L219.793 65.3365L239.945 53.7116L240.682 53.2877C240.844 53.1948 241.047 53.2529 241.14 53.4096Z" fill="#200020"/>
<path d="M261.222 41.3552L261.849 42.5339C261.936 42.6965 261.872 42.8997 261.71 42.9868L260.961 43.3817L252.888 47.6554L252.069 48.0909C251.907 48.178 251.704 48.1141 251.617 47.9515L250.99 46.7728C250.903 46.6102 250.966 46.407 251.129 46.3199L251.947 45.8844L260.021 41.6107L260.769 41.2158C260.932 41.1287 261.135 41.1926 261.222 41.3552Z" fill="#200020"/>
<path d="M217.686 77.9054L216.139 78.1925C215.957 78.2264 215.836 78.4022 215.87 78.585L216.112 79.8925C216.146 80.0753 216.322 80.1961 216.505 80.1622L218.051 79.8751C218.234 79.8412 218.355 79.6654 218.321 79.4826L218.078 78.1751C218.044 77.9923 217.869 77.8715 217.686 77.9054Z" fill="#D60080"/>
<path d="M219.184 78.0069L219.428 79.3192C219.463 79.4992 219.637 79.6212 219.817 79.5863L245.232 74.8713L246.143 74.7029C246.323 74.6681 246.445 74.4939 246.41 74.3139L246.167 73.0016C246.132 72.8216 245.958 72.6996 245.778 72.7345L244.866 72.9029L219.451 77.6179C219.271 77.6527 219.149 77.8269 219.184 78.0069Z" fill="#D60080"/>
<path d="M262.812 70.3942L263.062 71.7065C263.097 71.8865 262.975 72.0607 262.795 72.0955L261.959 72.2523L255.934 73.402L255.023 73.5762C254.843 73.611 254.669 73.4891 254.634 73.3091L254.385 71.9968C254.35 71.8168 254.472 71.6426 254.652 71.6077L255.563 71.4335L261.587 70.2838L262.423 70.127C262.603 70.0922 262.777 70.2141 262.812 70.3942Z" fill="#D60080"/>
<path d="M225.766 90.6655L225.482 91.972C225.441 92.152 225.261 92.2681 225.081 92.2275L224.251 92.0475L216.607 90.3635L215.702 90.1661C215.522 90.1254 215.406 89.9454 215.447 89.7654L215.731 88.4589C215.772 88.2789 215.952 88.1628 216.131 88.2034L217.037 88.4009L224.681 90.0848L225.511 90.2648C225.691 90.3054 225.807 90.4855 225.766 90.6655Z" fill="#200020"/>
<path d="M263.468 97.6854L263.213 98.9977C263.178 99.1777 263.004 99.2997 262.824 99.259L261.988 99.0964L235.499 93.9401L234.588 93.7659C234.408 93.7311 234.286 93.5569 234.327 93.3769L234.582 92.0645C234.617 91.8845 234.791 91.7626 234.971 91.8032L235.882 91.9774L262.371 97.128L263.207 97.2906C263.387 97.3254 263.509 97.4996 263.468 97.6796V97.6854Z" fill="#200020"/>
<path d="M242.191 114.211L241.564 115.39C241.477 115.553 241.274 115.617 241.111 115.53L240.363 115.129L222.254 105.443L221.436 105.008C221.274 104.921 221.21 104.718 221.297 104.555L221.924 103.376C222.011 103.214 222.214 103.15 222.376 103.237L223.195 103.672L241.303 113.358L242.052 113.758C242.214 113.846 242.278 114.049 242.191 114.211Z" fill="#200020"/>
<path d="M258.448 123.252L257.798 124.42C257.705 124.582 257.502 124.64 257.345 124.547L256.602 124.135L248.703 119.71L247.896 119.257C247.734 119.165 247.676 118.961 247.768 118.805L248.418 117.637C248.511 117.475 248.714 117.417 248.871 117.51L249.678 117.963L257.577 122.387L258.32 122.8C258.482 122.892 258.541 123.096 258.448 123.252Z" fill="#200020"/>
<path d="M215.92 117.214L214.913 118.082C214.772 118.203 214.756 118.416 214.877 118.556L215.903 119.749C216.025 119.89 216.237 119.906 216.378 119.784L217.385 118.917C217.526 118.795 217.542 118.583 217.421 118.442L216.394 117.249C216.273 117.108 216.061 117.093 215.92 117.214Z" fill="#D60080"/>
<path d="M218.099 119.728L217.089 120.599C216.95 120.721 216.932 120.93 217.054 121.069L226.253 131.759L226.857 132.462C226.979 132.601 227.188 132.619 227.327 132.497L228.337 131.626C228.476 131.504 228.494 131.295 228.372 131.156L227.768 130.453L218.569 119.763C218.447 119.624 218.238 119.606 218.099 119.728Z" fill="#D60080"/>
<path d="M237.165 142.862L236.155 143.733C236.016 143.855 235.807 143.837 235.685 143.698L235.128 143.053L230.304 137.473L229.701 136.77C229.579 136.631 229.596 136.422 229.736 136.3L230.746 135.423C230.885 135.301 231.094 135.319 231.216 135.458L231.819 136.161L236.642 141.741L237.2 142.386C237.321 142.525 237.304 142.734 237.165 142.856V142.862Z" fill="#D60080"/>
<path d="M220.821 157.285L219.596 157.819C219.428 157.895 219.231 157.819 219.155 157.645L218.819 156.867L207.35 130.406L206.984 129.558C206.909 129.39 206.984 129.193 207.159 129.117L208.383 128.583C208.552 128.507 208.749 128.583 208.824 128.757L209.19 129.605L220.659 156.066L220.995 156.844C221.071 157.012 220.995 157.21 220.821 157.285Z" fill="#200020"/>
<path d="M165.063 142.536L163.815 142.054C163.641 141.99 163.559 141.793 163.623 141.625L163.931 140.835L167.866 130.667L168.202 129.802C168.266 129.628 168.464 129.547 168.632 129.611L169.88 130.092C170.054 130.156 170.135 130.354 170.071 130.522L169.735 131.387L165.8 141.555L165.492 142.345C165.428 142.519 165.231 142.6 165.063 142.536Z" fill="#D60080"/>
<path d="M159.619 152.832L158.423 152.234C158.26 152.152 158.191 151.949 158.272 151.787L158.649 151.026L159.764 148.796L160.176 147.966C160.257 147.803 160.46 147.734 160.623 147.815L161.818 148.413C161.981 148.494 162.05 148.697 161.969 148.86L161.557 149.69L160.443 151.92L160.066 152.681C159.984 152.843 159.781 152.913 159.619 152.832Z" fill="#D60080"/>
<path d="M157.094 120.61L158.145 121.435C158.29 121.551 158.313 121.76 158.203 121.905L157.68 122.573L140.326 144.731L139.758 145.463C139.642 145.608 139.433 145.631 139.288 145.521L138.237 144.696C138.092 144.58 138.069 144.371 138.179 144.226L138.748 143.494L156.102 121.336L156.624 120.668C156.74 120.523 156.949 120.5 157.094 120.61Z" fill="#200020"/>
<path d="M123.971 121.255L124.673 122.393C124.772 122.55 124.72 122.753 124.563 122.852L123.837 123.299L115.486 128.443L114.696 128.931C114.54 129.03 114.336 128.978 114.238 128.821L113.535 127.683C113.437 127.526 113.489 127.323 113.646 127.224L114.435 126.736L122.787 121.592L123.512 121.144C123.669 121.046 123.872 121.098 123.971 121.255Z" fill="#200020"/>
<path d="M133.429 114.75L132.099 115.591C131.942 115.691 131.895 115.899 131.995 116.056L132.705 117.18C132.805 117.337 133.013 117.384 133.17 117.285L134.499 116.444C134.656 116.344 134.703 116.136 134.604 115.979L133.893 114.855C133.794 114.698 133.586 114.651 133.429 114.75Z" fill="#200020"/>
<path d="M134.83 114.241L135.544 115.367C135.643 115.524 135.852 115.57 136.003 115.472L155.283 103.272L156.067 102.778C156.224 102.679 156.27 102.47 156.171 102.319L155.457 101.193C155.359 101.036 155.15 100.99 154.999 101.088L154.215 101.582L134.935 113.782C134.778 113.881 134.732 114.09 134.83 114.241Z" fill="#200020"/>
<path d="M159.108 88.6564L159.346 89.9687C159.381 90.1487 159.259 90.3229 159.079 90.3577L158.243 90.5087L115.909 98.1038L114.998 98.2664C114.818 98.3012 114.644 98.1793 114.609 97.9993L114.371 96.687C114.336 96.507 114.458 96.3328 114.638 96.2979L115.549 96.1353L157.883 88.5402L158.719 88.3893C158.899 88.3544 159.073 88.4763 159.108 88.6564Z" fill="#D60080"/>
<path d="M149.073 77.5248L149.322 76.2125C149.357 76.0325 149.531 75.9106 149.711 75.9454L150.547 76.1022L159.781 77.8558L160.692 78.03C160.872 78.0648 160.994 78.239 160.959 78.4191L160.71 79.7314C160.675 79.9114 160.501 80.0333 160.321 79.9985L159.41 79.8243L150.176 78.0706L149.34 77.9139C149.16 77.879 149.038 77.7048 149.073 77.5248Z" fill="#200020"/>
<path d="M109.96 71.3058L110.192 69.9876C110.227 69.8076 110.396 69.6857 110.581 69.7147L111.417 69.8657L139.502 74.8594L140.413 75.022C140.593 75.0569 140.715 75.2253 140.686 75.4111L140.454 76.7292C140.419 76.9092 140.251 77.0311 140.065 77.0021L139.154 76.8395L111.069 71.8458L110.233 71.6948C110.053 71.66 109.931 71.4916 109.96 71.3058Z" fill="#200020"/>
<path d="M129.055 49.589L128.405 50.7561C128.318 50.9187 128.115 50.9768 127.952 50.8839L127.209 50.4716L114.899 43.6314L114.093 43.1842C113.93 43.0971 113.872 42.8939 113.965 42.7313L114.615 41.5642C114.702 41.4016 114.905 41.3435 115.068 41.4364L115.874 41.8835L128.185 48.7238L128.927 49.1361C129.09 49.2232 129.148 49.4264 129.055 49.589Z" fill="#200020"/>
<path d="M134.883 53.0127L134.212 54.1608C134.119 54.3215 134.173 54.5277 134.333 54.6215L135.691 55.4152C135.852 55.509 136.058 55.4549 136.152 55.2943L136.822 54.1461C136.916 53.9855 136.862 53.7792 136.701 53.6854L135.343 52.8917C135.183 52.7979 134.976 52.852 134.883 53.0127Z" fill="#200020"/>
<path d="M137.79 54.7102L137.117 55.8658C137.024 56.0225 137.076 56.2316 137.239 56.3245L153.217 65.6616L154.018 66.1261C154.175 66.2191 154.383 66.1668 154.476 66.0042L155.15 64.8487C155.242 64.6919 155.19 64.4829 155.028 64.3899L154.227 63.9254L138.249 54.5883C138.092 54.4954 137.883 54.5476 137.79 54.7102Z" fill="#200020"/>
<path d="M64.9858 239.229C64.9858 239.229 92.1074 232.046 92.1074 246.011C92.1074 259.976 54.2137 247.806 64.9858 239.229Z" fill="#D60080"/>
<path d="M227.507 175.721C227.727 175.733 227.948 175.78 228.157 175.855C229.196 176.25 229.677 177.423 230.066 178.468C230.989 180.942 232.208 183.555 234.553 184.768C235.772 185.395 237.205 185.587 238.331 186.377C245.069 191.098 233.473 198.861 228.383 196.184C223.578 193.652 221.273 185.459 222.376 180.425C222.869 178.183 224.57 176.07 226.845 175.756C227.066 175.727 227.292 175.716 227.513 175.727L227.507 175.721Z" fill="#D60080"/>
<path d="M317.468 255.592C317.468 255.592 315.274 249.408 330.434 246.615C345.593 243.822 344.99 256.992 352.57 258.188C360.15 259.384 369.32 258.188 365.135 264.773C360.945 271.357 343.794 269.162 339.012 266.172C334.224 263.182 317.671 266.172 317.473 255.598L317.468 255.592Z" fill="#D60080"/>
<path d="M292.54 237.232C292.54 237.232 289.551 249.402 301.716 251.597C313.881 253.792 296.73 225.258 292.54 237.232Z" fill="#D60080"/>
<path d="M51.0969 261.027C51.0969 261.027 42.3156 269.97 51.6599 278.064C61.0042 286.164 60.8011 252.869 51.0969 261.027Z" fill="#D60080"/>
<path d="M136.38 218.499C136.38 218.499 136.328 218.499 136.304 218.499C135.77 218.459 135.364 218.012 135.364 217.489C135.364 217.466 135.364 217.437 135.364 217.414C135.567 214.748 133.565 212.414 130.901 212.211C130.367 212.17 129.961 211.723 129.961 211.2C129.961 211.177 129.961 211.148 129.961 211.125C130.001 210.567 130.489 210.144 131.052 210.19C133.716 210.387 136.049 208.39 136.252 205.725C136.293 205.167 136.78 204.749 137.343 204.79C137.877 204.83 138.283 205.278 138.283 205.8C138.283 205.823 138.283 205.852 138.283 205.876C138.185 207.165 138.597 208.419 139.438 209.4C140.28 210.382 141.458 210.98 142.747 211.078C143.281 211.119 143.687 211.566 143.687 212.089C143.687 212.112 143.687 212.141 143.687 212.164C143.646 212.722 143.159 213.14 142.596 213.099C141.307 213 140.054 213.413 139.073 214.255C138.092 215.097 137.494 216.275 137.396 217.565C137.355 218.099 136.908 218.505 136.386 218.505L136.38 218.499ZM134.563 211.462C135.44 212.095 136.153 212.931 136.653 213.889C136.966 213.459 137.332 213.059 137.75 212.704C138.162 212.35 138.609 212.048 139.084 211.804C138.655 211.491 138.26 211.125 137.9 210.713C137.546 210.3 137.245 209.847 137.001 209.377C136.368 210.254 135.532 210.968 134.569 211.462H134.563Z" fill="#E9E4F2"/>
<path d="M46.332 301.122C46.332 301.122 46.2797 301.122 46.2565 301.122C45.7226 301.082 45.3163 300.635 45.3163 300.112C45.3163 300.089 45.3163 300.06 45.3163 300.037C45.415 298.748 45.0029 297.493 44.1613 296.512C43.3197 295.531 42.1415 294.933 40.8531 294.834C40.3191 294.793 39.9128 294.346 39.9128 293.823C39.9128 293.8 39.9128 293.771 39.9128 293.748C39.9535 293.191 40.441 292.778 41.004 292.813C42.2983 292.912 43.5461 292.5 44.527 291.658C45.5078 290.816 46.1056 289.637 46.2043 288.348C46.2449 287.79 46.7267 287.366 47.2954 287.413C47.8294 287.454 48.2357 287.901 48.2357 288.423C48.2357 288.446 48.2357 288.476 48.2357 288.499C48.0325 291.164 50.0349 293.498 52.6989 293.702C53.2328 293.742 53.6391 294.189 53.6391 294.712C53.6391 294.735 53.6391 294.764 53.6391 294.787C53.5985 295.345 53.111 295.757 52.548 295.722C49.8782 295.519 47.5508 297.522 47.3477 300.188C47.307 300.722 46.8601 301.128 46.3378 301.128L46.332 301.122ZM44.5212 294.085C44.9506 294.398 45.3453 294.764 45.7051 295.176C46.0592 295.589 46.361 296.042 46.6048 296.512C47.2374 295.635 48.0732 294.921 49.0366 294.427C48.1602 293.794 47.4463 292.958 46.9472 292C46.6338 292.43 46.2681 292.831 45.8502 293.185C45.4382 293.539 44.9913 293.841 44.5153 294.085H44.5212Z" fill="#200020"/>
<path d="M93.4655 87.4484C93.4655 87.4484 93.4133 87.4484 93.3901 87.4484C92.8561 87.4078 92.4498 86.9607 92.4498 86.4381C92.4498 86.4148 92.4498 86.3858 92.4498 86.3626C92.5485 85.0735 92.1364 83.8193 91.2949 82.8379C90.4533 81.8566 89.2751 81.2585 87.9866 81.1598C87.4527 81.1192 87.0464 80.672 87.0464 80.1494C87.0464 80.1262 87.0464 80.0972 87.0464 80.0739C87.087 79.5165 87.5687 79.0984 88.1375 79.1391C89.426 79.2378 90.6796 78.8255 91.6605 77.9836C92.6413 77.1416 93.2391 75.9628 93.3378 74.6737C93.3784 74.1163 93.8602 73.704 94.4289 73.7389C94.9629 73.7795 95.3692 74.2266 95.3692 74.7492C95.3692 74.7725 95.3692 74.8015 95.3692 74.8247C95.166 77.49 97.1684 79.8243 99.8324 80.0275C100.366 80.0681 100.773 80.5153 100.773 81.0379C100.773 81.0611 100.773 81.0901 100.773 81.1133C100.732 81.6708 100.25 82.0831 99.6815 82.0482C98.393 81.9495 97.1394 82.3618 96.1585 83.2037C95.1776 84.0457 94.5799 85.2245 94.4812 86.5136C94.4406 87.0478 93.9937 87.4542 93.4713 87.4542L93.4655 87.4484ZM91.6489 80.4165C92.5253 81.0495 93.2391 81.8856 93.7325 82.8495C94.3709 81.9727 95.2009 81.2527 96.1643 80.7591C95.2879 80.1262 94.5741 79.29 94.0749 78.3319C93.7615 78.7616 93.3959 79.1623 92.978 79.5165C92.5659 79.8707 92.1132 80.1727 91.6431 80.4224L91.6489 80.4165Z" fill="#D60080"/>
<path d="M281.739 127.521C281.466 127.521 281.199 127.41 280.996 127.201C278.274 124.298 273.694 124.153 270.792 126.876C270.595 127.062 270.346 127.143 270.096 127.149C269.829 127.149 269.556 127.039 269.359 126.83C268.976 126.423 268.993 125.779 269.405 125.395C269.417 125.384 269.423 125.378 269.434 125.366C272.307 122.637 272.441 118.079 269.73 115.181C269.545 114.984 269.458 114.734 269.458 114.485C269.458 114.212 269.568 113.945 269.777 113.741C270.189 113.358 270.827 113.376 271.21 113.788C272.528 115.193 274.321 116 276.248 116.064C278.181 116.116 280.009 115.431 281.419 114.113C281.832 113.73 282.47 113.747 282.853 114.159C283.039 114.357 283.126 114.607 283.126 114.856C283.126 115.129 283.016 115.396 282.807 115.6C281.402 116.918 280.595 118.706 280.531 120.64C280.473 122.568 281.164 124.402 282.482 125.813C282.667 126.011 282.754 126.261 282.754 126.51C282.754 126.783 282.644 127.05 282.435 127.254C282.238 127.439 281.988 127.526 281.739 127.526V127.521ZM275.732 122.893C276.788 122.893 277.844 123.073 278.848 123.427C278.587 122.509 278.465 121.551 278.494 120.57C278.523 119.595 278.703 118.642 279.022 117.748C278.111 118.009 277.154 118.125 276.173 118.096C275.192 118.067 274.24 117.882 273.346 117.562C273.88 119.426 273.816 121.418 273.166 123.247C274.002 123.009 274.867 122.887 275.732 122.887V122.893Z" fill="#D60080"/>
<path d="M281.739 90.3288C281.466 90.3288 281.199 90.2184 280.996 90.0094C279.249 88.1454 276.306 88.0525 274.443 89.8003C274.031 90.1836 273.393 90.1662 273.01 89.7539C272.824 89.5565 272.737 89.3068 272.737 89.0571C272.737 88.7842 272.847 88.5171 273.056 88.3138C274.919 86.566 275.012 83.622 273.265 81.7581C273.079 81.5607 272.992 81.311 272.992 81.0613C272.992 80.7884 273.102 80.5213 273.311 80.3181C273.723 79.9348 274.362 79.9522 274.745 80.3645C276.492 82.2284 279.435 82.3214 281.298 80.5735C281.71 80.1903 282.348 80.2077 282.731 80.62C282.917 80.8174 283.004 81.0671 283.004 81.3168C283.004 81.5897 282.894 81.8568 282.685 82.0601C281.779 82.9078 281.263 84.0575 281.222 85.2944C281.182 86.5312 281.628 87.7099 282.476 88.6158C282.661 88.8132 282.749 89.0629 282.749 89.3126C282.749 89.5855 282.638 89.8526 282.429 90.0558C282.232 90.2417 281.982 90.3288 281.733 90.3288H281.739ZM277.612 86.5138C277.682 86.5138 277.757 86.5138 277.827 86.5138C278.338 86.5312 278.831 86.6009 279.313 86.7286C279.22 86.2409 279.179 85.7415 279.191 85.2305C279.208 84.7195 279.278 84.2201 279.406 83.7382C278.419 83.9298 277.392 83.9008 276.416 83.6453C276.608 84.6324 276.579 85.6602 276.324 86.6357C276.742 86.5544 277.171 86.5138 277.606 86.5138H277.612Z" fill="#200020"/>
<path d="M130.007 230.658L128.962 229.828C128.817 229.712 128.794 229.503 128.91 229.358L129.438 228.696L131.916 225.583L132.491 224.858C132.607 224.712 132.816 224.689 132.961 224.805L134.006 225.636C134.151 225.752 134.174 225.961 134.058 226.106L133.484 226.832L131.005 229.944L130.477 230.606C130.361 230.751 130.152 230.775 130.007 230.658Z" fill="#E9E4F2"/>
<path d="M132.656 227.829L131.827 228.869C131.711 229.014 131.735 229.226 131.88 229.342L133.11 230.323C133.255 230.439 133.467 230.415 133.583 230.27L134.412 229.23C134.528 229.085 134.504 228.873 134.358 228.757L133.129 227.776C132.983 227.66 132.772 227.684 132.656 227.829Z" fill="#E9E4F2"/>
<path d="M130.947 228.156L131.777 227.111C131.893 226.965 131.87 226.756 131.725 226.64L130.982 226.048L130.582 225.729L129.856 225.154C129.711 225.038 129.502 225.061 129.386 225.206L128.556 226.251C128.44 226.396 128.463 226.605 128.608 226.722L129.334 227.296L129.734 227.616L130.477 228.208C130.622 228.324 130.831 228.301 130.947 228.156Z" fill="#E9E4F2"/>
<path d="M99.4088 51.0349L98.3641 50.2046C98.219 50.0884 98.1958 49.8794 98.3119 49.7342L98.8401 49.0723L101.318 45.9599L101.893 45.2341C102.009 45.0889 102.218 45.0657 102.363 45.1818L103.408 46.0122C103.553 46.1283 103.576 46.3373 103.46 46.4825L102.885 47.2083L100.407 50.3207L99.879 50.9827C99.7629 51.1278 99.5539 51.1511 99.4088 51.0349Z" fill="#200020"/>
<path d="M102.067 48.1933L101.238 49.2328C101.123 49.3782 101.146 49.5901 101.292 49.7061L102.521 50.6874C102.667 50.8034 102.878 50.7796 102.994 50.6342L103.823 49.5947C103.939 49.4493 103.915 49.2374 103.77 49.1214L102.54 48.1401C102.395 48.0241 102.183 48.0479 102.067 48.1933Z" fill="#200020"/>
<path d="M100.349 48.5325L101.179 47.4873C101.295 47.3421 101.272 47.1331 101.127 47.0169L100.384 46.4247L99.9835 46.1053L99.258 45.5304C99.1129 45.4143 98.9039 45.4375 98.7879 45.5827L97.9579 46.6279C97.8418 46.7731 97.865 46.9821 98.0101 47.0982L98.7356 47.6731L99.1361 47.9925L99.879 48.5847C100.024 48.7009 100.233 48.6777 100.349 48.5325Z" fill="#200020"/>
<path d="M358.403 297.929C358.008 297.929 357.631 297.697 357.468 297.313C356.418 294.857 353.562 293.713 351.107 294.758C350.59 294.979 349.993 294.741 349.772 294.224C349.714 294.096 349.691 293.957 349.691 293.824C349.691 293.429 349.923 293.051 350.306 292.889C351.496 292.378 352.419 291.437 352.9 290.235C353.382 289.033 353.365 287.715 352.86 286.525C352.802 286.397 352.779 286.257 352.779 286.124C352.779 285.729 353.011 285.352 353.394 285.189C353.91 284.968 354.508 285.206 354.729 285.723C355.779 288.179 358.635 289.329 361.09 288.272C361.606 288.052 362.204 288.29 362.425 288.807C362.483 288.934 362.506 289.074 362.506 289.207C362.506 289.602 362.274 289.979 361.891 290.142C360.701 290.653 359.778 291.594 359.296 292.796C358.815 293.998 358.832 295.316 359.337 296.506C359.395 296.634 359.418 296.773 359.418 296.907C359.418 297.302 359.186 297.679 358.803 297.842C358.675 297.9 358.536 297.923 358.403 297.923V297.929ZM354.015 292.412C355.083 292.575 356.098 292.982 356.981 293.603C357.062 293.074 357.201 292.552 357.404 292.047C357.607 291.536 357.869 291.065 358.176 290.63C357.108 290.473 356.093 290.061 355.21 289.439C355.129 289.968 354.99 290.49 354.787 290.996C354.584 291.501 354.322 291.977 354.015 292.412Z" fill="#D60080"/>
<path d="M340.44 276.769L341.751 277.025C341.931 277.06 342.047 277.234 342.012 277.42L341.85 278.25L341.084 282.152L340.904 283.058C340.869 283.238 340.695 283.354 340.509 283.319L339.197 283.064C339.018 283.029 338.902 282.855 338.936 282.669L339.116 281.763L339.882 277.861L340.045 277.031C340.08 276.851 340.254 276.735 340.44 276.769Z" fill="#200020"/>
<path d="M337.415 278.747L337.16 280.052C337.124 280.234 337.243 280.411 337.425 280.447L338.969 280.749C339.151 280.785 339.328 280.666 339.364 280.483L339.619 279.178C339.655 278.996 339.536 278.819 339.354 278.783L337.81 278.481C337.628 278.445 337.451 278.564 337.415 278.747Z" fill="#200020"/>
<path d="M340.759 279.423L340.503 280.735C340.469 280.915 340.585 281.089 340.765 281.13L341.693 281.31L342.198 281.409L343.109 281.589C343.289 281.624 343.464 281.508 343.504 281.328L343.759 280.015C343.794 279.835 343.678 279.661 343.498 279.62L342.587 279.44L342.082 279.342L341.154 279.162C340.974 279.127 340.8 279.243 340.759 279.423Z" fill="#200020"/>
<path d="M311.223 207.902L311.687 206.648C311.751 206.474 311.652 206.282 311.466 206.224L310.677 205.957L309.87 205.742C309.679 205.69 309.493 205.794 309.452 205.98L309.151 207.281C309.11 207.461 309.214 207.641 309.377 207.687L310.097 207.879L310.799 208.117C310.961 208.169 311.147 208.076 311.217 207.902H311.223Z" fill="#D60080"/>
<path d="M308.1 207.072L308.315 205.754C308.344 205.574 308.21 205.405 308.019 205.376L307.34 205.283C307.282 205.272 307.224 205.272 307.171 205.266L306.783 205.237C305.738 205.15 304.687 205.179 303.648 205.283C299.481 205.713 295.529 207.565 292.482 210.428C290.967 211.862 289.655 213.564 288.819 215.55C288.402 216.543 288.106 217.605 288.007 218.708C287.914 219.829 288.007 220.921 288.32 222.012C288.645 223.092 289.174 224.167 290.143 225.003C290.636 225.403 291.246 225.798 292.151 225.81C292.627 225.793 293.12 225.601 293.48 225.264C293.643 225.084 293.817 224.887 293.892 224.695C294.002 224.498 294.06 224.312 294.101 224.126C294.269 223.389 294.176 222.785 294.078 222.21C293.95 221.652 293.788 221.124 293.579 220.63C293.172 219.637 292.679 218.72 292.128 217.849C291.037 216.101 289.806 214.522 288.419 212.983C287.009 211.479 285.389 210.149 283.602 209.093C281.814 208.036 279.847 207.263 277.815 206.822C275.784 206.375 273.7 206.247 271.646 206.363C267.531 206.636 263.572 207.833 259.904 209.534C258.987 209.964 258.082 210.428 257.2 210.927L256.567 211.293L255.993 211.647C255.83 211.752 255.772 211.967 255.876 212.124L256.625 213.227C256.73 213.378 256.915 213.43 257.066 213.337L257.594 213.012L258.186 212.669C259.022 212.199 259.875 211.758 260.752 211.351C264.24 209.731 267.983 208.616 271.768 208.367C275.546 208.129 279.365 208.895 282.58 210.823C284.194 211.775 285.662 212.971 286.956 214.353C288.216 215.747 289.429 217.297 290.427 218.906C290.938 219.707 291.373 220.537 291.721 221.374C291.901 221.792 292.023 222.21 292.116 222.616C292.192 223.011 292.221 223.412 292.157 223.644C292.07 223.888 292.128 223.778 292.093 223.801C292 223.801 291.687 223.696 291.431 223.464C290.891 223.011 290.474 222.25 290.241 221.443C290.003 220.636 289.928 219.725 290.004 218.877C290.079 218.012 290.317 217.146 290.665 216.322C291.362 214.655 292.511 213.151 293.857 211.874C296.568 209.319 300.149 207.647 303.852 207.269C304.774 207.176 305.709 207.147 306.638 207.229L306.986 207.252C307.038 207.252 307.09 207.252 307.137 207.263L307.74 207.345C307.914 207.368 308.077 207.24 308.106 207.054L308.1 207.072Z" fill="#D60080"/>
<path d="M177.117 294.555C176.171 294.555 175.295 293.916 174.709 292.784C173.588 290.618 173.339 286.066 176.369 283.185C177.396 282.21 178.818 281.229 180.513 280.317C180.524 280.195 180.536 280.067 180.547 279.945C181.377 270.347 177.454 263.1 168.893 258.391C162.387 254.814 155.503 254.111 155.434 254.106L155.625 252.085C155.916 252.114 184.07 255.093 182.631 279.272C187.831 276.926 194.726 275.271 200.728 275.701C205.94 276.078 210.037 277.977 212.573 281.194L210.977 282.454C208.772 279.655 205.278 278.064 200.583 277.727C194.465 277.292 187.396 279.115 182.434 281.577C181.598 289.677 179.955 294.027 177.547 294.503C177.407 294.532 177.268 294.543 177.129 294.543L177.117 294.555ZM180.246 282.796C179.265 283.406 178.429 284.033 177.767 284.66C175.62 286.699 175.66 290.206 176.514 291.849C176.769 292.348 177.048 292.54 177.146 292.517C177.732 292.401 179.311 290.368 180.251 282.791L180.246 282.796Z" fill="#E9E4F2"/>
<path d="M242.823 269.958C242.597 269.958 242.365 269.935 242.127 269.894C240.351 269.581 238.279 267.972 238.279 264.465C238.279 263.658 238.378 262.822 238.558 261.968C238.436 261.898 238.314 261.823 238.186 261.753C225.603 254.477 215.342 265.29 214.907 265.754L213.415 264.372C213.531 264.244 225.162 251.94 239.132 259.953C240.78 255.383 244.582 250.854 248.778 248.99C252.737 247.225 256.73 247.881 260.015 250.837L258.657 252.346C255.261 249.286 251.86 249.838 249.608 250.843C245.522 252.66 242.231 257.073 240.92 261.051C246.021 264.43 246.137 266.904 245.691 268.135C245.279 269.261 244.153 269.952 242.823 269.952V269.958ZM240.409 263.17C240.345 263.617 240.31 264.053 240.31 264.465C240.31 266.706 241.431 267.705 242.481 267.891C243.102 268.001 243.648 267.81 243.781 267.444C243.99 266.863 243.45 265.33 240.409 263.17Z" fill="#E9E4F2"/>
<path d="M123.594 323.037C125.625 322.38 128.04 320.627 130.106 318.107C132.172 315.581 133.42 312.875 133.664 310.75L134.888 309.257L132.747 307.498C130.75 305.86 126.328 307.945 122.868 312.166C119.409 316.382 118.231 321.132 120.228 322.769L122.369 324.529L123.594 323.037Z" fill="#D60080"/>
<path d="M122.508 325.957L119.583 323.553C117.07 321.492 118.15 316.318 122.085 311.516C123.849 309.362 125.921 307.655 127.923 306.714C130.164 305.657 132.108 305.657 133.397 306.714L136.322 309.118L134.639 311.174C134.285 313.525 132.932 316.266 130.895 318.751C128.858 321.236 126.432 323.1 124.197 323.908L122.514 325.963L122.508 325.957ZM131.005 307.957C130.384 307.957 129.618 308.16 128.782 308.555C127.047 309.373 125.225 310.883 123.646 312.811C120.431 316.731 119.525 320.888 120.866 321.986L122.224 323.1L122.99 322.166L123.275 322.073C125.201 321.451 127.459 319.727 129.316 317.462C131.174 315.198 132.422 312.643 132.654 310.634L132.688 310.337L133.455 309.402L132.097 308.288C131.83 308.067 131.458 307.962 131 307.962L131.005 307.957Z" fill="#E9E4F2"/>
<path d="M132.255 319.889C135.713 315.671 136.895 310.922 134.895 309.281C132.895 307.639 128.471 309.728 125.013 313.945C121.555 318.163 120.373 322.913 122.373 324.554C124.373 326.195 128.798 324.107 132.255 319.889Z" fill="#D60080"/>
<path d="M124.116 326.108C123.199 326.108 122.381 325.853 121.725 325.313C119.212 323.251 120.286 318.078 124.226 313.276C128.167 308.473 133.025 306.412 135.532 308.468C136.821 309.524 137.198 311.429 136.6 313.833C136.066 315.981 134.801 318.345 133.031 320.499C130.123 324.047 126.71 326.103 124.11 326.103L124.116 326.108ZM123.013 323.739C124.348 324.837 128.248 323.135 131.464 319.216C133.042 317.288 134.168 315.203 134.627 313.345C135.016 311.789 134.871 310.558 134.244 310.041C132.909 308.944 129.009 310.645 125.793 314.565C122.578 318.484 121.673 322.642 123.013 323.739Z" fill="#E9E4F2"/>
<path d="M125.039 320.563L125.921 319.483L126.786 320.197L125.904 321.277L125.039 320.569V320.563ZM126.107 320.156C125.776 319.883 125.555 319.558 125.433 319.175C125.317 318.792 125.306 318.374 125.399 317.921C125.497 317.468 125.695 317.009 126.008 316.545L127.024 317.061C126.792 317.462 126.681 317.845 126.693 318.205C126.705 318.565 126.838 318.85 127.093 319.059C127.331 319.256 127.598 319.338 127.889 319.309C128.179 319.28 128.417 319.146 128.608 318.914C128.736 318.757 128.811 318.594 128.829 318.438C128.846 318.275 128.806 318.107 128.713 317.915L127.981 316.487C127.558 315.662 127.697 314.832 128.388 313.99C128.713 313.595 129.061 313.305 129.432 313.125C129.804 312.945 130.175 312.875 130.547 312.916C130.918 312.956 131.272 313.119 131.597 313.392C131.899 313.647 132.102 313.943 132.218 314.286C132.334 314.628 132.352 315.006 132.282 315.412C132.212 315.825 132.044 316.26 131.789 316.719L130.709 316.208C130.837 315.993 130.918 315.778 130.959 315.563C130.999 315.354 130.988 315.157 130.936 314.977C130.883 314.797 130.785 314.64 130.645 314.518C130.512 314.396 130.361 314.321 130.193 314.292C130.03 314.263 129.868 314.274 129.705 314.332C129.543 314.39 129.409 314.489 129.293 314.628C129.165 314.785 129.102 314.959 129.102 315.145C129.102 315.337 129.171 315.552 129.311 315.801L129.856 316.789C130.129 317.288 130.233 317.752 130.187 318.182C130.135 318.612 129.92 319.059 129.537 319.524C129.2 319.93 128.835 320.232 128.434 320.418C128.034 320.604 127.633 320.679 127.227 320.638C126.821 320.598 126.449 320.435 126.101 320.151L126.107 320.156ZM130.93 313.374L131.812 312.294L132.677 313.008L131.795 314.088L130.93 313.38V313.374Z" fill="#E9E4F2"/>
<path d="M1.53741 52.3473C3.77192 53.2996 6.32564 55.5352 8.40924 58.6069C10.4928 61.6786 11.6246 64.8781 11.6827 67.3111L12.9131 69.1286L10.3071 70.8996C7.87527 72.5487 3.07544 69.7267 -0.406906 64.5936C-3.88925 59.4605 -4.73662 53.9558 -2.30478 52.3067L0.301173 50.5356L1.5316 52.3531L1.53741 52.3473Z" fill="#E9E4F2"/>
<path d="M8.69361 72.3686C5.71621 72.3686 1.78117 69.6279 -1.24848 65.1625C-5.10228 59.4778 -5.81617 53.4563 -2.87358 51.4646L0.573943 49.1245L2.21065 51.5401C4.6483 52.6724 7.19621 55.0241 9.24499 58.0436C11.2938 61.063 12.5358 64.3032 12.6809 66.9858L14.3176 69.4014L10.8701 71.7415C10.2375 72.1712 9.50037 72.3744 8.68782 72.3744L8.69361 72.3686ZM0.0341835 51.9407L-1.73602 53.1427C-3.42496 54.2866 -2.94903 59.0365 0.428845 64.0186C3.80672 69.0008 8.04357 71.2015 9.72671 70.0576L11.4969 68.8556L10.667 67.6362V67.34C10.6031 65.0116 9.44233 61.9631 7.56186 59.1817C5.67559 56.4003 3.27276 54.1995 1.13111 53.2821L0.858329 53.166L0.0283737 51.9407H0.0341835Z" fill="#200020"/>
<path d="M12.918 69.131C15.3532 67.4784 14.5047 61.9756 11.0229 56.8402C7.54106 51.7048 2.74437 48.8814 0.30919 50.534C-2.12599 52.1866 -1.27752 57.6895 2.20431 62.8249C5.68614 67.9603 10.4828 70.7837 12.918 69.131Z" fill="#E9E4F2"/>
<path d="M11.2647 70.6151C10.1155 70.6151 8.81544 70.2028 7.43411 69.3898C5.28666 68.124 3.12761 65.9929 1.35741 63.3857C-0.41278 60.7786 -1.59097 57.9855 -1.97403 55.5177C-2.39771 52.7886 -1.78831 50.7156 -0.273485 49.682C2.6691 47.6845 7.99128 50.5762 11.8509 56.261C13.6153 58.8682 14.7993 61.6612 15.1823 64.129C15.606 66.8581 14.9966 68.9311 13.476 69.9647C12.8376 70.4002 12.0888 70.6151 11.2589 70.6151H11.2647ZM0.875679 51.3717C0.0515232 51.9292 -0.250282 53.3286 0.0399139 55.2158C0.376541 57.3933 1.44447 59.8901 3.04635 62.2534C4.64823 64.6168 6.57513 66.533 8.46721 67.6478C10.1097 68.6176 11.5201 68.8498 12.3442 68.2924C13.1684 67.7349 13.4702 66.3355 13.18 64.4484C12.8434 62.2709 11.7754 59.774 10.1736 57.4107C6.79568 52.4286 2.55881 50.2278 0.875679 51.3717Z" fill="#200020"/>
<path d="M3.8068 54.5479L4.70061 55.8602L3.6443 56.5744L2.75049 55.2621L3.8068 54.5479ZM5.24616 55.3956C5.71048 55.3956 6.15738 55.5176 6.59268 55.7673C7.02797 56.0169 7.41104 56.4002 7.74767 56.8937C8.13073 57.457 8.32806 57.9912 8.34547 58.479C8.36288 58.9667 8.18876 59.4835 7.82891 60.0235L7.10923 61.0862C6.92931 61.3533 6.82483 61.5913 6.80742 61.8062C6.7842 62.021 6.84224 62.2243 6.96993 62.4101C7.08601 62.5843 7.2311 62.7062 7.40522 62.7933C7.57934 62.8746 7.75926 62.9036 7.95079 62.892C8.14232 62.8804 8.32225 62.8049 8.48476 62.683C8.65887 62.5552 8.78656 62.3927 8.86201 62.1894C8.93746 61.992 8.96648 61.7655 8.94906 61.5275C8.92585 61.2836 8.8562 61.0339 8.73432 60.7726L10.0054 60.3081C10.2491 60.8597 10.3884 61.3707 10.4291 61.841C10.4697 62.3114 10.4058 62.7353 10.2375 63.1127C10.0692 63.4901 9.80805 63.8037 9.4424 64.065C9.04193 64.3437 8.62986 64.4831 8.20037 64.4947C7.77669 64.5063 7.3588 64.3844 6.95833 64.1405C6.55786 63.8966 6.19221 63.5308 5.86719 63.0488C5.17072 62.021 5.10687 61.0629 5.66405 60.1803L6.63912 58.6416C6.761 58.4383 6.82483 58.2467 6.82483 58.0667C6.82483 57.8809 6.75518 57.6951 6.6275 57.5034C6.43597 57.2189 6.1748 57.0447 5.84978 56.9808C5.52476 56.917 5.21715 56.9808 4.92696 57.1841C4.61935 57.3931 4.43943 57.7067 4.3872 58.1131C4.33496 58.5196 4.42202 58.9609 4.64257 59.4429L3.43535 59.9248C3.13354 59.3616 2.95362 58.8216 2.88978 58.299C2.82593 57.7764 2.88398 57.306 3.05809 56.8821C3.23221 56.4582 3.51661 56.1098 3.91708 55.8369C4.34077 55.5524 4.78185 55.4072 5.24616 55.4014V55.3956ZM9.7442 63.2985L10.638 64.6108L9.58169 65.325L8.6879 64.0127L9.7442 63.2985Z" fill="#200020"/>
<path d="M303.329 119.814C305.239 118.31 308.42 117.137 312.117 116.783C315.808 116.429 319.157 116.963 321.322 118.078L323.504 117.869L323.806 121.011C324.09 123.937 319.313 126.794 313.138 127.392C306.963 127.99 301.733 126.097 301.449 123.165L301.147 120.023L303.329 119.814Z" fill="#E9E4F2"/>
<path d="M310.886 128.519C308.617 128.519 306.493 128.194 304.74 127.555C302.14 126.614 300.613 125.093 300.439 123.264L300.039 119.112L302.946 118.833C305.105 117.236 308.39 116.122 312.024 115.773C315.657 115.425 319.087 115.883 321.513 117.039L324.421 116.76L324.821 120.912C325.164 124.454 320.074 127.741 313.242 128.403C312.447 128.478 311.658 128.519 310.892 128.519H310.886ZM302.256 120.941L302.459 123.066C302.552 124.053 303.637 124.994 305.43 125.644C307.502 126.394 310.201 126.655 313.039 126.376C319.029 125.795 322.987 123.136 322.79 121.104L322.587 118.978L321.118 119.118L320.851 118.978C318.785 117.91 315.552 117.469 312.209 117.788C308.866 118.113 305.784 119.164 303.956 120.604L303.724 120.79L302.256 120.929V120.941Z" fill="#200020"/>
<path d="M312.835 124.256C319.008 123.66 323.784 120.802 323.502 117.871C323.219 114.941 317.985 113.048 311.811 113.644C305.638 114.24 300.862 117.099 301.144 120.029C301.427 122.959 306.661 124.852 312.835 124.256Z" fill="#E9E4F2"/>
<path d="M310.596 125.377C304.862 125.377 300.439 123.252 300.137 120.122C299.795 116.58 304.885 113.294 311.716 112.632C318.547 111.97 324.171 114.228 324.514 117.771C324.856 121.313 319.766 124.599 312.935 125.261C312.134 125.337 311.35 125.377 310.596 125.377ZM302.163 119.931C302.36 121.963 306.754 123.821 312.743 123.24C318.733 122.66 322.691 120 322.5 117.968C322.302 115.941 317.909 114.077 311.919 114.658C305.929 115.239 301.971 117.898 302.163 119.931Z" fill="#200020"/>
<path d="M306.365 118.851L307.943 118.7L308.065 119.971L306.487 120.122L306.365 118.851ZM307.798 117.991C308.019 117.585 308.338 117.248 308.773 116.993C309.209 116.737 309.719 116.574 310.317 116.516C310.996 116.452 311.559 116.528 311.995 116.754C312.43 116.975 312.801 117.376 313.097 117.945L313.683 119.083C313.829 119.373 313.991 119.576 314.171 119.698C314.351 119.82 314.554 119.867 314.78 119.849C314.989 119.832 315.169 119.762 315.32 119.646C315.477 119.53 315.593 119.385 315.668 119.211C315.744 119.036 315.767 118.845 315.738 118.642C315.709 118.427 315.622 118.241 315.488 118.073C315.349 117.91 315.169 117.776 314.943 117.678C314.717 117.579 314.461 117.521 314.177 117.509L314.38 116.168C314.978 116.214 315.494 116.336 315.93 116.528C316.359 116.72 316.702 116.981 316.957 117.306C317.206 117.631 317.357 118.014 317.41 118.462C317.462 118.949 317.386 119.379 317.195 119.756C316.998 120.134 316.696 120.442 316.289 120.68C315.883 120.918 315.39 121.063 314.809 121.115C313.573 121.237 312.703 120.837 312.198 119.913L311.315 118.322C311.199 118.119 311.06 117.968 310.898 117.887C310.735 117.8 310.538 117.771 310.306 117.788C309.963 117.823 309.685 117.962 309.476 118.218C309.267 118.473 309.18 118.775 309.209 119.129C309.243 119.501 309.429 119.809 309.76 120.047C310.097 120.285 310.52 120.424 311.048 120.459L310.892 121.748C310.253 121.748 309.69 121.644 309.203 121.446C308.715 121.249 308.332 120.976 308.042 120.622C307.752 120.267 307.584 119.849 307.537 119.362C307.491 118.856 307.572 118.398 307.792 117.985L307.798 117.991ZM316.887 117.834L318.466 117.684L318.588 118.955L317.009 119.106L316.887 117.834Z" fill="#200020"/>
<path d="M216.683 315.982C218.592 314.478 221.773 313.305 225.47 312.951C229.161 312.596 232.51 313.131 234.675 314.245L236.857 314.036L237.159 317.178C237.443 320.104 232.667 322.961 226.491 323.559C220.316 324.157 215.086 322.264 214.802 319.332L214.5 316.191L216.683 315.982Z" fill="#E9E4F2"/>
<path d="M224.245 324.68C218.511 324.68 214.088 322.555 213.786 319.425L213.386 315.273L216.294 314.994C218.453 313.397 221.738 312.283 225.371 311.934C228.998 311.586 232.434 312.045 234.86 313.2L237.768 312.921L238.169 317.073C238.511 320.615 233.421 323.902 226.59 324.564C225.789 324.639 225.005 324.68 224.251 324.68H224.245ZM215.603 317.102L215.806 319.233C216.004 321.266 220.397 323.124 226.387 322.543C232.376 321.962 236.335 319.303 236.143 317.271L235.94 315.145L234.472 315.285L234.205 315.145C232.138 314.077 228.906 313.636 225.563 313.955C222.22 314.28 219.138 315.331 217.309 316.771L217.077 316.957L215.609 317.096L215.603 317.102Z" fill="#200020"/>
<path d="M226.192 320.414C232.366 319.818 237.141 316.959 236.859 314.029C236.576 311.099 231.342 309.206 225.169 309.802C218.995 310.398 214.219 313.256 214.502 316.187C214.784 319.117 220.018 321.01 226.192 320.414Z" fill="#E9E4F2"/>
<path d="M223.943 321.539C218.209 321.539 213.786 319.413 213.485 316.284C213.142 312.741 218.232 309.455 225.063 308.793C231.895 308.137 237.519 310.39 237.861 313.932C238.035 315.761 236.828 317.549 234.46 318.966C232.318 320.249 229.416 321.12 226.282 321.422C225.481 321.498 224.698 321.539 223.943 321.539ZM215.51 316.092C215.707 318.124 220.101 319.982 226.091 319.402C228.929 319.129 231.535 318.356 233.421 317.224C235.058 316.249 235.94 315.116 235.841 314.129C235.644 312.103 231.25 310.239 225.261 310.819C219.271 311.4 215.313 314.06 215.51 316.092Z" fill="#200020"/>
<path d="M219.712 315.012L221.291 314.861L221.413 316.132L219.834 316.283L219.712 315.012ZM221.146 314.152C221.366 313.746 221.686 313.409 222.121 313.154C222.556 312.898 223.067 312.736 223.665 312.677C224.344 312.614 224.907 312.689 225.342 312.916C225.777 313.136 226.149 313.537 226.445 314.106L227.031 315.244C227.176 315.534 227.339 315.738 227.518 315.86C227.698 315.981 227.901 316.028 228.128 316.01C228.337 315.993 228.517 315.923 228.668 315.807C228.824 315.691 228.94 315.546 229.016 315.372C229.091 315.198 229.115 315.006 229.085 314.803C229.056 314.588 228.969 314.402 228.836 314.234C228.697 314.071 228.517 313.937 228.29 313.839C228.064 313.74 227.809 313.682 227.524 313.665L227.727 312.323C228.325 312.37 228.842 312.492 229.277 312.683C229.707 312.875 230.049 313.136 230.304 313.456C230.554 313.781 230.705 314.164 230.757 314.611C230.809 315.099 230.734 315.529 230.542 315.906C230.345 316.283 230.043 316.591 229.637 316.829C229.231 317.067 228.737 317.212 228.157 317.265C226.921 317.387 226.05 316.986 225.545 316.063L224.663 314.472C224.547 314.268 224.408 314.118 224.245 314.036C224.083 313.955 223.885 313.92 223.653 313.938C223.311 313.972 223.032 314.112 222.823 314.367C222.614 314.623 222.527 314.925 222.556 315.279C222.591 315.65 222.777 315.958 223.107 316.196C223.444 316.434 223.868 316.574 224.396 316.609L224.239 317.898C223.601 317.898 223.038 317.793 222.55 317.596C222.063 317.398 221.68 317.125 221.389 316.771C221.099 316.417 220.931 315.999 220.885 315.511C220.838 315.006 220.919 314.547 221.14 314.135L221.146 314.152ZM230.235 313.996L231.813 313.845L231.935 315.116L230.357 315.267L230.235 313.996Z" fill="#200020"/>
<path d="M68.5843 39.4793L72.7979 53.1366C73.419 55.5928 71.6488 58.049 68.9964 58.1419C60.2441 58.2871 53.4477 66.0564 53.4477 66.0564L46.0593 47.9164C45.4731 46.3428 45.8504 44.5601 46.9589 43.544C54.4924 36.5411 61.5616 36.2856 65.2877 36.6805C66.7097 36.8953 67.9865 37.9115 68.5727 39.4793H68.5843Z" fill="#E9E4F2"/>
<path d="M53.4534 66.0565L55.5254 72.0026C52.2346 78.7615 45.6356 79.888 41.6599 80.0332C39.8955 80.0971 38.4387 78.9996 37.8467 77.426L33.7608 64.9184C32.9772 62.8222 34.2192 60.5634 36.2332 59.9595C42.0893 58.0665 47.1678 51.6792 47.1678 51.6792" fill="#E9E4F2"/>
<path d="M51.8864 62.8859C51.5324 62.8859 51.1841 62.7001 50.9984 62.3633C50.7256 61.8755 50.8998 61.2542 51.3873 60.9813C51.4221 60.9639 54.8638 58.9954 55.5777 55.8773C55.9375 54.3036 55.5371 52.6546 54.3879 50.9764C50.9404 47.3879 46.3843 48.7525 46.1928 48.8105C45.6588 48.9789 45.09 48.6828 44.9217 48.1486C44.7534 47.6144 45.0494 47.0453 45.5834 46.8769C45.8271 46.8014 51.5788 45.0362 55.9201 49.6409C55.955 49.6757 55.984 49.7164 56.013 49.757C57.5394 51.9519 58.056 54.1759 57.551 56.3534C56.6224 60.3542 52.5481 62.6711 52.374 62.764C52.2173 62.8511 52.0489 62.8917 51.8806 62.8917L51.8864 62.8859Z" fill="#D60080"/>
<path d="M51.4802 70.7599C49.3792 70.7599 46.5062 70.1792 44.0744 67.601C44.0396 67.5662 44.0105 67.5255 43.9815 67.4849C42.4551 65.29 41.9385 63.066 42.4435 60.8885C43.3721 56.8877 47.4465 54.5709 47.6206 54.478C48.1081 54.205 48.7291 54.3792 49.0019 54.8728C49.2747 55.3606 49.1006 55.9819 48.613 56.2548C48.5492 56.2954 45.1365 58.2581 44.4226 61.3589C44.0628 62.9325 44.4633 64.5816 45.6124 66.2597C49.06 69.8482 53.616 68.4836 53.8076 68.4256C54.3415 68.263 54.9103 68.5533 55.0786 69.0875C55.2469 69.6218 54.9509 70.1908 54.417 70.3592C54.3125 70.394 53.1343 70.7541 51.4802 70.7541V70.7599Z" fill="#D60080"/>
<path d="M65.1775 44.1304C64.1211 44.1304 63.1345 43.8982 62.2232 43.4278C58.9673 41.7439 57.998 37.6676 57.9574 37.4992C57.8297 36.9534 58.1721 36.4076 58.7177 36.2798C59.2691 36.1579 59.8088 36.4947 59.9365 37.0405C59.9423 37.0695 60.7432 40.3851 63.1635 41.622C64.4752 42.2955 66.0828 42.2433 67.9517 41.471C68.4683 41.2561 69.066 41.5 69.2808 42.0226C69.4955 42.5394 69.2518 43.1375 68.7294 43.3523C67.4758 43.8691 66.2918 44.1304 65.1832 44.1304H65.1775Z" fill="#D60080"/>
<path d="M65.4503 58.8449C64.9453 58.8449 64.51 58.4733 64.4462 57.9565C63.6801 52.0278 68.0852 48.7355 70.5171 47.8238C71.0452 47.6264 71.6256 47.8935 71.8229 48.4219C72.0203 48.9503 71.7533 49.531 71.2252 49.7284C71.0046 49.8155 65.7056 51.9059 66.4543 57.6952C66.524 58.2526 66.1351 58.7636 65.578 58.8333C65.5315 58.8333 65.4909 58.8391 65.4444 58.8391L65.4503 58.8449Z" fill="#D60080"/>
<path d="M35.0434 66.9508C34.6139 66.9508 34.2135 66.6779 34.08 66.2482C33.9059 65.714 34.2019 65.1391 34.7358 64.9707C36.3319 64.4539 37.4056 63.6526 37.928 62.5784C38.6709 61.0628 38.0963 59.4312 38.0905 59.4137C37.8989 58.8853 38.1717 58.3047 38.6941 58.113C39.2223 57.9214 39.7968 58.1827 39.9942 58.7053C40.029 58.804 40.8822 61.1325 39.762 63.4436C38.9901 65.0404 37.5101 66.2075 35.3568 66.9043C35.2524 66.9392 35.1479 66.9508 35.0434 66.9508Z" fill="#D60080"/>
<path d="M44.4633 80.1494C43.9526 80.1494 43.5115 79.7603 43.4534 79.2435C43.2909 77.7512 42.7396 76.6363 41.8167 75.9221C40.122 74.6214 37.6495 74.9872 37.6263 74.9931C37.0749 75.0743 36.5526 74.7027 36.4655 74.1511C36.3785 73.5995 36.7499 73.0769 37.3071 72.9898C37.4406 72.9665 40.6444 72.473 43.0414 74.3021C44.4343 75.3647 45.2527 76.9557 45.479 79.0287C45.5371 79.5861 45.1366 80.0855 44.5794 80.1494C44.5446 80.1494 44.5039 80.1494 44.4691 80.1494H44.4633Z" fill="#D60080"/>
<path d="M53.4534 67.0727C53.3953 67.0727 53.3431 67.0727 53.2851 67.0611C52.9368 67.003 52.6466 66.7708 52.5132 66.4398L45.1248 48.2939C44.376 46.2964 44.8462 44.0957 46.2855 42.7892C53.5869 36.0012 60.7141 35.165 65.4094 35.6644C67.2783 35.9431 68.8453 37.2671 69.5418 39.1194C69.5476 39.1368 69.5534 39.1542 69.5592 39.1774L73.7729 52.8347C74.1618 54.3677 73.8541 55.9181 72.9371 57.1375C72.0201 58.3627 70.5981 59.1001 69.0427 59.1524C60.836 59.286 54.2834 66.6488 54.2195 66.7243C54.0222 66.945 53.7436 67.0727 53.4534 67.0727ZM63.1343 37.5748C57.7309 37.5748 52.4145 39.8684 47.6611 44.2873C46.8369 45.0364 46.5757 46.3777 47.0168 47.5565L53.8074 64.2332C56.1464 61.9802 61.9039 57.242 68.9847 57.1259C69.9075 57.091 70.7606 56.6555 71.312 55.9181C71.8576 55.1923 72.0433 54.269 71.817 53.3806L67.6265 39.8046C67.1796 38.6374 66.2568 37.8419 65.1483 37.6793C64.475 37.6096 63.8018 37.5748 63.1343 37.5748Z" fill="#200020"/>
<path d="M41.5149 81.0553C39.4487 81.0553 37.6494 79.7895 36.9007 77.7862L32.8032 65.238C32.3505 64.036 32.4259 62.6888 33.0179 61.4869C33.6157 60.2791 34.6836 59.3732 35.9489 58.99C41.422 57.219 46.3321 51.1161 46.3843 51.0523C46.7326 50.611 47.371 50.5413 47.8121 50.8897C48.2532 51.2381 48.3228 51.8768 47.9746 52.3181C47.7599 52.591 42.6408 58.961 36.5583 60.9294C35.8096 61.1559 35.1944 61.6843 34.8404 62.3869C34.4979 63.0779 34.4573 63.8502 34.7185 64.5644L38.816 77.1126C39.2629 78.2972 40.3773 79.0753 41.6251 79.0172C47.7773 78.7908 52.078 76.41 54.4228 71.9273L52.49 66.3935C52.3043 65.8651 52.5829 65.2844 53.1169 65.0986C53.645 64.9128 54.2254 65.1915 54.4111 65.7257L56.4831 71.6718C56.5702 71.9273 56.5528 72.206 56.4367 72.4499C53.8192 77.821 48.7233 80.7941 41.6948 81.0495C41.6309 81.0495 41.5729 81.0495 41.509 81.0495L41.5149 81.0553Z" fill="#200020"/>
<path d="M47.9512 314.739L60.3426 307.632C62.6003 306.488 65.3804 307.678 66.0594 310.245C68.114 318.757 77.1856 323.687 77.1856 323.687L61.1087 334.871C59.7042 335.788 57.8818 335.811 56.6513 334.946C48.1718 329.128 46.3726 322.288 45.9373 318.56C45.8328 317.125 46.5467 315.656 47.9512 314.739Z" fill="#E9E4F2"/>
<path d="M77.1855 323.687L82.5251 320.36C89.838 322.096 92.3802 328.286 93.3958 332.136C93.8486 333.849 93.094 335.509 91.6895 336.427L80.3834 343.157C78.5088 344.382 76.0363 343.662 75.0032 341.827C71.8691 336.526 64.533 332.966 64.533 332.966" fill="#E9E4F2"/>
<path d="M61.0738 336.084C60.7256 336.084 60.3832 335.904 60.1974 335.579C60.0698 335.359 57.0923 330.133 60.6269 324.878C60.6559 324.837 60.6849 324.796 60.7198 324.756C62.5306 322.781 64.5678 321.783 66.8139 321.806C70.9172 321.835 74.0688 325.307 74.2023 325.452C74.5737 325.87 74.5389 326.515 74.121 326.887C73.7031 327.264 73.0647 327.223 72.6875 326.805C72.6585 326.776 69.9886 323.85 66.7907 323.832C65.1772 323.827 63.6566 324.576 62.2694 326.068C59.501 330.249 61.927 334.499 61.9502 334.54C62.2346 335.022 62.0721 335.649 61.5846 335.928C61.4221 336.021 61.248 336.067 61.0738 336.067V336.084Z" fill="#D60080"/>
<path d="M74.6085 335.573H74.5621C70.4587 335.544 67.3072 332.072 67.1737 331.927C66.8023 331.509 66.8371 330.864 67.255 330.492C67.6728 330.121 68.3171 330.156 68.6885 330.574C68.7176 330.603 71.3873 333.529 74.5853 333.547H74.6085C76.2104 333.547 77.7252 332.798 79.1066 331.311C81.875 327.13 79.449 322.88 79.4258 322.839C79.1414 322.357 79.3039 321.73 79.7914 321.452C80.2732 321.167 80.9 321.33 81.1785 321.817C81.3062 322.038 84.2836 327.264 80.7491 332.519C80.72 332.56 80.691 332.6 80.6562 332.641C78.8628 334.598 76.8256 335.591 74.6085 335.591V335.573Z" fill="#D60080"/>
<path d="M47.9049 325.644C47.5276 325.644 47.1619 325.429 46.9878 325.069C46.7441 324.564 46.9588 323.954 47.4637 323.716C47.4928 323.704 50.5456 322.195 51.2247 319.564C51.5961 318.136 51.1898 316.574 50.0291 314.925C49.704 314.466 49.8143 313.833 50.2728 313.508C50.7313 313.183 51.364 313.293 51.689 313.752C53.2154 315.918 53.7146 318.049 53.1864 320.081C52.2578 323.629 48.4968 325.47 48.3401 325.545C48.2008 325.615 48.0499 325.644 47.9049 325.644Z" fill="#D60080"/>
<path d="M63.558 315.343C59.6404 315.343 56.7965 312.747 55.6705 311.028C55.3629 310.558 55.4964 309.931 55.9665 309.623C56.4366 309.315 57.0634 309.449 57.371 309.919C57.5045 310.117 60.7025 314.826 66.1872 312.829C66.7154 312.637 67.2957 312.91 67.4873 313.438C67.6788 313.967 67.406 314.547 66.8779 314.739C65.7055 315.169 64.5911 315.349 63.5522 315.349L63.558 315.343Z" fill="#D60080"/>
<path d="M81.0974 342.704C80.7491 342.704 80.4125 342.524 80.221 342.205C79.3678 340.759 78.3463 339.888 77.1913 339.609C75.5488 339.22 74.0804 340.137 74.0688 340.143C73.5987 340.445 72.9719 340.312 72.6643 339.841C72.3625 339.371 72.4902 338.75 72.9603 338.442C73.0473 338.384 75.1367 337.043 77.6324 337.629C79.362 338.03 80.8188 339.226 81.968 341.171C82.2524 341.653 82.0957 342.28 81.6081 342.565C81.4456 342.663 81.2657 342.704 81.0916 342.704H81.0974Z" fill="#D60080"/>
<path d="M88.4219 338.575C88.0214 338.575 87.6383 338.337 87.4816 337.937C87.4294 337.809 86.2454 334.795 87.5048 332.049C88.2361 330.458 89.6059 329.308 91.5792 328.634C92.1132 328.454 92.6877 328.739 92.8677 329.267C93.0476 329.796 92.7632 330.376 92.235 330.556C90.8131 331.038 89.8496 331.822 89.3563 332.885C88.4567 334.824 89.3563 337.159 89.3679 337.182C89.5711 337.704 89.3215 338.291 88.7991 338.5C88.6772 338.546 88.5496 338.57 88.4219 338.57V338.575Z" fill="#D60080"/>
<path d="M58.7465 336.601C57.783 336.601 56.8486 336.328 56.0709 335.782C47.8526 330.144 45.4788 323.368 44.9332 318.676C44.7939 316.789 45.7399 314.971 47.3998 313.885C47.4173 313.874 47.4347 313.862 47.4521 313.856L59.8434 306.749C61.2538 306.035 62.8325 305.994 64.2254 306.621C65.6241 307.248 66.6514 308.474 67.0461 309.983C68.973 317.968 77.586 322.746 77.673 322.793C77.9807 322.961 78.1838 323.281 78.2012 323.629C78.2186 323.983 78.0561 324.32 77.7659 324.517L61.6891 335.701C60.7779 336.299 59.7448 336.595 58.7407 336.595L58.7465 336.601ZM48.4852 315.604C47.4463 316.295 46.8717 317.369 46.9529 318.49C47.661 324.57 51.213 329.987 57.2259 334.116C58.1371 334.755 59.501 334.714 60.5573 334.029L75.3341 323.745C72.6237 321.957 66.7385 317.375 65.0785 310.489C64.8464 309.594 64.2254 308.857 63.3954 308.485C62.5655 308.114 61.6252 308.137 60.8127 308.549L48.491 315.616L48.4852 315.604Z" fill="#200020"/>
<path d="M78.3637 344.777C77.9807 344.777 77.586 344.73 77.1971 344.638C75.8912 344.318 74.7711 343.476 74.1211 342.321C71.1959 337.368 64.1673 333.913 64.0919 333.878C63.5869 333.634 63.378 333.024 63.6218 332.519C63.8655 332.014 64.4749 331.805 64.9799 332.049C65.2933 332.2 72.6295 335.806 75.8797 341.305C76.2627 341.984 76.9127 342.472 77.6789 342.657C78.4276 342.838 79.1937 342.71 79.8263 342.297L91.1671 335.55C92.2293 334.853 92.7284 333.605 92.4092 332.391C90.8421 326.439 87.5745 322.758 82.6934 321.452L77.7195 324.552C77.2436 324.848 76.6167 324.703 76.3207 324.227C76.0247 323.751 76.1698 323.124 76.6457 322.828L81.9853 319.5C82.2175 319.355 82.4903 319.309 82.7573 319.373C88.567 320.749 92.5833 325.075 94.3767 331.88C94.9223 333.953 94.0865 336.073 92.2467 337.281L80.9058 344.028C80.1513 344.521 79.2691 344.783 78.3637 344.783V344.777Z" fill="#200020"/>
<path d="M238.854 332.304C238.854 332.304 251.169 334.667 258.221 326.596C265.273 318.53 275.418 310.703 279.017 313.92C282.615 317.137 291.687 334.725 289.452 335.097C287.223 335.474 276.556 341.351 272.278 347.465C264.762 358.207 249.498 357.412 245.383 354.747C241.268 352.076 234.129 335.08 238.859 332.298L238.854 332.304Z" fill="#D60080"/>
<path d="M253.474 357.517C249.759 357.517 246.579 356.738 244.826 355.6C241.332 353.336 236.137 342.402 236.277 335.956C236.323 333.727 237.02 332.199 238.337 331.427C238.552 331.305 238.801 331.259 239.045 331.305C239.161 331.328 250.885 333.448 257.455 325.928C263.236 319.309 271.361 312.492 276.486 312.178C277.792 312.097 278.866 312.428 279.69 313.165C282.859 315.999 291.634 331.944 290.735 335.068C290.572 335.625 290.16 336.009 289.62 336.102C287.688 336.427 277.287 342.077 273.108 348.052C268.169 355.113 260.003 357.517 253.474 357.517ZM239.109 333.372C238.494 333.959 238.331 335.097 238.308 336.003C238.18 341.879 243.253 352.163 245.929 353.899C249.457 356.187 264.124 357.348 271.443 346.89C274.019 343.209 278.581 339.917 281.071 338.285C284.066 336.322 287.16 334.702 288.785 334.22C288.582 331.352 281.594 317.601 278.332 314.681C277.926 314.315 277.363 314.158 276.608 314.205C272.801 314.437 265.389 319.93 258.982 327.264C252.319 334.888 241.471 333.732 239.109 333.372Z" fill="#E9E4F2"/>
<path d="M264.06 346.478C263.259 346.478 262.452 346.356 261.669 346.118C259.486 345.45 257.71 343.929 256.672 341.833C255.638 339.754 255.453 337.362 256.149 335.091C257.589 330.382 262.406 327.67 266.892 329.041C271.373 330.411 273.851 335.358 272.412 340.068C271.715 342.338 270.224 344.219 268.21 345.363C266.91 346.101 265.488 346.478 264.066 346.478H264.06ZM264.513 330.719C261.686 330.719 259.01 332.681 258.093 335.683C257.554 337.455 257.693 339.318 258.494 340.927C259.283 342.518 260.624 343.668 262.266 344.173C263.909 344.678 265.662 344.469 267.206 343.592C268.767 342.704 269.928 341.24 270.467 339.469C271.582 335.834 269.707 332.025 266.3 330.98C265.708 330.8 265.11 330.713 264.518 330.713L264.513 330.719Z" fill="#200020"/>
<path d="M252.092 356.21C251.651 356.21 251.245 355.92 251.117 355.478C249.243 348.998 242.667 349.991 242.388 350.037C241.831 350.13 241.314 349.753 241.222 349.201C241.129 348.65 241.5 348.127 242.051 348.034C245.029 347.535 251.164 348.324 253.067 354.915C253.224 355.455 252.911 356.018 252.377 356.175C252.284 356.204 252.185 356.216 252.092 356.216V356.21Z" fill="#200020"/>
<path d="M237.942 340.114C237.391 340.114 236.938 339.678 236.927 339.121C236.915 338.564 237.356 338.099 237.913 338.082C238.111 338.076 242.626 337.867 243.433 333.076C243.526 332.525 244.048 332.153 244.605 332.246C245.157 332.339 245.534 332.861 245.435 333.419C244.565 338.593 240.165 340.068 237.966 340.12C237.96 340.12 237.948 340.12 237.942 340.12V340.114Z" fill="#200020"/>
<path d="M283.637 337.64C283.335 337.64 283.039 337.507 282.842 337.251C282.749 337.129 281.93 336.032 282.151 334.238C282.4 332.229 283.822 330.202 286.388 328.222C286.835 327.879 287.467 327.961 287.81 328.408C288.152 328.855 288.071 329.488 287.624 329.83C284.983 331.869 284.287 333.489 284.159 334.487C284.043 335.434 284.426 335.985 284.432 335.991C284.78 336.433 284.705 337.071 284.263 337.42C284.078 337.565 283.857 337.64 283.637 337.64Z" fill="#200020"/>
<path d="M277.74 319.721C274.17 319.721 271.849 317.346 270.99 315.726C270.729 315.232 270.914 314.617 271.408 314.35C271.901 314.083 272.516 314.274 272.777 314.768C272.876 314.954 275.273 319.227 280.578 317.085C281.094 316.876 281.692 317.125 281.901 317.648C282.11 318.171 281.861 318.763 281.338 318.972C280.027 319.5 278.819 319.721 277.734 319.721H277.74Z" fill="#200020"/>
<path d="M253.474 357.517C249.759 357.517 246.579 356.738 244.826 355.6C241.332 353.336 236.137 342.402 236.277 335.956C236.323 333.727 237.02 332.199 238.337 331.427C238.552 331.305 238.801 331.259 239.045 331.305C239.161 331.328 250.885 333.448 257.455 325.928C263.236 319.309 271.361 312.492 276.486 312.178C277.792 312.097 278.866 312.428 279.69 313.165C282.859 315.999 291.634 331.944 290.735 335.068C290.572 335.625 290.16 336.009 289.62 336.102C287.688 336.427 277.287 342.077 273.108 348.052C268.169 355.113 260.003 357.517 253.474 357.517ZM239.109 333.372C238.494 333.959 238.331 335.097 238.308 336.003C238.18 341.879 243.253 352.163 245.929 353.899C249.457 356.187 264.124 357.348 271.443 346.89C274.019 343.209 278.581 339.917 281.071 338.285C284.066 336.322 287.16 334.702 288.785 334.22C288.582 331.352 281.594 317.601 278.332 314.681C277.926 314.315 277.363 314.158 276.608 314.205C272.801 314.437 265.389 319.93 258.982 327.264C252.319 334.888 241.471 333.732 239.109 333.372Z" fill="#E9E4F2"/>
<path d="M318.547 150.062C318.547 150.062 330.863 152.425 337.915 144.354C344.967 136.288 355.112 128.461 358.71 131.678C362.309 134.895 371.38 152.483 369.146 152.855C366.917 153.232 356.249 159.109 351.972 165.223C344.456 175.965 329.192 175.17 325.077 172.505C320.962 169.833 313.823 152.837 318.553 150.056L318.547 150.062Z" fill="#E9E4F2"/>
<path d="M333.167 175.28C329.453 175.28 326.272 174.502 324.519 173.364C321.026 171.099 315.831 160.165 315.97 153.72C316.017 151.49 316.713 149.963 318.031 149.191C318.245 149.069 318.495 149.022 318.739 149.069C318.855 149.092 330.579 151.212 337.149 143.692C342.929 137.072 351.055 130.255 356.18 129.942C357.486 129.86 358.559 130.191 359.384 130.929C362.552 133.763 371.328 149.708 370.428 152.832C370.266 153.389 369.854 153.772 369.314 153.865C367.381 154.19 356.981 159.84 352.802 165.815C347.863 172.876 339.697 175.28 333.167 175.28ZM318.803 151.136C318.187 151.723 318.025 152.861 318.002 153.766C317.874 159.643 322.947 169.926 325.622 171.663C329.151 173.95 343.817 175.112 351.13 164.654C353.707 160.973 358.269 157.68 360.759 156.049C363.754 154.086 366.847 152.466 368.472 151.984C368.269 149.115 361.281 135.365 358.02 132.444C357.613 132.079 357.045 131.922 356.296 131.968C352.489 132.201 345.077 137.694 338.669 145.027C332.007 152.652 321.159 151.496 318.791 151.136H318.803Z" fill="#D60080"/>
<path d="M343.754 164.236C342.953 164.236 342.146 164.114 341.362 163.876C339.18 163.208 337.404 161.687 336.365 159.591C335.332 157.512 335.146 155.119 335.843 152.849C337.282 148.14 342.099 145.428 346.586 146.798C351.066 148.169 353.545 153.116 352.105 157.825C351.409 160.096 349.917 161.977 347.903 163.121C346.603 163.858 345.181 164.236 343.759 164.236H343.754ZM344.206 148.477C341.38 148.477 338.704 150.439 337.787 153.441C337.247 155.212 337.387 157.076 338.188 158.685C338.977 160.276 340.318 161.425 341.96 161.931C343.603 162.436 345.355 162.227 346.899 161.35C348.461 160.462 349.621 158.998 350.161 157.227C351.275 153.592 349.401 149.783 345.988 148.738C345.396 148.558 344.798 148.471 344.206 148.471V148.477Z" fill="#200020"/>
<path d="M331.786 173.968C331.345 173.968 330.938 173.678 330.811 173.236C328.936 166.762 322.36 167.749 322.082 167.795C321.53 167.888 321.008 167.511 320.915 166.959C320.822 166.408 321.194 165.885 321.745 165.792C324.723 165.287 330.851 166.082 332.761 172.673C332.918 173.213 332.604 173.776 332.07 173.933C331.977 173.962 331.879 173.974 331.786 173.974V173.968Z" fill="#200020"/>
<path d="M317.636 157.872C317.085 157.872 316.632 157.437 316.62 156.879C316.609 156.322 317.05 155.851 317.607 155.84C317.816 155.834 322.32 155.619 323.127 150.834C323.219 150.283 323.742 149.911 324.299 150.004C324.85 150.097 325.228 150.619 325.129 151.177C324.258 156.351 319.859 157.826 317.659 157.878C317.653 157.878 317.642 157.878 317.636 157.878V157.872Z" fill="#200020"/>
<path d="M363.33 155.398C363.028 155.398 362.732 155.265 362.535 155.009C362.442 154.887 361.624 153.79 361.844 151.995C362.094 149.986 363.516 147.96 366.081 145.98C366.522 145.637 367.161 145.718 367.503 146.166C367.846 146.607 367.764 147.246 367.318 147.588C364.677 149.626 363.98 151.246 363.853 152.245C363.737 153.192 364.12 153.743 364.125 153.749C364.474 154.19 364.398 154.829 363.957 155.177C363.771 155.323 363.551 155.398 363.33 155.398Z" fill="#200020"/>
<path d="M357.433 137.479C353.864 137.479 351.542 135.104 350.683 133.484C350.422 132.99 350.608 132.375 351.101 132.108C351.595 131.846 352.21 132.032 352.471 132.526C352.575 132.717 354.973 136.979 360.271 134.842C360.788 134.633 361.386 134.883 361.595 135.406C361.804 135.928 361.554 136.521 361.032 136.73C359.72 137.258 358.513 137.479 357.428 137.479H357.433Z" fill="#200020"/>
<path d="M333.167 175.28C329.453 175.28 326.272 174.502 324.519 173.364C321.026 171.099 315.831 160.165 315.97 153.72C316.017 151.49 316.713 149.963 318.031 149.191C318.245 149.069 318.495 149.022 318.739 149.069C318.855 149.092 330.579 151.212 337.149 143.692C342.929 137.072 351.055 130.255 356.18 129.942C357.486 129.86 358.559 130.191 359.384 130.929C362.552 133.763 371.328 149.708 370.428 152.832C370.266 153.389 369.854 153.772 369.314 153.865C367.381 154.19 356.981 159.84 352.802 165.815C347.863 172.876 339.697 175.28 333.167 175.28ZM318.803 151.136C318.187 151.723 318.025 152.861 318.002 153.766C317.874 159.643 322.947 169.926 325.622 171.663C329.151 173.95 343.817 175.112 351.13 164.654C353.707 160.973 358.269 157.68 360.759 156.049C363.754 154.086 366.847 152.466 368.472 151.984C368.269 149.115 361.281 135.365 358.02 132.444C357.613 132.079 357.045 131.922 356.296 131.968C352.489 132.201 345.077 137.694 338.669 145.027C332.007 152.652 321.159 151.496 318.791 151.136H318.803Z" fill="#D60080"/>
</g>
<defs>
<clipPath id="clip0_81_4365">
<rect width="689" height="408" fill="white" transform="translate(-276)"/>
</clipPath>
</defs>
</svg>
