<svg width="768" height="662" viewBox="0 0 768 662" fill="none" xmlns="http://www.w3.org/2000/svg">
<path d="M574.119 279.199C569.669 284.369 561.874 288.158 556.036 290.45C552.085 291.997 550.393 296.667 552.437 300.388C553.816 302.895 556.574 304.305 559.41 303.982C571.488 302.611 581.522 295.522 587.908 289.686C592.456 285.534 592.965 278.543 589.141 273.716C586.158 269.946 581.19 268.379 576.593 269.73L551.155 277.231C557.63 264.335 550.305 253.476 544.759 247.719C542.05 244.899 537.835 244.155 534.285 245.8C529.757 247.895 527.733 253.192 529.659 257.804C530.07 258.783 530.491 259.87 530.94 261.094C534.383 270.504 529.728 282.137 524.535 289.813C519.4 297.411 518.588 309.563 523.557 311.658C529.141 314.008 529.826 309.21 524.906 309.23C518.852 309.259 508.906 323.007 508.906 323.007C508.906 323.007 496.134 340.7 491.645 366.012" stroke="#200020" stroke-width="3.5" stroke-linecap="round" stroke-linejoin="round"/>
<path d="M591.654 283.987L592.016 284.065C595.087 284.751 597.649 286.866 598.901 289.754C600.348 293.084 599.869 296.951 597.6 299.791C593.189 305.333 584.016 313.577 567.517 315.634C565.64 315.869 563.664 316.025 561.581 316.084C558.422 316.172 555.576 314.155 554.578 311.149C553.767 308.721 554.305 306.048 555.987 304.128L556.388 303.668" stroke="#200020" stroke-width="3.5" stroke-linecap="round" stroke-linejoin="round"/>
<path d="M567.527 315.643C566.256 318.16 566.53 321.185 568.231 323.438L568.466 323.751C569.972 325.748 572.378 326.874 574.872 326.688C580.427 326.258 590.353 323.956 597.669 313.705C600.769 309.367 600.974 303.6 598.158 299.076" stroke="#200020" stroke-width="3.5" stroke-linecap="round" stroke-linejoin="round"/>
<path d="M596.495 315.271C596.495 315.271 605.092 317.524 614.001 315.624C615.898 315.222 617.532 314.87 618.93 314.566C622.911 313.695 626.881 316.035 628.065 319.942C629.248 323.859 627.204 328.02 623.39 329.499C617.502 331.77 608.123 334.365 597.023 333.738C577.992 332.652 561.512 335.119 552.779 348.573" stroke="#200020" stroke-width="3.5" stroke-linecap="round" stroke-linejoin="round"/>
<path d="M551.155 277.241C551.155 277.241 545.376 277.593 545.561 280.531C545.747 283.468 550.041 279.806 551.155 277.241Z" stroke="#200020" stroke-width="3.5" stroke-linecap="round" stroke-linejoin="round"/>
<path d="M274.287 267.684C280.096 273.216 297.113 293.847 295.998 326.081" stroke="#200020" stroke-width="3.5" stroke-miterlimit="10"/>
<path d="M220.429 266.235L218.766 264.717C218.542 264.512 218.512 264.159 218.698 263.934C218.972 263.621 219.255 263.307 219.51 262.984L220.282 262.005C220.605 261.525 220.967 261.065 221.251 260.566C221.876 259.596 222.356 258.578 222.688 257.569C223.011 256.551 223.148 255.542 223.05 254.583C222.942 253.633 222.571 252.742 221.984 251.939C221.397 251.136 220.595 250.431 219.686 249.844C219.226 249.55 218.747 249.286 218.248 249.051L218.131 248.992L216.996 250.04C216.527 250.49 216.057 250.95 215.598 251.42C214.688 252.36 213.808 253.33 212.977 254.338C211.304 256.345 209.818 258.48 208.625 260.742C207.432 262.994 206.551 265.393 206.229 267.821C206.072 269.035 206.062 270.249 206.19 271.444C206.336 272.639 206.679 273.765 207.109 275.018C208.762 279.865 211.686 284.3 216.018 286.631C218.16 287.816 220.586 288.462 223.06 288.648C224.302 288.736 225.563 288.717 226.805 288.589C227.431 288.521 228.048 288.433 228.664 288.315C228.967 288.256 229.27 288.188 229.573 288.119L230.052 287.992C230.375 287.904 230.698 287.737 231.03 287.865C231.216 287.894 231.431 287.933 231.578 287.963L231.901 288.031L232.517 288.188C232.928 288.286 233.319 288.423 233.73 288.54C234.522 288.814 235.304 289.089 236.057 289.441C236.83 289.754 237.554 290.175 238.287 290.557C239.001 290.988 239.715 291.419 240.39 291.909C243.109 293.857 245.407 296.383 247.099 299.262C248.849 302.121 249.808 305.352 250.424 308.545L250.747 310.601C250.796 310.924 250.59 311.208 250.277 311.247L248.038 311.482C247.725 311.511 247.441 311.306 247.392 311.012L247.099 309.161C246.541 306.283 245.7 303.443 244.194 300.985C242.737 298.508 240.771 296.344 238.444 294.67C237.857 294.259 237.241 293.877 236.625 293.505C235.989 293.172 235.363 292.809 234.698 292.545C234.043 292.241 233.368 291.997 232.693 291.771C232.351 291.674 232.008 291.556 231.666 291.468L231.158 291.341L230.884 291.282L230.385 291.409C230.023 291.497 229.671 291.576 229.309 291.644C228.595 291.781 227.881 291.879 227.158 291.967C225.72 292.114 224.263 292.144 222.815 292.036C219.92 291.82 216.996 291.057 214.395 289.617C213.104 288.893 211.881 288.041 210.776 287.062C209.701 286.053 208.683 284.986 207.833 283.801C206.082 281.461 204.85 278.827 203.911 276.164C203.461 274.861 203.001 273.393 202.825 271.894C202.649 270.396 202.679 268.888 202.864 267.42C203.256 264.472 204.292 261.721 205.622 259.204C206.952 256.678 208.576 254.367 210.365 252.213C211.255 251.136 212.194 250.098 213.163 249.1C213.652 248.6 214.15 248.111 214.649 247.631L215.422 246.916L215.813 246.563L216.517 245.956L217.231 245.369L217.407 245.222C217.466 245.173 217.554 245.251 217.622 245.261L218.053 245.408C218.336 245.506 218.63 245.594 218.923 245.721C219.197 245.829 219.559 245.986 219.666 246.035C220.302 246.328 220.918 246.671 221.505 247.053C222.688 247.817 223.803 248.776 224.693 249.991C225.583 251.195 226.209 252.693 226.385 254.23C226.561 255.768 226.326 257.276 225.896 258.637C225.456 259.998 224.84 261.251 224.116 262.387C223.774 262.974 223.363 263.503 222.991 264.051L222.131 265.158C221.847 265.52 221.534 265.853 221.231 266.206C221.016 266.45 220.654 266.48 220.429 266.274V266.235Z" fill="#200020"/>
<path d="M225.035 219.666L227.118 220.527C227.412 220.645 227.725 220.576 227.813 220.381C228.136 219.793 228.605 219.186 229.114 218.647C229.299 218.471 229.29 218.138 229.074 217.913L227.549 216.258C227.343 216.023 226.952 216.043 226.688 216.288C225.984 217.042 225.348 217.835 224.82 218.794C224.634 219.157 224.732 219.548 225.026 219.666H225.035Z" fill="#200020"/>
<path d="M229.241 214.976L230.414 216.895C230.58 217.159 230.884 217.267 231.099 217.139L231.881 216.797L232.077 216.738L232.175 216.709H232.224L232.38 216.65C232.556 216.581 232.722 216.572 232.898 216.552C234.287 216.356 235.695 216.797 236.977 217.786L237.896 218.598C238.209 218.873 238.463 219.225 238.756 219.529L239.187 220.008L239.617 220.557C239.901 220.919 240.184 221.291 240.458 221.663C242.678 224.65 244.722 227.812 246.571 231.053C248.399 234.294 250.072 237.653 251.167 241.09C251.705 242.794 252.116 244.556 252.086 246.142C252.067 246.935 251.94 247.66 251.676 248.218C251.392 248.766 251.03 249.178 250.463 249.471C250.179 249.609 249.866 249.755 249.514 249.814C249.338 249.844 249.172 249.893 248.996 249.922L248.458 249.961C247.734 249.961 246.981 249.873 246.228 249.599C244.703 249.109 243.206 248.15 241.808 247.073C239.001 244.86 236.536 242.049 234.258 239.122C233.123 237.643 232.038 236.125 231.011 234.578C230.493 233.805 229.994 233.012 229.505 232.228L229.114 231.582L228.673 230.946L227.842 229.771C223.382 223.533 218.698 217.482 213.652 211.676C211.128 208.777 208.498 205.957 205.691 203.275C202.864 200.621 199.911 198.036 196.341 196.048C194.542 195.098 192.546 194.198 190.082 194.227C188.869 194.256 187.539 194.619 186.493 195.382C185.945 195.745 185.564 196.195 185.133 196.626C184.732 197.067 184.41 197.605 184.106 198.124C183.001 200.347 183.05 202.765 183.461 204.812C183.882 206.897 184.644 208.777 185.505 210.579C187.246 214.163 189.437 217.404 191.754 220.508C194.082 223.602 196.566 226.559 199.148 229.408C200.439 230.838 201.759 232.238 203.109 233.609C203.784 234.294 204.468 234.98 205.163 235.655C205.837 236.321 206.61 237.026 207.461 237.673C208.331 238.299 209.241 238.906 210.365 239.318C211.471 239.699 212.82 240.003 214.326 239.464C214.698 239.366 215.05 239.092 215.392 238.887C215.686 238.603 216.028 238.319 216.233 237.966C216.341 237.79 216.449 237.614 216.546 237.428C216.634 237.242 216.683 237.056 216.742 236.87C216.879 236.488 216.898 236.125 216.938 235.763C216.977 235.039 216.85 234.373 216.664 233.756C216.576 233.443 216.439 233.178 216.312 232.884L216.214 232.669L216.057 232.395C215.94 232.199 215.842 232.091 215.735 231.935C214.903 230.946 214.111 230.368 213.29 229.741C212.478 229.144 211.656 228.596 210.835 228.067C209.182 227.019 207.5 226.06 205.798 225.139C202.395 223.318 198.903 221.673 195.344 220.185C191.774 218.706 188.146 217.374 184.371 216.346C182.483 215.837 180.566 215.406 178.581 215.122C176.595 214.858 174.552 214.711 172.38 215.064C171.305 215.25 170.16 215.592 169.085 216.288C168.556 216.64 168.038 217.071 167.637 217.609C167.412 217.864 167.256 218.158 167.08 218.442C166.933 218.765 166.757 219.078 166.679 219.421C166.258 220.802 166.483 222.143 166.835 223.23C167.197 224.336 167.715 225.286 168.273 226.167C170.552 229.653 173.427 232.297 176.322 234.882C182.18 239.964 188.449 244.37 194.825 248.6C198.023 250.705 201.251 252.752 204.517 254.739L206.346 255.836L207.295 256.394C207.568 256.551 207.911 256.463 208.067 256.198L209.192 254.25C209.348 253.985 209.26 253.643 208.996 253.486L208.067 252.938L206.268 251.851C203.04 249.883 199.833 247.866 196.683 245.78C190.385 241.599 184.185 237.242 178.542 232.336C175.764 229.878 173.016 227.264 171.129 224.356C170.209 222.946 169.593 221.301 169.926 220.39C169.945 220.263 170.023 220.165 170.063 220.048C170.151 219.93 170.199 219.803 170.297 219.695C170.464 219.47 170.688 219.284 170.953 219.108C171.481 218.765 172.185 218.52 172.977 218.393C174.561 218.128 176.361 218.226 178.141 218.471C179.93 218.726 181.72 219.127 183.51 219.607C187.08 220.576 190.6 221.869 194.062 223.298C197.515 224.748 200.918 226.344 204.214 228.116C205.857 228.997 207.48 229.927 209.045 230.916C209.818 231.416 210.59 231.925 211.304 232.454C211.999 232.973 212.732 233.57 213.114 234.04C213.143 234.089 213.202 234.148 213.202 234.167L213.231 234.206L213.28 234.324C213.339 234.48 213.427 234.627 213.466 234.774C213.554 235.068 213.603 235.352 213.583 235.577C213.564 235.685 213.583 235.802 213.534 235.871C213.515 235.91 213.515 235.959 213.505 235.988C213.475 236.008 213.466 236.037 213.446 236.067C213.436 236.145 213.358 236.135 213.339 236.204C213.26 236.204 213.251 236.282 213.153 236.292C212.85 236.409 212.214 236.38 211.549 236.125C210.874 235.89 210.18 235.44 209.515 234.95C208.224 233.962 206.854 232.522 205.544 231.22C204.233 229.878 202.943 228.508 201.671 227.117C199.148 224.336 196.723 221.448 194.473 218.461C192.243 215.475 190.15 212.361 188.566 209.101C187.784 207.475 187.119 205.791 186.786 204.136C186.454 202.481 186.512 200.885 187.119 199.661C187.305 199.377 187.461 199.074 187.696 198.819C187.95 198.584 188.175 198.291 188.429 198.134C188.928 197.772 189.515 197.605 190.19 197.586C191.568 197.537 193.212 198.173 194.737 198.996C197.828 200.709 200.674 203.157 203.373 205.703C206.072 208.278 208.634 211.029 211.109 213.869C216.057 219.558 220.693 225.55 225.084 231.7L225.896 232.855C226.209 233.286 226.326 233.482 226.61 233.962C227.118 234.794 227.647 235.616 228.184 236.419C229.26 238.035 230.385 239.611 231.568 241.158C233.955 244.223 236.536 247.2 239.715 249.706C241.319 250.93 243.06 252.096 245.162 252.781C246.199 253.143 247.353 253.32 248.527 253.31L249.417 253.251C249.71 253.212 250.003 253.134 250.297 253.075C250.884 252.957 251.451 252.722 252.018 252.438C253.152 251.87 254.15 250.813 254.698 249.658C255.245 248.492 255.412 247.298 255.431 246.191C255.461 243.959 254.952 241.971 254.355 240.052C253.133 236.233 251.373 232.747 249.475 229.359C247.549 225.991 245.446 222.75 243.138 219.627C242.854 219.235 242.561 218.843 242.258 218.461L241.808 217.884L241.289 217.296C240.928 216.914 240.615 216.493 240.214 216.141L238.991 215.073L237.573 214.163C237.045 213.928 236.517 213.673 235.969 213.487C234.835 213.174 233.603 212.978 232.419 213.193C232.116 213.223 231.823 213.262 231.539 213.36L231.285 213.428L231.206 213.448L231.04 213.497L230.717 213.595C230.297 213.752 229.906 213.947 229.495 214.124C229.172 214.31 229.045 214.682 229.211 214.946L229.241 214.976Z" fill="#200020"/>
<path d="M252.888 240.953C252.888 240.953 259.715 243.675 263.979 240.395C269.769 235.939 256.703 212.273 248.37 209.1C238.786 205.448 237.221 215.935 237.221 215.935" stroke="#200020" stroke-width="3.5" stroke-miterlimit="10"/>
<path d="M263.979 240.395C263.979 240.395 274.228 272.188 263.089 272.022C256.546 271.924 265.641 258.92 274.287 267.684" stroke="#200020" stroke-width="3.5" stroke-miterlimit="10"/>
<path d="M786 596.409L784.406 588.233C784.406 588.233 714.587 495.428 632.925 524.196C632.925 524.196 667.996 500.147 626.871 457.573C610.49 440.614 591.224 438.411 575.517 440.771C566.529 442.122 559.322 433.75 562.011 425.055C566.706 409.868 565.571 389.355 543.693 366.726C498.325 319.785 442.374 356.132 442.374 356.132L394.824 299.438C394.824 299.438 355.841 270.504 311.48 298.097C267.118 325.69 246.952 418.554 306.776 457.583C306.776 457.583 229.485 416.536 207.969 460.276C198.287 479.957 201.544 497.327 208.048 510.477C213.251 520.994 206.023 533.37 194.307 533.556C156.645 534.173 98.8845 546.775 77.7209 614.063C47.8237 601.706 -9.09525 586.196 -65.0166 614.925C-146.014 656.539 -174.786 671.481 -220.615 662.943C-266.443 654.405 -292.018 643.732 -311.206 664.01C-311.206 664.01 -363 643.908 -375 688.019H786V596.428V596.409Z" fill="#D60080"/>
<path d="M440.525 268.487C437.464 253.966 435.802 238.985 436.878 224.141C436.995 222.535 441.357 199.417 441.318 199.397C439.88 198.77 438.247 199.397 436.77 199.916C428.897 202.707 419.968 202.403 412.301 199.103C411.528 198.77 410.755 198.408 409.924 198.3C409.034 198.183 408.134 198.379 407.254 198.565C400.956 199.867 394.55 200.66 388.125 200.915C383.577 201.101 379.333 200.768 375.039 199.221C371.352 197.889 371.949 199.015 371.421 202.305C370.55 207.671 369.836 213.027 369.494 218.452C368.36 236.204 370.198 254.318 376.007 271.18C388.78 308.192 414.99 402.397 385.416 442.103L468.085 438.734C488.251 380.866 450.608 316.26 440.525 268.487Z" fill="#D60080"/>
<path d="M396.017 199.632L393.963 198.721C393.68 198.594 393.318 198.79 393.21 199.103C392.878 200.004 392.594 200.885 392.35 201.776C392.262 202.09 392.438 202.403 392.741 202.491L394.912 203.079C395.215 203.157 395.518 202.991 395.597 202.707C395.822 201.884 396.086 201.081 396.359 200.318C396.467 200.043 396.301 199.779 396.017 199.652V199.632Z" fill="#E9E4F2"/>
<path d="M394.462 204.861L392.272 204.362C391.968 204.293 391.655 204.489 391.597 204.802L391.391 205.811L391.294 206.31L391.206 206.731L391.118 207.279C390.853 208.748 390.658 210.217 390.482 211.695C390.179 214.643 389.954 217.6 389.944 220.547C389.846 226.452 390.267 232.346 391.039 238.172L391.245 239.739C391.284 240.052 391.567 240.268 391.871 240.219L394.1 239.886C394.404 239.837 394.628 239.553 394.589 239.249L394.394 237.722C393.631 232.033 393.23 226.305 393.328 220.596C393.328 217.737 393.563 214.897 393.846 212.068C394.022 210.658 394.208 209.248 394.452 207.857L394.54 207.338L394.619 206.937L394.717 206.467L394.912 205.517C394.971 205.223 394.785 204.929 394.482 204.861H394.462Z" fill="#E9E4F2"/>
<path d="M408.095 255.699C408.095 255.699 400.535 226.931 404.565 215.827" stroke="#E9E4F2" stroke-width="3.5" stroke-miterlimit="10"/>
<path d="M422.217 197.155C422.217 197.155 416.672 216.836 418.687 230.965" stroke="#E9E4F2" stroke-width="3.5" stroke-miterlimit="10"/>
<path d="M385.416 442.103C414.99 402.397 388.78 308.192 376.007 271.18C363.235 234.167 372.291 198.075 372.291 198.075" stroke="#E9E4F2" stroke-width="3.5" stroke-miterlimit="10"/>
<path d="M442.765 198.075C442.765 198.075 430.442 220.704 440.525 268.487C450.608 316.26 488.241 380.866 468.085 438.734" stroke="#E9E4F2" stroke-width="3.5" stroke-miterlimit="10"/>
<path d="M411.626 329.048C411.626 329.048 421.709 376.822 415.655 403.739" stroke="#E9E4F2" stroke-width="3.5" stroke-miterlimit="10"/>
<path d="M428.349 343.246L426.169 343.794C425.865 343.873 425.68 344.157 425.748 344.45C425.944 345.292 426.12 346.144 426.296 346.996C426.354 347.3 426.648 347.495 426.951 347.437L429.161 347.006C429.464 346.947 429.67 346.644 429.601 346.34C429.425 345.459 429.239 344.578 429.034 343.687C428.966 343.383 428.653 343.168 428.349 343.246Z" fill="#E9E4F2"/>
<path d="M429.504 348.876L427.284 349.268C426.98 349.327 426.775 349.611 426.824 349.914L426.99 350.884L427.195 352.176C427.391 353.361 427.528 354.555 427.694 355.75C427.968 358.139 428.222 360.528 428.33 362.917C428.584 367.696 428.526 372.503 427.792 377.154L427.548 378.643C427.499 378.937 427.704 379.23 428.007 379.289L430.218 379.74C430.521 379.798 430.814 379.593 430.863 379.279L431.127 377.683C431.919 372.699 431.968 367.686 431.704 362.741C431.587 360.264 431.332 357.796 431.049 355.339C430.883 354.115 430.736 352.881 430.53 351.667L430.325 350.335L430.149 349.336C430.1 349.023 429.807 348.817 429.494 348.876H429.504Z" fill="#E9E4F2"/>
<path d="M638.822 520.318C638.822 520.318 619.615 517.665 622.089 527.045C624.563 536.425 638.822 520.318 638.822 520.318Z" stroke="#E9E4F2" stroke-width="3.5" stroke-miterlimit="10"/>
<path d="M113.682 270.759L114.464 272.874C114.572 273.167 114.884 273.334 115.168 273.246L117.584 272.482C117.867 272.384 118.034 272.081 117.955 271.787L117.398 269.603C117.32 269.29 117.007 269.123 116.694 269.221L114.043 270.054C113.73 270.152 113.574 270.465 113.682 270.759Z" fill="#D60080"/>
<path d="M119.315 269.202L119.745 271.415C119.804 271.718 120.087 271.924 120.371 271.855C120.713 271.796 121.046 271.689 121.388 271.669L122.474 271.571C125.065 271.238 127.667 271.473 130.151 272.041C135.158 273.187 139.491 276.477 142.395 280.726C143.823 282.881 144.899 285.27 145.544 287.757C146.249 290.361 146.816 293.485 149.153 296.07C150.346 297.333 151.921 298.136 153.407 298.606C154.914 299.076 156.351 299.272 157.769 299.468C160.596 299.81 163.344 299.996 166.082 300.28C167.451 300.408 168.811 300.574 170.18 300.721C171.461 300.907 172.703 301.122 173.916 301.543C176.361 302.297 178.64 303.59 180.733 305.127C184.86 308.29 188.214 312.637 190.121 317.455C191.06 319.854 191.618 322.429 191.373 324.769C191.246 325.934 190.884 326.992 190.278 327.814C189.701 328.598 188.742 329.332 187.95 329.45C187.138 329.636 186.591 329.313 186.239 328.735C186.063 328.431 186.004 328.01 185.984 327.56C186.014 327.325 185.994 327.09 186.072 326.845L186.151 326.473L186.287 326.091C187.05 324.035 188.948 322.165 191.011 320.657C195.256 317.631 200.429 315.751 205.613 314.263C210.825 312.804 216.243 311.785 221.642 311.208C224.331 310.767 227.05 310.787 229.759 310.63C231.119 310.522 232.468 310.62 233.818 310.669C235.167 310.728 236.527 310.757 237.876 310.836C243.255 311.384 248.595 312.344 253.73 314.038C258.835 315.78 263.725 318.13 268.184 321.127C270.385 322.654 272.536 324.28 274.443 326.13L275.568 327.256C275.822 327.501 276.028 327.756 276.262 328.01C276.468 328.226 276.761 328.206 277.016 328.02L278.776 326.62C279.03 326.444 279.02 326.023 278.795 325.778C278.531 325.494 278.277 325.18 278.003 324.916L276.771 323.682C274.698 321.675 272.419 319.942 270.072 318.317C265.338 315.124 260.165 312.647 254.786 310.816C249.378 309.034 243.774 308.026 238.15 307.458C236.742 307.369 235.324 307.34 233.916 307.272C232.507 307.223 231.089 307.125 229.681 307.232C226.864 307.389 224.028 307.369 221.251 307.83C215.637 308.437 210.131 309.465 204.683 310.983C199.275 312.549 193.847 314.468 189.016 317.895C186.669 319.648 184.322 321.744 183.09 324.906L182.874 325.504L182.728 326.15C182.62 326.571 182.6 327.041 182.571 327.491C182.581 328.421 182.728 329.41 183.236 330.321C183.735 331.232 184.547 332.015 185.534 332.446C186.522 332.896 187.618 332.945 188.566 332.74C189.065 332.671 189.486 332.465 189.926 332.309C190.317 332.093 190.747 331.898 191.08 331.633C191.422 331.369 191.784 331.124 192.077 330.801C192.4 330.497 192.693 330.174 192.938 329.812C193.984 328.392 194.493 326.728 194.669 325.151C194.992 321.959 194.268 318.973 193.212 316.221C191.031 310.738 187.363 305.999 182.708 302.425C180.351 300.682 177.74 299.203 174.894 298.312C173.486 297.832 171.989 297.558 170.532 297.353C169.143 297.196 167.755 297.029 166.366 296.902C163.598 296.618 160.811 296.422 158.151 296.099C156.83 295.923 155.52 295.727 154.376 295.365C153.231 294.993 152.283 294.493 151.559 293.73C150.816 292.995 150.317 291.879 149.857 290.733C149.672 290.117 149.427 289.549 149.29 288.893C149.124 288.237 148.977 287.659 148.772 286.905C148.029 284.026 146.796 281.294 145.163 278.827C141.857 273.941 136.772 270.083 130.924 268.741C128.038 268.066 125.026 267.821 122.122 268.193L120.899 268.311C120.508 268.33 120.146 268.448 119.765 268.516C119.442 268.585 119.237 268.879 119.295 269.192L119.315 269.202Z" fill="#D60080"/>
<path d="M432.124 81.1138H378.55C372.684 81.1138 367.929 85.8747 367.929 91.7475V198.633C367.929 204.506 372.684 209.267 378.55 209.267H432.124C437.99 209.267 442.745 204.506 442.745 198.633V91.7475C442.745 85.8747 437.99 81.1138 432.124 81.1138Z" fill="#200020" stroke="#200020" stroke-width="4.31" stroke-linecap="round" stroke-linejoin="round"/>
<path d="M384.555 131.091L389.953 131.082C390.579 131.081 391.088 131.589 391.089 132.216L391.097 136.818C391.097 137.445 390.59 137.955 389.964 137.956L384.565 137.964C383.939 137.965 383.43 137.457 383.429 136.83L383.422 132.228C383.421 131.601 383.929 131.091 384.555 131.091Z" fill="#D60080"/>
<path d="M422.843 131.061H418.198C417.562 131.061 417.064 131.59 417.064 132.207L417.093 150.811C417.093 151.193 416.594 151.33 416.418 150.987L405.592 131.58C405.416 131.267 405.093 131.081 404.721 131.081H396.995C396.359 131.09 395.861 131.609 395.861 132.226L395.91 161.954C395.91 162.59 396.428 163.09 397.044 163.09H401.689C402.325 163.09 402.824 162.561 402.824 161.944L402.795 142.782C402.795 142.4 403.293 142.263 403.469 142.605L414.599 162.59C414.775 162.903 415.098 163.09 415.469 163.09H422.853C423.489 163.08 423.988 162.561 423.988 161.944L423.939 132.187C423.939 131.551 423.42 131.051 422.804 131.051H422.843V131.061Z" fill="#E9E4F2"/>
<path d="M399.929 91.0425H410.746" stroke="#E9E4F2" stroke-width="3.5" stroke-linecap="round" stroke-linejoin="round"/>
<path d="M405.905 43.3184H408.154C408.467 43.3184 408.721 43.5729 408.721 43.8863V71.1854C408.721 71.4987 408.467 71.7533 408.154 71.7533H405.905C405.592 71.7533 405.337 71.4987 405.337 71.1854V43.8863C405.337 43.5729 405.592 43.3184 405.905 43.3184Z" fill="#200020"/>
<path d="M405.905 0H408.154C408.467 0 408.721 0.254583 408.721 0.567915V27.5341C408.721 27.8474 408.467 28.102 408.154 28.102H405.905C405.592 28.102 405.337 27.8474 405.337 27.5341V0.567915C405.337 0.254583 405.592 0 405.905 0Z" fill="#200020"/>
<path d="M361.944 85.2364L360.223 86.6954C359.988 86.901 359.626 86.8618 359.431 86.6268L358.511 85.5302L341.172 64.9775L340.164 63.7829C339.959 63.5479 339.998 63.1856 340.233 62.9898L341.954 61.5406C342.189 61.335 342.551 61.3742 342.746 61.6092L343.753 62.8038L361.093 83.3564L362.013 84.4531C362.218 84.6881 362.179 85.0504 361.944 85.2462V85.2364Z" fill="#D60080"/>
<path d="M334.394 52.6006L332.673 54.0595C332.438 54.2554 332.076 54.226 331.881 53.991L330.961 52.8943L324.311 45.0218L323.304 43.8273C323.098 43.5923 323.138 43.23 323.372 43.0341L325.093 41.5752C325.328 41.3793 325.69 41.4087 325.886 41.6437L326.893 42.8383L333.543 50.7108L334.463 51.8074C334.668 52.0424 334.629 52.4047 334.394 52.6006Z" fill="#D60080"/>
<path d="M382.413 68.6493L380.301 69.4228C380.007 69.5305 379.685 69.3837 379.577 69.0899L379.088 67.7485L361.24 19.1525L360.702 17.6838C360.594 17.39 360.741 17.0669 361.034 16.9592L363.147 16.1857C363.44 16.078 363.763 16.2248 363.871 16.5186L364.409 17.9873L382.257 66.5832L382.746 67.9247C382.853 68.2185 382.707 68.5416 382.413 68.6493Z" fill="#200020"/>
<path d="M446.638 33.9082L444.535 33.0955C444.242 32.9878 444.105 32.6549 444.213 32.3709L444.721 31.0393L448.31 21.6883L448.868 20.2293C448.975 19.9355 449.308 19.7985 449.591 19.9062L451.694 20.7189C451.988 20.8266 452.124 21.1595 452.017 21.4435L451.459 22.9024L447.87 32.2534L447.362 33.5851C447.254 33.8788 446.922 34.0159 446.638 33.9082Z" fill="#D60080"/>
<path d="M433.474 72.4485L431.342 71.7239C431.049 71.626 430.892 71.3029 430.99 71.0091L431.45 69.6481L439.596 45.4627L440.095 43.9842C440.193 43.6904 440.516 43.5338 440.809 43.6317L442.941 44.3563C443.234 44.4542 443.391 44.7773 443.293 45.0711L442.794 46.5496L434.648 70.7349L434.188 72.096C434.09 72.3897 433.768 72.5464 433.474 72.4485Z" fill="#D60080"/>
<path d="M492.622 41.5898L490.859 43.5711C490.65 43.8053 490.671 44.1643 490.905 44.3729L492.577 45.8646C492.811 46.0732 493.17 46.0525 493.378 45.8183L495.141 43.8371C495.35 43.6029 495.329 43.2439 495.095 43.0353L493.423 41.5436C493.189 41.335 492.83 41.3556 492.622 41.5898Z" fill="#200020"/>
<path d="M491.332 47.2937L489.65 45.7956C489.415 45.5899 489.063 45.6095 488.858 45.8445L463.997 73.7801L462.961 74.9453C462.755 75.1803 462.775 75.5328 463.009 75.7384L464.692 77.2365C464.926 77.4421 465.278 77.4226 465.484 77.1876L466.52 76.0224L491.381 48.0868C491.586 47.8518 491.567 47.4993 491.332 47.2937Z" fill="#200020"/>
<path d="M456.574 82.8473L458.256 84.3454C458.491 84.5511 458.511 84.9036 458.305 85.1386L457.357 86.2059L451.978 92.2669L450.941 93.4321C450.736 93.6671 450.384 93.6867 450.149 93.481L448.467 91.9829C448.232 91.7773 448.212 91.4248 448.418 91.1898L449.454 90.0246L454.833 83.9636L455.782 82.8963C455.987 82.6613 456.34 82.6417 456.574 82.8473Z" fill="#200020"/>
<path d="M496.408 90.0634L497.532 92.012C497.689 92.2861 497.591 92.6289 497.327 92.7855L496.085 93.5003L462.129 113.103L460.78 113.887C460.506 114.043 460.164 113.945 460.007 113.681L458.882 111.732C458.726 111.458 458.824 111.115 459.088 110.959L460.437 110.175L494.393 90.5726L495.635 89.8578C495.909 89.7012 496.251 89.7991 496.408 90.0634Z" fill="#200020"/>
<path d="M530.246 69.7359L531.302 71.7236C531.449 71.9978 531.342 72.3405 531.068 72.4873L529.806 73.1532L516.202 80.3598L514.823 81.0942C514.549 81.2411 514.207 81.1334 514.06 80.8592L513.004 78.8715C512.858 78.5973 512.965 78.2546 513.239 78.1077L514.618 77.3734L528.222 70.1667L529.483 69.5009C529.757 69.354 530.099 69.4617 530.246 69.7359Z" fill="#200020"/>
<path d="M456.886 131.37L454.28 131.854C453.972 131.911 453.768 132.207 453.825 132.516L454.234 134.72C454.291 135.029 454.587 135.232 454.895 135.175L457.501 134.691C457.809 134.634 458.012 134.338 457.955 134.029L457.547 131.824C457.49 131.516 457.194 131.312 456.886 131.37Z" fill="#D60080"/>
<path d="M459.41 131.541L459.821 133.754C459.88 134.057 460.173 134.263 460.476 134.204L503.303 126.253L504.838 125.97C505.141 125.911 505.347 125.617 505.288 125.313L504.877 123.101C504.818 122.797 504.525 122.591 504.222 122.65L502.686 122.934L459.86 130.885C459.557 130.944 459.352 131.237 459.41 131.541Z" fill="#D60080"/>
<path d="M532.926 118.704L533.346 120.917C533.405 121.221 533.2 121.514 532.897 121.573L531.488 121.837L521.337 123.776L519.801 124.07C519.498 124.129 519.205 123.923 519.146 123.62L518.725 121.407C518.667 121.103 518.872 120.809 519.175 120.751L520.711 120.457L530.862 118.518L532.271 118.254C532.574 118.195 532.867 118.401 532.926 118.704Z" fill="#D60080"/>
<path d="M470.501 152.887L470.022 155.09C469.953 155.393 469.65 155.589 469.347 155.521L467.948 155.217L455.068 152.378L453.543 152.045C453.239 151.976 453.044 151.673 453.112 151.369L453.591 149.166C453.66 148.862 453.963 148.667 454.266 148.735L455.792 149.068L468.672 151.908L470.071 152.211C470.374 152.28 470.569 152.583 470.501 152.887Z" fill="#200020"/>
<path d="M534.031 164.725L533.601 166.938C533.542 167.241 533.249 167.447 532.945 167.378L531.537 167.104L486.902 158.409L485.366 158.116C485.063 158.057 484.858 157.763 484.926 157.459L485.356 155.247C485.415 154.943 485.709 154.737 486.012 154.806L487.547 155.1L532.183 163.785L533.591 164.059C533.894 164.118 534.099 164.412 534.031 164.715V164.725Z" fill="#200020"/>
<path d="M498.178 192.592L497.122 194.58C496.975 194.854 496.633 194.961 496.359 194.815L495.097 194.139L464.584 177.806L463.205 177.072C462.931 176.925 462.824 176.582 462.97 176.308L464.026 174.321C464.173 174.046 464.516 173.939 464.789 174.086L466.168 174.82L496.682 191.152L497.943 191.828C498.217 191.975 498.325 192.318 498.178 192.592Z" fill="#200020"/>
<path d="M525.571 207.837L524.476 209.805C524.32 210.08 523.977 210.178 523.713 210.021L522.461 209.326L509.151 201.864L507.792 201.101C507.518 200.944 507.42 200.601 507.576 200.337L508.672 198.369C508.828 198.095 509.171 197.997 509.435 198.153L510.794 198.917L524.104 206.378L525.356 207.074C525.63 207.23 525.728 207.573 525.571 207.837Z" fill="#200020"/>
<path d="M453.91 197.655L452.212 199.118C451.975 199.322 451.948 199.681 452.153 199.919L453.882 201.929C454.086 202.167 454.445 202.194 454.682 201.989L456.379 200.526C456.617 200.322 456.643 199.963 456.439 199.725L454.71 197.714C454.505 197.477 454.147 197.45 453.91 197.655Z" fill="#D60080"/>
<path d="M457.582 201.894L455.88 203.363C455.645 203.568 455.616 203.921 455.821 204.156L471.322 222.182L472.339 223.367C472.545 223.602 472.897 223.631 473.132 223.426L474.833 221.957C475.068 221.751 475.097 221.399 474.892 221.164L473.875 219.979L458.374 201.953C458.168 201.718 457.816 201.688 457.582 201.894Z" fill="#D60080"/>
<path d="M489.709 240.904L488.007 242.372C487.772 242.578 487.42 242.549 487.215 242.314L486.276 241.227L478.149 231.817L477.132 230.632C476.926 230.397 476.956 230.045 477.19 229.839L478.892 228.361C479.127 228.155 479.479 228.184 479.684 228.419L480.701 229.604L488.828 239.014L489.767 240.101C489.973 240.336 489.943 240.688 489.709 240.894V240.904Z" fill="#D60080"/>
<path d="M462.168 265.226L460.105 266.127C459.821 266.254 459.489 266.127 459.362 265.833L458.794 264.521L439.469 219.901L438.853 218.471C438.726 218.187 438.853 217.854 439.146 217.727L441.21 216.826C441.494 216.699 441.826 216.826 441.953 217.12L442.569 218.549L461.895 263.17L462.462 264.482C462.589 264.766 462.462 265.099 462.168 265.226Z" fill="#200020"/>
<path d="M368.213 240.355L366.11 239.543C365.817 239.435 365.68 239.102 365.787 238.818L366.306 237.486L372.937 220.341L373.504 218.882C373.611 218.589 373.944 218.452 374.228 218.559L376.33 219.372C376.624 219.48 376.761 219.813 376.653 220.097L376.086 221.555L369.455 238.701L368.937 240.032C368.829 240.326 368.496 240.463 368.213 240.355Z" fill="#D60080"/>
<path d="M359.039 257.716L357.025 256.708C356.751 256.571 356.634 256.228 356.771 255.954L357.406 254.671L359.284 250.911L359.978 249.511C360.115 249.237 360.458 249.119 360.731 249.256L362.746 250.265C363.02 250.402 363.137 250.744 363 251.019L362.306 252.419L360.428 256.179L359.793 257.462C359.656 257.736 359.313 257.853 359.039 257.716Z" fill="#D60080"/>
<path d="M354.785 203.382L356.555 204.773C356.8 204.969 356.839 205.321 356.653 205.566L355.773 206.692L326.531 244.057L325.573 245.291C325.377 245.535 325.025 245.574 324.78 245.388L323.01 243.998C322.766 243.802 322.727 243.45 322.912 243.205L323.871 241.971L353.113 204.606L353.993 203.48C354.189 203.235 354.541 203.196 354.785 203.382Z" fill="#200020"/>
<path d="M298.971 204.469L300.155 206.388C300.321 206.653 300.233 206.995 299.969 207.162L298.746 207.916L284.673 216.591L283.343 217.414C283.079 217.58 282.737 217.492 282.57 217.228L281.387 215.308C281.221 215.044 281.309 214.701 281.573 214.535L282.903 213.712L296.976 205.037L298.199 204.283C298.463 204.117 298.805 204.205 298.971 204.469Z" fill="#200020"/>
<path d="M314.908 193.5L312.668 194.919C312.403 195.086 312.324 195.437 312.492 195.702L313.689 197.597C313.856 197.862 314.207 197.941 314.471 197.774L316.711 196.355C316.976 196.188 317.055 195.837 316.888 195.572L315.691 193.677C315.523 193.412 315.173 193.333 314.908 193.5Z" fill="#200020"/>
<path d="M317.269 192.641L318.472 194.54C318.639 194.805 318.991 194.883 319.245 194.716L351.734 174.144L353.054 173.312C353.318 173.146 353.396 172.793 353.23 172.538L352.027 170.639C351.861 170.374 351.509 170.296 351.255 170.463L349.934 171.295L317.446 191.867C317.182 192.034 317.103 192.386 317.269 192.641Z" fill="#200020"/>
<path d="M358.179 149.499L358.58 151.712C358.639 152.015 358.433 152.309 358.13 152.368L356.722 152.622L285.387 165.43L283.852 165.704C283.548 165.763 283.255 165.557 283.196 165.254L282.795 163.041C282.737 162.737 282.942 162.443 283.245 162.385L284.781 162.11L356.115 149.303L357.524 149.048C357.827 148.99 358.12 149.195 358.179 149.499Z" fill="#D60080"/>
<path d="M341.269 130.728L341.69 128.515C341.749 128.212 342.042 128.006 342.345 128.065L343.753 128.329L359.313 131.286L360.849 131.58C361.152 131.639 361.357 131.933 361.299 132.236L360.878 134.449C360.819 134.753 360.526 134.958 360.223 134.9L358.687 134.606L343.128 131.649L341.719 131.384C341.416 131.326 341.211 131.032 341.269 130.728Z" fill="#200020"/>
<path d="M275.363 120.241L275.754 118.019C275.813 117.715 276.096 117.51 276.409 117.558L277.817 117.813L325.142 126.234L326.678 126.508C326.981 126.567 327.186 126.851 327.137 127.164L326.746 129.387C326.688 129.69 326.404 129.896 326.091 129.847L324.556 129.573L277.231 121.152L275.822 120.897C275.519 120.839 275.314 120.555 275.363 120.241Z" fill="#200020"/>
<path d="M307.539 83.6206L306.443 85.5887C306.296 85.8629 305.954 85.9608 305.68 85.8041L304.428 85.1089L283.685 73.5743L282.326 72.8204C282.052 72.6735 281.954 72.3308 282.111 72.0566L283.206 70.0885C283.353 69.8144 283.695 69.7164 283.969 69.8731L285.328 70.6271L306.072 82.1616L307.323 82.8568C307.597 83.0037 307.695 83.3464 307.539 83.6206Z" fill="#200020"/>
<path d="M317.358 89.3938L316.228 91.3299C316.07 91.6007 316.161 91.9486 316.432 92.1068L318.72 93.4451C318.991 93.6033 319.338 93.512 319.496 93.2412L320.626 91.305C320.784 91.0342 320.693 90.6864 320.422 90.5282L318.134 89.1898C317.863 89.0316 317.516 89.1229 317.358 89.3938Z" fill="#200020"/>
<path d="M322.257 92.257L321.123 94.2055C320.966 94.4699 321.054 94.8224 321.328 94.9791L348.252 110.724L349.602 111.507C349.866 111.664 350.218 111.576 350.374 111.302L351.509 109.353C351.665 109.089 351.577 108.736 351.304 108.58L349.954 107.796L323.03 92.0514C322.766 91.8947 322.414 91.9828 322.257 92.257Z" fill="#200020"/>
<path d="M199.578 403.406C199.578 403.406 245.28 391.294 245.28 414.842C245.28 438.391 181.427 417.868 199.578 403.406Z" fill="#D60080"/>
<path d="M473.435 296.315C473.806 296.334 474.178 296.413 474.53 296.54C476.281 297.206 477.092 299.184 477.748 300.946C479.303 305.117 481.356 309.524 485.308 311.57C487.361 312.628 489.777 312.951 491.674 314.282C503.029 322.243 483.488 335.334 474.911 330.82C466.814 326.551 462.931 312.735 464.789 304.246C465.621 300.466 468.486 296.902 472.32 296.373C472.691 296.324 473.073 296.305 473.444 296.324L473.435 296.315Z" fill="#D60080"/>
<path d="M625.023 430.999C625.023 430.999 621.326 420.571 646.871 415.861C672.416 411.151 671.399 433.359 684.172 435.376C696.944 437.393 712.397 435.376 705.345 446.479C698.284 457.583 669.385 453.882 661.326 448.839C653.258 443.797 625.365 448.839 625.033 431.009L625.023 430.999Z" fill="#D60080"/>
<path d="M583.018 400.037C583.018 400.037 577.982 420.561 598.48 424.262C618.979 427.963 590.08 379.847 583.018 400.037Z" fill="#D60080"/>
<path d="M176.175 440.164C176.175 440.164 161.378 455.243 177.124 468.892C192.869 482.552 192.527 426.407 176.175 440.164Z" fill="#D60080"/>
<path d="M319.881 366.736C320.291 361.292 316.223 356.543 310.776 356.122C316.213 356.533 320.956 352.46 321.377 347.006C320.966 352.45 325.035 357.199 330.482 357.62C325.044 357.209 320.301 361.282 319.881 366.736Z" stroke="#E9E4F2" stroke-width="3.5" stroke-linecap="round" stroke-linejoin="round"/>
<path d="M168.136 506.061C168.547 500.617 164.478 495.868 159.031 495.447C164.468 495.858 169.212 491.785 169.632 486.331C169.221 491.775 173.29 496.524 178.737 496.945C173.3 496.534 168.556 500.607 168.136 506.061Z" stroke="#200020" stroke-width="3.5" stroke-linecap="round" stroke-linejoin="round"/>
<path d="M247.568 145.748C247.979 140.304 243.911 135.555 238.463 135.134C243.901 135.546 248.644 131.472 249.065 126.018C248.654 131.462 252.722 136.211 258.17 136.632C252.732 136.221 247.989 140.295 247.568 145.748Z" stroke="#D60080" stroke-width="3.5" stroke-linecap="round" stroke-linejoin="round"/>
<path d="M565.434 193.678C559.85 198.927 559.566 207.72 564.818 213.32C559.576 207.729 550.794 207.445 545.199 212.704C550.784 207.455 551.067 198.662 545.816 193.062C551.058 198.653 559.84 198.937 565.434 193.678Z" stroke="#D60080" stroke-width="3.5" stroke-linecap="round" stroke-linejoin="round"/>
<path d="M565.239 137.122C561.405 140.725 561.209 146.757 564.808 150.595C561.209 146.757 555.185 146.561 551.351 150.164C555.185 146.561 555.38 140.529 551.781 136.691C555.38 140.529 561.405 140.725 565.239 137.122Z" stroke="#200020" stroke-width="3.5" stroke-linecap="round" stroke-linejoin="round"/>
<path d="M309.142 388.953L307.382 387.553C307.138 387.357 307.098 387.005 307.294 386.76L308.184 385.644L312.36 380.395L313.328 379.171C313.524 378.927 313.876 378.888 314.12 379.083L315.881 380.484C316.125 380.679 316.164 381.032 315.969 381.277L315.001 382.501L310.825 387.749L309.935 388.865C309.739 389.11 309.387 389.149 309.142 388.953Z" fill="#E9E4F2"/>
<path d="M313.605 384.182L312.209 385.935C312.013 386.18 312.054 386.537 312.299 386.733L314.37 388.388C314.615 388.583 314.972 388.543 315.168 388.298L316.564 386.545C316.76 386.3 316.719 385.943 316.475 385.747L314.403 384.092C314.158 383.897 313.801 383.937 313.605 384.182Z" fill="#E9E4F2"/>
<path d="M310.727 384.733L312.125 382.971C312.321 382.726 312.282 382.373 312.037 382.177L310.785 381.179L310.111 380.64L308.888 379.671C308.644 379.475 308.291 379.514 308.096 379.759L306.697 381.521C306.502 381.766 306.541 382.119 306.785 382.315L308.008 383.284L308.683 383.822L309.934 384.821C310.179 385.017 310.531 384.978 310.727 384.733Z" fill="#E9E4F2"/>
<path d="M257.583 86.0585L255.822 84.6583C255.578 84.4625 255.539 84.11 255.734 83.8652L256.624 82.749L260.8 77.5007L261.768 76.2767C261.964 76.0319 262.316 75.9927 262.561 76.1886L264.321 77.5888C264.566 77.7846 264.605 78.1371 264.409 78.3819L263.441 79.6059L259.265 84.8542L258.375 85.9704C258.179 86.2152 257.827 86.2544 257.583 86.0585Z" fill="#200020"/>
<path d="M262.062 81.2665L260.666 83.0195C260.47 83.2646 260.51 83.6219 260.755 83.8175L262.827 85.4723C263.072 85.6679 263.429 85.6277 263.624 85.3825L265.021 83.6296C265.216 83.3844 265.176 83.0271 264.931 82.8315L262.859 81.1768C262.614 80.9812 262.258 81.0213 262.062 81.2665Z" fill="#200020"/>
<path d="M259.167 81.8383L260.566 80.0758C260.761 79.831 260.722 79.4785 260.478 79.2826L259.226 78.2839L258.551 77.7453L257.328 76.776C257.084 76.5801 256.732 76.6193 256.536 76.8641L255.138 78.6266C254.942 78.8714 254.981 79.2239 255.226 79.4197L256.448 80.3891L257.123 80.9276L258.375 81.9264C258.619 82.1222 258.971 82.083 259.167 81.8383Z" fill="#200020"/>
<path d="M686.235 482.493C688.377 487.516 694.186 489.846 699.203 487.702C694.186 489.846 691.859 495.662 694.001 500.686C691.859 495.662 686.05 493.332 681.032 495.476C686.05 493.332 688.377 487.516 686.235 482.493Z" stroke="#D60080" stroke-width="3.5" stroke-linecap="round" stroke-linejoin="round"/>
<path d="M663.732 466.709L665.942 467.139C666.245 467.198 666.441 467.492 666.382 467.805L666.108 469.206L664.817 475.785L664.514 477.313C664.456 477.617 664.162 477.812 663.849 477.754L661.639 477.323C661.336 477.264 661.14 476.97 661.199 476.657L661.502 475.129L662.793 468.549L663.067 467.149C663.126 466.846 663.419 466.65 663.732 466.709Z" fill="#200020"/>
<path d="M658.635 470.043L658.205 472.244C658.145 472.552 658.345 472.85 658.653 472.91L661.254 473.42C661.561 473.48 661.859 473.28 661.919 472.972L662.35 470.771C662.41 470.464 662.209 470.165 661.902 470.105L659.301 469.595C658.994 469.535 658.696 469.735 658.635 470.043Z" fill="#200020"/>
<path d="M664.27 471.183L663.839 473.396C663.781 473.7 663.976 473.994 664.28 474.062L665.844 474.366L666.695 474.532L668.231 474.836C668.534 474.894 668.827 474.699 668.896 474.395L669.326 472.182C669.385 471.879 669.189 471.585 668.886 471.516L667.35 471.213L666.499 471.046L664.935 470.743C664.632 470.684 664.338 470.88 664.27 471.183Z" fill="#200020"/>
<path d="M614.5 350.58L615.282 348.465C615.39 348.171 615.224 347.848 614.911 347.75L613.581 347.3L612.221 346.937C611.898 346.849 611.585 347.026 611.517 347.339L611.008 349.532C610.94 349.836 611.116 350.139 611.39 350.218L612.603 350.541L613.786 350.942C614.06 351.03 614.373 350.874 614.49 350.58H614.5Z" fill="#D60080"/>
<path d="M609.238 349.18L609.6 346.957C609.649 346.654 609.424 346.37 609.101 346.321L607.957 346.164C607.859 346.144 607.762 346.144 607.673 346.135L607.018 346.086C605.258 345.939 603.488 345.988 601.737 346.164C594.715 346.889 588.055 350.012 582.921 354.839C580.368 357.258 578.158 360.127 576.749 363.476C576.045 365.15 575.547 366.942 575.38 368.802C575.224 370.692 575.38 372.533 575.908 374.374C576.456 376.195 577.346 378.006 578.979 379.416C579.811 380.092 580.837 380.758 582.363 380.777C583.165 380.748 583.996 380.425 584.603 379.857C584.877 379.553 585.17 379.221 585.297 378.897C585.483 378.565 585.581 378.251 585.649 377.938C585.933 376.694 585.776 375.676 585.61 374.707C585.395 373.767 585.121 372.876 584.769 372.043C584.084 370.369 583.253 368.822 582.324 367.353C580.485 364.406 578.412 361.743 576.075 359.148C573.698 356.612 570.97 354.369 567.957 352.587C564.945 350.805 561.63 349.503 558.207 348.759C554.784 348.005 551.273 347.789 547.811 347.985C540.877 348.445 534.207 350.463 528.026 353.331C526.481 354.056 524.955 354.839 523.469 355.681L522.403 356.298L521.434 356.896C521.161 357.072 521.063 357.434 521.239 357.699L522.5 359.559C522.677 359.814 522.989 359.902 523.244 359.745L524.134 359.197L525.131 358.619C526.54 357.826 527.977 357.082 529.454 356.396C535.332 353.664 541.64 351.784 548.016 351.363C554.383 350.962 560.818 352.254 566.236 355.505C568.955 357.111 571.429 359.128 573.61 361.459C575.732 363.809 577.776 366.423 579.459 369.135C580.319 370.486 581.053 371.887 581.639 373.297C581.943 374.002 582.148 374.707 582.304 375.392C582.432 376.058 582.481 376.733 582.373 377.125C582.226 377.536 582.324 377.35 582.265 377.39C582.109 377.39 581.581 377.213 581.15 376.822C580.241 376.058 579.537 374.775 579.146 373.414C578.745 372.053 578.617 370.516 578.745 369.086C578.872 367.627 579.273 366.168 579.859 364.778C581.033 361.968 582.969 359.432 585.238 357.278C589.806 352.969 595.84 350.149 602.079 349.513C603.634 349.356 605.209 349.307 606.774 349.444L607.361 349.483C607.449 349.483 607.537 349.483 607.615 349.503L608.632 349.64C608.925 349.679 609.199 349.464 609.248 349.15L609.238 349.18Z" fill="#D60080"/>
<path d="M352.145 426.788C352.145 426.788 399.528 431.332 395.998 472.212C392.467 513.092 378.355 488.358 388.438 478.772C398.521 469.186 433.807 458.582 446.912 475.237" stroke="#E9E4F2" stroke-width="3.5" stroke-miterlimit="10"/>
<path d="M450.951 446.979C450.951 446.979 469.601 426.788 492.29 439.909C514.97 453.03 493.298 459.59 493.298 445.97C493.298 432.35 511.948 410.642 527.068 424.272" stroke="#E9E4F2" stroke-width="3.5" stroke-miterlimit="10"/>
</svg>
