<svg width="923" height="954" viewBox="0 0 923 954" fill="none" xmlns="http://www.w3.org/2000/svg">
<path d="M584.899 558.519L579.937 555.254L576.672 560.216L581.634 563.481L584.899 558.519Z" fill="#DA0081"/>
<path d="M584.86 558.54L581.59 563.51L576.62 560.24L579.89 555.27L584.86 558.54ZM593.01 556.86L588.1 553.63L583.13 550.36L578.22 547.13L574.99 552.04L571.72 557.01L568.49 561.92L573.4 565.15L578.37 568.42L583.28 571.65L586.51 566.74L589.78 561.77L593.01 556.86Z" fill="#ECE7F5"/>
<path d="M292.264 646.4L282.446 648.55L284.596 658.367L294.413 656.218L292.264 646.4Z" fill="#200020"/>
<path d="M290.38 649.35L291.46 654.29L286.52 655.37L285.44 650.43L290.38 649.35ZM294.2 643.4L289.32 644.47L284.38 645.55L279.5 646.62L280.57 651.5L281.65 656.44L282.72 661.32L287.6 660.25L292.54 659.17L297.42 658.1L296.35 653.22L295.27 648.28L294.2 643.4Z" fill="#ECE7F5"/>
<path d="M367.9 341.999H118.37C109.83 341.999 102.91 335.079 102.91 326.539V194.109C102.91 185.569 109.83 178.649 118.37 178.649H328.02C336.56 178.649 343.48 185.569 343.48 194.109V321.419L367.9 341.999Z" fill="#ECE7F5" stroke="#200020" stroke-width="5" stroke-miterlimit="10"/>
<path d="M343.48 201.8H102.91" stroke="#200020" stroke-width="5" stroke-miterlimit="10"/>
<path d="M535.66 188.009H458.631C445.181 188.009 434.271 177.099 434.271 163.649C434.271 150.199 445.171 139.289 458.631 139.289H535.66C549.11 139.289 560.021 150.189 560.021 163.649C560.021 177.099 549.12 188.009 535.66 188.009Z" fill="#ECE7F5" stroke="#200020" stroke-width="5" stroke-miterlimit="10"/>
<path d="M469.971 163.659C469.971 167.569 466.801 170.739 462.891 170.739C458.981 170.739 455.811 167.569 455.811 163.659C455.811 159.749 458.981 156.579 462.891 156.579C466.801 156.579 469.971 159.749 469.971 163.659Z" fill="#ECE7F5" stroke="#200020" stroke-width="5" stroke-miterlimit="10"/>
<path d="M500.74 163.659C500.74 167.569 497.57 170.739 493.66 170.739C489.75 170.739 486.58 167.569 486.58 163.659C486.58 159.749 489.75 156.579 493.66 156.579C497.57 156.579 500.74 159.749 500.74 163.659Z" fill="#ECE7F5" stroke="#200020" stroke-width="5" stroke-miterlimit="10"/>
<path d="M531.511 163.659C531.511 167.569 528.341 170.739 524.431 170.739C520.521 170.739 517.351 167.569 517.351 163.659C517.351 159.749 520.521 156.579 524.431 156.579C528.341 156.579 531.511 159.749 531.511 163.659Z" fill="#ECE7F5" stroke="#200020" stroke-width="5" stroke-miterlimit="10"/>
<path d="M459.76 380.709H169.48C160.94 380.709 154.021 373.789 154.021 365.249V232.819C154.021 224.279 160.94 217.359 169.48 217.359H419.88C428.421 217.359 435.341 224.279 435.341 232.819V360.129L459.76 380.709Z" fill="#ECE7F5" stroke="#200020" stroke-width="5" stroke-miterlimit="10"/>
<path d="M319.04 255.64H177.86V347.52H319.04V255.64Z" fill="#ECE7F5" stroke="#200020" stroke-width="5" stroke-miterlimit="10"/>
<path d="M416.751 321.35H333.021V349.39H416.751V321.35Z" fill="#ECE7F5" stroke="#200020" stroke-width="5" stroke-miterlimit="10"/>
<path d="M332.86 139.3H305.21C293.12 139.3 283.32 129.5 283.32 117.41C283.32 105.32 293.12 95.5195 305.21 95.5195H332.86C344.95 95.5195 354.75 105.32 354.75 117.41C354.75 129.5 344.95 139.3 332.86 139.3Z" fill="#ECE7F5" stroke="#200020" stroke-width="5" stroke-miterlimit="10"/>
<path d="M578.85 555.2L597.98 527.08L717.14 494.7L792.17 609.78C792.17 609.78 667.85 738.33 666.04 738.6C664.23 738.87 580.1 700.01 580.1 700.01L578.86 555.2H578.85Z" fill="#ECE7F5" stroke="#200020" stroke-width="5" stroke-miterlimit="10"/>
<path d="M213.66 629.091C245.69 684.501 259.73 871.21 274.03 922.97C288.34 974.73 294.24 1014.09 347.58 1019.21C456.05 1029.64 602.57 751.3 602.57 751.3L506.76 608.271L399.86 754.391L344.95 628.151" fill="#ECE7F5"/>
<path d="M213.66 629.091C245.69 684.501 259.73 871.21 274.03 922.97C288.34 974.73 294.24 1014.09 347.58 1019.21C456.05 1029.64 602.57 751.3 602.57 751.3L506.76 608.271L399.86 754.391L344.95 628.151" stroke="#200020" stroke-width="5" stroke-miterlimit="10"/>
<path d="M658.85 510.54C615.8 466.82 552.18 524.53 519.3 574.45C498.81 605.56 430.47 712.55 430.47 712.55L533.34 864.44C533.34 864.44 667.67 693.54 683.27 668.63C698.88 643.71 688.46 540.63 658.84 510.55L658.85 510.54Z" fill="#ECE7F5" stroke="#DA0081" stroke-width="5" stroke-miterlimit="10"/>
<path d="M399.86 754.4C408.02 776.02 415.97 795.77 422.55 816.27L399.86 754.4Z" fill="#ECE7F5"/>
<path d="M399.86 754.4C408.02 776.02 415.97 795.77 422.55 816.27" stroke="#200020" stroke-width="5" stroke-miterlimit="10"/>
<path d="M344.33 644.77C344.24 622.13 349.1 599.32 345.29 577C339.16 541.14 296.58 498.07 291.71 462.02C290.93 456.26 290.72 450.28 288.31 444.98C287.21 442.56 285.02 440.04 282.4 440.52C281.18 440.74 280.17 441.59 279.29 442.46C272.06 449.61 269.34 460.34 269.76 470.49C270.19 480.64 273.35 493.53 270.93 495.79C264.21 502.05 247.19 484.59 242.66 480.68C216.57 458.14 207.64 440.97 182.07 417.86C178.64 414.76 165.62 408.61 163.12 415.84C162.83 416.69 162.92 417.61 163.06 418.49C163.93 423.79 168.82 429.26 171.65 433.83C176.21 441.17 191.58 459.12 191.58 459.12C191.58 459.12 165.18 440.84 144.77 425.44C141.08 422.66 123.48 415.05 118.59 420.93C115.96 424.09 119.4 429.35 119.4 429.35C119.4 429.35 121.88 429.68 116.91 428.46C109.96 426.75 104.24 428.47 102.47 429.46C93.0201 434.75 104.19 445.01 109.02 449.63C127.87 467.64 174.97 509.36 174.97 509.36C174.97 509.36 157.93 497.68 148.4 489.86C137.64 481.03 125.65 471.43 110.5 472.01C106.15 472.18 102.99 475.16 104.91 479.74C105.74 481.71 107.29 483.26 108.81 484.76C133.34 508.99 146.16 522.95 165.95 551.22C186.19 580.13 208.78 616.74 220.06 642.58" stroke="#200020" stroke-width="5" stroke-miterlimit="10"/>
<path d="M188.71 455.94C198.69 463.83 226.62 483.46 226.62 483.46L188.71 455.94Z" fill="#ECE7F5"/>
<path d="M188.71 455.94C198.69 463.83 226.62 483.46 226.62 483.46" stroke="#200020" stroke-width="5" stroke-miterlimit="10"/>
<path d="M118.82 428.33C141.28 446.65 204.88 490.38 204.88 490.38L118.82 428.33Z" fill="#ECE7F5"/>
<path d="M118.82 428.33C141.28 446.65 204.88 490.38 204.88 490.38" stroke="#200020" stroke-width="5" stroke-miterlimit="10"/>
<path d="M174.24 508.34C191.46 521.66 216.91 530.01 236.96 538.47C260.01 548.18 264.1 558.13 278.15 578.82" fill="#ECE7F5"/>
<path d="M174.24 508.34C191.46 521.66 216.91 530.01 236.96 538.47C260.01 548.18 264.1 558.13 278.15 578.82" stroke="#200020" stroke-width="5" stroke-miterlimit="10"/>
<path d="M458.9 668.13L572.58 814.3" stroke="#DA0081" stroke-width="5" stroke-miterlimit="10"/>
<path d="M758.36 484.311C790.31 524.391 804.02 547.381 837.29 616.651C893.21 733.071 910.85 992.931 910.85 992.931L617.08 999.691L567.74 864.571C567.74 864.571 543.67 849.201 528.52 821.231C515.04 796.351 510.96 770.661 513.98 743.131C517.48 711.221 534.85 673.051 544.56 642.451L593.81 536.101L587.86 652.911L690.95 501.311L758.36 484.321" fill="#ECE7F5"/>
<path d="M758.36 484.311C790.31 524.391 804.02 547.381 837.29 616.651C893.21 733.071 910.85 992.931 910.85 992.931L617.08 999.691L567.74 864.571C567.74 864.571 543.67 849.201 528.52 821.231C515.04 796.351 510.96 770.661 513.98 743.131C517.48 711.221 534.85 673.051 544.56 642.451L593.81 536.101L587.86 652.911L690.95 501.311L758.36 484.321" stroke="#DA0081" stroke-width="5" stroke-linejoin="round"/>
<path d="M666.58 613.17L549.58 864.32L277.08 877.77C277.08 877.77 313.22 1003.94 316.24 1003.63C319.26 1003.32 545.66 1038.25 593.11 1038.29C640.57 1038.33 676.67 1030.09 708.15 963.79C737.64 901.69 806.56 731.21 806.56 731.21" fill="#ECE7F5"/>
<path d="M666.58 613.17L549.58 864.32L277.08 877.77C277.08 877.77 313.22 1003.94 316.24 1003.63C319.26 1003.32 545.66 1038.25 593.11 1038.29C640.57 1038.33 676.67 1030.09 708.15 963.79C737.64 901.69 806.56 731.21 806.56 731.21" stroke="#200020" stroke-width="5" stroke-miterlimit="10"/>
<path d="M603.59 871.63C585.7 866.87 567.07 864.92 548.58 865.85L326.24 875.34" fill="#ECE7F5"/>
<path d="M603.59 871.63C585.7 866.87 567.07 864.92 548.58 865.85L326.24 875.34" stroke="#200020" stroke-width="5" stroke-miterlimit="10"/>
<path d="M582.6 793.43L549.58 864.32" stroke="#200020" stroke-width="5" stroke-miterlimit="10"/>
<path d="M709.861 546.78C688.581 554.68 674.251 571.58 659.791 595.93C645.321 620.28 572.591 809.83 572.591 809.83L753.331 916C753.331 916 877.701 689.56 823.241 597.25C792.551 545.23 750.681 531.62 709.861 546.78Z" fill="#ECE7F5" stroke="#DA0081" stroke-width="5" stroke-miterlimit="10"/>
<path d="M390.79 872.59C347.48 872.49 299.73 875.56 256.49 874.76C238.56 874.43 223.48 874.38 206.6 880.39C159.01 897.34 143.88 935.88 139.2 945.98C120.06 987.32 153.78 999.19 158.79 991.97C163.01 985.9 155.81 993.89 163.38 1005.95C167.03 1011.76 173.57 1015.64 180.42 1016.06C180.79 1021.35 185.57 1028.8 190.31 1031.88C195.83 1035.47 205.15 1034.25 205.15 1034.25C205.15 1034.25 203.93 1062.64 229.46 1052.09C238.81 1048.23 244.15 1038.21 251.46 1031.25C256.04 1026.89 260.8 1022.73 265.74 1018.78C267.19 1017.62 268.7 1016.46 270.49 1015.98C272.27 1015.5 274.16 1015.75 275.99 1015.98C308.17 1019.89 341.42 1014.46 370.69 1000.54" fill="#ECE7F5"/>
<path d="M390.79 872.59C347.48 872.49 299.73 875.56 256.49 874.76C238.56 874.43 223.48 874.38 206.6 880.39C159.01 897.34 143.88 935.88 139.2 945.98C120.06 987.32 153.78 999.19 158.79 991.97C163.01 985.9 155.81 993.89 163.38 1005.95C167.03 1011.76 173.57 1015.64 180.42 1016.06C180.79 1021.35 185.57 1028.8 190.31 1031.88C195.83 1035.47 205.15 1034.25 205.15 1034.25C205.15 1034.25 203.93 1062.64 229.46 1052.09C238.81 1048.23 244.15 1038.21 251.46 1031.25C256.04 1026.89 260.8 1022.73 265.74 1018.78C267.19 1017.62 268.7 1016.46 270.49 1015.98C272.27 1015.5 274.16 1015.75 275.99 1015.98C308.17 1019.89 341.42 1014.46 370.69 1000.54" stroke="#200020" stroke-width="5" stroke-miterlimit="10"/>
<path d="M590.9 762.55L772.55 859.41" stroke="#DA0081" stroke-width="5" stroke-miterlimit="10"/>
<path d="M180.651 1014.85C180.531 976.759 208.341 962.559 232.541 946.729L180.651 1014.85Z" fill="#ECE7F5"/>
<path d="M180.651 1014.85C180.531 976.759 208.341 962.559 232.541 946.729" stroke="#200020" stroke-width="5" stroke-miterlimit="10"/>
<path d="M159.71 991.36C163.02 955.46 186.44 926.18 202.24 914.32L159.71 991.36Z" fill="#ECE7F5"/>
<path d="M159.71 991.36C163.02 955.46 186.44 926.18 202.24 914.32" stroke="#200020" stroke-width="5" stroke-miterlimit="10"/>
<path d="M729.35 381.47L759.48 493.19L624.18 526.55L602.73 450.67" fill="#ECE7F5"/>
<path d="M729.35 381.47L759.48 493.19L624.18 526.55L602.73 450.67" stroke="#200020" stroke-width="5" stroke-miterlimit="10"/>
<path d="M748.111 451.04L624.181 526.55L625.281 597.88L763.761 491.02L748.111 451.04Z" fill="#ECE7F5" stroke="#DA0081" stroke-width="5" stroke-miterlimit="10"/>
<path d="M616.43 499.13L624.18 526.55L591 591.33L594.19 532.18L616.43 499.13Z" fill="#ECE7F5" stroke="#DA0081" stroke-width="5" stroke-miterlimit="10"/>
<path d="M740.24 354.66C741.18 346.53 741.36 338.34 740.72 330.26C739.41 313.77 734.69 297.69 725.97 283.34C703.69 246.64 658.34 237.13 619.67 251.5C583.88 264.8 563.86 300.75 553.56 335.52C549.31 349.88 544.31 364.01 540.53 378.5C534.38 402.08 533.19 432.73 549.38 452.8C562.1 468.56 581.15 474.32 600.33 475.32C613.03 475.98 625.95 474.44 638.52 471.08" fill="#ECE7F5"/>
<path d="M740.24 354.66C741.18 346.53 741.36 338.34 740.72 330.26C739.41 313.77 734.69 297.69 725.97 283.34C703.69 246.64 658.34 237.13 619.67 251.5C583.88 264.8 563.86 300.75 553.56 335.52C549.31 349.88 544.31 364.01 540.53 378.5C534.38 402.08 533.19 432.73 549.38 452.8C562.1 468.56 581.15 474.32 600.33 475.32C613.03 475.98 625.95 474.44 638.52 471.08" stroke="#200020" stroke-width="5" stroke-miterlimit="10"/>
<path d="M810.701 275.42C775.721 193.92 701.1 200.09 701.1 200.09C559.91 159.42 538.761 286.95 561.001 314.65C593.911 244.49 641.141 257.58 641.141 257.58C629.861 314.28 671.571 342.53 708.771 363.01C711.171 364.33 712.63 373.69 713.37 376.11C715.41 382.74 716.911 388.93 717.441 395.89C718.511 410.04 718.41 424.65 724.85 437.67C731.75 451.64 740.881 462.79 751.651 476.09C756.491 482.06 759.041 485.78 763.771 491.02C834.611 435.8 845.681 356.91 810.701 275.42Z" fill="#ECE7F5" stroke="#200020" stroke-width="5" stroke-miterlimit="10"/>
<path d="M686.19 369.49C689.08 360.26 696.71 350.76 706.89 349.56C716.54 348.42 725.45 355.64 728.41 364.51C732.47 376.7 729.69 391.19 723.26 402.06C716.71 413.15 702.98 423.22 689.99 416.13C685.08 413.45 681.4 408.71 680.33 403.19" fill="#ECE7F5"/>
<path d="M686.19 369.49C689.08 360.26 696.71 350.76 706.89 349.56C716.54 348.42 725.45 355.64 728.41 364.51C732.47 376.7 729.69 391.19 723.26 402.06C716.71 413.15 702.98 423.22 689.99 416.13C685.08 413.45 681.4 408.71 680.33 403.19" stroke="#200020" stroke-width="5" stroke-miterlimit="10"/>
<path d="M694.79 355.24C690.75 359.82 687.62 365.2 685.65 370.98L694.79 355.24Z" fill="#ECE7F5"/>
<path d="M694.79 355.24C690.75 359.82 687.62 365.2 685.65 370.98" stroke="#200020" stroke-width="5" stroke-miterlimit="10"/>
<path d="M576.74 364.95C573.89 372.73 566.94 378.12 561.61 384.46C560.05 386.32 558.54 388.47 558.54 390.89C558.54 394.57 561.85 397.28 564.86 399.41" fill="#ECE7F5"/>
<path d="M576.74 364.95C573.89 372.73 566.94 378.12 561.61 384.46C560.05 386.32 558.54 388.47 558.54 390.89C558.54 394.57 561.85 397.28 564.86 399.41" stroke="#200020" stroke-width="5" stroke-miterlimit="10"/>
<path d="M572.511 412.95C576.491 418.44 583.341 419.14 588.481 414.79C593.711 410.37 594.301 403.93 591.981 397.85" fill="#ECE7F5"/>
<path d="M572.511 412.95C576.491 418.44 583.341 419.14 588.481 414.79C593.711 410.37 594.301 403.93 591.981 397.85" stroke="#200020" stroke-width="5" stroke-miterlimit="10"/>
<path d="M619.55 357.61C617.98 362.58 614.071 365.77 610.811 364.74C607.551 363.71 606.191 358.85 607.751 353.88C609.321 348.91 613.23 345.72 616.49 346.75C619.75 347.78 621.11 352.64 619.55 357.61Z" fill="#200020"/>
<path d="M568.951 343.6C567.381 348.57 563.471 351.76 560.211 350.73C556.951 349.7 555.591 344.84 557.151 339.87C558.721 334.9 562.631 331.71 565.891 332.74C569.151 333.77 570.511 338.63 568.951 343.6Z" fill="#200020"/>
<path d="M611.461 317.89C614.661 314.17 620.181 312.99 624.931 314.22C629.681 315.45 633.681 318.75 636.641 322.65C639.611 326.55 641.661 331.06 643.701 335.52" stroke="#200020" stroke-width="5" stroke-miterlimit="10"/>
<path d="M559.23 304.349C564.75 302.759 570.551 302.999 575.271 306.519C580.131 310.139 583.06 312.619 584.87 320.409" stroke="#200020" stroke-width="5" stroke-miterlimit="10"/>
<path d="M701.1 200.09C701.1 200.09 665.1 83.0196 732.45 67.7596C799.79 52.4996 813.78 140.1 813.78 140.1C813.78 140.1 890.94 107.45 912.22 147.53C933.49 187.61 867.34 232.86 867.34 232.86C867.34 232.86 934.72 245.45 927.5 292.29C920.28 339.13 876.83 358.23 828.7 340.61" stroke="#200020" stroke-width="5" stroke-miterlimit="10"/>
<path d="M261.51 325.739C263.3 318.679 262.62 308.559 259.1 298.019C255.57 287.479 250.02 278.979 244.35 274.429L242.27 268.199L233.32 271.189C224.97 273.979 222.98 290.519 228.87 308.129C234.76 325.739 246.31 337.749 254.66 334.959L263.61 331.969L261.53 325.739H261.51Z" fill="#EAE5F3" stroke="#200020" stroke-width="5" stroke-miterlimit="10"/>
<path d="M263.598 331.961C271.947 329.168 273.938 312.629 268.047 295.021C262.155 277.413 250.611 265.403 242.263 268.196C233.914 270.989 231.923 287.528 237.814 305.137C243.706 322.745 255.25 334.755 263.598 331.961Z" fill="#EAE5F3" stroke="#200020" stroke-width="5" stroke-miterlimit="10"/>
<path d="M257.61 313.349C256.23 313.809 254.88 313.859 253.56 313.499C252.23 313.139 251.01 312.419 249.89 311.329C248.76 310.239 247.81 308.819 247.02 307.079L250.35 305.089C251.08 306.489 251.98 307.499 253.04 308.119C254.1 308.739 255.16 308.869 256.23 308.509C257.23 308.179 257.95 307.559 258.39 306.679C258.83 305.799 258.89 304.859 258.56 303.889C258.34 303.229 258.01 302.729 257.58 302.389C257.15 302.059 256.58 301.849 255.87 301.779L250.44 301.299C247.31 301.019 245.15 299.129 243.98 295.609C243.43 293.959 243.22 292.429 243.37 291.029C243.52 289.629 243.99 288.429 244.79 287.429C245.59 286.429 246.68 285.709 248.07 285.259C249.35 284.859 250.58 284.809 251.78 285.099C252.97 285.389 254.1 286.009 255.15 286.959C256.2 287.909 257.16 289.169 258.02 290.749L254.6 292.939C254.21 292.179 253.74 291.549 253.2 291.059C252.66 290.569 252.08 290.229 251.46 290.049C250.84 289.869 250.22 289.879 249.6 290.049C249.01 290.219 248.51 290.519 248.13 290.939C247.74 291.359 247.49 291.849 247.37 292.419C247.25 292.989 247.29 293.559 247.48 294.149C247.7 294.799 248.08 295.299 248.63 295.639C249.18 295.979 249.93 296.169 250.9 296.229L254.73 296.449C256.66 296.569 258.19 297.089 259.34 298.019C260.48 298.949 261.38 300.379 262.03 302.319C262.6 304.019 262.79 305.619 262.61 307.119C262.43 308.619 261.91 309.909 261.06 310.999C260.21 312.089 259.06 312.879 257.61 313.369V313.349ZM246.8 287.139L245.29 282.629L248.91 281.419L250.42 285.929L246.8 287.139ZM256.84 317.149L255.33 312.639L258.95 311.429L260.46 315.939L256.84 317.149Z" fill="#200020"/>
<path d="M182.69 671.56L181.82 674.73C181.7 675.17 181.25 675.42 180.81 675.3L178.8 674.75L148.15 666.31L145.95 665.71C145.51 665.59 145.26 665.14 145.38 664.7L146.25 661.53C146.37 661.09 146.82 660.84 147.26 660.96L149.46 661.56L180.11 670L182.12 670.55C182.56 670.67 182.81 671.12 182.69 671.56Z" fill="#2B0D2B"/>
<path d="M157.875 681.229L156.845 684.97C156.724 685.407 156.981 685.858 157.418 685.979L160.589 686.852C161.026 686.972 161.477 686.716 161.598 686.279L162.628 682.539C162.748 682.102 162.492 681.651 162.055 681.53L158.883 680.657C158.447 680.536 157.995 680.793 157.875 681.229Z" fill="#2B0D2B"/>
<path d="M159.619 677.93L162.789 678.8C163.229 678.92 163.679 678.66 163.799 678.23L164.419 675.98L170.599 653.55L171.199 651.35C171.319 650.91 171.059 650.46 170.629 650.34L167.459 649.47C167.019 649.35 166.569 649.61 166.449 650.04L165.849 652.24L159.669 674.67L159.049 676.92C158.929 677.36 159.189 677.81 159.619 677.93Z" fill="#2B0D2B"/>
<path d="M510.52 529.54C500.55 514.85 504.38 494.86 519.07 484.9C504.38 494.87 484.39 491.04 474.43 476.35C484.4 491.04 480.57 511.03 465.88 520.99C480.57 511.02 500.56 514.85 510.52 529.54Z" stroke="#200020" stroke-width="5" stroke-linecap="round" stroke-linejoin="round"/>
<path d="M386.22 459.289C376.1 456.379 370.26 445.809 373.17 435.689C370.26 445.809 359.69 451.649 349.57 448.739C359.69 451.649 365.53 462.219 362.62 472.339C365.53 462.219 376.1 456.379 386.22 459.289Z" stroke="#DA0081" stroke-width="5" stroke-linecap="round" stroke-linejoin="round"/>
<path d="M813.78 140.1C813.78 140.1 821.68 172.16 813.45 175.59C798.67 181.75 780.66 150.02 813.78 140.1Z" stroke="#200020" stroke-width="5" stroke-miterlimit="10"/>
<path d="M867.34 232.86C867.34 232.86 844.28 249.39 840.51 241.84C836.74 234.29 843.97 223 867.34 232.86Z" stroke="#200020" stroke-width="5" stroke-miterlimit="10"/>
</svg>
