<svg width="1047" height="954" viewBox="0 0 1047 954" fill="none" xmlns="http://www.w3.org/2000/svg">
<g clip-path="url(#clip0_2254_3970)">
<path d="M417.59 352.81C434.771 352.81 448.699 338.882 448.699 321.7C448.699 304.519 434.771 290.59 417.59 290.59C400.408 290.59 386.479 304.519 386.479 321.7C386.479 338.882 400.408 352.81 417.59 352.81Z" stroke="#200020" stroke-width="5" stroke-miterlimit="10"/>
<path d="M483.52 350.21C500.702 350.21 514.63 336.282 514.63 319.1C514.63 301.919 500.702 287.99 483.52 287.99C466.339 287.99 452.41 301.919 452.41 319.1C452.41 336.282 466.339 350.21 483.52 350.21Z" stroke="#200020" stroke-width="5" stroke-miterlimit="10"/>
<path d="M327.82 400.89C310.9 417.14 270.96 411.49 274.8 370.2C278.64 328.91 318.23 341.49 322.68 343.59C322.68 343.59 324.1 344.32 325.89 345.09C329.55 346.66 333.8 345.65 336.34 342.59C343.35 334.11 357.41 312.93 354.68 282.2C354.68 282.2 401.84 279.94 418.53 251.74C418.53 251.74 449.22 293.03 498.18 268.21C547.14 243.39 446.2 122.98 325.68 198.98C205.15 274.98 283.5 315.16 283.5 315.16C283.5 315.16 263.55 328 283.23 350.2" stroke="#200020" stroke-width="5" stroke-miterlimit="10"/>
<path d="M358.48 434.02C358.48 434.02 391.29 487.92 460.93 463.82C530.57 439.72 504.4 342.17 504.4 342.17" stroke="#200020" stroke-width="5" stroke-miterlimit="10"/>
<path d="M265.87 545.27C265.27 545.35 264.67 545.43 264.06 545.51C166.63 557.56 103.55 544.45 25.71 745.79L169.55 795.92" stroke="#DA0081" stroke-width="5" stroke-miterlimit="10"/>
<path d="M321.96 405.18C321.96 405.18 361 531.86 265.87 545.27" stroke="#200020" stroke-width="5" stroke-miterlimit="10"/>
<path d="M212.51 810.97C216 810.97 218.83 808.141 218.83 804.65C218.83 801.16 216 798.33 212.51 798.33C209.02 798.33 206.19 801.16 206.19 804.65C206.19 808.141 209.02 810.97 212.51 810.97Z" stroke="#200020" stroke-width="5" stroke-miterlimit="10"/>
<path d="M49.4399 717.21C50.2099 718.75 212.52 758.18 212.52 758.18V647.67" stroke="#DA0081" stroke-width="5" stroke-miterlimit="10"/>
<path d="M225.17 762.67C225.17 762.67 300.71 709.91 386.69 737.14C472.67 764.37 463.72 786.55 442.32 789.27C420.92 791.99 352.45 771.37 352.45 771.37" stroke="#200020" stroke-width="5" stroke-miterlimit="10"/>
<path d="M343.12 806.4C343.12 806.4 418.34 827.1 434.94 808.73C447.38 794.96 423.36 788.26 423.36 788.26" stroke="#200020" stroke-width="5" stroke-miterlimit="10"/>
<path d="M346.23 834.41C346.23 834.41 402.68 842.82 411.27 833.38C416.23 827.92 412.58 817.71 399.91 816.35" stroke="#200020" stroke-width="5" stroke-miterlimit="10"/>
<path d="M42.4999 751.64C42.1499 751.52 -26.0901 886.42 3.68989 971.67C33.4699 1056.92 143.99 1054.47 212.52 983.91C281.05 913.35 312.46 859.51 312.46 859.51C312.46 859.51 368.03 873.49 384.26 859.74C393.88 851.6 390.26 839.3 378.49 837.61" stroke="#200020" stroke-width="5" stroke-miterlimit="10"/>
<path d="M212.51 848.49C212.51 848.49 233.54 895.97 272.58 915.65" stroke="#200020" stroke-width="5" stroke-miterlimit="10"/>
<path d="M250.8 826.01C250.45 826.61 264.92 863.34 292.66 889.09" stroke="#200020" stroke-width="5" stroke-miterlimit="10"/>
<path d="M494.19 543.24C484.92 540.86 460.71 528.27 466.21 461.77" stroke="#200020" stroke-width="5" stroke-miterlimit="10"/>
<path d="M265.87 545.27C265.87 545.27 312.75 625.77 412.69 603.6C412.69 603.6 475 583.46 497.66 543.8C497.66 543.8 496.32 543.8 494.18 543.24" stroke="#DA0081" stroke-width="5" stroke-miterlimit="10"/>
<path d="M613.53 1060.68C609.56 969.78 595.88 658.28 595.14 659.77" stroke="#DA0081" stroke-width="5" stroke-miterlimit="10"/>
<path d="M497.67 543.8C497.67 543.8 529.88 521.47 602.97 534.93C676.06 548.4 704.77 594.51 704.77 594.51L648.21 764.61L597.29 755.03" stroke="#DA0081" stroke-width="5" stroke-miterlimit="10"/>
<path d="M666.05 571.45L603.84 753.74" stroke="#DA0081" stroke-width="5" stroke-miterlimit="10"/>
<path d="M695.63 668.9L774.37 434.41C774.37 434.41 756.53 394.34 790.9 350.21C825.27 306.07 847.46 290.85 857.46 303.03C867.47 315.21 866.6 333.05 838.32 360.89" stroke="#200020" stroke-width="5" stroke-miterlimit="10"/>
<path d="M830.06 352.81C830.06 352.81 851.81 359.59 842.24 438.77" stroke="#200020" stroke-width="5" stroke-miterlimit="10"/>
<path d="M861.1 308.75C861.1 308.75 911.9 244.58 936.86 244.99C961.82 245.4 958.54 276.49 939.11 293.27C929.14 301.87 894.51 340.73 894.51 340.73" stroke="#200020" stroke-width="5" stroke-miterlimit="10"/>
<path d="M907.86 349.31C906.78 349.72 862.8 372.63 866.28 390.43C869.76 408.23 905.97 408.64 920.69 390.43C935.42 372.22 952.66 335.9 918.27 314.58" stroke="#200020" stroke-width="5" stroke-miterlimit="10"/>
<path d="M893.85 403.71C893.85 403.71 879.99 431.34 906.99 429.91C933.99 428.48 958.51 384.73 933.67 368.86" stroke="#200020" stroke-width="5" stroke-miterlimit="10"/>
<path d="M906.99 429.91C906.38 430.11 895.94 447.3 904.74 455.07C913.54 462.84 959.21 443.24 938.73 406.81" stroke="#200020" stroke-width="5" stroke-miterlimit="10"/>
<path d="M844.27 416.23C844.27 416.23 864.309 401.28 876.909 406.82" stroke="#200020" stroke-width="5" stroke-miterlimit="10"/>
<path d="M904.74 455.08C904.74 455.08 826.75 751.37 802.55 779.89C778.35 808.41 651.83 753.74 651.83 753.74" stroke="#200020" stroke-width="5" stroke-miterlimit="10"/>
<path d="M298.84 340.17C298.27 340.27 296.35 334.76 304.21 330.05C312.07 325.34 386.6 319.11 386.6 319.11" stroke="#200020" stroke-width="5" stroke-miterlimit="10"/>
<path d="M77.5898 889.09C77.5898 889.09 130.8 829.94 168.67 804.65" stroke="#200020" stroke-width="5" stroke-miterlimit="10"/>
<path d="M750.24 365.17L749.37 368.34C749.25 368.78 748.8 369.03 748.36 368.91L746.35 368.36L726.93 363.01L724.73 362.41C724.29 362.29 724.04 361.84 724.16 361.4L725.03 358.23C725.15 357.79 725.6 357.54 726.04 357.66L728.24 358.26L747.66 363.61L749.67 364.16C750.11 364.28 750.36 364.73 750.24 365.17Z" fill="#2B0D2B"/>
<path d="M732.653 370.751L731.623 374.492C731.503 374.929 731.759 375.38 732.196 375.5L735.368 376.374C735.804 376.494 736.256 376.238 736.376 375.801L737.406 372.061C737.527 371.624 737.27 371.173 736.834 371.052L733.662 370.179C733.225 370.058 732.774 370.315 732.653 370.751Z" fill="#2B0D2B"/>
<path d="M734.34 367.47L737.51 368.34C737.95 368.46 738.4 368.2 738.52 367.77L739.14 365.52L742.219 354.32L742.82 352.12C742.94 351.68 742.68 351.23 742.25 351.11L739.08 350.24C738.64 350.12 738.19 350.38 738.07 350.81L737.469 353.01L734.39 364.21L733.77 366.46C733.65 366.9 733.91 367.35 734.34 367.47Z" fill="#2B0D2B"/>
<path d="M830.38 122.42C823.49 112.26 826.13 98.4301 836.3 91.5401C826.14 98.4301 812.31 95.7901 805.42 85.6201C812.31 95.7801 809.67 109.61 799.5 116.5C809.66 109.61 823.49 112.25 830.38 122.42Z" stroke="#200020" stroke-width="5" stroke-linecap="round" stroke-linejoin="round"/>
<path d="M480.6 125.97C473.6 123.96 469.56 116.65 471.57 109.65C469.56 116.65 462.25 120.69 455.25 118.68C462.25 120.69 466.29 128 464.28 135C466.29 128 473.6 123.96 480.6 125.97Z" stroke="#DA0081" stroke-width="5" stroke-linecap="round" stroke-linejoin="round"/>
<path d="M706.29 55.2003L533.34 150.92C523.68 156.26 520.19 168.42 525.53 178.08L605.35 322.3C607.12 325.49 607.36 329.31 606 332.7L599.46 349.07C596.5 356.47 604.47 363.49 611.44 359.63L797.97 256.39C807.63 251.05 811.12 238.89 805.78 229.23L710.06 56.2803C709.32 54.9403 707.62 54.4503 706.28 55.1903L706.29 55.2003Z" stroke="#200020" stroke-width="5" stroke-linecap="round" stroke-linejoin="round"/>
<path d="M709.611 50.4602C709.941 52.2802 711.991 53.2602 713.611 52.3802C721.041 48.3902 731.881 33.7002 721.661 29.3102C712.341 25.3102 708.041 41.7902 709.601 50.4602H709.611Z" stroke="#200020" stroke-width="5" stroke-linecap="round" stroke-linejoin="round"/>
<path d="M706.86 216.2C704.89 212.8 703.32 209.16 702.15 205.3C700.98 201.43 700.39 197.65 700.38 193.94C700.15 190.57 700.35 187.68 700.99 185.28C701.63 182.88 702.48 180.31 703.54 177.56C704.6 174.81 705.66 171.21 706.72 166.74C707.49 163.2 707.58 160.1 706.98 157.46C706.38 154.81 705.3 152.15 703.75 149.47C702.94 148.08 702.03 146.82 701 145.69C699.97 144.57 698.79 143.74 697.45 143.2C695.23 142.21 692.88 141.94 690.41 142.37C687.94 142.8 685.54 143.69 683.22 145.03C681.47 146.04 679.87 147.24 678.43 148.62C676.99 150 675.95 151.5 675.3 153.11C674.48 155.03 674.2 157.01 674.46 159.07C674.72 161.12 675.45 163.14 676.67 165.12L654.39 178.01C651.82 172.13 650.47 166.17 650.34 160.12C650.21 154.07 651.4 148.57 653.9 143.61C655.71 139.95 658.09 136.58 661.05 133.49C664.01 130.4 667.27 127.83 670.83 125.77C676.71 122.37 682.78 120.08 689.05 118.9C695.32 117.72 701.36 118.23 707.18 120.44C710.97 121.76 714.49 123.8 717.74 126.56C720.99 129.33 723.63 132.46 725.66 135.97C728.91 141.59 730.6 147.43 730.73 153.48C730.86 159.53 730.21 165.62 728.8 171.73C728.19 174.36 727.61 176.67 727.08 178.66C726.55 180.66 726.1 182.5 725.74 184.19C725.38 185.88 725.15 187.54 725.06 189.18C724.99 192.39 725.23 194.83 725.79 196.5C726.35 198.17 727.46 200.46 729.13 203.34L706.85 216.23L706.86 216.2Z" fill="#ECE7F5"/>
<path d="M733.683 211.121L711.559 223.92L724.448 246.2L746.572 233.401L733.683 211.121Z" fill="#DA0081"/>
<path d="M735.52 239.88L724.46 246.28L711.58 224L733.7 211.2L739.81 221.77" stroke="#200020" stroke-width="5" stroke-linecap="round" stroke-linejoin="round"/>
<path d="M718.07 209.71L706.85 216.2C704.88 212.8 703.31 209.16 702.14 205.3C700.97 201.43 700.38 197.65 700.37 193.94C700.14 190.57 700.34 187.68 700.98 185.28C701.62 182.88 702.47 180.31 703.53 177.56C704.59 174.81 705.65 171.21 706.71 166.74C707.48 163.2 707.57 160.1 706.97 157.46C706.37 154.81 705.29 152.15 703.74 149.47C702.93 148.08 702.02 146.82 700.99 145.69C699.96 144.57 698.78 143.74 697.44 143.2C695.22 142.21 692.87 141.94 690.4 142.37C687.93 142.8 685.53 143.69 683.21 145.03C681.46 146.04 679.86 147.24 678.42 148.62C676.98 150 675.94 151.5 675.29 153.11C674.47 155.03 674.19 157.01 674.45 159.07C674.71 161.12 675.44 163.14 676.66 165.12L654.38 178.01C651.81 172.13 650.46 166.17 650.33 160.12C650.2 154.07 651.39 148.57 653.89 143.61C655.7 139.95 658.08 136.58 661.04 133.49C664 130.4 667.26 127.83 670.82 125.77C676.7 122.37 682.77 120.08 689.04 118.9C695.31 117.72 701.35 118.23 707.17 120.44C710.96 121.76 714.48 123.8 717.73 126.56C720.98 129.33 723.62 132.46 725.65 135.97C728.9 141.59 730.59 147.43 730.72 153.48C730.77 155.62 730.72 157.76 730.57 159.9" fill="#ECE7F5"/>
<path d="M718.07 209.71L706.85 216.2C704.88 212.8 703.31 209.16 702.14 205.3C700.97 201.43 700.38 197.65 700.37 193.94C700.14 190.57 700.34 187.68 700.98 185.28C701.62 182.88 702.47 180.31 703.53 177.56C704.59 174.81 705.65 171.21 706.71 166.74C707.48 163.2 707.57 160.1 706.97 157.46C706.37 154.81 705.29 152.15 703.74 149.47C702.93 148.08 702.02 146.82 700.99 145.69C699.96 144.57 698.78 143.74 697.44 143.2C695.22 142.21 692.87 141.94 690.4 142.37C687.93 142.8 685.53 143.69 683.21 145.03C681.46 146.04 679.86 147.24 678.42 148.62C676.98 150 675.94 151.5 675.29 153.11C674.47 155.03 674.19 157.01 674.45 159.07C674.71 161.12 675.44 163.14 676.66 165.12L654.38 178.01C651.81 172.13 650.46 166.17 650.33 160.12C650.2 154.07 651.39 148.57 653.89 143.61C655.7 139.95 658.08 136.58 661.04 133.49C664 130.4 667.26 127.83 670.82 125.77C676.7 122.37 682.77 120.08 689.04 118.9C695.31 117.72 701.35 118.23 707.17 120.44C710.96 121.76 714.48 123.8 717.73 126.56C720.98 129.33 723.62 132.46 725.65 135.97C728.9 141.59 730.59 147.43 730.72 153.48C730.77 155.62 730.72 157.76 730.57 159.9" stroke="#200020" stroke-width="5" stroke-linecap="round" stroke-linejoin="round"/>
<path d="M745.357 231.244L743.167 232.511C742.861 232.688 742.757 233.08 742.934 233.386L744.201 235.575C744.378 235.881 744.769 235.986 745.075 235.809L747.265 234.542C747.571 234.365 747.676 233.974 747.499 233.668L746.232 231.478C746.055 231.172 745.663 231.067 745.357 231.244Z" fill="#200020"/>
<path d="M638.51 186.25C640.48 189.65 642.05 193.29 643.22 197.15C644.39 201.02 644.98 204.8 644.99 208.51C645.22 211.88 645.02 214.77 644.38 217.17C643.74 219.57 642.89 222.14 641.83 224.89C640.77 227.64 639.71 231.24 638.65 235.71C637.88 239.25 637.79 242.35 638.39 244.99C638.99 247.64 640.07 250.3 641.62 252.98C642.43 254.37 643.34 255.63 644.37 256.76C645.4 257.88 646.58 258.71 647.92 259.25C650.14 260.24 652.49 260.51 654.96 260.08C657.43 259.65 659.83 258.76 662.15 257.42C663.9 256.41 665.5 255.21 666.94 253.83C668.38 252.45 669.42 250.95 670.07 249.34C670.89 247.42 671.17 245.44 670.91 243.38C670.65 241.33 669.92 239.31 668.7 237.33L690.98 224.44C693.55 230.32 694.9 236.28 695.03 242.33C695.16 248.38 693.97 253.88 691.47 258.84C689.66 262.5 687.28 265.87 684.32 268.96C681.36 272.05 678.1 274.62 674.54 276.68C668.66 280.08 662.59 282.37 656.32 283.55C650.05 284.73 644.01 284.22 638.19 282.01C634.4 280.69 630.88 278.65 627.63 275.89C624.38 273.12 621.74 269.99 619.71 266.48C616.46 260.86 614.77 255.02 614.64 248.97C614.51 242.92 615.16 236.83 616.57 230.72C617.18 228.09 617.76 225.78 618.29 223.79C618.82 221.79 619.27 219.95 619.63 218.26C619.99 216.57 620.22 214.91 620.31 213.27C620.38 210.06 620.14 207.62 619.58 205.95C619.02 204.28 617.91 201.99 616.24 199.11L638.52 186.22L638.51 186.25Z" fill="#ECE7F5"/>
<path d="M620.888 156.112L598.764 168.912L611.653 191.192L633.778 178.393L620.888 156.112Z" fill="#DA0081"/>
<path d="M609.84 162.57L620.9 156.17L633.79 178.45L611.66 191.24L605.55 180.67" stroke="#200020" stroke-width="5" stroke-linecap="round" stroke-linejoin="round"/>
<path d="M627.29 192.74L638.51 186.25C640.48 189.65 642.05 193.29 643.22 197.15C644.39 201.02 644.98 204.8 644.99 208.51C645.22 211.88 645.02 214.77 644.38 217.17C643.74 219.57 642.89 222.14 641.83 224.89C640.77 227.64 639.71 231.24 638.65 235.71C637.88 239.25 637.79 242.35 638.39 244.99C638.99 247.64 640.07 250.3 641.62 252.98C642.43 254.37 643.34 255.63 644.37 256.76C645.4 257.88 646.58 258.71 647.92 259.25C650.14 260.24 652.49 260.51 654.96 260.08C657.43 259.65 659.83 258.76 662.15 257.42C663.9 256.41 665.5 255.21 666.94 253.83C668.38 252.45 669.42 250.95 670.07 249.34C670.89 247.42 671.17 245.44 670.91 243.38C670.65 241.33 669.92 239.31 668.7 237.33L690.98 224.44C693.55 230.32 694.9 236.28 695.03 242.33C695.16 248.38 693.97 253.88 691.47 258.84C689.66 262.5 687.28 265.87 684.32 268.96C681.36 272.05 678.1 274.62 674.54 276.68C668.66 280.08 662.59 282.37 656.32 283.55C650.05 284.73 644.01 284.22 638.19 282.01C634.4 280.69 630.88 278.65 627.63 275.89C624.38 273.12 621.74 269.99 619.71 266.48C616.46 260.86 614.77 255.02 614.64 248.97C614.59 246.83 614.64 244.69 614.79 242.55" fill="#ECE7F5"/>
<path d="M627.29 192.74L638.51 186.25C640.48 189.65 642.05 193.29 643.22 197.15C644.39 201.02 644.98 204.8 644.99 208.51C645.22 211.88 645.02 214.77 644.38 217.17C643.74 219.57 642.89 222.14 641.83 224.89C640.77 227.64 639.71 231.24 638.65 235.71C637.88 239.25 637.79 242.35 638.39 244.99C638.99 247.64 640.07 250.3 641.62 252.98C642.43 254.37 643.34 255.63 644.37 256.76C645.4 257.88 646.58 258.71 647.92 259.25C650.14 260.24 652.49 260.51 654.96 260.08C657.43 259.65 659.83 258.76 662.15 257.42C663.9 256.41 665.5 255.21 666.94 253.83C668.38 252.45 669.42 250.95 670.07 249.34C670.89 247.42 671.17 245.44 670.91 243.38C670.65 241.33 669.92 239.31 668.7 237.33L690.98 224.44C693.55 230.32 694.9 236.28 695.03 242.33C695.16 248.38 693.97 253.88 691.47 258.84C689.66 262.5 687.28 265.87 684.32 268.96C681.36 272.05 678.1 274.62 674.54 276.68C668.66 280.08 662.59 282.37 656.32 283.55C650.05 284.73 644.01 284.22 638.19 282.01C634.4 280.69 630.88 278.65 627.63 275.89C624.38 273.12 621.74 269.99 619.71 266.48C616.46 260.86 614.77 255.02 614.64 248.97C614.59 246.83 614.64 244.69 614.79 242.55" stroke="#200020" stroke-width="5" stroke-linecap="round" stroke-linejoin="round"/>
<path d="M600.01 171.197L602.2 169.93C602.506 169.753 602.61 169.362 602.433 169.056L601.167 166.866C600.99 166.56 600.598 166.455 600.292 166.632L598.102 167.899C597.796 168.076 597.692 168.468 597.869 168.774L599.136 170.964C599.313 171.27 599.704 171.374 600.01 171.197Z" fill="#200020"/>
<path d="M729.01 161.15C729.67 160.33 730.97 160.4 731.54 161.28C734.18 165.31 735.61 175.64 729.28 175.06C723.51 174.53 725.85 165.08 729 161.16L729.01 161.15Z" stroke="#200020" stroke-width="5" stroke-linecap="round" stroke-linejoin="round"/>
<path d="M218.84 804.65H242.55" stroke="#200020" stroke-width="5" stroke-miterlimit="10"/>
<path d="M202.37 774.19L209.74 798.98" stroke="#200020" stroke-width="5" stroke-miterlimit="10"/>
<path d="M212.51 848.49C236.722 848.49 256.35 828.862 256.35 804.65C256.35 780.438 236.722 760.81 212.51 760.81C188.298 760.81 168.67 780.438 168.67 804.65C168.67 828.862 188.298 848.49 212.51 848.49Z" stroke="#200020" stroke-width="5" stroke-miterlimit="10"/>
<path d="M430.37 318.13C430.8 324.8 428.16 329.77 424.8 329.97C421.44 330.17 418.15 325.12 417.63 319.07C417.2 312.4 419.84 307.43 423.2 307.23C426.55 307 429.85 312.08 430.37 318.13Z" fill="#200020"/>
<path d="M496.48 315.14C496.91 321.81 494.27 326.78 490.91 326.98C487.56 327.21 484.26 322.13 483.74 316.08C483.31 309.41 485.95 304.44 489.31 304.24C492.75 303.36 496.05 308.44 496.48 315.14Z" fill="#200020"/>
<path d="M434.77 369.25L435.49 366.04C435.59 365.6 436.01 365.3 436.43 365.37L438.35 365.71C441.56 366.15 444.8 366.15 447.88 365.49C450.95 364.83 453.9 363.58 456.39 361.68C457.03 361.23 457.61 360.71 458.18 360.19C458.45 359.92 458.74 359.66 458.99 359.37L459.34 358.99L458.36 355.97L455.13 346.02L442.2 306.21L441.5 304.04C441.36 303.61 441.6 303.14 442.03 303L445.16 301.98C445.59 301.84 446.06 302.08 446.2 302.51L446.9 304.68L459.83 344.49L463.06 354.44L463.87 356.93L464.49 358.88L464.65 359.49L464.73 359.8L464.77 359.95C464.77 359.95 464.71 360.04 464.68 360.08C464.43 360.43 464.2 360.78 463.94 361.13L463.13 362.15C462.91 362.41 462.78 362.53 462.6 362.73C462.27 363.1 461.91 363.43 461.57 363.77C460.86 364.43 460.13 365.07 459.35 365.63C456.28 367.97 452.65 369.51 448.92 370.31C445.18 371.11 441.34 371.1 437.65 370.59L435.46 370.2C434.98 370.11 434.68 369.68 434.78 369.24L434.77 369.25Z" fill="#2B0D2B"/>
<path d="M468.03 285.88L466.03 283.27C465.75 282.91 465.86 282.39 466.27 282.12L468.15 280.85C468.65 280.47 469.24 280.22 469.8 279.93L471.5 279.08C472.66 278.57 473.88 278.18 475.08 277.77C477.55 277.16 480.08 276.7 482.61 276.78C483.88 276.73 485.13 276.91 486.38 277.02C487 277.09 487.61 277.23 488.23 277.34L489.15 277.51L490.05 277.75C492.47 278.36 494.8 279.23 497.03 280.34C497.76 280.71 498.48 281.1 499.2 281.53C499.42 281.67 499.57 281.87 499.63 282.08C499.71 282.31 499.69 282.54 499.56 282.73L497.68 285.43C497.55 285.62 497.38 285.75 497.21 285.81C497.02 285.87 496.82 285.85 496.65 285.74C496.07 285.39 495.45 285.06 494.83 284.74C492.92 283.78 490.9 283.03 488.84 282.51L488.07 282.3L487.29 282.16C486.77 282.07 486.25 281.95 485.73 281.89C484.68 281.8 483.64 281.64 482.59 281.69C480.49 281.62 478.44 282.01 476.43 282.49C475.45 282.84 474.46 283.15 473.51 283.56L472.11 284.27C471.65 284.51 471.16 284.71 470.74 285.03L469.16 286.1C468.82 286.33 468.31 286.22 468.04 285.86L468.03 285.88Z" fill="#2B0D2B"/>
<path d="M425 280.57L423.61 283.55C423.42 283.96 422.95 284.16 422.56 283.99C421.97 283.73 421.38 283.48 420.77 283.27C418.45 282.43 416.03 281.9 413.6 281.72C411.16 281.56 408.71 281.77 406.31 282.3C401.51 283.38 396.95 285.8 393.09 288.99C392.55 289.44 392.02 289.91 391.52 290.38C391.23 290.66 390.75 290.63 390.44 290.3L388.03 288.07C387.72 287.74 387.75 287.17 388.11 286.83C388.71 286.25 389.32 285.72 389.95 285.2C394.36 281.57 399.54 278.79 405.23 277.5C408.07 276.87 411.02 276.62 413.94 276.81C416.86 277.02 419.74 277.65 422.46 278.64C423.17 278.88 423.86 279.17 424.55 279.48C425 279.67 425.21 280.16 425.01 280.58L425 280.57Z" fill="#2B0D2B"/>
<path d="M478.56 384.28C445.42 400.53 426.96 380.24 426.96 380.24C426.96 380.24 433.86 406.17 451.38 408.18C468.9 410.18 470.11 389.61 470.11 389.61" stroke="#200020" stroke-width="5" stroke-miterlimit="10"/>
<path d="M418.34 250.74C418.34 250.74 401.33 229.46 415.95 224.47C422.83 222.12 428.31 238.38 418.34 250.74Z" stroke="#200020" stroke-width="5" stroke-miterlimit="10"/>
<path d="M609.722 909.069L604.077 909.315L604.323 914.96L609.967 914.714L609.722 909.069Z" fill="#DA0081"/>
<path d="M609.69 909.1L609.94 914.75L604.29 915L604.04 909.35L609.69 909.1ZM615.04 903.27L609.45 903.51L603.8 903.76L598.21 904L598.45 909.59L598.7 915.24L598.94 920.83L604.53 920.59L610.18 920.34L615.77 920.1L615.53 914.51L615.28 908.86L615.04 903.27Z" fill="#ECE7F5"/>
<path d="M80.7579 878.189L73.708 886.172L81.6906 893.222L88.7405 885.239L80.7579 878.189Z" fill="#200020"/>
<path d="M81.0202 881.65L85.2602 885.39L81.5202 889.63L77.2802 885.89L81.0202 881.65ZM80.5802 874.59L77.2702 878.34L73.5302 882.58L70.2202 886.33L73.9702 889.64L78.2102 893.38L81.9602 896.69L85.2702 892.94L89.0102 888.7L92.3202 884.95L88.5702 881.64L84.3302 877.9L80.5802 874.59Z" fill="#ECE7F5"/>
<path d="M283.48 315.17C283.48 315.17 298.99 326.11 306.2 319.1C313.41 312.1 297.47 300.97 283.48 315.17Z" stroke="#200020" stroke-width="5" stroke-miterlimit="10"/>
</g>
<defs>
<clipPath id="clip0_2254_3970">
<rect width="1145.88" height="1121.68" fill="white" transform="translate(-99 -61)"/>
</clipPath>
</defs>
</svg>
