<svg width="752" height="769" viewBox="0 0 752 769" fill="none" xmlns="http://www.w3.org/2000/svg">
<g clip-path="url(#clip0_38_8492)">
<path d="M301.494 134.241C300.162 137.598 295.854 140.178 288.691 141.91C279.477 144.141 279.099 143.25 275.532 134.698C275.24 133.992 275.183 132.438 275.14 131.077C275.055 128.49 274.941 125.269 273.267 122.461C271.259 119.104 267.656 116.994 264.481 115.127C262.857 114.172 261.177 113.189 260.301 112.348L258.798 110.908C251.735 104.109 249.093 101.572 237.429 96.6969C235.542 95.9058 232.58 95.1076 229.155 94.174C224.449 92.8983 216.573 90.7602 214.587 89.0854C206.355 82.1723 210.677 65.6664 219.201 52.9377C222.206 48.4549 227.275 45.7324 232.659 45.7324C232.886 45.7324 233.114 45.7324 233.342 45.7467C237.629 45.9462 238.718 46.7516 240.691 48.2197C241.908 49.1177 243.418 50.2438 245.639 51.3128C252.041 54.3987 258.848 55.3751 266.439 56.2517C273.965 57.1212 279.968 63.2361 280.716 70.7835C281.1 74.6819 281.577 79.8774 281.834 85.4364C282.303 95.692 285.643 100.346 289.866 106.24C290.983 107.801 292.144 109.418 293.383 111.321C297.976 118.384 303.822 128.44 301.515 134.241H301.494Z" stroke="#ECE7F5" stroke-width="5" stroke-linecap="round" stroke-linejoin="round"/>
<path d="M270.213 384.239C268.931 384.738 264.409 383.626 261.974 383.035C257.894 382.037 254.042 381.096 250.645 381.723C246.715 382.45 243.888 383.569 241.623 384.474C238.512 385.707 236.461 386.527 232.367 386.242C224.498 385.7 222.426 383.541 221.899 382.636C220.903 380.918 221.999 378.074 222.74 376.528C223.922 374.062 225.98 372.009 228.522 370.741C233.307 368.353 238.213 367.234 244.201 367.234C246.138 367.234 248.189 367.356 250.389 367.584C256.584 368.232 271.615 374.547 273.097 379.771C273.445 380.989 272.477 382.493 270.227 384.246L270.213 384.239Z" stroke="#ECE7F5" stroke-width="5" stroke-linecap="round" stroke-linejoin="round"/>
<path d="M41.0858 109.562C34.9194 112.127 31.9572 119.161 30.647 125.711C29.3368 132.261 28.9666 139.259 25.4561 144.947C21.9314 150.662 15.8006 154.133 10.6168 158.409C5.43296 162.678 0.740484 168.943 1.98659 175.55C3.0618 181.244 8.10319 185.142 12.0765 189.354C24.7369 202.789 29.8282 223.449 21.3974 239.884C21.8958 241.067 22.2803 242.243 22.5011 243.469C22.8784 245.543 22.0809 248.429 21.2336 251.494C19.8736 256.397 18.3355 261.956 20.6568 267.508C22.4441 271.784 25.1499 274.222 27.5353 276.374C29.6288 278.262 31.2808 279.752 32.3204 282.425C34.7129 288.582 34.2216 295.809 33.6946 303.456C33.2603 309.82 32.8117 316.399 34.0364 322.827C35.4107 330.004 43.6137 351.128 53.9741 356.174C57.2995 357.792 60.6817 357.806 63.7507 356.217C68.372 353.829 69.2692 347.671 70.3017 340.552C70.7859 337.216 71.7899 330.332 73.2354 329.077C73.4205 329.092 73.8406 329.177 74.4886 329.469C77.1944 333.496 80.5981 354.271 80.2705 358.333C80.0712 360.885 78.526 362.98 76.5749 365.638C74.8233 368.019 72.8437 370.72 71.676 374.169C69.6964 380.028 69.8388 386.342 69.967 391.915C69.9884 392.934 70.0169 393.946 70.024 394.951C70.202 411.243 78.5901 423.765 93.6359 430.222C97.6377 431.94 101.704 432.275 105.641 432.596C109.543 432.916 113.232 433.216 116.187 434.933C119.854 437.057 122.816 440.599 125.949 444.348C127.801 446.564 129.716 448.852 131.874 450.954C145.075 463.833 160.299 470.732 174.69 470.34L175.259 470.361C188.81 470.839 211.496 471.637 215.391 485.613C216.78 490.587 216.53 496.039 216.267 501.812C215.747 513.208 215.163 526.129 228.643 535.358C234.553 539.406 241.531 540.846 248.281 542.236C259.218 544.488 266.068 546.291 268.853 554.466C272.762 565.961 270.69 584.548 269.173 598.118C268.988 599.786 268.81 601.375 268.653 602.872C267.407 614.731 266.46 625.614 267.129 636.268C268.041 650.771 255.694 664.042 258.286 678.338C260.522 690.661 268.902 700.988 272.641 712.947C278.024 730.151 272.605 750.242 259.318 762.407" stroke="#ECE7F5" stroke-width="5" stroke-linecap="round" stroke-linejoin="round"/>
<path d="M98.6844 95.6357C102.601 100.546 108.44 105 115.204 108.158C121.171 110.937 127.644 112.384 134.444 112.448C136.737 112.477 139.3 111.849 141.999 111.194C146.756 110.039 152.146 108.721 157.358 111.001C170.895 116.91 173.102 137.257 168.616 148.125C166.551 153.121 164.258 156.571 162.578 159.094C162.193 159.671 161.752 160.334 161.41 160.883C162.549 161.56 164.792 162.636 169.121 164.36C172.155 165.572 175.793 167.625 179.653 169.805C186.574 173.718 195.19 178.557 200.324 178.351C203.35 178.208 204.81 176.376 207.573 172.571C210.862 168.038 215.37 161.83 225.317 161.446C233.997 161.103 241.018 164.546 247.804 167.867C251.251 169.549 254.498 171.145 257.923 172.236C262.088 173.576 266.617 174.31 271.416 175.086C280.331 176.533 289.545 178.037 297.499 183.632C312.281 194.037 312.637 236.136 306.514 250.838C303.081 259.084 297.485 261.985 293.397 262.975C284.952 265.014 276.08 260.78 270.59 256.134C268.888 254.694 267.008 252.634 265.015 250.453C262.608 247.817 257.061 241.744 254.725 241.324C254.448 241.645 253.757 242.657 253.095 245.329C251.685 251.002 254.32 253.832 259.489 258.749C263.477 262.541 267.991 266.831 269.123 273.53C271.957 290.343 255.295 293.179 246.344 294.697C244.721 294.975 243.19 295.232 241.851 295.524C235.03 297.006 233.421 299.993 230.757 304.939C228.543 309.037 225.794 314.139 219.55 318.615C217.093 320.368 214.48 321.088 212.18 321.723C208.84 322.642 207.316 323.141 206.241 325.428C205.337 327.353 205.173 329.826 204.995 332.441C204.803 335.285 204.582 338.513 203.35 341.628C202.425 343.966 201.406 345.897 200.417 347.771C198.48 351.442 196.956 354.335 196.557 359.374C196.458 360.657 196.557 362.246 196.664 363.928C196.942 368.347 197.291 373.842 194.072 378.331C188.482 386.121 179.774 386.036 172.774 385.979C164.956 385.9 160.385 386.121 157.259 391.367C154.838 395.429 155.051 395.864 156.468 398.665C157.294 400.297 158.419 402.527 159.252 405.642C160.114 408.87 159.836 412.612 159.573 416.232C159.388 418.77 159.039 423.495 159.85 424.464C183.74 444.533 198.907 431.676 208.947 423.174C211.425 421.072 213.383 419.418 215.299 418.506C231.797 410.695 250.966 402.606 269.679 405.599C278.473 407.003 284.361 411.878 289.559 416.175C294.879 420.58 299.478 424.378 306.677 424.478C309.105 424.507 311.477 424.492 313.798 424.478C326.814 424.393 339.097 424.321 352.705 432.247C367.801 441.048 377.741 462.315 382.32 474.21C384.313 479.377 387.596 489.198 387.204 496.866C386.806 504.485 383.694 507.756 380.952 510.642C379.692 511.968 378.496 513.222 377.485 515.054C374.53 520.413 375.099 526.257 375.769 533.028C376.367 539.143 377.05 546.077 374.75 553.076C371.952 561.586 366.932 566.888 362.503 571.57C357.59 576.759 353.346 581.242 351.715 589.701C350.839 594.234 350.547 598.011 350.27 601.667C349.551 611.003 348.931 619.064 338.336 629.22C333.928 633.446 329.164 638.328 325.262 643.83C329.812 644.015 334.377 644.129 338.955 644.129C341.07 653.124 336.62 644.642 330.88 651.883C325.141 659.124 318.284 665.959 315.678 674.825C311.84 687.91 318.22 701.85 317.13 715.441C316.554 722.654 313.883 729.517 310.985 736.145C306.307 746.828 300.952 757.212 294.957 767.211" stroke="#ECE7F5" stroke-width="5" stroke-linecap="round" stroke-linejoin="round"/>
<path d="M252.297 1.78125C253.095 9.78476 257.332 15.6003 264.488 18.1375C271.822 20.7388 280.21 19.905 288.313 19.0854C300.838 17.831 308.685 17.4319 311.911 24.7014C313.72 28.7708 313.677 33.9022 313.634 39.3329C313.577 46.4954 313.513 54.613 318.042 61.576C324.45 71.4254 334.156 73.7345 342.722 75.7656C349.237 77.3122 354.87 78.652 358.665 82.864C364.732 89.5918 365.757 100.204 366.761 110.474C367.138 114.329 367.487 117.971 368.1 121.456C370.798 136.779 382.519 162.906 399.117 170.34C401.339 171.33 403.439 171.772 405.44 171.772C414.398 171.772 421.184 162.899 426.838 155.501C431.551 149.337 436.422 142.958 441.741 141.233C448.577 139.017 454.287 138.639 459.813 138.269C469.084 137.649 478.676 137.007 490.781 127.457L491.607 126.809C506.275 115.249 524.525 100.859 527.153 80.6119C527.473 78.1603 527.665 76.1576 527.829 74.3901C528.449 67.8476 528.641 65.8664 534.266 57.7987C534.679 57.2072 535.078 56.5871 535.484 55.9814" stroke="#ECE7F5" stroke-width="5" stroke-linecap="round" stroke-linejoin="round"/>
<path d="M161.424 160.897C161.424 160.897 144.413 158.089 144.228 163.976C144.043 169.863 157.479 166.1 161.424 160.897Z" stroke="#ECE7F5" stroke-width="5" stroke-linecap="round" stroke-linejoin="round"/>
<path d="M254.725 241.331C254.725 241.331 258.891 223.927 251.728 222.822C244.564 221.717 248.36 237.767 254.725 241.331Z" stroke="#ECE7F5" stroke-width="5" stroke-linecap="round" stroke-linejoin="round"/>
<path d="M259.268 434.67H236.319C233.328 434.67 230.907 437.093 230.907 440.086V457.191C230.907 462.372 232.716 467.382 236.012 471.373L244.201 481.266C246.067 483.525 249.527 483.525 251.393 481.266L259.582 471.373C262.878 467.382 264.687 462.372 264.687 457.191V440.086C264.687 437.093 262.266 434.67 259.275 434.67H259.268ZM256.926 454.604C256.926 456.115 255.701 457.341 254.191 457.341H241.161C239.651 457.341 238.426 456.115 238.426 454.604V443.522C238.426 442.011 239.651 440.785 241.161 440.785H254.191C255.701 440.785 256.926 442.011 256.926 443.522V454.604Z" fill="#D90080"/>
<path d="M252.995 342.79H242.692C241.353 342.79 240.263 343.88 240.263 345.22V352.896C240.263 355.219 241.075 357.471 242.556 359.26L246.23 363.7C247.071 364.712 248.623 364.712 249.456 363.7L253.13 359.26C254.611 357.471 255.423 355.219 255.423 352.896V345.22C255.423 343.88 254.334 342.79 252.995 342.79ZM251.941 351.734C251.941 352.411 251.393 352.96 250.716 352.96H244.863C244.187 352.96 243.639 352.411 243.639 351.734V346.76C243.639 346.083 244.187 345.534 244.863 345.534H250.716C251.393 345.534 251.941 346.083 251.941 346.76V351.734Z" fill="#D90080"/>
<path d="M142.804 310.548H127.48C125.486 310.548 123.87 312.166 123.87 314.161V325.578C123.87 329.035 125.073 332.385 127.281 335.05L132.749 341.657C133.995 343.161 136.303 343.161 137.549 341.657L143.017 335.05C145.218 332.385 146.428 329.035 146.428 325.578V314.161C146.428 312.166 144.812 310.548 142.818 310.548H142.804ZM141.237 323.854C141.237 324.859 140.418 325.678 139.414 325.678H130.713C129.709 325.678 128.89 324.859 128.89 323.854V316.456C128.89 315.451 129.709 314.632 130.713 314.632H139.414C140.418 314.632 141.237 315.451 141.237 316.456V323.854Z" fill="#200020"/>
<path d="M76.81 272.654H69.5114C68.5644 272.654 67.7882 273.424 67.7882 274.379V279.817C67.7882 281.463 68.365 283.06 69.4117 284.328L72.0178 287.471C72.6089 288.191 73.7126 288.191 74.3036 287.471L76.9097 284.328C77.9564 283.06 78.5332 281.463 78.5332 279.817V274.379C78.5332 273.431 77.7642 272.654 76.81 272.654ZM76.0695 278.99C76.0695 279.468 75.6778 279.86 75.2008 279.86H71.0566C70.5795 279.86 70.1879 279.468 70.1879 278.99V275.469C70.1879 274.992 70.5795 274.6 71.0566 274.6H75.2008C75.6778 274.6 76.0695 274.992 76.0695 275.469V278.99Z" fill="#200020"/>
</g>
<defs>
<clipPath id="clip0_38_8492">
<rect width="752" height="769" fill="white"/>
</clipPath>
</defs>
</svg>
