<svg width="1095" height="528" viewBox="0 0 1095 528" fill="none" xmlns="http://www.w3.org/2000/svg">
<g clip-path="url(#clip0_33_4413)">
<path d="M381.929 268.116C380.032 268.854 373.34 267.21 369.736 266.335C363.697 264.86 357.995 263.469 352.968 264.396C347.151 265.471 342.967 267.125 339.616 268.464C335.01 270.287 331.975 271.498 325.915 271.077C314.27 270.276 311.203 267.083 310.423 265.745C308.948 263.205 310.57 259.001 311.667 256.714C313.416 253.068 316.462 250.034 320.224 248.158C327.306 244.628 334.568 242.974 343.431 242.974C346.297 242.974 349.332 243.153 352.589 243.49C361.758 244.449 384.005 253.785 386.197 261.509C386.714 263.311 385.281 265.534 381.95 268.126L381.929 268.116Z" stroke="#ECE7F5" stroke-width="5" stroke-linecap="round" stroke-linejoin="round"/>
<path d="M42.8094 -138.008C33.6827 -134.214 29.2986 -123.814 27.3594 -114.13C25.4203 -104.446 24.8722 -94.0983 19.6766 -85.6894C14.4598 -77.2384 5.38586 -72.1067 -2.28645 -65.7842C-9.95875 -59.4723 -16.9039 -50.2099 -15.0596 -40.4417C-13.4682 -32.0223 -6.00667 -26.2583 -0.125977 -20.0307C18.6121 -0.167589 26.1474 30.3804 13.6694 54.6798C14.4071 56.429 14.9762 58.1677 15.3029 59.9801C15.8615 63.0465 14.6811 67.3142 13.427 71.8453C11.4141 79.095 9.13769 87.3142 12.5734 95.5229C15.2186 101.845 19.2234 105.449 22.7539 108.631C25.8523 111.424 28.2974 113.626 29.836 117.578C33.3771 126.682 32.6499 137.367 31.87 148.674C31.2272 158.084 30.5632 167.81 32.3759 177.314C34.4099 187.926 46.5507 219.159 61.8848 226.619C66.8064 229.011 71.8124 229.032 76.3546 226.682C83.1944 223.152 84.5223 214.048 86.0504 203.521C86.7671 198.59 88.253 188.41 90.3924 186.556C90.6664 186.577 91.2882 186.703 92.2473 187.135C96.252 193.089 101.29 223.806 100.805 229.812C100.51 233.584 98.2228 236.682 95.3352 240.613C92.7426 244.132 89.8128 248.126 88.0844 253.226C85.1546 261.888 85.3654 271.224 85.5551 279.464C85.5867 280.971 85.6288 282.468 85.6394 283.953C85.9029 308.042 98.3177 326.556 120.586 336.103C126.509 338.643 132.527 339.138 138.355 339.612C144.13 340.086 149.589 340.529 153.963 343.068C159.39 346.209 163.775 351.446 168.412 356.988C171.152 360.265 173.987 363.648 177.18 366.757C196.719 385.798 219.251 395.998 240.55 395.418L241.393 395.45C261.449 396.156 295.026 397.336 300.79 418C302.846 425.355 302.477 433.416 302.087 441.952C301.317 458.801 300.453 477.905 320.403 491.551C329.151 497.537 339.479 499.665 349.47 501.72C365.657 505.05 375.796 507.716 379.916 519.802C385.702 536.799 382.635 564.281 380.391 584.344C380.117 586.81 379.853 589.16 379.621 591.373C377.777 608.907 376.375 624.998 377.366 640.751C378.715 662.195 360.441 681.815 364.277 702.953C367.586 721.173 379.99 736.441 385.523 754.123C393.49 779.561 385.47 809.266 365.805 827.253" stroke="#ECE7F5" stroke-width="5" stroke-linecap="round" stroke-linejoin="round"/>
<path d="M128.058 -158.598C133.855 -151.337 142.497 -144.751 152.509 -140.083C161.34 -135.974 170.92 -133.835 180.985 -133.74C184.378 -133.698 188.172 -134.625 192.166 -135.594C199.206 -137.301 207.184 -139.251 214.899 -135.879C234.933 -127.143 238.2 -97.059 231.561 -80.9894C228.504 -73.6027 225.111 -68.5026 222.624 -64.7723C222.055 -63.9188 221.401 -62.9388 220.895 -62.1274C222.582 -61.1264 225.901 -59.5352 232.309 -56.9852C236.798 -55.1938 242.184 -52.159 247.896 -48.9346C258.14 -43.1495 270.892 -35.9946 278.49 -36.3002C282.969 -36.5109 285.13 -39.219 289.219 -44.846C294.088 -51.5478 300.759 -60.7259 315.482 -61.295C328.329 -61.8008 338.72 -56.7112 348.764 -51.8007C353.864 -49.3139 358.67 -46.9535 363.739 -45.3413C369.904 -43.3602 376.607 -42.2749 383.71 -41.1263C396.905 -38.9872 410.542 -36.7638 422.314 -28.4919C444.193 -13.1073 444.72 49.1374 435.657 70.8761C430.577 83.0679 422.293 87.3567 416.244 88.8214C403.745 91.8351 390.613 85.5759 382.488 78.7054C379.969 76.5769 377.187 73.5316 374.236 70.3071C370.674 66.4083 362.464 57.4303 359.007 56.8086C358.596 57.2828 357.574 58.7791 356.594 62.7307C354.507 71.1185 358.407 75.3018 366.058 82.5727C371.96 88.1786 378.641 94.5221 380.317 104.427C384.511 129.285 359.85 133.479 346.603 135.723C344.2 136.134 341.934 136.514 339.953 136.946C329.857 139.138 327.475 143.553 323.533 150.866C320.256 156.925 316.188 164.47 306.945 171.087C303.309 173.679 299.442 174.744 296.038 175.681C291.095 177.041 288.839 177.778 287.248 181.161C285.91 184.006 285.667 187.663 285.404 191.53C285.119 195.734 284.793 200.508 282.969 205.113C281.599 208.569 280.092 211.424 278.627 214.196C275.761 219.623 273.505 223.901 272.915 231.351C272.768 233.247 272.915 235.597 273.073 238.084C273.484 244.617 274.001 252.742 269.237 259.38C260.964 270.898 248.075 270.771 237.715 270.687C226.144 270.571 219.378 270.898 214.751 278.653C211.168 284.66 211.484 285.302 213.581 289.444C214.804 291.857 216.469 295.155 217.702 299.76C218.977 304.533 218.566 310.065 218.176 315.418C217.902 319.17 217.386 326.156 218.587 327.589C253.945 357.263 276.393 338.253 291.253 325.682C294.92 322.573 297.819 320.129 300.654 318.78C325.072 307.231 353.443 295.271 381.139 299.697C394.154 301.772 402.87 308.98 410.563 315.334C418.436 321.846 425.244 327.463 435.899 327.61C439.493 327.652 443.002 327.631 446.438 327.61C465.703 327.484 483.882 327.378 504.022 339.096C526.365 352.11 541.077 383.553 547.853 401.14C550.804 408.78 555.663 423.301 555.083 434.639C554.493 445.903 549.887 450.74 545.83 455.008C543.965 456.968 542.194 458.822 540.698 461.531C536.324 469.455 537.167 478.095 538.158 488.106C539.043 497.147 540.055 507.4 536.651 517.748C532.509 530.329 525.079 538.169 518.524 545.092C511.252 552.764 504.971 559.392 502.557 571.9C501.261 578.601 500.829 584.186 500.418 589.592C499.353 603.396 498.437 615.314 482.755 630.33C476.231 636.578 469.181 643.797 463.405 651.931C470.14 652.205 476.895 652.374 483.672 652.374C486.802 665.672 480.215 653.133 471.721 663.839C463.226 674.545 453.077 684.65 449.22 697.759C443.54 717.106 452.982 737.717 451.37 757.812C450.516 768.476 446.564 778.623 442.275 788.423C435.351 804.219 427.426 819.572 418.552 834.356" stroke="#ECE7F5" stroke-width="5" stroke-linecap="round" stroke-linejoin="round"/>
<path d="M759.527 566.072C754.974 559.276 750.8 551.868 749.778 541.541C748.282 526.388 754.689 514.755 760.886 503.501C765.924 494.354 770.677 485.714 771.046 475.45C771.267 469.191 771.984 462.099 772.742 454.586C775.114 431.235 778.065 402.162 765.66 391.815C759.137 386.377 747.776 385.956 731.883 390.55C731.24 390.74 730.566 390.835 729.87 390.835C728.448 390.835 694.955 390.74 681.033 389.907C678.641 389.76 676.206 389.675 673.73 389.581C660.925 389.117 646.413 388.59 633.798 380.381C613.078 366.915 595.373 339.275 586.426 306.461C580.145 283.437 577.288 270.149 586.383 242.91C591.674 227.062 606.945 190.244 620.382 177.536C632.839 165.776 654.812 165.565 674.204 165.376C680.664 165.312 686.777 165.249 691.488 164.722L694.649 164.364C715.095 162.077 732.758 160.107 751.085 150.686C754.763 148.8 758.367 146.356 762.182 143.774C769.033 139.127 776.125 134.332 784.567 132.151C790.037 130.75 795.296 130.728 800.386 130.707C805.634 130.686 810.598 130.676 814.951 129.032C820.462 126.956 825.173 124.87 829.726 122.846C842.362 117.241 853.28 112.404 871.671 112.362C889.956 112.32 899.082 96.8928 909.642 79.0318C919.159 62.9412 929.835 44.9643 949.195 37.9464C965.035 32.2034 969.018 40.2119 985.649 37.567C1009.96 33.6998 1032.54 19.8431 1046.97 -0.104319C1060.58 -18.8926 1069.85 -44.7831 1092.33 -50.5049" stroke="#ECE7F5" stroke-width="5" stroke-linecap="round" stroke-linejoin="round"/>
<path d="M908.504 -62.1278C895.741 -58.4292 875.391 -57.797 851.847 -60.5578C844.217 -61.4535 839.801 -64.0246 834.216 -67.2806C830.854 -69.2406 827.039 -71.464 822.254 -73.4029C794.073 -84.8255 755.954 -72.2543 745.299 -48.0182C742.317 -41.2321 739.661 -33.7505 736.857 -25.8369C731.219 -9.92539 725.391 6.53409 716.454 18.1569C710.257 26.2075 698.348 31.2339 685.733 36.5553C674.32 41.3709 662.516 46.3445 653.716 54.2476C639.267 67.2297 624.492 110.286 641.491 129.59C648.658 137.715 665.952 140.117 680.295 140.117C687.947 140.117 694.755 139.432 698.717 138.568C708.35 136.471 714.757 131.403 720.417 126.935C725.897 122.593 730.639 118.853 738.206 117.219C742.485 116.303 747.164 115.892 752.128 115.46C760.359 114.743 768.874 114.005 776.684 110.77C793.557 103.784 795.432 94.0581 797.414 83.763C797.719 82.1718 798.046 80.4859 798.447 78.705C802.03 62.783 807.774 54.511 821.179 45.923C823.824 44.2265 829.8 40.4014 832.076 39.9167C832.645 40.5279 833.91 42.3614 836.134 47.746C836.692 49.0843 837.472 53.1096 838.157 56.6501C840.834 70.4331 844.164 87.5354 856.305 87.5354C856.495 87.5354 856.695 87.5354 856.895 87.5249C869.658 86.9558 874.79 70.5912 878.9 57.451C879.975 54.0158 881.082 50.4647 881.841 49.0632C886.109 41.0758 889.566 40.001 897.112 37.6617C900.884 36.492 905.595 35.0273 910.939 32.3508C915.597 30.022 919.264 26.9029 922.816 23.8787C925.44 21.6448 927.927 19.5373 930.562 17.9883C933.945 15.9967 937.665 14.6479 941.575 13.3307C949.785 3.06728 961.588 0.717423 972.254 -6.96437C982.919 -14.6462 993.152 -24.7516 995.197 -37.7337" stroke="#ECE7F5" stroke-width="5" stroke-linecap="round" stroke-linejoin="round"/>
<path d="M832.087 39.8854C832.087 39.8854 852.279 24.564 844.112 14.7747C835.944 4.98547 832.287 16.8717 832.087 39.8854Z" stroke="#ECE7F5" stroke-width="5" stroke-linecap="round" stroke-linejoin="round"/>
<path d="M359.007 56.8192C359.007 56.8192 365.172 31.0868 354.57 29.4535C343.968 27.8202 349.585 51.5505 359.007 56.8192Z" stroke="#ECE7F5" stroke-width="5" stroke-linecap="round" stroke-linejoin="round"/>
<path d="M365.731 342.679H331.764C327.338 342.679 323.755 346.261 323.755 350.687V375.977C323.755 383.638 326.432 391.046 331.311 396.947L343.431 411.572C346.192 414.913 351.314 414.913 354.075 411.572L366.195 396.947C371.074 391.046 373.751 383.638 373.751 375.977V350.687C373.751 346.261 370.168 342.679 365.742 342.679H365.731ZM362.264 372.152C362.264 374.386 360.451 376.198 358.217 376.198H338.931C336.696 376.198 334.884 374.386 334.884 372.152V355.766C334.884 353.532 336.696 351.72 338.931 351.72H358.217C360.451 351.72 362.264 353.532 362.264 355.766V372.152Z" fill="#D90080"/>
<path d="M670.326 249.021H651.84C649.437 249.021 647.488 250.971 647.488 253.373V267.125C647.488 271.287 648.942 275.323 651.598 278.537L658.185 286.493C659.692 288.305 662.474 288.305 663.971 286.493L670.557 278.537C673.213 275.333 674.668 271.298 674.668 267.125V253.373C674.668 250.971 672.718 249.021 670.315 249.021H670.326ZM668.439 265.059C668.439 266.271 667.459 267.262 666.236 267.262H655.74C654.528 267.262 653.537 266.282 653.537 265.059V256.145C653.537 254.933 654.517 253.942 655.74 253.942H666.236C667.448 253.942 668.439 254.922 668.439 256.145V265.059Z" fill="#200020"/>
<path d="M741.136 62.3721H725.886C723.905 62.3721 722.293 63.9843 722.293 65.9653V77.3141C722.293 80.7494 723.494 84.0792 725.686 86.7241L731.124 93.2889C732.368 94.7852 734.665 94.7852 735.898 93.2889L741.336 86.7241C743.529 84.0792 744.73 80.7494 744.73 77.3141V65.9653C744.73 63.9843 743.118 62.3721 741.136 62.3721ZM739.577 75.6071C739.577 76.6081 738.765 77.4195 737.764 77.4195H729.101C728.1 77.4195 727.288 76.6081 727.288 75.6071V68.2519C727.288 67.2509 728.1 66.4395 729.101 66.4395H737.764C738.765 66.4395 739.577 67.2509 739.577 68.2519V75.6071Z" fill="#D90080"/>
<path d="M356.446 206.83H341.197C339.215 206.83 337.603 208.442 337.603 210.423V221.772C337.603 225.207 338.804 228.537 340.996 231.182L346.434 237.747C347.678 239.243 349.975 239.243 351.208 237.747L356.647 231.182C358.839 228.537 360.04 225.207 360.04 221.772V210.423C360.04 208.442 358.428 206.83 356.446 206.83ZM354.887 220.055C354.887 221.056 354.075 221.867 353.074 221.867H344.411C343.41 221.867 342.598 221.056 342.598 220.055V212.699C342.598 211.698 343.41 210.887 344.411 210.887H353.074C354.075 210.887 354.887 211.698 354.887 212.699V220.055Z" fill="#D90080"/>
<path d="M193.357 159.158H170.677C167.727 159.158 165.334 161.55 165.334 164.501V181.382C165.334 186.492 167.115 191.445 170.382 195.386L178.476 205.154C180.32 207.378 183.735 207.378 185.579 205.154L193.673 195.386C196.93 191.445 198.721 186.492 198.721 181.382V164.501C198.721 161.55 196.329 159.158 193.378 159.158H193.357ZM191.039 178.832C191.039 180.317 189.827 181.529 188.341 181.529H175.462C173.976 181.529 172.764 180.317 172.764 178.832V167.894C172.764 166.408 173.976 165.196 175.462 165.196H188.341C189.827 165.196 191.039 166.408 191.039 167.894V178.832Z" fill="#200020"/>
<path d="M95.6828 103.131H84.8805C83.4788 103.131 82.3301 104.269 82.3301 105.681V113.721C82.3301 116.155 83.1837 118.516 84.7329 120.391L88.5902 125.038C89.4649 126.102 91.0984 126.102 91.9731 125.038L95.8304 120.391C97.3796 118.516 98.2332 116.155 98.2332 113.721V105.681C98.2332 104.279 97.095 103.131 95.6828 103.131ZM94.5868 112.499C94.5868 113.205 94.0072 113.784 93.301 113.784H87.1674C86.4613 113.784 85.8817 113.205 85.8817 112.499V107.293C85.8817 106.587 86.4613 106.008 87.1674 106.008H93.301C94.0072 106.008 94.5868 106.587 94.5868 107.293V112.499Z" fill="#200020"/>
</g>
<defs>
<clipPath id="clip0_33_4413">
<rect width="1113" height="1137" fill="white" transform="translate(-18 -300)"/>
</clipPath>
</defs>
</svg>
