<svg width="26" height="14" viewBox="0 0 26 14" fill="none" xmlns="http://www.w3.org/2000/svg">
<path fill-rule="evenodd" clip-rule="evenodd" d="M21.97 8.11C22.05 8.16 22.1 8.24 22.12 8.33L22.4301 9.33C22.4301 9.33 22.45 9.41 22.45 9.45C22.45 9.49 22.4501 9.53 22.4201 9.56C22.3901 9.59 22.38 9.63 22.35 9.66C22.32 9.69 22.29 9.71 22.25 9.72C20.73 10.09 19.2401 10.54 17.7701 11.08C17.7201 11.1 17.67 11.11 17.62 11.11C17.57 11.11 17.52 11.1 17.47 11.07C17.42 11.05 17.38 11.02 17.34 10.98C17.3 10.94 17.28 10.9 17.26 10.85C17.21 10.66 17.17 10.51 17.14 10.37C17.09 10.17 17.05 9.99 16.97 9.74C16.95 9.65 16.97 9.55 17.01 9.47C17.05 9.39 17.13 9.32 17.22 9.29C18.69 8.79 20.19 8.38 21.71 8.06C21.8 8.05 21.89 8.07 21.97 8.12V8.11ZM22.12 5.72C22.1 5.64 22.05 5.57 21.98 5.52C21.91 5.47 21.83 5.44 21.74 5.45C19.3 5.74 16.9201 6.38 14.6701 7.37C14.5901 7.41 14.52 7.48 14.48 7.56C14.44 7.64 14.42 7.74 14.44 7.83V7.85C14.53 8.32 14.5801 8.54 14.6701 9C14.6701 9.04 14.69 9.09 14.71 9.12C14.74 9.16 14.7701 9.19 14.8101 9.21C14.8501 9.23 14.89 9.24 14.94 9.24C14.98 9.24 15.03 9.22 15.07 9.2C17.36 8.18 19.7901 7.47 22.2701 7.08C22.3101 7.08 22.35 7.05 22.38 7.03C22.41 7.01 22.44 6.97 22.46 6.94C22.48 6.9 22.49 6.86 22.49 6.82C22.49 6.78 22.48 6.74 22.46 6.7C22.41 6.56 22.37 6.44 22.33 6.32C22.27 6.13 22.21 5.95 22.12 5.72ZM15.94 5.65C15.94 5.65 15.89 5.57 15.88 5.53C15.82 5.32 15.78 5.17 15.75 5.02C15.71 4.84 15.67 4.67 15.59 4.44C15.57 4.34 15.59 4.24 15.64 4.16C15.69 4.08 15.77 4.01 15.86 3.98C17.36 3.55 18.8901 3.24 20.4301 3.06C20.5201 3.06 20.6001 3.08 20.6701 3.12C20.7401 3.17 20.8 3.24 20.83 3.32C20.9 3.52 20.95 3.67 21.01 3.82C21.06 3.97 21.12 4.12 21.19 4.32C21.21 4.36 21.22 4.4 21.22 4.45C21.22 4.49 21.21 4.54 21.19 4.58C21.17 4.62 21.14 4.65 21.1 4.68C21.06 4.71 21.02 4.72 20.98 4.73C19.4 4.95 17.8301 5.3 16.3001 5.77C16.2601 5.79 16.2101 5.79 16.1701 5.79C16.1301 5.79 16.0801 5.78 16.0401 5.76C16.0001 5.74 15.97 5.71 15.94 5.68V5.65ZM24.21 10.61C24.93 9.55 25.32 8.3 25.33 7.02C25.33 5.29 24.6501 3.63 23.4301 2.4C22.2101 1.17 20.56 0.480001 18.83 0.470001C17.55 0.470001 16.29 0.850001 15.23 1.56C14.17 2.27 13.33 3.28 12.84 4.47C12.35 5.65 12.22 6.96 12.46 8.22C12.71 9.48 13.32 10.64 14.22 11.54C15.12 12.45 16.2801 13.07 17.5301 13.33C18.7901 13.59 20.0901 13.46 21.2801 12.98C22.4701 12.5 23.48 11.67 24.2 10.61H24.21Z" fill="#200020"/>
<path d="M6.76001 12.22L7.05005 11.5L5.33997 7.06999H6.07996L7.43005 10.72L8.85999 7.06999H9.59998L7.40002 12.42C7.26002 12.78 7.09002 13.03 6.90002 13.17C6.71002 13.32 6.45001 13.4 6.13 13.4C6.07 13.4 6.00005 13.4 5.93005 13.38C5.86005 13.38 5.77995 13.36 5.69995 13.33V12.74C5.78995 12.76 5.86003 12.77 5.91003 12.77C5.96003 12.77 6.02006 12.77 6.06006 12.77C6.23006 12.77 6.36998 12.72 6.47998 12.63C6.59998 12.55 6.69002 12.4 6.77002 12.2L6.76001 12.22ZM2.65002 7.6C2.39002 7.6 2.15004 7.65 1.92004 7.76C1.70004 7.86 1.52 8.00999 1.38 8.20999V10.38C1.53 10.57 1.71005 10.73 1.93005 10.83C2.15005 10.94 2.39002 10.99 2.65002 10.99C3.09002 10.99 3.46001 10.83 3.76001 10.51C4.06001 10.18 4.20996 9.78 4.20996 9.29C4.20996 8.8 4.06001 8.4 3.76001 8.08C3.46001 7.75 3.09002 7.59 2.65002 7.59V7.6ZM4.85999 9.29C4.85999 9.61 4.80995 9.91 4.69995 10.19C4.59995 10.47 4.45001 10.71 4.26001 10.92C4.07001 11.12 3.84998 11.28 3.59998 11.4C3.34998 11.52 3.07003 11.57 2.78003 11.57C2.49003 11.57 2.24 11.52 2 11.41C1.76 11.29 1.56 11.13 1.38 10.93V11.51H0.72998V5.01L1.39001 4.87V7.68C1.56001 7.47 1.77001 7.30999 2.01001 7.2C2.25001 7.08 2.51995 7.02 2.81995 7.02C3.11995 7.02 3.37 7.08 3.62 7.2C3.87 7.31999 4.09002 7.48 4.27002 7.68C4.45002 7.88 4.58995 8.11999 4.69995 8.39999C4.80995 8.67999 4.85999 8.98 4.85999 9.29Z" fill="#200020"/>
</svg>
