<svg width="375" height="300" viewBox="0 0 375 300" fill="none" xmlns="http://www.w3.org/2000/svg">
<g clip-path="url(#clip0_2947_10224)">
<rect width="375" height="300" fill="white"/>
<rect y="92" width="375" height="209" fill="#200020"/>
<path d="M-13.2963 307.878L-367.988 139.419C-374.886 136.142 -377.451 127.826 -373.786 120.617L-128.249 -362.411C-125.842 -367.143 -121.184 -370.475 -115.989 -371.169L343.332 -432.948C350.432 -433.905 356.786 -429.752 358.433 -423.088L459.534 -13.8997C461.018 -7.89656 458.3 -1.30081 452.814 2.39674L1.54754 306.473C-2.99928 309.537 -8.67395 310.078 -13.2918 307.883L-13.2963 307.878Z" fill="#DA0081"/>
<path d="M-164.519 205.231L-404.058 -99.8659C-408.716 -105.8 -407.454 -114.708 -401.205 -120.006L17.4881 -474.953C21.5907 -478.43 27.0743 -479.658 31.9161 -478.174L460.163 -347.375C466.783 -345.354 470.596 -338.817 469.228 -331.847L385.199 96.1163C383.967 102.395 378.806 107.504 372.443 108.736L-150.929 210.017C-156.202 211.037 -161.399 209.212 -164.517 205.238L-164.519 205.231Z" fill="#ECE7F5"/>
<g clip-path="url(#clip1_2947_10224)">
<path d="M276.631 224.913H247.435" stroke="#D90080" stroke-width="3" stroke-linecap="round" stroke-linejoin="round"/>
<path d="M307.996 224.913H320.008" stroke="#D90080" stroke-width="3" stroke-linecap="round" stroke-linejoin="round"/>
<path d="M247.435 250.135H287.499" stroke="#D90080" stroke-width="3" stroke-linecap="round" stroke-linejoin="round"/>
<path d="M275.277 255.179H251.74V272.146H275.277V255.179Z" fill="#020002" stroke="#D90080" stroke-width="3" stroke-linecap="round" stroke-linejoin="round"/>
<path d="M268.94 255.179H258.53V263.89H268.94V255.179Z" fill="#020002" stroke="#D90080" stroke-width="3" stroke-linecap="round" stroke-linejoin="round"/>
<path d="M258.983 229.5H249.477V250.135H258.983V229.5Z" fill="#020002" stroke="#D90080" stroke-width="3" stroke-linecap="round" stroke-linejoin="round"/>
<path d="M270.752 240.047H258.983V250.135H270.752V240.047Z" fill="#020002" stroke="#D90080" stroke-width="3" stroke-linecap="round" stroke-linejoin="round"/>
<path d="M257.652 170.344H304.669C306.184 170.344 307.415 171.592 307.415 173.126V182.267H254.909V173.126C254.909 171.592 256.14 170.344 257.655 170.344H257.652Z" stroke="#ECE7F5" stroke-width="3" stroke-linecap="round" stroke-linejoin="round"/>
<path d="M330.045 204.278H231.826L245.857 182.267H316.918L330.045 204.278Z" stroke="#ECE7F5" stroke-width="3" stroke-linecap="round" stroke-linejoin="round"/>
<path d="M231.753 203.656C231.906 210.61 237.452 216.201 244.275 216.201C251.099 216.201 256.644 210.61 256.798 203.656H231.753Z" stroke="#ECE7F5" stroke-width="3" stroke-linecap="round" stroke-linejoin="round"/>
<path d="M256.364 203.818C256.518 210.772 262.063 216.363 268.887 216.363C275.71 216.363 281.256 210.772 281.409 203.818H256.364Z" stroke="#ECE7F5" stroke-width="3" stroke-linecap="round" stroke-linejoin="round"/>
<path d="M281.423 203.818C281.576 210.772 287.122 216.363 293.945 216.363C300.769 216.363 306.314 210.772 306.468 203.818H281.423Z" stroke="#ECE7F5" stroke-width="3" stroke-linecap="round" stroke-linejoin="round"/>
<path d="M305.14 203.818C305.293 210.772 310.839 216.363 317.662 216.363C324.486 216.363 330.032 210.772 330.185 203.818H305.14Z" stroke="#ECE7F5" stroke-width="3" stroke-linecap="round" stroke-linejoin="round"/>
<path d="M264.866 182.267L256.718 203.818" stroke="#ECE7F5" stroke-width="3" stroke-linecap="round" stroke-linejoin="round"/>
<path d="M281.162 182.267L281.613 203.818" stroke="#ECE7F5" stroke-width="3" stroke-linecap="round" stroke-linejoin="round"/>
<path d="M299.267 182.267L305.604 203.818" stroke="#ECE7F5" stroke-width="3" stroke-linecap="round" stroke-linejoin="round"/>
<path d="M306.501 249.956C306.358 242.485 300.338 236.471 292.928 236.471C285.517 236.471 279.497 242.485 279.354 249.956H306.498H306.501Z" fill="#020002" stroke="#D90080" stroke-width="3" stroke-linecap="round" stroke-linejoin="round"/>
<path d="M298.533 233.009C297.129 234.517 295.14 235.46 292.931 235.46C288.68 235.46 285.237 231.971 285.237 227.665C285.237 223.358 288.68 219.869 292.931 219.869C297.182 219.869 300.625 223.358 300.625 227.665C300.625 229.733 299.831 231.613 298.533 233.009Z" fill="#020002"/>
<path d="M337.195 244.175H290.308C288.257 244.175 286.594 245.86 286.594 247.938V272.054C286.594 274.132 288.257 275.817 290.308 275.817H337.195C339.246 275.817 340.909 274.132 340.909 272.054V247.938C340.909 245.86 339.246 244.175 337.195 244.175Z" fill="#020002" stroke="#D90080" stroke-width="3" stroke-linecap="round" stroke-linejoin="round"/>
<path d="M244.599 222.911H242.263V226.292H244.599V222.911Z" fill="#D90080"/>
<path d="M244.766 248.773H242.43V252.153H244.766V248.773Z" fill="#D90080"/>
<path d="M298.533 233.009C297.129 234.517 295.14 235.46 292.931 235.46C288.68 235.46 285.237 231.971 285.237 227.665C285.237 223.358 288.68 219.869 292.931 219.869C297.182 219.869 300.625 223.358 300.625 227.665" stroke="#D90080" stroke-width="3" stroke-linecap="round" stroke-linejoin="round"/>
<path d="M323.708 214.768V236.467" stroke="#ECE7F5" stroke-width="3" stroke-linecap="round" stroke-linejoin="round"/>
<path d="M280.936 272.146H239.521V215.241" stroke="#ECE7F5" stroke-width="3" stroke-linecap="round" stroke-linejoin="round"/>
<path d="M255.493 169.283C255.5 170.091 254.709 170.682 253.948 170.439C250.471 169.327 244.679 163.891 248.67 161.166C252.307 158.681 255.46 165.426 255.493 169.283Z" stroke="#ECE7F5" stroke-width="3" stroke-linecap="round" stroke-linejoin="round"/>
<path d="M217.422 268.555L216.087 267.785C215.903 267.68 215.84 267.44 215.943 267.254L216.427 266.395L222.283 255.98L222.81 255.043C222.914 254.858 223.151 254.793 223.334 254.898L224.669 255.669C224.852 255.774 224.916 256.014 224.812 256.2L224.285 257.136L218.429 267.551L217.945 268.41C217.842 268.596 217.605 268.66 217.422 268.555Z" fill="#EDE8F6"/>
<path d="M224.873 263.43L224.113 264.782C224.009 264.968 224.073 265.206 224.257 265.312L225.831 266.22C226.016 266.327 226.25 266.261 226.355 266.075L227.114 264.724C227.219 264.537 227.155 264.3 226.971 264.193L225.396 263.285C225.212 263.179 224.978 263.244 224.873 263.43Z" fill="#EDE8F6"/>
<path d="M222.997 264.13L223.758 262.778C223.861 262.592 223.798 262.356 223.614 262.247L222.667 261.703L215.847 257.768L214.922 257.234C214.739 257.129 214.505 257.193 214.398 257.379L213.638 258.732C213.534 258.918 213.598 259.154 213.781 259.262L214.705 259.796L221.526 263.731L222.473 264.276C222.657 264.38 222.89 264.316 222.997 264.13Z" fill="#EDE8F6"/>
<path d="M343.795 177.19C345.774 173.576 344.483 169.022 340.919 167.021C344.486 169.026 348.981 167.718 350.956 164.107C348.977 167.721 350.269 172.275 353.832 174.276C350.265 172.271 345.771 173.579 343.795 177.19Z" stroke="#D90080" stroke-width="3" stroke-linecap="round" stroke-linejoin="round"/>
<path d="M216.876 195.083C218.855 191.469 217.564 186.915 214 184.914C217.567 186.919 222.061 185.61 224.037 182C222.058 185.614 223.349 190.167 226.913 192.169C223.346 190.164 218.852 191.472 216.876 195.083Z" stroke="#ECE7F5" stroke-width="3" stroke-linecap="round" stroke-linejoin="round"/>
<path d="M313.784 270.817V268.21H316.435V270.817H313.784ZM313.784 253.217V250.61H316.435V253.217H313.784ZM315.17 268.958C314.055 268.958 313.058 268.752 312.178 268.342C311.298 267.931 310.575 267.352 310.011 266.604C309.453 265.856 309.098 264.968 308.944 263.942L311.562 263.524C311.767 264.426 312.207 265.144 312.882 265.68C313.564 266.208 314.378 266.472 315.324 266.472C316.233 266.472 316.981 266.259 317.568 265.834C318.154 265.401 318.448 264.855 318.448 264.195C318.448 263.733 318.308 263.359 318.03 263.073C317.751 262.779 317.304 262.537 316.688 262.347L312.871 261.159C310.649 260.469 309.538 259.12 309.538 257.111C309.538 256.172 309.761 255.354 310.209 254.658C310.663 253.954 311.301 253.415 312.123 253.041C312.944 252.659 313.912 252.472 315.027 252.48C316.061 252.487 316.981 252.674 317.788 253.041C318.602 253.407 319.276 253.935 319.812 254.625C320.354 255.314 320.739 256.143 320.967 257.111L318.25 257.606C318.147 257.085 317.945 256.627 317.645 256.231C317.344 255.835 316.966 255.527 316.512 255.307C316.057 255.087 315.551 254.969 314.994 254.955C314.458 254.947 313.978 255.032 313.553 255.208C313.127 255.376 312.79 255.618 312.541 255.934C312.291 256.242 312.167 256.59 312.167 256.979C312.167 257.411 312.339 257.782 312.684 258.09C313.036 258.398 313.589 258.662 314.345 258.882L317.194 259.707C318.565 260.103 319.551 260.642 320.153 261.324C320.761 261.998 321.066 262.897 321.066 264.019C321.066 265.001 320.82 265.863 320.329 266.604C319.837 267.344 319.148 267.924 318.261 268.342C317.373 268.752 316.343 268.958 315.17 268.958Z" fill="#D90080"/>
</g>
</g>
<defs>
<clipPath id="clip0_2947_10224">
<rect width="375" height="300" fill="white"/>
</clipPath>
<clipPath id="clip1_2947_10224">
<rect width="159" height="122" fill="white" transform="translate(196 155)"/>
</clipPath>
</defs>
</svg>
