<svg width="1440" height="346" viewBox="0 0 1440 346" fill="none" xmlns="http://www.w3.org/2000/svg">
<g clip-path="url(#clip0_2947_10151)">
<rect width="1440" height="346" fill="white"/>
<rect x="862" width="577" height="349" fill="#200020"/>
<path d="M2.37594 530.834L-220.402 34.0513C-224.733 24.3896 -219.969 13.3019 -209.631 8.98517L483.09 -280.265C489.877 -283.097 497.782 -282.428 503.884 -278.49L1043.76 69.2643C1052.11 74.6384 1055.08 84.7366 1050.84 93.2536L789.991 616.209C786.166 623.882 777.376 628.402 768.27 627.374L19.2914 542.698C11.7453 541.844 5.27421 537.314 2.37594 530.844L2.37594 530.834Z" fill="#DA0081"/>
<path d="M1127.61 358.652L1107.6 353.88C1104.84 353.222 1103.18 350.628 1103.89 348.087L1110.01 326.348C1110.73 323.806 1113.54 322.28 1116.3 322.938L1136.32 327.71C1139.08 328.368 1140.74 330.962 1140.03 333.503L1133.91 355.242C1133.19 357.784 1130.38 359.31 1127.61 358.652Z" fill="#200020"/>
<path d="M-28.2763 425.654L-6.89804 -111.444C-6.48128 -121.89 2.85285 -130.155 14.2052 -130.13L774.838 -128.457C782.29 -128.439 789.179 -124.808 792.954 -118.893L1127.26 403.851C1132.43 411.931 1130.58 422.254 1122.88 428.378L649.733 804.408C642.792 809.925 632.757 810.678 624.937 806.261L-18.2383 442.913C-24.7182 439.251 -28.562 432.656 -28.2806 425.662L-28.2763 425.654Z" fill="#ECE7F5"/>
<g clip-path="url(#clip1_2947_10151)">
<path d="M1240.25 190.106H1182.22" stroke="#D90080" stroke-width="5" stroke-linecap="round" stroke-linejoin="round"/>
<path d="M1302.58 190.106H1326.46" stroke="#D90080" stroke-width="5" stroke-linecap="round" stroke-linejoin="round"/>
<path d="M1182.22 239.93H1261.85" stroke="#D90080" stroke-width="5" stroke-linecap="round" stroke-linejoin="round"/>
<path d="M1237.56 249.894H1190.78V283.41H1237.56V249.894Z" fill="#020002" stroke="#D90080" stroke-width="5" stroke-linecap="round" stroke-linejoin="round"/>
<path d="M1224.96 249.894H1204.27V267.103H1224.96V249.894Z" fill="#020002" stroke="#D90080" stroke-width="5" stroke-linecap="round" stroke-linejoin="round"/>
<path d="M1205.17 199.168H1186.28V239.93H1205.17V199.168Z" fill="#020002" stroke="#D90080" stroke-width="5" stroke-linecap="round" stroke-linejoin="round"/>
<path d="M1228.56 220.003H1205.17V239.93H1228.56V220.003Z" fill="#020002" stroke="#D90080" stroke-width="5" stroke-linecap="round" stroke-linejoin="round"/>
<path d="M1202.53 82.3111H1295.97C1298.98 82.3111 1301.43 84.7753 1301.43 87.8071V105.864H1197.08V87.8071C1197.08 84.7753 1199.52 82.3111 1202.54 82.3111H1202.53Z" stroke="#ECE7F5" stroke-width="5" stroke-linecap="round" stroke-linejoin="round"/>
<path d="M1346.4 149.344H1151.2L1179.09 105.864H1320.32L1346.4 149.344Z" stroke="#ECE7F5" stroke-width="5" stroke-linecap="round" stroke-linejoin="round"/>
<path d="M1151.06 148.116C1151.36 161.852 1162.38 172.897 1175.94 172.897C1189.5 172.897 1200.53 161.852 1200.83 148.116H1151.06Z" stroke="#ECE7F5" stroke-width="5" stroke-linecap="round" stroke-linejoin="round"/>
<path d="M1199.97 148.436C1200.27 162.173 1211.3 173.218 1224.86 173.218C1238.42 173.218 1249.44 162.173 1249.74 148.436H1199.97Z" stroke="#ECE7F5" stroke-width="5" stroke-linecap="round" stroke-linejoin="round"/>
<path d="M1249.77 148.436C1250.08 162.173 1261.1 173.218 1274.66 173.218C1288.22 173.218 1299.24 162.173 1299.55 148.436H1249.77Z" stroke="#ECE7F5" stroke-width="5" stroke-linecap="round" stroke-linejoin="round"/>
<path d="M1296.91 148.436C1297.21 162.173 1308.23 173.218 1321.79 173.218C1335.36 173.218 1346.38 162.173 1346.68 148.436H1296.91Z" stroke="#ECE7F5" stroke-width="5" stroke-linecap="round" stroke-linejoin="round"/>
<path d="M1216.87 105.864L1200.67 148.436" stroke="#ECE7F5" stroke-width="5" stroke-linecap="round" stroke-linejoin="round"/>
<path d="M1249.25 105.864L1250.15 148.436" stroke="#ECE7F5" stroke-width="5" stroke-linecap="round" stroke-linejoin="round"/>
<path d="M1285.24 105.864L1297.83 148.436" stroke="#ECE7F5" stroke-width="5" stroke-linecap="round" stroke-linejoin="round"/>
<path d="M1299.61 239.577C1299.33 224.818 1287.36 212.938 1272.64 212.938C1257.91 212.938 1245.94 224.818 1245.66 239.577H1299.61H1299.61Z" fill="#020002" stroke="#D90080" stroke-width="5" stroke-linecap="round" stroke-linejoin="round"/>
<path d="M1283.78 206.1C1280.98 209.078 1277.03 210.942 1272.64 210.942C1264.19 210.942 1257.35 204.05 1257.35 195.542C1257.35 187.035 1264.19 180.143 1272.64 180.143C1281.09 180.143 1287.93 187.035 1287.93 195.542C1287.93 199.629 1286.36 203.342 1283.78 206.1Z" fill="#020002"/>
<path d="M1360.61 228.157H1267.43C1263.35 228.157 1260.05 231.485 1260.05 235.59V283.23C1260.05 287.335 1263.35 290.663 1267.43 290.663H1360.61C1364.69 290.663 1368 287.335 1368 283.23V235.59C1368 231.485 1364.69 228.157 1360.61 228.157Z" fill="#020002" stroke="#D90080" stroke-width="5" stroke-linecap="round" stroke-linejoin="round"/>
<path d="M1176.59 186.153H1171.94V192.831H1176.59V186.153Z" fill="#D90080"/>
<path d="M1176.92 237.239H1172.28V243.917H1176.92V237.239Z" fill="#D90080"/>
<path d="M1283.78 206.1C1280.98 209.078 1277.03 210.942 1272.64 210.942C1264.19 210.942 1257.35 204.05 1257.35 195.542C1257.35 187.035 1264.19 180.143 1272.64 180.143C1281.09 180.143 1287.93 187.035 1287.93 195.542" stroke="#D90080" stroke-width="5" stroke-linecap="round" stroke-linejoin="round"/>
<path d="M1333.81 170.066V212.932" stroke="#ECE7F5" stroke-width="5" stroke-linecap="round" stroke-linejoin="round"/>
<path d="M1248.8 283.41H1166.49V171.001" stroke="#ECE7F5" stroke-width="5" stroke-linecap="round" stroke-linejoin="round"/>
<path d="M1198.24 80.2143C1198.25 81.8103 1196.68 82.9789 1195.17 82.4981C1188.26 80.3011 1176.75 69.563 1184.68 64.1805C1191.91 59.2723 1198.17 72.5947 1198.24 80.2143Z" stroke="#ECE7F5" stroke-width="5" stroke-linecap="round" stroke-linejoin="round"/>
<path d="M1122.57 276.319L1119.92 274.796C1119.56 274.589 1119.43 274.115 1119.64 273.747L1120.6 272.051L1132.24 251.477L1133.28 249.627C1133.49 249.26 1133.96 249.133 1134.32 249.34L1136.98 250.862C1137.34 251.069 1137.47 251.543 1137.26 251.911L1136.21 253.76L1124.58 274.335L1123.61 276.031C1123.41 276.399 1122.94 276.526 1122.57 276.319Z" fill="#EDE8F6"/>
<path d="M1137.38 266.194L1135.87 268.864C1135.66 269.232 1135.79 269.701 1136.16 269.911L1139.29 271.706C1139.65 271.916 1140.12 271.787 1140.33 271.418L1141.84 268.749C1142.05 268.38 1141.92 267.911 1141.55 267.702L1138.42 265.907C1138.06 265.697 1137.59 265.826 1137.38 266.194Z" fill="#EDE8F6"/>
<path d="M1133.65 267.577L1135.17 264.906C1135.37 264.539 1135.25 264.071 1134.88 263.857L1133 262.782L1119.44 255.009L1117.61 253.954C1117.24 253.747 1116.78 253.874 1116.57 254.241L1115.05 256.912C1114.85 257.28 1114.97 257.747 1115.34 257.961L1117.18 259.016L1130.73 266.789L1132.61 267.864C1132.98 268.071 1133.44 267.944 1133.65 267.577Z" fill="#EDE8F6"/>
<path d="M1111.05 102.939C1108.51 89.5166 1095.64 80.7151 1082.32 83.2728C1095.65 80.7151 1104.39 67.7599 1101.85 54.3439C1104.39 67.7666 1117.26 76.5681 1130.58 74.0105C1117.25 76.5681 1108.51 89.5233 1111.05 102.939Z" stroke="#ECE7F5" stroke-width="5" stroke-linecap="round" stroke-linejoin="round"/>
<path d="M1373.73 95.834C1377.66 88.6953 1375.1 79.7001 1368.02 75.7467C1375.1 79.7068 1384.04 77.1224 1387.96 69.9904C1384.03 77.1291 1386.6 86.1242 1393.68 90.0776C1386.59 86.1176 1377.66 88.7019 1373.73 95.834Z" stroke="#D90080" stroke-width="5" stroke-linecap="round" stroke-linejoin="round"/>
<path d="M1310.93 282.975V277.05H1316.95V282.975H1310.93ZM1310.93 242.975V237.05H1316.95V242.975H1310.93ZM1314.08 278.75C1311.54 278.75 1309.28 278.283 1307.28 277.35C1305.28 276.417 1303.63 275.1 1302.35 273.4C1301.08 271.7 1300.28 269.683 1299.93 267.35L1305.88 266.4C1306.34 268.45 1307.34 270.083 1308.88 271.3C1310.43 272.5 1312.27 273.1 1314.43 273.1C1316.49 273.1 1318.19 272.617 1319.53 271.65C1320.86 270.667 1321.53 269.425 1321.53 267.925C1321.53 266.875 1321.21 266.025 1320.58 265.375C1319.94 264.708 1318.93 264.158 1317.53 263.725L1308.85 261.025C1303.8 259.458 1301.28 256.392 1301.28 251.825C1301.28 249.692 1301.78 247.833 1302.8 246.25C1303.83 244.65 1305.28 243.425 1307.15 242.575C1309.02 241.708 1311.22 241.283 1313.75 241.3C1316.1 241.317 1318.19 241.742 1320.03 242.575C1321.88 243.408 1323.41 244.608 1324.63 246.175C1325.86 247.742 1326.73 249.625 1327.25 251.825L1321.08 252.95C1320.84 251.767 1320.38 250.725 1319.7 249.825C1319.02 248.925 1318.16 248.225 1317.13 247.725C1316.09 247.225 1314.94 246.958 1313.68 246.925C1312.46 246.908 1311.37 247.1 1310.4 247.5C1309.43 247.883 1308.67 248.433 1308.1 249.15C1307.53 249.85 1307.25 250.642 1307.25 251.525C1307.25 252.508 1307.64 253.35 1308.43 254.05C1309.23 254.75 1310.48 255.35 1312.2 255.85L1318.68 257.725C1321.79 258.625 1324.03 259.85 1325.4 261.4C1326.78 262.933 1327.48 264.975 1327.48 267.525C1327.48 269.758 1326.92 271.717 1325.8 273.4C1324.68 275.083 1323.12 276.4 1321.1 277.35C1319.08 278.283 1316.74 278.75 1314.08 278.75Z" fill="#D90080"/>
</g>
</g>
<defs>
<clipPath id="clip0_2947_10151">
<rect width="1440" height="346" fill="white"/>
</clipPath>
<clipPath id="clip1_2947_10151">
<rect width="316" height="241" fill="white" transform="translate(1080 52)"/>
</clipPath>
</defs>
</svg>
