<svg width="163" height="80" viewBox="0 0 163 80" fill="none" xmlns="http://www.w3.org/2000/svg">
<g clip-path="url(#clip0_159_394)">
<path d="M137.887 80.8976C169.04 49.7446 169.04 -0.764381 137.887 -31.9174C106.734 -63.0704 56.225 -63.0704 25.072 -31.9174C-6.08105 -0.764389 -6.08105 49.7446 25.072 80.8976C56.225 112.051 106.734 112.051 137.887 80.8976Z" stroke="#200020" stroke-width="1.75" stroke-linecap="round" stroke-linejoin="round"/>
<path d="M81.4901 -55.2624C81.4901 -55.2624 76.1983 -40.7691 68.0236 -35.1021C59.8489 -29.4351 64.5681 -24.4197 61.7445 -22.8401C58.9209 -21.2605 47.2907 -12.4737 44.1512 -12.4737C41.0116 -12.4737 33.7847 -9.01817 34.1007 -4.29897C34.4166 0.420229 32.6395 7.42992 24.3661 2.92792C9.9123 -4.93083 19.9628 -13.7374 23.7342 -10.5781C27.5056 -7.43852 27.5056 16.7696 32.5408 21.1729C37.5759 25.5761 55.1692 23.6806 63.6598 31.5393C72.1505 39.3981 104.829 43.8013 107.653 51.976C110.477 60.1507 94.1471 67.6935 89.4279 78.6918C84.7087 89.6901 84.294 102.742 69.5045 103.374" stroke="#200020" stroke-width="1.75" stroke-linecap="round" stroke-linejoin="round"/>
<path d="M56.0973 99.4049C56.0973 99.4049 51.3781 95.6335 52.9577 86.5111C54.5374 77.3886 35.3644 69.8458 32.521 58.8475C29.6974 47.8492 30.0133 35.9031 23.3985 30.8679C16.8035 25.8328 2.96183 21.4295 2.6459 12.9587" stroke="#200020" stroke-width="1.75" stroke-linecap="round" stroke-linejoin="round"/>
<path d="M145.031 -23.1758C145.031 -23.1758 117.23 -19.2464 114.228 -12.4934C108.739 -0.1524 115.65 19.3365 125.543 23.3449C129.847 25.0825 151.942 23.0289 149.119 18.6257C146.295 14.2224 137.489 12.3466 138.121 40.3063C138.752 68.2859 141.892 75.5128 141.892 75.5128" stroke="#200020" stroke-width="1.75" stroke-linecap="round" stroke-linejoin="round"/>
<path d="M54.7892 65.7542V62.2442H57.9242V65.7542H54.7892ZM54.7892 41.7092V38.1842H57.9242V41.7092H54.7892ZM56.5142 63.2192C55.0142 63.2192 53.6742 62.9492 52.4942 62.4092C51.3142 61.8692 50.3442 61.1042 49.5842 60.1142C48.8342 59.1142 48.3442 57.9342 48.1142 56.5742L51.2192 56.0792C51.5192 57.3592 52.1592 58.3792 53.1392 59.1392C54.1192 59.8892 55.2942 60.2642 56.6642 60.2642C58.0242 60.2642 59.1292 59.9392 59.9792 59.2892C60.8392 58.6392 61.2692 57.8092 61.2692 56.7992C61.2692 56.0792 61.0492 55.4942 60.6092 55.0442C60.1792 54.5942 59.4742 54.2142 58.4942 53.9042L53.4242 52.3442C50.4242 51.4142 48.9242 49.6142 48.9242 46.9442C48.9242 45.6842 49.2242 44.5892 49.8242 43.6592C50.4342 42.7292 51.2892 42.0092 52.3892 41.4992C53.4892 40.9892 54.7742 40.7342 56.2442 40.7342C57.6542 40.7542 58.9042 41.0142 59.9942 41.5142C61.0942 42.0142 62.0042 42.7342 62.7242 43.6742C63.4542 44.6142 63.9592 45.7442 64.2392 47.0642L61.0442 47.6342C60.9042 46.8642 60.6092 46.1842 60.1592 45.5942C59.7192 45.0042 59.1592 44.5442 58.4792 44.2142C57.8092 43.8842 57.0542 43.7142 56.2142 43.7042C55.4242 43.6842 54.7142 43.8092 54.0842 44.0792C53.4642 44.3392 52.9692 44.7092 52.5992 45.1892C52.2392 45.6592 52.0592 46.1942 52.0592 46.7942C52.0592 47.4542 52.3142 48.0142 52.8242 48.4742C53.3342 48.9342 54.1392 49.3292 55.2392 49.6592L59.2142 50.8142C61.0342 51.3542 62.3492 52.0792 63.1592 52.9892C63.9692 53.8992 64.3742 55.1092 64.3742 56.6192C64.3742 57.9392 64.0442 59.0942 63.3842 60.0842C62.7342 61.0642 61.8192 61.8342 60.6392 62.3942C59.4592 62.9442 58.0842 63.2192 56.5142 63.2192Z" fill="#200020"/>
</g>
<defs>
<clipPath id="clip0_159_394">
<rect width="163" height="163" fill="white" transform="translate(0 -57)"/>
</clipPath>
</defs>
</svg>
