<svg width="112" height="121" viewBox="0 0 112 121" fill="none" xmlns="http://www.w3.org/2000/svg">
<g clip-path="url(#clip0_160_918)">
<path d="M102.387 102.38C125.514 79.2531 125.514 41.7568 102.387 18.6297C79.2595 -4.49737 41.7631 -4.49737 18.6361 18.6297C-4.49101 41.7567 -4.49101 79.2531 18.6361 102.38C41.7631 125.507 79.2595 125.507 102.387 102.38Z" stroke="#200020" stroke-width="2.6" stroke-linecap="round" stroke-linejoin="round"/>
<path d="M60.5049 1.28439C60.5049 1.28439 56.5727 12.0437 50.5064 16.2427C44.4401 20.4417 47.9376 24.1763 45.8431 25.3421C43.7386 26.508 35.1134 33.0386 32.7817 33.0386C30.4501 33.0386 25.0852 35.6074 25.3125 39.1049C25.5496 42.6024 24.2257 47.8092 18.0803 44.4697C7.3507 38.6406 14.8101 32.1 17.616 34.4416C20.412 36.7732 20.412 54.7449 24.1467 58.0053C27.8813 61.2756 40.9426 59.8726 47.246 65.7018C53.5494 71.531 77.8146 74.8012 79.9092 80.8675C82.0136 86.9338 69.881 92.5358 66.3736 100.697C62.8761 108.867 62.56 118.55 51.5932 119.014" stroke="#200020" stroke-width="2.6" stroke-linecap="round" stroke-linejoin="round"/>
<path d="M41.6441 116.109C41.6441 116.109 38.1466 113.313 39.3124 106.546C40.4782 99.7778 26.2511 94.1759 24.1467 86.015C22.0422 77.8443 22.2793 68.982 17.3789 65.2473C12.4784 61.5127 2.21312 58.2523 1.976 51.9489" stroke="#200020" stroke-width="2.6" stroke-linecap="round" stroke-linejoin="round"/>
<path d="M78.358 4.12983C78.358 4.12983 68.9424 17.4184 72.4399 20.4515C75.9375 23.4847 91.1032 19.5228 96.7051 14.1481" stroke="#200020" stroke-width="2.6" stroke-linecap="round" stroke-linejoin="round"/>
<path d="M107.672 25.1149C107.672 25.1149 87.0327 28.0295 84.8097 33.0485C80.7391 42.2171 85.8767 56.6814 93.2076 59.6454C96.3989 60.9397 112.81 59.4083 110.705 56.1479C108.601 52.8875 102.07 51.4845 102.534 72.2424C102.999 93.0101 105.33 98.3749 105.33 98.3749" stroke="#200020" stroke-width="2.6" stroke-linecap="round" stroke-linejoin="round"/>
<path d="M41.964 91.718V89.378H44.054V91.718H41.964ZM41.964 75.688V73.338H44.054V75.688H41.964ZM43.114 90.028C42.114 90.028 41.2207 89.848 40.434 89.488C39.6473 89.128 39.0007 88.618 38.494 87.958C37.994 87.2913 37.6673 86.5047 37.514 85.598L39.584 85.268C39.784 86.1213 40.2107 86.8013 40.864 87.308C41.5173 87.808 42.3007 88.058 43.214 88.058C44.1207 88.058 44.8573 87.8413 45.424 87.408C45.9973 86.9747 46.284 86.4213 46.284 85.748C46.284 85.268 46.1373 84.878 45.844 84.578C45.5573 84.278 45.0873 84.0247 44.434 83.818L41.054 82.778C39.054 82.158 38.054 80.958 38.054 79.178C38.054 78.338 38.254 77.608 38.654 76.988C39.0607 76.368 39.6307 75.888 40.364 75.548C41.0973 75.208 41.954 75.038 42.934 75.038C43.874 75.0513 44.7073 75.2247 45.434 75.558C46.1673 75.8913 46.774 76.3713 47.254 76.998C47.7407 77.6247 48.0773 78.378 48.264 79.258L46.134 79.638C46.0407 79.1247 45.844 78.6713 45.544 78.278C45.2507 77.8847 44.8773 77.578 44.424 77.358C43.9773 77.138 43.474 77.0247 42.914 77.018C42.3873 77.0047 41.914 77.088 41.494 77.268C41.0807 77.4413 40.7507 77.688 40.504 78.008C40.264 78.3213 40.144 78.678 40.144 79.078C40.144 79.518 40.314 79.8913 40.654 80.198C40.994 80.5047 41.5307 80.768 42.264 80.988L44.914 81.758C46.1273 82.118 47.004 82.6013 47.544 83.208C48.084 83.8147 48.354 84.6213 48.354 85.628C48.354 86.508 48.134 87.278 47.694 87.938C47.2607 88.5913 46.6507 89.1047 45.864 89.478C45.0773 89.8447 44.1607 90.028 43.114 90.028Z" fill="#D40080"/>
</g>
<defs>
<clipPath id="clip0_160_918">
<rect width="121" height="121" fill="white"/>
</clipPath>
</defs>
</svg>
