<svg width="629" height="421" viewBox="0 0 629 421" fill="none" xmlns="http://www.w3.org/2000/svg">
<path d="M279.41 185.47L276.47 223.38C276.44 223.82 276.7 224.23 277.11 224.39C277.23 224.43 277.35 224.45 277.46 224.45C277.77 224.45 278.06 224.31 278.26 224.05L291.91 206.05L310.81 222.61L245.28 278.51L256.95 189.64L279.4 185.47M280.51 184.25L256.07 188.79L243.97 280.96L312.36 222.62L291.78 204.6L277.48 223.46L280.52 184.25H280.51Z" fill="#DA0081"/>
<path d="M481.44 233.47L514.24 270.6L522.97 320.71L479.61 339.53L452.57 315.28L464.38 281.53L483.9 303.05C484.08 303.25 484.33 303.37 484.6 303.38C484.61 303.38 484.63 303.38 484.64 303.38C484.89 303.38 485.13 303.29 485.32 303.11L496.06 293.17C496.46 292.8 496.49 292.18 496.13 291.78L471 263.19L481.43 233.47M481.06 231.53L469.87 263.41L495.39 292.44L484.65 302.38L464 279.62L451.41 315.58L479.43 340.7L524.1 321.32L515.19 270.16L481.07 231.54L481.06 231.53Z" fill="#DA0081"/>
<path d="M76.59 133.46L105.8 138.47L96.98 170.68C96.89 171.02 96.98 171.39 97.23 171.64L121.62 196.74L109.49 210.83L89.84 189.86C89.65 189.65 89.38 189.54 89.11 189.54C88.95 189.54 88.78 189.58 88.63 189.66C88.23 189.88 88.03 190.34 88.14 190.78L96.15 222.37L77.22 245.74L67.29 194.15C67.24 193.87 67.06 193.62 66.81 193.48L11.83 161.34L59.95 140.93L68.55 168.46C68.68 168.88 69.07 169.16 69.5 169.16C69.52 169.16 69.54 169.16 69.57 169.16C70.03 169.13 70.41 168.79 70.49 168.33L76.58 133.45M75.77 132.3L69.5 168.16L60.57 139.58L9.59998 161.2L66.3 194.35L76.63 248.06L97.23 222.63L89.09 190.55L109.51 212.34L122.96 196.71L97.93 170.95L107.04 137.67L75.77 132.31V132.3Z" fill="#DA0081"/>
<path d="M253.59 83.55L289.37 86.92L304.77 132.07C304.9 132.45 305.25 132.72 305.65 132.75C305.67 132.75 305.69 132.75 305.71 132.75C306.09 132.75 306.44 132.53 306.61 132.19L319.67 105.45L368.35 129.77L358.87 155.54L343.71 158.74L338.75 137.75C338.66 137.37 338.36 137.08 337.98 137C337.91 136.99 337.84 136.98 337.77 136.98C337.46 136.98 337.17 137.12 336.97 137.37C327.64 149.64 313.66 167.93 311.63 170.36C308.89 170.83 295.17 174.72 289.57 176.32L277.08 140.86C276.94 140.45 276.55 140.19 276.14 140.19C276.06 140.19 275.98 140.19 275.9 140.22C275.4 140.34 275.07 140.82 275.14 141.33L280.43 179.95L257.77 183.09L253.57 83.55M252.54 82.45L256.84 184.23L281.58 180.8L276.16 141.19L288.96 177.53C288.96 177.53 310.7 171.3 312.04 171.3C312.08 171.3 312.1 171.3 312.1 171.32C312.4 171.32 337.78 137.96 337.78 137.96L342.96 159.9L359.62 156.38L369.6 129.25L319.21 104.08L305.7 131.72L290.09 85.96L252.53 82.42L252.54 82.45Z" fill="#DA0081"/>
<path d="M335.37 148.85L338.49 160.37L326.12 174.81C325.92 175.04 325.84 175.36 325.9 175.66C325.96 175.96 326.15 176.22 326.43 176.36L330.61 178.48C330.75 178.55 330.91 178.59 331.06 178.59C331.35 178.59 331.64 178.46 331.84 178.22L343.24 164.23L355.28 162.75L344.87 189.1L314.75 218.17L300.28 205.49L313.96 196.41C314.18 196.26 314.34 196.03 314.39 195.77C314.44 195.51 314.39 195.24 314.24 195.02L311.37 190.78C311.18 190.5 310.86 190.34 310.54 190.34C310.37 190.34 310.2 190.38 310.05 190.47L294.8 199.05L285.7 184.98L315.15 175.99C315.36 175.93 315.54 175.8 315.66 175.63L335.36 148.88M335.79 146.59L314.86 175.01L284.14 184.39L294.47 200.37L310.54 191.32L313.41 195.56L298.63 205.36L314.77 219.5L345.71 189.64L356.82 161.53L342.71 163.27L331.06 177.57L326.88 175.45L339.6 160.61L335.8 146.58L335.79 146.59Z" fill="#DA0081"/>
<path d="M373.08 131.78L395.57 136.5L385.45 203.53L372.1 206.12C371.73 206.19 371.44 206.46 371.33 206.82C371.22 207.18 371.33 207.57 371.6 207.82L380.45 216.26L370.77 242.33L317.77 268.16L300.64 242.06L349.69 191.71C349.78 191.61 349.86 191.5 349.91 191.37L373.09 131.77M372.45 130.63L348.96 191.02L299.35 241.95L317.4 269.45L371.55 243.06L381.6 216L372.28 207.1L386.32 204.38L396.68 135.72L372.44 130.63H372.45Z" fill="#DA0081"/>
<path d="M397.11 188.16L435.92 234.43C435.99 234.51 436.08 234.59 436.17 234.64L444.43 239.6L442.41 247.45L434.59 249.57C434.5 249.59 434.41 249.63 434.33 249.68L401.68 269.55L377.89 245.96L397.11 188.15M408.66 245.62C408.71 245.62 408.77 245.62 408.82 245.61L421.42 243.57C421.84 243.5 422.17 243.18 422.24 242.76C422.32 242.34 422.12 241.92 421.75 241.71L416.26 238.56L417.97 230.67L420.79 231.3C420.86 231.32 420.94 231.32 421.01 231.32C421.37 231.32 421.71 231.12 421.89 230.79C422.1 230.39 422.03 229.91 421.7 229.6L408.4 216.81C408.21 216.63 407.96 216.53 407.71 216.53C407.65 216.53 407.59 216.53 407.53 216.55C407.21 216.61 406.94 216.82 406.81 217.11L398.74 234.28C398.57 234.65 398.63 235.08 398.9 235.38L407.9 245.29C408.09 245.5 408.36 245.62 408.64 245.62M396.72 186.15L376.74 246.25L401.53 270.83L434.85 250.55L443.24 248.28L445.59 239.14L436.7 233.8L396.74 186.16L396.72 186.15ZM408.66 244.62L399.66 234.71L407.73 217.54L421.03 230.33L417.22 229.48L415.14 239.06L421.26 242.57L408.66 244.61V244.62Z" fill="#DA0081"/>
<path d="M405.78 137.46L471.78 137.92L468.1 162.02L423.69 163.95C423.26 163.97 422.89 164.26 422.77 164.68C422.65 165.09 422.81 165.54 423.17 165.78L483.08 206.38L433.7 350.56L403.55 276.12L437.75 256.62L431.97 286C431.87 286.51 432.18 287.02 432.68 287.16C432.77 287.18 432.86 287.2 432.95 287.2C433.36 287.2 433.74 286.95 433.89 286.54L451.1 239.08C451.23 238.73 451.15 238.35 450.9 238.07L397.75 178.92L405.79 137.46M404.95 136.45L396.65 179.21L450.14 238.73L432.93 286.19L439.14 254.66L402.28 275.68L433.77 353.41L484.27 205.97L423.73 164.94L468.96 162.98L472.94 136.92L404.95 136.45Z" fill="#DA0081"/>
<path d="M293.69 249.59C298.52 256.39 308.77 270.83 311.08 274.13L301.02 283.54L290.99 277.03C290.82 276.92 290.63 276.87 290.45 276.87C290.21 276.87 289.97 276.96 289.78 277.13L249.68 313.4C249.48 313.58 249.36 313.83 249.35 314.1L248.55 334.55C248.54 334.84 248.65 335.11 248.86 335.31C249.05 335.49 249.3 335.59 249.55 335.59C249.58 335.59 249.6 335.59 249.63 335.59L259.59 334.77L273.49 353.58L229.25 353.99L236.85 296.49L293.68 249.58M293.88 248.13L235.92 295.97L228.11 355L275.46 354.56L260.06 333.72L249.54 334.58L250.34 314.13L290.44 277.86L301.13 284.79L312.39 274.26C312.03 273.68 293.88 248.12 293.88 248.12V248.13Z" fill="#DA0081"/>
<path d="M372.45 251.27L386.94 268.25L298.8 319.73C298.37 319.98 298.19 320.51 298.38 320.98C298.54 321.36 298.91 321.6 299.3 321.6C299.38 321.6 299.47 321.59 299.55 321.57L327.3 314.34L285.68 355.8L260.18 327.28L319.05 277.82L372.44 251.28M372.7 250.03L318.5 276.97L258.75 327.17L285.64 357.25L330.63 312.44L299.3 320.61L388.48 268.52L372.7 250.04V250.03Z" fill="#DA0081"/>
<path d="M393.9 273.52L423.29 350.43L407.07 350.78L397.05 332.41C396.87 332.08 396.53 331.89 396.17 331.89C396.07 331.89 395.96 331.91 395.86 331.94C395.4 332.09 395.12 332.55 395.18 333.03L399.24 361.48L388.46 374.9L370.9 363.57L385.48 339.03C385.62 338.8 385.66 338.53 385.59 338.27C385.52 338.01 385.35 337.79 385.12 337.66L338.91 310.89L359.31 295.93L388 313.53C388.16 313.63 388.34 313.68 388.52 313.68C388.78 313.68 389.04 313.58 389.23 313.38C389.56 313.05 389.61 312.54 389.37 312.15L372.89 285.88L393.88 273.53M394.41 272.06L371.51 285.53L388.54 312.67L359.28 294.72L337.1 310.98L384.63 338.52L369.55 363.89L388.68 376.24L400.29 361.78L396.17 332.9L406.48 351.81L424.72 351.42L394.4 272.08L394.41 272.06Z" fill="#DA0081"/>
<path d="M214.76 63.74L232.24 71.32L241.95 85.68L199.64 115.53L105.94 160.52L114.48 133.14L214.78 63.74M190.28 104.02C190.49 104.02 190.7 103.95 190.88 103.82L216.33 84.82C216.6 84.62 216.75 84.3 216.73 83.97C216.71 83.64 216.53 83.33 216.24 83.16L210.75 79.87C210.59 79.78 210.41 79.73 210.24 79.73C210.01 79.73 209.79 79.81 209.6 79.96L186.97 98.63C186.56 98.97 186.49 99.57 186.8 100L189.47 103.61C189.63 103.82 189.87 103.97 190.13 104C190.18 104 190.23 104.01 190.28 104.01M214.65 62.6L113.61 132.52L104.29 162.42L200.14 116.4L243.32 85.94L232.9 70.53L214.64 62.61L214.65 62.6ZM190.28 103.02L187.61 99.41L210.24 80.74L215.73 84.03L190.28 103.03V103.02Z" fill="#DA0081"/>
<path d="M22.47 72.86L53.69 79.02L57.85 103.03C57.9 103.34 58.11 103.61 58.39 103.76C58.53 103.83 58.68 103.86 58.84 103.86C59 103.86 59.16 103.82 59.3 103.75L73.3 96.52L93.01 99.92L96.73 112.73C96.85 113.15 97.23 113.44 97.67 113.45H97.69C98.12 113.45 98.5 113.18 98.64 112.77L105.56 92.05L150.98 100.28L107.13 132.84L83.21 129.12L79.17 119.56C79.05 119.28 78.82 119.07 78.53 118.99C78.44 118.96 78.35 118.95 78.25 118.95C78.05 118.95 77.85 119.01 77.68 119.13L67.71 126.1L25.42 119.76L22.49 72.86M21.39 71.63L24.45 120.63L67.94 127.15L78.23 119.95L82.49 130.02L107.37 133.89L153.41 99.7L104.87 90.9L97.68 112.44L93.78 99.03L73.12 95.46L58.82 102.85L54.55 78.16L21.39 71.62V71.63Z" fill="#DA0081"/>
<path d="M171.69 161.27L207.61 197.55L155.37 219.54C154.93 219.72 154.68 220.19 154.78 220.66C154.88 221.13 155.28 221.46 155.76 221.46L186.33 221.62L175.62 261.02L113.92 249.97L101.74 227L162.93 191.53C163.36 191.28 163.54 190.76 163.36 190.3C163.21 189.91 162.83 189.67 162.43 189.67C162.36 189.67 162.28 189.67 162.21 189.7L131.5 196.77L113.75 180.73L171.7 161.28M171.96 160.12L111.8 180.31L131.21 197.85L162.42 190.66L100.39 226.61L113.25 250.86L176.33 262.16L187.62 220.62L155.75 220.46L209.35 197.9L171.95 160.12H171.96Z" fill="#DA0081"/>
<path d="M218.59 113.93L230.12 154.19L190.33 168.99L168.67 152.18C168.49 152.04 168.28 151.97 168.06 151.97C167.93 151.97 167.8 151.99 167.68 152.04L109.72 175.72L104.54 170.12L218.59 113.93ZM219.22 112.51L102.89 169.82L109.45 176.91L168.06 152.97L190.16 170.13L231.34 154.81L219.22 112.51Z" fill="#DA0081"/>
<path d="M246.05 91.35L252.79 175.23L220.28 190.79L194.31 174.57L221.45 164.19L226.54 169.69C226.73 169.9 227 170.01 227.27 170.01C227.43 170.01 227.58 169.97 227.73 169.9L239.86 163.64C240.18 163.47 240.39 163.15 240.4 162.78L241.6 126.58C241.62 126.09 241.28 125.66 240.8 125.57C240.73 125.56 240.67 125.55 240.6 125.55C240.19 125.55 239.82 125.8 239.67 126.19L233.32 142.72L223.82 111L246.05 91.33M246.89 89.27L222.68 110.69L233.21 145.82L240.61 126.55L239.41 162.75L227.28 169.01L221.73 163.01L192.08 174.35L220.22 191.92L253.85 175.83L246.89 89.27Z" fill="#DA0081"/>
<path d="M251.35 184.74L237.44 273.61L215.75 269.2L216.81 248.84C216.83 248.38 216.55 247.97 216.11 247.83C216.01 247.8 215.91 247.78 215.81 247.78C215.47 247.78 215.15 247.95 214.96 248.25L203.54 266.54L183.6 262.71C185.22 256.45 193.76 223.66 194.64 220.28L218.49 197.85L251.36 184.73M225.14 233.58C225.59 233.58 225.99 233.28 226.11 232.83L230.85 214.58C230.97 214.12 230.75 213.64 230.32 213.43C230.18 213.36 230.03 213.33 229.88 213.33C229.58 213.33 229.28 213.47 229.08 213.72L215.78 231.15C215.56 231.44 215.51 231.82 215.66 232.16C215.81 232.49 216.12 232.72 216.48 232.76L225.04 233.58C225.04 233.58 225.1 233.58 225.14 233.58ZM252.61 183.16L217.93 197L193.73 219.76C193.73 219.76 182.58 262.57 182.36 263.5L204.02 267.66L215.8 248.79L214.7 270.01L238.26 274.8L252.61 183.16ZM225.14 232.58L216.58 231.76L229.88 214.33L225.14 232.58Z" fill="#DA0081"/>
<path d="M527.15 165.21L569.51 175.04L568 200.31L557.81 212.08C557.54 212.39 557.49 212.83 557.68 213.19C557.85 213.53 558.2 213.73 558.57 213.73C558.6 213.73 558.63 213.73 558.66 213.73L575.55 212.22L611.88 231.1L605.32 250.3L563.83 234.65C563.72 234.61 563.6 234.59 563.48 234.59C563.29 234.59 563.11 234.64 562.94 234.75C562.67 234.92 562.5 235.2 562.48 235.52L560.01 268.13L521.55 260.45L527.16 165.24M542.15 195.69C542.23 195.69 542.3 195.69 542.38 195.66C553.15 193.1 553.26 192.7 553.44 192.04C553.45 192 553.46 191.96 553.47 191.92L554.59 184.51C554.67 183.97 554.3 183.46 553.76 183.37L544.43 181.9C544.38 181.9 544.33 181.89 544.27 181.89C543.79 181.89 543.37 182.23 543.29 182.71L541.17 194.5C541.11 194.83 541.22 195.17 541.47 195.4C541.66 195.58 541.9 195.67 542.16 195.67M526.23 163.97L520.5 261.24L560.92 269.31L563.48 235.58L605.94 251.6L613.11 230.61L575.76 211.2L558.58 212.74L568.99 200.72L570.57 174.27L526.23 163.98V163.97ZM542.15 194.69L544.27 182.9L553.6 184.37L552.48 191.78C552.34 192.27 542.15 194.69 542.15 194.69Z" fill="#DA0081"/>
<path d="M182 25.74L210.43 35.84L210.29 59.73L159.32 94.03L154.09 53.11L182.01 25.74M181.75 24.59L153.03 52.74L158.53 95.76L211.28 60.26L211.43 35.13L181.74 24.58L181.75 24.59Z" fill="#DA0081"/>
<path d="M577.2 166.42L627.96 168.91L627.69 176.76L611.55 175.96C611.55 175.96 611.52 175.96 611.5 175.96C611.25 175.96 611 176.06 610.82 176.23C610.62 176.41 610.51 176.67 610.5 176.94L610.41 180.7C610.4 181.24 610.82 181.7 611.37 181.72L627.5 182.43L627.12 190.55L611.36 189.74C611.36 189.74 611.33 189.74 611.31 189.74C611.06 189.74 610.82 189.83 610.63 190.01C610.43 190.19 610.32 190.45 610.31 190.72L610.19 194.95C610.17 195.49 610.6 195.95 611.14 195.98L626.68 196.78L626.25 212.27L611.83 223.63L572.65 204.65L577.21 166.42M576.32 165.37L571.56 205.23L611.95 224.79L627.23 212.75L627.7 195.82L611.18 194.97L611.3 190.74L628.06 191.6L628.53 181.48L611.4 180.72L611.49 176.96L628.65 177.81L628.99 167.96L576.31 165.38L576.32 165.37Z" fill="#DA0081"/>
<path d="M101.27 8.56L175.77 23.1L151.43 44.39L143.6 36.19C143.41 35.99 143.14 35.88 142.88 35.88C142.73 35.88 142.58 35.91 142.44 35.98C142.05 36.17 141.83 36.6 141.9 37.03L150.53 91.75L110.24 83.73L124.5 37.52C124.61 37.15 124.5 36.75 124.22 36.49C124.03 36.32 123.79 36.23 123.55 36.23C123.42 36.23 123.29 36.25 123.17 36.3L105.31 43.62L101.29 8.56M100.12 7.31L104.45 45.04L123.54 37.22L108.95 84.49L151.74 93.01L142.88 36.88L151.37 45.77L177.96 22.5L100.12 7.31Z" fill="#DA0081"/>
<path d="M46.59 1.14L69.99 51.07C70.16 51.43 70.52 51.65 70.9 51.65C70.99 51.65 71.08 51.64 71.16 51.61C71.63 51.48 71.94 51.04 71.89 50.55L67.43 3.09L96.74 14.29L103.8 84.56L51.96 74.13C51.11 72.44 47.9 66.06 44.68 59.76C36.86 44.42 36.82 44.42 35.98 44.42C35.84 44.42 35.71 44.45 35.58 44.5C34.96 44.77 34.91 44.79 31.59 58.22C30.35 63.23 29.13 68.27 28.65 70.27L1.27002 66.11L15.88 7.34L46.6 1.14M47.16 0L15.05 6.48L0.0300293 66.93L29.41 71.39C29.41 71.39 35.64 45.56 35.99 45.41C36.41 45.41 51.29 75.01 51.29 75.01L104.93 85.8L97.67 13.57L66.29 1.57L70.9 50.63L47.16 0Z" fill="#DA0081"/>
<path d="M114.58 282.57C116.69 283.08 120.61 284.05 123.51 284.78L124.8 289.65C124.89 289.98 125.14 290.24 125.46 290.35L150.83 298.38C150.93 298.41 151.03 298.43 151.13 298.43C151.29 298.43 151.46 298.39 151.6 298.31C151.84 298.18 152.01 297.96 152.09 297.7L153.51 292.7L163.9 295.38L157.13 321.25L146.3 317.46L147.19 312.75C147.28 312.25 146.98 311.75 146.49 311.61L128.27 306.13C128.18 306.1 128.08 306.09 127.98 306.09C127.77 306.09 127.57 306.15 127.4 306.28C127.15 306.46 126.99 306.75 126.98 307.05L126.82 311.04L121.13 310.98L114.58 282.57ZM113.25 281.24L120.34 311.97L127.79 312.05L127.98 307.09L146.2 312.57L145.15 318.12L157.82 322.55L165.12 294.67L152.82 291.5L151.14 297.44L125.77 289.41L124.33 283.97C124.33 283.97 113.51 281.26 113.25 281.26V281.24Z" fill="#DA0081"/>
<path d="M335.48 319.29L377.77 340.51L367.29 357.82L347.39 347.89C347.25 347.82 347.09 347.79 346.94 347.79C346.62 347.79 346.3 347.95 346.11 348.23L321.49 384.55C321.32 384.81 321.27 385.13 321.37 385.43C321.47 385.73 321.7 385.96 321.99 386.06L359.81 399C359.92 399.04 360.03 399.05 360.13 399.05C360.54 399.05 360.93 398.79 361.08 398.38L366.14 383.71C366.29 383.28 366.14 382.81 365.76 382.56L361.22 379.46C361.05 379.35 360.86 379.29 360.66 379.29C360.55 379.29 360.45 379.31 360.35 379.34C360.05 379.44 359.82 379.67 359.72 379.96L355.5 392.05L331.82 380.88L347.06 357.95L383.54 379.33L372.4 419.23L313.81 418.16L290.92 360.51L335.47 319.31M335.31 318.08L289.75 360.21L313.14 419.12L373.17 420.22L384.73 378.83L346.77 356.58L330.36 381.27L356.09 393.4L360.68 380.26L365.22 383.36L360.16 398.03L322.34 385.09L346.96 348.77L367.68 359.11L379.19 340.09L335.31 318.08Z" fill="#DA0081"/>
<path d="M494.19 162.67L520.75 164.99L515.39 261.37L485.3 227.76L489.47 204.1C489.54 203.72 489.38 203.33 489.06 203.11L443.23 170.63L479.63 164.92L492.59 183.97C492.78 184.25 493.09 184.41 493.42 184.41C493.52 184.41 493.62 184.39 493.72 184.36C494.14 184.23 494.43 183.84 494.42 183.39L494.18 162.67M493.18 161.57L493.43 183.4L480.11 163.82L440.65 170.01L488.49 203.91L484.23 228.05L516.25 263.82L521.8 164.06L493.18 161.56V161.57Z" fill="#DA0081"/>
<path d="M111.54 255.83L232.18 279.27L223.61 344.16L193.89 341.84L202.78 300.23C202.89 299.71 202.57 299.19 202.05 299.05L195.49 297.34C195.41 297.32 195.32 297.31 195.24 297.31C194.8 297.31 194.4 297.6 194.28 298.04L183.02 338.89L162.08 328.74L172.02 292.24C172.09 291.98 172.05 291.7 171.91 291.46C171.77 291.23 171.54 291.06 171.28 291L111.11 277L111.56 255.82M110.56 254.62L110.07 277.8L171.03 291.99L160.87 329.29L183.64 340.33L195.22 298.32L201.78 300.03L192.66 342.76L224.46 345.24L233.28 278.47L110.55 254.62H110.56Z" fill="#DA0081"/>
</svg>
