<svg width="924" height="684" viewBox="0 0 924 684" fill="none" xmlns="http://www.w3.org/2000/svg">
<mask id="mask0_1944_121528" style="mask-type:luminance" maskUnits="userSpaceOnUse" x="-13" y="-37" width="937" height="990">
<path d="M903.998 -36.7403L-12.0391 -32.6094L7.56385 952.151L923.601 948.02L903.998 -36.7403Z" fill="white"/>
</mask>
<g mask="url(#mask0_1944_121528)">
<path d="M371.316 990.218L889.482 613.606C894.187 610.185 895.717 604.802 893.32 600.051L560.796 -60.868C558.515 -65.4094 553.078 -68.5125 546.92 -68.801L-281.5 -107.178C-285.572 -107.369 -289.558 -106.298 -292.602 -104.193L-881.259 301.926C-886.152 305.298 -887.822 310.749 -885.446 315.587L-558.881 981.538C-556.514 986.357 -550.636 989.564 -544.123 989.592L360.752 993.43C364.679 993.448 368.452 992.298 371.316 990.218Z" fill="#5A9EFB"/>
<path d="M-78.1841 1030.78L644.553 853.737C649.722 852.472 653.651 849.166 654.927 845.011L816.979 317.574C818.321 313.196 816.516 308.557 812.274 305.47L242.864 -108.38C239.698 -110.679 235.495 -111.876 231.231 -111.689L-798.534 -66.3143C-806.576 -65.9601 -812.873 -60.8431 -813.085 -54.4862L-847.469 990.219C-847.695 997.002 -840.929 1002.74 -832.322 1003.07L-83.5433 1031.32C-81.7248 1031.39 -79.9122 1031.21 -78.1762 1030.78L-78.1841 1030.78Z" fill="white"/>
<path d="M860.495 289.844L844.027 293.107C841.754 293.557 840.405 295.373 841.014 297.163L846.215 312.466C846.823 314.256 849.158 315.342 851.431 314.892L867.899 311.629C870.172 311.179 871.521 309.362 870.913 307.573L865.712 292.269C865.103 290.479 862.768 289.393 860.495 289.844Z" fill="white"/>
</g>
</svg>
