<svg width="1276" height="748" viewBox="0 0 1276 748" fill="none" xmlns="http://www.w3.org/2000/svg">
<path d="M-376.621 -72.9229L-707.625 728.89C-714.061 744.485 -706.983 762.38 -691.621 769.348L337.627 1236.2C347.712 1240.77 359.456 1239.69 368.523 1233.34L1170.68 672.056C1183.08 663.383 1187.5 647.084 1181.19 633.337L793.623 -210.718C787.939 -223.102 774.879 -230.398 761.349 -228.739L-351.488 -92.0711C-362.7 -90.6933 -372.315 -83.3816 -376.621 -72.9385V-72.9229Z" fill="#5A9EFB"/>
<path d="M352.174 -236.248L-635.929 296.438C-651.206 304.683 -656.863 323.754 -648.542 338.962L-248.381 1070.76C-242.583 1081.37 -231.176 1087.71 -219.079 1087L907.822 1022.39C920.122 1021.68 930.871 1013.85 935.29 1002.36L1219.97 261.612C1225.55 247.078 1219.59 230.666 1205.99 223.078L382.338 -236.029C372.983 -241.239 361.607 -241.333 352.174 -236.248Z" fill="white"/>
<path d="M1274.08 231.673L1265.01 199.067C1263.95 195.255 1260 193.023 1256.19 194.084L1228.54 201.765C1224.73 202.826 1222.49 206.776 1223.55 210.588L1232.62 243.194C1233.68 247.007 1237.63 249.238 1241.45 248.178L1269.09 240.496C1272.91 239.436 1275.14 235.486 1274.08 231.673Z" fill="white"/>
</svg>
