<svg xmlns="http://www.w3.org/2000/svg" xmlns:xlink="http://www.w3.org/1999/xlink" width="656" zoomAndPan="magnify" viewBox="0 0 492 599.999999" height="800" preserveAspectRatio="xMidYMid meet" version="1.0"><defs><clipPath id="4a7e976139"><path d="M 113 210 L 134 210 L 134 232 L 113 232 Z M 113 210 " clip-rule="nonzero"/></clipPath><clipPath id="ebbe8c2ea0"><path d="M 112.660156 215.730469 L 129.089844 210.117188 L 134.558594 226.113281 L 118.125 231.726562 Z M 112.660156 215.730469 " clip-rule="nonzero"/></clipPath><clipPath id="d3d5036c7a"><path d="M 114.957031 214.945312 L 126.765625 210.910156 C 127.375 210.703125 128.042969 210.746094 128.621094 211.027344 C 129.199219 211.3125 129.644531 211.816406 129.851562 212.425781 L 133.746094 223.820312 C 134.179688 225.089844 133.503906 226.472656 132.234375 226.90625 L 120.421875 230.941406 C 119.8125 231.148438 119.144531 231.105469 118.566406 230.824219 C 117.988281 230.539062 117.546875 230.039062 117.339844 229.429688 L 113.445312 218.03125 C 113.011719 216.761719 113.6875 215.378906 114.957031 214.945312 Z M 114.957031 214.945312 " clip-rule="nonzero"/></clipPath></defs><path fill="#200020" d="M 613.25 594.664062 L 353.125 221.042969 C 350.761719 217.652344 346.875 216.132812 343.335938 217.226562 L -148.773438 368.84375 C -152.15625 369.882812 -154.578125 373.117188 -154.964844 377.089844 L -206.742188 911.871094 C -206.996094 914.5 -206.328125 917.195312 -204.878906 919.378906 L 74.773438 1341.703125 C 77.09375 1345.214844 81.027344 1346.835938 84.625 1345.765625 L 580.238281 1198.511719 C 583.828125 1197.4375 586.335938 1193.933594 586.542969 1189.703125 L 615.292969 601.847656 C 615.417969 599.292969 614.6875 596.730469 613.25 594.664062 Z M 613.25 594.664062 " fill-opacity="1" fill-rule="nonzero"/><path fill="#ffffff" d="M 629.914062 890.253906 L 521.339844 404.332031 C 520.5625 400.855469 518.261719 397.984375 515.265625 396.753906 L 134.742188 240.304688 C 131.585938 239.007812 128.144531 239.726562 125.769531 242.175781 L -192.765625 571.125 C -194.535156 572.957031 -195.53125 575.566406 -195.515625 578.347656 L -191.894531 1250.554688 C -191.867188 1255.804688 -188.308594 1260.386719 -183.675781 1261.140625 L 578.246094 1385.171875 C 583.191406 1385.976562 587.578125 1382.148438 588.0625 1376.597656 L 630.152344 893.78125 C 630.253906 892.613281 630.175781 891.417969 629.914062 890.25 Z M 629.914062 890.253906 " fill-opacity="1" fill-rule="nonzero"/><g clip-path="url(#4a7e976139)"><g clip-path="url(#ebbe8c2ea0)"><g clip-path="url(#d3d5036c7a)"><path fill="#ffffff" d="M 112.660156 215.730469 L 129.089844 210.117188 L 134.558594 226.113281 L 118.125 231.726562 Z M 112.660156 215.730469 " fill-opacity="1" fill-rule="nonzero"/></g></g></g></svg>