<svg xmlns="http://www.w3.org/2000/svg" xmlns:xlink="http://www.w3.org/1999/xlink" width="656" zoomAndPan="magnify" viewBox="0 0 492 299.999988" height="400" preserveAspectRatio="xMidYMid meet" version="1.0"><defs><clipPath id="229056ba89"><path d="M 179 105 L 190 105 L 190 116 L 179 116 Z M 179 105 " clip-rule="nonzero"/></clipPath><clipPath id="6a911adffc"><path d="M 179.328125 107.863281 L 187.546875 105.058594 L 190.277344 113.054688 L 182.0625 115.863281 Z M 179.328125 107.863281 " clip-rule="nonzero"/></clipPath><clipPath id="ffee90fb53"><path d="M 180.480469 107.472656 L 186.382812 105.453125 C 186.6875 105.351562 187.023438 105.371094 187.3125 105.511719 C 187.601562 105.65625 187.820312 105.90625 187.925781 106.210938 L 189.871094 111.910156 C 190.089844 112.542969 189.75 113.234375 189.117188 113.453125 L 183.210938 115.46875 C 182.90625 115.574219 182.574219 115.550781 182.285156 115.410156 C 181.996094 115.269531 181.773438 115.019531 181.667969 114.714844 L 179.722656 109.015625 C 179.503906 108.378906 179.84375 107.6875 180.480469 107.472656 Z M 180.480469 107.472656 " clip-rule="nonzero"/></clipPath><clipPath id="4f2e027023"><path d="M 0 0 L 492 0 L 492 149.828125 L 0 149.828125 Z M 0 0 " clip-rule="nonzero"/></clipPath></defs><rect x="-49.2" width="590.4" fill="#ffffff" y="-29.999999" height="359.999986" fill-opacity="1"/><rect x="-49.2" width="590.4" fill="#ffffff" y="-29.999999" height="359.999986" fill-opacity="1"/><g clip-path="url(#229056ba89)"><g clip-path="url(#6a911adffc)"><g clip-path="url(#ffee90fb53)"><path fill="#ffffff" d="M 179.328125 107.863281 L 187.546875 105.058594 L 190.277344 113.054688 L 182.0625 115.863281 Z M 179.328125 107.863281 " fill-opacity="1" fill-rule="nonzero"/></g></g></g><g clip-path="url(#4f2e027023)"><path fill="#db0082" d="M 277.578125 -167.972656 L -13.777344 -154.367188 C -16.65625 -154.234375 -18.789062 -152.691406 -18.914062 -150.652344 L -30.773438 41.796875 C -30.898438 43.832031 -28.992188 45.824219 -26.175781 46.601562 L 343.523438 148.925781 C 346.21875 149.671875 349.085938 149.117188 350.546875 147.566406 L 510.121094 -21.265625 C 511.808594 -23.050781 511.148438 -25.609375 508.585938 -27.191406 L 282.523438 -166.734375 C 281.117188 -167.605469 279.320312 -168.054688 277.582031 -167.972656 Z M 277.578125 -167.972656 " fill-opacity="1" fill-rule="nonzero"/></g><path fill="#200020" d="M 255.476562 -166.980469 L 4.480469 -35.894531 C 2 -34.601562 0.753906 -32.371094 1.476562 -30.523438 L 69.78125 143.945312 C 70.503906 145.789062 72.996094 146.765625 75.792969 146.300781 L 443.21875 85.363281 C 445.894531 84.921875 448.191406 83.261719 448.847656 81.296875 L 520.285156 -132.730469 C 521.039062 -134.996094 519.40625 -136.980469 516.503906 -137.328125 L 260.339844 -167.914062 C 258.746094 -168.105469 256.980469 -167.765625 255.480469 -166.980469 Z M 255.476562 -166.980469 " fill-opacity="1" fill-rule="nonzero"/></svg>