<svg xmlns="http://www.w3.org/2000/svg" xmlns:xlink="http://www.w3.org/1999/xlink" width="1440" zoomAndPan="magnify" viewBox="0 0 1080 374.999991" height="500" preserveAspectRatio="xMidYMid meet" version="1.0"><defs><clipPath id="dfe667125d"><path d="M 0 0 L 643 0 L 643 375 L 0 375 Z M 0 0 " clip-rule="nonzero"/></clipPath><clipPath id="b544465aac"><path d="M 16.128906 -321.300781 L 781.902344 43.101562 L 417.5 808.878906 L -348.277344 444.472656 Z M 16.128906 -321.300781 " clip-rule="nonzero"/></clipPath><clipPath id="9f28794583"><path d="M 400.042969 -137.097656 L 641.6875 333.601562 C 642.304688 334.800781 642.105469 336.261719 641.191406 337.257812 L 272.773438 737.625 C 271.867188 738.613281 270.425781 738.890625 269.21875 738.316406 L -199.992188 515.035156 C -201.203125 514.460938 -201.894531 513.167969 -201.703125 511.84375 L -123.386719 -26.574219 C -123.191406 -27.914062 -122.183594 -28.988281 -120.859375 -29.265625 L 396.8125 -138.636719 C 398.113281 -138.910156 399.4375 -138.28125 400.042969 -137.097656 Z M 400.042969 -137.097656 " clip-rule="nonzero"/></clipPath><clipPath id="136b30d48f"><path d="M 0 0 L 592.972656 0 L 592.972656 375 L 0 375 Z M 0 0 " clip-rule="nonzero"/></clipPath><clipPath id="87c018c2d9"><path d="M 170.730469 -170.421875 L 591.183594 150.773438 C 592.257812 151.59375 592.707031 153 592.308594 154.289062 L 431.671875 674.121094 C 431.277344 675.398438 430.09375 676.269531 428.757812 676.269531 L -90.871094 676.269531 C -92.207031 676.269531 -93.390625 675.398438 -93.785156 674.121094 L -254.421875 154.289062 C -254.820312 153 -254.371094 151.59375 -253.296875 150.773438 L 167.15625 -170.421875 C 168.210938 -171.230469 169.675781 -171.230469 170.730469 -170.421875 Z M 170.730469 -170.421875 " clip-rule="nonzero"/></clipPath><clipPath id="d1f1180633"><path d="M 600 136 L 622 136 L 622 157 L 600 157 Z M 600 136 " clip-rule="nonzero"/></clipPath><clipPath id="037f895f85"><path d="M 600.066406 141.324219 L 616.496094 135.710938 L 621.964844 151.703125 L 605.53125 157.320312 Z M 600.066406 141.324219 " clip-rule="nonzero"/></clipPath><clipPath id="bd34b750f8"><path d="M 602.363281 140.539062 L 614.175781 136.503906 C 614.785156 136.296875 615.449219 136.335938 616.03125 136.621094 C 616.609375 136.90625 617.050781 137.40625 617.257812 138.015625 L 621.152344 149.414062 C 621.585938 150.683594 620.910156 152.066406 619.640625 152.5 L 607.832031 156.535156 C 607.21875 156.742188 606.554688 156.699219 605.976562 156.417969 C 605.394531 156.132812 604.953125 155.628906 604.746094 155.019531 L 600.851562 143.625 C 600.417969 142.355469 601.09375 140.972656 602.363281 140.539062 Z M 602.363281 140.539062 " clip-rule="nonzero"/></clipPath></defs><g clip-path="url(#dfe667125d)"><g clip-path="url(#b544465aac)"><g clip-path="url(#9f28794583)"><path fill="#200020" d="M 16.128906 -321.300781 L 781.902344 43.101562 L 417.5 808.878906 L -348.277344 444.472656 Z M 16.128906 -321.300781 " fill-opacity="1" fill-rule="nonzero"/></g></g></g><g clip-path="url(#136b30d48f)"><g clip-path="url(#87c018c2d9)"><path fill="#ffffff" d="M -255.085938 -171.789062 L 592.972656 -171.789062 L 592.972656 676.269531 L -255.085938 676.269531 Z M -255.085938 -171.789062 " fill-opacity="1" fill-rule="nonzero"/></g></g><g clip-path="url(#d1f1180633)"><g clip-path="url(#037f895f85)"><g clip-path="url(#bd34b750f8)"><path fill="#ffffff" d="M 600.066406 141.324219 L 616.496094 135.710938 L 621.964844 151.703125 L 605.53125 157.320312 Z M 600.066406 141.324219 " fill-opacity="1" fill-rule="nonzero"/></g></g></g></svg>