<svg width="10" height="222" viewBox="0 0 10 222" fill="none" xmlns="http://www.w3.org/2000/svg">
<path d="M0.110001 184.63L0 221.79H1.01L1.12 184.63H0.110001Z" fill="#ECE7F5" fill-opacity="0.5"/>
<path d="M8.79945 184.65L8.68945 221.82H9.68945L9.79945 184.66L8.79945 184.65Z" fill="#ECE7F5" fill-opacity="0.5"/>
<path d="M3.2107 182.76L3.1507 182.19C3.3507 182.16 3.4807 182.09 3.5807 181.99C3.6607 181.88 3.7107 181.75 3.7107 181.57C3.7107 181.38 3.6707 181.24 3.6007 181.15C3.5207 181.05 3.4307 181 3.3207 181C3.2507 181 3.2007 181.02 3.1407 181.06C3.1007 181.1 3.0607 181.16 3.0207 181.27C2.9907 181.34 2.9607 181.5 2.8907 181.73C2.8207 182.05 2.7207 182.26 2.6107 182.38C2.4507 182.56 2.2607 182.65 2.0207 182.65C1.8807 182.65 1.7407 182.6 1.6107 182.52C1.4907 182.44 1.3907 182.32 1.3207 182.16C1.2607 182.01 1.2207 181.82 1.2207 181.59C1.2207 181.23 1.3007 180.97 1.4607 180.79C1.6207 180.61 1.8307 180.51 2.1007 180.5L2.1207 181.08C1.9707 181.1 1.8707 181.16 1.7907 181.24C1.7307 181.32 1.7007 181.44 1.7007 181.6C1.7007 181.77 1.7407 181.9 1.8007 181.99C1.8407 182.05 1.9007 182.08 1.9807 182.08C2.0507 182.08 2.1007 182.05 2.1507 182C2.2107 181.92 2.2807 181.75 2.3507 181.47C2.4207 181.18 2.4807 180.98 2.5507 180.84C2.6307 180.71 2.7207 180.61 2.8507 180.53C2.9707 180.46 3.1307 180.42 3.3107 180.42C3.4707 180.42 3.6307 180.47 3.7707 180.55C3.9207 180.64 4.0207 180.78 4.0907 180.94C4.1607 181.11 4.1907 181.31 4.1907 181.56C4.1907 181.92 4.1007 182.2 3.9307 182.4C3.7607 182.59 3.5107 182.71 3.1907 182.74" fill="#ECE7F5" fill-opacity="0.5"/>
<path d="M1.2793 179.99V179.41H2.8493C3.0993 179.41 3.2593 179.41 3.3293 179.39C3.4493 179.36 3.5493 179.31 3.6193 179.21C3.6893 179.12 3.7293 178.99 3.7293 178.83C3.7293 178.67 3.6893 178.54 3.6293 178.46C3.5593 178.37 3.4793 178.33 3.3793 178.31C3.2793 178.29 3.1193 178.28 2.8893 178.28H1.2993V177.69L2.8193 177.7C3.1593 177.7 3.4093 177.72 3.5493 177.75C3.6893 177.79 3.8093 177.84 3.9093 177.93C3.9993 178.01 4.0893 178.13 4.1393 178.27C4.1993 178.41 4.2193 178.59 4.2193 178.82C4.2193 179.09 4.1893 179.3 4.1193 179.44C4.0593 179.59 3.9693 179.69 3.8693 179.78C3.7693 179.86 3.6593 179.91 3.5493 179.94C3.3793 179.98 3.1293 180 2.8193 180H1.2793V179.99Z" fill="#ECE7F5" fill-opacity="0.5"/>
<path d="M4.1593 177.16H1.2793V176.22C1.2793 175.87 1.2993 175.64 1.3293 175.53C1.3693 175.37 1.4693 175.22 1.6093 175.11C1.7593 175 1.9393 174.94 2.1693 174.94C2.3493 174.94 2.4893 174.98 2.6093 175.04C2.7293 175.11 2.8293 175.19 2.8993 175.28C2.9693 175.38 3.0093 175.48 3.0293 175.58C3.0593 175.73 3.0693 175.92 3.0693 176.19V176.57H4.1593V177.15V177.16ZM1.7693 176.58H2.5893V176.26C2.5893 176.03 2.5793 175.88 2.5393 175.8C2.5093 175.73 2.4593 175.66 2.3993 175.62C2.3393 175.58 2.2693 175.55 2.1793 175.55C2.0693 175.55 1.9793 175.58 1.9193 175.64C1.8593 175.71 1.8093 175.78 1.7993 175.87C1.7793 175.94 1.7793 176.08 1.7793 176.29V176.58H1.7693Z" fill="#ECE7F5" fill-opacity="0.5"/>
<path d="M4.17078 174.54L1.30078 174.53V172.41H1.78078V173.96H2.42078L2.43078 172.52H2.91078V173.96L3.69078 173.97V172.36H4.18078L4.17078 174.54Z" fill="#ECE7F5" fill-opacity="0.5"/>
<path d="M4.18078 171.92H1.30078V170.69C1.30078 170.38 1.33078 170.16 1.38078 170.02C1.43078 169.88 1.53078 169.77 1.66078 169.69C1.78078 169.61 1.94078 169.57 2.11078 169.57C2.32078 169.57 2.50078 169.64 2.64078 169.76C2.78078 169.89 2.87078 170.08 2.90078 170.33C2.97078 170.22 3.05078 170.1 3.14078 170.03C3.23078 169.94 3.38078 169.83 3.61078 169.7L4.17078 169.35V170.05L3.54078 170.46C3.32078 170.62 3.18078 170.71 3.12078 170.77C3.06078 170.83 3.02078 170.88 3.00078 170.95C2.98078 171.01 2.97078 171.11 2.97078 171.24V171.36H4.17078V171.94L4.18078 171.92ZM2.52078 171.34V170.91C2.52078 170.63 2.51078 170.46 2.49078 170.4C2.46078 170.33 2.43078 170.27 2.37078 170.23C2.31078 170.19 2.24078 170.17 2.16078 170.17C2.06078 170.17 1.98078 170.2 1.93078 170.25C1.87078 170.31 1.83078 170.37 1.82078 170.47C1.81078 170.52 1.80078 170.66 1.80078 170.89V171.35H2.53078L2.52078 171.34Z" fill="#ECE7F5" fill-opacity="0.5"/>
<path d="M4.19055 169.11L1.31055 169.1V168.52L4.19055 168.53V169.11Z" fill="#ECE7F5" fill-opacity="0.5"/>
<path d="M4.19055 168.03L1.31055 168.02V167.46L3.25055 166.28H1.32055V165.74H4.20055V166.33L2.31055 167.49L4.20055 167.5L4.19055 168.03Z" fill="#ECE7F5" fill-opacity="0.5"/>
<path d="M4.20008 164.55L1.81008 164.54V165.39H1.33008V163.1L1.81008 163.11V163.95L4.21008 163.97L4.20008 164.55Z" fill="#ECE7F5" fill-opacity="0.5"/>
<path d="M4.21008 162.8L1.33008 162.79L1.34008 160.67H1.82008V162.22H2.46008V160.77H2.95008L2.94008 162.22H3.72008L3.73008 160.62H4.22008L4.21008 162.8Z" fill="#ECE7F5" fill-opacity="0.5"/>
<path d="M4.20984 160.19L1.33984 160.18V159.61L3.26984 158.43H1.33984V157.89L4.21984 157.9V158.48L2.32984 159.64L4.20984 159.65V160.19Z" fill="#ECE7F5" fill-opacity="0.5"/>
<path d="M1.34961 157.34V156.28C1.34961 156.05 1.36961 155.87 1.40961 155.74C1.45961 155.57 1.53961 155.43 1.66961 155.3C1.78961 155.18 1.94961 155.1 2.13961 155.02C2.31961 154.96 2.54961 154.94 2.81961 154.93C3.05961 154.93 3.26961 154.96 3.43961 155.02C3.64961 155.1 3.80961 155.2 3.94961 155.33C4.03961 155.43 4.11961 155.57 4.16961 155.74C4.20961 155.87 4.22961 156.04 4.22961 156.25V157.34L1.34961 157.33V157.34ZM1.82961 156.76H3.73961V156.33C3.73961 156.17 3.72961 156.05 3.70961 155.98C3.67961 155.89 3.63961 155.81 3.58961 155.75C3.52961 155.69 3.43961 155.64 3.30961 155.59C3.17961 155.55 2.99961 155.54 2.77961 155.53C2.55961 155.53 2.38961 155.55 2.26961 155.59C2.14961 155.63 2.05961 155.68 1.98961 155.75C1.91961 155.82 1.87961 155.91 1.84961 156.02C1.82961 156.1 1.81961 156.25 1.81961 156.49V156.75L1.82961 156.76Z" fill="#ECE7F5" fill-opacity="0.5"/>
<path d="M4.22961 154.51L1.34961 154.5L1.35961 152.38H1.83961V153.93H2.47961L2.48961 152.48L2.96961 152.49L2.95961 153.93H3.74961V152.33H4.23961L4.22961 154.51Z" fill="#ECE7F5" fill-opacity="0.5"/>
<path d="M4.23937 151.89L1.35938 151.88V151.32L3.29938 150.14H1.36938V149.6H4.24937V150.18L2.34937 151.35L4.23937 151.36V151.89Z" fill="#ECE7F5" fill-opacity="0.5"/>
<path d="M3.19961 147.21L3.37961 146.64C3.68961 146.73 3.92961 146.88 4.07961 147.08C4.22961 147.29 4.30961 147.54 4.30961 147.84C4.30961 148.22 4.17961 148.54 3.91961 148.78C3.65961 149.03 3.29961 149.15 2.84961 149.15C2.36961 149.15 1.99961 149.03 1.73961 148.78C1.47961 148.53 1.34961 148.21 1.34961 147.8C1.34961 147.45 1.45961 147.16 1.65961 146.94C1.77961 146.81 1.95961 146.71 2.18961 146.65L2.31961 147.22C2.16961 147.25 2.05961 147.32 1.96961 147.43C1.88961 147.54 1.83961 147.67 1.83961 147.82C1.83961 148.03 1.91961 148.21 2.06961 148.34C2.21961 148.47 2.46961 148.54 2.80961 148.54C3.16961 148.54 3.42961 148.48 3.58961 148.35C3.73961 148.22 3.81961 148.05 3.81961 147.84C3.81961 147.69 3.76961 147.56 3.66961 147.45C3.56961 147.34 3.40961 147.26 3.19961 147.21Z" fill="#ECE7F5" fill-opacity="0.5"/>
<path d="M4.26086 146.24L1.38086 146.23V145.65L4.26086 145.66V146.24Z" fill="#ECE7F5" fill-opacity="0.5"/>
<path d="M4.26086 142.57V143.2L3.61086 143.44V144.59L4.26086 144.83V145.45L1.38086 144.33V143.71L4.26086 142.56V142.57ZM3.12086 143.62L2.05086 144.02L3.11086 144.41V143.62H3.12086Z" fill="#ECE7F5" fill-opacity="0.5"/>
<path d="M4.27063 141.42L1.39062 141.41L1.40063 139.44H1.88062V140.83H2.56063V139.62H3.05063L3.04063 140.83L4.27063 140.84V141.42Z" fill="#ECE7F5" fill-opacity="0.5"/>
<path d="M4.28039 139.04L1.40039 139.03V138.46L4.28039 138.47V139.04Z" fill="#ECE7F5" fill-opacity="0.5"/>
<path d="M4.28039 137.97L1.40039 137.96V137.4L3.34039 136.22L1.41039 136.21V135.67L4.29039 135.69V136.27L2.40039 137.42L4.29039 137.43L4.28039 137.97Z" fill="#ECE7F5" fill-opacity="0.5"/>
<path d="M4.29992 132.54V133.16L3.64992 133.41V134.56L4.28992 134.8V135.41L1.41992 134.29V133.67L4.29992 132.53V132.54ZM3.14992 133.6L2.08992 134L3.14992 134.39V133.6Z" fill="#ECE7F5" fill-opacity="0.5"/>
<path d="M4.29992 132.3L1.42992 132.29L1.41992 131.72L3.35992 130.54H1.42992V130L4.29992 130.01V130.59L2.40992 131.75L4.29992 131.76V132.3Z" fill="#ECE7F5" fill-opacity="0.5"/>
<path d="M3.25062 127.61L3.43062 127.05C3.75062 127.13 3.98063 127.28 4.13063 127.48C4.28063 127.68 4.36063 127.94 4.36063 128.25C4.36063 128.63 4.23063 128.95 3.97063 129.2C3.71063 129.45 3.35062 129.56 2.90062 129.57C2.42062 129.57 2.05063 129.44 1.78063 129.2C1.52063 128.95 1.39062 128.62 1.39062 128.21C1.39062 127.86 1.49063 127.57 1.70063 127.36C1.82063 127.23 2.00063 127.13 2.23063 127.06L2.37063 127.64C2.22063 127.68 2.11063 127.74 2.02063 127.85C1.93063 127.95 1.89062 128.09 1.89062 128.23C1.89062 128.45 1.96063 128.63 2.12063 128.75C2.27063 128.89 2.52063 128.96 2.86063 128.96C3.23063 128.96 3.48063 128.9 3.64063 128.76C3.80063 128.63 3.87063 128.46 3.87063 128.25C3.87063 128.1 3.82063 127.96 3.72063 127.86C3.62063 127.74 3.47062 127.67 3.25062 127.62" fill="#ECE7F5" fill-opacity="0.5"/>
<path d="M4.31945 126.64L1.43945 126.63V126.05L4.31945 126.06V126.64Z" fill="#ECE7F5" fill-opacity="0.5"/>
<path d="M4.31922 125.56L1.44922 125.55V123.43H1.92922V124.98H2.56922V123.54H3.05922L3.04922 124.99H3.82922L3.83922 123.38H4.31922V125.56Z" fill="#ECE7F5" fill-opacity="0.5"/>
<path d="M4.31945 122.94H1.43945V121.71C1.43945 121.4 1.45945 121.18 1.51945 121.04C1.56945 120.89 1.66945 120.79 1.79945 120.71C1.92945 120.62 2.07945 120.58 2.24945 120.58C2.45945 120.58 2.63945 120.65 2.77945 120.77C2.91945 120.91 3.00945 121.09 3.03945 121.34C3.10945 121.22 3.19945 121.11 3.27945 121.03C3.36945 120.95 3.51945 120.84 3.74945 120.7L4.30945 120.35V121.05L3.68945 121.47C3.45945 121.62 3.32945 121.72 3.25945 121.77C3.19945 121.83 3.15945 121.89 3.13945 121.95C3.11945 122.01 3.10945 122.11 3.10945 122.24V122.36H4.29945V122.94H4.31945ZM2.66945 122.36V121.93C2.66945 121.65 2.65945 121.48 2.63945 121.41C2.60945 121.34 2.57945 121.29 2.51945 121.24C2.45945 121.2 2.38945 121.19 2.29945 121.19C2.20945 121.19 2.12945 121.21 2.06945 121.26C2.00945 121.31 1.97945 121.39 1.95945 121.48C1.95945 121.52 1.94945 121.67 1.94945 121.91V122.36H2.67945H2.66945Z" fill="#ECE7F5" fill-opacity="0.5"/>
<path d="M4.34094 117.51V118.14L3.68094 118.38V119.53L4.33094 119.77V120.38L1.46094 119.26V118.64L4.34094 117.49V117.51ZM3.19094 118.57L2.13094 118.98L3.19094 119.37V118.58V118.57Z" fill="#ECE7F5" fill-opacity="0.5"/>
<path d="M5.7893 163.81V162.75C5.7893 162.52 5.8193 162.33 5.8493 162.2C5.8993 162.03 5.9793 161.89 6.1093 161.77C6.2293 161.65 6.3893 161.57 6.5793 161.5C6.7593 161.44 6.9893 161.41 7.2593 161.41C7.4993 161.41 7.6993 161.45 7.8693 161.5C8.0793 161.57 8.2493 161.68 8.3693 161.81C8.4693 161.9 8.5493 162.04 8.5993 162.21C8.6393 162.34 8.6593 162.52 8.6593 162.73V163.82H5.7793L5.7893 163.81ZM6.2693 163.24H8.1793V162.8C8.1793 162.65 8.1693 162.52 8.1493 162.46C8.1193 162.37 8.0793 162.28 8.0293 162.23C7.9693 162.16 7.8793 162.12 7.7493 162.07C7.6193 162.03 7.4393 162.01 7.2293 162.01C7.0193 162.01 6.8393 162.03 6.7193 162.07C6.5993 162.11 6.5093 162.16 6.4393 162.23C6.3693 162.3 6.3193 162.39 6.2993 162.51C6.2793 162.58 6.2693 162.74 6.2693 162.98V163.24Z" fill="#ECE7F5" fill-opacity="0.5"/>
<path d="M8.66906 160.99L5.78906 160.98L5.79906 158.85H6.28906L6.27906 160.4H6.90906L6.91906 158.95L7.40906 158.96V160.4H8.18906V158.8H8.67906L8.66906 160.99Z" fill="#ECE7F5" fill-opacity="0.5"/>
<path d="M7.6298 155.47L7.8098 154.9C8.1198 154.99 8.3498 155.14 8.5098 155.34C8.6698 155.54 8.7398 155.79 8.7398 156.1C8.7398 156.48 8.6098 156.8 8.3498 157.04C8.0898 157.29 7.7298 157.41 7.2798 157.41C6.8098 157.41 6.4298 157.29 6.1698 157.04C5.9098 156.79 5.7698 156.47 5.7798 156.06C5.7798 155.71 5.8798 155.42 6.0898 155.2C6.2098 155.08 6.3898 154.98 6.6198 154.91L6.7498 155.48C6.5998 155.51 6.4798 155.58 6.3998 155.69C6.3098 155.8 6.2598 155.93 6.2698 156.09C6.2698 156.3 6.3398 156.48 6.4998 156.6C6.6498 156.74 6.8998 156.81 7.2398 156.81C7.5998 156.81 7.8598 156.74 8.0098 156.62C8.1698 156.49 8.2398 156.32 8.2398 156.11C8.2398 155.96 8.1898 155.82 8.0898 155.72C7.9898 155.61 7.8398 155.53 7.6298 155.48" fill="#ECE7F5" fill-opacity="0.5"/>
<path d="M7.2793 154.58C6.9893 154.58 6.7493 154.54 6.5393 154.45C6.3993 154.38 6.2593 154.3 6.1493 154.18C6.0393 154.07 5.9493 153.94 5.8893 153.81C5.8193 153.63 5.7793 153.42 5.7793 153.19C5.7793 152.77 5.9193 152.43 6.1893 152.18C6.4493 151.92 6.8093 151.79 7.2893 151.79C7.7693 151.79 8.1193 151.92 8.3793 152.18C8.6393 152.43 8.7693 152.77 8.7693 153.19C8.7693 153.62 8.6293 153.96 8.3693 154.21C8.1093 154.46 7.7493 154.58 7.2893 154.58M7.2593 153.98C7.5893 153.98 7.8293 153.92 7.9993 153.76C8.1693 153.61 8.2593 153.42 8.2593 153.19C8.2593 152.96 8.1793 152.77 8.0093 152.62C7.8393 152.47 7.5893 152.4 7.2593 152.4C6.9293 152.4 6.6793 152.47 6.5193 152.61C6.3493 152.76 6.2693 152.94 6.2693 153.19C6.2693 153.43 6.3493 153.62 6.5093 153.77C6.6693 153.92 6.9193 153.99 7.2493 153.99" fill="#ECE7F5" fill-opacity="0.5"/>
<path d="M8.69961 151.4L5.84961 151.39V150.81H8.20961L8.21961 149.37H8.70961L8.69961 151.4Z" fill="#ECE7F5" fill-opacity="0.5"/>
<path d="M7.28906 149.14C6.99906 149.14 6.75906 149.09 6.54906 149.01C6.40906 148.94 6.26906 148.85 6.15906 148.73C6.04906 148.62 5.95906 148.49 5.89906 148.36C5.82906 148.17 5.78906 147.97 5.78906 147.74C5.78906 147.32 5.91906 146.98 6.18906 146.73C6.44906 146.48 6.80906 146.35 7.28906 146.36C7.74906 146.36 8.11906 146.48 8.37906 146.73C8.63906 146.99 8.76906 147.33 8.76906 147.75C8.76906 148.18 8.63906 148.51 8.37906 148.77C8.11906 149.02 7.75906 149.15 7.28906 149.15M7.26906 148.53C7.59906 148.53 7.83906 148.45 8.00906 148.31C8.17906 148.15 8.26906 147.97 8.26906 147.74C8.26906 147.51 8.18906 147.31 8.01906 147.16C7.84906 147.01 7.59906 146.95 7.26906 146.94C6.93906 146.94 6.68906 147.01 6.52906 147.15C6.35906 147.29 6.27906 147.48 6.27906 147.72C6.27906 147.96 6.35906 148.16 6.52906 148.3C6.69906 148.45 6.93906 148.52 7.26906 148.52" fill="#ECE7F5" fill-opacity="0.5"/>
<path d="M8.71984 145.96L5.83984 145.95V145.08L7.79984 144.57L5.83984 144.06L5.84984 143.18L8.72984 143.19L8.71984 143.72H6.45984L8.71984 144.29V144.86L6.45984 145.42L8.71984 145.43V145.96Z" fill="#ECE7F5" fill-opacity="0.5"/>
<path d="M5.83984 142.67V141.52C5.83984 141.29 5.85984 141.12 5.87984 141C5.90984 140.9 5.93984 140.79 5.99984 140.7C6.05984 140.62 6.13984 140.54 6.23984 140.48C6.33984 140.41 6.44984 140.39 6.57984 140.39C6.70984 140.39 6.83984 140.43 6.94984 140.5C7.05984 140.57 7.14984 140.67 7.20984 140.8C7.25984 140.62 7.33984 140.49 7.46984 140.39C7.58984 140.3 7.72984 140.26 7.89984 140.26C8.01984 140.26 8.14984 140.29 8.27984 140.35C8.39984 140.42 8.49984 140.5 8.56984 140.6C8.63984 140.71 8.68984 140.83 8.70984 140.99C8.72984 141.09 8.72984 141.32 8.72984 141.69V142.67H5.83984ZM6.33984 142.09H6.99984V141.71C6.99984 141.48 6.99984 141.34 6.98984 141.28C6.97984 141.18 6.94984 141.1 6.88984 141.04C6.82984 140.98 6.75984 140.96 6.66984 140.96C6.57984 140.96 6.50984 140.98 6.45984 141.03C6.39984 141.09 6.36984 141.15 6.34984 141.25C6.34984 141.31 6.33984 141.47 6.33984 141.74V142.08V142.09ZM7.48984 142.09H8.23984V141.56C8.23984 141.35 8.23984 141.22 8.21984 141.16C8.19984 141.07 8.15984 141 8.10984 140.94C8.04984 140.89 7.96984 140.86 7.86984 140.86C7.78984 140.86 7.71984 140.89 7.65984 140.92C7.59984 140.97 7.55984 141.02 7.52984 141.11C7.49984 141.19 7.48984 141.36 7.48984 141.62V142.09Z" fill="#ECE7F5" fill-opacity="0.5"/>
<path d="M8.73961 139.85H5.84961V139.27H8.73961V139.85Z" fill="#ECE7F5" fill-opacity="0.5"/>
<path d="M8.74937 136.19V136.81L8.08937 137.06V138.22L8.73937 138.46V139.08L5.85938 137.97V137.35L8.74937 136.2V136.19ZM7.59937 137.24L6.53938 137.64L7.59937 138.03V137.24Z" fill="#ECE7F5" fill-opacity="0.5"/>
<path d="M7.22945 218.87L2.43945 220.55L2.44945 219.5L5.98945 218.31L2.44945 217.14L2.45945 216.1L7.23945 217.82L7.22945 218.87Z" fill="#ECE7F5" fill-opacity="0.5"/>
<path d="M7.25094 215.31L2.46094 215.3V214.33L7.25094 214.34V215.31Z" fill="#ECE7F5" fill-opacity="0.5"/>
<path d="M5.50062 210.86H4.69063L4.70063 208.77H6.61063C6.81063 208.98 6.98063 209.27 7.13063 209.65C7.28063 210.03 7.35063 210.43 7.35063 210.82C7.35063 211.32 7.24063 211.76 7.03063 212.13C6.82063 212.5 6.52063 212.78 6.13063 212.97C5.74063 213.15 5.30063 213.25 4.85063 213.25C4.35063 213.25 3.90063 213.14 3.52063 212.93C3.13063 212.72 2.83062 212.42 2.63062 212.02C2.46062 211.71 2.39062 211.32 2.39062 210.87C2.39062 210.28 2.51063 209.81 2.77063 209.48C3.02063 209.14 3.36063 208.93 3.80063 208.84L3.98062 209.8C3.75062 209.86 3.56062 209.99 3.42062 210.18C3.28062 210.36 3.22063 210.6 3.22063 210.88C3.22063 211.3 3.35063 211.64 3.62063 211.89C3.88063 212.14 4.28063 212.27 4.81063 212.27C5.38063 212.27 5.81063 212.15 6.10063 211.89C6.38063 211.64 6.53063 211.31 6.54063 210.89C6.54063 210.69 6.50062 210.5 6.42062 210.28C6.34062 210.08 6.24063 209.9 6.13063 209.76H5.52063V210.87L5.50062 210.86Z" fill="#ECE7F5" fill-opacity="0.5"/>
<path d="M7.27047 207.59L2.48047 207.57V206.6L7.27047 206.62V207.59Z" fill="#ECE7F5" fill-opacity="0.5"/>
<path d="M7.2793 205.34L2.5293 205.32V204.35L6.4693 204.36L6.4793 201.97L7.2793 201.98V205.34Z" fill="#ECE7F5" fill-opacity="0.5"/>
<path d="M7.3 196.62V197.66L6.21 198.07V200L7.28 200.4V201.42L2.5 199.55V198.53L7.29 196.61L7.3 196.62ZM5.4 198.39L3.62 199.06L5.4 199.71V198.39Z" fill="#ECE7F5" fill-opacity="0.5"/>
<path d="M2.51953 195.76V194C2.51953 193.6 2.55953 193.3 2.61953 193.09C2.69953 192.81 2.84953 192.57 3.06953 192.37C3.27953 192.17 3.52953 192.02 3.83953 191.91C4.14953 191.81 4.52953 191.76 4.96953 191.76C5.36953 191.76 5.70953 191.82 5.98953 191.91C6.33953 192.03 6.61953 192.2 6.82953 192.42C6.99953 192.59 7.11953 192.81 7.20953 193.1C7.26953 193.31 7.30953 193.6 7.30953 193.95V195.76L2.51953 195.75V195.76ZM3.32953 194.8H6.49953V194.09C6.49953 193.81 6.48953 193.63 6.45953 193.5C6.41953 193.34 6.35953 193.21 6.25953 193.12C6.16953 193.01 6.01953 192.93 5.79953 192.87C5.58953 192.8 5.29953 192.77 4.92953 192.77C4.55953 192.77 4.27953 192.8 4.07953 192.87C3.87953 192.93 3.72953 193.03 3.61953 193.13C3.50953 193.25 3.42953 193.4 3.38953 193.58C3.35953 193.71 3.33953 193.98 3.33953 194.37V194.81L3.32953 194.8Z" fill="#ECE7F5" fill-opacity="0.5"/>
<path d="M4.94945 190.8C4.45945 190.8 4.05945 190.73 3.71945 190.58C3.46945 190.47 3.24945 190.32 3.05945 190.13C2.85945 189.94 2.71945 189.74 2.62945 189.51C2.50945 189.21 2.43945 188.87 2.43945 188.48C2.43945 187.78 2.65945 187.21 3.09945 186.79C3.53945 186.36 4.14945 186.16 4.92945 186.16C5.70945 186.16 6.30945 186.37 6.74945 186.79C7.18945 187.22 7.39945 187.78 7.39945 188.48C7.39945 189.19 7.17945 189.76 6.73945 190.18C6.29945 190.6 5.69945 190.8 4.92945 190.8M4.91945 189.8C5.45945 189.8 5.87945 189.68 6.15945 189.43C6.43945 189.18 6.58945 188.86 6.58945 188.47C6.58945 188.09 6.43945 187.77 6.16945 187.52C5.88945 187.27 5.47945 187.14 4.91945 187.14C4.36945 187.14 3.95945 187.25 3.68945 187.5C3.40945 187.73 3.27945 188.06 3.27945 188.46C3.27945 188.86 3.40945 189.19 3.68945 189.43C3.95945 189.67 4.36945 189.79 4.92945 189.79" fill="#ECE7F5" fill-opacity="0.5"/>
<path d="M6.93008 110.79L2.33008 110.77V109.27C2.33008 108.64 2.55008 108.42 2.81008 108.25C3.06008 108.09 3.33008 108.07 3.42008 108.07C3.99008 108.07 4.38008 108.27 4.51008 108.86H4.54008C4.62008 108.21 5.01008 107.92 5.65008 107.92C6.82008 107.92 6.94008 108.78 6.94008 109.31V110.78L6.93008 110.79ZM4.27008 110.19V109.34C4.27008 108.88 3.99008 108.65 3.54008 108.65C3.16008 108.65 2.84008 108.86 2.84008 109.36V110.19H4.26008H4.27008ZM6.42008 110.2V109.37C6.42008 108.75 5.98008 108.52 5.64008 108.52C4.91008 108.52 4.78008 108.97 4.78008 109.57V110.19H6.42008V110.2Z" fill="#ECE7F5" fill-opacity="0.5"/>
<path d="M2.34961 106.13V105.39L6.94961 103.91V104.56L5.84961 104.89V106.67L6.93961 107.02V107.61L2.34961 106.14V106.13ZM2.88961 105.78L5.33961 106.52V105.05L2.88961 105.78Z" fill="#ECE7F5" fill-opacity="0.5"/>
<path d="M2.35961 100.33L6.95961 100.34L6.94961 101.14L2.95961 102.94V102.95L6.94961 102.97V103.49L2.34961 103.48L2.35961 102.65L6.28961 100.87V100.86L2.35961 100.85V100.33Z" fill="#ECE7F5" fill-opacity="0.5"/>
<path d="M3.6393 97.4698C3.3793 97.4698 3.1193 97.4799 2.9693 97.5999C2.8193 97.7199 2.7693 97.9898 2.7693 98.1198C2.7693 98.5998 3.0593 98.7898 3.1193 98.8098C3.1693 98.8298 3.2893 98.9398 4.0793 98.9498H5.3093C6.4393 98.9498 6.5693 98.5899 6.5793 98.1299C6.5793 97.9499 6.5193 97.4098 5.6193 97.3998V96.7898C7.0693 96.7698 7.0693 97.7898 7.0693 98.0898C7.0693 98.6598 7.0293 99.5398 5.2493 99.5298H3.9493C2.6493 99.5298 2.2793 98.9498 2.2793 98.0398C2.2793 97.1298 2.7593 96.7799 3.6493 96.8499V97.4498L3.6393 97.4698Z" fill="#ECE7F5" fill-opacity="0.5"/>
<path d="M5.2893 96.2098H3.7793C2.8693 96.2098 2.2793 95.7298 2.2793 94.7598C2.2793 93.7898 2.8693 93.3198 3.7893 93.3198H5.2993C6.5793 93.3198 7.0793 93.7998 7.0793 94.7698C7.0793 95.7398 6.5693 96.2098 5.2993 96.2098M5.3193 93.9198H3.7693C2.8093 93.9198 2.7793 94.5698 2.7693 94.7598C2.7693 94.9498 2.7993 95.6098 3.7593 95.6098H5.3093C6.3193 95.6098 6.5693 95.3198 6.5693 94.7698C6.5693 94.2198 6.3193 93.9198 5.3093 93.9198" fill="#ECE7F5" fill-opacity="0.5"/>
<path d="M6.97891 92.5298L2.37891 92.5098L2.38891 91.9298L6.46891 91.9398V90.2598H6.97891V92.5298Z" fill="#ECE7F5" fill-opacity="0.5"/>
<path d="M5.30883 89.9398H3.79883C2.88883 89.9398 2.29883 89.4598 2.29883 88.4898C2.29883 87.5198 2.88883 87.0498 3.80883 87.0498H5.31883C6.59883 87.0498 7.09883 87.5298 7.09883 88.4998C7.09883 89.4698 6.58883 89.9398 5.31883 89.9398M5.33883 87.6498H3.78883C2.82883 87.6498 2.79883 88.2998 2.78883 88.4898C2.78883 88.6798 2.81883 89.3398 3.77883 89.3398H5.32883C6.33883 89.3398 6.58883 89.0498 6.58883 88.4998C6.58883 87.9398 6.33883 87.6498 5.32883 87.6498" fill="#ECE7F5" fill-opacity="0.5"/>
<path d="M6.99844 85.7097V86.2597L2.39844 86.2497L2.40844 85.2997L6.26844 84.1497V84.1397L2.40844 82.9597V81.9897L7.00844 82.0097V82.5897L2.91844 82.5797V82.5897L6.99844 83.8897V84.4397L2.90844 85.6897V85.6997L6.99844 85.7097Z" fill="#ECE7F5" fill-opacity="0.5"/>
<path d="M7.01016 81.14L2.41016 81.12V79.62C2.41016 78.99 2.63016 78.77 2.89016 78.6C3.14016 78.44 3.41016 78.42 3.50016 78.42C4.07016 78.42 4.46016 78.62 4.59016 79.21H4.62016C4.70016 78.56 5.09016 78.27 5.73015 78.27C6.90016 78.27 7.02016 79.13 7.02016 79.66V81.13L7.01016 81.14ZM4.35016 80.55V79.7C4.35016 79.24 4.07016 79.01 3.62016 79.01C3.24016 79.01 2.92016 79.22 2.92016 79.72V80.55H4.34016H4.35016ZM6.50016 80.55V79.72C6.50016 79.1 6.06016 78.87 5.72016 78.87C4.99016 78.87 4.86016 79.32 4.86016 79.92V80.54H6.50016V80.55Z" fill="#ECE7F5" fill-opacity="0.5"/>
<path d="M7.01969 76.8699V77.4599L2.42969 77.4399V76.8599L7.01969 76.8699Z" fill="#ECE7F5" fill-opacity="0.5"/>
<path d="M2.43945 74.9397V74.1997L7.03945 72.7197V73.3697L5.93945 73.6997V75.4797L7.02945 75.8297V76.4197L2.43945 74.9497V74.9397ZM2.97945 74.5797L5.42945 75.3197V73.8497L2.97945 74.5797Z" fill="#ECE7F5" fill-opacity="0.5"/>
<path d="M5.66978 70.68H5.79978C6.41978 70.68 6.61978 70.29 6.61978 69.91C6.61978 69.45 6.42978 69.09 5.87978 69.09C4.85978 69.09 4.96978 71.15 3.58978 71.14C2.76978 71.14 2.33978 70.56 2.34978 69.79C2.34978 68.95 2.75978 68.48 3.68978 68.52V69.13C3.18978 69.13 2.84978 69.28 2.84978 69.84C2.84978 70.19 3.02978 70.55 3.51978 70.55C4.52978 70.55 4.38978 68.49 5.84978 68.5C6.81978 68.5 7.12978 69.17 7.11978 69.93C7.12978 71.29 6.08978 71.28 5.65978 71.26V70.68H5.66978Z" fill="#ECE7F5" fill-opacity="0.5"/>
<path d="M7.04867 67.3398H6.38867V67.9398H7.04867V67.3398Z" fill="#ECE7F5" fill-opacity="0.5"/>
<path d="M2.46875 65.5901V64.8501L7.06875 63.3701V64.0201L5.96875 64.3501V66.1301L7.05875 66.4801V67.0701L2.46875 65.6001V65.5901ZM3.00875 65.2301L5.45875 65.9701V64.5001L3.00875 65.2301Z" fill="#ECE7F5" fill-opacity="0.5"/>
<path d="M7.05844 62.4897H6.39844V63.0897H7.05844V62.4897Z" fill="#ECE7F5" fill-opacity="0.5"/>
<path d="M7.06851 60.5997L2.47852 60.5897L2.48852 58.2197H2.99852L2.98851 59.9997L4.46852 60.0097V58.3497L4.97851 58.3597L4.96852 60.0097H6.55852L6.56851 58.1997H7.07852L7.06851 60.5997Z" fill="#ECE7F5" fill-opacity="0.5"/>
<path d="M7.14873 56.7496C7.14873 57.4496 6.83873 57.8796 6.09873 57.8596V57.2697C6.28873 57.2697 6.71873 57.2697 6.71873 56.7397C6.71873 56.2097 6.55873 56.1796 6.22873 56.1796C5.65873 56.1796 5.63873 57.7796 4.67873 57.7796C4.33873 57.7796 3.79873 57.5696 3.80873 56.6696C3.80873 56.0996 4.08873 55.6097 4.71873 55.6597V56.2397C4.37873 56.2397 4.19873 56.4097 4.19873 56.7397C4.19873 57.0197 4.34873 57.2397 4.62873 57.2397C5.19873 57.2397 5.18873 55.6396 6.16873 55.6396C6.87873 55.6396 7.14873 56.1296 7.14873 56.7596" fill="#ECE7F5" fill-opacity="0.5"/>
<path d="M3.8793 55.0398H3.2593L3.0293 54.5198H3.8793V53.8198H4.2693V54.5198H6.2393C6.4393 54.5198 6.6993 54.5198 6.7093 54.0498C6.7093 54.0098 6.6893 53.9298 6.6793 53.8198H7.0793C7.0893 53.9898 7.1293 54.1598 7.1293 54.3298C7.1293 54.8298 6.9193 55.0498 6.5493 55.0498H4.2693V55.5698H3.8793V55.0398Z" fill="#ECE7F5" fill-opacity="0.5"/>
<path d="M6.62859 51.8998C6.99859 52.0698 7.14859 52.3198 7.14859 52.7198C7.14859 53.3998 6.70859 53.5998 6.08859 53.5898C5.11859 53.5898 5.07859 52.6298 5.09859 51.8998C4.66859 51.8798 4.20859 51.8798 4.20859 52.4398C4.20859 52.7898 4.43859 52.9698 4.77859 52.9398V53.5098C4.05859 53.4798 3.80859 53.0998 3.80859 52.4198C3.80859 51.5898 4.23859 51.3798 4.77859 51.3798H6.32859C6.57859 51.3798 6.83859 51.3598 7.08859 51.3198V51.8898H6.61859L6.62859 51.8998ZM6.13859 53.0798C6.44859 53.0798 6.72859 52.9298 6.72859 52.5798C6.72859 52.2598 6.53859 51.8598 5.49859 51.9098C5.49859 52.4098 5.45859 53.0798 6.13859 53.0798Z" fill="#ECE7F5" fill-opacity="0.5"/>
<path d="M7.10977 50.0397V50.5597L2.50977 50.5497V50.0297H4.20977V50.0097C3.95977 49.8297 3.82977 49.6097 3.82977 49.2997C3.82977 48.2697 4.74977 48.2397 5.55977 48.2497C6.96977 48.2497 7.16977 48.7697 7.16977 49.2897C7.16977 49.6297 7.01977 49.8497 6.71977 50.0297V50.0497H7.09977L7.10977 50.0397ZM6.73977 49.4497C6.73977 48.7997 6.03977 48.7897 5.55977 48.7897C4.69977 48.7897 4.25977 48.8597 4.25977 49.4197C4.25977 49.9997 4.94977 50.0297 5.36977 50.0297C5.85977 50.0297 6.74977 50.0897 6.74977 49.4497" fill="#ECE7F5" fill-opacity="0.5"/>
<path d="M7.10953 47.1401V47.6601L2.51953 47.6501V47.1201L7.10953 47.1401Z" fill="#ECE7F5" fill-opacity="0.5"/>
<path d="M5.6797 45.9496C6.5797 45.9496 6.7597 45.7097 6.7597 45.2997C6.7597 44.9497 6.4697 44.7597 6.1497 44.7397V44.1696C6.8697 44.1696 7.1897 44.6196 7.1897 45.2896C7.1897 45.9696 6.97971 46.5096 5.55971 46.5096C4.61971 46.5096 3.8397 46.3996 3.8497 45.2796C3.8497 44.3696 4.3497 44.1396 5.4197 44.1396H5.6897V45.9496H5.6797ZM5.28971 44.6897C4.35971 44.6897 4.2397 44.9497 4.2397 45.3297C4.2397 45.6597 4.3997 45.9397 5.2797 45.9397V44.6897H5.28971Z" fill="#ECE7F5" fill-opacity="0.5"/>
<path d="M4.94947 41.82C4.41947 41.8 4.27947 42.0599 4.27947 42.2599C4.27947 42.6699 4.46947 42.94 5.34947 42.94C6.38947 42.94 6.76947 42.81 6.76947 42.27C6.76947 42.15 6.64947 41.79 6.05947 41.8V41.2499C6.96947 41.2299 7.19947 41.8999 7.18947 42.2599C7.18947 42.9399 6.97947 43.4799 5.56947 43.4799C4.62947 43.4799 3.84947 43.3699 3.85947 42.2499C3.85947 41.6099 4.23947 41.23 4.95947 41.27V41.8099L4.94947 41.82Z" fill="#ECE7F5" fill-opacity="0.5"/>
<path d="M2.53906 40.5797V39.9897H3.09906V40.5797H2.53906ZM7.12906 40.0397V40.5597H3.91906V40.0397L7.12906 40.0497V40.0397Z" fill="#ECE7F5" fill-opacity="0.5"/>
<path d="M7.13914 37.7799H4.90914C4.58914 37.7799 4.28914 37.8599 4.28914 38.2799C4.28914 38.4399 4.37914 38.6599 4.49914 38.7399C4.65914 38.8299 4.84914 38.8599 4.96914 38.8599H7.12914V39.3899L4.58914 39.3799C4.36914 39.3799 4.13914 39.3999 3.91914 39.4099V38.8599H4.32914V38.8399C3.98914 38.6899 3.86914 38.4099 3.86914 38.0399C3.86914 37.7399 3.98914 37.4099 4.28914 37.2899C3.94914 37.1099 3.87914 36.8199 3.87914 36.5299C3.87914 36.1899 3.95914 35.6499 4.71914 35.6499H7.15914V36.1799H4.92914C4.60914 36.1799 4.30914 36.2699 4.30914 36.6899C4.30914 36.8899 4.30914 36.9399 4.42914 37.0799C4.54914 37.2299 4.86914 37.2599 4.99914 37.2599H7.15914V37.7899L7.13914 37.7799Z" fill="#ECE7F5" fill-opacity="0.5"/>
<path d="M2.54883 35.0197V34.4297H3.10883V35.0097H2.54883V35.0197ZM7.14883 34.4797V34.9997H3.93883V34.4797L7.14883 34.4897V34.4797Z" fill="#ECE7F5" fill-opacity="0.5"/>
<path d="M5.709 33.2897C6.609 33.2897 6.779 33.0497 6.789 32.6397C6.789 32.2897 6.499 32.0997 6.179 32.0797V31.5097C6.899 31.5097 7.219 31.9597 7.219 32.6297C7.219 33.3097 7.009 33.8497 5.589 33.8397C4.649 33.8397 3.869 33.7297 3.879 32.6097C3.879 31.6997 4.379 31.4697 5.449 31.4697H5.719V33.2797L5.709 33.2897ZM5.319 32.0297C4.389 32.0297 4.269 32.2897 4.269 32.6697C4.269 32.9997 4.429 33.2797 5.319 33.2797V32.0297Z" fill="#ECE7F5" fill-opacity="0.5"/>
<path d="M7.15844 29.0998H4.92844C4.58844 29.0998 4.30844 29.2098 4.30844 29.6598C4.30844 30.2298 4.80844 30.3098 5.25844 30.3098H7.15844V30.8398L4.61844 30.8298C4.39844 30.8298 4.16844 30.8398 3.94844 30.8598V30.2998H4.36844V30.2698C4.00844 30.0598 3.89844 29.8198 3.89844 29.4098C3.89844 28.7198 4.31844 28.5498 4.94844 28.5498H7.17844V29.0798L7.15844 29.0998Z" fill="#ECE7F5" fill-opacity="0.5"/>
<path d="M3.95938 27.8201H3.33937L3.10938 27.3001H3.95938V26.6001H4.34937V27.3001H6.31937C6.51937 27.3001 6.77938 27.3001 6.78938 26.8301C6.78938 26.7901 6.76937 26.7101 6.75937 26.6001H7.15937C7.16937 26.7701 7.20938 26.9401 7.20938 27.1101C7.20938 27.6101 6.99938 27.8301 6.62938 27.8301H4.34937V28.3501H3.95938V27.8201Z" fill="#ECE7F5" fill-opacity="0.5"/>
<path d="M5.62025 26.4298C4.67025 26.4298 3.90025 26.3198 3.91025 25.1998C3.91025 24.0898 4.69025 23.9798 5.63025 23.9898C7.05025 23.9898 7.25025 24.5298 7.25025 25.2198C7.25025 25.9098 7.04025 26.4398 5.62025 26.4398M5.40025 24.5298C4.52025 24.5298 4.33025 24.7998 4.33025 25.1998C4.33025 25.5998 4.52025 25.8698 5.39025 25.8798C6.43025 25.8798 6.81025 25.7498 6.81025 25.2098C6.81025 24.6698 6.44025 24.5398 5.39025 24.5298" fill="#ECE7F5" fill-opacity="0.5"/>
<path d="M7.18984 22.0897L2.58984 22.0697V20.5697C2.58984 19.9397 2.80984 19.7197 3.06984 19.5497C3.31984 19.3897 3.58984 19.3697 3.67984 19.3697C4.24984 19.3697 4.63984 19.5697 4.76984 20.1597H4.79984C4.87984 19.5097 5.26984 19.2197 5.90984 19.2197C7.07984 19.2197 7.19984 20.0797 7.19984 20.6097V22.0797L7.18984 22.0897ZM4.52984 21.4997V20.6497C4.52984 20.1897 4.24984 19.9597 3.79984 19.9597C3.41984 19.9597 3.09984 20.1697 3.09984 20.6697V21.4997H4.51984H4.52984ZM6.67984 21.4997V20.6697C6.67984 20.0497 6.23984 19.8197 5.89984 19.8197C5.16984 19.8197 5.03984 20.2697 5.03984 20.8697V21.4897H6.67984V21.4997Z" fill="#ECE7F5" fill-opacity="0.5"/>
<path d="M6.73992 16.8898C7.10992 17.0598 7.26992 17.3098 7.25992 17.7098C7.25992 18.3898 6.81992 18.5898 6.19992 18.5898C5.22992 18.5898 5.18992 17.6298 5.20992 16.8998C4.77992 16.8798 4.31992 16.8798 4.31992 17.4398C4.31992 17.7898 4.54992 17.9698 4.88992 17.9398V18.5098C4.16992 18.4798 3.91992 18.0998 3.91992 17.4198C3.91992 16.5898 4.34992 16.3798 4.88992 16.3798H6.43992C6.68992 16.3798 6.94992 16.3598 7.19992 16.3198V16.8898H6.72992H6.73992ZM6.23992 18.0598C6.54992 18.0598 6.82992 17.9098 6.82992 17.5598C6.82992 17.2398 6.63992 16.8398 5.59992 16.8898C5.59992 17.3898 5.55992 18.0598 6.23992 18.0598Z" fill="#ECE7F5" fill-opacity="0.5"/>
<path d="M7.20922 13.8398H4.97922C4.63922 13.8398 4.35922 13.9498 4.35922 14.3998C4.35922 14.9798 4.85922 15.0598 5.30922 15.0598H7.20922V15.5898L4.66922 15.5798C4.44922 15.5798 4.21922 15.5898 3.99922 15.6098V15.0498H4.41922V15.0198C4.05922 14.8098 3.94922 14.5698 3.94922 14.1598C3.94922 13.7498 4.36922 13.2998 4.99922 13.2998H7.22922V13.8298L7.20922 13.8398Z" fill="#ECE7F5" fill-opacity="0.5"/>
<path d="M5.03955 10.9401C4.50955 10.9201 4.36955 11.1801 4.36955 11.3801C4.36955 11.7901 4.55955 12.0501 5.43955 12.0601C6.47955 12.0601 6.85955 11.9301 6.85955 11.3901C6.85955 11.2701 6.73955 10.9101 6.14955 10.9201V10.3701C7.05955 10.3501 7.28955 11.0201 7.27955 11.3801C7.27955 12.0601 7.06955 12.6001 5.64955 12.5901C4.70955 12.5901 3.92955 12.4801 3.93955 11.3601C3.93955 10.7201 4.31955 10.3401 5.03955 10.3801V10.9201V10.9401Z" fill="#ECE7F5" fill-opacity="0.5"/>
<path d="M6.75945 8.01971C7.12945 8.18971 7.28945 8.43971 7.27945 8.83971C7.27945 9.51971 6.83945 9.71971 6.21945 9.71971C5.24945 9.71971 5.20945 8.75971 5.22945 8.02971C4.79945 8.00971 4.33945 8.00971 4.33945 8.56971C4.33945 8.91971 4.56945 9.09971 4.90945 9.06971V9.63971C4.18945 9.60971 3.93945 9.22971 3.93945 8.54971C3.93945 7.71971 4.36945 7.50971 4.90945 7.50971H6.45945C6.70945 7.50971 6.96945 7.48971 7.21945 7.44971V8.01971H6.74945H6.75945ZM6.26945 9.18971C6.57945 9.18971 6.85945 9.03971 6.85945 8.68971C6.85945 8.36971 6.66945 7.96971 5.62945 8.01971C5.62945 8.51971 5.58945 9.18971 6.26945 9.18971Z" fill="#ECE7F5" fill-opacity="0.5"/>
<path d="M4.49922 6.16966C4.00922 5.93966 3.94922 5.66967 3.94922 5.15967H4.48922C4.48922 5.15967 4.47922 5.25967 4.46922 5.29967C4.45922 5.34967 4.44922 5.38967 4.44922 5.43967C4.44922 6.01967 4.88922 6.16966 5.31922 6.16966H7.21922V6.69966H4.00922V6.16966H4.48922H4.49922Z" fill="#ECE7F5" fill-opacity="0.5"/>
<path d="M2.63867 4.84976V4.25977H3.19867V4.84976H2.63867ZM7.23867 4.30976V4.82977H4.02867V4.30976L7.23867 4.31976V4.30976Z" fill="#ECE7F5" fill-opacity="0.5"/>
<path d="M5.67885 3.72002C4.72885 3.72002 3.95885 3.61002 3.96885 2.49002C3.96885 1.38002 4.74885 1.27002 5.68885 1.27002C7.10885 1.27002 7.30885 1.82002 7.30885 2.50002C7.30885 3.18002 7.09885 3.72002 5.67885 3.71002M5.45885 1.82002C4.57885 1.82002 4.38885 2.09002 4.38885 2.49002C4.38885 2.89002 4.57885 3.16002 5.44885 3.17002C6.48885 3.17002 6.86885 3.04002 6.86885 2.50002C6.86885 1.96002 6.49885 1.82002 5.44885 1.82002" fill="#ECE7F5" fill-opacity="0.5"/>
<path d="M7.24984 0.129883H6.58984V0.729889H7.24984V0.129883Z" fill="#ECE7F5" fill-opacity="0.5"/>
</svg>
