<svg width="26" height="14" viewBox="0 0 26 14" fill="none" xmlns="http://www.w3.org/2000/svg">
<g opacity="0.5">
<path fill-rule="evenodd" clip-rule="evenodd" d="M21.9709 8.11022C22.0509 8.16022 22.1009 8.24021 22.1209 8.33021L22.4309 9.33021C22.4309 9.33021 22.4508 9.41022 22.4508 9.45022C22.4508 9.49022 22.4509 9.53021 22.4209 9.56021C22.3909 9.59021 22.3809 9.63021 22.3509 9.66021C22.3209 9.69021 22.2909 9.71021 22.2509 9.72021C20.7309 10.0902 19.2409 10.5402 17.7709 11.0802C17.7209 11.1002 17.6709 11.1102 17.6209 11.1102C17.5709 11.1102 17.5209 11.1002 17.4709 11.0702C17.4209 11.0502 17.3809 11.0202 17.3409 10.9802C17.3009 10.9402 17.2809 10.9002 17.2609 10.8502C17.2109 10.6602 17.1709 10.5102 17.1409 10.3702C17.0909 10.1702 17.0509 9.99021 16.9709 9.74021C16.9509 9.65021 16.9709 9.55021 17.0109 9.47021C17.0509 9.39021 17.1309 9.32022 17.2209 9.29022C18.6909 8.79022 20.1908 8.38021 21.7108 8.06021C21.8008 8.05021 21.8909 8.07022 21.9709 8.12022V8.11022ZM22.1209 5.72021C22.1009 5.64021 22.0509 5.57022 21.9809 5.52022C21.9109 5.47021 21.8309 5.44021 21.7409 5.45021C19.3009 5.74021 16.9209 6.38021 14.6709 7.37021C14.5909 7.41021 14.5209 7.48022 14.4809 7.56021C14.4409 7.64021 14.4208 7.74021 14.4408 7.83021V7.85021C14.5308 8.32021 14.5809 8.54021 14.6709 9.00021C14.6709 9.04021 14.6908 9.09022 14.7108 9.12022C14.7408 9.16022 14.7709 9.19021 14.8109 9.21021C14.8509 9.23021 14.8908 9.24021 14.9408 9.24021C14.9808 9.24021 15.0308 9.22022 15.0708 9.20022C17.3608 8.18022 19.7909 7.47021 22.2709 7.08021C22.3109 7.08021 22.3509 7.05021 22.3809 7.03021C22.4109 7.01021 22.4408 6.97021 22.4608 6.94021C22.4808 6.90021 22.4909 6.86021 22.4909 6.82021C22.4909 6.78021 22.4808 6.74021 22.4608 6.70021C22.4108 6.56021 22.3708 6.44021 22.3308 6.32021C22.2708 6.13021 22.2109 5.95021 22.1209 5.72021ZM15.9408 5.65021C15.9408 5.65021 15.8909 5.57021 15.8809 5.53021C15.8209 5.32021 15.7809 5.17022 15.7509 5.02022C15.7109 4.84022 15.6709 4.67021 15.5909 4.44021C15.5709 4.34021 15.5909 4.24021 15.6409 4.16021C15.6909 4.08021 15.7709 4.01021 15.8609 3.98021C17.3609 3.55021 18.8909 3.24022 20.4309 3.06021C20.5209 3.06021 20.6009 3.08021 20.6709 3.12021C20.7409 3.17021 20.8008 3.24021 20.8308 3.32021C20.9008 3.52021 20.9509 3.67021 21.0109 3.82021C21.0609 3.97021 21.1208 4.12021 21.1908 4.32021C21.2108 4.36021 21.2209 4.40021 21.2209 4.45021C21.2209 4.49021 21.2108 4.54021 21.1908 4.58021C21.1708 4.62021 21.1409 4.65021 21.1009 4.68021C21.0609 4.71022 21.0209 4.72021 20.9809 4.73021C19.4009 4.95021 17.8309 5.30022 16.3009 5.77022C16.2609 5.79022 16.2109 5.79021 16.1709 5.79021C16.1309 5.79021 16.0809 5.78021 16.0409 5.76021C16.0009 5.74021 15.9708 5.71022 15.9408 5.68021V5.65021ZM24.2108 10.6102C24.9308 9.55021 25.3208 8.30021 25.3308 7.02022C25.3308 5.29022 24.6509 3.63021 23.4309 2.40021C22.2109 1.17021 20.5608 0.480215 18.8308 0.470215C17.5508 0.470215 16.2909 0.850215 15.2309 1.56021C14.1709 2.27022 13.3309 3.28021 12.8409 4.47021C12.3509 5.65021 12.2208 6.96021 12.4608 8.22021C12.7108 9.48021 13.3209 10.6402 14.2209 11.5402C15.1209 12.4502 16.2809 13.0702 17.5309 13.3302C18.7909 13.5902 20.0909 13.4602 21.2809 12.9802C22.4709 12.5002 23.4808 11.6702 24.2008 10.6102H24.2108Z" fill="#200020"/>
<path d="M6.7605 12.2201L7.05054 11.5001L5.34045 7.07012H6.08044L7.43054 10.7201L8.86047 7.07012H9.60046L7.40051 12.4201C7.26051 12.7801 7.09051 13.0301 6.90051 13.1701C6.71051 13.3201 6.45049 13.4001 6.13049 13.4001C6.07049 13.4001 6.00054 13.4001 5.93054 13.3801C5.86054 13.3801 5.78044 13.3601 5.70044 13.3301V12.7401C5.79044 12.7601 5.86052 12.7701 5.91052 12.7701C5.96052 12.7701 6.02055 12.7701 6.06055 12.7701C6.23055 12.7701 6.37047 12.7201 6.48047 12.6301C6.60047 12.5501 6.69051 12.4001 6.77051 12.2001L6.7605 12.2201ZM2.65051 7.60012C2.39051 7.60012 2.15053 7.65012 1.92053 7.76012C1.70053 7.86012 1.52049 8.01012 1.38049 8.21012V10.3801C1.53049 10.5701 1.71054 10.7301 1.93054 10.8301C2.15054 10.9401 2.39051 10.9901 2.65051 10.9901C3.09051 10.9901 3.4605 10.8301 3.7605 10.5101C4.0605 10.1801 4.21045 9.78012 4.21045 9.29012C4.21045 8.80012 4.0605 8.40012 3.7605 8.08012C3.4605 7.75012 3.09051 7.59012 2.65051 7.59012V7.60012ZM4.86047 9.29012C4.86047 9.61012 4.81044 9.91012 4.70044 10.1901C4.60044 10.4701 4.4505 10.7101 4.2605 10.9201C4.0705 11.1201 3.85046 11.2801 3.60046 11.4001C3.35046 11.5201 3.07052 11.5701 2.78052 11.5701C2.49052 11.5701 2.24049 11.5201 2.00049 11.4101C1.76049 11.2901 1.56049 11.1301 1.38049 10.9301V11.5101H0.730469V5.01012L1.3905 4.87012V7.68012C1.5605 7.47012 1.7705 7.31012 2.0105 7.20012C2.2505 7.08012 2.52043 7.02012 2.82043 7.02012C3.12043 7.02012 3.37048 7.08012 3.62048 7.20012C3.87048 7.32012 4.09051 7.48012 4.27051 7.68012C4.45051 7.88012 4.59044 8.12012 4.70044 8.40012C4.81044 8.68012 4.86047 8.98012 4.86047 9.29012Z" fill="#200020"/>
</g>
</svg>
