<svg width="293" height="283" viewBox="0 0 293 283" fill="none" xmlns="http://www.w3.org/2000/svg">
<g opacity="0.6">
<path d="M142.331 132.165L142.331 10.1665C142.331 4.5517 137.78 -1.98961e-07 132.165 -4.44393e-07L10.1666 -5.7771e-06C4.55177 -6.02253e-06 7.6095e-05 4.5517 7.58496e-05 10.1665L7.05168e-05 132.165C7.02714e-05 137.779 4.55177 142.331 10.1666 142.331L132.165 142.331C137.78 142.331 142.331 137.779 142.331 132.165Z" fill="#F1BFDA"/>
<path d="M71.1657 243.992L132.165 243.992C137.78 243.992 142.331 239.441 142.331 233.826L142.331 172.827C142.331 167.212 137.78 162.66 132.165 162.66L71.1657 162.66C65.5509 162.66 60.9992 167.212 60.9992 172.827L60.9992 233.826C60.9992 239.441 65.5509 243.992 71.1657 243.992Z" fill="#F1BFDA"/>
<path d="M10.1689 305L40.6684 305C46.2833 305 50.835 300.448 50.835 294.834L50.835 264.334C50.835 258.719 46.2833 254.168 40.6684 254.168L10.1689 254.168C4.5541 254.168 0.00239384 258.719 0.00239359 264.334L0.00239226 294.834C0.00239201 300.448 4.5541 305 10.1689 305Z" fill="#F1BFDA"/>
<path d="M162.661 172.835L162.661 294.834C162.661 300.448 167.213 305 172.828 305L294.826 305C300.441 305 304.993 300.448 304.993 294.834L304.993 172.835C304.993 167.221 300.441 162.669 294.826 162.669L172.828 162.669C167.213 162.669 162.661 167.221 162.661 172.835Z" fill="#F1BFDA"/>
<path d="M233.827 60.9981L172.828 60.9981C167.213 60.9981 162.661 65.5498 162.661 71.1646L162.661 132.164C162.661 137.779 167.213 142.33 172.828 142.33L233.827 142.33C239.442 142.33 243.993 137.779 243.993 132.164L243.993 71.1646C243.993 65.5498 239.442 60.9981 233.827 60.9981Z" fill="#F1BFDA"/>
<path d="M294.824 1.77757e-06L264.324 4.44392e-07C258.709 1.98961e-07 254.157 4.5517 254.157 10.1665L254.157 40.6661C254.157 46.2809 258.709 50.8326 264.324 50.8326L294.824 50.8326C300.438 50.8326 304.99 46.2809 304.99 40.6661L304.99 10.1665C304.99 4.55171 300.438 2.023e-06 294.824 1.77757e-06Z" fill="#F1BFDA"/>
</g>
</svg>
