<svg xmlns="http://www.w3.org/2000/svg" xmlns:xlink="http://www.w3.org/1999/xlink" width="1278" zoomAndPan="magnify" viewBox="0 0 958.5 299.999988" height="400" preserveAspectRatio="xMidYMid meet" version="1.0"><defs><clipPath id="eed99d5b7d"><path d="M 0 0.078125 L 338 0.078125 L 338 109 L 0 109 Z M 0 0.078125 " clip-rule="nonzero"/></clipPath><clipPath id="c9a7a3f8a4"><path d="M -74.332031 108.335938 L 22.730469 -307.847656 L 386.359375 -223.039062 L 289.292969 193.144531 Z M -74.332031 108.335938 " clip-rule="nonzero"/></clipPath><clipPath id="db74d4da8f"><path d="M 337.753906 -14.644531 L 22.589844 -307.238281 L -74.332031 108.335938 Z M 337.753906 -14.644531 " clip-rule="nonzero"/></clipPath><clipPath id="d8497b7e8e"><path d="M 0 175 L 136 175 L 136 299.921875 L 0 299.921875 Z M 0 175 " clip-rule="nonzero"/></clipPath><clipPath id="7b116169a3"><path d="M -162.746094 209.484375 L 75.929688 140.476562 L 136.222656 349.007812 L -102.449219 418.015625 Z M -162.746094 209.484375 " clip-rule="nonzero"/></clipPath><clipPath id="bf72148de2"><path d="M -43.582031 175.03125 L 135.875 349.109375 L -102.449219 418.015625 Z M -43.582031 175.03125 " clip-rule="nonzero"/></clipPath><clipPath id="ddad6f0944"><path d="M 763 0.078125 L 958 0.078125 L 958 176 L 763 176 Z M 763 0.078125 " clip-rule="nonzero"/></clipPath><clipPath id="2984134686"><path d="M 730.773438 119.0625 L 795.746094 -141.007812 L 1022.976562 -84.242188 L 958.003906 175.828125 Z M 730.773438 119.0625 " clip-rule="nonzero"/></clipPath><clipPath id="545edfa5f9"><path d="M 763.210938 -10.785156 L 1022.878906 -83.863281 L 958.003906 175.828125 Z M 763.210938 -10.785156 " clip-rule="nonzero"/></clipPath><clipPath id="3469c22da2"><path d="M 752.226562 193 L 958 193 L 958 299.921875 L 752.226562 299.921875 Z M 752.226562 193 " clip-rule="nonzero"/></clipPath><clipPath id="914ec13ebb"><path d="M 752.226562 326.980469 L 986.441406 193.144531 L 986.441406 460.816406 Z M 752.226562 326.980469 " clip-rule="nonzero"/></clipPath></defs><g clip-path="url(#eed99d5b7d)"><g clip-path="url(#c9a7a3f8a4)"><g clip-path="url(#db74d4da8f)"><path fill="#d70981" d="M -74.332031 108.335938 L 22.730469 -307.847656 L 386.359375 -223.039062 L 289.292969 193.144531 Z M -74.332031 108.335938 " fill-opacity="1" fill-rule="nonzero"/></g></g></g><g clip-path="url(#d8497b7e8e)"><g clip-path="url(#7b116169a3)"><g clip-path="url(#bf72148de2)"><path fill="#d70981" d="M -162.746094 209.484375 L 75.929688 140.476562 L 136.222656 349.007812 L -102.449219 418.015625 Z M -162.746094 209.484375 " fill-opacity="1" fill-rule="nonzero"/></g></g></g><g clip-path="url(#ddad6f0944)"><g clip-path="url(#2984134686)"><g clip-path="url(#545edfa5f9)"><path fill="#d70981" d="M 730.773438 119.0625 L 795.746094 -141.007812 L 1022.976562 -84.242188 L 958.003906 175.828125 Z M 730.773438 119.0625 " fill-opacity="1" fill-rule="nonzero"/></g></g></g><g clip-path="url(#3469c22da2)"><g clip-path="url(#914ec13ebb)"><path fill="#d70981" d="M 752.226562 460.816406 L 752.226562 192.75 L 986.441406 192.75 L 986.441406 460.816406 Z M 752.226562 460.816406 " fill-opacity="1" fill-rule="nonzero"/></g></g></svg>