<svg xmlns="http://www.w3.org/2000/svg" xmlns:xlink="http://www.w3.org/1999/xlink" width="665" zoomAndPan="magnify" viewBox="0 0 498.75 525.000007" height="700" preserveAspectRatio="xMidYMid meet" version="1.0"><defs><clipPath id="e693bd7a4b"><path d="M 0.347656 308 L 58 308 L 58 523.667969 L 0.347656 523.667969 Z M 0.347656 308 " clip-rule="nonzero"/></clipPath><clipPath id="bc529417bd"><path d="M 402 0 L 497.894531 0 L 497.894531 318 L 402 318 Z M 402 0 " clip-rule="nonzero"/></clipPath><clipPath id="6005172741"><path d="M 403 372 L 497.84375 372 L 497.84375 523.46875 L 403 523.46875 Z M 403 372 " clip-rule="nonzero"/></clipPath><clipPath id="d446fbbdab"><path d="M 0.347656 0 L 178 0 L 178 151 L 0.347656 151 Z M 0.347656 0 " clip-rule="nonzero"/></clipPath></defs><g clip-path="url(#e693bd7a4b)"><path fill="#da0081" d="M 57.003906 523.667969 L -1.667969 308.5 L -1.667969 523.667969 Z M 57.003906 523.667969 " fill-opacity="1" fill-rule="nonzero"/></g><g clip-path="url(#bc529417bd)"><path fill="#da0081" d="M 498.15625 317.179688 L 402.527344 -2.84375 L 498.15625 -2.84375 Z M 498.15625 317.179688 " fill-opacity="1" fill-rule="nonzero"/></g><g clip-path="url(#6005172741)"><path fill="#da0081" d="M 498.101562 372.445312 L 403.101562 523.46875 L 498.101562 523.46875 Z M 498.101562 372.445312 " fill-opacity="1" fill-rule="nonzero"/></g><g clip-path="url(#d446fbbdab)"><path fill="#da0081" d="M -1.144531 150.585938 L -1.144531 -2.777344 L 177.910156 -2.777344 Z M -1.144531 150.585938 " fill-opacity="1" fill-rule="nonzero"/></g></svg>