<svg xmlns="http://www.w3.org/2000/svg" xmlns:xlink="http://www.w3.org/1999/xlink" width="375" zoomAndPan="magnify" viewBox="0 0 281.25 337.500003" height="450" preserveAspectRatio="xMidYMid meet" version="1.0"><defs><clipPath id="24938eaa89"><path d="M 0 141 L 52 141 L 52 336.515625 L 0 336.515625 Z M 0 141 " clip-rule="nonzero"/></clipPath><clipPath id="0408ed5389"><path d="M 219 0.199219 L 280.355469 0.199219 L 280.355469 202 L 219 202 Z M 219 0.199219 " clip-rule="nonzero"/></clipPath><clipPath id="db3fb69cc8"><path d="M 217 236 L 280.296875 236 L 280.296875 336.800781 L 217 336.800781 Z M 217 236 " clip-rule="nonzero"/></clipPath><clipPath id="08b5b294ff"><path d="M 0 0.199219 L 102 0.199219 L 102 87 L 0 87 Z M 0 0.199219 " clip-rule="nonzero"/></clipPath></defs><g clip-path="url(#24938eaa89)"><path fill="#da0081" d="M 51.394531 336.515625 L -1.828125 141.1875 L -1.828125 336.515625 Z M 51.394531 336.515625 " fill-opacity="1" fill-rule="nonzero"/></g><g clip-path="url(#0408ed5389)"><path fill="#da0081" d="M 280.519531 201.144531 L 219.820312 -1.601562 L 280.519531 -1.601562 Z M 280.519531 201.144531 " fill-opacity="1" fill-rule="nonzero"/></g><g clip-path="url(#db3fb69cc8)"><path fill="#da0081" d="M 280.472656 236.160156 L 217.015625 337.089844 L 280.472656 337.089844 Z M 280.472656 236.160156 " fill-opacity="1" fill-rule="nonzero"/></g><g clip-path="url(#08b5b294ff)"><path fill="#da0081" d="M -0.851562 86.300781 L -0.851562 -1.386719 L 101.574219 -1.386719 Z M -0.851562 86.300781 " fill-opacity="1" fill-rule="nonzero"/></g></svg>