<svg width="76" height="76" viewBox="0 0 76 76" fill="none" xmlns="http://www.w3.org/2000/svg">
<path d="M74.0613 67.7187L57.1548 50.8118C61.225 45.393 63.4223 38.7973 63.415 32.02C63.415 14.7089 49.331 0.625 32.02 0.625C14.7089 0.625 0.625 14.7089 0.625 32.02C0.625 49.331 14.7089 63.415 32.02 63.415C38.7973 63.4223 45.393 61.225 50.8118 57.1548L67.7187 74.0613C68.5743 74.8265 69.6906 75.2351 70.8379 75.2029C71.9856 75.1707 73.0773 74.7003 73.8888 73.8888C74.7003 73.0773 75.1707 71.9856 75.2029 70.8379C75.2351 69.6906 74.8265 68.5743 74.0613 67.7187ZM9.595 32.02C9.595 27.5848 10.9102 23.2491 13.3743 19.5613C15.8384 15.8736 19.3407 12.9993 23.4383 11.302C27.536 9.6047 32.0449 9.16061 36.395 10.0259C40.7451 10.8912 44.7405 13.0269 47.877 16.1631C51.013 19.2993 53.149 23.2951 54.0141 27.6451C54.8793 31.9951 54.4354 36.5042 52.738 40.6017C51.0406 44.6991 48.1664 48.2017 44.4787 50.6657C40.7911 53.1298 36.4552 54.445 32.02 54.445C26.0747 54.4377 20.375 52.0729 16.171 47.8689C11.9671 43.6649 9.60213 37.9651 9.595 32.02Z" fill="#DA0081"/>
</svg>
