<svg width="31" height="691" viewBox="0 0 31 691" fill="none" xmlns="http://www.w3.org/2000/svg">
<g clip-path="url(#clip0_195_3489)">
<path d="M0.34 574.86L0 690.66H3.12L3.48 574.88L0.34 574.86Z" fill="#996F8F"/>
<path d="M27.4098 574.94L27.0498 690.74H30.1898L30.5298 574.96L27.4098 574.94Z" fill="#996F8F"/>
<path d="M10.0003 569.05L9.82031 567.29C10.4303 567.19 10.8603 566.98 11.1503 566.66C11.4103 566.32 11.5503 565.9 11.5503 565.35C11.5703 564.75 11.4403 564.33 11.1903 564.04C10.9503 563.73 10.6603 563.59 10.3203 563.59C10.1103 563.59 9.93031 563.64 9.77031 563.77C9.64031 563.9 9.51031 564.09 9.40031 564.42C9.32031 564.63 9.21031 565.13 9.00031 565.86C8.77031 566.85 8.47031 567.51 8.13031 567.9C7.63031 568.47 7.03031 568.74 6.30031 568.74C5.88031 568.74 5.43031 568.59 5.04031 568.34C4.65031 568.08 4.34031 567.71 4.13031 567.21C3.94031 566.76 3.82031 566.14 3.82031 565.45C3.84031 564.33 4.08031 563.51 4.58031 562.94C5.08031 562.37 5.74031 562.07 6.57031 562.03L6.63031 563.84C6.16031 563.9 5.84031 564.08 5.61031 564.34C5.42031 564.58 5.32031 564.97 5.32031 565.47C5.32031 566 5.43031 566.39 5.64031 566.7C5.77031 566.89 5.96031 566.97 6.21031 566.97C6.42031 566.97 6.60031 566.89 6.74031 566.73C6.93031 566.49 7.14031 565.95 7.35031 565.06C7.56031 564.17 7.77031 563.54 7.98031 563.1C8.22031 562.7 8.51031 562.37 8.90031 562.13C9.29031 561.9 9.76031 561.77 10.3203 561.77C10.8203 561.79 11.3203 561.93 11.7603 562.19C12.2103 562.48 12.5403 562.9 12.7603 563.42C12.9703 563.94 13.0803 564.58 13.0803 565.36C13.0603 566.49 12.8103 567.35 12.2703 567.98C11.7503 568.58 10.9803 568.93 9.97031 569.05" fill="#996F8F"/>
<path d="M3.96973 560.41V558.6L8.85973 558.62C9.63973 558.62 10.1397 558.62 10.3497 558.57C10.7397 558.47 11.0497 558.31 11.2597 558C11.4697 557.71 11.5997 557.32 11.5997 556.82C11.5997 556.32 11.4897 555.93 11.2797 555.65C11.0697 555.38 10.8297 555.23 10.4997 555.18C10.1897 555.13 9.68973 555.1 8.95973 555.1L3.98973 555.08V553.27L8.72973 553.3C9.79973 553.3 10.5597 553.35 11.0097 553.45C11.4497 553.56 11.8197 553.72 12.1397 554C12.4297 554.26 12.6897 554.62 12.8697 555.05C13.0497 555.49 13.1297 556.05 13.1297 556.76C13.1297 557.6 13.0297 558.25 12.8197 558.69C12.6297 559.14 12.3697 559.48 12.0397 559.74C11.7297 559.98 11.3897 560.16 11.0497 560.24C10.5297 560.37 9.75973 560.42 8.76973 560.42L3.96973 560.4V560.41Z" fill="#996F8F"/>
<path d="M12.96 551.59L4 551.56L4.02 548.66C4.02 547.56 4.07 546.85 4.17 546.51C4.28 546.01 4.59 545.56 5.04 545.22C5.49 544.88 6.08 544.7 6.79 544.7C7.34 544.7 7.79 544.81 8.17 545.01C8.56 545.22 8.85 545.48 9.06 545.77C9.27 546.09 9.42 546.4 9.48 546.71C9.56 547.16 9.61 547.78 9.59 548.6V549.8H12.99L12.97 551.6L12.96 551.59ZM5.52 549.78H8.08V548.78C8.08 548.07 8.05 547.6 7.93 547.36C7.83 547.13 7.69 546.92 7.49 546.79C7.29 546.66 7.07 546.58 6.81 546.58C6.47 546.58 6.2 546.66 5.99 546.85C5.8 547.06 5.65 547.29 5.6 547.58C5.55 547.81 5.54 548.24 5.54 548.89L5.52 549.78Z" fill="#996F8F"/>
<path d="M12.9903 543.44L4.03027 543.4L4.04027 536.79L5.55027 536.8V541.62H7.54027L7.55027 537.13H9.06027L9.04027 541.62L11.4903 541.64L11.5003 536.63H13.0203L12.9903 543.44Z" fill="#996F8F"/>
<path d="M13.0196 535.27L4.05957 535.25V531.45C4.05957 530.5 4.15957 529.8 4.31957 529.36C4.47957 528.92 4.76957 528.58 5.18957 528.32C5.57957 528.08 6.05957 527.93 6.59957 527.93C7.25957 527.93 7.82957 528.14 8.26957 528.53C8.70957 528.93 8.99957 529.52 9.09957 530.29C9.32957 529.93 9.56957 529.58 9.83957 529.35C10.1296 529.08 10.5996 528.74 11.3096 528.31L13.0596 527.23L13.0396 529.4L11.0796 530.66C10.3796 531.15 9.94957 531.45 9.76957 531.63C9.58957 531.81 9.45957 531.99 9.39957 532.18C9.33957 532.36 9.29957 532.67 9.29957 533.07V533.44L13.0396 533.46L13.0196 535.26V535.27ZM7.85957 533.46V532.12C7.85957 531.26 7.82957 530.71 7.75957 530.52C7.67957 530.29 7.56957 530.12 7.36957 530C7.18957 529.89 6.96957 529.81 6.70957 529.81C6.39957 529.81 6.15957 529.91 5.97957 530.05C5.78957 530.23 5.65957 530.44 5.61957 530.73C5.58957 530.88 5.56957 531.33 5.56957 532.04V533.46H7.84957H7.85957Z" fill="#996F8F"/>
<path d="M13.0401 526.5L4.08008 526.47V524.67L13.0401 524.69V526.5Z" fill="#996F8F"/>
<path d="M13.0498 523.14L4.08984 523.11V521.36L10.1198 517.69L4.09984 517.68V515.99L13.0698 516.01V517.84L7.17984 521.46L13.0698 521.48L13.0498 523.14Z" fill="#996F8F"/>
<path d="M13.0801 512.29L5.62012 512.27V514.91H4.12012L4.14012 507.79L5.64012 507.81V510.44L13.1001 510.48L13.0801 512.29Z" fill="#996F8F"/>
<path d="M13.0996 506.84L4.13965 506.81L4.14965 500.21H5.65965V505.03H7.64965L7.65965 500.53H9.16965L9.14965 505.05H11.5896L11.6096 500.06H13.1296L13.0996 506.84Z" fill="#996F8F"/>
<path d="M13.1202 498.7L4.16016 498.67V496.91L10.1902 493.24L4.17016 493.22V491.55L13.1402 491.57V493.38L7.25016 497.01L13.1202 497.02V498.7Z" fill="#996F8F"/>
<path d="M4.19043 489.82L4.21043 486.52C4.21043 485.79 4.26043 485.24 4.39043 484.84C4.53043 484.31 4.81043 483.87 5.21043 483.48C5.60043 483.11 6.08043 482.85 6.67043 482.62C7.24043 482.44 7.95043 482.36 8.77043 482.35C9.51043 482.37 10.1604 482.45 10.6904 482.62C11.3404 482.86 11.8504 483.19 12.2804 483.59C12.5704 483.9 12.8004 484.33 12.9804 484.87C13.1104 485.27 13.1704 485.79 13.1704 486.47L13.1504 489.85L4.19043 489.82ZM5.71043 488.03L11.6504 488.05V486.71C11.6504 486.21 11.6204 485.85 11.5704 485.61C11.4904 485.32 11.3604 485.09 11.2004 484.9C11.0204 484.71 10.7304 484.56 10.3404 484.41C9.92043 484.28 9.39043 484.25 8.69043 484.23C8.01043 484.23 7.46043 484.28 7.10043 484.41C6.73043 484.54 6.44043 484.7 6.23043 484.91C6.02043 485.14 5.87043 485.41 5.81043 485.75C5.75043 485.99 5.71043 486.48 5.71043 487.22V488.03Z" fill="#996F8F"/>
<path d="M13.17 481.02L4.20996 480.99L4.22996 474.37H5.72996V479.2H7.71996L7.73996 474.7L9.23996 474.71L9.22996 479.2L11.67 479.21L11.69 474.21H13.19L13.17 481.02Z" fill="#996F8F"/>
<path d="M13.2102 472.86L4.24023 472.83V471.08L10.2802 467.39H4.26023V465.71L13.2202 465.72V467.54L7.32023 471.18L13.2102 471.19V472.86Z" fill="#996F8F"/>
<path d="M9.94965 458.27L10.4996 456.51C11.4696 456.78 12.1996 457.25 12.6796 457.87C13.1496 458.52 13.3896 459.29 13.3896 460.25C13.3896 461.45 12.9696 462.43 12.1596 463.19C11.3496 463.97 10.2296 464.34 8.82965 464.34C7.33965 464.34 6.18965 463.95 5.36965 463.18C4.54965 462.39 4.13965 461.4 4.13965 460.12C4.13965 459.04 4.47965 458.13 5.10965 457.45C5.49965 457.05 6.02965 456.74 6.75965 456.54L7.17965 458.32C6.72965 458.42 6.35965 458.64 6.07965 458.98C5.81965 459.32 5.67965 459.72 5.67965 460.21C5.67965 460.87 5.91965 461.42 6.38965 461.83C6.85965 462.25 7.63965 462.46 8.69965 462.46C9.82965 462.46 10.6296 462.27 11.1296 461.86C11.5996 461.46 11.8396 460.92 11.8596 460.26C11.8596 459.79 11.6996 459.39 11.4096 459.03C11.0896 458.67 10.5996 458.43 9.94965 458.27Z" fill="#996F8F"/>
<path d="M13.26 455.24L4.29004 455.21V453.4L13.26 453.43V455.24Z" fill="#996F8F"/>
<path d="M13.2798 443.81V445.77L11.2398 446.53L11.2198 450.12L13.2598 450.88V452.82L4.2998 449.33L4.3198 447.4L13.2798 443.81ZM9.7198 447.09L6.3898 448.35L9.7098 449.56L9.7298 447.08L9.7198 447.09Z" fill="#996F8F"/>
<path d="M13.2901 440.22L4.33008 440.19L4.35008 434.05L5.85008 434.07V438.41H7.96008L7.97008 434.64H9.49008L9.48008 438.41L13.2901 438.42V440.22Z" fill="#996F8F"/>
<path d="M13.3204 432.82L4.36035 432.79V431.01L13.3204 431.02V432.82Z" fill="#996F8F"/>
<path d="M13.3304 429.48L4.36035 429.45V427.72L10.4004 424.03L4.38035 424.01V422.33L13.3404 422.36V424.17L7.45035 427.78L13.3404 427.81L13.3304 429.48Z" fill="#996F8F"/>
<path d="M13.3796 412.57L13.3596 414.5L11.3396 415.29L11.3196 418.88L13.3396 419.64V421.55L4.38965 418.07V416.13L13.3696 412.57H13.3796ZM9.80965 415.85L6.48965 417.11L9.80965 418.32V415.84V415.85Z" fill="#996F8F"/>
<path d="M13.3799 411.8L4.42992 411.77L4.41992 410.02L10.4499 406.33L4.42992 406.32V404.65L13.3899 404.67V406.49L7.50992 410.1L13.3799 410.13V411.8Z" fill="#996F8F"/>
<path d="M10.1198 397.21L10.6698 395.46C11.6598 395.72 12.3798 396.19 12.8498 396.79C13.3198 397.42 13.5798 398.23 13.5598 399.18C13.5598 400.38 13.1598 401.36 12.3498 402.12C11.5298 402.9 10.4298 403.25 9.0198 403.27C7.5198 403.25 6.3698 402.87 5.5398 402.11C4.7198 401.32 4.3098 400.3 4.3298 399.04C4.3298 397.96 4.6498 397.05 5.2798 396.39C5.6698 395.97 6.2198 395.66 6.9298 395.45L7.3498 397.26C6.8998 397.37 6.5398 397.58 6.2698 397.92C5.9998 398.24 5.8698 398.66 5.8698 399.12C5.8698 399.8 6.0998 400.37 6.5798 400.75C7.0298 401.19 7.8298 401.4 8.8798 401.4C10.0298 401.4 10.8198 401.21 11.3098 400.79C11.7998 400.39 12.0398 399.85 12.0398 399.2C12.0398 398.73 11.8898 398.31 11.5898 397.97C11.2698 397.6 10.7998 397.37 10.1298 397.21" fill="#996F8F"/>
<path d="M13.4397 394.18L4.46973 394.14V392.35L13.4397 392.36V394.18Z" fill="#996F8F"/>
<path d="M13.4402 390.82L4.49023 390.79V384.17H6.01023L6.00023 389.01H7.99023L8.00023 384.51H9.53023L9.49023 389.03H11.9402L11.9502 384.03H13.4602L13.4402 390.82Z" fill="#996F8F"/>
<path d="M13.4698 382.66L4.50977 382.64L4.52977 378.84C4.52977 377.87 4.58977 377.19 4.76977 376.75C4.92977 376.3 5.21977 375.97 5.63977 375.73C6.03977 375.46 6.50977 375.33 7.04977 375.33C7.70977 375.33 8.27977 375.54 8.71977 375.91C9.15977 376.33 9.44977 376.9 9.53977 377.69C9.76977 377.3 10.0298 376.98 10.2798 376.74C10.5698 376.48 11.0398 376.16 11.7398 375.72L13.4898 374.62V376.79L11.5498 378.08C10.8398 378.53 10.4198 378.86 10.2198 379.02C10.0398 379.21 9.90977 379.39 9.84977 379.59C9.78977 379.77 9.74977 380.08 9.74977 380.48V380.85L13.4698 380.87V382.67V382.66ZM8.30977 380.85V379.51C8.30977 378.65 8.27977 378.12 8.20977 377.89C8.12977 377.68 8.01977 377.52 7.81977 377.37C7.63977 377.26 7.41977 377.21 7.13977 377.21C6.84977 377.21 6.60977 377.27 6.40977 377.44C6.21977 377.59 6.11977 377.84 6.04977 378.12C6.02977 378.25 6.01977 378.7 6.01977 379.45V380.86H8.29977L8.30977 380.85Z" fill="#996F8F"/>
<path d="M13.5203 365.73L13.5003 367.7L11.4603 368.46L11.4403 372.05L13.4803 372.81V374.72L4.53027 371.24L4.55027 369.31L13.5103 365.72L13.5203 365.73ZM9.94027 369.03L6.62027 370.29L9.94027 371.5V369.02V369.03Z" fill="#996F8F"/>
<path d="M18.0195 510V506.68C18.0395 505.95 18.0995 505.37 18.2095 504.98C18.3695 504.46 18.6295 504.01 19.0295 503.64C19.4195 503.27 19.8995 503.01 20.4895 502.8C21.0595 502.62 21.7695 502.51 22.6095 502.51C23.3495 502.53 23.9895 502.62 24.5195 502.8C25.1695 503.03 25.6995 503.35 26.0895 503.77C26.3995 504.06 26.6395 504.5 26.8195 505.02C26.9295 505.42 27.0095 505.97 26.9995 506.64V510.02L18.0195 510ZM19.5395 508.21L25.4795 508.23V506.86C25.4795 506.39 25.4495 506 25.3995 505.79C25.3195 505.5 25.1895 505.24 25.0295 505.06C24.8495 504.85 24.5595 504.7 24.1695 504.57C23.7695 504.44 23.2195 504.38 22.5395 504.38C21.8395 504.38 21.3095 504.44 20.9395 504.57C20.5695 504.68 20.2795 504.86 20.0795 505.07C19.8695 505.28 19.7095 505.57 19.6395 505.93C19.5795 506.16 19.5395 506.66 19.5395 507.4V508.21Z" fill="#996F8F"/>
<path d="M27.02 501.2L18.04 501.17L18.06 494.53H19.58L19.56 499.35H21.53L21.55 494.86L23.09 494.87L23.07 499.35L25.5 499.37L25.51 494.39H27.03L27.02 501.2Z" fill="#996F8F"/>
<path d="M23.7698 483.99L24.3198 482.23C25.2898 482.5 26.0198 482.97 26.4898 483.61C26.9798 484.24 27.2198 485 27.1998 485.97C27.1998 487.17 26.7798 488.15 25.9898 488.9C25.1798 489.69 24.0598 490.05 22.6398 490.05C21.1698 490.03 19.9998 489.68 19.1898 488.89C18.3698 488.11 17.9398 487.11 17.9598 485.83C17.9398 484.75 18.2798 483.84 18.9298 483.16C19.2998 482.77 19.8698 482.46 20.5798 482.27L20.9998 484.05C20.5298 484.15 20.1598 484.36 19.9198 484.7C19.6298 485.04 19.4798 485.44 19.4998 485.95C19.4798 486.6 19.7298 487.16 20.2098 487.55C20.6798 487.99 21.4598 488.2 22.5198 488.2C23.6498 488.2 24.4598 487.99 24.9298 487.6C25.4198 487.18 25.6598 486.66 25.6598 486C25.6598 485.53 25.5098 485.11 25.2098 484.77C24.8998 484.43 24.4298 484.17 23.7698 484.01" fill="#996F8F"/>
<path d="M22.6705 481.23C21.7605 481.23 21.0005 481.1 20.3605 480.83C19.9205 480.62 19.5005 480.36 19.1505 479.99C18.7905 479.63 18.5205 479.25 18.3405 478.84C18.1105 478.29 17.9805 477.63 17.9805 476.9C17.9805 475.59 18.4205 474.54 19.2405 473.76C20.0505 472.95 21.1805 472.55 22.6505 472.55C24.0905 472.55 25.2205 472.95 26.0505 473.76C26.8605 474.55 27.2605 475.59 27.2805 476.91C27.2605 478.24 26.8405 479.3 26.0305 480.08C25.2205 480.86 24.0905 481.25 22.6705 481.23ZM22.6005 479.37C23.6205 479.37 24.3805 479.18 24.9105 478.69C25.4405 478.22 25.7205 477.62 25.7205 476.91C25.7205 476.18 25.4605 475.62 24.9305 475.13C24.4105 474.66 23.6405 474.45 22.6005 474.45C21.5605 474.43 20.8005 474.66 20.3005 475.1C19.7705 475.55 19.5205 476.14 19.5205 476.9C19.5005 477.64 19.7605 478.23 20.2805 478.7C20.8005 479.17 21.5605 479.38 22.5905 479.38" fill="#996F8F"/>
<path d="M27.1105 471.32L18.2305 471.31V469.48L25.5905 469.49L25.6005 465H27.1205L27.1105 471.32Z" fill="#996F8F"/>
<path d="M22.7001 464.27C21.8101 464.27 21.0501 464.12 20.4001 463.87C19.9601 463.64 19.5401 463.37 19.1901 463C18.8301 462.66 18.5601 462.26 18.3801 461.85C18.1501 461.27 18.0201 460.64 18.0401 459.91C18.0401 458.6 18.4601 457.53 19.2901 456.75C20.1001 455.96 21.2301 455.57 22.7001 455.59C24.1401 455.59 25.2701 455.98 26.1001 456.75C26.9101 457.56 27.3101 458.61 27.3101 459.92C27.3101 461.26 26.8901 462.3 26.0801 463.09C25.2701 463.87 24.1401 464.27 22.7001 464.27ZM22.6501 462.4C23.6701 462.4 24.4301 462.16 24.9601 461.7C25.4901 461.21 25.7701 460.65 25.7701 459.92C25.7701 459.21 25.5101 458.59 24.9801 458.12C24.4601 457.67 23.6901 457.46 22.6501 457.44C21.6101 457.44 20.8501 457.65 20.3501 458.1C19.8201 458.54 19.5701 459.14 19.5601 459.88C19.5601 460.62 19.8201 461.24 20.3401 461.69C20.8601 462.14 21.6201 462.39 22.6501 462.39" fill="#996F8F"/>
<path d="M27.1597 454.38L18.1797 454.35L18.1897 451.63L24.3097 450.05L18.1897 448.45L18.2097 445.71L27.1897 445.74L27.1697 447.41L20.0997 447.39L27.1697 449.17V450.94L20.0997 452.68L27.1597 452.72V454.38Z" fill="#996F8F"/>
<path d="M18.2002 444.11L18.2202 440.53C18.2202 439.8 18.2502 439.28 18.3202 438.91C18.4002 438.59 18.5102 438.26 18.7102 437.99C18.9002 437.73 19.1502 437.49 19.4502 437.31C19.7702 437.1 20.1102 437.02 20.5202 437.02C20.9302 437.02 21.3302 437.15 21.6702 437.38C22.0302 437.61 22.3002 437.91 22.4802 438.32C22.6302 437.75 22.9002 437.35 23.2902 437.04C23.6802 436.75 24.1102 436.62 24.6302 436.62C25.0202 436.62 25.4202 436.72 25.8102 436.89C26.2002 437.1 26.4902 437.36 26.7202 437.67C26.9502 438.01 27.0902 438.4 27.1402 438.9C27.1902 439.21 27.1902 439.92 27.2002 441.07V444.13L18.2102 444.11H18.2002ZM19.7402 442.31H21.8102L21.8302 441.13C21.8102 440.4 21.8102 439.97 21.7802 439.8C21.7502 439.49 21.6502 439.23 21.4702 439.06C21.2902 438.88 21.0702 438.8 20.7702 438.8C20.5002 438.8 20.2702 438.86 20.1102 439.01C19.9202 439.19 19.8202 439.4 19.7702 439.71C19.7502 439.89 19.7402 440.39 19.7402 441.25V442.32V442.31ZM23.3302 442.31L25.6802 442.33V440.65C25.6802 439.99 25.6602 439.58 25.6302 439.4C25.5802 439.13 25.4502 438.91 25.2702 438.72C25.0902 438.56 24.8302 438.48 24.5302 438.48C24.2702 438.48 24.0602 438.56 23.8702 438.67C23.6902 438.82 23.5502 438.98 23.4702 439.25C23.3902 439.49 23.3402 440.03 23.3402 440.85V442.31H23.3302Z" fill="#996F8F"/>
<path d="M27.2105 435.35L18.2305 435.33V433.52L27.2105 433.54V435.35Z" fill="#996F8F"/>
<path d="M27.24 423.94V425.87L25.19 426.65V430.26L27.23 431V432.93L18.25 429.47V427.53L27.25 423.96L27.24 423.94ZM23.67 427.22L20.35 428.47L23.67 429.68V427.22Z" fill="#996F8F"/>
<path d="M22.5296 681.55L7.59961 686.79L7.61961 683.52L18.6496 679.8L7.62961 676.15L7.64961 672.93L22.5496 678.28L22.5296 681.55Z" fill="#996F8F"/>
<path d="M22.5704 670.47L7.65039 670.42L7.67039 667.4L22.5804 667.45L22.5704 670.47Z" fill="#996F8F"/>
<path d="M17.1397 656.59L14.6197 656.57L14.6497 650.08L20.5897 650.1C21.1997 650.73 21.7497 651.65 22.2097 652.83C22.6597 654.03 22.8897 655.26 22.9097 656.49C22.8897 658.04 22.5697 659.42 21.9097 660.57C21.2497 661.72 20.3097 662.61 19.0997 663.18C17.8697 663.75 16.5297 664.05 15.0997 664.05C13.5297 664.05 12.1597 663.71 10.9397 663.05C9.70969 662.4 8.79969 661.45 8.16969 660.2C7.64969 659.23 7.42969 658.03 7.42969 656.61C7.42969 654.78 7.81969 653.31 8.60969 652.27C9.38969 651.22 10.4497 650.57 11.8297 650.28L12.3797 653.27C11.6497 653.46 11.0697 653.87 10.6497 654.45C10.2297 655.02 10.0197 655.74 10.0197 656.62C10.0197 657.91 10.4197 658.98 11.2697 659.76C12.0897 660.54 13.3397 660.94 14.9697 660.94C16.7497 660.96 18.0897 660.55 18.9797 659.76C19.8497 658.97 20.3197 657.95 20.3397 656.65C20.3397 656.04 20.2097 655.42 19.9697 654.76C19.7097 654.15 19.3997 653.58 19.0597 653.14L17.1697 653.12L17.1497 656.58L17.1397 656.59Z" fill="#996F8F"/>
<path d="M22.6405 646.39L7.73047 646.34V643.33L22.6605 643.37L22.6405 646.39Z" fill="#996F8F"/>
<path d="M22.6604 639.38L7.86035 639.33V636.32L20.1604 636.34L20.1704 628.9L22.6804 628.91L22.6604 639.38Z" fill="#996F8F"/>
<path d="M22.7298 612.23V615.48L19.3498 616.76L19.3298 622.76L22.6998 624.01V627.2L7.7998 621.38V618.21L22.7298 612.24V612.23ZM16.8098 617.73L11.2798 619.82L16.8098 621.86V617.73Z" fill="#996F8F"/>
<path d="M7.83008 609.54L7.85008 604.06C7.85008 602.81 7.95008 601.88 8.14008 601.23C8.40008 600.37 8.85008 599.61 9.53008 598.98C10.1801 598.37 10.9701 597.9 11.9401 597.56C12.8901 597.25 14.0801 597.09 15.4501 597.09C16.7001 597.09 17.7501 597.27 18.6401 597.56C19.7201 597.93 20.6001 598.45 21.2601 599.16C21.7801 599.69 22.1701 600.37 22.4601 601.28C22.6501 601.94 22.7701 602.85 22.7701 603.93L22.7501 609.58L7.83008 609.55V609.54ZM10.3601 606.55L20.2401 606.58V604.33C20.2401 603.47 20.2101 602.89 20.1101 602.5C20.0001 602.01 19.7901 601.61 19.4801 601.3C19.2101 600.96 18.7201 600.7 18.0401 600.51C17.3901 600.28 16.4901 600.2 15.3201 600.19C14.1701 600.19 13.2801 600.27 12.6701 600.5C12.0401 600.69 11.5701 600.98 11.2301 601.32C10.8701 601.71 10.6301 602.16 10.5201 602.71C10.4201 603.13 10.3701 603.96 10.3601 605.19V606.55Z" fill="#996F8F"/>
<path d="M15.4101 594.08C13.8901 594.08 12.6301 593.87 11.5901 593.4C10.8101 593.06 10.1301 592.59 9.54012 591.99C8.92012 591.39 8.49012 590.76 8.20012 590.05C7.81012 589.13 7.62012 588.06 7.62012 586.85C7.64012 584.67 8.32012 582.89 9.69012 581.58C11.0701 580.24 12.9601 579.61 15.4001 579.61C17.8301 579.61 19.7001 580.26 21.0801 581.58C22.4401 582.91 23.1001 584.67 23.1001 586.85C23.0801 589.07 22.4001 590.83 21.0501 592.14C19.6901 593.43 17.8001 594.08 15.4201 594.08M15.3301 590.97C17.0301 590.97 18.3101 590.58 19.2001 589.82C20.0701 589.04 20.5301 588.04 20.5301 586.83C20.5301 585.63 20.0801 584.65 19.2201 583.89C18.3601 583.1 17.0701 582.71 15.3201 582.71C13.6101 582.71 12.3301 583.07 11.4901 583.84C10.6301 584.57 10.2101 585.57 10.2101 586.82C10.2101 588.07 10.6301 589.08 11.4901 589.85C12.3301 590.61 13.6101 590.98 15.3401 590.98" fill="#996F8F"/>
<path d="M21.57 344.78L7.25 344.73L7.27 340.07C7.27 338.1 7.95 337.42 8.74 336.88C9.52 336.39 10.37 336.31 10.65 336.31C12.43 336.33 13.63 336.94 14.03 338.79H14.13C14.37 336.75 15.6 335.86 17.58 335.86C21.24 335.88 21.59 338.55 21.59 340.18L21.57 344.77V344.78ZM13.29 342.94V340.29C13.27 338.85 12.42 338.15 11.02 338.15C9.82 338.15 8.85 338.81 8.85 340.35L8.83 342.92L13.28 342.94H13.29ZM19.98 342.95V340.38C20 338.44 18.6 337.73 17.55 337.73C15.27 337.73 14.88 339.14 14.86 341V342.94L19.97 342.96L19.98 342.95Z" fill="#996F8F"/>
<path d="M7.30004 330.27V327.96L21.63 323.35L21.61 325.39L18.2 326.41L18.18 331.94L21.59 333.02V334.86L7.29004 330.27H7.30004ZM8.98004 329.17V329.2L16.6 331.47L16.62 326.89L8.98004 329.17Z" fill="#996F8F"/>
<path d="M7.35031 312.19L21.6703 312.24L21.6503 314.73L9.23031 320.34V320.38L21.6303 320.42V322.04L7.32031 322.01L7.33031 319.42L19.6003 313.89V313.86L7.35031 313.81V312.19Z" fill="#996F8F"/>
<path d="M11.3201 303.29C10.5101 303.27 9.69008 303.32 9.23008 303.69C8.78008 304.08 8.62008 304.92 8.62008 305.31C8.62008 306.81 9.53008 307.41 9.72008 307.46C9.88008 307.52 10.2401 307.88 12.7001 307.9H16.5201C20.0301 307.92 20.4501 306.77 20.4701 305.36C20.4701 304.81 20.2801 303.11 17.4801 303.09V301.2C22.0101 301.14 21.9901 304.32 21.9901 305.26C21.9901 307.04 21.8601 309.77 16.3101 309.76H12.2701C8.23008 309.74 7.08008 307.95 7.08008 305.13C7.10008 302.3 8.57008 301.21 11.3301 301.41V303.29H11.3201Z" fill="#996F8F"/>
<path d="M16.4696 299.35L11.7596 299.33C8.90961 299.33 7.09961 297.86 7.09961 294.82C7.11961 291.79 8.93961 290.32 11.7896 290.34L16.4796 290.36C20.4596 290.36 22.0096 291.83 22.0096 294.87C21.9896 297.9 20.4196 299.37 16.4596 299.35M16.5696 292.21L11.7296 292.19C8.73961 292.19 8.63961 294.24 8.61961 294.81C8.61961 295.39 8.71961 297.45 11.7096 297.46L16.5496 297.48C19.6896 297.48 20.4796 296.57 20.4796 294.86C20.4796 293.15 19.6996 292.22 16.5696 292.21Z" fill="#996F8F"/>
<path d="M21.7299 287.9L7.41992 287.85L7.42992 286.04L20.1499 286.07L20.1599 280.81L21.7499 280.83L21.7299 287.9Z" fill="#996F8F"/>
<path d="M16.5302 279.84L11.8202 279.82C8.97016 279.82 7.16016 278.35 7.16016 275.31C7.18016 272.28 9.00016 270.81 11.8502 270.83L16.5402 270.85C20.5202 270.85 22.0702 272.32 22.0702 275.36C22.0502 278.39 20.4802 279.86 16.5202 279.84M16.6202 272.71L11.7802 272.69C8.79016 272.69 8.69016 274.74 8.67016 275.31C8.67016 275.89 8.77016 277.95 11.7602 277.96L16.6002 277.98C19.7402 277.98 20.5302 277.07 20.5302 275.36C20.5302 273.65 19.7502 272.72 16.6202 272.71Z" fill="#996F8F"/>
<path d="M21.8005 266.66V268.36L7.48047 268.33L7.49047 265.37L19.5105 261.79V261.76L7.51047 258.07V255.06L21.8305 255.11V256.92L9.10047 256.89V256.94L21.8105 260.97V262.7L9.06047 266.58V266.63L21.8005 266.66Z" fill="#996F8F"/>
<path d="M21.8405 252.41L7.52051 252.36L7.54051 247.7C7.54051 245.73 8.22051 245.05 9.01051 244.51C9.79051 244.02 10.6405 243.94 10.9205 243.94C12.7005 243.96 13.9005 244.57 14.3005 246.42H14.4005C14.6405 244.38 15.8705 243.49 17.8505 243.49C21.5105 243.51 21.8605 246.18 21.8605 247.81L21.8405 252.4V252.41ZM13.5605 250.56V247.91C13.5405 246.47 12.6905 245.77 11.2905 245.77C10.0905 245.77 9.12051 246.43 9.12051 247.97L9.10051 250.54L13.5505 250.56H13.5605ZM20.2605 250.58V248.01C20.2805 246.07 18.8805 245.36 17.8305 245.36C15.5505 245.36 15.1605 246.77 15.1405 248.63V250.57L20.2505 250.59L20.2605 250.58Z" fill="#996F8F"/>
<path d="M21.8805 239.12V240.94L7.56055 240.9V239.07L21.8805 239.12Z" fill="#996F8F"/>
<path d="M7.59008 233.08V230.77L21.9201 226.16L21.9001 228.2L18.4901 229.22L18.4701 234.75L21.8801 235.83V237.67L7.58008 233.08H7.59008ZM9.27008 231.98V232.01L16.8901 234.28L16.9101 229.7L9.27008 231.98Z" fill="#996F8F"/>
<path d="M17.6699 219.83H18.0899C20.0299 219.83 20.6499 218.62 20.6499 217.44C20.6699 216 20.0499 214.88 18.3399 214.88C15.1699 214.86 15.5099 221.29 11.2099 221.27C8.6699 221.27 7.3299 219.46 7.3399 217.06C7.3399 214.44 8.6199 212.98 11.5299 213.11V215C9.9599 214.98 8.9199 215.47 8.9199 217.2C8.9199 218.28 9.4699 219.4 11.0099 219.4C14.1599 219.42 13.7299 212.99 18.2699 213.01C21.2799 213.01 22.2499 215.1 22.2299 217.46C22.2599 221.68 19.0299 221.67 17.6699 221.62V219.82V219.83Z" fill="#996F8F"/>
<path d="M21.9596 209.41V211.27H19.8896L19.9096 209.41H21.9596Z" fill="#996F8F"/>
<path d="M7.67016 203.95V201.64L22.0002 197.03L21.9802 199.07L18.5702 200.09L18.5502 205.62L21.9602 206.7V208.54L7.66016 203.95H7.67016ZM9.36016 202.85V202.88L16.9802 205.15L17.0002 200.57L9.36016 202.85Z" fill="#996F8F"/>
<path d="M22.0104 194.29V196.16H19.9404L19.9504 194.29H22.0104Z" fill="#996F8F"/>
<path d="M22.03 188.41L7.70996 188.36L7.73996 181H9.32996L9.30996 186.55L13.91 186.57L13.92 181.41L15.51 181.42L15.49 186.57L20.44 186.58L20.46 180.92H22.04L22.03 188.41Z" fill="#996F8F"/>
<path d="M22.2604 176.43C22.2604 178.6 21.2904 179.94 18.9904 179.88L19.0104 178.04C19.5804 178.04 20.9404 178.02 20.9404 176.37C20.9404 175.4 20.4504 174.64 19.4204 174.64C17.6404 174.64 17.5804 179.64 14.5804 179.62C13.5304 179.62 11.8504 178.97 11.8604 176.16C11.8604 174.38 12.7204 172.86 14.7104 173.01L14.6904 174.81C13.6404 174.79 13.0904 175.34 13.0904 176.38C13.0704 177.25 13.5604 177.93 14.4304 177.93C16.1904 177.93 16.1604 172.93 19.2204 172.95C21.4204 172.95 22.2604 174.47 22.2604 176.44" fill="#996F8F"/>
<path d="M12.0702 171.07H10.1402L9.41016 169.44L12.0602 169.46L12.0802 167.28H13.3102L13.2902 169.46L19.4202 169.48C20.0502 169.48 20.8602 169.48 20.8802 167.99C20.8802 167.88 20.8302 167.62 20.8002 167.26H22.0502C22.0802 167.79 22.2102 168.33 22.2102 168.86C22.1902 170.41 21.5602 171.11 20.4102 171.09L13.2902 171.07V172.72H12.0602V171.07H12.0702Z" fill="#996F8F"/>
<path d="M20.6596 161.32V161.35C21.8096 161.85 22.2896 162.63 22.2896 163.87C22.2896 165.99 20.9096 166.6 18.9896 166.59C15.9596 166.59 15.8396 163.61 15.8996 161.33C14.5696 161.28 13.1196 161.27 13.1196 163.01C13.1196 164.09 13.8496 164.68 14.8996 164.58V166.34C12.6496 166.26 11.8896 165.06 11.8896 162.94C11.9096 160.37 13.2296 159.69 14.9196 159.7H19.7396C20.5296 159.72 21.3396 159.64 22.1196 159.52L22.0996 161.3H20.6596V161.32ZM19.1196 164.97C20.0896 164.97 20.9596 164.5 20.9596 163.42C20.9596 162.42 20.3596 161.19 17.1296 161.33C17.1496 162.88 16.9996 164.97 19.1196 164.97Z" fill="#996F8F"/>
<path d="M22.1305 155.5L22.1105 157.12L7.81055 157.09V155.46L13.1205 155.48V155.43C12.3305 154.86 11.9205 154.17 11.9205 153.21C11.9205 149.99 14.8005 149.91 17.3105 149.93C21.7105 149.95 22.3405 151.56 22.3305 153.17C22.3305 154.22 21.8805 154.92 20.9405 155.47V155.52H22.1405L22.1305 155.5ZM21.0005 153.67C21.0005 151.63 18.8305 151.62 17.3105 151.62C14.6405 151.62 13.2505 151.85 13.2505 153.59C13.2505 155.4 15.3905 155.48 16.7105 155.48C18.2305 155.48 21.0005 155.67 21.0005 153.67Z" fill="#996F8F"/>
<path d="M22.1501 146.46V148.08L7.83008 148.05V146.42L22.1501 146.46Z" fill="#996F8F"/>
<path d="M17.6796 142.75C20.4796 142.75 21.0496 142.01 21.0496 140.73C21.0496 139.63 20.1596 139.05 19.1396 138.98L19.1596 137.2C21.3796 137.22 22.3796 138.59 22.3796 140.69C22.3796 142.81 21.7296 144.49 17.3196 144.48C14.3796 144.48 11.9596 144.14 11.9796 140.66C11.9796 137.81 13.5496 137.1 16.8696 137.12H17.7096L17.6896 142.75H17.6796ZM16.4596 138.84C13.5496 138.82 13.1896 139.65 13.1896 140.83C13.1696 141.87 13.6796 142.72 16.4396 142.74L16.4596 138.84Z" fill="#996F8F"/>
<path d="M15.4004 129.88C13.7504 129.83 13.3104 130.64 13.3104 131.26C13.3104 132.52 13.8904 133.36 16.6404 133.38C19.8904 133.4 21.0604 132.98 21.0604 131.29C21.0604 130.92 20.6704 129.79 18.8604 129.83L18.8804 128.13C21.6904 128.07 22.4104 130.17 22.3904 131.28C22.3904 133.4 21.7404 135.08 17.3304 135.07C14.4004 135.07 11.9704 134.73 11.9904 131.25C11.9904 129.24 13.1704 128.08 15.4004 128.19V129.87V129.88Z" fill="#996F8F"/>
<path d="M7.90039 126.02V124.19H9.65039V126.02H7.90039ZM22.2204 124.34V125.96L12.2104 125.94V124.31L22.2204 124.34Z" fill="#996F8F"/>
<path d="M22.2403 117.31L15.3003 117.29C14.3003 117.29 13.3603 117.56 13.3603 118.86C13.3603 119.36 13.6503 120.04 14.0203 120.28C14.5203 120.57 15.1203 120.65 15.4903 120.65L22.2203 120.67V122.3L14.2903 122.27C13.5903 122.27 12.9003 122.32 12.2003 122.37L12.2203 120.65H13.4703V120.6C12.4003 120.13 12.0303 119.27 12.0303 118.11C12.0303 117.19 12.4203 116.14 13.3203 115.76C12.2503 115.21 12.0403 114.29 12.0403 113.38C12.0403 112.33 12.2803 110.65 14.6403 110.65L22.2403 110.68V112.3L15.3003 112.28C14.3003 112.28 13.3603 112.55 13.3603 113.87C13.3603 114.48 13.3803 114.66 13.7303 115.1C14.1203 115.57 15.1103 115.65 15.4903 115.65L22.2203 115.68V117.3L22.2403 117.31Z" fill="#996F8F"/>
<path d="M7.9502 108.71V106.88L9.7002 106.9V108.71H7.9502ZM22.2702 107.03V108.65L12.2602 108.63V107L22.2702 107.03Z" fill="#996F8F"/>
<path d="M17.79 103.32C20.59 103.32 21.14 102.58 21.16 101.3C21.16 100.2 20.27 99.6199 19.25 99.5499L19.27 97.7699C21.49 97.7899 22.49 99.1599 22.49 101.26C22.47 103.38 21.84 105.06 17.43 105.05C14.49 105.05 12.07 104.71 12.09 101.23C12.09 98.3799 13.66 97.6699 16.98 97.6899H17.82L17.8 103.32H17.79ZM16.58 99.4099C13.67 99.3899 13.31 100.22 13.3 101.4C13.3 102.44 13.8 103.29 16.57 103.31L16.59 99.4099H16.58Z" fill="#996F8F"/>
<path d="M22.3204 90.2701L15.3804 90.2501C14.3104 90.2501 13.4404 90.6201 13.4404 92.0101C13.4204 93.7901 15.0104 94.0501 16.3804 94.0501L22.3004 94.0701V95.7001L14.3704 95.6701C13.6704 95.6701 12.9804 95.7001 12.2804 95.7701L12.3004 94.0401L13.5804 94.0601V93.9801C12.4504 93.3301 12.1104 92.5901 12.1104 91.2901C12.1104 89.1501 13.4004 88.6201 15.3804 88.6201L22.3204 88.6401V90.2701Z" fill="#996F8F"/>
<path d="M12.3202 86.29H10.3902L9.66016 84.66L12.3102 84.68L12.3302 82.5H13.5602L13.5402 84.68L19.6702 84.7C20.3002 84.7 21.1102 84.7 21.1302 83.21C21.1302 83.1 21.0802 82.84 21.0502 82.48H22.3002C22.3302 83.01 22.4602 83.55 22.4602 84.08C22.4402 85.63 21.8102 86.33 20.6602 86.31L13.5402 86.29V87.94H12.3102V86.29H12.3202Z" fill="#996F8F"/>
<path d="M17.4904 81.9398C14.5504 81.9398 12.1404 81.5998 12.1504 78.1198C12.1504 74.6598 14.5804 74.3198 17.5104 74.3298C21.9304 74.3498 22.5604 76.0298 22.5604 78.1498C22.5604 80.2698 21.9104 81.9498 17.5004 81.9398M16.8104 76.0298C14.0804 76.0298 13.4804 76.8698 13.4804 78.1198C13.4804 79.3698 14.0604 80.2198 16.8004 80.2398C20.0504 80.2398 21.2304 79.8398 21.2304 78.1498C21.2304 76.4698 20.0704 76.0498 16.8104 76.0298Z" fill="#996F8F"/>
<path d="M22.3805 68.41L8.06055 68.36L8.08055 63.7C8.08055 61.73 8.76055 61.05 9.55055 60.51C10.3305 60.03 11.1805 59.94 11.4605 59.94C13.2405 59.96 14.4405 60.57 14.8405 62.41H14.9405C15.1805 60.37 16.4105 59.48 18.3905 59.48C22.0505 59.5 22.4005 62.17 22.4005 63.8L22.3805 68.39V68.41ZM14.1005 66.57V63.92C14.0805 62.48 13.2305 61.78 11.8305 61.78C10.6305 61.78 9.66055 62.44 9.66055 63.98L9.64055 66.55L14.0905 66.57H14.1005ZM20.8005 66.58V64.01C20.8205 62.07 19.4205 61.36 18.3705 61.36C16.0905 61.36 15.7005 62.77 15.6805 64.63V66.57L20.7905 66.59L20.8005 66.58Z" fill="#996F8F"/>
<path d="M20.98 52.2102V52.2402C22.13 52.7402 22.63 53.5202 22.61 54.7602C22.61 56.8802 21.24 57.4902 19.31 57.4902C16.28 57.4702 16.16 54.5002 16.22 52.2202C14.89 52.1702 13.44 52.1602 13.44 53.9002C13.44 54.9802 14.17 55.5702 15.22 55.4702V57.2302C12.97 57.1502 12.21 55.9502 12.21 53.8302C12.23 51.2602 13.55 50.5802 15.24 50.5902H20.06C20.85 50.6102 21.66 50.5302 22.44 50.4102L22.42 52.1902H20.98V52.2102ZM19.44 55.8602C20.41 55.8602 21.28 55.3902 21.28 54.3102C21.28 53.3102 20.68 52.0802 17.45 52.2202C17.47 53.7702 17.32 55.8602 19.44 55.8602Z" fill="#996F8F"/>
<path d="M22.4602 42.7198L15.5202 42.6998C14.4502 42.6998 13.5802 43.0698 13.5802 44.4498C13.5602 46.2498 15.1502 46.4998 16.5202 46.4998L22.4402 46.5198V48.1498L14.5102 48.1198C13.8102 48.1198 13.1202 48.1498 12.4202 48.2198V46.4898L13.7102 46.5098V46.4298C12.5802 45.7798 12.2402 45.0398 12.2402 43.7398C12.2402 41.5998 13.5302 41.0698 15.5102 41.0698L22.4502 41.0898V42.7198H22.4602Z" fill="#996F8F"/>
<path d="M15.6805 33.6902C14.0305 33.6402 13.5905 34.4502 13.5905 35.0702C13.5905 36.3302 14.1905 37.1702 16.9205 37.1902C20.1705 37.2102 21.3405 36.7902 21.3405 35.1002C21.3405 34.7302 20.9505 33.6002 19.1405 33.6402L19.1605 31.9402C21.9705 31.8802 22.6905 33.9802 22.6705 35.0902C22.6705 37.2102 22.0205 38.8902 17.6105 38.8802C14.6805 38.8802 12.2605 38.5402 12.2705 35.0602C12.2705 33.0502 13.4505 31.8902 15.6805 32.0002V33.6802V33.6902Z" fill="#996F8F"/>
<path d="M21.06 24.5798V24.6098C22.21 25.1098 22.71 25.8898 22.69 27.1298C22.69 29.2498 21.31 29.8598 19.39 29.8598C16.36 29.8398 16.24 26.8698 16.3 24.5898C14.97 24.5398 13.52 24.5298 13.52 26.2698C13.52 27.3498 14.25 27.9398 15.3 27.8398V29.5998C13.05 29.5198 12.29 28.3198 12.29 26.1998C12.31 23.6298 13.63 22.9498 15.32 22.9598H20.14C20.93 22.9798 21.74 22.8998 22.52 22.7798L22.5 24.5598H21.06V24.5798ZM19.53 28.2398C20.5 28.2398 21.37 27.7698 21.37 26.6898C21.37 25.6898 20.77 24.4598 17.54 24.5998C17.56 26.1498 17.41 28.2398 19.53 28.2398Z" fill="#996F8F"/>
<path d="M14.0203 18.8099V18.7799C12.5003 18.0999 12.3203 17.2599 12.3203 15.6699H14.0003C13.9803 15.8199 13.9703 15.9799 13.9503 16.1099C13.9203 16.2599 13.9003 16.3999 13.9003 16.5499C13.9003 18.3599 15.2603 18.8099 16.6003 18.8099L22.5203 18.8399L22.5003 20.4599L12.4903 20.4299L12.5103 18.8099H14.0103H14.0203Z" fill="#996F8F"/>
<path d="M8.23047 14.7201V12.8901H9.98047V14.7201H8.23047ZM22.5405 13.0301V14.6501L12.5305 14.6301V13.0001L22.5405 13.0301Z" fill="#996F8F"/>
<path d="M17.7005 11.1698C14.7605 11.1698 12.3405 10.8298 12.3605 7.34978C12.3605 3.88978 14.7905 3.54978 17.7205 3.55978C22.1405 3.57978 22.7705 5.25978 22.7705 7.37978C22.7705 9.49978 22.1205 11.1798 17.7105 11.1698M17.0205 5.26978C14.2905 5.26978 13.6905 6.10978 13.6905 7.35978C13.6705 8.60978 14.2705 9.45978 17.0105 9.47978C20.2605 9.47978 21.4305 9.07978 21.4405 7.38978C21.4405 5.70978 20.2805 5.28978 17.0205 5.26978Z" fill="#996F8F"/>
<path d="M22.5798 0V1.86H20.5098L20.5298 0H22.5798Z" fill="#996F8F"/>
</g>
<defs>
<clipPath id="clip0_195_3489">
<rect width="30.53" height="690.74" fill="white"/>
</clipPath>
</defs>
</svg>
