<svg width="432" height="184" viewBox="0 0 432 184" fill="none" xmlns="http://www.w3.org/2000/svg">
<path d="M530.925 132.87C523.663 132.87 516.767 134.352 510.493 137.043C500.177 104.311 469.612 80.5675 433.505 80.5675C429.975 80.5675 426.518 80.8238 423.115 81.2632C402.995 33.5195 355.785 0 300.746 0C297.637 0 294.564 0.146451 291.509 0.347824C288.454 0.146451 285.382 0 282.272 0C227.233 0 180.042 33.5195 159.903 81.2632C156.501 80.8238 153.044 80.5675 149.513 80.5675C113.406 80.5675 82.8232 104.311 72.5252 137.043C66.2513 134.371 59.3554 132.87 52.0937 132.87C23.6507 132.87 0.567032 155.68 0 184H583C582.433 155.68 559.349 132.87 530.906 132.87H530.925Z" fill="white"/>
</svg>
