<svg width="573" height="640" viewBox="0 0 573 640" fill="none" xmlns="http://www.w3.org/2000/svg">
<path d="M341.111 216.469L268.505 225.94L202.398 273.882L169.124 296.576L135.605 262.105L79.3596 310.44L41.5685 352.706L26.6935 384.532L26.6096 416.089L38.3651 443.963L69.5781 457.168L115.998 454.702L164.158 439.402L202.081 421.732L204.719 501.375L231.656 509.342L312.652 515.899L411.162 513.713L437.796 509.342L446.552 499.507L449.811 467.764L431.594 336.678L406.784 209.913L341.111 216.469Z" fill="#ECE7F5"/>
<mask id="mask0_8926_193497" style="mask-type:luminance" maskUnits="userSpaceOnUse" x="0" y="0" width="573" height="604">
<path d="M0.339905 0.0932617H572.061V603.323H0.339905V0.0932617Z" fill="white"/>
</mask>
<g mask="url(#mask0_8926_193497)">
<path d="M319.205 85.5472C319.65 84.7021 320.091 83.806 320.693 83.052C321.091 82.4874 321.321 82.2615 321.609 82.0976C321.872 81.8827 322.171 81.7442 322.514 81.686C323.058 81.5985 323.572 81.6568 324.072 81.8936C324.874 82.236 325.258 82.3963 325.601 82.6841C326.075 83.0848 326.48 83.6567 326.582 84.2905C326.6 84.5382 326.618 84.7859 326.637 85.0336C326.604 85.5363 326.454 85.9989 326.184 86.4251C325.947 86.8768 325.604 87.2811 325.301 87.6928L324.455 88.8511C323.867 89.6525 323.28 90.4576 322.696 91.259C322.24 91.8819 321.635 92.359 320.857 92.5193C320.183 92.6577 319.307 92.5266 318.734 92.1223C318.117 91.6888 317.596 91.0513 317.475 90.29C317.457 90.0423 317.439 89.7946 317.421 89.5505C317.453 89.0515 317.603 88.5925 317.869 88.1699C318.307 87.2921 318.745 86.4178 319.201 85.5509L319.205 85.5472Z" fill="#200020"/>
<path d="M27.101 373.866C33.6464 357.245 45.2632 343.133 57.7812 330.624C71.5033 316.924 86.3709 304.357 100.812 291.447C132.386 263.212 163.902 234.916 195.669 206.918C199.241 203.774 202.86 200.766 206.582 197.83C213.2 177.773 221.158 158.317 230.053 139.142C237.113 123.916 246.715 105.181 265.556 103.287C271.613 102.671 279.308 103.815 284.131 108.044C284.674 104.872 285.455 101.553 286.601 98.3986C287.75 95.2403 289.25 92.2752 291.22 89.7654C291.293 88.6507 291.191 87.7692 290.983 86.9314C290.585 85.3759 290.027 83.8642 289.571 82.3197C288.721 79.4274 288.425 76.3712 289.221 73.4206C290.06 70.277 292.457 67.8837 295.573 66.9913C298.221 66.2263 301.06 66.9038 303.647 67.534C304.311 67.6797 304.971 67.8582 305.631 68.0039C306.471 68.1496 306.763 68.197 307.073 68.2261C307.412 68.2698 307.748 68.299 308.102 68.3136C308.189 68.3281 308.543 68.3427 308.718 68.3573C309.481 66.9767 310.218 65.6107 311.013 64.2629C305.132 48.0675 316.132 31.6353 329.453 22.8127C343.882 13.2688 362.41 10.6388 379.309 12.9883C397.074 15.4544 413.708 23.0604 427.473 34.513C439.488 44.5268 449.269 56.8609 457.121 70.328C466.403 58.7733 480.785 51.6956 495.58 50.6647C512.316 49.5063 529.963 56.0559 541.037 68.8417C545.831 74.4078 549.198 81.0885 550.023 88.3702C550.333 88.7236 550.523 89.208 550.537 89.7945C550.581 92.512 550.742 95.1384 550.494 97.8412C550.227 100.646 549.742 103.418 549.14 106.165C547.951 111.479 546.112 116.532 543.744 121.42C539.406 130.363 533.083 138.924 524.316 143.943C515.873 148.803 505.668 148.952 496.74 145.28C490.713 142.799 485.532 139.04 481.179 134.385C485.842 153.666 489.312 173.311 493.606 192.544C502.917 234.348 515.49 275.357 525.049 317.102C527.446 327.601 529.653 338.128 531.58 348.714C533.477 359.256 535.889 370.358 534.316 381.104C533.108 389.446 529.314 397.915 522.272 402.953C515.698 407.638 507.226 408.461 499.947 404.862C499.52 404.654 499.093 404.421 498.681 404.17C497.565 417.357 490.239 429.702 479.136 437.235C469.873 443.518 458.65 445.179 448.091 442.903C447.737 451.226 449.813 459.655 451.269 467.76C452.812 476.277 453.593 484.954 451.608 493.471C449.667 501.736 444.548 508.886 436.697 512.471C433.829 513.779 430.786 514.675 427.667 515.319C441.695 526.404 453.462 540.56 463.345 555.345C464.112 556.489 464.86 557.651 465.597 558.81C466.742 560.587 467.848 562.376 468.906 564.183C470.201 566.357 471.449 568.543 472.642 570.761C473.317 571.996 473.981 573.227 474.612 574.477C480.231 585.314 484.846 596.679 488.407 608.35C491.599 618.805 494.04 629.613 495.259 640.493C495.39 641.681 495.007 642.872 494.172 643.604C494.467 644.912 493.891 646.409 492.26 646.602C481.347 647.852 470.259 647.819 459.303 648.128C452.936 648.303 446.566 648.482 440.199 648.628C437.171 648.7 434.139 648.773 431.111 648.831C429.509 648.861 427.889 648.89 426.288 648.919C404.535 649.301 382.772 649.52 361.005 649.578H359.52C357.477 649.593 355.43 649.593 353.387 649.593C324.341 649.637 295.295 649.389 266.235 648.842C263.707 648.813 261.204 648.755 258.69 648.711C249.16 648.522 239.615 648.3 230.086 648.052C205.524 647.407 180.966 646.555 156.408 645.498C154.598 645.411 153.657 644.147 153.525 642.752C152.526 642.355 151.789 641.462 152.011 640.125C153.938 628.982 157.688 617.952 161.453 607.308C165.233 596.592 169.557 586.075 174.366 575.799C179.145 565.61 184.395 555.651 190.087 545.962C189.47 546.02 188.865 546.035 188.248 546.035C183.512 546.035 178.762 544.45 174.924 541.525C172.187 539.427 169.907 536.811 168.247 533.773C167.422 532.262 166.777 530.648 166.291 529.001C166.145 528.502 166.01 528.003 165.894 527.504C156.01 529.118 145.641 527.727 136.509 522.965C119.861 514.289 109.477 495.86 111.257 477.14C111.889 470.518 113.815 463.677 117.256 457.816C113.374 458.534 109.462 459.124 105.518 459.546C88.3265 461.411 69.825 461.072 53.7788 453.922C46.2775 450.574 39.3964 445.846 34.1317 439.486C29.2499 433.57 25.8824 426.624 23.8793 419.24C19.866 404.425 21.5261 388.036 27.101 373.855V373.866ZM494.916 137.364C502.093 141.506 510.933 143.062 518.711 139.67C521.298 138.541 523.652 137.044 525.786 135.266C518.255 137.572 509.977 136.501 502.505 134.505C495.211 132.538 487.962 129.176 481.489 124.666C485.003 129.791 489.403 134.195 494.916 137.368V137.364ZM283.244 118.127C283.244 117.042 283.273 115.967 283.332 114.896C281.245 113.06 279.067 111.461 276.389 110.507C273.317 109.421 270.051 109.039 266.815 109.407C259.27 110.245 253.122 114.339 248.27 120.036C242.695 126.586 239.006 134.603 235.445 142.355C231.195 151.589 227.196 160.958 223.46 170.429C219.209 181.208 214.988 191.367 211.431 202.394C210.8 204.361 208.932 204.933 207.447 204.492C201.313 210.499 194.885 216.196 188.533 221.966C180.915 228.869 173.238 235.695 165.576 242.551C157.502 249.789 149.428 257.012 141.354 264.25C141.898 264.575 142.31 265.03 142.678 265.412C143.237 265.984 143.766 266.571 144.309 267.146C145.531 268.454 146.735 269.744 147.958 271.051C150.34 273.576 152.708 276.104 155.076 278.628C157.371 281.08 159.68 283.531 161.961 286.012C163.165 287.32 164.402 288.613 165.58 289.946C166.653 291.166 167.579 292.503 168.594 293.778C168.769 293.618 168.948 293.454 169.123 293.294C195.213 269.507 223.007 246.5 255.304 231.86C254.965 231.331 254.804 230.727 254.906 230.097C255.392 227.131 257.614 224.618 259.303 222.196C260.904 219.875 262.554 217.569 264.228 215.293C267.702 210.55 271.317 205.924 275.068 201.388C279.979 195.444 285.098 189.641 290.421 184.049C289.596 184.078 288.757 184.108 287.936 184.108C287.422 184.108 286.907 184.107 286.393 184.078C282.438 183.918 278.439 183.168 274.834 181.477C268.526 178.527 263.203 172.345 263.553 165.165C262.451 159.439 263.185 153.698 264.159 148.427C265.173 142.996 266.746 137.74 268.997 132.687C269.613 131.292 271.292 129.912 272.952 130.676C277.086 132.614 281.424 134.126 285.878 135.08C284.127 129.62 283.244 123.861 283.244 118.124V118.127ZM275.32 165.056C274.262 164.426 273.215 163.763 272.186 163.06C271.303 162.459 270.434 161.811 269.555 161.18L268.833 160.667C268.76 161.461 268.687 162.266 268.61 163.06C268.654 163.293 268.698 163.53 268.698 163.792C268.698 167.271 270.256 170.283 272.609 172.586C272.682 172.232 272.755 171.883 272.846 171.558C273.109 170.487 273.506 169.431 273.889 168.415C274.331 167.282 274.787 166.153 275.316 165.053L275.32 165.056ZM288.615 147.407C285.218 144.351 281.114 142.563 277.129 140.417C276.454 140.049 276.159 139.434 276.13 138.774C275.291 138.465 274.455 138.173 273.616 137.82C272.146 141.535 270.967 145.367 270.132 149.272C269.778 150.959 269.559 152.649 269.365 154.35C270.558 154.864 271.544 155.716 272.572 156.463C273.485 157.126 274.397 157.771 275.28 158.459C276.279 159.239 277.25 160.044 278.206 160.853C279.03 160.485 280.03 160.485 280.778 161.013C282.044 161.894 282.321 163.406 281.588 164.728C281.059 165.697 280.515 166.652 280.03 167.65C279.337 169.132 279.132 169.631 278.928 170.145C278.53 171.143 278.206 172.156 277.855 173.172C277.695 173.657 277.516 174.156 277.326 174.626C277.195 174.95 277.016 175.241 276.856 175.551C277.443 175.846 278.06 176.094 278.68 176.316C281.077 177.168 283.547 177.565 286.046 177.711C286.327 177.609 286.605 177.492 286.885 177.43C287.754 176.418 288.666 175.609 289.622 175.11C295.974 171.806 298.181 164.907 296.032 158.197C294.708 154.012 291.855 150.311 288.618 147.404L288.615 147.407ZM374.928 28.4734C358.075 29.1364 342.5 37.5911 330.762 49.3679C323.998 56.1506 318.467 64.0953 314.129 72.6265C313.436 73.9779 311.659 74.4187 310.261 74.0071C308.645 74.5207 306.908 74.5207 305.143 74.2147C303.804 73.9925 302.479 73.6865 301.158 73.406C300.969 73.3623 300.775 73.3186 300.571 73.2895C299.528 73.1292 298.926 73.0527 298.334 73.0527C297.025 73.2567 296.718 73.3769 296.539 73.4789C295.937 74.0799 295.817 74.2584 295.686 74.4478C295.463 75.0198 295.405 75.2565 295.346 75.5042C295.2 76.546 295.2 77.1325 295.2 77.7372C295.288 78.382 295.332 78.7062 295.408 79.0158C295.54 79.7079 295.719 80.3672 295.923 81.0266C296.879 84.2139 299.334 89.2044 296.908 92.2315C296.612 92.5994 296.273 92.8762 295.908 93.0693C294.365 97.0763 292.672 100.894 291.541 104.992C292.143 105.742 292.763 106.474 293.351 107.239C293.953 107.99 294.544 108.737 295.131 109.487C295.427 109.869 295.704 110.266 295.985 110.645C296.383 111.203 296.707 111.629 296.868 112.306C296.941 112.529 296.955 112.776 296.941 113.028C297.028 114.04 296.78 114.893 295.941 115.465C295.16 116.007 294.369 115.993 293.544 115.669C293.088 115.523 292.851 115.388 292.617 115.213C292.059 114.816 291.778 114.375 291.399 113.818C291.147 113.45 290.899 113.068 290.676 112.685C290.53 112.452 290.381 112.215 290.235 111.982C289.677 116.492 289.72 121.071 290.41 125.548C292.044 136.148 297.101 145.87 304.661 153.462C306.485 155.297 308.47 157.002 310.572 158.529C313.925 151.626 317.117 144.639 320.247 137.634C327.482 121.497 334.484 105.156 342.529 89.3683C342.277 89.3683 342.014 89.3392 341.766 89.2518C340.03 88.6799 339.69 86.8002 339.825 85.2266C340.135 81.4819 339.636 77.8866 338.209 74.5535C336.564 70.6922 333.871 67.0787 330.383 64.5834C327.957 62.8495 330.266 59.3853 332.853 60.7367C340.383 64.6854 345.09 72.5573 345.721 80.9537C345.765 81.5547 345.823 82.2469 345.853 82.9645C350.782 73.7594 356.105 64.802 362.118 56.2125C368.955 46.4173 376.693 36.9645 385.618 28.9324C382.09 28.477 378.514 28.3313 374.928 28.477V28.4734ZM301.085 172.163C300.6 173.176 299.998 174.145 299.334 175.055C301.173 173.234 303.056 171.34 305.04 169.537C305.909 167.876 306.763 166.218 307.598 164.543C305.982 163.413 304.435 162.178 302.95 160.889C303.037 161.712 303.096 162.532 303.096 163.355C303.096 166.353 302.461 169.347 301.082 172.167L301.085 172.163ZM357.484 149.801C358.823 149.844 360.162 149.83 361.497 149.713C362.512 149.626 363.526 149.491 364.54 149.302C369.13 148.405 373.468 146.264 376.631 142.77C379.339 139.772 380.809 135.678 380.262 131.638C379.762 127.952 377.762 124.356 374.114 123.02C372.129 122.287 369.597 122.167 367.35 122.768C365.952 126.866 364.336 130.917 362.88 134.942C361.1 139.903 359.29 144.854 357.484 149.801ZM171.757 527.275C172.082 528.51 172.552 529.697 173.14 530.841C174.314 533.118 175.964 535.187 177.978 536.789C182.272 540.166 187.905 541.208 193.272 540.665C198.212 532.589 203.492 524.703 209.096 517.068C211.066 514.38 213.065 511.739 215.112 509.109C211.493 508.493 207.877 507.845 204.258 507.171C202.963 506.919 201.536 506.143 201.361 504.675C200.405 506.027 199.318 507.378 198.198 508.682C196.8 510.311 195.257 511.793 193.579 513.13C192.681 513.851 191.725 514.569 190.74 515.228C190.58 515.553 190.357 515.862 190.036 516.139C184.654 520.926 178.284 524.317 171.534 526.269C171.593 526.594 171.666 526.932 171.757 527.267V527.275ZM121.003 498.527C127.738 512.416 141.664 521.519 156.962 522.004C152.372 519.228 148.374 514.97 145.331 510.992C139.212 502.96 135.111 493.474 133.491 483.504C132.565 477.807 132.167 471.64 133.302 465.943C133.991 462.406 139.493 463.681 139.362 467.087C139.158 472.74 138.891 478.055 139.935 483.664C140.978 489.241 142.832 494.574 145.448 499.609C148.023 504.541 151.241 509.109 155.215 513.043C159.082 516.875 164.744 520.692 170.495 519.825C170.834 519.782 171.14 519.782 171.407 519.84C175.084 518.623 178.554 516.904 181.717 514.729C178.098 513.116 174.745 510.646 171.819 508.165C167.922 504.847 164.613 500.927 161.818 496.654C159.009 492.367 156.893 487.682 155.437 482.779C154.729 480.386 154.2 477.92 153.879 475.439C153.525 472.678 152.953 469.567 154.277 467.01C155.218 465.232 157.94 465.615 158.765 467.232C159.837 469.334 159.516 471.931 159.808 474.237C160.118 476.543 160.589 478.82 161.235 481.049C162.497 485.526 164.485 489.799 166.985 493.718C169.426 497.594 172.501 501.033 175.913 504.085C178.897 506.759 182.279 508.712 185.632 510.795C186.22 510.471 186.796 510.136 187.369 509.768C187.573 509.637 187.781 509.502 187.985 509.371C188.573 508.945 188.985 508.639 189.383 508.329C190.955 507.08 192.411 505.717 193.735 504.217C194.089 503.805 194.352 503.499 194.367 503.455C194.662 503.102 194.94 502.719 195.22 502.355C195.749 501.619 196.235 500.872 196.735 500.122C190.306 496.629 185.132 490.24 181.659 484.058C177.569 476.758 175.438 468.449 175.526 460.078C175.57 456.173 181.615 456.526 181.586 460.431C181.528 467.746 183.469 474.955 187.015 481.34C188.766 484.499 190.882 487.42 193.323 490.076C195.206 492.101 197.278 493.849 199.369 495.627C199.708 495.128 199.825 494.993 199.927 494.848C197.778 471.487 196.413 448.465 196.22 425.41C184.662 432.576 172.706 439.052 160.177 444.469C148.822 449.372 137.041 453.426 124.968 456.217C121.408 461.783 118.631 467.801 117.602 474.408C116.322 482.601 117.365 491.03 121.013 498.519L121.003 498.527ZM28.4838 405.361C29.0858 419.633 35.0583 433.716 46.8065 442.305C59.8792 451.849 76.779 454.14 92.5734 453.758C103.103 453.496 113.603 452.024 123.87 449.631C125.18 449.321 126.49 448.997 127.781 448.662C133.988 447.063 140.077 445.125 146.06 442.921C163.767 436.371 180.356 427.534 196.195 417.473C198.165 416.213 200.12 414.949 202.061 413.67C215.973 404.48 229.356 394.437 242.505 384.259C246.285 381.323 250.05 378.387 253.83 375.447C254.932 374.58 256.391 374.333 257.581 374.89C258.022 374.624 258.566 374.42 259.051 374.42C259.934 374.507 260.565 374.657 261.215 374.803C261.656 374.875 262.098 374.977 262.539 375.098C263.024 375.229 263.509 375.378 263.98 375.509C264.451 375.64 264.907 375.79 265.348 375.95C265.819 376.11 266.319 376.26 266.775 376.464C267.289 376.697 267.789 376.934 268.187 377.374C268.687 377.917 268.968 378.624 269.011 379.356C269.055 379.942 268.953 380.456 268.701 380.984C268.38 381.687 267.91 382.117 267.246 382.525C267.056 382.642 266.848 382.733 266.644 382.806C266.348 382.937 265.98 383.068 265.804 383.097C265.6 383.141 265.392 383.126 265.202 383.112C264.969 383.17 264.746 383.199 264.509 383.17C263.893 383.126 263.199 382.846 262.791 382.361C262.674 382.186 262.554 382.008 262.422 381.833C262.083 381.684 261.729 381.538 261.393 381.378C260.496 380.981 259.613 380.554 258.745 380.099C240.112 394.695 221.639 409.098 202.08 421.724C202.226 441.194 203.211 460.65 204.977 480.033C205.626 487.154 206.388 494.276 207.271 501.368C211.391 502.104 215.51 502.807 219.64 503.452C222.081 503.863 224.522 504.246 226.966 504.61C261.791 509.925 296.97 512.966 332.222 513.524C353.737 513.877 375.267 513.301 396.738 511.863C401.945 511.524 407.151 511.112 412.343 510.66C417.166 510.234 422.033 509.881 426.784 508.93C434.533 507.389 441.195 503.51 444.224 495.918C447.577 487.595 446.829 478.313 445.34 469.68C443.724 460.282 441.546 450.811 442.589 441.355C439.619 440.313 436.751 438.961 434.03 437.3C428.032 433.647 422.898 428.55 419.352 422.5C411.044 433.88 397.158 440.754 383.071 441.147C366.452 441.631 351.424 431.661 343.758 417.2C341.051 412.104 339.333 406.494 338.742 400.753C335.564 403.001 331.623 404.246 327.741 404.367C319.434 404.618 312.403 398.979 308.419 392.105C303.344 383.356 303.373 372.886 304.697 363.15C306.153 352.342 308.24 341.581 310.272 330.861C317.11 294.682 325.596 258.87 334.849 223.248C334.626 223.277 334.378 223.292 334.126 223.292C329.11 223.219 324.126 222.924 319.109 223.07C314.402 223.201 309.725 223.613 305.062 224.246C295.328 225.569 285.754 227.871 276.429 230.971C257.708 237.182 240.163 246.769 223.912 257.843C190.955 280.293 163.205 309.263 133.572 335.676C116.705 350.713 99.1589 364.894 79.8328 376.686C79.2308 377.054 78.523 377.141 77.848 377.01C77.0672 377.185 76.0968 377.068 75.2904 377.054C74.6884 377.039 74.0864 377.025 73.4807 376.966C72.8788 376.923 72.2731 376.864 71.6711 376.806C70.3175 376.704 68.7012 376.555 67.8475 375.542C67.3039 374.897 66.8332 374.176 66.9354 373.356C67.0229 372.577 67.3768 371.83 68.0664 371.316C68.9931 370.624 70.0366 370.362 71.2296 370.45C71.5106 370.464 71.8025 370.493 72.098 370.522C72.7146 370.595 73.3494 370.668 73.966 370.745C74.7468 370.847 75.4947 370.978 76.2609 371.113C76.4214 370.967 76.6003 370.832 76.79 370.715C109.32 350.189 136.793 322.996 164.985 297.093C163.84 296.066 162.632 295.111 161.516 294.04C160.235 292.806 159.046 291.472 157.809 290.194C155.397 287.698 153.015 285.185 150.647 282.661C148.323 280.224 146.013 277.772 143.704 275.321L140.04 271.445C139.497 270.873 138.939 270.301 138.41 269.714C138.041 269.332 137.658 268.949 137.381 268.494C137.279 268.334 137.22 268.17 137.144 267.995C131.306 273.237 125.468 278.479 119.612 283.706C104.73 297.009 89.7567 310.21 74.9912 323.63C62.2689 335.185 49.7983 347.358 40.6661 362.042C32.5482 375.094 27.8124 389.898 28.4728 405.357L28.4838 405.361Z" fill="#200020"/>
<path d="M405.28 571.632C407.691 583.525 410.355 595.389 412.912 607.254C416.076 621.894 420.385 638.235 431.104 648.835C434.132 648.777 437.164 648.704 440.192 648.631C433.942 644.504 429.28 638.118 426.135 631.394C421.884 622.291 420.001 612.321 417.9 602.584C415.605 591.881 413.325 581.161 410.957 570.473C410.855 570.047 410.632 569.402 410.617 568.932C412.146 568.448 413.31 568.24 414.456 567.993C416.97 567.421 419.502 566.922 422.045 566.466C427.353 565.526 432.706 564.834 438.076 564.383C448.387 563.501 458.592 564.179 468.902 564.193C467.844 562.386 466.742 560.598 465.593 558.82C460.77 558.219 455.87 558.117 451.017 558.128C444.443 558.172 437.854 558.569 431.326 559.33C425.503 560.008 419.724 560.991 414.003 562.252C411.635 562.78 408.545 563.075 406.619 564.674C404.503 566.466 404.794 569.213 405.28 571.635V571.632Z" fill="#ECE7F5"/>
<path d="M252.451 629.806C253.29 636.37 255.275 643.007 258.686 648.718C261.2 648.762 263.703 648.82 266.217 648.85C260.394 641.699 258.303 631.787 257.92 622.597C257.377 609.264 258.42 595.743 259.832 582.498C260.142 579.635 260.317 576.67 260.919 573.85C261.302 572.102 261.875 569.8 263.641 568.933C264.922 568.317 266.553 568.536 267.921 568.638C269.479 568.754 271.04 568.903 272.598 569.02C275.995 569.3 279.392 569.577 282.792 569.843C309.353 571.974 335.911 574.087 362.486 576.141C364.311 601.014 365.208 627.004 353.383 649.6C355.426 649.6 357.473 649.6 359.516 649.585C371.677 626.651 369.78 598.766 368.09 573.613C367.974 572 367.062 570.692 365.354 570.546C348.852 569.137 332.368 567.727 315.88 566.361C301.334 565.159 286.776 563.938 272.23 562.762C268.95 562.5 265.392 561.851 262.185 562.893C259.245 563.847 257.242 566.066 256.023 568.838C254.921 571.333 254.596 574.094 254.272 576.768C253.845 580.352 253.462 583.933 253.141 587.518C252.509 594.697 252.083 601.892 251.86 609.101C251.656 616.003 251.564 622.946 252.447 629.802L252.451 629.806Z" fill="#ECE7F5"/>
<path d="M260.318 572.32C263.39 573.446 267.188 573.457 270.428 573.894C273.668 574.331 276.904 574.79 280.148 575.22C286.872 576.109 293.596 577.038 300.331 577.835C313.564 579.402 326.801 580.786 340.078 581.908C347.681 582.549 355.303 583.044 362.866 584.057C364.837 584.323 364.702 587.153 362.688 587.15C349.287 587.139 335.816 585.605 322.481 584.345C308.989 583.07 295.49 581.864 282.03 580.258C278.305 579.813 274.58 579.373 270.862 578.892C269.06 578.659 267.261 578.411 265.462 578.163C263.459 577.89 261.358 577.391 259.333 577.529C255.608 577.788 256.421 570.889 260.314 572.32H260.318Z" fill="#ECE7F5"/>
<path d="M409.708 578.873C410.708 578.728 411.707 578.607 412.721 578.505C417.957 577.904 423.266 577.638 428.516 577.241C434.707 576.771 440.913 576.36 447.12 575.992C456.266 575.464 465.442 574.906 474.607 574.48C473.973 573.234 473.312 572 472.637 570.765C464.107 570.808 455.577 570.987 447.017 571.413C440.782 571.734 434.532 572.116 428.297 572.571C422.78 572.968 417.253 573.628 411.736 573.996C410.941 574.039 410.164 574.083 409.369 574.127C405.855 574.305 406.311 579.354 409.708 578.87V578.873Z" fill="#ECE7F5"/>
</g>
</svg>
