<svg width="452" height="572" viewBox="0 0 452 572" fill="none" xmlns="http://www.w3.org/2000/svg">
<mask id="mask0_8926_193520" style="mask-type:alpha" maskUnits="userSpaceOnUse" x="0" y="0" width="452" height="572">
<rect x="0.0878906" width="451.673" height="571.617" rx="15" fill="#DA0081"/>
</mask>
<g mask="url(#mask0_8926_193520)">
<g clip-path="url(#clip0_8926_193520)">
<path d="M433.996 343.406C424.873 340.081 393.779 318.884 383.828 297.69C373.877 276.494 362.682 222.881 341.121 199.607C319.561 176.33 274.365 163.445 229.586 178.825C184.807 194.202 165.734 251.142 159.516 273.169C153.296 295.195 128.005 366.68 105.2 380.812C99.3003 384.468 93.7872 388.445 88.4355 392.791C83.8901 396.483 78.4013 398.77 73.6167 402.262C63.6416 409.545 55.5535 419.617 51.5323 431.386C48.4008 440.549 48.2879 450.618 50.4947 460C55.1073 479.623 71.2593 497.226 92.3492 496.768C91.4622 496.787 91.774 508.176 91.8277 508.901C92.3868 516.547 94.3168 525.255 99.303 531.18C109.423 543.205 123.543 552.116 138.566 556.521C163.164 563.737 186.727 555.939 210.185 548.648C237.204 540.25 257.517 522.626 279.919 506.319C299.88 491.791 319.838 477.26 339.772 462.697C347.398 457.125 356.811 451.947 363.512 445.229C364.757 443.982 433.999 343.403 433.999 343.403L433.996 343.406Z" fill="#200020"/>
<path d="M287.941 455.797C285.807 464.748 281.189 473.203 276.813 481.232C272.448 489.248 267.601 497.024 262.021 504.253C259.209 507.893 256.223 511.404 253.038 514.715C249.974 517.919 246.759 521.055 242.611 522.798C238.136 524.673 233.093 525.409 228.376 526.417C223.344 527.503 218.309 528.513 213.221 529.292C203.286 530.817 193.123 531.442 183.142 529.971C182.091 529.817 181.03 529.642 179.992 529.445L168.635 532.921C168.635 532.921 156.196 542.486 122.201 512.15C88.2059 481.803 69.124 423.62 57.9312 381.647C50.5904 354.086 49.5286 342.999 49.999 337.349C49.9345 337.217 49.8888 337.085 49.8458 336.931C48.8405 332.292 49.4856 327.323 51.5204 323.047C53.3697 319.164 56.1921 315.985 59.8236 313.714C60.2295 313.46 60.8316 313.188 61.1031 312.771C61.4417 312.245 61.3208 311.542 61.2885 310.949C61.2455 309.952 61.2348 308.942 61.2885 307.932C61.4095 305.803 61.8019 303.688 62.404 301.648C64.7238 293.719 70.5325 286.897 78.0507 283.496C79.091 277.825 83.3138 273.363 88.3564 270.784C90.281 269.798 92.2943 269.116 94.364 268.645C98.1272 267.341 102.111 266.813 106.105 267.12C106.183 266.856 106.336 266.594 106.565 266.363C110.339 262.744 115.252 260.858 120.22 259.551C130.504 256.854 141.404 255.558 152.026 255.558C159.029 255.558 166.896 257.194 171.775 262.291C175.046 263.28 177.715 266.053 178.164 269.553C178.613 273.007 176.85 276.593 173.853 278.35C170.176 280.489 165.286 279.843 161.217 279.864C153.317 279.907 145.417 279.964 137.517 280.007C141.828 284.154 144.683 289.812 145.231 295.801C145.702 300.977 144.497 306.121 141.971 310.564C144.936 313.954 149.115 316.114 153.623 316.54C158.733 317.022 163.448 314.851 167.617 312.111C171.533 309.532 175.167 306.56 179.237 304.224C182.979 302.085 188.47 300.923 190.79 305.671C192.835 309.85 190.287 314.126 187.486 317.165C184.083 320.851 180.954 324.623 178.482 329.01C175.909 333.571 174.149 338.497 172.837 343.551C171.469 348.849 170.453 354.256 168.493 359.378C165.649 366.879 160.942 373.605 154.991 378.945C157.453 385.428 160.276 391.778 163.284 398.029C166.292 404.302 169.412 410.52 172.584 416.707C175.67 422.718 178.898 428.672 182.694 434.266C186.621 440.067 191.249 445.531 196.644 450.004C196.698 449.783 196.787 449.586 196.908 449.433C201.776 443.236 206.81 437.192 211.984 431.259C212.608 429.855 213.264 428.462 213.998 427.112C218.035 419.719 223.855 411.582 232.816 410.364C237.402 409.739 242.017 410.725 246.417 411.932C250.839 413.15 255.148 414.729 259.306 416.637C267.316 420.323 275.227 425.191 281.431 431.499C284.463 434.57 286.901 438.221 288.051 442.411C289.256 446.798 288.981 451.405 287.941 455.791V455.797Z" fill="#DA0081"/>
<path d="M358.458 409.305C357.321 415.47 356.117 421.654 354.268 427.654C352.419 433.719 349.956 439.577 347.397 445.367C342.637 456.126 337.506 466.841 334.64 478.292C334.858 478.489 335.089 478.675 335.318 478.874C336.893 480.257 334.936 482.9 333.347 481.507C332.232 482.11 330.536 481.518 330.875 479.993C330.918 479.828 330.95 479.664 330.995 479.499C323.327 473.028 315.11 467.27 306.554 462.018C289.902 451.785 272.338 443.133 254.81 434.511C243.881 429.139 232.938 423.763 222.173 418.059C221.189 417.545 220.213 417.017 219.24 416.491C219.875 415.602 220.509 414.716 221.143 413.816C230.562 400.557 240.542 386.376 248.967 374.057C259.614 358.505 279.045 339.267 311.422 335.024C311.564 334.946 311.717 334.881 311.914 334.849C318.534 333.52 324.824 336.756 330.493 339.785C335.767 342.592 340.954 345.653 345.548 349.49C349.65 352.912 353.217 356.916 355.832 361.598C358.426 366.238 359.937 371.425 360.657 376.668C362.144 387.548 360.426 398.614 358.458 409.308V409.305Z" fill="#ECE7F5"/>
<path d="M222.173 418.059C213.824 429.804 206.002 440.663 200.201 448.713C199.524 449.646 198.876 450.535 198.263 451.389C197.432 450.753 196.588 450.074 195.715 449.328C196.317 448.471 196.962 447.574 197.639 446.641C203.362 438.69 211.042 428.007 219.237 416.491C220.21 417.017 221.186 417.545 222.17 418.059H222.173Z" fill="#200020"/>
<path d="M380.836 316.279C380.081 321.926 378.221 327.388 376.296 332.731C374.525 337.61 372.565 342.425 370.41 347.143C361.69 366.235 349.916 383.951 335.606 399.293C328.724 406.662 320.287 415.359 309.258 414.22C299.509 413.223 294.399 403.911 292.136 395.345C287.093 376.25 291.776 354.94 304.095 339.577C304.248 339.391 304.412 339.248 304.586 339.149C309.358 330.058 315.768 321.853 324.072 315.931C332.738 309.766 342.847 306.477 353.483 306.697C359.609 306.829 365.738 307.719 371.821 308.376C374.151 308.629 377.433 308.408 379.358 309.966C381.239 311.491 381.132 314.123 380.836 316.284V316.279Z" fill="#DA0081"/>
<path d="M300.76 450.179C300.389 450.775 263.33 509.827 233.4 525.231C213.213 535.624 184.772 537.297 151.15 530.073C139.065 527.478 110.632 504.15 87.9776 462.317C68.3097 426.002 56.2407 366.669 51.6953 344.336C50.7948 339.903 50.2492 337.23 49.9562 336.274L46.8301 337.239C47.0774 338.041 47.6687 340.957 48.4912 344.99C53.0608 367.459 65.2024 427.137 85.1015 463.883C108.245 506.618 137.786 530.555 150.462 533.279C164.375 536.27 177.439 537.757 189.449 537.757C207.101 537.757 222.47 534.54 234.892 528.147C265.62 512.331 301.997 454.374 303.529 451.917L300.755 450.179H300.76Z" fill="#200020"/>
<path d="M450.893 526.263C447.992 529.893 443.42 530.574 439.066 530.892C433.87 531.275 428.693 531.792 423.518 532.46C402.609 535.157 382.062 539.94 361.338 543.726C351.053 545.601 340.713 547.234 330.297 548.222C325.098 548.716 319.892 549.044 314.661 549.176C312.266 549.23 309.529 549.572 307.242 548.662C305.186 547.84 303.928 546.029 302.823 544.197C297.122 534.678 291.488 525.113 285.808 515.572C280.327 506.349 274.701 497.191 269.428 487.857C264.318 478.842 260.138 469.476 258.135 459.254C256.208 449.339 256.133 439.097 257.216 429.071C259.208 410.591 264.603 392.013 272.831 375.353C280.599 359.637 291.442 345.314 305.863 335.148C307.307 334.127 308.96 335.805 308.422 337.088C309.134 337.559 309.505 338.481 308.761 339.292C304.089 344.414 300.358 350.304 297.842 356.762C295.195 363.563 293.455 371.482 295.676 378.643C297.219 383.622 300.807 388.208 305.852 389.93C311.422 391.816 317.558 389.523 321.948 385.983C326.466 382.332 329.541 377.21 332.232 372.12C337.036 359.475 340.777 346.413 347.419 334.568C352.911 324.796 360.789 315.759 370.912 310.79C380.325 306.17 396.104 306.795 405.651 310.801C413.334 314.026 419.535 320.671 423.871 327.668C428.029 334.391 430.741 341.981 431.703 349.846C432.744 358.336 431.486 366.669 428.913 374.774C428.19 377.067 427.381 379.314 426.55 381.564C431.604 399.956 438.093 417.911 442.24 436.556C446.933 457.624 449.659 479.066 452.121 500.497C452.667 505.344 453.468 510.237 453.621 515.117C453.742 518.945 453.379 523.157 450.895 526.271L450.893 526.263Z" fill="#ECE7F5"/>
<path d="M491.778 529.981C492.259 534.467 491.012 539.075 488.332 542.693C485.937 548.737 482.303 554.295 477.795 558.957C470.497 566.501 461.132 571.798 451.163 574.926C439.817 578.469 427.715 579.313 415.91 579.852C395.855 580.773 375.743 579.577 355.963 576.287C345.23 575.586 334.496 574.808 323.763 573.919C302.362 572.14 280.982 569.993 259.647 567.468C248.979 566.207 238.323 564.847 227.687 563.41C218.113 562.106 208.516 560.678 199.251 557.927C198.517 557.971 197.786 558.027 197.052 558.124C196.122 558.245 195.52 557.674 195.313 556.984C195.082 556.941 194.854 556.909 194.636 556.863C177.25 553.387 163.388 541.793 152.139 528.61C149.26 526.042 146.712 523.137 144.82 519.694C143.013 516.415 141.908 512.697 141.833 508.946C141.755 504.835 143.145 501.324 145.061 497.748C143.016 492.669 142.774 486.901 146.43 482.56C150.588 477.613 157.765 476.341 162.6 481.024C165.106 483.449 167.044 486.464 169.307 489.107C171.713 491.904 174.264 494.58 176.965 497.102C182.338 502.113 188.279 506.567 194.69 510.164C197.896 511.95 201.221 513.519 204.635 514.858C208.455 516.35 212.557 517.897 216.715 517.226C217.502 517.094 218.072 517.49 218.333 518.048C221.244 518.552 224.263 518.859 227.053 517.972C228.945 517.369 230.456 516.173 231.966 514.936C233.662 513.554 235.348 512.171 237.033 510.789C240.009 508.343 242.909 506.074 244.452 502.431C245.885 499.052 246.344 495.369 246.793 491.759C246.825 491.505 246.903 491.287 247.014 491.112C246.554 488.579 245.788 486.111 244.804 483.697C240.471 473.103 232.179 463.319 229.528 452.078C228.128 451.179 227.077 449.796 226.674 448.085C226.072 445.475 227.276 442.667 229.475 441.199C229.749 441.013 230.044 440.924 230.34 440.902C231.434 439.07 233.098 437.591 235.286 436.844C240.92 434.926 246.96 437.513 250.922 441.57C255.54 446.275 258.12 452.561 262.257 457.659C265.899 462.145 270.222 465.938 274.918 469.228C275.409 468.835 276.122 468.724 276.877 469.174C279.436 470.732 282.008 472.289 284.581 473.846C286.879 474.833 289.242 475.732 291.43 476.907C303.114 483.137 311.135 493.666 317.71 504.985C330.193 503.878 342.679 502.771 355.14 501.542C366.586 500.413 378.017 499.195 389.431 497.781C395.143 497.067 400.854 496.08 406.588 495.663C412.179 495.267 417.353 496.124 422.573 498.099C432.925 502.003 443.056 506.61 453.079 511.25C457.533 513.311 462.127 515.351 466.035 518.368C467.938 519.837 469.57 521.537 471.046 523.412C472.008 524.652 473.9 527.152 475.728 526.363C476.911 520.99 477.962 515.55 479.349 510.239C479.851 508.321 480.792 506.467 482.62 505.524C484.174 504.713 486.001 504.756 487.63 505.306C491.81 506.721 493.264 511.129 493.364 515.165C493.474 520.079 492.883 525.08 491.789 529.981H491.778Z" fill="#DA0081"/>
<path d="M489.352 527.427C486.277 533.557 481.299 538.604 474.756 540.886C470.62 542.333 466.254 542.793 461.989 543.618C457.492 544.494 453.126 545.943 448.694 547.072C434.284 550.769 419.153 548.279 406.646 540.153C400.563 536.203 395.311 530.941 391.448 524.765C386.645 517.067 383.363 508.424 379.696 500.155C375.812 491.347 371.906 482.552 368.033 473.744C364.477 465.65 361.052 457.249 360.835 448.291C360.781 446.194 364.031 445.701 364.074 447.819C364.117 449.519 364.291 451.209 364.544 452.887C364.74 451.44 365.125 449.991 365.617 448.598C366.907 444.89 368.724 441.304 370.584 437.861C374.183 431.17 378.747 425.205 385.126 420.959C390.628 417.284 396.845 414.861 403.146 412.951C410.038 410.868 417.086 409.179 424.209 408.05C438.256 405.835 453.718 405.703 467.123 411.121C470.219 412.372 472.671 414.29 474.278 417.251C475.953 420.355 476.762 423.974 477.745 427.331C479.912 434.746 481.871 442.215 483.611 449.737C487.135 464.95 489.771 480.359 491.521 495.879C491.575 496.393 491.433 496.811 491.183 497.118C491.981 500.551 492.693 504.005 492.989 507.537C493.559 514.316 492.419 521.346 489.355 527.433L489.352 527.427Z" fill="#DA0081"/>
<path d="M361.107 305.598C358.744 308.209 356.424 310.874 354.072 313.495C349.804 318.246 345.538 322.982 341.272 327.719C337.124 332.326 332.977 336.931 328.832 341.539C325.518 345.214 322.279 348.964 318.94 352.615C315.494 349.94 312.048 347.264 308.6 344.586C305.261 346.669 301.729 348.49 298.095 350.058C290.338 353.391 281.892 356.387 273.411 356.934C264.888 357.47 256.913 354.873 249.636 350.54C236.747 342.84 226.638 330.613 221.2 316.629C221.015 316.157 221.079 315.697 221.289 315.301C220.152 314.301 218.915 313.415 217.864 312.318C215.445 309.75 213.806 306.253 212.273 303.117C208.991 296.383 206.803 289.068 207.174 281.51C207.196 281.117 207.338 280.81 207.534 280.589C204.537 264.115 207.645 246.613 216.518 232.375C217.448 230.258 218.389 228.153 219.372 226.046C220.095 224.478 222.273 225.004 222.558 226.289C230.019 226.057 237.065 228.525 243.981 231.093C270.011 240.744 297.221 245.823 324.456 250.67C324.695 250.342 324.926 250.002 325.19 249.673C329.633 244.101 338.253 241.173 344.24 246.198C349.755 250.837 350.059 258.021 349.306 264.7C350.115 268.176 350.325 271.862 348.323 274.987C347.118 276.862 345.315 278.048 343.476 279.209C341.78 281.338 339.646 283.081 337.141 284.167C337.6 290.868 342.404 296.451 347.906 299.894C350.685 301.637 353.739 302.933 356.822 304.008C358.179 304.48 359.722 304.766 360.969 305.501C361.012 305.533 361.069 305.555 361.112 305.601L361.107 305.598Z" fill="#DA0081"/>
<path d="M223.087 223.085C224.441 221.458 221.807 219.494 220.458 221.116C212.015 231.26 206.357 243.606 204.077 256.612C201.792 269.631 203.147 283.154 207.725 295.537C210.327 302.575 213.993 309.209 218.541 315.166C219.826 316.85 222.42 314.832 221.135 313.148C213.396 303.009 208.437 290.882 206.824 278.218C205.222 265.627 207.109 252.761 212.069 241.095C214.84 234.577 218.56 228.525 223.087 223.085Z" fill="#200020"/>
<path d="M320.31 327.458C311.671 341.42 297.683 352.297 281.305 355.075C272.728 356.53 263.766 355.83 255.608 352.745C247.837 349.805 241.174 344.672 235.83 338.346C229.82 331.235 225.444 322.92 221.963 314.32C221.167 312.353 218.143 313.638 218.939 315.6C225.374 331.502 235.381 347.194 251.469 354.577C268.072 362.199 287.721 359.747 302.892 350.012C311.015 344.802 317.862 337.626 322.937 329.422C324.041 327.636 321.423 325.65 320.308 327.452L320.31 327.458Z" fill="#200020"/>
<path d="M280.589 286.291C279.864 285.795 278.832 285.876 278.291 286.622C276.447 289.182 274.606 291.741 272.762 294.301C272.259 294.999 272.351 296.098 273.093 296.605C273.818 297.1 274.851 297.02 275.391 296.273C277.235 293.714 279.076 291.154 280.92 288.594C281.423 287.896 281.331 286.797 280.589 286.291Z" fill="#200020"/>
<path d="M240.727 308.16C239.929 306.684 238.657 305.391 237.348 304.367C235.937 303.262 234.289 302.408 232.566 301.915C231.921 301.732 231.298 301.804 230.808 302.306C230.314 302.809 230.263 303.437 230.456 304.089C230.542 304.375 230.653 304.647 230.774 304.911C230.542 305.331 230.486 305.841 230.682 306.334C231.886 309.381 234.725 311.612 237.934 312.154C239.152 312.358 240.461 312.03 240.974 310.785C241.321 309.944 241.149 308.942 240.727 308.16Z" fill="#200020"/>
<path d="M224.611 291.348C212.206 291.348 202.115 300.81 202.115 312.445C202.115 324.079 212.206 333.539 224.611 333.539C237.016 333.539 247.109 324.076 247.109 312.445C247.109 300.813 237.016 291.348 224.611 291.348ZM224.611 329.166C214.612 329.166 206.475 321.662 206.475 312.442C206.475 303.222 214.612 295.718 224.611 295.718C234.61 295.718 242.747 303.222 242.747 312.442C242.747 321.662 234.61 329.166 224.611 329.166Z" fill="#ECE7F5"/>
<path d="M252.863 324.448C250.839 315.891 247.936 307.371 242.813 300.142C237.523 292.679 229.846 287.355 220.898 285.372C215.968 284.278 210.178 283.871 205.824 286.867C204.079 288.069 206.1 290.661 207.834 289.467C211.286 287.093 216.21 287.743 220.072 288.543C224.164 289.389 228.118 291.097 231.558 293.468C238.098 297.976 242.536 304.758 245.549 312.011C247.283 316.185 248.576 320.523 249.613 324.917C250.097 326.965 253.35 326.51 252.863 324.448Z" fill="#200020"/>
<path d="M264.048 332.028C263.306 331.473 262.319 331.672 261.752 332.359C258.946 335.754 253.871 337.168 249.667 335.66C247.683 334.948 246.474 338.009 248.471 338.726C254.086 340.739 260.583 338.928 264.381 334.331C264.948 333.647 264.736 332.542 264.05 332.03L264.048 332.028Z" fill="#200020"/>
<path d="M325.853 513.198C318.238 500.515 309.593 487.989 297.833 478.804C294.984 476.581 291.963 474.606 288.791 472.876C285.324 470.988 281.633 469.622 278.036 468.013C274.486 466.429 271.23 464.443 268.545 461.595C265.935 458.825 263.817 455.638 261.747 452.458C257.796 446.393 253.667 440.037 247.149 436.478C241.596 433.444 234.636 433.517 229.529 437.507C227.274 439.267 225.642 441.77 225.21 444.623C224.599 448.649 226.503 452.466 228.403 455.87C232.725 463.613 237.397 471.238 241.324 479.192C244.73 486.087 247.144 493.979 243.732 501.353C240.967 507.335 235.195 511.554 229.142 513.761C227.61 514.319 226.048 514.731 224.446 515.03C222.374 515.418 222.833 518.676 224.914 518.288C238.098 515.82 250.227 505.099 248.547 490.708C247.584 482.463 242.948 475.134 238.977 468.051C236.765 464.106 234.556 460.164 232.344 456.22C230.467 452.873 227.863 449.031 228.473 444.995C229.336 439.302 236.488 436.809 241.472 437.793C248.31 439.143 253.167 445.453 256.82 450.909C260.936 457.055 264.707 463.799 271.023 467.975C274.332 470.163 278.039 471.589 281.673 473.124C285.092 474.571 288.377 476.247 291.484 478.29C305.255 487.332 314.905 501.294 323.264 515.213C324.353 517.027 326.936 514.99 325.858 513.195L325.853 513.198Z" fill="#200020"/>
<path d="M403.005 495.957C381.286 497.573 359.567 499.193 337.849 500.809C331.696 501.267 325.54 501.725 319.388 502.183C317.283 502.34 317.412 505.627 319.525 505.47C341.244 503.854 362.962 502.235 384.681 500.615C390.834 500.157 396.989 499.699 403.142 499.238C405.247 499.082 405.118 495.795 403.005 495.951V495.957Z" fill="#200020"/>
<path d="M225.669 514.909C218.592 517.14 210.796 514.297 204.259 511.565C198.088 508.986 192.263 505.643 186.908 501.634C181.479 497.565 176.743 492.842 172.393 487.644C168.109 482.522 162.932 476.918 155.72 476.869C149.589 476.829 144.869 481.585 143.355 487.291C141.495 494.299 144.347 501.59 147.581 507.734C153.607 519.179 162.84 528.782 173.651 535.793C187.207 544.585 202.977 549.346 218.936 551.154C221.032 551.391 221.411 548.122 219.307 547.883C193.193 544.922 167.093 533.241 152.768 510.223C149.366 504.756 145.874 498.098 146.049 491.489C146.196 485.888 149.973 479.728 156.217 480.165C163.072 480.647 167.405 486.903 171.488 491.664C175.64 496.506 180.35 500.887 185.484 504.67C191.274 508.935 197.631 512.481 204.31 515.138C211.442 517.978 219.358 520.33 226.943 517.937C228.962 517.301 227.664 514.276 225.666 514.906L225.669 514.909Z" fill="#200020"/>
<path d="M234.83 564.006C217.374 561.552 199.803 558.291 183.6 551.079C169.528 544.817 156.346 535.411 147.699 522.456C142.906 515.276 139.641 505.161 145.581 497.611C146.89 495.949 144.261 493.979 142.952 495.642C137.654 502.372 138.393 511.622 141.928 518.972C145.533 526.468 151.322 532.986 157.505 538.458C170.407 549.882 186.559 556.928 203.069 561.285C213.385 564.009 223.909 565.795 234.464 567.277C236.555 567.571 236.929 564.303 234.835 564.006H234.83Z" fill="#200020"/>
<path d="M375.647 499.831C375.536 499.513 368.722 480.935 361.15 456.115C362.201 455.829 363.25 455.533 364.301 455.236C371.84 479.903 378.622 498.371 378.732 498.689C379.05 499.546 378.611 500.489 377.759 500.806C376.918 501.114 375.966 500.685 375.647 499.831Z" fill="#200020"/>
<path d="M495.752 520.44C495.959 536.881 489.626 551.291 477.425 562.106C466.101 572.154 450.29 578.723 431.713 581.102C427.654 581.627 422.028 581.859 415.236 581.859C362.729 581.859 240.622 568.05 234.789 567.393C233.892 567.293 233.247 566.471 233.346 565.571C233.446 564.671 234.255 564.014 235.163 564.124C236.771 564.3 396.253 582.33 431.299 577.844C469.409 572.951 492.857 550.973 492.472 520.473C492.187 496.759 485.492 461.676 473.928 422.718C474.968 422.378 475.995 422.014 477.024 421.643C488.698 460.951 495.461 496.409 495.757 520.438L495.752 520.44Z" fill="#200020"/>
<path d="M330.908 359.543C323.342 354.771 315.95 349.727 308.746 344.419C307.044 343.166 305.074 345.799 306.781 347.054C313.985 352.362 321.377 357.406 328.943 362.178C330.72 363.299 332.701 360.672 330.908 359.543Z" fill="#200020"/>
<path d="M477.019 421.645C475.989 422.017 474.962 422.381 473.922 422.72C472.586 423.181 471.253 423.631 469.917 424.07C449.16 430.892 428.186 437.079 407.201 443.133C392.923 447.245 378.623 451.259 364.301 455.242C363.25 455.538 362.199 455.834 361.151 456.12C360.834 455.099 360.516 454.059 360.199 453.005C354.99 435.721 349.531 415.747 345.735 396.938C339.913 368.137 342.55 346.092 353.568 331.418C362.551 319.453 375.002 315.045 383.601 312.784C437.914 298.439 457.302 359.276 472.871 408.157C473.976 411.633 475.048 415.09 476.078 418.512C476.406 419.565 476.712 420.608 477.019 421.648V421.645Z" fill="#ECE7F5"/>
<path d="M351.894 264.051C351.681 257.649 349.353 250.503 344.69 245.955C342.357 243.681 339.386 242.307 336.096 242.428C332.747 242.552 329.462 244.034 326.825 246.058C321.39 250.223 318.337 256.97 318.727 263.795C318.848 265.913 322.095 265.428 321.976 263.326C321.694 258.379 323.775 253.351 327.342 249.938C331.236 246.209 337.26 243.953 341.838 247.777C346.01 251.258 348.009 257.447 348.528 262.679C349.082 268.284 347.716 274.093 343.999 278.409C340.292 282.712 334.559 285.199 328.901 284.245C326.817 283.895 326.447 287.163 328.53 287.516C334.618 288.54 340.867 286.145 345.225 281.866C349.999 277.175 352.114 270.679 351.894 264.053V264.051Z" fill="#200020"/>
<path d="M338.355 257.787C335.041 262.397 331.724 267.009 328.41 271.622C327.176 273.339 329.8 275.314 331.039 273.592C334.356 268.979 337.67 264.369 340.984 259.756C342.218 258.04 339.592 256.065 338.355 257.787Z" fill="#200020"/>
<path d="M375.715 308.799C374.062 309.349 372.465 310.017 370.912 310.785C369.248 310.225 367.608 309.613 365.987 308.964C361.184 307.045 356.391 305.06 351.698 302.877C347.54 300.937 343.131 298.852 340.177 295.201C337.551 291.954 336.379 287.282 338.228 283.389C339.126 281.481 342.188 282.675 341.282 284.585C339.215 288.971 342.212 293.358 345.712 295.883C349.3 298.483 353.59 300.183 357.638 301.926C361.982 303.791 366.337 305.666 370.791 307.277C372.422 307.87 374.062 308.374 375.715 308.802V308.799Z" fill="#200020"/>
<path d="M368.055 287.193C367.791 288.268 367.498 289.322 367.178 290.373C366.041 294.102 364.345 297.831 361.37 300.431C358.765 302.713 355.33 303.578 351.97 302.734C349.059 302.01 346.707 300.027 345.941 297.119C345.634 297.009 345.328 296.901 345.032 296.769C342.363 295.562 339.78 293.425 339.517 290.332C339.078 290.068 338.64 289.796 338.205 289.543C337.285 288.996 337.396 287.503 338.183 286.921C344.452 282.338 349.497 275.637 350.876 267.861C351.741 262.979 351.094 257.77 348.93 253.306C347.54 251.002 345.922 248.83 344.062 246.834C343.755 246.57 343.559 246.473 343.374 246.373C341.207 245.837 339.14 244.926 337.224 243.708C336.764 243.423 336.568 243.029 336.546 242.612C335.189 242.701 333.856 242.973 332.606 243.444C327.507 245.33 323.797 249.577 321.15 254.203C321.05 255.014 320.426 255.814 319.389 255.793C310.459 255.561 301.565 254.618 292.767 253.061C277.295 250.318 262.186 245.788 247.459 240.359C240.161 237.673 232.952 234.766 225.796 231.705C219.91 229.194 214.055 226.408 209.429 221.932C208.061 221.593 206.739 221.111 205.567 220.3C204.188 219.346 203.169 217.842 203.268 216.11C203.379 214.003 204.954 212.588 206.54 211.416C210.107 208.773 214.002 206.547 218.06 204.78C226.67 201.051 235.852 199.669 245.185 199.965C254.528 200.251 263.928 201.248 273.196 202.455C282.343 203.662 291.437 205.273 300.385 207.488C313.131 210.635 325.923 215 337.619 221.243C340.498 225.3 343.264 229.447 345.9 233.658C350.758 241.402 355.123 249.496 358.572 257.983C360.268 262.152 361.743 266.406 362.926 270.749C364.085 275.071 364.982 279.479 366.525 283.69C366.963 284.887 367.477 286.059 368.057 287.19L368.055 287.193Z" fill="#200020"/>
<path d="M275.378 254.179C268.951 254.111 262.53 256.372 257.804 260.81C253.261 265.075 250.404 270.911 249.848 277.132C249.66 279.237 252.92 279.619 253.111 277.504C253.584 272.207 255.922 267.069 259.817 263.412C263.898 259.584 269.413 257.393 275.01 257.45C277.101 257.471 277.496 254.203 275.381 254.179H275.378Z" fill="#200020"/>
<path d="M283.487 268.488C268.794 268.488 256.844 278.417 256.844 290.623C256.844 302.828 268.794 312.757 283.487 312.757C298.179 312.757 310.13 302.828 310.13 290.623C310.13 278.417 298.179 268.488 283.487 268.488ZM283.487 308.387C271.2 308.387 261.206 300.419 261.206 290.623C261.206 280.826 271.203 272.859 283.487 272.859C295.771 272.859 305.768 280.826 305.768 290.623C305.768 300.419 295.771 308.387 283.487 308.387Z" fill="#ECE7F5"/>
<path d="M261.693 297.992C257.311 297.612 252.935 298.078 248.729 299.358C245.312 300.398 240.267 302.664 241.393 307.18C241.608 308.042 242.312 308.71 243.253 308.573C244.062 308.454 244.861 307.576 244.643 306.708C244.312 305.38 245.237 304.418 246.334 303.807C247.723 303.028 249.363 302.535 250.898 302.136C254.306 301.255 257.819 300.956 261.324 301.26C263.424 301.441 263.808 298.173 261.695 297.989L261.693 297.992Z" fill="#ECE7F5"/>
<path d="M119.849 335.873C117.798 324.483 107.259 316.163 97.6279 311.03C87.5587 305.663 75.5005 303.742 64.6411 307.881C53.2682 312.219 44.9302 323.934 46.9058 336.374C47.2391 338.465 50.4889 337.998 50.1556 335.905C48.6046 326.135 54.4644 316.535 63.0767 312.17C72.5276 307.379 83.6236 308.269 93.104 312.472C97.894 314.598 102.326 317.505 106.332 320.876C110.243 324.168 113.818 328.129 115.662 332.973C117.471 337.726 117.532 343.619 114.307 347.793C111.616 351.274 106.858 353.257 102.619 351.594C100.112 350.611 98.0741 348.692 96.1092 346.906C94.0072 344.996 91.8676 343.18 89.435 341.698C84.3896 338.624 78.6562 336.754 72.7265 336.711C70.6353 336.694 70.2401 339.965 72.3556 339.982C78.1643 340.025 83.7929 341.854 88.6232 345.071C93.1309 348.07 96.5957 352.968 101.816 354.809C106.659 356.514 112.022 354.83 115.586 351.268C119.602 347.259 120.839 341.358 119.849 335.875V335.873Z" fill="#200020"/>
<path d="M120.704 296.287C117.026 293.255 112.876 290.847 108.632 288.71C104.369 286.565 99.9793 284.501 95.4635 282.949C91.0928 281.449 86.5018 280.589 81.8784 281.141C77.5965 281.653 73.4489 283.278 69.9169 285.752C61.8826 291.38 57.8453 301.535 59.4231 311.179C59.7645 313.269 63.0142 312.803 62.6729 310.71C61.4444 303.206 64.0061 295.187 69.7261 290.092C75.7714 284.709 83.9455 283.108 91.6761 285.21C95.7833 286.325 99.6943 288.12 103.546 289.904C107.393 291.685 111.185 293.6 114.72 295.953C121.26 300.304 127.163 306.461 129.052 314.323C129.977 318.17 129.883 322.169 128.23 325.801C126.735 329.085 123.978 331.836 120.316 332.375C118.225 332.682 118.693 335.94 120.784 335.633C128.663 334.474 133.044 326.227 132.918 318.828C132.764 309.847 127.434 301.834 120.701 296.281L120.704 296.287Z" fill="#200020"/>
<path d="M145.806 303.537C144.61 310.72 139.984 317.346 133.133 320.078C131.168 320.859 129.915 317.82 131.883 317.039C138.769 314.285 142.92 306.921 142.825 299.638C142.748 292.795 139.904 287.096 135.592 282.491C134.716 281.54 133.762 280.632 132.762 279.778C127.367 275.13 120.515 271.83 114.037 269.782C111.527 268.99 108.995 268.419 106.449 268.152C104.371 267.923 102.294 267.893 100.224 268.103C97.6164 268.343 95.0279 268.966 92.4797 270.014C86.3726 272.533 81.0988 277.121 78.0103 282.993C77.0292 284.86 73.9784 283.634 74.9595 281.769C78.8705 274.317 85.6872 268.599 93.7081 266.077C97.6809 264.822 101.667 264.485 105.613 264.797C107.449 264.935 109.274 265.228 111.099 265.627C113.446 266.142 115.771 266.845 118.083 267.68C124.975 270.181 131.681 273.788 136.861 279.026C137.608 279.778 138.323 280.565 139.006 281.384C139.167 281.573 139.32 281.772 139.482 281.969C144.207 287.947 147.086 295.872 145.809 303.537H145.806Z" fill="#200020"/>
<path d="M173.154 281.063C170.63 281.904 167.947 282.055 165.31 282.138C162.332 282.23 159.356 282.16 156.394 282.041C150.902 281.826 145.096 281.451 139.479 281.969C138.175 282.087 136.871 282.262 135.589 282.491C134.713 281.54 133.759 280.632 132.759 279.778C134.108 279.463 135.479 279.212 136.858 279.026C142.97 278.175 149.327 278.455 155.461 278.722C158.327 278.838 161.203 278.951 164.071 278.892C166.522 278.848 169.127 278.819 171.508 278.151C175.788 276.941 177.457 272.878 176.161 268.753C174.78 264.374 170.506 261.844 166.482 260.281C161.587 258.382 156.356 257.355 151.142 256.922C137.092 255.747 123.458 259.322 111.099 265.633C109.526 266.43 107.976 267.271 106.446 268.154C104.368 267.925 102.29 267.896 100.221 268.106C101.981 266.95 103.788 265.848 105.613 264.803C111.301 261.556 117.3 258.859 123.566 256.913C134.484 253.519 146.204 252.392 157.499 254.44C166.27 256.038 179.177 259.867 179.841 270.687C180.126 275.384 177.71 279.562 173.156 281.066L173.154 281.063Z" fill="#200020"/>
<path d="M192.832 306.07C191.327 302.147 187.155 300.412 183.198 300.511C178.527 300.63 174.661 303.327 171.189 306.213C166.815 309.845 162.415 313.474 156.655 314.522C151.674 315.427 146.199 314.072 142.984 309.958C141.68 308.29 139.086 310.308 140.39 311.976C146.365 319.62 157.174 319.283 164.979 314.889C169.183 312.52 172.471 309.034 176.425 306.329C179.562 304.181 183.924 302.675 187.521 304.707C191.832 307.14 189.967 312.663 187.583 315.78C186.037 317.801 184.169 319.545 182.508 321.466C181.064 323.139 179.82 324.958 178.739 326.884C174.269 334.843 172.828 343.958 170.358 352.64C168.941 357.619 167.13 362.48 164.38 366.882C161.531 371.444 157.937 375.453 153.73 378.791C152.072 380.106 154.085 382.706 155.744 381.391C163.45 375.278 169.073 367.065 172.213 357.751C175.199 348.889 176.36 339.408 180.349 330.891C181.328 328.805 182.494 326.819 183.884 324.982C185.44 322.926 187.311 321.153 189.005 319.216C192.077 315.708 194.649 310.799 192.835 306.073L192.832 306.07Z" fill="#200020"/>
<path d="M212.676 457.212C212.458 457.926 211.81 458.386 211.101 458.386C210.948 458.386 210.784 458.365 210.63 458.308C210.335 458.219 205.082 456.576 198.266 451.386C197.435 450.75 196.591 450.071 195.718 449.325C194.097 447.954 192.425 446.375 190.729 444.588C167.029 419.56 154.172 380.594 154.054 380.209C153.769 379.344 154.239 378.409 155.105 378.137C155.957 377.851 156.887 378.323 157.172 379.19C157.293 379.573 169.929 417.852 193.116 442.33C194.648 443.952 196.169 445.378 197.645 446.641C198.521 447.399 199.373 448.088 200.204 448.713C206.593 453.582 211.517 455.15 211.582 455.161C212.447 455.425 212.939 456.347 212.676 457.212Z" fill="#200020"/>
<path d="M279.06 393.893C277.302 390.404 275.813 386.802 274.598 383.086C273.939 381.071 270.921 382.369 271.574 384.369C272.673 387.726 274.004 390.986 275.547 394.16C264.717 404.237 257.32 417.698 254.519 432.245C253.707 436.465 253.312 440.751 253.322 445.049C253.328 447.14 256.588 447.541 256.586 445.421C256.537 426.708 264.599 408.306 278.554 395.836C279.071 395.375 279.399 394.57 279.06 393.896V393.893Z" fill="#200020"/>
<path d="M364.154 454.579C356.813 435.476 350.789 415.874 346.185 395.93C344.889 390.315 343.707 384.673 342.629 379.012C342.234 376.935 338.984 377.395 339.379 379.481C343.242 399.775 348.507 419.802 355.152 439.361C357.034 444.898 359.028 450.397 361.127 455.859C361.888 457.842 364.909 456.551 364.151 454.579H364.154Z" fill="white"/>
<path d="M214.893 360.868H125.273C119.541 360.868 114.895 365.515 114.895 371.247V460.867C114.895 466.599 119.541 471.245 125.273 471.245H214.893C220.625 471.245 225.272 466.599 225.272 460.867V371.247C225.272 365.515 220.625 360.868 214.893 360.868Z" fill="white"/>
<path d="M143.247 454.585C143.231 454.585 143.215 454.585 143.197 454.585C140.734 454.532 135.742 449.421 135.692 449.368C135.211 448.872 133.639 447.073 133.639 444.756C133.639 444.06 133.786 443.388 134.073 442.754C134.358 442.128 134.761 441.583 135.27 441.124C137.017 439.444 155.38 418.192 162.306 410.178L162.634 409.799C162.131 407.876 162.131 405.908 162.131 403.994C162.131 398.291 164.4 392.949 168.516 388.953C172.648 384.941 178.203 382.735 184.154 382.735C196.493 382.735 206.529 392.256 206.529 403.96C206.529 415.665 196.49 425.226 184.154 425.226C181.203 425.226 178.821 424.819 176.358 423.879C176.324 423.904 176.293 423.925 176.258 423.95C175.468 424.511 174.574 425.145 173.589 425.355C172.855 425.512 171.97 425.287 170.345 424.847C169.823 424.705 168.995 424.48 168.598 424.418C168.395 424.554 168.098 424.856 167.96 425.056C168.004 425.472 168.473 426.412 168.735 426.932C169.304 428.069 169.798 429.052 169.582 430.044C169.223 431.702 166.594 434.576 164.156 434.854C163.022 434.983 161.969 434.499 161.037 434.071C160.424 433.791 159.587 433.406 159.402 433.587C159.234 433.748 159.181 433.88 159.734 435.103C160.059 435.818 160.424 436.625 160.406 437.51C160.381 439.213 159.44 440.298 158.43 441.216C157.271 442.285 156.152 443.179 154.139 443.154C153.389 443.145 152.614 442.981 151.929 442.84C151.457 442.741 150.748 442.59 150.517 442.627C149.923 442.75 149.86 442.763 149.595 443.37C149.566 443.604 149.679 444.242 149.754 444.67C150.029 446.223 150.404 448.352 148.835 449.868C148.46 450.231 148.16 450.545 147.775 450.94C147.122 451.618 146.31 452.462 144.678 454.03C144.297 454.391 143.794 454.585 143.247 454.585ZM184.154 385.906C179.053 385.906 174.299 387.791 170.77 391.214C167.273 394.61 165.344 399.148 165.344 403.997C165.344 406.034 165.344 407.957 165.941 409.651C166.129 410.181 166.016 410.773 165.647 411.198L164.753 412.233C152.142 426.828 139.04 441.949 137.483 443.422C137.471 443.434 137.458 443.447 137.442 443.459C137.258 443.622 137.108 443.826 137.005 444.051C136.905 444.269 136.852 444.516 136.852 444.759C136.852 445.607 137.436 446.583 138.014 447.178C139.249 448.45 141.774 450.595 142.962 451.248C144.2 450.046 144.881 449.341 145.438 448.761C145.825 448.358 146.16 448.01 146.575 447.606C146.941 447.255 146.732 446.075 146.578 445.215C146.385 444.128 146.203 443.102 146.61 442.168C147.394 440.366 148.432 439.82 149.848 439.525C150.707 439.346 151.62 439.537 152.589 439.737C153.154 439.854 153.739 439.978 154.17 439.984C154.899 439.999 155.239 439.808 156.233 438.893C157.033 438.166 157.174 437.852 157.18 437.451C157.18 437.257 156.946 436.739 156.789 436.397C156.268 435.248 155.295 433.107 157.146 431.323C158.924 429.607 161.093 430.605 162.39 431.2C162.822 431.397 163.541 431.73 163.781 431.705C164.61 431.609 166.029 430.174 166.379 429.49C166.282 429.206 166.025 428.692 165.844 428.334C165.213 427.077 164.5 425.651 164.81 424.298C165.075 423.177 166.572 421.575 167.948 421.282C168.685 421.125 169.57 421.347 171.195 421.79C171.745 421.941 172.636 422.182 173.002 422.228C173.355 422.101 173.961 421.67 174.374 421.377C174.68 421.159 174.999 420.934 175.311 420.743C175.758 420.469 176.315 420.428 176.796 420.635C179.168 421.645 181.297 422.055 184.147 422.055C194.712 422.055 203.307 413.937 203.307 403.96C203.307 393.984 194.712 385.906 184.147 385.906H184.154ZM188.845 407.038C188.392 407.038 187.935 406.995 187.482 406.906C186.126 406.638 184.891 405.988 183.916 405.026C182.938 404.059 182.278 402.845 182.009 401.508C181.741 400.171 181.878 398.8 182.406 397.54C182.935 396.283 183.822 395.217 184.972 394.459C186.126 393.701 187.463 393.3 188.845 393.3C190.708 393.3 192.455 394.015 193.771 395.312C195.087 396.609 195.812 398.335 195.812 400.168C195.812 401.533 195.405 402.851 194.637 403.985C193.871 405.116 192.789 405.991 191.511 406.515C190.658 406.863 189.754 407.038 188.845 407.038ZM188.842 396.47C188.098 396.47 187.376 396.686 186.757 397.093C186.138 397.5 185.66 398.076 185.376 398.75C185.091 399.428 185.016 400.168 185.163 400.889C185.307 401.607 185.663 402.263 186.191 402.783C186.716 403.301 187.382 403.649 188.114 403.794C188.842 403.936 189.592 403.865 190.28 403.585C190.967 403.304 191.549 402.833 191.964 402.223C192.377 401.613 192.596 400.901 192.596 400.168C192.596 399.179 192.205 398.251 191.495 397.552C190.786 396.853 189.845 396.47 188.842 396.47Z" fill="#DA0081"/>
</g>
</g>
<defs>
<clipPath id="clip0_8926_193520">
<rect width="449.142" height="409.727" fill="white" transform="translate(46.6152 172.132)"/>
</clipPath>
</defs>
</svg>
