<svg width="133" height="100" viewBox="0 0 133 100" fill="none" xmlns="http://www.w3.org/2000/svg">
<g clip-path="url(#clip0_8974_192469)">
<path d="M109.663 57.3855C107.362 42.9517 98.0509 24.8168 83.1632 8.19062C68.2803 -8.43643 51.2776 -19.6936 37.1734 -23.5816L28.3767 -33.4094L14.243 -20.7669C1.05438 -8.97435 10.5271 23.1064 35.3994 50.8895C60.2766 78.6718 91.1357 91.6388 104.324 79.8462L118.459 67.2085L109.662 57.3807L109.663 57.3855Z" fill="#200020"/>
<path d="M96.1659 86.3663C89.787 87.4868 81.9798 86.2222 73.2563 82.5572C59.8986 76.9455 45.7767 66.3006 33.499 52.586C21.2213 38.8713 12.2061 23.6748 8.10761 9.78654C3.81671 -4.74196 5.39485 -16.2674 12.5464 -22.661L26.6809 -35.2987C27.7303 -36.2369 29.3404 -36.1453 30.2782 -35.1018L38.5831 -25.8266C53.6624 -21.4508 70.5551 -9.71009 85.0638 6.49343C99.5725 22.6969 109.375 40.7806 112.055 56.2361L120.36 65.5113C120.808 66.0167 121.043 66.6743 121.002 67.3505C120.966 68.0259 120.662 68.6535 120.157 69.1067L106.022 81.7443C103.332 84.1491 100.01 85.6911 96.1659 86.3663ZM28.1796 -29.8105L15.9408 -18.8688C10.3348 -13.86 9.28921 -4.19549 12.991 8.34461C16.8852 21.5249 25.515 36.0351 37.3009 49.1972C49.0868 62.3592 62.5582 72.5442 75.2354 77.8661C87.2931 82.9324 97.0226 82.9657 102.628 77.9521L114.867 67.0104L107.767 59.0811C107.444 58.7185 107.23 58.2669 107.15 57.7866C104.845 43.3237 95.1686 25.4176 81.2685 9.89103C67.3684 -5.63555 50.6306 -17.2338 36.5013 -21.1224C36.0285 -21.254 35.6079 -21.5146 35.2796 -21.8763L28.1804 -29.8056L28.1796 -29.8105Z" fill="#DA0081"/>
<path d="M118.457 67.2217C131.648 55.4308 122.178 23.3473 97.3043 -4.43886C72.4306 -32.225 41.5727 -45.1918 28.3813 -33.401C15.1899 -21.6101 24.6602 10.4734 49.5339 38.2596C74.4076 66.0458 105.265 79.0125 118.457 67.2217Z" fill="#200020"/>
<path d="M110.304 73.728C103.925 74.8485 96.1181 73.5838 87.3946 69.9189C74.0369 64.3071 59.915 53.6623 47.6382 39.9524C35.3614 26.2426 26.3396 11.0373 22.2411 -2.85097C17.9502 -17.3795 19.5283 -28.9049 26.6799 -35.2985C33.8354 -41.6977 45.4676 -41.9836 59.4457 -36.1114C72.8034 -30.4996 86.9253 -19.8548 99.203 -6.14009C111.481 7.5746 120.502 22.775 124.6 36.6633C128.891 51.1918 127.313 62.7173 120.161 69.1108C117.471 71.5156 114.149 73.0576 110.305 73.7328L110.304 73.728ZM37.4634 -34.9261C34.5405 -34.4126 32.0527 -33.2717 30.0742 -31.5063C24.4683 -26.4975 23.4227 -16.833 27.1245 -4.2929C31.0187 8.8874 39.6485 23.3976 51.4344 36.5597C63.2202 49.7217 76.6917 59.9066 89.3689 65.2286C101.427 70.2948 111.156 70.3282 116.762 65.3195C122.368 60.3107 123.414 50.6462 119.712 38.1061C115.818 24.9258 107.188 10.4156 95.402 -2.74648C83.6161 -15.9085 70.1446 -26.0935 57.4674 -31.4154C49.6607 -34.6971 42.8292 -35.8686 37.4585 -34.9252L37.4634 -34.9261Z" fill="#DA0081"/>
<path d="M51.4142 -2.34889L45.0478 -9.46333L50.7702 -14.5774L57.1366 -7.46294L51.4142 -2.34889ZM92.2052 37.376C90.0333 39.3202 87.5797 40.4851 84.8556 40.8787C82.1267 41.2732 79.2894 40.9079 76.3452 39.7925C73.4002 38.6722 70.5072 36.8239 67.6654 34.2427L72.2309 27.919C74.6947 29.9126 77.1544 31.0581 79.6053 31.3565C82.0562 31.6549 84.1239 31.0521 85.8084 29.548C87.3933 28.1313 88.2396 26.4349 88.3464 24.4541C88.4531 22.4733 87.8191 20.7124 86.4393 19.1725C85.5006 18.1242 84.5006 17.4661 83.4326 17.1893C82.3656 16.9175 81.155 16.9953 79.8011 17.4229L69.3966 20.8581C63.3989 22.8402 57.9142 21.0578 52.9415 15.5058C50.6043 12.8959 49.0191 10.2437 48.1804 7.54525C47.3416 4.84682 47.2619 2.2597 47.9365 -0.215277C48.6119 -2.68541 50.0533 -4.8907 52.2616 -6.8263C54.3025 -8.57771 56.5399 -9.66471 58.9709 -10.0768C61.4019 -10.4888 63.9689 -10.2407 66.6678 -9.32688C69.3666 -8.41303 72.1399 -6.84822 74.9883 -4.62763L70.4273 2.11969C69.0967 1.03039 67.7396 0.245306 66.3511 -0.234721C64.9626 -0.714748 63.6254 -0.874277 62.3453 -0.709317C61.0651 -0.544356 59.9277 -0.0500103 58.9235 0.775428C57.9626 1.56329 57.2926 2.49976 56.9136 3.58482C56.5346 4.66988 56.4551 5.7822 56.6793 6.91607C56.8986 8.0508 57.4302 9.08575 58.2577 10.0138C59.1776 11.0404 60.2792 11.6507 61.5567 11.8407C62.8391 12.0298 64.3905 11.7873 66.2116 11.1179L73.4626 8.47625C77.1157 7.17054 80.3636 6.91456 83.212 7.71229C86.0604 8.51002 88.8529 10.4409 91.5946 13.504C94.0004 16.1918 95.6305 18.9858 96.4848 21.8862C97.339 24.7866 97.4156 27.584 96.7098 30.2791C96.004 32.9743 94.5065 35.3442 92.2214 37.3831L92.2052 37.376ZM93.8153 45.0064L87.449 37.892L93.1713 32.7779L99.5377 39.8923L93.8153 45.0064Z" fill="#DA0081"/>
</g>
<defs>
<clipPath id="clip0_8974_192469">
<rect width="110.929" height="134.699" fill="white" transform="translate(0.0703125 -33.5151) rotate(-9.96276)"/>
</clipPath>
</defs>
</svg>
