<svg width="99" height="113" viewBox="0 0 99 113" fill="none" xmlns="http://www.w3.org/2000/svg">
<g clip-path="url(#clip0_8974_192485)">
<path d="M17.7854 81.6466C19.4725 71.0618 26.301 57.7628 37.2187 45.5702C48.1328 33.377 60.6015 25.1217 70.9446 22.2705L77.3956 15.0634L87.7603 24.3346C97.432 32.9825 90.4853 56.5085 72.2456 76.8828C54.0023 97.2565 31.3721 106.766 21.7004 98.1178L11.3351 88.8501L17.786 81.643L17.7854 81.6466Z" fill="#200020"/>
<path d="M27.6846 102.9C32.3625 103.721 38.0878 102.794 44.4851 100.106C54.2807 95.9909 64.6368 88.1847 73.6405 78.1272C82.6441 68.0698 89.2553 56.9257 92.2609 46.7409C95.4076 36.0866 94.2503 27.6346 89.0058 22.946L78.6405 13.6783C77.8709 12.9903 76.6902 13.0575 76.0025 13.8227L69.9122 20.6245C58.8539 23.8334 46.4659 32.4433 35.8262 44.3259C25.1864 56.2085 17.9981 69.4699 16.0329 80.804L9.94257 87.6059C9.61364 87.9765 9.44099 88.4587 9.47114 88.9546C9.49773 89.4499 9.72102 89.9101 10.0914 90.2425L20.4567 99.5101C22.4298 101.274 24.8658 102.404 27.6846 102.9ZM77.5414 17.703L86.5166 25.7269C90.6276 29.4 91.3944 36.4874 88.6798 45.6835C85.824 55.3491 79.4954 65.9899 70.8524 75.6421C62.2094 85.2943 52.3303 92.7633 43.0337 96.666C34.1914 100.381 27.0563 100.406 22.9459 96.7292L13.9707 88.7052L19.1768 82.8903C19.414 82.6245 19.5711 82.2933 19.6294 81.941C21.3202 71.3349 28.416 58.2037 38.6094 46.8175C48.8029 35.4313 61.0773 26.9259 71.4388 24.0743C71.7856 23.9778 72.0939 23.7866 72.3347 23.5214L77.5408 17.7065L77.5414 17.703Z" fill="#DA0081"/>
<path d="M11.3347 88.8601C1.66097 80.2135 8.60592 56.6855 26.8467 36.3089C45.0875 15.9323 67.7166 6.42328 77.3904 15.0699C87.0641 23.7166 80.1192 47.2446 61.8784 67.6212C43.6376 87.9978 21.0085 97.5068 11.3347 88.8601Z" fill="#200020"/>
<path d="M17.317 93.6312C21.9949 94.4529 27.7202 93.5255 34.1175 90.8379C43.9132 86.7226 54.2692 78.9163 63.2723 68.8624C72.2753 58.8085 78.8913 47.6579 81.8969 37.4731C85.0435 26.8189 83.8862 18.3668 78.6418 13.6782C73.3943 8.98541 64.864 8.77575 54.6134 13.0821C44.8177 17.1974 34.4616 25.0036 25.458 35.0611C16.4543 45.1186 9.83894 56.2656 6.83337 66.4504C3.68669 77.1046 4.84401 85.5567 10.0885 90.2453C12.0616 92.0088 14.4976 93.1396 17.3164 93.6348L17.317 93.6312ZM70.7339 13.9513C72.8773 14.3278 74.7017 15.1645 76.1525 16.4592C80.2636 20.1323 81.0304 27.2196 78.3157 36.4157C75.46 46.0813 69.1314 56.7222 60.4884 66.3744C51.8454 76.0265 41.9663 83.4955 32.6697 87.3983C23.8273 91.1136 16.6923 91.138 12.5813 87.4649C8.47019 83.7919 7.70344 76.7045 10.4181 67.5084C13.2738 57.8428 19.6024 47.202 28.2454 37.5498C36.8884 27.8976 46.7675 20.4286 56.0641 16.5258C61.7891 14.1192 66.7989 13.2601 70.7374 13.952L70.7339 13.9513Z" fill="#DA0081"/>
<path d="M60.4975 37.8409L65.1662 32.6237L60.9698 28.8734L56.3011 34.0906L60.4975 37.8409ZM30.584 66.9726C32.1768 68.3984 33.9761 69.2526 35.9737 69.5413C37.9749 69.8306 40.0557 69.5627 42.2147 68.7447C44.3744 67.9232 46.4959 66.5678 48.58 64.6749L45.2319 60.0374C43.4251 61.4994 41.6213 62.3395 39.824 62.5583C38.0267 62.7772 36.5104 62.3351 35.275 61.2321C34.1127 60.1932 33.4921 58.9492 33.4138 57.4965C33.3356 56.0439 33.8006 54.7527 34.8124 53.6233C35.5007 52.8546 36.2341 52.372 37.0173 52.169C37.7998 51.9697 38.6875 52.0267 39.6804 52.3403L47.3104 54.8595C51.7087 56.313 55.7309 55.0059 59.3775 50.9344C61.0915 49.0205 62.2539 47.0755 62.869 45.0967C63.4841 43.1178 63.5425 41.2206 63.0479 39.4056C62.5526 37.5942 61.4955 35.977 59.8761 34.5575C58.3795 33.2731 56.7386 32.476 54.9559 32.1738C53.1732 31.8717 51.2907 32.0536 49.3116 32.7237C47.3324 33.3939 45.2987 34.5414 43.2098 36.1699L46.5546 41.1179C47.5303 40.3191 48.5256 39.7434 49.5438 39.3913C50.562 39.0393 51.5426 38.9223 52.4814 39.0433C53.4202 39.1643 54.2543 39.5268 54.9907 40.1321C55.6954 40.7099 56.1867 41.3966 56.4646 42.1924C56.7426 42.9881 56.8009 43.8038 56.6365 44.6353C56.4756 45.4674 56.0858 46.2264 55.4789 46.9069C54.8044 47.6598 53.9965 48.1074 53.0597 48.2467C52.1192 48.3854 50.9816 48.2075 49.646 47.7166L44.3286 45.7794C41.6497 44.8219 39.2679 44.6342 37.1791 45.2192C35.0903 45.8042 33.0424 47.2201 31.0318 49.4664C29.2675 51.4375 28.0721 53.4865 27.4457 55.6134C26.8192 57.7404 26.763 59.7918 27.2806 61.7683C27.7982 63.7447 28.8964 65.4826 30.5721 66.9779L30.584 66.9726ZM29.4033 72.5683L34.072 67.351L29.8755 63.6007L25.2068 68.818L29.4033 72.5683Z" fill="#DA0081"/>
</g>
<defs>
<clipPath id="clip0_8974_192485">
<rect width="81.3478" height="98.7795" fill="white" transform="matrix(-0.98492 -0.173008 -0.173008 0.98492 98.1523 14.9858)"/>
</clipPath>
</defs>
</svg>
