<svg width="493" height="444" viewBox="0 0 493 444" fill="none" xmlns="http://www.w3.org/2000/svg">
<g clip-path="url(#clip0_8926_193681)">
<path d="M-51.9353 428.38L-79.665 470C-79.665 470 -79.6227 439.816 -87.0003 440.353C-94.379 440.887 -98.6962 457.906 -97.4564 465.098C-96.2166 472.29 -95.3686 478.081 -95.3686 478.081C-95.3686 478.081 -115.327 482.103 -126.471 479.912C-137.615 477.725 -172.202 466.959 -178.999 469.594C-185.796 472.229 -196.088 475.832 -192.632 480.152C-189.177 484.468 -148.629 535.781 -137.141 544.655C-125.653 553.53 -80.3261 605.778 -66.8168 611.077C-53.3074 616.377 -47.563 620.816 -41.0369 614.489C-34.5109 608.161 -9.95027 563.686 -2.29569 553.274C5.35987 542.866 38.0368 492.376 38.0368 492.376L2.92504 433.532L-51.9353 428.38Z" fill="#DA0081"/>
<path d="M292.24 381.242C293.382 387.943 291.2 395.049 288.979 401.314C286.819 407.42 284.071 413.274 281.706 419.294C279.417 425.159 277.455 431.19 277.081 437.516C276.745 443.255 278.004 448.951 279.006 454.581C279.94 459.891 280.891 465.473 280.039 470.86C279.152 476.551 276.185 481.114 271.458 484.408C268.843 486.227 265.901 487.795 264.2 490.616C262.609 493.265 262.068 496.476 261.395 499.424C260.068 505.241 257.874 510.519 253.781 514.955C247.684 521.556 238.936 525.749 229.966 525.925C229.683 526.122 229.373 526.289 228.984 526.396C217.468 529.486 205.841 532.172 194.119 534.462C181.332 538.06 168.137 540.186 154.841 540.726C150.772 542.391 146.837 544.375 143.107 546.837C141.582 547.855 139.512 547.556 138.716 545.748C134.792 536.953 130.996 528.122 127.324 519.238C114.852 488.97 103.88 458.104 94.3739 426.796C93.7638 427.599 93.151 428.406 92.524 429.217C73.753 453.304 49.6101 473.632 34.8467 500.707C33.8832 502.464 32.2258 503.003 30.4671 501.958C9.36689 489.527 -10.511 475.11 -28.8649 458.896C-30.7559 457.235 -29.9771 454.672 -28.1031 453.973C-29.4563 453.034 -30.7823 452.111 -32.1356 451.172C-38.4597 446.759 -44.8052 442.352 -51.1329 437.94C-52.4625 437.018 -54.5812 436.03 -55.5424 434.706C-56.3613 433.619 -56.518 431.973 -56.5021 430.659C-56.4866 428.346 -55.6819 426.376 -54.3742 424.643C-55.0069 423.646 -55.1772 422.242 -54.496 421.197C-45.699 407.707 -36.0665 394.797 -25.6426 382.527C-25.0119 381.438 -24.3776 380.349 -23.747 379.26C-15.2124 365.044 -5.98435 351.255 3.9486 337.988C13.5791 325.14 23.5925 312.108 35.2937 301.071C45.701 291.249 58.6088 283.143 73.2308 282.293C82.6577 281.772 92.3727 284.009 99.8792 289.588C105.987 278.372 117.437 271.026 129.809 268.215C136.613 266.688 143.811 266.565 150.583 268.288C151.78 268.594 152.94 268.987 154.07 269.412C168.172 270.338 180.305 278.231 191.318 286.377C216.545 305.039 240.554 325.394 263.21 347.115C268.855 352.511 274.428 358.007 279.9 363.57C284.929 368.68 290.975 373.807 292.242 381.249L292.24 381.242Z" fill="#DA0081"/>
<path d="M318.954 324.891C322.566 337.214 321.632 349.759 316.917 361.642C314.633 367.386 311.651 372.825 308.471 378.118C306.885 380.785 305.207 383.397 303.525 386.009C302.083 388.256 300.682 390.733 298.531 392.424C293.269 396.585 286.2 393.154 281.125 390.384C275.814 387.481 271.071 383.763 266.575 379.719C246.113 361.266 227.761 339.963 212.031 317.377C208.408 312.177 205.458 306.55 207.486 300.104C209.318 294.308 214.108 289.164 217.983 284.65C225.828 275.537 234.786 267.449 244.61 260.534C245.86 255.795 249.857 252.579 254.626 251.378C260.318 249.92 265.97 251.892 270.501 255.412C275.985 259.658 280.076 265.607 284.387 270.992C289.432 277.311 294.585 283.577 299.487 290.016C307.563 300.604 315.168 311.997 318.957 324.89L318.954 324.891Z" fill="#DA0081"/>
<path d="M395.062 235.674C396.644 257.884 386.856 278.769 376.252 297.633C364.703 318.11 350.81 337.289 334.939 354.628C331.371 358.519 327.11 364.73 321.258 364.68C316.066 364.647 311.834 359.836 308.143 356.76C298.149 348.431 288.214 340.01 278.357 331.525C258.894 314.743 239.68 297.638 220.744 280.253C219.279 278.911 219.227 277.074 220.676 275.697C230.33 266.383 240.135 257.185 250.071 248.169C267.464 232.376 285.171 216.776 303.587 202.171C312.249 195.298 321.894 188.889 333.079 187.321C343.826 185.816 354.51 188.545 364.847 191.228C366.129 191.549 366.651 192.438 366.681 193.405C383.223 200.139 393.787 217.991 395.069 235.672L395.062 235.674Z" fill="#ECE7F5"/>
<path d="M280.277 356.384C279.322 358.1 278.392 359.828 277.437 361.545C266.677 351.877 256.082 341.949 245.322 332.281C244.627 331.64 243.934 330.995 243.226 330.377C229.146 317.753 214.697 305.528 199.158 294.741C184.456 284.537 168.273 274.861 150.364 271.805C141.839 270.349 132.921 270.491 124.63 273.186C116.849 275.717 109.812 280.213 103.939 285.895C103.529 286.285 103.147 286.69 102.743 287.102C101.675 288.192 100.659 289.33 99.6936 290.512C88.8835 303.326 83.7137 319.87 82.2436 336.504C82.0983 338.196 81.9722 339.902 81.9081 341.609C80.9303 360.173 83.7675 378.952 88.0272 396.98C89.7394 404.16 91.7081 411.269 93.881 418.326C94.5606 420.642 95.3033 422.963 96.0578 425.258C99.6577 436.471 103.657 447.531 107.745 458.569C118.245 486.94 128.776 515.299 139.333 543.654C140.013 545.474 140.697 547.293 141.354 549.097C145.586 560.43 149.792 571.755 154.006 583.093C155.284 586.557 150.029 588.888 148.747 585.406C146.737 580.018 144.73 574.628 142.743 569.252C140.391 562.906 138.016 556.562 135.664 550.215C134.984 548.395 134.323 546.592 133.66 544.764C128.455 530.777 123.25 516.787 118.067 502.794C110.036 481.179 101.732 459.655 94.2247 437.852C93.4445 435.603 92.7012 433.362 91.9566 431.103C91.1892 428.83 90.4574 426.548 89.7247 424.262C84.3827 407.41 79.9556 390.205 77.679 372.661C76.244 361.605 75.5293 350.27 76.2997 339.061C76.8769 329.814 78.4583 320.688 81.4169 311.853C84.2075 303.507 88.3925 295.527 93.8638 288.604C95.1328 286.939 96.4869 285.373 97.8964 283.869C103.178 278.27 109.384 273.571 116.427 270.246C133.717 262.117 153.315 264.743 170.472 271.844C188.552 279.324 204.835 291.08 220.099 303.175C231.271 312.03 241.965 321.458 252.521 331.04C256.691 334.836 260.839 338.638 264.997 342.46C270.081 347.117 275.143 351.78 280.273 356.385L280.277 356.384Z" fill="#200020"/>
<path d="M549.668 152.555C549.404 159.291 547.191 165.773 544.712 171.81C543.542 174.691 541.937 177.555 541.348 180.664C540.646 184.461 542.331 188.024 543.912 191.403C546.68 197.396 548.397 203.335 548.442 209.967C548.473 216.157 547.083 222.372 544.774 227.931C539.712 240.083 530.366 248.851 519.656 255.208C513.937 258.593 507.86 261.263 501.69 263.613C495.26 266.051 488.66 268.382 481.843 269.478C456.201 273.614 434.588 254.497 419.14 233.995C410.398 222.389 402.656 209.947 393.262 198.895C385.144 189.363 375.968 180.901 366.054 173.595C347.359 159.846 326.013 150.475 303.941 146.436C303.118 147.148 301.942 147.416 300.786 146.611C300.345 146.307 299.931 145.976 299.523 145.663C298.782 145.441 298.269 144.946 297.954 144.334C294.536 141.232 291.819 137.295 289.948 132.932C279.122 107.667 297.02 80.2192 314.488 65.6382C324.164 57.5547 335.766 51.8225 348.186 50.0881C355.056 49.1152 362.1 49.4111 369.027 50.2659C375.655 51.0652 382.421 52.099 388.795 54.3817C399.943 58.3845 407.087 68.0281 416.192 75.4463C420.56 79.0029 425.316 81.5225 430.775 81.9083C436.618 82.3258 442.397 80.6445 447.996 79.3477C453.561 78.0561 459.355 76.8819 465.126 77.7609C470.549 78.6019 475.556 81.3057 479.566 85.3839C483.629 89.5281 486.668 94.7511 488.754 100.276C490.907 105.917 491.229 112.511 494.096 117.82C497.421 124.008 504.323 122.254 509.692 121.927C516.287 121.514 522.962 121.836 529.394 124.006C541.333 128.025 550.174 139.019 549.666 152.563L549.668 152.555Z" fill="#200020"/>
<path d="M410.779 162.466C408.902 158.71 406.014 155.512 403.419 152.236C400.685 148.819 397.945 145.38 395.206 141.944C390.274 135.756 385.35 129.584 380.417 123.391C380.674 122.963 380.89 122.523 381.066 122.079C383.699 115.961 386.677 110.286 383.602 104.059C380.776 98.3006 378.176 95.2989 371.675 94.914C365.276 94.5391 360.687 98.3331 357.205 103.833C355.186 107.016 352.087 110.677 352.186 114.249C339.061 111.443 325.987 106.898 312.878 103.35C312.894 102.174 312.288 100.982 311.094 100.591C308.145 99.6255 305.277 98.4381 302.512 97.0298C301.896 96.7165 300.927 96.8044 300.315 97.0738C299.675 97.3546 299.033 97.974 298.801 98.6451C297.792 98.9899 296.886 99.7937 296.607 100.946C293.586 113.85 296.408 127.544 303.889 138.42C304.284 138.986 304.755 139.332 305.234 139.48C307.737 146.441 310.755 153.321 315.011 159.302C319.625 165.778 326.231 170.989 334.384 171.673C342.372 172.326 350.363 168.7 358.272 170.15C363.294 171.079 366.129 174.569 367.685 178.847C366.066 180.19 367.399 190.279 366.123 191.685C361.898 196.346 355.958 193.543 353.5 199.309C350.911 205.38 348.635 211.94 348.057 218.553C347.9 220.355 347.883 222.23 348.05 224.081C347.995 224.258 347.921 224.432 347.867 224.612C346.194 230.264 346.84 237.763 353.927 238.961C359.763 239.949 366.058 235.721 370.42 232.328C381.182 223.997 388.132 211.733 395.353 200.447C399.601 193.844 403.892 187.244 408.073 180.621C411.661 174.934 414.007 168.915 410.773 162.475L410.779 162.466Z" fill="#DA0081"/>
<path d="M415.471 176.18C413.571 181.438 410.769 186.807 407.227 191.167C403.007 196.373 397.458 194.33 392.218 191.906C387.416 189.694 382.593 186.698 379.667 182.158C376.72 177.543 376.69 172.405 378.32 167.318C379.996 162.042 382.556 157.515 381.425 151.783C380.202 145.719 376.073 140.56 371.762 136.323C370.31 134.878 371.478 132.723 372.862 131.902C376.86 129.562 379.763 125.835 381.351 121.539C382.632 118.062 387.982 120.16 386.692 123.62C390.597 123.453 394.94 125.215 398.168 127.978C403.285 132.326 408.113 137.929 411.842 143.498C418.529 153.518 419.544 164.928 415.47 176.176L415.471 176.18Z" fill="#200020"/>
<path d="M371.584 160.887C371.663 162.252 370.178 163.274 369.249 164.034C367.029 165.854 364.716 167.571 362.299 169.123C357.367 172.286 351.971 174.772 346.242 176.066C337.833 177.976 328.598 176.974 321.027 172.729C311.923 167.615 308.701 158.487 304.495 149.531C300.022 139.974 292.579 132.172 290.671 121.486C289.013 112.201 290.976 102.651 295.873 94.6547C297.804 91.5159 302.396 94.9762 300.486 98.1091C295.65 105.97 294.456 116.063 297.404 124.853C298.954 129.454 301.654 133.538 304.254 137.608C306.803 141.576 309.086 145.595 310.961 149.926C314.473 157.941 317.952 165.488 326.501 169.043C333.894 172.119 341.998 171.795 349.438 169.074C353.253 167.68 356.851 165.727 360.234 163.481C362.171 162.192 363.737 160.352 365.838 159.294C367.548 158.433 371.318 157.984 371.583 160.826C371.589 160.847 371.586 160.867 371.589 160.889L371.584 160.887Z" fill="#200020"/>
<path d="M337.007 116.951C336.551 115.898 335.756 114.993 334.742 114.548C332.633 113.622 328.646 114.838 328.906 117.535C329.457 123.166 340.01 123.885 337.003 116.948L337.007 116.951Z" fill="#200020"/>
<path d="M341.763 141.577C341.32 141.016 340.531 140.547 339.808 140.502C339.079 140.458 338.298 140.617 337.732 141.107C337.11 141.645 336.841 142.268 336.659 143.064C336.619 143.213 336.579 143.358 336.539 143.504C336.454 143.808 336.361 144.107 336.259 144.404C336.049 145.03 335.812 145.645 335.546 146.249C335.419 146.537 335.286 146.82 335.146 147.104C335.068 147.264 334.986 147.425 334.903 147.583C334.583 148.132 334.256 148.668 333.898 149.19C333.539 149.708 333.159 150.209 332.761 150.695C332.539 150.96 332.312 151.223 332.08 151.479C330.858 152.716 329.806 153.572 328.688 154.327C327.441 155.172 327.258 157.254 328.222 158.366C329.305 159.618 330.925 159.734 332.257 158.835C337.491 155.296 340.985 149.766 342.372 143.651C342.522 142.999 342.161 142.07 341.765 141.569L341.763 141.577Z" fill="#200020"/>
<path d="M356.549 108.128C356.138 109.874 356.045 111.686 356.133 113.513C354.05 113.732 352.229 113.837 350.406 113.847C341.609 113.997 333.027 112.414 324.653 109.425C314.979 105.979 305.114 102.408 296.629 96.5081C293.579 94.3877 297.033 89.7941 300.059 91.898C307.86 97.3346 316.994 100.551 325.883 103.754C333.965 106.686 342.201 108.322 350.706 108.114C352.127 108.078 353.556 108.001 354.986 107.862C355.582 107.797 356.111 107.907 356.548 108.125L356.549 108.128Z" fill="#200020"/>
<path d="M370.83 106.505C369.631 105.692 367.66 105.723 366.81 107.088C364.091 111.466 362.451 116.476 362.292 121.647C362.246 123.146 363.227 124.706 364.853 124.801C366.316 124.888 367.953 123.847 368.006 122.238C368.041 121.13 368.137 120.024 368.308 118.925C368.398 118.362 368.504 117.803 368.627 117.25C368.771 116.703 368.849 116.428 368.93 116.156C369.251 115.096 369.637 114.052 370.089 113.039C370.31 112.548 370.543 112.061 370.795 111.584C371.136 110.987 371.271 110.757 371.414 110.525C372.206 109.254 372.186 107.424 370.829 106.501L370.83 106.505Z" fill="#200020"/>
<path d="M372.537 133.804C369.554 135.944 365.965 131.449 368.984 129.3C373.175 126.288 377.239 122.539 379.524 117.812C381.474 113.812 381.968 109.281 379.854 105.235C377.884 101.486 373.944 98.7408 369.716 98.3792C365.48 98.0007 361.218 100.176 358.664 103.506C357.586 104.918 356.911 106.496 356.549 108.128C356.139 109.874 356.046 111.686 356.134 113.513C356.158 114.958 356.299 116.409 356.439 117.841C356.802 121.52 351.117 122.437 350.772 118.754C350.62 117.125 350.46 115.479 350.406 113.843C350.329 111.917 350.377 110.014 350.707 108.114C350.762 107.661 350.852 107.198 350.96 106.73C351.749 103.412 353.425 100.502 355.853 98.0779C359.91 94.0125 366.059 91.7529 371.766 92.8571C377.724 94.0106 382.897 98.0473 385.443 103.583C390.85 115.367 381.72 127.224 372.54 133.803L372.537 133.804Z" fill="#200020"/>
<path d="M334.808 100.35C330.683 100.056 326.356 100.47 322.745 102.642C319.457 104.62 317.117 107.695 316.439 111.509C316.175 112.992 317.534 114.578 319.002 114.667C320.647 114.764 321.87 113.692 322.155 112.104C322.373 111.313 322.498 111.002 322.637 110.699C323.066 110.004 323.244 109.72 323.454 109.455C323.509 109.39 323.886 108.978 323.923 108.918C324.124 108.728 324.324 108.538 324.541 108.363C324.803 108.148 325.076 107.942 325.356 107.749C327.251 106.832 328.082 106.453 329.689 106.203C330.097 106.14 330.509 106.088 330.921 106.054C331.127 106.036 331.334 106.021 331.542 106.009C332.622 105.975 333.423 106.014 334.221 106.07C335.72 106.177 337.28 105.092 337.374 103.507C337.461 101.992 336.417 100.465 334.812 100.349L334.808 100.35Z" fill="#200020"/>
<path d="M560.755 128.918C552.088 116.654 535.769 114.037 521.96 116.882C518.034 117.693 514.189 118.892 510.427 120.268C507.424 121.365 503.838 122.838 500.811 121.022C496.183 118.244 495.566 110.768 495.161 105.995C494.564 98.963 494.066 92.0532 491.415 85.4171C488.862 79.0228 484.407 73.6312 478.164 70.6053C464.655 64.0574 449.563 70.3722 436.364 74.3115C428.647 76.6174 420.807 77.8785 412.845 76.1004C405.885 74.5444 399.418 71.085 393.612 67.0318C390.75 65.036 388.019 62.8619 385.368 60.5888C382.552 58.1771 379.141 62.8011 381.933 65.1964C392.021 73.8364 404.1 81.5487 417.661 82.6288C433.235 83.8733 446.873 74.8462 462.105 73.6892C468.213 73.2228 474.616 74.2495 479.505 78.1765C484.754 82.3918 487.161 89.1417 488.326 95.567C490.11 105.416 487.949 122.172 499.605 126.794C506.467 129.518 513.842 124.745 520.411 123.118C527.418 121.381 535.038 120.65 542.055 122.759C548.143 124.587 553.969 128.297 557.179 133.929C560.359 139.513 560.522 146.169 558.733 152.23C556.847 158.621 553.412 164.407 549.479 169.737C545.761 174.776 539.849 179.582 538.839 186.076C537.749 193.095 544.698 197.093 547.893 202.411C550.76 207.178 552.268 212.806 552.427 218.353C552.751 229.509 547.486 240.918 537.247 246.055C527.633 250.875 515.187 250.397 506.212 244.31C503.969 242.788 502.037 240.992 500.345 238.872C498.035 235.974 493.538 239.543 495.844 242.442C503.31 251.808 515.494 255.996 527.226 254.833C539.401 253.627 549.934 246.251 554.928 235.044C559.768 224.179 559.199 210.725 553.305 200.37C551.707 197.564 549.786 195.142 547.579 192.796C544.964 190.018 543.556 187.608 545.592 184.014C547.292 181.012 549.914 178.526 552.047 175.839C554.297 173.004 556.405 170.046 558.277 166.943C565.219 155.427 569.178 140.827 560.762 128.916L560.755 128.918Z" fill="#200020"/>
<path d="M357.854 167.735C354.943 165.438 351.522 170.053 354.419 172.343C358.2 175.329 362.81 178.745 364.225 183.607C364.587 184.844 364.663 186.532 364.478 187.846C364.175 188.122 363.925 188.468 363.782 188.892C363.622 189.366 363.419 189.811 363.2 190.255C362.917 190.699 362.753 190.924 362.583 191.144C362.445 191.324 362.298 191.5 362.146 191.669C361.526 192.259 361.111 192.589 360.676 192.886C360.267 193.126 360.065 193.243 359.859 193.343C359.608 193.462 359.351 193.572 359.091 193.674C358.387 193.9 358.253 193.93 358.118 193.955C357.874 194.004 357.625 194.046 357.376 194.076C357.128 194.107 356.239 194.096 357.126 194.127C356.846 194.116 356.568 194.12 356.291 194.104C354.795 194.008 353.233 195.074 353.141 196.666C353.051 198.17 354.098 199.72 355.704 199.824C358.332 199.991 360.94 199.296 363.198 198.003C363.436 197.963 363.672 197.902 363.897 197.786C369.194 195.025 371.289 188.668 369.969 183.004C368.421 176.346 362.976 171.782 357.855 167.739L357.854 167.735Z" fill="#200020"/>
<path d="M468.794 233.253C468.761 234.214 468.734 235.197 468.705 236.162C463.254 222.501 453.613 210.557 440.535 202.564C434.582 198.924 428.155 196.091 421.417 194.339C414.031 192.41 405.879 190.731 399.179 195.366C395.662 197.792 392.788 201.253 389.816 204.304C386.693 207.516 383.585 210.7 380.457 213.894C375.467 219.036 369.077 227.088 361.208 227.14C353.956 227.201 350.249 219.26 350.693 212.911C351.108 206.805 354.507 201.458 358.293 196.638C361.101 195.334 363.75 193.667 366.124 191.685C372.568 186.279 354.031 186.511 351.792 186.959C343.412 188.63 336.613 195.275 332.537 202.511C329.235 208.376 327.049 214.75 324.251 220.852C321.863 226.068 318.74 230.708 314.902 234.993C307.618 243.113 298.739 249.632 291.595 257.913C284.031 266.671 279.719 277.209 280.682 288.93C281.828 302.75 289.243 315.329 296.741 326.695C292.427 338.367 289.321 350.461 287.424 362.758C286.485 361.943 285.556 361.109 284.635 360.289C283.167 359.006 281.712 357.7 280.277 356.384C279.321 358.1 278.392 359.829 277.437 361.545C260.345 392.625 243.253 423.702 226.174 454.759C225.881 455.278 225.6 455.774 225.327 456.284C224.358 458.023 223.414 459.779 222.467 461.512C223.311 463.925 224.136 466.319 224.98 468.732C225.533 467.722 226.09 466.715 226.643 465.706C235.383 496.63 246.148 526.955 258.939 556.439C258.471 557.325 258.399 558.436 259.123 559.472C267.676 571.779 282.19 577.937 296.216 581.611C311.712 585.651 327.816 587.075 343.778 585.539C374.523 582.594 403.58 568.045 423.601 544.384C434.048 532.047 440.947 517.589 445.961 502.282C451.171 486.383 455.173 470.065 458.412 453.656C464.965 420.524 468.125 386.819 470.04 353.144C471.591 325.972 472.507 298.733 473.357 271.536C473.895 267.232 474.011 262.925 473.744 258.663C473.866 254.95 473.971 251.241 474.098 247.531C474.245 242.977 474.372 238.406 474.519 233.853C474.634 230.184 468.916 229.54 468.79 233.254L468.794 233.253Z" fill="#200020"/>
<path d="M448.944 312.041C444.806 308.137 439.329 305.498 434.423 302.701C424.334 296.965 413.766 291.718 402.202 289.908C391.781 288.281 379.229 291.715 370.823 283.665C370.528 283.39 370.264 283.087 369.985 282.784C370.984 282.307 371.738 281.304 371.669 279.833C371.209 269.778 368.889 259.905 365.055 250.647C361.542 239.748 357.49 228.784 350.176 219.871C343.283 211.479 333.607 205.072 322.6 204.264C321.625 204.196 320.883 204.52 320.359 205.065C317.69 204.114 314.986 203.311 312.192 202.752C296.779 199.666 280.097 203.329 267.276 212.387C262.061 216.078 257.661 220.914 255.455 226.856C254.702 226.865 253.942 227.195 253.357 228.033C251.328 231.041 252.156 234.529 254.789 236.861C255.235 237.252 255.704 237.576 256.188 237.856C256.813 240.28 258.89 242.197 261.39 242.803C264.997 243.678 268.49 241.689 271.109 239.374C273.67 237.109 275.559 234.455 277.307 231.543C278.043 230.322 278.989 228.681 280.214 227.535C281.298 227.047 282.396 226.593 283.51 226.181C284.258 226.181 284.871 225.93 285.337 225.533C289.062 224.301 292.921 223.471 296.841 223.107C291.807 227.524 286.256 231.427 284.82 238.504C284.017 242.486 285.186 246.418 288.157 249.194C289.683 250.619 291.645 251.608 293.658 251.926C292.587 255.664 292.101 259.574 293.623 263.269C294.801 266.165 296.967 268.389 299.655 269.492C297.798 274.618 297.827 280.179 299.744 285.456C300.875 288.541 302.737 291.386 305.098 293.678C307.097 295.59 310.513 296.872 312.3 299.1C308.019 328.899 308.976 359.394 315.119 388.89C315.379 390.189 316.314 390.906 317.325 391.121C318.131 393.464 318.994 395.79 319.913 398.098C319.597 398.742 319.513 399.522 319.781 400.419C320.975 404.302 322.514 408.074 324.368 411.677C323.645 412.434 323.279 413.55 323.75 414.752C328.318 426.511 337.722 435.659 348.991 441.069C361.03 446.822 374.898 447.694 387.699 444.149C415.612 436.438 434.288 412.078 441.918 385.051C443.188 380.605 444.063 376.088 444.775 371.555C445.552 371.34 446.238 370.812 446.563 369.907C449.484 361.74 451.104 353.237 451.424 344.642C452.505 339.292 453.696 333.911 454.245 328.509C454.903 322.282 453.621 316.434 448.948 312.04L448.944 312.041Z" fill="#DA0081"/>
<path d="M467.822 210.535C471.246 222.691 471.4 235.353 470.709 247.931C470.861 248.327 470.931 248.803 470.844 249.345C470.722 250.193 470.577 251.028 470.453 251.881C470.25 254.96 470.011 258.029 469.757 261.061C469.687 261.956 469.308 262.598 468.765 263.006L461.782 309.004C461.061 313.716 460.376 318.419 459.68 323.148C459.407 325.032 459.122 326.939 458.834 328.851C456.916 328.668 455.014 328.396 453.112 328.051C440.657 325.892 428.51 321.106 416.632 317.237C403.547 312.944 390.446 308.661 377.364 304.391C375.329 303.722 373.303 303.069 371.269 302.399C370.94 300.282 370.587 298.152 370.24 296.025L374.436 297.409C374.352 297.175 369.821 280.313 369.821 280.313C369.446 282.545 369.057 284.799 368.682 287.031C367.712 281.731 366.661 276.437 365.532 271.143C366.384 266.114 367.236 261.088 368.123 256.049C368.268 255.214 368.416 254.378 368.561 253.543C366.972 239.051 369.496 224.214 375.672 211.013C381.382 198.854 390.007 187.974 400.968 180.149C407.252 175.663 414.389 172.177 422.192 171.806C429.07 171.472 435.961 173.043 442.063 176.224C455.531 183.19 463.789 196.235 467.814 210.549L467.822 210.535Z" fill="#ECE7F5"/>
<path d="M341.883 254.836C327.983 249.898 310.878 254.474 302.4 266.884C301.365 268.384 300.509 270.031 299.856 271.744C299.145 273.692 298.761 275.327 298.629 276.996C298.593 277.363 298.574 277.726 298.557 278.092C298.46 281.041 299.14 283.994 300.814 286.673C304.723 292.907 313.151 294.928 318.868 289.904C321.648 287.463 325.22 291.981 322.443 294.421C316.289 299.805 306.71 299.792 300.376 294.706C294.83 290.235 292.108 282.996 292.902 275.959C292.977 275.301 293.074 274.64 293.233 273.997C293.657 271.732 294.39 269.64 295.351 267.665C297.292 263.705 299.951 260.326 303.004 257.511C313.832 247.491 330.166 244.581 343.971 249.465C347.453 250.709 345.359 256.059 341.883 254.836Z" fill="#200020"/>
<path d="M323.911 282.807C322.401 279.127 319.3 276.476 315.425 275.655C313.949 275.342 312.357 276.782 312.271 278.219C312.175 279.851 313.186 280.953 314.679 281.331C314.918 281.418 315.081 281.466 315.239 281.525C315.398 281.585 315.558 281.652 315.712 281.721C315.826 281.774 316.245 282.038 315.83 281.761C315.385 281.47 315.911 281.816 316.004 281.874C316.12 281.95 316.238 282.028 316.353 282.112C316.612 282.298 316.854 282.507 317.096 282.716C317.209 282.847 317.327 282.968 317.436 283.099C317.637 283.339 317.829 283.589 318.008 283.85C318.375 284.482 318.52 284.796 318.654 285.116C318.721 285.274 318.782 285.437 318.838 285.599C318.979 286.109 319.007 286.251 319.031 286.394C319.094 286.73 319.142 287.07 319.168 287.416C319.152 287.578 319.171 287.745 319.166 287.866C319.153 288.177 319.119 288.486 319.07 288.791C318.894 289.458 318.78 289.766 318.64 290.066C318.589 290.115 318.508 290.31 318.422 290.442C317.598 291.691 317.674 293.56 319.007 294.466C320.235 295.297 322.143 295.222 323.027 293.883C325.212 290.566 325.404 286.453 323.912 282.811L323.911 282.807Z" fill="#200020"/>
<path d="M319.01 289.061C319.049 288.759 318.975 288.683 318.991 289.143C319.008 289.093 319.008 289.081 319.01 289.061Z" fill="#200020"/>
<path d="M330.992 270.315C324.677 269.591 318.551 273.18 315.796 278.829C315.135 280.183 316.045 282.082 317.429 282.551C319.004 283.087 320.44 282.37 321.147 280.919C321.452 280.373 321.606 280.139 321.766 279.914C321.919 279.703 322.077 279.498 322.243 279.294C322.347 279.169 322.454 279.044 322.563 278.925C323.304 278.236 323.534 278.053 323.765 277.878C323.999 277.698 324.243 277.538 324.484 277.371C325.27 276.939 325.773 276.707 326.29 276.51C326.443 276.453 326.597 276.398 326.752 276.348C327.14 276.24 327.3 276.208 327.459 276.175C327.99 276.067 328.529 275.994 329.069 275.96C329.755 275.973 330.081 275.998 330.402 276.036C331.892 276.207 333.463 275.012 333.551 273.474C333.642 271.905 332.587 270.503 330.99 270.32L330.992 270.315Z" fill="#200020"/>
<path d="M341.838 238.384C328.793 234.818 312.407 235.738 301.179 243.955C298.59 245.867 296.328 248.241 294.829 251.003C294.02 252.459 293.438 254.015 293.117 255.652C292.896 256.726 292.811 257.845 292.847 258.987C292.939 262.046 293.88 264.946 295.449 267.453C295.765 267.942 296.093 268.408 296.436 268.87C297.366 270.083 298.467 271.192 299.717 272.117C299.14 273.69 298.757 275.325 298.624 276.994C298.588 277.361 298.569 277.723 298.552 278.089C298.336 278.03 298.113 277.934 297.895 277.795C296.614 277.036 295.41 276.136 294.33 275.103C293.952 274.75 293.573 274.379 293.228 273.994C289.673 270.186 287.485 265.084 287.176 259.882C287.09 258.354 287.167 256.842 287.399 255.384C287.695 253.512 288.227 251.694 288.982 249.975C290.512 246.468 292.943 243.333 295.964 240.764C308.741 229.886 328.377 228.785 343.924 233.009C347.495 233.991 345.379 239.328 341.837 238.38L341.838 238.384Z" fill="#200020"/>
<path d="M368.131 256.036C369.376 260.822 370.474 265.646 371.48 270.498C373.104 278.44 374.462 286.433 375.799 294.336C376.002 295.57 376.202 296.79 376.384 298.03C376.749 300.137 377.056 302.257 377.368 304.379C379.578 319.175 381.198 334.059 382.231 348.982C382.473 352.652 376.806 353.564 376.542 349.881C375.831 339.639 374.871 329.427 373.618 319.236C372.914 313.604 372.131 307.995 371.276 302.386C370.947 300.269 370.595 298.139 370.248 296.011C369.753 293.007 369.241 290.007 368.689 287.018C367.72 281.717 366.669 276.424 365.54 271.129C365.221 269.547 364.879 267.952 364.524 266.379C361.006 250.451 356.985 233.851 346.145 221.164C343.739 218.351 348.25 214.774 350.655 217.587C356.773 224.761 360.999 233.273 364.017 242.162C365.578 246.719 366.933 251.337 368.138 256.034L368.131 256.036Z" fill="#200020"/>
<path d="M334.104 224.878C322.599 220.349 309.492 221.417 298.683 227.352C293.6 230.15 288.05 234.49 285.831 240.036C284.911 242.38 284.647 245.015 286.007 247.266C286.66 248.337 287.738 249.432 288.984 249.982C289.821 250.346 290.74 250.449 291.653 250.157C292.961 249.714 294.106 250.192 294.826 251.007C294.018 252.464 293.436 254.019 293.114 255.656C291.143 256.144 289.18 256.008 287.4 255.387C283.898 254.21 281.04 251.203 279.87 247.41C276.073 235.138 290.388 224.495 299.975 220.327C311.366 215.344 324.605 214.958 336.196 219.521C339.647 220.874 337.557 226.223 334.102 224.871L334.104 224.878Z" fill="#200020"/>
<path d="M350.55 217.605C344.049 207.899 332.784 203.418 321.986 200.332C315.866 198.582 309.522 196.617 303.119 196.462C296.09 196.293 288.993 197.651 282.296 199.69C270.158 203.386 258.949 210.853 253.232 222.498C250.779 227.494 249.292 233.898 251.787 239.183C254.274 244.451 260.045 246.244 265.379 244.656C272.124 242.65 275.593 236.808 279.876 231.731C284.597 226.13 291.474 223.618 298.694 225.049C302.315 225.766 302.89 220.046 299.281 219.328C293.996 218.28 288.365 219.029 283.558 221.478C278.516 224.05 275.283 228.279 271.86 232.625C269.218 235.98 264.998 240.606 260.131 239.403C254.993 238.138 256.015 231.011 257.376 227.365C261.423 216.531 271.461 209.45 282.027 205.783C287.921 203.74 294.36 202.387 300.606 202.182C306.502 201.989 312.176 203.556 317.809 205.099C328.328 207.982 339.673 211.657 346.039 221.167C348.101 224.248 352.587 220.652 350.54 217.597L350.55 217.605Z" fill="#200020"/>
<path d="M335.858 313.938C328.314 310.274 325.127 301.59 322.793 294.117C322.329 292.636 320.317 292.064 319.007 292.638C317.457 293.317 317.07 294.937 317.531 296.423C320.4 305.618 324.673 314.87 333.769 319.291C335.165 319.968 336.955 319.023 337.487 317.658C338.087 316.113 337.254 314.616 335.853 313.936L335.858 313.938Z" fill="#200020"/>
<path d="M263.608 315.265C265.308 321.834 262.949 327.515 256.449 329.933C255.168 330.407 253.856 330.751 252.524 331.04C250.612 331.45 248.665 331.732 246.75 332.062C246.272 332.137 245.796 332.207 245.322 332.281C244.627 331.64 243.934 330.995 243.226 330.377C229.146 317.753 214.697 305.528 199.158 294.741C184.455 284.537 168.273 274.861 150.363 271.806C141.839 270.349 132.921 270.491 124.629 273.186C116.849 275.717 109.811 280.213 103.939 285.895C103.529 286.285 103.146 286.69 102.742 287.102C101.675 288.192 100.659 289.33 99.6932 290.512C88.8832 303.326 83.7134 319.871 82.2433 336.504C82.098 338.196 81.9719 339.902 81.9077 341.609C80.0387 341.094 78.2222 340.283 76.5433 339.235C76.874 329.818 78.459 320.692 81.4139 311.858C84.2046 303.511 88.3896 295.532 93.8609 288.609C93.2524 288.42 92.638 288.21 92.0117 288.026C81.9224 284.936 71.877 284.096 61.6095 286.901C58.1378 287.844 54.7937 289.108 51.6182 290.621C51.2072 289.344 50.7797 288.091 50.369 286.83C50.1754 286.269 49.9999 285.719 49.824 285.153C45.8657 273.006 42.4449 260.654 39.5901 248.198C37.4595 238.925 35.3418 229.629 33.9026 220.207C32.7996 212.996 30.8635 203.789 37.2653 198.218C45.0254 191.456 56.6561 194.737 65.9546 194.528C95.2329 193.894 124.504 192.889 153.766 191.903C168.526 191.414 183.516 190.105 198.276 190.473C208.433 190.721 218.108 195.182 222.643 204.741C225.961 211.776 228.789 219.124 231.743 226.341C237.697 240.957 243.353 255.714 248.683 270.583C251.312 277.929 253.879 285.329 256.372 292.754C258.865 300.175 261.615 307.667 263.6 315.267L263.608 315.265Z" fill="#200020"/>
<path d="M275.049 594.766C276.265 598.228 271.014 600.558 269.784 597.058C263.748 579.779 257.713 562.501 251.678 545.226C249.748 539.696 247.826 534.183 245.896 528.653C245.251 526.823 244.629 525.006 243.98 523.177C237.661 505.025 231.308 486.878 224.97 468.73C224.126 466.318 223.302 463.923 222.454 461.515C221.6 459.067 220.742 456.62 219.884 454.173L187.931 362.669C186.728 359.184 191.979 356.855 193.19 360.356C199.226 377.635 205.261 394.913 211.296 412.188C216.241 426.389 221.198 440.563 226.165 454.757C226.986 457.157 227.834 459.565 228.682 461.976C233.486 475.736 238.291 489.499 243.095 503.259C245.288 509.53 247.476 515.783 249.652 522.063C250.292 523.875 250.937 525.705 251.568 527.539C259.4 549.947 267.217 572.359 275.049 594.766Z" fill="#200020"/>
<path d="M10.4889 536.456C-1.08417 541.57 -13.6035 537.74 -23.9043 531.448C-34.4013 525.029 -43.1083 515.807 -51.4468 506.863C-60.1751 497.509 -69.3907 488.112 -75.9992 477.076C-76.4018 476.412 -76.7867 475.743 -77.1501 475.068C-78.0828 473.417 -78.9265 471.742 -79.6661 469.999C-81.0825 466.755 -82.175 463.378 -82.8256 459.879C-83.4433 456.651 -83.4363 453.365 -83.8971 450.136C-84.1958 448.129 -84.9053 443.337 -87.683 443.211C-93.2574 442.946 -92.6818 454.915 -92.8387 458.158C-93.1403 464.882 -92.9634 471.616 -92.3771 478.332C-92.2302 479.943 -93.1646 481.292 -94.7629 481.616C-99.1582 482.533 -103.572 483.441 -107.99 484.345C-111.61 485.11 -112.495 479.409 -108.887 478.668C-105.333 477.941 -101.786 477.2 -98.2316 476.473C-98.7526 469.578 -98.843 462.644 -98.4537 455.738C-98.0782 449.489 -97.8721 441.201 -91.186 438.236C-85.2246 435.59 -80.5344 440.336 -78.9774 445.751C-77.9698 449.251 -77.9848 452.854 -77.5501 456.432C-77.3065 458.531 -76.8767 460.582 -76.3017 462.589C-76.0024 463.6 -75.6589 464.619 -75.2883 465.611C-74.7139 467.103 -74.0692 468.572 -73.375 470.012C-68.2018 480.59 -59.7122 489.373 -51.849 497.972C-43.0238 507.676 -33.9762 517.837 -23.0174 525.203C-13.9906 531.272 -2.42465 535.885 8.17348 531.198C11.5718 529.7 13.8678 534.972 10.4873 536.465L10.4889 536.456Z" fill="#200020"/>
<path d="M96.0562 425.255C94.6944 427.222 93.3227 429.153 91.956 431.102C75.2366 454.563 57.4332 477.268 39.9357 500.15C38.6231 501.865 37.2977 503.603 35.9851 505.319C34.835 506.831 33.6721 508.367 32.5211 509.877C12.1411 536.755 -7.68031 564.155 -24.5871 593.395C-26.9479 597.49 -29.2631 601.61 -31.5015 605.787C-33.6522 609.781 -35.5748 614.032 -38.7941 617.312C-41.8147 620.395 -45.7632 621.984 -50.0779 621.032C-54.3569 620.07 -58.5155 617.742 -62.3484 615.662C-78.1248 607.107 -91.3317 594.837 -103.737 582.026C-118.174 567.117 -132.184 551.808 -146.366 536.667C-153.837 528.693 -161.308 520.722 -168.779 512.748C-172.468 508.819 -176.14 504.885 -179.829 500.956C-183.356 497.181 -187.146 493.538 -190.419 489.532C-193.127 486.207 -195.353 482.049 -194.47 477.63C-193.792 474.262 -191.61 471.668 -188.636 470.011C-181.73 466.19 -173.104 467.638 -165.668 468.544C-145.804 470.997 -126.177 475.244 -107.034 481.119C-103.495 482.206 -105.611 487.546 -109.126 486.473C-113.594 485.106 -118.104 483.809 -122.628 482.615C-131.876 480.206 -141.21 478.197 -150.619 476.567C-155.391 475.761 -160.153 475.051 -164.954 474.434C-169.031 473.911 -173.197 473.218 -177.295 473.258C-180.303 473.296 -183.813 473.672 -186.389 475.338C-189.624 477.429 -189.305 481.016 -187.384 484.006C-184.864 487.94 -181.094 491.232 -177.928 494.63C-174.462 498.321 -170.996 502.016 -167.524 505.729C-153.346 520.852 -139.146 535.989 -124.965 551.127C-112.358 564.596 -100.072 578.553 -86.4189 590.995C-80.1239 596.73 -73.4899 602.109 -66.2992 606.701C-62.7946 608.953 -59.1499 611.005 -55.3761 612.802C-51.6529 614.555 -47.4067 617.116 -43.7063 614.064C-40.4042 611.359 -38.6097 607.006 -36.6445 603.34C-34.5488 599.437 -32.4161 595.586 -30.2189 591.759C-25.7459 583.96 -21.06 576.279 -16.2231 568.714C-2.466 547.245 12.5854 526.654 27.9995 506.362C29.1446 504.832 30.3125 503.314 31.4763 501.782C36.8115 494.797 42.1694 487.825 47.5273 480.853C61.8667 462.206 76.1733 443.512 89.7296 424.268C91.1271 422.291 92.5067 420.319 93.8839 418.325C94.5636 420.64 95.3062 422.962 96.0608 425.257L96.0562 425.255Z" fill="#200020"/>
<path d="M103.936 285.891C103.526 286.281 103.144 286.687 102.74 287.098C101.673 288.189 100.656 289.327 99.6909 290.508C97.7471 289.875 95.8187 289.215 93.8611 288.601C93.2526 288.412 92.6382 288.202 92.0119 288.018C81.9226 284.928 71.8772 284.088 61.6097 286.893C58.138 287.835 54.7939 289.1 51.6184 290.613C37.1738 297.478 25.6347 309.599 15.7511 322.018C3.53815 337.372 -7.77704 353.529 -18.5273 369.925C-32.0302 390.525 -44.4663 411.805 -55.7886 433.672C-56.6987 435.414 -57.5864 437.154 -58.4572 438.885C-63.6814 449.138 -68.655 459.507 -73.3761 469.997C-73.8806 471.112 -74.3801 472.246 -74.889 473.358C-75.3638 474.442 -76.2501 474.968 -77.1573 475.058C-78.0901 473.407 -78.9338 471.732 -79.6733 469.99C-78.5523 467.513 -77.4501 465.038 -76.3064 462.574C-72.0785 453.392 -67.6663 444.293 -63.0706 435.289C-62.1819 433.553 -61.2942 431.813 -60.3792 430.088C-56.9902 423.542 -53.4792 417.063 -49.8822 410.617C-39.953 392.835 -29.2862 375.486 -17.8897 358.611C-6.73122 342.04 4.80335 325.304 18.0332 310.325C26.9847 300.192 37.5708 290.877 49.8258 285.137C55.4197 282.535 61.3716 280.645 67.6882 279.795C77.1186 278.497 86.1982 280.157 95.2072 282.989C96.1009 283.279 96.9971 283.565 97.8907 283.855L103.933 285.88L103.936 285.891Z" fill="#200020"/>
<path d="M35.9885 505.318C34.8385 506.831 33.6756 508.366 32.5246 509.876C31.9475 509.44 31.3644 508.983 30.8052 508.543C29.8688 507.808 28.9338 507.091 27.9949 506.36C-0.816817 483.855 -29.644 461.378 -58.4543 438.892C-60 437.688 -61.5269 436.482 -63.0631 435.299C-62.1744 433.562 -61.2867 431.822 -60.3717 430.098C-58.8498 431.286 -57.3254 432.496 -55.7857 433.679C-52.5934 436.175 -49.4024 438.651 -46.2101 441.147C-20.3165 461.357 5.57707 481.566 31.4707 501.776C32.9663 502.952 34.4883 504.139 35.9885 505.318Z" fill="#200020"/>
<path d="M458.842 328.846C457.575 337.25 456.25 345.667 454.713 354.028C449.846 380.49 441.734 407.631 422.986 427.714C406.194 445.745 380.852 456.284 356.343 449.472C330.25 442.241 316.362 415.903 311.721 391.041C308.854 375.589 308.669 359.794 308.087 344.147C307.486 328.206 306.885 312.268 306.284 296.327C306.145 292.667 311.811 291.754 311.955 295.432C312.593 312.654 313.248 329.87 313.903 347.068C314.525 363.737 314.834 380.631 318.845 396.9C324.633 420.311 340.527 442.852 366.133 445.524C390.598 448.093 412.593 433.929 426.274 414.555C441.763 392.61 447.231 365.725 451.315 339.679C451.932 335.81 452.525 331.927 453.119 328.045C455.022 328.394 456.926 328.662 458.842 328.846Z" fill="#200020"/>
<path d="M365.558 420.357C337.567 400.679 310.302 379.977 283.825 358.297C280.958 355.949 277.537 360.568 280.39 362.905C306.867 384.581 334.132 405.283 362.123 424.965C365.148 427.092 368.584 422.488 365.558 420.357Z" fill="#DA0081"/>
<path d="M315.675 126.361C309.656 122.343 301.34 121.305 294.932 125.042C293.595 125.823 292.786 127.292 293.461 128.829C294.027 130.124 295.898 131.092 297.243 130.309C302.047 127.504 308.097 128.071 312.553 131.181C317.624 134.728 320.25 140.691 320.983 146.691C321.432 150.364 327.104 149.47 326.653 145.792C325.737 138.288 322.099 130.65 315.672 126.362L315.675 126.361Z" fill="#200020"/>
<path d="M315.884 136.961C315.546 136.267 315.362 135.934 315.135 135.64C314.903 135.343 314.618 135.088 314.341 134.838C314.233 134.738 314.113 134.652 313.985 134.576C313.759 134.454 313.536 134.328 313.31 134.202C312.948 134.045 312.571 133.988 312.187 134.029C311.935 134.003 311.696 134.042 311.463 134.141C311.096 134.216 310.769 134.379 310.48 134.625C310.2 134.86 309.917 135.126 309.711 135.433C309.632 135.551 309.572 135.679 309.503 135.805C309.393 135.92 309.198 136.101 309.122 136.203C309.072 136.271 308.776 136.809 308.74 136.888C308.624 137.147 308.594 136.914 308.545 137.665C308.653 139.109 308.751 139.432 308.87 139.741C309.144 140.256 309.299 140.555 309.504 140.81C309.704 141.061 309.956 141.28 310.193 141.498C310.808 141.916 311.069 142.07 311.331 142.197C311.953 142.394 312.295 142.506 312.635 142.531C312.98 142.555 313.335 142.549 313.681 142.499C314.678 142.357 315.541 141.638 315.908 140.703C316.047 140.346 316.124 139.96 316.197 139.586C316.224 139.448 316.235 139.307 316.238 139.167C316.241 138.817 316.246 138.405 316.187 138.041C316.124 137.674 316.003 137.308 315.888 136.96L315.884 136.961Z" fill="#200020"/>
<path d="M153.601 274.343C146.959 294.037 109.843 283.795 116.051 263.325C119.388 252.324 132.296 246.433 142.652 251.304C151.191 255.323 156.761 265.033 153.6 274.339L153.601 274.343Z" fill="#DA0081"/>
<path d="M196.171 287.752C184.351 279.273 169.731 270.863 155.567 266.843C141.174 262.755 126.153 264.561 113.1 271.897C105.624 276.095 99.1033 281.68 93.7006 288.338C91.3672 291.216 95.9835 294.642 98.3056 291.779C106.923 281.158 119.148 273.164 132.761 270.927C146.319 268.701 159.528 273.181 171.188 279.892C177.882 283.742 189.547 288.089 195.817 292.586C198.823 294.741 199.175 289.916 196.168 287.757L196.171 287.752Z" fill="#200020"/>
</g>
<defs>
<clipPath id="clip0_8926_193681">
<rect width="823.548" height="563.255" fill="white" transform="translate(-267 219.92) rotate(-15.4789)"/>
</clipPath>
</defs>
</svg>
