<svg width="354" height="384" viewBox="0 0 354 384" fill="none" xmlns="http://www.w3.org/2000/svg">
<g clip-path="url(#clip0_8926_193617)">
<path d="M28.5693 355.414C29.2698 360.345 31.3083 364.452 34.4628 368.275C37.2802 371.689 40.4818 374.822 43.9657 377.561C51.2862 383.34 60.0755 387.706 69.2856 389.368C78.8459 391.098 88.6754 389.222 97.4777 385.318C106.301 381.394 114.087 375.512 121.292 369.155C129.065 362.312 136.498 355.041 143.795 347.688C144.202 347.27 144.304 346.829 144.213 346.41C147.992 342.282 150.504 336.921 152.495 331.776C156.206 322.208 159.622 312.446 162.915 302.719C164.523 297.958 165.801 293.106 165.856 288.061C165.913 282.791 164.815 277.623 163.673 272.509C161.739 263.824 159.567 254.933 152.746 248.701C149.432 245.681 145.449 243.486 141.49 241.44C137.146 239.201 132.721 236.983 127.925 235.898C119.089 233.884 110.004 236.656 102.493 241.338C99.6078 243.146 96.9733 245.263 94.5062 247.57C94.1115 246.87 93.2281 246.608 92.4232 246.836C86.6656 248.409 81.8906 251.8 77.6828 255.884C77.0268 255.612 76.1774 255.691 75.5999 256.292C70.6551 261.392 65.7129 266.495 60.9719 271.775C45.0869 289.43 30.7647 310.32 28.7627 334.661C28.7523 334.817 28.7523 334.966 28.7732 335.102C28.389 336.879 28.1407 338.676 28.0492 340.532C27.8219 345.418 27.8794 350.565 28.5693 355.414Z" fill="#DA0081"/>
<path d="M112.186 418.83C115.547 421.477 120.013 422.948 124.098 423.988C128.476 425.096 132.969 425.605 137.459 426.034C158.197 428.014 178.957 429.856 199.76 431.1C220.577 432.357 241.462 432.921 262.313 432.119C272.145 431.735 282.202 431.44 291.898 429.71C300.055 428.249 309.547 425.049 314.139 417.607C319.342 409.181 314.591 399.205 311.468 390.925C308.12 382.036 304.511 373.213 299.657 365.024C296.884 360.353 293.638 356.021 290.144 351.892C289.308 350.557 288.435 349.246 287.497 347.978C282.722 341.532 276.75 336.012 270.289 331.261C266.805 327.88 263.274 324.544 259.712 321.241C258.458 320.086 256.929 321.469 257.078 322.835C253.309 320.902 249.373 319.352 245.244 318.527C240.322 317.541 235.242 317.69 230.242 317.871C225.025 318.064 219.801 318.268 214.574 318.516C205.513 318.945 196.404 319.444 187.443 320.97C179.15 322.394 170.915 324.701 163.526 328.774C155.641 333.117 149.418 339.406 144.079 346.575C138.57 353.972 133.468 361.753 128.547 369.547C123.604 377.352 118.997 385.415 115.469 393.977C113.728 398.207 112.267 402.55 111.159 406.984C110.163 410.898 108.443 415.872 112.189 418.825L112.186 418.83Z" fill="#200020"/>
<path d="M191.586 104.565C193.716 108.704 195.993 112.791 197.218 116.765C201.411 130.341 202.584 144.547 199.471 158.442C197.861 165.63 195.784 172.7 194.498 179.951C193.233 187.073 192.951 194.284 193.677 201.483C194.412 208.801 196.076 216.021 198.175 223.07C200.25 230.041 202.618 237.067 205.537 243.737C208.274 249.995 212.218 255.215 217.797 259.205C223.302 263.151 229.605 265.983 236.006 268.123C249.641 272.674 264.107 274.263 278.303 276.024C292.879 277.829 307.507 279.559 322.166 280.414C335.108 281.158 348.289 281.062 360.993 278.187C373.849 275.279 385.437 269.39 395.039 260.31C399.906 255.707 404.304 250.625 408.413 245.339C412.49 240.108 416.24 234.574 419.181 228.617C424.889 217.073 426.781 203.962 422.079 191.716C419.818 185.814 416.209 180.465 411.58 176.151C407.289 172.162 401.764 169.332 398.304 164.488C394.24 158.792 395.546 151.452 394.151 144.967C392.962 139.433 390.118 134.493 386.302 130.354C378.182 121.533 367.208 116.702 357.033 110.779C351.919 107.795 346.838 104.456 342.771 100.121C338.383 95.4518 335.819 89.9492 334.392 83.7333C332.89 77.183 331.97 70.5569 329.191 64.3749C326.803 59.0578 323.473 54.1614 319.493 49.9129C310.821 40.6505 299.557 34.5522 287.338 31.375C274.148 27.96 260.061 27.8503 246.653 29.9693C234.242 31.9367 221.979 36.0441 211.556 43.1771C201.567 49.9965 193.675 59.617 189.684 71.0977C187.682 76.8433 186.72 83.0069 186.623 89.087C186.54 94.2525 188.949 99.4494 191.584 104.571L191.586 104.565Z" fill="#200020"/>
<path d="M197.081 181.001C197.105 182.642 197.183 184.293 197.319 185.931C197.602 189.302 198.111 192.662 198.859 195.965C199.538 198.938 200.476 201.666 202.716 203.837C204.81 205.883 207.57 207.286 210.194 208.543C215.828 211.223 221.902 212.898 227.979 214.265C241.08 217.194 254.611 218.733 268.028 217.646C280.009 216.661 291.911 213.483 302.454 207.636C307.263 204.968 312.738 201.765 315.916 197.14C316.402 196.44 316.787 195.737 317.092 195.013C317.592 194.684 318.065 194.368 318.54 194.075C322.058 191.881 325.419 189.438 328.621 186.804C329.729 187.031 330.555 186.091 330.612 185.129C330.792 184.97 330.986 184.813 331.166 184.654C331.778 184.11 332.186 182.979 331.506 182.279C327.196 177.824 321.167 177.879 315.386 177.528C313.961 177.45 312.545 177.325 311.144 177.087C309.808 176.86 308.439 176.76 307.885 175.368C306.617 172.167 305.859 168.661 304.809 165.368C302.726 158.797 300.557 152.236 298.123 145.78C296.04 140.262 293.484 134.741 289.277 130.49C288.485 129.698 287.499 128.883 286.402 128.193C284.264 125.92 281.752 123.986 278.877 122.719C273.232 120.221 267.226 121.078 261.421 122.526C256.66 123.725 251.534 125.23 248.15 129.029C244.156 133.531 245.176 139.514 247.199 144.649C248.341 147.557 249.687 150.36 250.628 153.347C251.6 156.459 252.222 159.67 252.507 162.904C252.779 165.891 253.118 169.499 252.177 172.394C251.487 174.498 249.723 175.969 247.732 176.805C242.426 179.033 236.917 176.951 231.836 175.109C228.862 174.035 225.875 173.063 222.752 172.541C219.561 172.021 216.325 171.908 213.1 171.963C209.809 172.031 206.537 172.313 203.268 172.609C200.62 172.857 197.973 173.424 197.272 176.397C196.933 177.868 197.058 179.496 197.079 181.001H197.081Z" fill="#DA0081"/>
<path d="M205.816 168.613C206.404 169.813 207.118 171.101 207.978 172.449C212.661 173.332 216.542 174.359 218.952 175.004C220.818 175.501 221.328 175.637 221.78 175.637C222.718 175.637 223.476 174.868 223.476 173.941C223.476 173.013 222.763 172.29 221.869 172.245C221.61 172.201 220.703 171.963 219.822 171.725C216.882 170.944 211.859 169.598 205.816 168.616V168.613Z" fill="#DA0081"/>
<path d="M198.132 388.475C199.015 392.613 201.096 396.188 204.344 398.936C207.658 401.74 211.733 403.585 215.567 405.565C216.042 405.813 216.518 405.769 216.902 405.555C229.46 411.752 244.925 409.017 258.22 405.973C258.797 405.847 259.181 405.497 259.406 405.079C262.461 404.332 265.402 403.258 268.229 401.821C275.38 398.189 281.681 393.044 287.7 387.808C293.777 382.538 299.511 376.881 304.884 370.911C315.542 359.07 324.682 345.917 332.138 331.834C332.454 331.256 332.376 330.736 332.104 330.342C335.204 326.305 337.885 321.983 339.108 316.941C339.391 315.799 338.544 315.143 337.627 315.096C337.535 314.869 337.423 314.644 337.263 314.451C337.546 313.693 337.76 312.912 337.875 312.099C339.176 302.993 331.618 296.153 325.816 290.327C319.277 283.779 312.398 277.524 304.976 271.982C301.346 269.267 297.587 266.722 293.685 264.405C289.862 262.132 285.845 259.869 281.389 259.19C277.011 258.523 273.017 259.858 269.962 263.046C266.852 266.291 264.646 270.589 262.315 274.391C257.19 282.749 252.337 291.265 247.154 299.589C242.209 307.54 236.893 315.198 231.068 322.537C220.624 335.68 208.973 348.404 202.285 364.011C199.094 371.465 196.391 380.33 198.132 388.475Z" fill="#DA0081"/>
<path d="M84.6029 242.076C85.5856 242.663 86.5709 243.264 87.5562 243.852C104.617 254.144 121.689 264.436 138.761 274.728C139.257 282.838 142.472 290.721 148.002 296.772C148.444 297.258 148.998 297.428 149.494 297.371C150.582 298.91 151.972 300.334 152.923 301.951C152.55 302.178 152.267 302.549 152.176 303.103C149.766 319.198 147.061 335.259 144.097 351.263C143.961 351.976 144.437 352.802 145.114 353.06C157.39 357.8 170.682 357.528 183.624 357.178C195.741 356.852 207.97 356.716 220.041 355.561C225.823 355.007 231.604 354.056 237.157 352.316C238.368 351.932 239.557 351.514 240.699 351.015C243.088 350.382 245.382 349.489 247.476 348.13C252.373 344.94 254.344 339.625 255.928 334.274C257.828 327.805 259.728 321.346 261.471 314.832C264.142 304.867 266.426 294.768 267.762 284.531C268.204 283.716 268.656 282.914 269.142 282.122C284.279 290.345 299.404 298.578 314.542 306.824C322.335 311.054 330.121 315.295 337.914 319.548C338.91 320.092 339.906 320.635 340.902 321.176C341.061 320.915 341.218 320.667 341.364 320.408C341.793 319.695 342.224 318.984 342.632 318.271C342.791 318.012 342.948 317.751 343.094 317.489C371.389 269.408 381.73 234.459 373.832 213.627C366.716 194.797 349.328 185.059 335.447 180.139C334.972 179.969 334.496 179.809 334.033 179.653C332.915 179.269 331.77 178.905 330.57 178.545L329.88 179.065C329.585 179.292 329.394 179.608 329.303 179.948C329.122 179.89 328.953 179.836 328.783 179.789C328.035 180.152 327.256 180.523 326.441 180.896C310.083 188.497 281.12 198.982 251.558 195.395C225.684 192.249 213.578 181.145 207.967 172.446C207.107 171.101 206.394 169.81 205.806 168.611C204.538 168.407 203.226 168.216 201.88 168.057C191.201 166.735 178.324 166.936 168.178 172.898C155.62 180.272 128.105 201.501 100.626 227.211C95.7287 230.955 91.1446 235.071 86.9159 239.539C86.124 240.375 85.3556 241.213 84.5977 242.073L84.6029 242.076Z" fill="#ECE7F5"/>
<path d="M204.583 118.533C205.759 124.697 208.317 130.432 212.23 135.342C219.686 144.706 231.147 150.564 243.148 150.655C243.328 150.655 243.477 150.666 243.61 150.666C244.732 150.655 245.194 149.67 245.048 148.766C247.141 148.926 249.235 149.004 251.339 149.004C251.464 149.004 251.576 148.97 251.689 148.936C254.765 155.382 258.184 161.749 263.105 166.965C268.026 172.19 274.293 176.295 281.512 177.335C285.767 177.946 290.087 177.539 294.342 177.165C296.514 176.985 298.675 176.792 300.847 176.611C302.522 176.465 304.433 176.384 305.541 174.902C306.628 173.431 306.142 171.657 305.7 170.074C305.146 168.025 304.535 165.99 303.913 163.965C302.668 159.905 301.322 155.878 299.875 151.897C297.475 145.315 294.783 138.856 291.841 132.512C293.492 132.06 293.268 129.094 294.658 128.078C298.403 125.363 302.452 123.317 304.035 119.087C304.182 118.693 304.195 118.33 304.103 118.013C305.439 115.095 305.609 111.724 304.67 108.626C303.11 103.512 298.492 100.505 293.605 100.155C290.97 99.8491 288.255 100.416 285.958 101.942C285.845 101.851 285.72 101.762 285.573 101.694C282.406 100.066 279.408 98.1194 276.625 95.9037C276.261 95.5406 275.901 95.18 275.537 94.8064C272.278 91.5142 269.022 88.2116 265.763 84.922C259.89 78.9831 253.714 73.2061 248.487 66.6663C246.224 63.8287 244.133 60.8292 242.502 57.5841C241.065 54.7126 240.082 51.41 236.337 51.1827C233.091 50.9789 230.148 52.9359 227.456 54.4853C224.537 56.1705 221.665 57.9682 218.983 60.0036C213.599 64.0874 209.049 69.1772 206.483 75.4871C203.835 81.9669 203.247 89.0242 203.203 95.9586C203.158 103.413 203.179 111.194 204.583 118.533Z" fill="#DA0081"/>
<path d="M202.085 80.4827C203.238 76.2186 204.91 72.1504 207.148 68.3435C209.427 64.4661 212.22 60.5913 215.976 58.0281C217.774 56.8001 219.818 59.5122 218.009 60.7455C214.633 63.0474 212.111 66.5538 210.056 70.0367C207.976 73.5666 206.369 77.4388 205.328 81.4024C203.259 89.2932 203.225 97.7038 205.488 105.555C206.086 107.633 202.934 108.897 202.326 106.791C199.853 98.2264 199.756 89.0946 202.082 80.4827H202.085Z" fill="#200020"/>
<path d="M217.02 91.948C217.386 91.2294 217.932 90.5736 218.735 90.3332C219.634 90.0615 220.53 90.2496 221.291 90.7931C222.004 91.3026 222.414 92.1073 222.563 92.9513C222.631 93.3458 222.624 93.7456 222.577 94.1401C223.06 95.342 223.212 96.6876 222.969 97.9418C222.796 98.8354 221.988 99.5225 221.048 99.3788C218.771 99.0287 217.146 97.1684 216.667 94.9867C216.453 94.0042 216.565 92.8468 217.023 91.9453L217.02 91.948Z" fill="#200020"/>
<path d="M253.458 92.8049C253.824 92.0864 254.37 91.4305 255.172 91.1902C256.071 90.9184 256.968 91.1065 257.728 91.65C258.442 92.1595 258.852 92.9643 259.001 93.8108C259.069 94.2054 259.061 94.6051 259.014 94.9997C259.498 96.2016 259.649 97.5472 259.406 98.8013C259.234 99.6949 258.426 100.385 257.485 100.238C255.209 99.8883 253.583 98.0253 253.105 95.8462C252.89 94.8638 253.003 93.7063 253.46 92.8049H253.458Z" fill="#200020"/>
<path d="M208.189 77.3003C217.044 75.048 226.016 82.3796 229.586 89.9803C231.695 94.4691 232.142 99.5406 232.189 104.437C232.21 106.736 232.16 109.046 231.554 111.28C231.136 112.822 230.205 115.96 228.026 115.359C227.171 115.121 226.405 114.428 226.588 113.438C226.74 112.626 227.174 112.21 227.691 112.033C227.746 111.91 227.804 111.787 227.858 111.664C228.039 111.241 228.196 110.802 228.313 110.358C228.548 109.472 228.663 108.544 228.737 107.633C228.883 105.845 228.828 104.032 228.747 102.242C228.569 98.3178 227.997 94.3881 226.238 90.8321C224.795 87.9136 222.566 85.3896 219.937 83.4874C217.054 81.405 213.045 79.5395 209.425 80.4592C207.34 80.9896 206.069 77.8385 208.189 77.3003Z" fill="#200020"/>
<path d="M220.154 121.729C225.273 121.797 230.064 123.971 233.42 127.858C234.018 128.553 233.775 129.711 233.077 130.234C232.299 130.816 231.303 130.586 230.702 129.891C230.54 129.703 230.375 129.52 230.208 129.34C229.983 129.118 229.894 129.032 229.805 128.948C229.421 128.593 229.019 128.256 228.6 127.939C227.712 127.271 227.1 126.905 226.128 126.45C225.253 126.04 224.259 125.687 223.494 125.504C222.984 125.384 222.469 125.287 221.949 125.22C221.675 125.183 221.398 125.154 221.121 125.133C220.998 125.123 220.875 125.115 220.752 125.11C220.718 125.11 220.36 125.094 220.538 125.097C219.623 125.084 218.774 124.595 218.661 123.602C218.567 122.782 219.234 121.713 220.156 121.726L220.154 121.729Z" fill="#200020"/>
<path d="M293.037 129.943C296.406 137.489 299.137 145.252 301.432 153.185C303.562 160.553 306.097 167.657 309.657 174.44C312.001 174.636 319.724 175.443 329.268 178.161C329.71 178.286 330.149 178.422 330.58 178.545L329.89 179.065C329.595 179.292 329.404 179.608 329.313 179.948C329.133 179.89 328.963 179.835 328.793 179.788C328.045 180.151 327.267 180.523 326.451 180.896C318.608 178.822 312.199 178.082 309.772 177.86C309.664 177.938 309.555 178.006 309.44 178.053C308.499 178.432 307.681 177.891 307.239 177.092C303.272 169.886 300.548 162.301 298.269 154.423C295.975 146.491 293.244 138.728 289.875 131.182C288.986 129.188 292.146 127.95 293.037 129.946V129.943Z" fill="#DA0081"/>
<path d="M296.093 101.231C293.942 100.202 291.961 99.8698 289.747 100.933C287.732 101.9 286.062 103.567 284.523 105.15C283.015 106.702 280.32 104.636 281.841 103.071C285.072 99.7496 289.206 95.9558 294.253 96.9931C298.782 97.9233 303.534 101.244 305.794 105.281C310.269 113.263 306.795 123.495 299.02 127.89C294.629 130.369 289.394 131.127 284.463 130.103C282.33 129.659 282.803 126.299 284.949 126.745C291.699 128.148 299.807 125.698 302.974 119.132C304.456 116.059 304.851 112.367 303.787 109.096C302.564 105.336 299.571 102.898 296.095 101.234L296.093 101.231Z" fill="#200020"/>
<path d="M282.287 117.115C283.147 116.299 284.169 115.724 285.201 115.16C286.336 114.538 287.475 113.927 288.615 113.31C290.894 112.074 293.175 110.839 295.454 109.603C296.262 109.166 297.349 109.788 297.652 110.564C298.021 111.505 297.498 112.325 296.69 112.762C294.485 113.958 292.279 115.152 290.073 116.346C288.115 117.407 285.936 118.29 284.318 119.832C283.651 120.464 282.444 120.161 281.942 119.49C281.338 118.682 281.618 117.749 282.285 117.115H282.287Z" fill="#200020"/>
<path d="M243.545 81.3634C250.165 76.0333 259.172 73.9325 267.459 75.8425C269.576 76.3311 269.106 79.6938 266.973 79.2C259.491 77.4755 251.564 79.2601 245.576 84.0781C243.875 85.4499 241.844 82.7299 243.543 81.3608L243.545 81.3634Z" fill="#200020"/>
<path d="M205.669 127.31C210.76 139.117 220.83 148.199 233.341 151.413C233.987 151.572 234.632 151.729 235.275 151.841C236.645 152.137 238.035 152.351 239.428 152.487C239.857 152.137 240.299 151.82 240.764 151.515C244.146 149.32 248.333 148.688 252.112 150.224C252.914 150.551 253.696 150.948 254.443 151.389C255.846 151.05 257.226 150.632 258.583 150.135C257.417 149.252 256.184 148.45 254.882 147.784C253.23 148.259 251.545 148.62 249.848 148.871C246.093 149.425 242.29 149.448 238.602 148.939C230.592 147.854 223.023 144.324 217.174 138.466C209.017 130.288 204.582 118.447 205.771 106.932C205.996 104.761 202.638 104.262 202.41 106.446C201.686 113.548 202.839 120.754 205.669 127.312V127.31Z" fill="#200020"/>
<path d="M191.02 383.035C192.628 388.305 196.553 392.242 201.882 393.711C213.931 397.013 223.943 388.339 231.705 380.32C236.796 375.06 241.854 369.767 246.932 364.497C249.127 362.213 251.435 359.995 252.961 357.178C254.443 354.429 254.908 351.273 254.987 348.198C255.031 346.672 255.01 345.143 254.987 343.618C255.146 343.461 255.282 343.267 255.384 343.03C257.882 337.07 258.902 330.658 260.033 324.335C260.859 319.663 261.695 314.981 262.521 310.299C266.64 300.334 269.217 289.759 270.101 278.982C272.861 271.799 274.828 264.347 276.018 256.757C279.671 247.097 282.421 237.088 284.185 226.898C284.242 226.547 284.208 226.242 284.107 225.98C284.684 224.658 285.283 223.347 285.894 222.032C288.066 217.429 288.474 212.318 289.255 207.341C290.941 196.482 292.627 185.625 294.312 174.767C294.425 174.009 294.075 173.455 293.554 173.149C293.949 162.066 289.017 151.377 283.294 141.605C283.453 141.254 283.508 140.823 283.385 140.327C282.92 138.55 282.005 137.024 280.761 135.791C279.29 133.426 277.651 131.177 275.602 129.23C270.182 124.073 261.471 122.466 255.907 128.269C253.531 130.746 252.161 134.072 251.145 137.293C249.901 141.218 248.871 145.21 247.773 149.169C247.444 149.169 247.128 149.158 246.811 149.179C243.892 149.383 241.064 150.671 238.858 152.607C238.349 152.257 237.706 152.2 237.081 152.777C236.969 152.879 236.867 152.991 236.718 153.151C235.78 154.136 235.158 155.243 234.703 156.453C232.531 160.038 230.346 163.623 228.164 167.21C227.824 167.391 227.495 167.618 227.189 167.876C226.193 168.76 225.435 169.912 225.007 171.169C224.745 171.916 224.599 172.695 224.555 173.465C224.001 174.675 223.548 175.942 223.345 177.288C223.141 178.579 223.151 179.867 223.321 181.144C221.951 183.18 220.922 185.432 220.266 187.794C218.24 192.51 218.614 197.974 221.387 202.442C221.669 202.894 222.087 203.097 222.529 203.121C223.015 204.072 223.627 204.966 224.361 205.778C227.043 208.765 231.182 210.494 235.142 210.008C234.734 210.993 234.316 211.965 233.932 212.948C233.671 213.05 233.412 213.219 233.198 213.491C231.478 215.618 230.289 218.014 229.476 220.538C227.294 226.555 227.056 233.218 228.83 239.369C228.956 240.037 229.102 240.704 229.306 241.36C229.282 241.563 229.272 241.778 229.238 241.981C225.041 250.327 221.295 258.879 217.812 267.543C217.733 267.611 217.665 267.678 217.584 267.757C213.85 272.011 211.249 277.1 209.268 282.36C207.378 287.358 205.954 292.529 204.483 297.663C202.899 303.195 201.393 308.736 199.956 314.302C199.674 315.399 199.402 316.496 199.12 317.594C198.668 317.696 198.26 318.001 198.056 318.6C196.856 322.185 195.827 325.803 194.967 329.469C192.06 341.028 190.317 352.859 189.852 364.779C189.614 370.796 189.23 377.198 191.018 383.035H191.02ZM269.207 162.1C266.05 159.374 263.222 156.286 259.874 153.786C259.422 153.446 258.946 153.119 258.47 152.8C258.889 152.631 259.249 152.315 259.419 151.886C260.663 148.787 262.61 146.14 265.109 144.024C266.478 150.041 267.835 156.069 269.204 162.097L269.207 162.1Z" fill="#DA0081"/>
<path d="M232.776 162.348C234.214 158.593 236.284 155.006 239.428 152.484C239.856 152.134 240.298 151.818 240.763 151.512C244.145 149.317 248.332 148.685 252.111 150.221C252.914 150.548 253.695 150.945 254.442 151.387C257.236 153.049 259.646 155.379 262.035 157.516C268.914 163.727 275.508 170.228 281.822 176.992C283.304 178.576 286.03 176.564 284.548 174.967C280.531 170.659 276.401 166.452 272.173 162.355C268.553 158.859 264.876 155.411 261.063 152.131C260.271 151.452 259.445 150.775 258.585 150.13C257.419 149.247 256.186 148.445 254.884 147.778C253.107 146.861 251.22 146.219 249.205 146.025C245.177 145.652 241.613 146.827 238.604 148.931C237.405 149.767 236.297 150.741 235.277 151.836C232.823 154.459 230.921 157.718 229.656 161.02C228.874 163.056 231.997 164.391 232.779 162.345L232.776 162.348Z" fill="#200020"/>
<path d="M233.584 161.689C238.283 161.261 242.668 163.325 246.777 165.337C251.528 167.665 256.277 169.995 261.028 172.326C266.362 174.942 271.694 177.557 277.028 180.172C278.986 181.131 277.671 184.261 275.708 183.297C265.165 178.127 254.659 172.875 244.077 167.79C239.613 165.645 234.49 163.683 229.804 166.374C225.487 168.854 223.686 174.105 225.34 178.756C226.07 180.807 222.915 182.059 222.178 179.992C219.243 171.746 224.695 162.502 233.586 161.689H233.584Z" fill="#200020"/>
<path d="M218.616 186.438C219.411 184.099 220.391 181.275 222.717 180.044C223.982 179.375 225.362 179.402 226.739 179.65C228.548 179.976 230.346 180.431 232.141 180.826C235.594 181.589 239.046 182.365 242.491 183.156C250.109 184.907 257.712 186.736 265.297 188.633C267.398 189.158 266.933 192.521 264.813 191.99C253.256 189.098 241.657 186.373 230.022 183.822C228.689 183.53 227.353 183.19 226.007 182.963C224.612 182.728 223.846 183.122 223.153 184.316C221.875 186.527 221.164 189.273 220.684 191.758C219.75 196.586 220.639 201.506 224.335 204.986C228.456 208.869 234.546 209.412 239.488 206.815C241.417 205.802 242.642 208.968 240.724 209.977C235.609 212.665 229.3 212.396 224.416 209.331C219.85 206.468 216.941 201.164 216.899 195.792C216.873 192.602 217.6 189.443 218.619 186.435L218.616 186.438Z" fill="#200020"/>
<path d="M234.986 197.801C235.788 197.255 236.742 197.419 237.361 198.143C239.51 200.649 241.143 203.628 242.092 206.789C242.345 207.636 242.047 208.675 241.13 208.986C240.317 209.263 239.204 208.934 238.93 208.025C238.483 206.533 237.881 205.099 237.147 203.724C236.928 203.343 236.831 203.181 236.732 203.021C236.533 202.7 236.326 202.384 236.112 202.076C235.657 201.417 235.166 200.785 234.643 200.176C234.063 199.502 234.262 198.292 234.986 197.801Z" fill="#200020"/>
<path d="M236.611 198.959C236.867 198.614 237.196 198.29 237.565 198.065C237.805 197.916 238.064 197.767 238.328 197.66C238.589 197.556 238.871 197.496 239.146 197.433C239.561 197.341 240.016 197.347 240.434 197.401C240.703 197.438 240.973 197.519 241.229 197.6C241.38 197.647 241.522 197.71 241.657 197.788C241.872 197.869 242.052 197.997 242.196 198.172C242.371 198.324 242.499 198.509 242.577 198.731C242.726 199.113 242.739 199.635 242.559 200.012C242.368 200.414 242.049 200.782 241.613 200.931C241.224 201.065 240.709 201.127 240.335 200.913C240.244 200.861 240.147 200.832 240.05 200.793C239.031 201.386 238.568 201.634 238.14 201.681C237.735 201.728 237.225 201.605 236.909 201.336C236.569 201.049 236.294 200.644 236.263 200.187C236.232 199.74 236.339 199.319 236.608 198.953L236.611 198.959Z" fill="#200020"/>
<path d="M238.164 199.201C238.206 198.982 238.297 198.786 238.444 198.613C238.582 198.423 238.757 198.279 238.969 198.185C239.154 198.057 239.363 197.986 239.593 197.968C240.025 197.939 240.487 198.026 240.827 198.313C240.934 198.42 241.039 198.53 241.146 198.637C241.329 198.883 241.439 199.157 241.473 199.463V201.605C241.507 201.827 241.483 202.042 241.407 202.248C241.365 202.467 241.271 202.663 241.128 202.836C240.989 203.027 240.814 203.17 240.602 203.264C240.417 203.392 240.208 203.463 239.978 203.481C239.546 203.51 239.084 203.424 238.747 203.136C238.64 203.029 238.535 202.919 238.428 202.812C238.245 202.567 238.135 202.292 238.101 201.987V199.844C238.067 199.622 238.091 199.408 238.166 199.201H238.164Z" fill="#200020"/>
<path d="M224.32 229.801C224.903 222.887 228.896 216.606 231.923 210.526C232.892 208.577 236.023 209.888 235.048 211.848C233.611 214.738 232.142 217.614 230.741 220.522C229.374 223.352 228.167 226.247 227.772 229.388C227.077 234.914 228.674 240.545 232.061 244.947C233.394 246.679 230.676 248.712 229.343 246.98C225.593 242.104 223.802 235.933 224.317 229.806L224.32 229.801Z" fill="#200020"/>
<path d="M244.854 146.151C246.95 138.571 249.281 130.458 255.703 125.348C261.649 120.616 269.539 120.148 275.532 125.034C281.496 129.896 284.943 137.706 288.045 144.544C289.94 148.724 291.626 152.999 293.092 157.349C294.537 161.637 295.896 166.037 296.44 170.547C296.989 175.103 296.424 179.626 295.567 184.105C294.681 188.727 293.714 193.331 292.737 197.934C290.758 207.267 288.654 216.572 286.456 225.855C282.081 244.335 277.33 262.725 272.448 281.077C270.017 290.211 267.555 299.335 265.088 308.457C262.665 317.413 259.738 326.409 258.358 335.601C258.01 337.922 257.801 340.255 257.747 342.601C257.694 344.783 254.336 344.276 254.388 342.115C254.597 333.19 257.24 324.573 259.552 316.021C261.923 307.255 264.299 298.491 266.651 289.723C271.355 272.186 275.976 254.622 280.299 236.986C284.574 219.548 288.599 202.036 292.054 184.418C292.93 179.953 293.617 175.485 293.068 170.933C292.548 166.62 291.239 162.439 289.849 158.34C287.157 150.402 283.824 142.462 279.517 135.25C277.63 132.091 275.404 128.987 272.335 126.879C269.053 124.624 265.083 124.3 261.429 125.839C253.155 129.319 250.397 138.751 248.215 146.639C247.64 148.719 244.274 148.257 244.857 146.156L244.854 146.151Z" fill="#200020"/>
<path d="M257.966 151.679C260.762 148.568 262.456 144.829 262.924 140.69C263.026 139.781 263.959 139.125 264.847 139.253C265.78 139.386 266.387 140.261 266.285 141.173C265.762 145.814 263.773 150.284 260.653 153.759C260.041 154.441 259.032 154.65 258.272 154.06C257.587 153.529 257.354 152.364 257.971 151.679H257.966Z" fill="#200020"/>
<path d="M263.367 142.853C264.162 142.543 265.309 142.932 265.565 143.815C267.384 150.073 269.642 156.195 272.324 162.136C273.22 164.124 270.06 165.363 269.161 163.372C266.48 157.43 264.222 151.311 262.403 145.051C262.147 144.17 262.458 143.209 263.365 142.853H263.367Z" fill="#200020"/>
<path d="M233.436 37.7814C242.596 56.8106 255.682 73.9377 271.628 87.7909C276.167 91.7336 280.932 95.4072 285.892 98.8091C287.698 100.048 285.607 102.721 283.812 101.49C266.016 89.2906 250.738 73.4256 239.222 55.1828C235.932 49.9729 232.95 44.5695 230.276 39.0173C229.33 37.0525 232.492 35.8192 233.439 37.7814H233.436Z" fill="#200020"/>
<path d="M214.568 59.1306C217.383 56.152 220.987 54.3569 224.759 52.8807C228.42 51.4463 232.246 50.2522 235.524 48.0156C237.322 46.7876 239.363 49.4971 237.557 50.733C234.277 52.9748 230.545 54.2995 226.86 55.7078C223.418 57.0246 219.835 58.4774 217.253 61.2104C216.623 61.874 215.645 62.1118 214.872 61.5109C214.203 60.9909 213.939 59.7995 214.571 59.1306H214.568Z" fill="#200020"/>
<path d="M156.442 90.7565L152.056 84.3917C146.732 76.6656 136.148 74.7164 128.419 80.0414L122.053 84.4283C121.284 84.9561 120.558 85.5413 119.912 86.1736C119.852 86.333 119.758 86.3644 119.677 86.4193C119.742 86.3409 119.813 86.2756 119.886 86.2076L97.4855 53.7041C97.4907 53.7851 62.6994 77.7499 62.6994 77.7499C63.4704 78.6722 64.1839 79.511 64.8242 80.4411L69.2097 86.806C74.5361 94.5321 72.5864 105.111 64.8582 110.436L58.4916 114.823C50.7634 120.146 40.1812 118.199 34.8548 110.473L30.4667 104.108C29.8264 103.181 29.2984 102.216 28.875 101.216C28.7078 101.166 6.234 116.644 6.234 116.644C-0.273698 121.125 -1.91238 130.032 2.56983 136.536L57.3103 215.966C61.7925 222.469 70.6994 224.11 77.2071 219.629L156.716 164.864C163.221 160.383 164.862 151.476 160.38 144.973L143.288 120.169C143.199 120.214 143.113 120.255 143.016 120.289C143.097 120.234 143.16 120.156 143.233 120.088C144.15 119.777 144.958 119.307 145.723 118.776L152.09 114.392C159.818 109.067 161.768 98.4879 156.442 90.7618V90.7565Z" fill="#ECE7F5"/>
<path d="M16.4648 184.042C16.6687 189.461 18.0382 194.741 20.3799 199.583C21.8513 208.271 23.2992 217.656 29.475 224.41C29.8487 224.818 30.2329 225.202 30.6171 225.586C32.8465 229.113 35.8102 232.032 39.0797 234.657C43.1307 237.903 47.4065 240.899 51.5907 243.977L72.2141 259.189C72.1566 259.359 72.1357 259.529 72.1357 259.709C71.3438 259.247 70.2017 259.346 69.726 260.443C67.3608 265.792 65.0086 271.132 62.6538 276.481C58.514 285.869 54.3715 295.257 50.2317 304.645C48.3656 308.898 46.51 313.162 44.8687 317.494C42.1977 321.745 39.2 325.819 38.0814 330.807C36.9053 336.134 37.854 341.666 39.213 346.868C40.4126 351.506 41.6907 356.538 44.4741 360.52C47.4039 364.726 51.9854 366.378 56.8858 367.091C62.2592 367.872 67.7685 367.906 73.155 367.216C78.5389 366.537 83.8679 365.147 88.8806 363.065C93.4517 361.176 97.9888 358.756 101.575 355.305C105.354 351.686 107.413 347.072 109.29 342.274C111.485 336.665 113.68 331.044 115.876 325.432C120.209 314.383 124.835 303.401 128.389 292.079C131.5 282.206 134.249 271.449 132.587 261.044C131.805 256.192 129.984 251.521 126.952 247.63C123.931 243.774 119.995 240.787 115.787 238.334C107.222 233.335 97.4243 230.79 89.0087 225.531C89.2701 225.439 89.5288 225.283 89.7562 225.034C91.1936 223.462 92.3462 221.687 93.2295 219.785C94.9597 216.595 96.0025 213.112 94.9832 209.47C93.7052 204.934 89.4844 202.355 86.9283 198.624C88.4546 192.562 84.3383 186.579 78.0815 185.651C74.1325 185.063 69.8672 185.685 65.9652 186.284C64.235 186.545 62.5153 186.882 60.8165 187.256C65.398 183.851 69.6058 179.914 73.2726 175.537C75.2981 173.128 77.2765 170.573 78.8499 167.845C80.3318 165.29 80.5252 162.371 78.4657 160.064C73.9626 155.019 66.9139 158.423 62.0266 160.924C51.7214 166.217 42.6132 173.635 35.3163 182.628C32.917 177.889 35.5541 172.031 38.5962 168.038C42.2395 163.254 46.8994 159.17 49.2542 153.527C50.2944 151.026 51.0314 147.995 50.4068 145.304C49.8423 142.851 47.8847 141.244 45.496 140.643C40.3708 139.342 35.46 142.623 32.1016 146.185C30.3924 148.006 28.8556 150.007 27.4077 152.09C27.2823 152.145 27.1594 152.215 27.034 152.317C20.1107 157.43 17.4972 166.105 17.4528 174.382C17.4423 177.029 17.701 179.631 18.1323 182.21C17.2724 182.268 16.423 182.968 16.4701 184.042H16.4648Z" fill="#DA0081"/>
<path d="M14.7914 184.687C15.6173 191.034 16.7724 197.333 18.2752 203.552C19.7127 209.546 21.1841 215.801 23.7741 221.411C26.2857 226.861 30.4935 230.775 35.0437 234.553C45.7696 243.442 57.5802 251.1 68.5413 259.73C69.4247 260.42 70.295 261.123 71.1653 261.833C77.1738 266.709 82.8635 271.945 87.9102 277.915C89.3137 279.59 92.0291 277.552 90.6257 275.89C85.4666 269.784 79.607 264.376 73.4417 259.343C72.5714 258.62 71.688 257.919 70.8046 257.23C68.2695 255.218 65.6899 253.271 63.0895 251.348C54.1982 244.777 45.0666 238.511 36.583 231.407C34.3537 229.552 32.1139 227.653 30.2478 225.424C28.4262 223.242 27.1037 220.776 26.0714 218.129C23.8316 212.383 22.3157 206.277 20.9698 200.27C19.6003 194.117 18.5496 187.896 17.8466 181.63C17.1906 175.749 17.0103 169.711 19.237 164.111C23.0162 154.622 31.6931 148.108 39.6121 142.192C41.3658 140.881 39.3298 138.166 37.5866 139.467C28.3426 146.378 18.2857 154.227 15.0841 165.854C13.3984 171.994 13.9969 178.453 14.7888 184.685L14.7914 184.687Z" fill="#200020"/>
<path d="M29.1013 222.552C28.8974 224.724 32.2584 225.21 32.4623 223.028C33.4241 212.736 30.9229 202.003 33.7978 191.901C34.229 190.373 34.7831 188.904 35.4495 187.491C35.7762 186.757 36.1395 186.043 36.5237 185.354C36.6361 185.15 36.7511 184.946 36.8635 184.753C37.4855 183.666 38.1755 182.615 38.9099 181.586C41.1157 178.487 43.7763 175.681 46.5701 173.136C49.479 170.489 52.5786 168.07 55.7332 165.729C59.0602 163.262 62.4317 160.548 66.3441 159.066C69.5013 157.877 73.2674 157.731 76.1187 159.766C79.4902 162.154 79.0485 166.225 77.3183 169.517C75.3033 173.34 71.9449 176.575 68.8557 179.548C66.2762 182.048 63.5607 184.4 60.7224 186.595C59.9749 187.193 59.217 187.76 58.4591 188.324C58.3232 188.426 58.1977 188.539 58.1193 188.664C57.4842 189.456 57.824 190.519 58.5375 191.052C58.8433 190.927 59.1255 190.814 59.4313 190.702C59.7476 190.577 60.0769 190.464 60.4036 190.362C60.9916 190.148 61.5796 189.944 62.1808 189.764C64.2742 188.157 66.2866 186.482 68.2337 184.742C70.0109 183.148 71.7411 181.497 73.4033 179.778C76.9315 176.159 80.7238 172.12 81.8554 167.019C82.7597 162.983 81.121 158.865 77.5902 156.683C74.1743 154.569 70.0318 154.376 66.2422 155.528C61.841 156.853 58.0618 159.803 54.4081 162.484C50.8903 165.073 47.4274 167.754 44.2153 170.717C41.8736 172.864 39.6547 175.174 37.6867 177.651C36.9288 178.589 36.2153 179.564 35.5489 180.557C35.4234 180.737 35.3006 180.93 35.1751 181.11C34.4616 182.184 33.8056 183.292 33.2176 184.437C32.0075 186.72 31.0457 189.132 30.3662 191.677C27.6952 201.778 30.0604 212.294 29.0987 222.552H29.1013Z" fill="#200020"/>
<path d="M53.7422 194.073C55.0777 192.704 56.7634 191.776 58.5511 191.052C58.8464 190.927 59.1287 190.814 59.4345 190.702C59.7507 190.577 60.08 190.464 60.4067 190.362C60.4276 190.125 60.4067 189.876 60.3152 189.628C60.033 188.813 58.9118 188.283 58.1094 188.677C55.9376 189.73 54.3093 191.766 53.7422 194.073Z" fill="#200020"/>
<path d="M41.7141 227.788C43.6716 221.309 45.6291 214.826 47.5736 208.346C48.9771 203.698 50.0408 198.313 53.2972 194.538C53.4331 194.378 53.5795 194.221 53.7389 194.075C55.0744 192.706 56.7602 191.778 58.5348 191.055C58.8405 190.929 59.1228 190.817 59.4286 190.705C59.7448 190.579 60.0741 190.467 60.4008 190.365C60.9889 190.151 61.5769 189.947 62.178 189.767C63.9213 189.213 65.6619 188.761 67.4156 188.363C70.0631 187.762 72.7445 187.324 75.4365 187.039C77.6998 186.801 80.4153 186.359 82.574 187.334C84.8478 188.353 85.5378 191.102 86.1258 193.294C86.3532 194.109 86.5336 194.935 86.6799 195.76C86.8393 196.677 86.9622 197.592 87.0536 198.519C87.0981 198.971 87.132 199.437 87.1556 199.889C87.5633 200.15 87.9475 200.443 88.3107 200.748C88.8544 201.211 89.3614 201.71 89.8266 202.253C89.973 202.298 90.1219 202.345 90.2683 202.4C90.4826 202.117 90.6185 201.744 90.608 201.313C90.5976 200.531 90.5532 199.753 90.4852 198.982C90.4617 198.676 90.4408 198.381 90.4068 198.078C90.1585 195.601 89.6593 193.168 88.9249 190.793C88.0416 187.966 86.5937 185.286 83.7083 184.131C81.2986 183.169 78.6276 183.339 76.0951 183.564C73.458 183.801 70.8341 184.199 68.2336 184.739C67.7475 184.831 67.2614 184.933 66.7752 185.045C64.8072 185.497 62.7478 185.973 60.7223 186.595C57.113 187.702 53.6292 189.275 51.0601 191.967C47.2365 195.982 46.0029 201.885 44.453 207.022C42.4955 213.501 40.551 219.981 38.5935 226.474C37.9715 228.543 41.0816 229.879 41.7167 227.786L41.7141 227.788Z" fill="#200020"/>
<path d="M50.7567 230.628C52.2961 227.506 54.1856 224.577 56.4254 221.907C58.6077 219.284 61.2004 217.031 63.3722 214.408C67.005 209.998 69.2788 204.388 73.7349 200.688C75.7604 199.003 78.1909 197.77 80.8724 197.793C80.9953 197.793 81.1207 197.793 81.2462 197.804C82.2864 197.837 83.2952 198.052 84.2674 198.402C85.2971 198.765 86.2694 199.261 87.1632 199.883C87.5709 200.145 87.9551 200.437 88.3184 200.743C88.862 201.205 89.369 201.704 89.8342 202.248C91.1358 203.763 92.1315 205.54 92.8555 207.395C93.8408 209.906 94.6876 212.913 94.5308 215.641C94.3609 218.683 91.5905 221.193 89.8029 223.456C89.5441 223.783 89.2828 224.112 89.024 224.441C88.3106 225.345 87.5866 226.252 86.8862 227.156C87.9368 227.655 88.9796 228.162 90.0303 228.648C90.7438 227.744 91.4546 226.85 92.1681 225.944C92.9496 224.959 93.7284 223.966 94.5099 222.981C95.5736 221.635 96.7052 220.255 97.3377 218.638C98.0277 216.851 98.0172 214.904 97.7689 213.028C97.0319 207.497 94.7947 201.718 90.4144 198.075C90.0198 197.736 89.599 197.419 89.16 197.124C88.3576 196.581 87.5422 196.129 86.6928 195.755C85.9688 195.439 85.2344 195.178 84.487 194.987C83.3553 194.681 82.2027 194.524 81.058 194.524C78.0498 194.48 75.0521 195.442 72.4046 197.419C66.9972 201.456 64.5196 207.926 60.1968 212.913C57.9125 215.55 55.299 217.857 53.1141 220.582C50.9632 223.273 49.1546 226.226 47.6387 229.301C46.677 231.269 49.8001 232.583 50.7619 230.626L50.7567 230.628Z" fill="#200020"/>
<path d="M33.7172 175.391C33.8295 177.324 34.543 179.258 35.1755 181.113C35.2879 181.463 35.4029 181.813 35.5153 182.153C35.8446 183.227 36.1843 184.29 36.5215 185.354C36.6339 185.15 36.7489 184.946 36.8612 184.753C37.4833 183.666 38.1732 182.615 38.9076 181.586C38.6358 180.75 38.364 179.901 38.1053 179.052C37.9589 178.576 37.8099 178.1 37.6871 177.648C37.0991 175.579 36.8612 173.667 38.1497 171.621C39.3493 169.708 41.0795 168.159 42.6188 166.541C44.383 164.699 46.0922 162.787 47.7335 160.819C50.7417 157.2 53.8544 152.902 53.9799 147.982C54.1837 140.019 45.1775 135.044 38.4137 139.036C36.5241 140.157 38.5836 142.882 40.4627 141.774C43.301 140.089 47.3624 141.21 49.32 143.742C51.957 147.157 50.0099 151.784 47.9165 154.951C45.4049 158.739 42.1798 162.154 39.0122 165.413C36.3072 168.161 33.4793 171.26 33.7172 175.388V175.391Z" fill="#200020"/>
<path d="M80.5214 224.115C82.6383 225.134 84.7631 226.15 86.8801 227.156C87.9307 227.655 88.9735 228.162 90.0242 228.648C92.0392 229.61 94.0412 230.571 96.0536 231.533C97.1513 232.053 98.249 232.573 99.3467 233.106C103.894 235.277 108.431 237.472 112.945 239.711C120.582 243.499 128.331 248.26 131.057 256.835C132.494 261.327 132.494 266.2 132.008 270.861C131.488 275.883 130.424 280.847 128.997 285.689C126.078 295.597 121.86 305.073 117.819 314.563C113.52 324.685 109.21 334.797 104.911 344.919C104.051 346.931 107.174 348.255 108.034 346.241C113.068 334.41 118.104 322.579 123.138 310.748C127.277 300.987 131.373 291.147 133.762 280.8C135.889 271.559 137.279 260.634 132.674 251.892C128.443 243.839 120.174 239.429 112.299 235.627C108.849 233.965 105.41 232.301 101.96 230.652C100.863 230.119 99.7544 229.589 98.6567 229.069C96.4953 228.029 94.3235 226.986 92.1621 225.947C91.1088 225.45 90.0686 224.941 89.018 224.442C86.6292 223.289 84.2326 222.145 81.8438 220.993C79.8758 220.042 78.5534 223.174 80.5214 224.115Z" fill="#200020"/>
<path d="M194.715 391.855C205.193 405.1 219.434 412.055 236.02 412.055C236.618 412.055 237.219 412.045 237.828 412.032C264.45 411.229 293.104 392.443 314.488 361.779C324.399 347.55 333.29 333.887 340.906 321.176C339.91 320.632 338.914 320.089 337.919 319.548C330.35 332.181 321.537 345.721 311.705 359.835C290.933 389.627 263.284 407.869 237.726 408.64C221.47 409.15 207.532 402.602 197.384 389.752C170.877 356.23 229.107 245.286 229.705 244.166C230.134 243.34 229.818 242.31 228.992 241.882C228.166 241.43 227.136 241.757 226.694 242.582C224.24 247.22 166.847 356.601 194.713 391.855H194.715Z" fill="#200020"/>
<path d="M38.5379 376.45C50.7118 390 67.637 391.505 72.5348 391.639C73.0104 391.662 73.4861 391.662 73.9487 391.662C110.468 391.673 142.439 351.579 143.798 349.849C144.386 349.112 144.25 348.052 143.516 347.474C142.781 346.897 141.718 347.022 141.14 347.756C140.813 348.174 108.037 389.287 72.6367 388.258C68.0761 388.122 52.34 386.719 41.06 374.188C32.0538 364.167 28.2302 349.609 29.6911 330.938C31.2514 311.01 50.338 284.826 71.1653 261.834C71.9128 260.997 72.6707 260.159 73.4391 259.346C72.5688 258.622 71.6854 257.922 70.802 257.232C70.0336 258.058 69.2757 258.894 68.5387 259.733C45.686 285.101 27.846 311.104 26.3066 330.671C24.7672 350.317 28.8862 365.722 38.5353 376.456L38.5379 376.45Z" fill="#200020"/>
<path d="M140.731 258.536C145.65 226.385 171.32 217.397 178.476 215.503L175.494 203.951L178.891 203.076L182.796 218.207L180.917 218.528C180.603 218.583 149.52 224.29 144.199 259.069C138.909 293.655 154.734 303.043 154.886 303.129L156.065 303.777L145.216 347.9L141.81 347.061L152.045 305.439C148.096 302.512 135.823 290.632 140.731 258.541V258.536Z" fill="#200020"/>
<path d="M283.454 38.7823C287.356 44.2327 293.307 47.854 299.519 50.1377C303.003 51.4284 306.612 52.3194 310.221 53.1816C312.223 53.6571 315.605 54.4358 315.979 56.8787C315.989 57.0042 316.047 57.1165 316.091 57.2289C313.444 57.1609 310.807 56.9806 308.193 56.7089C306.021 56.4816 305.535 59.8417 307.707 60.069C312.221 60.5315 316.758 60.7144 321.295 60.589C325.265 60.487 329.373 60.3068 333.254 59.3792C336.772 58.53 340.076 56.8108 342.112 53.7251C343.957 50.9189 344.736 47.5849 345.018 44.2693C345.585 37.5857 345.164 30.2097 342.462 23.9781C339.804 17.8014 334.7 13.4379 329.102 9.97596C318.263 3.30281 302.956 -4.63756 290.772 3.36029C285.228 6.9895 281.574 13.2577 280.012 19.5911C278.37 26.2068 279.444 33.1961 283.451 38.7849L283.454 38.7823Z" fill="#200020"/>
<path d="M331.639 81.9171C334.221 89.4185 338.476 96.332 344.105 101.937C349.779 107.585 356.554 111.426 363.872 114.541C371.148 117.637 378.682 120.247 385.402 124.498C392.056 128.705 397.317 134.704 400.032 142.148C401.371 145.816 402.118 149.733 402.152 153.639C402.17 155.593 402.048 157.548 401.726 159.476C401.373 161.606 400.383 163.808 400.464 165.979C400.626 170.278 405.435 172.36 408.858 173.604C412.617 174.968 416.181 176.386 419.394 178.821C425.368 183.355 429.615 190.088 431.463 197.325C433.441 205.067 432.602 213.227 429.602 220.6C426.403 228.462 420.917 235.062 414.187 240.165C410.332 243.089 406.193 245.616 402.113 248.205C397.829 250.922 393.546 253.642 389.262 256.36C387.119 257.718 384.979 259.08 382.835 260.438C381.003 261.601 378.954 258.894 380.802 257.721C389.194 252.396 397.636 247.139 405.976 241.73C413.233 237.022 419.898 231.64 424.202 223.989C428.112 217.039 430.057 208.906 428.779 200.965C427.634 193.858 423.959 187.039 418.427 182.393C415.371 179.827 411.953 178.304 408.223 176.974C404.52 175.655 400.631 173.985 398.483 170.487C397.479 168.854 396.985 167.072 397.105 165.151C397.241 162.99 398.064 160.911 398.402 158.776C399.005 154.972 398.843 151.099 398.028 147.34C396.368 139.668 391.782 133.147 385.441 128.608C379.187 124.13 371.835 121.512 364.781 118.604C357.539 115.617 350.527 112.187 344.581 107.003C338.74 101.91 333.988 95.6318 330.685 88.6242C329.846 86.8449 329.114 85.0159 328.474 83.1556C327.766 81.0993 330.923 79.8451 331.634 81.9197L331.639 81.9171Z" fill="#200020"/>
</g>
<defs>
<clipPath id="clip0_8926_193617">
<rect width="432.493" height="432.493" fill="white" transform="translate(0.0429688)"/>
</clipPath>
</defs>
</svg>
