<svg width="101" height="115" viewBox="0 0 101 115" fill="none" xmlns="http://www.w3.org/2000/svg">
<g clip-path="url(#clip0_8974_192477)">
<path d="M83.6058 83.3428C81.8673 72.4357 74.8309 58.7317 63.5808 46.1679C52.3343 33.6034 39.486 25.0968 28.8279 22.1588L22.1805 14.7322L11.5003 24.2857C1.53406 33.1969 8.69226 57.4393 27.4874 78.434C46.2862 99.428 69.6054 109.227 79.5716 100.316L90.2525 90.7657L83.6051 83.3391L83.6058 83.3428Z" fill="#200020"/>
<path d="M73.4008 105.243C68.5804 106.09 62.6808 105.134 56.0887 102.365C45.9948 98.124 35.3234 90.08 26.0456 79.7163C16.7678 69.3526 9.95527 57.8692 6.85818 47.3743C3.6157 36.3956 4.80824 27.6863 10.2124 22.8549L20.8934 13.305C21.6864 12.596 22.903 12.6653 23.6117 13.4538L29.8874 20.4627C41.2823 23.7693 54.0476 32.6414 65.0113 44.8858C75.975 57.1303 83.3822 70.7954 85.4073 82.4746L91.683 89.4836C92.0219 89.8654 92.1999 90.3624 92.1688 90.8734C92.1414 91.3837 91.9113 91.858 91.5297 92.2004L80.8487 101.75C78.8156 103.567 76.3054 104.733 73.4008 105.243ZM22.0259 17.4522L12.7774 25.7205C8.54118 29.5054 7.75107 36.8086 10.5484 46.2847C13.4911 56.2446 20.0124 67.2095 28.9185 77.1556C37.8247 87.1016 48.0046 94.798 57.5843 98.8196C66.6959 102.648 74.0481 102.673 78.2837 98.8847L87.5322 90.6164L82.1676 84.6245C81.9231 84.3505 81.7612 84.0092 81.7013 83.6463C79.959 72.7172 72.6471 59.1862 62.1433 47.4533C51.6395 35.7204 38.9913 26.956 28.3143 24.0175C27.957 23.9181 27.6392 23.7211 27.3911 23.4478L22.0265 17.4559L22.0259 17.4522Z" fill="#DA0081"/>
<path d="M90.2529 90.7757C100.221 81.8658 93.0648 57.6214 74.2686 36.6244C55.4724 15.6273 32.1542 5.82879 22.1859 14.7387C12.2176 23.6487 19.374 47.8931 38.1702 68.8901C56.9664 89.8871 80.2846 99.6857 90.2529 90.7757Z" fill="#200020"/>
<path d="M84.0909 95.6921C79.2706 96.5388 73.3709 95.5832 66.7789 92.8137C56.6849 88.5731 46.0135 80.5292 36.7364 70.1691C27.4592 59.8091 20.6417 48.319 17.5447 37.8241C14.3022 26.8454 15.4947 18.136 20.8989 13.3047C26.3061 8.46896 35.0961 8.25292 45.6589 12.6904C55.7528 16.931 66.4242 24.9749 75.702 35.3386C84.9799 45.7023 91.7967 57.1887 94.8937 67.6836C98.1362 78.6623 96.9437 87.3717 91.5395 92.2031C89.5063 94.0203 86.9962 95.1855 84.0915 95.6958L84.0909 95.6921ZM29.0476 13.5861C26.8389 13.9741 24.9589 14.8362 23.4639 16.1703C19.2277 19.9552 18.4376 27.2584 21.2349 36.7345C24.1776 46.6944 30.6988 57.6592 39.605 67.6053C48.5111 77.5514 58.6911 85.2478 68.2708 89.2694C77.3823 93.0978 84.7346 93.123 88.9708 89.3381C93.2071 85.5532 93.9972 78.25 91.1999 68.7739C88.2572 58.814 81.7359 47.8491 72.8297 37.9031C63.9236 27.957 53.7437 20.2606 44.164 16.239C38.2647 13.7591 33.1024 12.8738 29.0439 13.5867L29.0476 13.5861Z" fill="#DA0081"/>
<path d="M39.586 38.2036L34.7752 32.8274L39.0994 28.9629L43.9102 34.339L39.586 38.2036ZM70.4103 68.2223C68.7691 69.6914 66.915 70.5717 64.8565 70.8691C62.7944 71.1672 60.6503 70.8912 58.4255 70.0483C56.2001 69.2018 54.014 67.8051 51.8665 65.8545L55.3165 61.0759C57.1783 62.5824 59.037 63.4481 60.8891 63.6736C62.7411 63.8991 64.3036 63.4435 65.5765 62.3069C66.7742 61.2364 67.4137 59.9545 67.4944 58.4576C67.5751 56.9608 67.0959 55.6302 66.0532 54.4665C65.3439 53.6743 64.5883 53.177 63.7812 52.9679C62.9749 52.7625 62.0601 52.8213 61.037 53.1444L53.1747 55.7403C48.6425 57.2381 44.4978 55.8911 40.7402 51.6957C38.974 49.7235 37.7762 47.7193 37.1424 45.6802C36.5085 43.6411 36.4483 41.6861 36.958 39.8159C37.4684 37.9493 38.5576 36.2828 40.2264 34.8201C41.7686 33.4967 43.4594 32.6753 45.2964 32.3639C47.1334 32.0525 49.0732 32.24 51.1126 32.9305C53.152 33.6211 55.2477 34.8036 57.4002 36.4816L53.9536 41.5803C52.9481 40.7572 51.9225 40.1639 50.8733 39.8012C49.8241 39.4384 48.8136 39.3179 47.8463 39.4425C46.8789 39.5672 46.0194 39.9407 45.2605 40.5645C44.5344 41.1599 44.0281 41.8675 43.7417 42.6875C43.4553 43.5074 43.3953 44.3479 43.5647 45.2048C43.7304 46.0622 44.1321 46.8443 44.7575 47.5456C45.4526 48.3214 46.285 48.7826 47.2504 48.9261C48.2194 49.069 49.3918 48.8858 50.7679 48.3799L56.2472 46.3837C59.0078 45.3971 61.4621 45.2036 63.6145 45.8064C65.7669 46.4093 67.8772 47.8683 69.9489 50.183C71.767 52.2141 72.9987 54.3255 73.6443 56.5172C74.2898 58.7089 74.3477 60.8228 73.8143 62.8594C73.281 64.896 72.1494 66.6869 70.4226 68.2277L70.4103 68.2223ZM71.6271 73.9883L66.8162 68.6122L71.1404 64.7476L75.9513 70.1238L71.6271 73.9883Z" fill="#DA0081"/>
</g>
<defs>
<clipPath id="clip0_8974_192477">
<rect width="83.8248" height="101.787" fill="white" transform="translate(0.785156 14.6523) rotate(-9.96276)"/>
</clipPath>
</defs>
</svg>
