<svg width="493" height="549" viewBox="0 0 493 549" fill="none" xmlns="http://www.w3.org/2000/svg">
<g clip-path="url(#clip0_8926_193571)">
<path d="M293.035 424.661C287.033 416.542 278.999 409.014 269.746 404.781C267.286 403.649 264.683 402.783 262.007 402.336C259.379 401.884 256.708 401.736 254.112 401.101C249.432 399.929 245.572 396.751 241.423 394.43C239.403 393.311 237.256 392.351 234.988 391.812C232.384 391.198 229.687 391.279 227.044 391.335C224.416 391.385 221.892 391.302 219.381 390.461C216.838 389.618 214.479 388.238 212.179 386.911C206.869 383.841 201.561 380.75 196.258 377.66C193.826 376.23 191.476 374.796 189.571 372.667C187.766 370.646 186.301 368.316 184.57 366.24C177.788 358.132 168.731 353.105 157.979 353.879C147.194 354.653 136.743 359.955 128.155 366.248C126.351 367.571 124.625 368.99 122.935 370.46C119.274 370.838 115.604 371.237 111.905 371.282C108.545 371.336 105.189 371.222 101.837 370.905C98.9872 370.622 96.0149 370.363 93.2885 369.455C86.7205 367.27 85.9446 359.417 83.5216 353.836C82.1473 350.695 80.5809 347.643 78.8137 344.698C77.4101 342.357 75.8932 339.951 73.5933 338.373C68.2321 334.691 63.2564 339.358 60.7009 344.022C58.259 348.499 57.445 353.796 57.8242 358.853C58.3657 365.842 61.1038 372.065 64.9697 377.628C60.8844 389.058 68.4313 399.821 74.3725 409.173C77.388 413.91 79.5822 419.248 83.198 423.59C84.7439 425.447 86.5789 427.137 88.7904 428.201C89.9327 428.757 91.1812 429.148 92.4208 429.375C93.91 429.637 95.4808 429.644 96.7479 430.577C98.8108 432.111 99.9846 434.676 101.797 436.497C103.569 438.266 105.96 439.43 108.449 439.797C110.647 440.114 112.785 439.941 114.854 439.433C118.204 440.721 121.865 441.028 125.531 440.798C125.885 441.453 126.562 441.941 127.559 441.897C135.74 441.628 143.858 440.569 151.82 438.78C153.016 438.626 154.211 438.506 155.403 438.522C158.274 438.527 159.38 441.809 160.642 443.952C164.958 451.349 169.281 458.723 173.598 466.12C173.554 466.458 173.564 466.838 173.708 467.256C178.351 481.106 185.513 494.021 194.739 505.275C194.526 505.859 194.533 506.558 194.927 507.228C200.204 516.118 208.719 522.851 218.469 526.071C218.667 526.497 218.99 526.833 219.432 526.995C232.288 531.582 246.388 531.626 259.167 527.351C280.799 524.318 293.438 503.317 300.421 484.289C304.157 474.111 306.45 463.563 304.832 452.674C303.328 442.533 299.115 432.881 293.029 424.654L293.035 424.661Z" fill="#DA0081"/>
<path d="M124.906 366.917C118.794 369.402 112.361 370.843 105.761 371.09C99.7483 371.316 92.6474 371.418 88.5813 366.279C86.4299 363.562 84.8189 360.407 83.7782 357.108C82.7833 353.958 82.4075 350.661 81.5381 347.48C80.163 342.44 76.7018 337.03 71.0848 336.233C64.9175 335.357 60.3778 340.891 57.8206 345.81C55.3249 350.61 54.2047 356.203 54.7016 361.6C55.3263 368.373 58.6317 374.41 62.2935 380.007C65.8072 385.379 69.8964 390.56 75.1566 394.319C85.8626 401.971 99.5462 402.763 112.073 400.287C114.93 399.723 113.471 395.408 110.633 395.969C100.492 397.974 89.2942 397.506 80.1705 392.193C75.0911 389.233 71.112 384.756 67.7615 379.987C64.1909 374.903 60.4636 369.229 59.4447 362.987C58.6371 358.041 59.3998 352.885 61.609 348.396C63.5683 344.416 67.8085 338.359 72.7893 341.695C77.6252 344.935 77.6788 351.792 78.9946 356.87C80.4105 362.336 83.3641 368.456 87.8985 372.016C92.8741 375.924 100.357 375.875 106.377 375.616C113.222 375.322 120.005 373.809 126.347 371.231C129.038 370.136 127.622 365.806 124.907 366.913L124.906 366.917Z" fill="#200020"/>
<path d="M109.618 415.709C99.4254 418.393 87.9431 416.285 79.4708 409.917C69.9334 402.749 64.7173 391.021 65.3326 379.165C65.485 376.252 60.9493 376.541 60.8 379.44C60.1223 392.505 66.2479 405.891 76.88 413.621C86.7012 420.76 99.3496 423.11 111.062 420.028C113.889 419.285 112.442 414.967 109.622 415.711L109.618 415.709Z" fill="#200020"/>
<path d="M113.938 427.615C107.434 430.597 99.7994 430.686 93.2994 427.576C85.9335 424.052 81.4517 416.889 77.2475 410.209C75.6854 407.727 71.8843 410.21 73.4452 412.69C78.1563 420.174 83.3402 428.038 91.6698 431.827C99.1114 435.212 107.937 435.346 115.376 431.934C116.498 431.42 117.214 430.318 116.81 429.058C116.465 427.984 115.047 427.107 113.936 427.616L113.938 427.615Z" fill="#200020"/>
<path d="M157.091 438.517C152.185 437.082 147.334 438.688 142.532 439.726C137.129 440.893 131.479 440.054 125.998 440.03C115.948 439.982 103.354 439.897 97.0545 430.535C95.4191 428.104 91.6155 430.581 93.2522 433.015C99.8276 442.785 112.055 444.421 122.891 444.548C125.94 444.584 128.992 444.549 132.042 444.665C134.987 444.78 137.914 445.063 140.844 444.636C145.883 443.9 151.051 441.474 156.161 442.968C158.97 443.788 159.885 439.334 157.092 438.52L157.091 438.517Z" fill="#200020"/>
<path d="M588.768 280.655C588.351 280.296 587.914 279.964 587.503 279.62C584.7 275.052 580.808 271.554 576.232 269.247C572.841 266.541 569.231 264.116 565.288 262.268C565.125 261.775 564.827 261.311 564.302 260.97C552.952 253.627 540.729 247.775 527.921 243.47C526.995 243.158 526.058 242.857 525.124 242.554C519.653 239.111 513.506 236.854 507.846 233.729C500.859 229.872 494.397 225.19 488.491 219.818C488.208 219.561 487.882 219.432 487.545 219.354C487.116 218.336 486.713 217.296 486.359 216.216C482.554 204.61 481.091 192.086 481.259 179.812C481.332 177.447 481.422 175.082 481.517 172.72C481.551 171.875 481.202 171.308 480.686 170.989C480.684 170.776 480.686 170.564 480.683 170.355C480.545 163.949 479.709 157.578 478.599 151.275C477.438 144.677 476.042 138.112 473.84 131.777C473.479 130.741 472.648 130.294 471.799 130.283C468.905 122.286 464.966 114.741 459.25 108.224C456.487 105.075 452.992 101.929 448.656 101.433C444.742 100.976 440.533 102.695 438.883 106.437C438.579 107.147 438.506 108.067 439.009 108.719C442.873 113.775 446.978 119.414 450.346 125.415C448.358 130.417 446.594 135.513 445.266 140.731C443.853 146.296 443.032 152.074 444.005 157.742C442.286 161.399 440.478 165.014 438.598 168.582C435.048 175.279 427.383 167.523 423.513 174.034C419.785 180.312 413.605 175.017 410.214 181.473C407.066 187.449 412.022 219.422 414.737 225.957C417.782 233.308 423.518 239.535 428.885 245.171C440.284 257.155 451.567 269.278 463.754 280.48C475.63 291.407 489.352 300.626 500.445 312.418C507.649 325.03 514.618 337.783 521.327 350.658C524.804 357.324 528.212 364.019 531.552 370.749C534.558 376.831 537.082 383.886 541.978 388.757C550.747 397.481 564.988 394.049 575.555 391.519C582.423 389.887 589.226 387.549 595.136 383.636C599.745 380.594 603.632 376.6 606.739 372.047C609.847 367.495 612.07 362.397 613.33 357.097C613.422 356.971 613.487 356.824 613.532 356.669C613.611 356.482 613.657 356.293 613.717 356.098C614.164 354.904 614.523 353.701 614.875 352.484C615.223 351.186 615.491 350.075 615.726 348.963C615.843 348.424 615.967 347.864 616.077 347.312C616.926 345.296 617.366 343.118 617.3 340.892C617.415 340.671 617.523 340.437 617.558 340.153C620.987 316.304 606.053 295.339 588.766 280.665L588.768 280.655Z" fill="#DA0081"/>
<path d="M405.024 180.05C409.708 201.917 408.41 226.439 424.131 244.243C426.071 246.44 429.098 243.049 427.179 240.876C412.283 224.003 413.768 199.33 409.332 178.616C408.72 175.76 404.416 177.209 405.024 180.05Z" fill="#200020"/>
<path d="M467.101 114.643C463.686 109.008 459.366 103.726 453.604 100.381C448.467 97.3976 441.02 96.53 436.947 101.777C432.478 107.537 436.779 114.272 441.076 118.558C443.887 121.367 446.42 124.144 448.34 127.657C450.162 130.991 451.365 134.67 452.18 138.374C453.912 146.245 453.811 154.465 453.315 162.46C453.134 165.37 457.669 165.078 457.848 162.186C458.639 149.445 458.268 135.673 451.665 124.334C450.072 121.599 448.083 119.138 445.852 116.897C443.576 114.616 440.905 112.397 439.919 109.21C439.067 106.452 440.196 103.955 442.91 102.903C445.713 101.819 448.771 102.868 451.262 104.267C456.655 107.298 460.52 112.443 463.627 117.673C467.084 123.489 470.119 129.698 472.707 135.944C477.625 147.804 478.865 160.461 479.286 173.17C479.753 187.299 479.487 201.488 482.451 215.395C483.06 218.252 487.365 216.803 486.759 213.961C481.104 187.435 487.568 159.425 476.734 133.838C473.961 127.29 470.786 120.728 467.097 114.641L467.101 114.643Z" fill="#200020"/>
<path d="M447.689 59.9309L350.078 59.2152C343.872 59.1697 338.815 64.1715 338.781 70.3871L338.255 168.156C338.221 174.372 343.225 179.447 349.43 179.493L447.041 180.208C453.247 180.254 458.304 175.252 458.338 169.037L458.864 71.2677C458.898 65.0521 453.894 59.9764 447.689 59.9309Z" fill="#ECE7F5"/>
<path d="M399.773 157.275C394.181 157.48 389.053 156.78 384.39 155.178C379.727 153.577 375.669 151.23 372.218 148.133C368.766 145.037 366.057 141.335 364.094 137.032C362.129 132.727 361.049 127.992 360.852 122.823C360.593 116.055 361.368 110.164 363.179 105.154C364.987 100.144 367.572 95.9753 370.928 92.6487C374.284 89.3221 378.147 86.8003 382.517 85.0899C386.885 83.3769 391.484 82.4331 396.313 82.2586C402.673 82.0258 408.301 82.7747 413.201 84.5C418.101 86.2254 422.237 88.69 425.61 91.8899C428.983 95.0898 431.568 98.8125 433.364 103.055C435.159 107.298 436.149 111.838 436.335 116.674C436.59 123.311 435.578 128.533 433.308 132.339C431.035 136.145 426.918 138.156 420.961 138.373C418.364 138.468 415.792 137.959 413.253 136.85C410.71 135.74 408.894 134.005 407.802 131.639L411.197 131.514C409.771 134.306 407.87 136.262 405.494 137.381C403.12 138.504 400.685 139.108 398.186 139.201C394.489 139.335 391.188 138.647 388.279 137.131C385.372 135.618 383.043 133.431 381.302 130.571C379.558 127.712 378.614 124.348 378.467 120.48C378.316 116.511 379.042 113.044 380.646 110.082C382.249 107.118 384.469 104.793 387.307 103.102C390.142 101.412 393.342 100.502 396.905 100.373C399.07 100.295 401.358 100.654 403.772 101.45C406.187 102.248 408.083 103.271 409.466 104.526L407.479 107.504L407.246 101.402L415.335 101.109L415.887 120.827C415.987 123.429 416.464 125.248 417.319 126.285C418.175 127.323 419.255 127.818 420.551 127.772C422.25 127.709 423.411 127.193 424.043 126.218C424.672 125.244 425.014 123.962 425.071 122.374C425.128 120.786 425.117 119.025 425.043 117.09C424.842 111.819 423.786 107.567 421.88 104.329C419.973 101.09 417.604 98.6153 414.768 96.8979C411.936 95.1793 409 94.0341 405.962 93.461C402.921 92.8891 400.169 92.6447 397.706 92.7345C393.376 92.8915 389.547 93.6754 386.219 95.0794C382.89 96.4874 380.112 98.4587 377.893 100.993C375.671 103.529 374.062 106.56 373.063 110.087C372.065 113.613 371.716 117.591 372.018 122.022C372.344 126.218 373.218 129.892 374.64 133.048C376.061 136.204 377.986 138.821 380.417 140.904C382.848 142.986 385.697 144.519 388.969 145.502C392.24 146.485 395.874 146.905 399.87 146.76C401.667 146.695 403.452 146.479 405.221 146.116C406.99 145.75 408.682 145.272 410.292 144.679L414.07 154.559C411.867 155.375 409.556 156.009 407.142 156.464C404.725 156.92 402.269 157.19 399.77 157.283L399.773 157.275ZM398.576 128.563C400.741 128.485 402.573 127.802 404.075 126.51C405.575 125.222 406.26 122.874 406.132 119.472C406.022 116.604 405.315 114.441 404.009 112.987C402.704 111.533 400.803 110.85 398.306 110.939C395.274 111.048 393.069 111.931 391.682 113.585C390.294 115.239 389.653 117.399 389.754 120.068C389.855 122.736 390.669 124.886 392.196 126.415C393.721 127.948 395.85 128.662 398.579 128.562L398.576 128.563Z" fill="#DA0081"/>
<path d="M452.91 180.909C459.595 189.347 458.345 201.568 456.402 211.582C455.373 216.842 453.993 222.033 452.28 227.109C451.364 229.808 450.434 232.547 449.27 235.144C448.339 237.198 446.954 239.028 444.682 239.631C440.322 240.801 435.641 237.085 433.048 233.941C430.076 230.304 428.306 225.772 426.826 221.359C423.019 210.03 419.411 198.626 415.707 187.267C413.823 181.52 411.959 175.777 410.075 170.03C408.847 166.269 407.497 162.462 406.835 158.556C405.645 155.596 404.993 152.287 406.718 149.427C407.428 148.262 408.457 147.316 409.625 146.707C409.894 146.281 410.282 145.967 410.782 145.785C411.288 145.618 411.798 145.531 412.286 145.505C412.54 145.404 412.787 145.29 413.059 145.23C415.685 144.563 417.927 146.231 419.408 148.236C421.306 150.816 422.648 153.925 424.168 156.732C427.318 162.513 430.224 168.956 435.08 173.561C439.005 177.274 445.261 179.858 450.417 177.097C452.982 175.723 455.482 179.528 452.904 180.909L452.91 180.909Z" fill="#DA0081"/>
<path d="M450.465 176.226C439.472 175.402 432.82 164.525 427.835 156.027C425.151 151.451 422.499 145.592 417.927 142.577C413.775 139.84 408.493 141.08 405.225 144.603C401.82 148.277 401.504 153.607 402.584 158.276C403.956 164.207 407.741 169.345 410.07 174.909C414.867 186.374 416.814 198.726 420.609 210.511C424.323 222.043 430.054 233.573 440.085 240.849C442.433 242.551 445.5 239.198 443.132 237.482C424.899 224.254 423.341 199.659 416.79 179.953C414.956 174.434 412.492 169.324 409.819 164.177C407.634 159.965 405.282 154.623 407.202 149.862C407.963 147.974 409.568 146.357 411.554 145.793C413.759 145.167 415.59 146.194 417.083 147.795C420.83 151.814 423.246 157.314 426.087 161.971C431.679 171.131 439.374 179.919 450.748 180.774C451.982 180.866 452.929 179.473 452.873 178.366C452.804 177.004 451.681 176.324 450.465 176.233L450.465 176.226Z" fill="#200020"/>
<path d="M296.412 160.067C288.697 161.541 266.333 168.552 260.035 180.317C251.739 195.811 254.774 209.705 249.358 214.322C243.944 218.941 240.946 222.436 240.946 222.436C240.946 222.436 251.35 264.762 268.82 268.021C286.289 271.28 290.806 268.341 290.806 268.341C290.806 268.341 300.092 272.709 302.718 281.336C305.345 289.965 304.449 298.637 305.645 298.503C306.843 298.368 338.061 297.771 337.443 295.534C336.825 293.296 333.148 205.746 333.148 205.746L296.411 160.064L296.412 160.067Z" fill="#DA0081"/>
<path d="M285.828 165.136C285.579 165.318 285.407 165.415 285.222 165.484C283.784 166.051 282.365 166.659 280.978 167.337C277.353 169.086 273.932 171.208 270.768 173.697C263.348 179.531 257.501 187.632 255.704 197.027C254.687 202.382 254.709 207.892 252.598 213.018C250.615 217.801 246.797 221.764 242.201 224.08C239.625 225.393 237.111 221.594 239.715 220.268C245.467 217.381 248.744 212.332 249.846 206.083C250.801 200.774 251.013 195.472 252.857 190.353C254.488 185.817 256.971 181.638 260.007 177.902C265.747 170.857 273.419 165.574 281.736 161.999C282.031 161.879 282.305 161.751 282.606 161.645C282.997 161.481 283.388 161.316 283.785 161.165C284.928 160.718 285.862 161.221 286.326 162.042C286.875 163.008 286.829 164.384 285.826 165.133L285.828 165.136Z" fill="#200020"/>
<path d="M307.413 259.778C307.829 261.357 307.162 262.436 305.82 263.209C304.153 264.183 302.291 264.914 300.542 265.709C298.457 266.643 296.353 267.536 294.231 268.353C292.738 268.946 291.232 269.511 289.705 270.036L289.192 270.224C283.161 272.287 277.254 272.755 271.096 270.844C265.484 269.101 260.007 266.289 255.867 262.041C251.2 257.268 248.896 251.01 246.591 244.857C244.014 238.01 241.436 231.161 238.857 224.312C237.831 221.561 242.144 220.145 243.164 222.882C246 230.43 248.835 237.977 251.685 245.519C254.258 252.321 257.314 258.51 263.642 262.515C269.111 265.963 276.013 268.465 282.532 267.346C284.172 267.069 285.81 266.61 287.41 266.068L291.666 264.494C292.186 264.286 292.707 264.078 293.227 263.87C295.083 263.126 296.927 262.354 298.751 261.541C299.677 261.128 300.589 260.721 301.488 260.287C301.996 260.051 302.49 259.822 302.991 259.573C303.184 259.45 303.329 259.366 303.439 259.315C304.412 257.927 306.863 257.709 307.407 259.78L307.413 259.778Z" fill="#200020"/>
<path d="M303.909 295.686C301.134 296.606 299.698 292.29 302.473 291.37C304.182 290.811 302.799 286.718 302.469 285.684C301.573 282.889 300.103 280.261 298.179 278.057C295.608 275.104 292.159 272.992 289.702 270.033C288.746 268.871 287.949 267.586 287.41 266.064L291.666 264.49C292.199 265.998 293.126 267.24 294.225 268.352C295.351 269.484 296.664 270.48 297.875 271.507C300.521 273.723 302.867 276.263 304.577 279.301C306.938 283.489 310.75 293.428 303.905 295.685L303.909 295.686Z" fill="#200020"/>
<path d="M264.341 203.453C264.123 203.119 263.835 202.858 263.479 202.672C262.737 202.288 261.899 202.366 261.196 202.785C260.852 202.992 260.553 203.261 260.252 203.525C260.086 203.672 259.93 203.831 259.79 204.003C259.401 204.488 259.045 205.021 258.827 205.607C258.683 205.988 258.534 206.378 258.456 206.779C258.379 207.179 258.355 207.595 258.341 208.003C258.318 208.622 258.441 209.268 258.631 209.851C258.81 210.394 259.239 210.894 259.747 211.156C260.023 211.312 260.315 211.387 260.627 211.383C260.926 211.431 261.219 211.402 261.509 211.294C262.047 211.088 262.562 210.722 262.81 210.179C263.198 209.751 263.497 209.339 263.779 208.91C264.093 208.43 264.278 207.903 264.464 207.362C264.587 207 264.669 206.631 264.705 206.25C264.758 205.68 264.799 205.123 264.71 204.556C264.682 204.157 264.561 203.789 264.344 203.451L264.341 203.453Z" fill="#200020"/>
<path d="M278.852 195.377C274.69 190.707 268.501 188.109 262.292 188.121C261.103 188.125 260.04 189.357 260.167 190.529C260.303 191.813 261.301 192.664 262.575 192.662C262.915 192.661 263.252 192.668 263.591 192.681C263.922 192.705 264.051 192.716 264.182 192.732C264.854 192.808 265.521 192.916 266.185 193.059C266.846 193.204 267.502 193.381 268.143 193.592C269.016 193.919 269.327 194.052 269.635 194.19C270.252 194.469 270.856 194.781 271.441 195.121C271.706 195.276 271.971 195.437 272.229 195.605C272.34 195.677 272.45 195.75 272.562 195.825C273.903 196.811 274.904 197.731 275.806 198.747C276.6 199.639 278.286 199.469 279.013 198.593C279.868 197.56 279.701 196.33 278.853 195.38L278.852 195.377Z" fill="#200020"/>
<path d="M255.17 238.079C254.199 237.273 252.842 237.317 251.963 238.233C250.039 240.24 248.692 242.671 247.857 245.312C247.693 245.836 247.891 246.58 248.178 247.026C248.482 247.493 249.055 247.916 249.613 248.012C250.194 248.107 250.83 248.046 251.32 247.694C251.836 247.325 252.109 246.863 252.302 246.259C252.751 245.034 253.301 243.963 253.966 242.959C254.386 242.376 254.832 241.814 255.329 241.296C256.152 240.439 256.094 238.854 255.169 238.083L255.17 238.079Z" fill="#200020"/>
<path d="M315.295 220.362C314.462 230.282 303.239 240.507 293.138 236.028C290.47 234.842 292.547 230.802 295.216 231.988C298.955 233.647 303.404 231.548 306.139 228.924C308.867 226.321 310.925 222.704 310.844 218.829C310.753 215.076 308.75 211.37 305.634 209.255C302.531 207.134 298.563 206.885 295.071 208.172C294.373 208.429 293.652 208.78 292.942 209.227C291.632 210.035 290.41 211.138 289.662 212.438C289.056 213.504 288.759 214.696 288.98 215.964C289.197 217.185 287.98 218.301 286.861 218.369C285.531 218.451 284.666 217.448 284.456 216.241C283.924 213.228 285.132 210.44 287.138 208.221C288.152 207.099 289.364 206.118 290.66 205.316C291.997 204.495 293.409 203.873 294.767 203.494C299.867 202.047 305.36 203.059 309.47 206.489C313.479 209.845 315.735 215.138 315.291 220.36L315.295 220.362Z" fill="#200020"/>
<path d="M302.941 213.992C302.257 213.036 300.818 212.573 299.797 213.328C295.936 216.17 292.312 219.343 288.996 222.808C288.174 223.668 288.232 225.25 289.157 226.021C290.125 226.829 291.485 226.783 292.364 225.867C295.535 222.552 298.643 219.819 302.283 217.14C303.24 216.435 303.683 215.032 302.941 213.992Z" fill="#200020"/>
<path d="M362.765 480.385C353.639 500.675 399.979 674.08 406.309 674.099C412.638 674.118 503.331 649.775 564.389 614.255C625.448 578.735 635.818 562.937 635.827 556.595C635.834 550.255 560.744 420.894 514.804 410.246C485.052 403.35 461.377 417.719 443.694 425.925C426.011 434.132 371.894 460.093 362.765 480.385Z" fill="#200020"/>
<path d="M464.308 277.317L427.845 241.427C426.948 240.545 425.511 240.56 424.634 241.452C423.756 242.348 423.771 243.789 424.666 244.668L461.129 280.558C461.823 281.242 462.845 281.387 463.676 281.001C463.918 280.889 464.143 280.734 464.339 280.533C465.218 279.637 465.203 278.196 464.308 277.317Z" fill="#200020"/>
<path d="M537.219 296.683C537.415 298.364 537.612 300.045 537.822 301.72C538.259 305.43 538.683 309.145 539.108 312.864C542 338.833 544.257 364.862 545.879 390.932C545.97 392.495 546.069 394.038 546.162 395.603C544.659 395.347 543.11 395.029 541.542 394.67C540.385 394.405 539.215 394.112 538.019 393.797C531.734 392.116 526.043 390.46 521.012 388.929C524.703 397.168 527.934 407.293 522.507 414.761C518.977 419.626 512.687 422.143 507.52 424.809C501.453 427.943 495.298 430.933 489.129 433.846C464.295 445.505 438.78 455.658 414.068 467.578C402.141 473.33 390.541 479.751 378.454 485.159C372.522 487.829 366.458 490.225 360.23 492.112C357.054 493.068 353.848 493.887 350.611 494.537C347.73 495.121 344.714 495.818 341.76 495.634C335.836 495.274 331.381 490.232 327.662 486.106C323.42 481.386 319.717 476.246 316.208 470.986C314.246 468.051 312.311 465.104 310.374 462.153C309.917 464.222 309.405 466.318 308.858 468.408C308.471 469.875 308.071 471.348 307.643 472.834C307.194 472.658 306.725 472.474 306.263 472.304C305.352 471.958 304.427 471.618 303.508 471.292C295.193 468.225 286.781 465.408 278.55 462.155C269.07 458.409 259.718 454.322 250.533 449.92C237.654 443.738 225.1 436.921 212.906 429.484C211.315 428.534 209.744 427.558 208.187 426.575C208.089 424.781 207.978 422.926 207.883 421.031C206.392 393.158 204.939 356.707 206.502 340.813C209.299 312.154 226.049 291.954 250.21 288.118C263.803 285.956 281.901 287.859 293.868 289.128C299.141 289.673 304.113 290.208 305.352 289.968C305.992 289.838 306.624 290.013 307.122 290.367C313.691 290.177 320.246 289.71 326.776 288.903C350.527 285.943 373.738 278.732 394.975 267.74C395.117 267.256 395.414 266.817 395.856 266.512C399.778 263.822 426.064 252.994 456.559 266.185C475.905 274.549 509.823 286.922 532.428 294.977C534.09 295.577 535.706 296.148 537.221 296.682L537.219 296.683Z" fill="#ECE7F5"/>
<path d="M524.998 385.822C512.644 367.351 499.528 349.398 485.692 332.013C483.882 329.736 480.065 332.2 481.89 334.493C495.727 351.881 508.841 369.832 521.196 388.302C522.826 390.736 526.631 388.261 524.998 385.822Z" fill="#DA0081"/>
<path d="M488.84 331.762C490.217 338.215 490.055 345.347 486.701 351.201C485.967 352.494 485.087 353.689 484.108 354.778C482.753 357.213 481.031 359.433 478.945 361.304C479.583 365.339 479.514 369.504 478.838 373.58C476.444 387.836 466.55 400.521 453.673 406.848C443.109 412.052 430.832 412.917 419.643 409.579C419.534 409.847 419.35 410.1 419.079 410.342C413.925 414.941 408.226 418.84 401.796 421.407C392.047 425.312 380.78 425.622 371.215 420.932C361.799 416.32 356.927 407.395 353.066 398.148C349.444 400.983 344.666 402.013 340.026 401.575C333.731 400.985 328.413 397.547 324.521 392.682C316.52 382.665 315.184 368.25 314.922 355.928C314.637 342.413 316.034 328.921 315.729 315.398C315.368 299.628 313.283 283.922 309.569 268.588C307.748 261.036 305.507 253.583 302.908 246.258C301.821 243.234 299.846 240.523 299.018 237.409C297.855 232.999 300.673 233.932 303.953 232.761C307.168 231.604 310.041 229.384 311.905 226.496C316.621 219.191 314.565 208.069 305.663 205.175C301.113 203.708 296.704 205.103 293.037 207.875C290.421 209.858 289.193 211.882 287.142 208.219C286.949 207.874 286.769 207.523 286.589 207.172C286.399 206.942 286.285 206.694 286.225 206.421C280.43 194.51 279.42 180.763 280.978 167.33C281.184 165.545 281.437 163.756 281.737 161.995C282.032 161.875 282.306 161.747 282.607 161.641C282.774 161.497 282.967 161.374 283.207 161.279C284.357 160.812 285.514 160.393 286.703 160.008C293.805 157.631 301.349 156.521 308.851 156.722C316.906 156.929 324.914 158.516 332.431 161.381C331.921 159.528 331.827 157.565 332.193 155.657C332.39 154.645 333.29 153.96 334.275 153.854C335.185 153.767 336.384 154.481 336.567 155.416C336.853 156.821 337.145 158.241 337.43 159.647C338.129 158.888 338.88 158.171 339.691 157.511C340.384 156.955 341.531 157.091 342.202 157.566C343.018 158.14 343.232 158.96 343.145 159.887C342.974 161.889 342.331 163.81 341.348 165.537C344.855 167.487 348.184 169.738 351.296 172.31C358.405 178.176 364.195 185.622 367.845 194.097C369.37 197.636 370.528 201.316 371.528 205.015C379.395 216.9 387.373 228.701 395.921 240.103C413.799 263.999 434.522 286.508 460.072 302.312C463.161 304.223 466.313 306.021 469.526 307.726C472.622 309.366 475.752 311.007 478.487 313.235C484.083 317.781 487.366 324.818 488.837 331.763L488.84 331.762Z" fill="#200020"/>
<path d="M307.638 472.837C301.445 494.107 290.455 515.68 270.018 526.352C268.746 527.026 267.496 527.639 266.247 528.219C228.983 545.513 202.943 525.204 193.218 509.964C182.49 493.136 155.449 442.166 155.176 441.657C154.591 440.54 155.002 439.162 156.116 438.579C157.249 438.003 158.592 438.416 159.191 439.526C159.461 440.036 186.41 490.846 197.049 507.517C206.253 521.959 231.555 541.323 267.913 522.326C287.285 512.198 297.646 491.787 303.499 471.293C304.418 471.619 305.343 471.959 306.254 472.306C306.716 472.475 307.185 472.659 307.634 472.835L307.638 472.837Z" fill="#200020"/>
<path d="M212.902 429.487C213.805 445.089 214.591 456.348 214.609 456.674C214.67 457.632 214.124 458.504 213.301 458.887C213.054 459.001 212.787 459.075 212.496 459.093C211.247 459.171 210.163 458.236 210.077 456.972C209.986 455.626 209.103 443.158 208.183 426.577C209.74 427.56 211.31 428.537 212.902 429.487Z" fill="#200020"/>
<path d="M615.893 306.646C630.383 335.997 616.148 373.225 599.473 383.99C595.872 386.33 591.986 388.602 587.732 390.576C576.875 395.615 563.581 398.674 546.159 395.604C546.068 394.041 545.969 392.499 545.876 390.933C569.084 395.365 584.167 388.465 597.013 380.163C612.306 370.273 625.276 335.889 611.825 308.668C597.381 279.449 560.262 257.557 530.335 246.811C496.706 234.739 483.675 221.07 482.63 216.338C482.359 215.109 483.138 213.912 484.351 213.65C485.571 213.368 486.781 214.144 487.065 215.367C487.5 217.238 497.578 230.221 531.864 242.523C562.616 253.572 600.85 276.214 615.891 306.647L615.893 306.646Z" fill="#200020"/>
<path d="M315.656 420.811C312.078 437.841 307.738 454.702 302.646 471.338C301.789 474.133 306.24 475.057 307.093 472.28C312.185 455.645 316.526 438.786 320.102 421.754C320.704 418.889 316.259 417.943 315.657 420.814L315.656 420.811Z" fill="#DA0081"/>
<path d="M173.429 260.127L83.9048 220.985C78.2134 218.496 71.5945 221.096 69.1211 226.792L30.2157 316.387C27.7423 322.083 30.351 328.717 36.0424 331.206L125.566 370.348C131.258 372.836 137.876 370.236 140.35 364.54L179.255 274.946C181.729 269.25 179.12 262.615 173.429 260.127Z" fill="#ECE7F5"/>
<path d="M126.213 335.076L111.327 323.118L104.541 338.747L94.3778 330.67L101.164 315.04L92.972 308.572L86.1859 324.202L76.1528 316.074L82.8999 300.533L69.2044 289.523L74.3526 277.667L88.0481 288.676L92.2621 278.976L78.5666 267.966L83.7148 256.11L97.4103 267.12L104.196 251.49L114.267 259.527L107.481 275.157L115.634 281.713L122.42 266.083L132.583 274.161L125.797 289.79L140.721 301.658L135.573 313.514L120.649 301.647L116.435 311.347L131.359 323.215L126.211 335.071L126.213 335.076ZM106.315 303.183L110.487 293.572L102.334 287.016L98.1202 296.716L106.312 303.184L106.315 303.183Z" fill="#DA0081"/>
<path d="M187.573 368.632C183.436 363.994 178.889 359.801 173.666 356.389C169.118 353.417 164.178 351.075 159.169 348.985C147.88 344.289 135.789 340.805 125.736 333.596C123.62 331.518 121.568 329.36 119.432 327.272C116.124 324.025 112.149 321.067 107.416 320.472C104.047 320.032 100.501 320.628 97.8037 322.622C96.6228 322.234 95.2374 322.663 95.0522 324.24C94.0321 333.06 98.0118 340.644 105.059 345.78C106.984 347.184 108.93 348.558 110.882 349.926C115.034 355.149 119.971 359.656 125.532 363.308C127.005 366.116 127.377 369.893 124.187 371.557C121.602 372.924 124.102 376.73 126.659 375.376C127.133 375.139 127.548 374.846 127.936 374.532C139.756 380.336 151.651 385.952 163.652 391.354C169.322 393.906 175.122 397.053 181.174 398.591C186.458 399.951 192.929 399.189 196.373 394.464C202.806 385.642 193.217 374.941 187.569 368.63L187.573 368.632Z" fill="#DA0081"/>
<path d="M209.706 388.935C201.565 378.933 193.319 368.842 183.376 360.555C178.497 356.489 173.196 352.852 167.492 350.049C161.403 347.056 154.86 345.284 148.504 342.98C142.148 340.676 136.433 337.46 131.038 333.396C125.678 329.359 120.629 324.884 115.014 321.2C109.842 317.805 103.012 315.58 97.3005 319.071C92.4224 322.05 91.2931 328.35 92.7641 333.539C93.8214 337.262 96.292 340.429 98.8997 343.202C101.816 346.302 104.994 349.175 108.061 352.125C111.092 355.04 114.122 357.954 117.152 360.868C118.735 362.387 120.359 363.874 121.898 365.437C122.232 365.777 124.769 368.813 123.07 368.846C120.148 368.904 120.431 373.445 123.352 373.387C126.073 373.334 128.019 370.943 128.129 368.314C128.268 365.012 125.581 362.671 123.408 360.583C117.972 355.354 112.534 350.127 107.098 344.898C102.623 340.594 96.4539 335.639 96.6749 328.791C96.8928 322.009 103.825 320.674 109.083 323.069C114.923 325.727 119.883 330.434 124.885 334.369C130.08 338.456 135.461 342.382 141.53 345.073C147.575 347.755 154.003 349.394 160.152 351.79C165.967 354.057 171.44 357.132 176.45 360.863C187.853 369.362 196.981 380.448 205.904 391.416C207.735 393.666 211.554 391.207 209.706 388.935Z" fill="#200020"/>
</g>
<defs>
<clipPath id="clip0_8926_193571">
<rect width="539.148" height="596.331" fill="white" transform="translate(-15.1953 227.515) rotate(-24.8958)"/>
</clipPath>
</defs>
</svg>
