<svg width="93" height="147" viewBox="0 0 93 147" fill="none" xmlns="http://www.w3.org/2000/svg">
<g clip-path="url(#clip0_8974_192675)">
<path d="M70.6197 106.475C68.403 92.5665 59.4305 75.0919 45.0848 59.0711C30.7439 43.0495 14.3603 32.2023 0.76965 28.4558L-7.70678 18.9858L-21.3258 31.168C-34.0342 42.5312 -24.9064 73.4438 -0.939754 100.215C23.0316 126.986 52.7671 139.481 65.4755 128.118L79.0953 115.94L70.6189 106.47L70.6197 106.475Z" fill="#ECE7F5" fill-opacity="0.333333"/>
<path d="M57.6161 134.401C51.4695 135.481 43.9465 134.262 35.5407 130.731C22.6693 125.323 9.06166 115.066 -2.76896 101.851C-14.5996 88.6354 -23.2865 73.9923 -27.2358 60.6097C-31.3705 46.6102 -29.8498 35.5044 -22.9586 29.3436L-9.33882 17.1661C-8.32762 16.2621 -6.77619 16.3504 -5.87254 17.3558L2.12998 26.2933C16.6602 30.5097 32.9379 41.823 46.9183 57.4365C60.8986 73.05 70.3439 90.4752 72.9262 105.368L80.9288 114.305C81.361 114.792 81.5878 115.426 81.5482 116.078C81.5133 116.728 81.2199 117.333 80.7332 117.77L67.1134 129.947C64.5208 132.265 61.32 133.75 57.6161 134.401ZM-7.89471 22.4545L-19.6879 32.9978C-25.0897 37.8241 -26.0972 47.1368 -22.5302 59.2203C-18.7778 71.9206 -10.4622 85.9025 0.89449 98.5853C12.2512 111.268 25.2321 121.082 37.4477 126.21C49.0664 131.092 58.4416 131.124 63.8427 126.293L75.6358 115.75L68.7952 108.109C68.4835 107.76 68.277 107.325 68.2005 106.862C65.9788 92.9257 56.6551 75.6716 43.2611 60.7104C29.8672 45.7491 13.7388 34.5732 0.123996 30.8262C-0.331613 30.6994 -0.73684 30.4483 -1.05325 30.0997L-7.89389 22.4591L-7.89471 22.4545Z" fill="#DA0081"/>
<path d="M79.0964 115.952C91.8075 104.591 82.682 73.6756 58.714 46.9011C34.746 20.1267 5.01173 7.63207 -7.69936 18.9936C-20.4105 30.3551 -11.285 61.2704 12.683 88.0448C36.651 114.819 66.3853 127.314 79.0964 115.952Z" fill="#ECE7F5"/>
<path d="M71.2393 122.222C65.0926 123.302 57.5697 122.083 49.1638 118.552C36.2925 113.144 22.6848 102.887 10.855 89.6763C-0.974797 76.4656 -9.66807 61.814 -13.6173 48.4314C-17.752 34.432 -16.2313 23.3262 -9.34017 17.1654C-2.44517 10.9992 8.76347 10.7237 22.2326 16.3821C35.1039 21.7895 48.7116 32.0468 60.5422 45.2621C72.3728 58.4774 81.0653 73.1243 85.0145 86.5069C89.1492 100.506 87.6285 111.612 80.7374 117.773C78.1448 120.09 74.9439 121.576 71.2401 122.227L71.2393 122.222ZM1.05064 17.5243C-1.76579 18.019 -4.16304 19.1184 -6.06941 20.8195C-11.4713 25.6459 -12.4788 34.9585 -8.91177 47.042C-5.15938 59.7424 3.15625 73.7242 14.513 86.407C25.8697 99.0898 38.8506 108.904 51.0662 114.032C62.6848 118.914 72.0601 118.946 77.4619 114.12C82.8638 109.293 83.8713 99.9806 80.3043 87.8971C76.5519 75.1968 68.2363 61.2149 56.8796 48.5321C45.5229 35.8493 32.5419 26.0353 20.3263 20.9071C12.8038 17.7449 6.2211 16.6161 1.04597 17.5251L1.05064 17.5243Z" fill="#DA0081"/>
<path d="M14.4928 48.9149L8.35825 42.0595L13.8723 37.1317L20.0068 43.987L14.4928 48.9149ZM53.7985 87.1933C51.7057 89.0667 49.3414 90.1892 46.7166 90.5685C44.087 90.9486 41.353 90.5966 38.5161 89.5218C35.6783 88.4423 32.8906 86.6613 30.1523 84.1741L34.5515 78.0806C36.9256 80.0016 39.2958 81.1055 41.6574 81.393C44.0191 81.6806 46.0115 81.0997 47.6347 79.6503C49.1619 78.2852 49.9774 76.6506 50.0802 74.7419C50.1831 72.8332 49.5721 71.1365 48.2426 69.6526C47.3381 68.6425 46.3745 68.0083 45.3454 67.7417C44.3172 67.4797 43.1507 67.5547 41.8461 67.9667L31.8205 71.2768C26.0412 73.1868 20.7561 71.4692 15.9645 66.1195C13.7124 63.6045 12.185 61.0489 11.3768 58.4488C10.5685 55.8486 10.4918 53.3557 11.1417 50.9708C11.7925 48.5906 13.1815 46.4656 15.3094 44.6005C17.2759 42.9129 19.4319 41.8655 21.7744 41.4684C24.1169 41.0714 26.5904 41.3104 29.191 42.191C31.7916 43.0716 34.4638 44.5794 37.2086 46.7191L32.8136 53.2208C31.5315 52.1711 30.2238 51.4146 28.8858 50.9521C27.5479 50.4895 26.2594 50.3358 25.0259 50.4948C23.7923 50.6537 22.6964 51.1301 21.7287 51.9254C20.8028 52.6846 20.1572 53.587 19.792 54.6325C19.4267 55.6781 19.3502 56.7499 19.5662 57.8425C19.7775 58.9359 20.2897 59.9332 21.0872 60.8274C21.9735 61.8167 23.035 62.4048 24.266 62.5878C25.5017 62.77 26.9966 62.5363 28.7515 61.8913L35.7384 59.3459C39.2585 58.0877 42.3881 57.841 45.1328 58.6097C47.8774 59.3784 50.5683 61.239 53.2101 64.1905C55.5284 66.7804 57.0991 69.4728 57.9223 72.2676C58.7454 75.0624 58.8193 77.7578 58.1391 80.3549C57.459 82.9519 56.0161 85.2355 53.8142 87.2002L53.7985 87.1933ZM55.35 94.5459L49.2155 87.6905L54.7295 82.7626L60.8641 89.618L55.35 94.5459Z" fill="#DA0081"/>
</g>
<defs>
<clipPath id="clip0_8974_192675">
<rect width="106.889" height="129.794" fill="white" transform="translate(-34.9805 18.8838) rotate(-9.96276)"/>
</clipPath>
</defs>
</svg>
