<svg xmlns="http://www.w3.org/2000/svg" xmlns:xlink="http://www.w3.org/1999/xlink" width="1200" zoomAndPan="magnify" viewBox="0 0 900 60" height="80" preserveAspectRatio="xMidYMid meet" version="1.2"><defs><clipPath id="daa2e421ae"><path d="M 674.402344 36.386719 L 693 36.386719 L 693 53.636719 L 674.402344 53.636719 Z M 674.402344 36.386719 "/></clipPath><clipPath id="e33f94614c"><path d="M 353.34375 0 L 685.59375 0 L 685.59375 60 L 353.34375 60 Z M 353.34375 0 "/></clipPath><clipPath id="78addd0709"><path d="M 0 0 L 449.613281 0 L 449.613281 60 L 0 60 Z M 0 0 "/></clipPath><clipPath id="43ba4f55d6"><path d="M 693.472656 7 L 723 7 L 723 36 L 693.472656 36 Z M 693.472656 7 "/></clipPath><clipPath id="fe97dc5dd8"><path d="M 724 6 L 753.472656 6 L 753.472656 35 L 724 35 Z M 724 6 "/></clipPath><clipPath id="9c0612b03f"><path d="M 719 33 L 725 33 L 725 41.25 L 719 41.25 Z M 719 33 "/></clipPath></defs><g id="9ac6a62e93"><g clip-rule="nonzero" clip-path="url(#daa2e421ae)"><path style=" stroke:none;fill-rule:nonzero;fill:#200020;fill-opacity:1;" d="M 683.539062 52.875 L 692.625 40.351562 C 693.476562 39.179688 692.691406 37.527344 691.238281 37.441406 L 676.363281 36.566406 C 674.992188 36.484375 674.019531 37.871094 674.5625 39.125 L 680.355469 52.523438 C 680.917969 53.832031 682.699219 54.027344 683.535156 52.875 Z M 683.539062 52.875 "/></g><g clip-rule="nonzero" clip-path="url(#e33f94614c)"><path style=" stroke:none;fill-rule:nonzero;fill:#200020;fill-opacity:1;" d="M 353.371094 -1.367188 L 663.289062 -1.367188 L 685.570312 60.132812 L 353.371094 60.132812 Z M 353.371094 -1.367188 "/></g><g clip-rule="nonzero" clip-path="url(#78addd0709)"><path style=" stroke:none;fill-rule:nonzero;fill:#200020;fill-opacity:1;" d="M -28.117188 -14.152344 L 417.558594 -14.152344 L 449.59375 74.347656 L -28.117188 74.347656 Z M -28.117188 -14.152344 "/></g><g clip-rule="nonzero" clip-path="url(#43ba4f55d6)"><path style="fill:none;stroke-width:10;stroke-linecap:round;stroke-linejoin:round;stroke:#f975ca;stroke-opacity:1;stroke-miterlimit:4;" d="M 47.127688 92.649229 C 70.275085 92.649229 89.045659 73.863888 89.045659 50.681706 C 89.045659 27.499524 70.275085 8.701438 47.127688 8.701438 C 23.980291 8.701438 5.222477 27.499524 5.222477 50.681706 C 5.222477 73.863888 23.980291 92.649229 47.127688 92.649229 Z M 47.127688 92.649229 " transform="matrix(0.306122,0,0,0.306506,693.471595,6.000929)"/></g><g clip-rule="nonzero" clip-path="url(#fe97dc5dd8)"><path style="fill:none;stroke-width:10;stroke-linecap:round;stroke-linejoin:round;stroke:#f975ca;stroke-opacity:1;stroke-miterlimit:4;" d="M 148.611287 89.424879 C 171.758684 89.424879 190.529258 70.626793 190.529258 47.457356 C 190.529258 24.275174 171.758684 5.477089 148.611287 5.477089 C 125.46389 5.477089 106.706076 24.275174 106.706076 47.457356 C 106.706076 70.626793 125.46389 89.424879 148.611287 89.424879 Z M 148.611287 89.424879 " transform="matrix(0.306122,0,0,0.306506,693.471595,6.000929)"/></g><path style=" stroke:none;fill-rule:nonzero;fill:#200020;fill-opacity:1;" d="M 710.035156 23.996094 C 711.792969 23.9375 713.164062 22.144531 713.09375 19.988281 C 713.027344 17.832031 711.546875 16.128906 709.789062 16.183594 C 708.03125 16.238281 706.664062 18.035156 706.730469 20.191406 C 706.800781 22.347656 708.28125 24.050781 710.035156 23.996094 Z M 710.035156 23.996094 "/><path style=" stroke:none;fill-rule:nonzero;fill:#200020;fill-opacity:1;" d="M 709.378906 17.417969 L 708.503906 19.4375 C 708.441406 19.578125 708.289062 19.660156 708.070312 19.652344 C 708.019531 19.652344 707.949219 19.640625 707.90625 19.636719 C 707.855469 19.628906 707.808594 19.617188 707.761719 19.601562 C 707.710938 19.582031 707.660156 19.5625 707.613281 19.539062 C 707.589844 19.527344 707.5625 19.511719 707.539062 19.5 C 707.519531 19.484375 707.496094 19.472656 707.480469 19.457031 C 706.988281 19.078125 706.625 18.722656 706.261719 18.359375 C 706.148438 18.242188 706.03125 18.128906 705.921875 18.007812 C 705.546875 17.613281 705.191406 17.21875 704.84375 16.816406 C 704.632812 16.578125 704.65625 16.214844 704.886719 16.015625 L 706.582031 14.605469 C 706.8125 14.40625 707.152344 14.425781 707.339844 14.644531 C 707.65625 15.011719 707.984375 15.375 708.3125 15.71875 L 708.609375 16.023438 C 708.90625 16.324219 709.222656 16.617188 709.46875 16.808594 C 709.480469 16.816406 709.488281 16.824219 709.5 16.835938 C 709.503906 16.84375 709.511719 16.851562 709.515625 16.855469 C 709.527344 16.871094 709.53125 16.890625 709.539062 16.910156 C 709.542969 16.933594 709.546875 16.957031 709.550781 16.980469 C 709.554688 17.011719 709.535156 17.019531 709.527344 17.042969 C 709.507812 17.089844 709.484375 17.144531 709.460938 17.207031 C 709.441406 17.257812 709.421875 17.308594 709.398438 17.359375 C 709.390625 17.378906 709.382812 17.398438 709.375 17.417969 Z M 709.378906 17.417969 "/><path style=" stroke:none;fill-rule:nonzero;fill:#200020;fill-opacity:1;" d="M 740.136719 23.035156 C 741.894531 22.980469 743.261719 21.183594 743.195312 19.027344 C 743.125 16.871094 741.644531 15.167969 739.890625 15.222656 C 738.132812 15.277344 736.765625 17.074219 736.832031 19.230469 C 736.902344 21.386719 738.378906 23.089844 740.136719 23.035156 Z M 740.136719 23.035156 "/><path style=" stroke:none;fill-rule:nonzero;fill:#200020;fill-opacity:1;" d="M 741.375 18.390625 L 740.375 16.433594 C 740.367188 16.414062 740.355469 16.390625 740.347656 16.375 C 740.324219 16.324219 740.300781 16.277344 740.277344 16.230469 C 740.25 16.167969 740.222656 16.113281 740.199219 16.070312 C 740.191406 16.046875 740.171875 16.039062 740.171875 16.007812 C 740.171875 15.984375 740.175781 15.957031 740.179688 15.9375 C 740.179688 15.917969 740.1875 15.898438 740.199219 15.882812 C 740.203125 15.875 740.207031 15.867188 740.214844 15.859375 C 740.222656 15.851562 740.230469 15.839844 740.242188 15.832031 C 740.480469 15.625 740.777344 15.308594 741.054688 14.992188 L 741.328125 14.667969 C 741.632812 14.304688 741.933594 13.921875 742.230469 13.535156 C 742.40625 13.304688 742.742188 13.261719 742.984375 13.445312 L 744.765625 14.746094 C 745.007812 14.929688 745.054688 15.289062 744.859375 15.542969 C 744.535156 15.964844 744.207031 16.382812 743.859375 16.800781 C 743.757812 16.925781 743.648438 17.050781 743.539062 17.171875 C 743.203125 17.558594 742.863281 17.933594 742.398438 18.34375 C 742.378906 18.359375 742.359375 18.375 742.339844 18.386719 C 742.316406 18.402344 742.292969 18.417969 742.269531 18.433594 C 742.222656 18.460938 742.175781 18.484375 742.128906 18.503906 C 742.078125 18.523438 742.03125 18.539062 741.984375 18.550781 C 741.945312 18.558594 741.875 18.574219 741.824219 18.578125 C 741.605469 18.59375 741.445312 18.523438 741.375 18.386719 Z M 741.375 18.390625 "/><path style="fill:none;stroke-width:8;stroke-linecap:round;stroke-linejoin:round;stroke:#f975ca;stroke-opacity:1;stroke-miterlimit:4;" d="M 92.031596 44.577107 L 104.000868 44.207518 " transform="matrix(0.306122,0,0,0.306506,693.471595,6.000929)"/><g clip-rule="nonzero" clip-path="url(#9c0612b03f)"><path style=" stroke:none;fill-rule:nonzero;fill:#200020;fill-opacity:1;" d="M 719.132812 35.347656 C 719.132812 35.347656 719.742188 41.910156 722.683594 40.925781 C 725.625 39.9375 724.929688 34.648438 723.957031 33.949219 C 722.984375 33.25 718.3125 33.71875 719.132812 35.351562 Z M 719.132812 35.347656 "/></g></g></svg>