<svg xmlns="http://www.w3.org/2000/svg" xmlns:xlink="http://www.w3.org/1999/xlink" width="768" zoomAndPan="magnify" viewBox="0 0 576 74.999997" height="100" preserveAspectRatio="xMidYMid meet" version="1.2"><defs><clipPath id="04cedcf4cc"><path d="M 292.792969 46.320312 L 316 46.320312 L 316 67.320312 L 292.792969 67.320312 Z M 292.792969 46.320312 "/></clipPath><clipPath id="eefbfce44c"><path d="M 0 0 L 311.746094 0 L 311.746094 75 L 0 75 Z M 0 0 "/></clipPath><clipPath id="2a59a6c4cb"><path d="M 315.722656 8 L 352 8 L 352 45 L 315.722656 45 Z M 315.722656 8 "/></clipPath><clipPath id="6c59c67054"><path d="M 354 7.195312 L 390.722656 7.195312 L 390.722656 44 L 354 44 Z M 354 7.195312 "/></clipPath><clipPath id="1f48ab95a7"><path d="M 347 41 L 355 41 L 355 51.445312 L 347 51.445312 Z M 347 41 "/></clipPath></defs><g id="ffa3bceecc"><g clip-rule="nonzero" clip-path="url(#04cedcf4cc)"><path style=" stroke:none;fill-rule:nonzero;fill:#200020;fill-opacity:1;" d="M 304.121094 66.398438 L 315.390625 51.152344 C 316.445312 49.722656 315.472656 47.714844 313.671875 47.609375 L 295.226562 46.542969 C 293.527344 46.445312 292.320312 48.128906 292.992188 49.660156 L 300.175781 65.96875 C 300.875 67.5625 303.082031 67.800781 304.121094 66.394531 Z M 304.121094 66.398438 "/></g><g clip-rule="nonzero" clip-path="url(#eefbfce44c)"><path style=" stroke:none;fill-rule:nonzero;fill:#200020;fill-opacity:1;" d="M -110.488281 0 L 283.425781 0 L 311.742188 78 L -110.488281 78 Z M -110.488281 0 "/></g><g clip-rule="nonzero" clip-path="url(#2a59a6c4cb)"><path style="fill:none;stroke-width:10;stroke-linecap:round;stroke-linejoin:round;stroke:#f975ca;stroke-opacity:1;stroke-miterlimit:4;" d="M 47.133344 92.650509 C 70.275638 92.650509 89.048764 73.858563 89.048764 50.680814 C 89.048764 27.503066 70.275638 8.71112 47.133344 8.71112 C 23.980843 8.71112 5.217925 27.503066 5.217925 50.680814 C 5.217925 73.858563 23.980843 92.650509 47.133344 92.650509 Z M 47.133344 92.650509 " transform="matrix(0.382653,0,0,0.384764,315.722095,7.195148)"/></g><g clip-rule="nonzero" clip-path="url(#6c59c67054)"><path style="fill:none;stroke-width:10;stroke-linecap:round;stroke-linejoin:round;stroke:#f975ca;stroke-opacity:1;stroke-miterlimit:4;" d="M 148.614393 89.422071 C 171.756687 89.422071 190.529813 70.630125 190.529813 47.452376 C 190.529813 24.274628 171.756687 5.482682 148.614393 5.482682 C 125.461892 5.482682 106.698974 24.274628 106.698974 47.452376 C 106.698974 70.630125 125.461892 89.422071 148.614393 89.422071 Z M 148.614393 89.422071 " transform="matrix(0.382653,0,0,0.384764,315.722095,7.195148)"/></g><path style=" stroke:none;fill-rule:nonzero;fill:#200020;fill-opacity:1;" d="M 336.429688 29.785156 C 338.625 29.714844 340.335938 27.460938 340.25 24.753906 C 340.164062 22.046875 338.316406 19.90625 336.117188 19.976562 C 333.921875 20.046875 332.210938 22.300781 332.296875 25.007812 C 332.382812 27.714844 334.234375 29.855469 336.429688 29.785156 Z M 336.429688 29.785156 "/><path style=" stroke:none;fill-rule:nonzero;fill:#200020;fill-opacity:1;" d="M 335.605469 21.527344 L 334.511719 24.0625 C 334.4375 24.238281 334.246094 24.339844 333.96875 24.332031 C 333.90625 24.332031 333.820312 24.320312 333.761719 24.3125 C 333.703125 24.304688 333.644531 24.289062 333.582031 24.265625 C 333.519531 24.246094 333.460938 24.21875 333.398438 24.191406 C 333.367188 24.175781 333.335938 24.15625 333.304688 24.136719 C 333.28125 24.121094 333.253906 24.105469 333.230469 24.085938 C 332.617188 23.609375 332.164062 23.164062 331.710938 22.710938 C 331.570312 22.5625 331.421875 22.417969 331.285156 22.269531 C 330.816406 21.773438 330.371094 21.277344 329.9375 20.773438 C 329.675781 20.472656 329.703125 20.019531 329.988281 19.769531 L 332.109375 17.996094 C 332.398438 17.746094 332.820312 17.769531 333.058594 18.046875 C 333.453125 18.507812 333.863281 18.960938 334.273438 19.394531 L 334.644531 19.777344 C 335.015625 20.152344 335.410156 20.523438 335.71875 20.761719 C 335.734375 20.773438 335.746094 20.785156 335.757812 20.796875 C 335.765625 20.804688 335.769531 20.8125 335.777344 20.824219 C 335.789062 20.84375 335.796875 20.867188 335.808594 20.890625 C 335.8125 20.917969 335.816406 20.945312 335.820312 20.980469 C 335.824219 21.015625 335.800781 21.027344 335.792969 21.058594 C 335.765625 21.113281 335.738281 21.183594 335.707031 21.265625 C 335.683594 21.324219 335.65625 21.390625 335.628906 21.453125 C 335.621094 21.476562 335.609375 21.503906 335.601562 21.527344 Z M 335.605469 21.527344 "/><path style=" stroke:none;fill-rule:nonzero;fill:#200020;fill-opacity:1;" d="M 374.054688 28.578125 C 376.25 28.507812 377.960938 26.253906 377.875 23.546875 C 377.789062 20.839844 375.941406 18.703125 373.746094 18.773438 C 371.546875 18.84375 369.835938 21.09375 369.921875 23.800781 C 370.007812 26.511719 371.859375 28.648438 374.054688 28.578125 Z M 374.054688 28.578125 "/><path style=" stroke:none;fill-rule:nonzero;fill:#200020;fill-opacity:1;" d="M 375.601562 22.75 L 374.347656 20.289062 C 374.339844 20.265625 374.328125 20.238281 374.316406 20.21875 C 374.289062 20.15625 374.257812 20.09375 374.230469 20.035156 C 374.195312 19.957031 374.164062 19.886719 374.132812 19.835938 C 374.121094 19.804688 374.097656 19.792969 374.097656 19.757812 C 374.097656 19.726562 374.101562 19.695312 374.105469 19.671875 C 374.109375 19.644531 374.117188 19.621094 374.128906 19.597656 C 374.136719 19.589844 374.144531 19.578125 374.152344 19.570312 C 374.164062 19.558594 374.171875 19.546875 374.1875 19.535156 C 374.480469 19.277344 374.851562 18.882812 375.199219 18.480469 L 375.542969 18.078125 C 375.925781 17.617188 376.300781 17.140625 376.671875 16.652344 C 376.890625 16.363281 377.3125 16.308594 377.613281 16.539062 L 379.839844 18.175781 C 380.144531 18.40625 380.199219 18.855469 379.957031 19.171875 C 379.554688 19.703125 379.140625 20.230469 378.707031 20.753906 C 378.578125 20.910156 378.441406 21.066406 378.308594 21.21875 C 377.886719 21.703125 377.460938 22.171875 376.878906 22.6875 C 376.855469 22.710938 376.832031 22.726562 376.808594 22.746094 C 376.78125 22.765625 376.75 22.785156 376.722656 22.800781 C 376.660156 22.835938 376.601562 22.867188 376.542969 22.890625 C 376.484375 22.914062 376.421875 22.933594 376.367188 22.945312 C 376.3125 22.957031 376.226562 22.976562 376.160156 22.980469 C 375.886719 23.003906 375.6875 22.917969 375.601562 22.746094 Z M 375.601562 22.75 "/><path style="fill:none;stroke-width:8;stroke-linecap:round;stroke-linejoin:round;stroke:#f975ca;stroke-opacity:1;stroke-miterlimit:4;" d="M 92.029598 44.57927 L 104.003973 44.203634 " transform="matrix(0.382653,0,0,0.384764,315.722095,7.195148)"/><g clip-rule="nonzero" clip-path="url(#1f48ab95a7)"><path style=" stroke:none;fill-rule:nonzero;fill:#200020;fill-opacity:1;" d="M 347.796875 44.039062 C 347.796875 44.039062 348.5625 52.269531 352.238281 51.035156 C 355.914062 49.796875 355.042969 43.15625 353.828125 42.28125 C 352.613281 41.402344 346.769531 41.988281 347.796875 44.039062 Z M 347.796875 44.039062 "/></g></g></svg>