<svg width="493" height="473" viewBox="0 0 493 473" fill="none" xmlns="http://www.w3.org/2000/svg">
<g clip-path="url(#clip0_9461_198842)">
<path d="M479.51 400.744C489.491 403.458 495.964 412.144 501.697 420.155C507.725 428.582 513.361 437.285 518.524 446.266C528.889 464.263 537.388 483.285 544.009 502.972C547.745 514.085 527.701 658.057 530.155 669.52C530.901 673.006 525.468 674.134 524.724 670.633C520.532 650.992 537.572 499.135 529.624 480.698C521.655 462.213 511.893 444.495 500.479 427.912C497.418 423.464 494.312 418.979 490.745 414.919C487.203 410.885 483.101 407.384 477.842 405.922C474.462 404.989 476.152 399.844 479.521 400.761L479.51 400.744Z" fill="#ECE7F5"/>
<path d="M259.187 624.512C266.115 606.668 298.535 457.151 309.973 441.803C312.143 438.884 316.93 441.939 314.743 444.863C304.221 458.935 272.403 606.953 265.769 623.216C299.035 628.943 332.294 634.661 365.554 640.38C399.956 646.302 434.361 652.21 468.765 658.125C488.159 661.464 507.585 664.655 526.942 668.207C528.375 668.468 529.578 669.472 529.487 671.059C529.409 672.406 528.08 673.838 526.635 673.604C492.064 668.063 457.592 661.821 423.088 655.896C388.683 649.988 354.278 644.079 319.873 638.171C300.478 634.84 281.083 631.508 261.694 628.185C260.031 627.899 258.459 626.362 259.18 624.511L259.187 624.512Z" fill="#ECE7F5"/>
<path d="M395.006 397.845L479.51 400.745C479.51 400.745 516.383 437.243 530.273 475.952C544.17 514.662 531.308 666.222 526.942 668.206C522.576 670.191 417.643 650.758 400.885 648.561C384.126 646.364 263.333 623.514 263.333 623.514C263.333 623.514 295.916 467.821 302.526 457.304C309.136 446.794 312.711 441.922 312.711 441.922C312.711 441.922 341.293 474.937 359.999 465.822C378.705 456.707 394.999 397.844 394.999 397.844L395.006 397.845Z" fill="#ECE7F5"/>
<path d="M327.182 376.563C328.882 378.033 330.567 379.509 332.251 380.991C332.707 378.897 333.159 376.823 333.614 374.729C336.993 359.266 340.505 343.841 344.145 328.437C344.585 326.603 345.021 324.747 345.461 322.913C347.964 312.414 350.535 301.94 353.165 291.47C357.213 275.347 361.422 259.273 365.76 243.214C367.94 235.139 370.13 227.051 372.407 219.008C374.057 213.205 376.144 207.374 381.41 203.906C390.158 198.139 402.366 199.948 411.4 204.049C422.198 208.945 431.115 217.803 438.034 227.254C445.403 237.325 450.823 248.771 455.496 260.301C460.864 273.539 465.365 287.132 470.099 300.611C481.241 332.328 492.117 364.146 503.612 395.727C504.663 398.593 509.637 396.815 508.665 393.963C507.319 389.963 505.93 385.963 504.544 381.986C493.285 349.627 481.879 317.315 470.543 284.979C461.919 260.397 453.287 234.16 435.058 214.787C426.815 206.015 416.327 198.379 404.412 195.757C393.511 193.368 380.841 194.626 373.286 203.7C368.382 209.579 366.88 217.581 364.889 224.766C362.589 232.982 360.34 241.206 358.13 249.451C353.706 265.927 349.447 282.46 345.338 299.019C343.6 306.058 341.856 313.081 340.16 320.128C339.718 321.976 339.269 323.815 338.829 325.649C335.269 340.51 331.81 355.374 328.552 370.302C328.085 372.38 327.644 374.469 327.191 376.55L327.182 376.563Z" fill="#200020"/>
<path d="M116.462 200.948C135.84 194.517 156.06 206.353 168.056 221.002C175.384 229.946 180.802 240.214 185.967 250.505C187.552 253.667 182.673 256.164 181.066 253.004C172.804 236.818 163.616 219.55 147.168 210.361C139.738 206.214 130.92 203.883 122.407 205.301C115.192 206.495 108.716 210.45 104.124 216.127C98.9915 222.479 96.0619 230.784 97.0225 238.975C97.1993 240.498 96.4065 242.001 94.8127 242.333C93.4087 242.626 91.6368 241.655 91.454 240.124C89.4775 223.212 100.296 206.316 116.46 200.955L116.462 200.948Z" fill="#200020"/>
<path d="M110.51 230.162C114.444 227.84 119.281 227.246 123.704 226.5C128.505 225.688 133.33 225.033 138.181 224.61C140.409 224.416 142.675 224.345 144.879 223.956C145.995 223.76 147.914 223.454 148.436 222.249C149.802 219.075 154.941 220.676 153.598 223.928C152.053 227.678 148.426 229.11 144.632 229.598C139.939 230.21 135.239 230.776 130.558 231.485C125.992 232.169 121.268 232.746 116.816 233.999C115.101 234.479 113.375 235.199 112.029 236.387C110.416 237.806 110.172 239.228 109.519 241.149C108.624 243.753 104.518 243.719 104.026 240.84C103.266 236.414 106.997 232.25 110.532 230.166L110.51 230.162Z" fill="#200020"/>
<path d="M100.135 235.773C120.306 215.168 140.484 194.571 160.663 173.967L177.892 156.381C180.343 153.877 183.99 157.899 181.556 160.392C161.397 181.007 141.244 201.63 121.079 222.244C115.342 228.112 109.597 233.978 103.86 239.846C101.374 242.388 97.665 238.304 100.142 235.774L100.135 235.773Z" fill="#ECE7F5"/>
<path d="M178.088 157.154C178.675 155.909 180.014 155.4 181.323 155.743C182.57 156.067 183.683 156.954 184.601 157.829C185.398 158.595 186.075 159.553 186.571 160.538C187.074 161.525 187.455 162.629 187.602 163.73C187.778 165.085 187.707 166.309 187.406 167.633C187.256 168.287 186.601 168.95 186.03 169.247C185.422 169.552 184.563 169.653 183.916 169.417C183.241 169.169 182.611 168.709 182.301 168.042C182.004 167.39 181.978 166.771 182.11 166.092C182.092 166.198 182.073 166.305 182.055 166.412C182.138 165.928 182.17 165.444 182.159 164.959C182.104 164.51 182.005 164.069 181.882 163.631C181.707 163.206 181.506 162.798 181.265 162.413C181.003 162.067 180.714 161.747 180.399 161.451C179.963 161.135 179.513 160.86 179.061 160.555C177.937 159.813 177.535 158.368 178.102 157.156L178.088 157.154Z" fill="#ECE7F5"/>
<path d="M115.105 225.364C132.06 208.316 149.008 191.26 165.968 174.221C170.835 169.33 175.708 164.441 180.575 159.55C182.831 157.282 186.83 160.575 184.907 163.2C184.668 163.525 184.424 163.841 184.185 164.166C184.524 164.319 184.832 164.526 185.067 164.779C186.15 165.968 185.863 167.506 184.896 168.62C176.584 178.185 168.03 187.533 159.232 196.649C150.691 205.502 142.095 214.543 132.822 222.634C128.208 226.653 123.07 229.851 116.827 230.196C114.256 230.339 113.576 226.893 115.107 225.356L115.105 225.364Z" fill="#ECE7F5"/>
<path d="M180.791 157.355C181.199 156.731 181.704 156.137 182.289 155.667C182.866 155.21 183.505 154.772 184.198 154.481C185.578 153.907 187.112 153.578 188.606 153.828C189.302 153.948 189.987 154.139 190.466 154.712C190.951 155.293 191.176 155.946 191.175 156.714C191.178 158.185 190.743 159.566 190.116 160.87C189.897 161.33 189.64 161.761 189.33 162.162C188.879 162.742 188.393 163.31 187.823 163.775C187.261 164.234 186.582 164.52 185.844 164.473C185.199 164.435 184.429 164.105 184.004 163.601C183.549 163.054 183.225 162.347 183.306 161.622C182.737 161.568 182.079 161.44 181.623 161.113C180.414 160.268 179.967 158.618 180.794 157.341L180.791 157.355Z" fill="#ECE7F5"/>
<path d="M218.77 236.303C218.041 242.66 217.66 249.04 217.072 255.391C216.861 257.55 216.642 259.715 216.353 261.86C216.316 262.329 216.254 262.735 216.197 263.15C215.831 265.911 215.394 268.667 214.936 271.412C216.435 274.436 217.865 277.477 219.251 280.562C219.809 277.321 220.338 274.076 220.818 270.823C221.063 269.226 221.29 267.612 221.511 265.989C221.707 264.596 221.892 263.223 222.066 261.826C222.165 261.082 222.257 260.337 222.325 259.603C223.199 251.844 223.524 244.05 224.425 236.311C225.298 228.816 226.99 221.322 231.056 214.874C233.927 210.313 237.707 206.42 242.079 203.383C243.51 202.378 245.012 201.474 246.565 200.658C250.792 198.459 255.414 196.987 260.186 196.382C260.787 196.295 261.375 196.235 261.969 196.184C263.437 196.071 264.347 194.274 264.08 192.977C263.752 191.399 262.334 190.752 260.868 190.851C259.889 190.924 258.913 191.027 257.934 191.187C253.343 191.846 248.881 193.28 244.727 195.352C243.037 196.202 241.396 197.149 239.823 198.21C234.037 202.108 229.191 207.01 225.73 212.875C221.501 220.012 219.7 228.137 218.772 236.289L218.77 236.303Z" fill="#200020"/>
<path d="M217.074 255.385C216.864 257.543 216.645 259.708 216.356 261.853C218.072 263.231 219.802 264.619 221.52 265.983C235.296 276.966 249.246 287.737 263.369 298.275C266.183 300.376 269.103 295.78 266.32 293.669C260.943 289.627 255.594 285.545 250.248 281.45C240.878 274.247 231.58 266.969 222.342 259.599C220.592 258.2 218.835 256.8 217.081 255.386L217.074 255.385Z" fill="#200020"/>
<path d="M63.4682 238.584C70.6895 240.288 78.0788 241.399 85.4048 242.58C92.6076 243.754 99.8312 244.807 107.066 245.796C132.841 249.297 158.744 251.847 184.573 254.91C191.06 255.691 197.54 256.477 204.016 257.321C205.118 257.467 206.752 257.412 207.689 258.129C208.601 258.827 209.144 260.304 209.683 261.296C211.12 263.914 212.519 266.584 213.873 269.261C214.24 269.975 214.593 270.687 214.937 271.412C216.436 274.436 217.866 277.477 219.252 280.561C222.562 287.899 225.549 295.371 228.234 302.937C229.259 305.828 234.289 304.023 233.303 301.161C229.73 290.808 225.568 280.683 220.827 270.816C219.462 267.948 218.024 265.125 216.555 262.311C216.483 262.174 216.425 262.047 216.353 261.91C215.114 259.502 213.93 256.774 212.154 254.72C209.98 252.217 206.752 252.056 203.706 251.642C197.118 250.763 190.513 249.941 183.924 249.158C170.614 247.584 157.305 246.134 143.986 244.616C130.667 243.099 117.381 241.514 104.106 239.653C97.5386 238.742 90.9762 237.759 84.4225 236.682C77.7623 235.586 71.1486 234.221 64.4952 233.171C61.3669 232.684 60.4418 237.887 63.48 238.6L63.4682 238.584Z" fill="#200020"/>
<path d="M59.9906 234.723C59.2274 238.688 59.9927 242.361 60.9396 246.212C61.8737 250.009 62.8067 253.813 63.7099 257.619C65.5106 265.223 67.202 272.867 68.8412 280.517C74.7025 307.931 79.7462 335.503 85.5932 362.914C88.4916 376.553 91.6096 390.15 95.086 403.661C96.2988 408.348 97.3709 413.171 98.8304 417.826C99.32 419.403 99.8524 420.943 100.46 422.475C100.657 422.984 100.871 423.482 101.095 423.967C103.646 424.45 106.189 424.939 108.739 425.429C115.026 426.65 121.334 427.839 127.631 429.003C149.715 433.076 171.866 436.765 194.088 440.078C216.41 443.409 238.788 446.325 261.209 448.867C263.061 449.076 264.369 447.216 264.087 445.536C260.606 425.081 255.07 405.003 247.64 385.638C246.842 383.518 246 381.398 245.139 379.296C243.621 379.064 242.118 378.739 240.635 378.345C239.952 379.083 239.638 380.141 240.096 381.303C240.564 382.452 241.031 383.608 241.485 384.754C248.881 403.55 254.385 423.051 257.976 442.911C246.634 441.595 235.308 440.187 223.985 438.677C201.829 435.704 179.74 432.377 157.706 428.65C140.178 425.698 122.71 422.435 105.259 419.079C104.752 417.514 104.358 415.983 104.02 414.754C102.01 407.516 100.127 400.264 98.346 392.97C91.9234 366.777 86.7696 340.312 81.4579 313.871C78.841 300.807 76.179 287.75 73.3045 274.737C71.8518 268.13 70.3386 261.533 68.7494 254.953C67.9607 251.671 67.1507 248.386 66.3098 245.11C65.4988 242 64.6438 238.933 65.23 235.698C65.7759 232.697 60.5658 231.764 59.9989 234.717L59.9906 234.723Z" fill="#200020"/>
<path d="M240.21 378.228C242.592 380.716 244.971 383.174 247.374 385.621C260.192 398.634 273.35 411.288 286.877 423.545C295.974 431.784 305.215 439.857 314.612 447.752C319.176 451.589 323.719 455.465 328.419 459.106C332.819 462.534 337.555 465.668 342.807 467.633C348.045 469.596 353.683 469.996 358.983 468.069C363.971 466.258 367.811 462.397 371.006 458.287C377.724 449.61 382.949 439.579 387.433 429.596C396.702 408.907 402.39 386.832 408.367 365.034C408.703 363.804 409.03 362.588 409.381 361.353C409.877 359.58 410.375 357.793 410.87 356.02C416.19 337.189 422.127 318.516 430.952 300.998C431.61 299.684 431.48 298.104 430.134 297.25C428.976 296.495 427.071 296.767 426.386 298.068C425.098 300.488 423.876 302.955 422.716 305.441C415.467 320.859 410.348 337.12 405.722 353.495C405.212 355.265 404.714 357.053 404.233 358.828C403.318 362.102 402.425 365.379 401.524 368.656C395.723 389.818 389.892 411.151 380.357 431.005C378.001 435.933 375.409 440.747 372.572 445.409C369.941 449.726 367.206 454.223 363.658 457.871C360.298 461.323 356.164 463.663 351.237 463.466C346.063 463.255 341.257 460.782 336.999 458.015C332.255 454.93 327.94 451.217 323.586 447.607C319.026 443.837 314.516 440.024 310.021 436.17C300.913 428.339 291.94 420.32 283.137 412.161C273.369 403.105 263.787 393.861 254.406 384.388C252.861 382.864 251.329 381.305 249.803 379.755C246.543 379.611 243.342 379.074 240.22 378.215L240.21 378.228Z" fill="#200020"/>
<path d="M155.203 309.606C155.2 312.05 155.959 314.441 157.379 316.178C157.219 316.385 157.089 316.589 156.957 316.8C155.685 318.835 154.845 321.251 154.853 323.667C154.842 325.048 155.107 326.696 155.869 327.924C155.229 329.262 154.854 330.764 154.842 332.4C154.785 336.985 157.106 341.101 161.056 343.274C159.589 344.785 158.474 346.627 157.989 348.892C156.962 353.668 158.735 359.219 163.363 360.601C163.543 360.661 163.73 360.679 163.889 360.692C164.263 360.946 164.678 361.083 165.13 361.051C171.944 360.527 178.331 357.559 185.102 356.691C197.613 355.084 207.2 366.04 216.57 372.906C224.077 378.391 232.507 382.849 241.478 384.759C243.412 385.173 245.386 385.476 247.633 385.643C249.092 385.756 250.591 385.802 252.079 385.743C253.146 385.707 253.913 385.166 254.388 384.407C252.843 382.882 251.311 381.324 249.785 379.773C248.223 379.709 246.663 379.55 245.133 379.294C243.615 379.062 242.112 378.738 240.629 378.343C240.489 378.305 240.342 378.265 240.203 378.226C237.287 377.439 234.423 376.353 231.647 375.048C225.887 372.338 220.598 368.632 215.566 364.627C210.689 360.737 205.888 356.618 200.35 353.806C194.753 350.955 188.894 349.925 182.669 351.019C177.046 352.019 171.604 354.469 165.906 355.01C165.695 354.879 165.474 354.76 165.202 354.684C163.677 354.231 163.222 352.456 163.425 350.808C163.665 348.691 165.132 347.18 166.814 346.167C169.224 344.709 171.939 344.109 174.614 343.574C177.522 343.006 180.446 342.639 183.378 342.522C195.648 342.015 207.82 345.186 218.335 351.73C221.396 353.625 224.467 348.579 221.407 346.632C215.781 343.059 209.719 340.318 203.353 338.615C192.435 335.689 180.067 335.148 169.045 338.65C167.898 339.023 166.72 339.486 165.591 340.053C165.282 339.253 164.605 338.595 163.749 338.214C160.899 336.962 159.847 332.743 161.159 330.093C163.006 326.38 168.714 325.994 172.263 325.479C177.493 324.725 182.774 324.398 188.06 324.467C198.833 324.624 209.061 326.714 219.367 329.666C222.729 330.625 224.283 325.764 221.043 324.519C214.351 321.954 207.129 320.506 200.041 319.601C193.842 318.804 187.566 318.58 181.322 318.888C175.422 319.204 169.037 319.568 163.421 321.542C162.41 321.895 161.466 322.361 160.569 322.895C160.581 322.655 160.634 322.43 160.687 322.213C160.958 321.103 161.478 320.125 162.141 319.207C162.228 319.083 162.304 318.979 162.403 318.872C163.865 317.009 165.955 315.796 168.093 314.891C170.187 313.993 172.397 313.313 174.669 312.782C177.752 312.04 180.925 311.591 183.973 311.267C195.396 310.073 206.954 311.792 217.689 315.783C220.96 317.012 222.539 311.965 219.352 310.67C216.234 309.402 213.023 308.374 209.751 307.569C209.558 307.119 209.218 306.716 208.695 306.436C203.162 303.515 197.491 300.71 191.795 298.091C189.231 296.918 186.51 296.574 183.961 297.993C181.527 299.381 179.433 301.516 177.296 303.299C175.521 304.771 173.767 306.247 172.021 307.717C171.174 307.922 170.34 308.174 169.514 308.427C166.632 309.313 163.773 310.489 161.344 312.229C160.633 311.09 160.551 309.269 160.97 307.687C162.19 303.193 165.407 299.635 168.655 296.456C171.679 293.465 174.795 290.328 178.362 287.972C182.126 285.488 186.28 284.14 190.814 285.045C195.835 286.056 200.52 288.765 205.016 291.126C223.814 300.984 242.474 313.049 259.806 324.753C283.332 340.641 305.763 358.001 327.165 376.574C328.866 378.045 330.551 379.52 332.235 381.002C339.584 387.491 346.799 394.118 353.89 400.87C356.399 403.255 360.392 399.656 357.887 397.205C349.995 389.496 341.878 382.026 333.598 374.74C333.308 374.471 333 374.22 332.703 373.95C331.309 372.737 329.924 371.518 328.526 370.326C289.883 337.394 247.29 305.091 201.275 283.107C196.123 280.647 190.682 278.628 184.883 279.459C180.013 280.164 175.68 282.893 171.948 285.953C168.139 289.08 164.434 292.583 161.25 296.329C158.137 300.001 155.196 304.63 155.193 309.619L155.203 309.606ZM183.059 305.696C183.487 305.338 183.916 304.972 184.343 304.614C185.135 303.968 186.022 302.979 187.035 302.663C188.041 302.346 189.069 302.918 189.969 303.344C191.336 303.989 192.685 304.653 194.034 305.317C190.385 305.179 186.7 305.291 183.052 305.694L183.059 305.696Z" fill="#200020"/>
<path d="M354.713 152.288C357.718 146.565 362.266 141.48 368.553 139.431C374.112 137.615 381.184 138.957 385.018 143.589C389.38 148.854 389.145 156.935 386.759 163.014C384.33 169.217 379.524 174.396 373.287 176.878C369.838 178.253 366.149 178.942 362.43 178.741C360.762 178.651 358.688 178.543 357.285 177.555C355.399 176.228 354.937 173.639 356.724 172.015C358.145 170.731 360.234 171.434 361.147 172.762C361.281 172.792 361.407 172.821 361.478 172.834C361.995 172.893 362.507 172.937 363.023 172.96C364.249 173.018 365.446 172.953 366.656 172.766C368.897 172.413 371.009 171.709 373.001 170.632C377.084 168.423 380.152 164.627 381.631 160.244C382.975 156.261 383.526 150.51 380.47 147.138C377.856 144.259 373.234 143.734 369.701 145.006C364.966 146.708 361.645 150.994 359.304 155.244C357.601 158.338 353.1 155.368 354.718 152.303L354.713 152.288Z" fill="#200020"/>
<path d="M360.201 160.827C361.993 159.467 363.786 158.108 365.579 156.748C366.462 156.081 367.346 155.406 368.229 154.739C368.617 154.44 369.024 154.159 369.389 153.827C369.503 152.485 370.928 151.348 372.223 151.476C373.783 151.635 374.708 152.811 374.755 154.319C374.807 155.849 373.787 157.225 372.643 158.133C371.677 158.896 370.694 159.634 369.717 160.38C369.556 160.506 369.388 160.631 369.228 160.757C370.519 161.03 371.626 162.209 371.483 163.596C371.338 165.034 370.113 166.323 368.58 166.176C366.348 165.968 364.114 165.766 361.882 165.557C360.78 165.455 359.857 164.777 359.49 163.726C359.161 162.784 359.352 161.464 360.202 160.82L360.201 160.827Z" fill="#200020"/>
<path d="M312.282 223.897C314.883 209.595 325.153 197.886 338.06 191.68C344.675 188.495 355.023 184.914 354.7 175.91C354.65 174.453 356.189 173.291 357.551 173.372C359.131 173.461 360.027 174.757 360.09 176.223C360.423 183.809 354.423 189.544 348.256 192.894C344.931 194.699 341.39 196.058 338.073 197.857C335.241 199.389 332.624 201.243 330.222 203.376C320.437 212.058 315.068 225.145 318.191 238.113C319.809 244.822 323.59 251.041 329.192 255.137C330.35 255.98 330.978 257.727 330.035 258.998C325.148 265.583 326.349 274.416 329.154 281.63C330.579 285.292 332.327 289.082 335.127 291.898C337.541 294.326 341.252 295.762 344.532 294.264C347.766 292.779 350.214 297.517 347.055 299.205C342.624 301.566 337.059 300.528 333.146 297.586C329.051 294.511 326.488 289.848 324.559 285.199C321.047 276.737 319.288 266.338 323.974 258.079C314.438 249.758 310.004 236.367 312.274 223.903L312.282 223.897Z" fill="#200020"/>
<path d="M264.274 101.359C279.189 125.78 305.761 142.551 333.993 146.57C341.921 147.7 350.004 147.885 357.952 146.978C361.394 146.582 362.545 151.88 359.047 152.31C328.688 156.009 297.458 144.919 275.42 123.873C269.211 117.946 263.831 111.196 259.364 103.865C257.516 100.832 262.436 98.3502 264.274 101.359Z" fill="#200020"/>
<path d="M256.573 101.724C258.72 98.7721 263.516 101.858 261.351 104.785C258.254 108.964 257.393 114.259 256.609 119.282C255.748 124.833 255.253 130.433 255.091 136.046C254.768 147.06 255.683 158.111 257.652 168.949C260.982 187.301 268.273 206.415 284.613 216.946C293.182 222.468 303.499 225.187 313.591 223.011C316.988 222.278 318.058 227.496 314.679 228.297C294.321 233.111 274.487 220.259 264.052 203.471C258.551 194.623 255.166 184.536 252.991 174.387C250.569 163.084 249.401 151.418 249.408 139.859C249.415 133.188 249.87 126.506 250.845 119.907C251.768 113.656 252.781 106.961 256.587 101.726L256.573 101.724Z" fill="#200020"/>
<path d="M298.662 160.154C298.741 160.079 298.831 160.022 298.915 159.963C298.963 159.854 299.011 159.745 299.069 159.66C299.43 159.093 300.126 158.577 300.803 158.474C301.48 158.363 302.228 158.441 302.809 158.848L303.346 159.299C303.677 159.671 303.897 160.096 303.996 160.582C304.871 163.191 305.282 165.903 305.352 168.644C305.359 169.069 305.149 169.611 304.919 169.966C304.588 170.487 304.087 170.847 303.511 171.048C303.043 171.216 302.598 171.25 302.109 171.158C301.57 171.058 300.928 170.794 300.59 170.333C299.26 168.539 298.288 166.579 297.765 164.389C297.623 163.809 297.49 163.178 297.505 162.581C297.535 161.686 297.995 160.756 298.654 160.16L298.662 160.154Z" fill="#200020"/>
<path d="M261.959 159.352C262.455 158.896 263.263 158.581 263.939 158.646C264.623 158.713 265.33 158.981 265.779 159.519C265.92 159.719 266.054 159.918 266.188 160.116C266.492 160.564 266.683 160.941 266.811 161.387C267.344 163.22 267.526 165.183 267.375 167.081C267.267 168.431 266.218 169.508 264.862 169.604C264.299 169.646 263.681 169.54 263.205 169.202C262.585 168.766 262.222 168.198 262.011 167.467C261.427 165.42 261.131 163.314 261.072 161.189C261.052 160.542 261.485 159.768 261.945 159.349L261.959 159.352Z" fill="#200020"/>
<path d="M253.866 137.122C263.458 139.593 270.107 148.105 272.553 157.401C275.209 167.523 272.586 178.082 268.275 187.4C271.121 188.336 273.881 189.645 276.298 191.371C279.153 193.406 276.372 197.786 273.358 195.957C270.224 194.057 267.089 192.632 263.5 191.802C261.606 191.366 261.284 189.116 262.023 187.67C266.483 178.978 269.611 168.754 267.209 158.99C266.297 155.278 264.563 151.709 262.089 148.781C259.366 145.554 256.123 143.693 252.192 142.299C248.87 141.113 250.496 136.257 253.873 137.124L253.866 137.122Z" fill="#200020"/>
<path d="M293.198 203.374C293.987 203.51 294.784 203.596 295.587 203.61C295.783 203.615 295.988 203.613 296.188 203.604C296.551 203.578 296.73 203.558 296.766 203.557C296.931 203.534 297.096 203.511 297.261 203.489C297.66 203.425 298.047 203.346 298.437 203.245C298.781 203.158 299.156 202.981 299.509 202.924C299.799 202.813 299.957 202.745 300.108 202.676C300.48 202.514 300.839 202.341 301.193 202.153C301.516 201.982 301.84 201.797 302.152 201.601C302.412 201.405 302.584 201.303 302.694 201.212C303.302 200.746 303.875 200.223 304.403 199.662C304.51 199.549 304.669 199.43 304.738 199.288C305.032 198.9 305.263 198.574 305.482 198.239C305.701 197.903 305.886 197.547 306.085 197.201C306.192 196.963 306.278 196.759 306.358 196.553C306.879 195.223 308.353 194.27 309.791 194.803C311.118 195.295 312.086 196.815 311.541 198.235C308.624 205.832 300.17 210.523 292.199 208.668C290.883 208.361 290.155 206.809 290.388 205.583C290.618 204.379 291.857 203.129 293.199 203.367L293.198 203.374Z" fill="#200020"/>
<path d="M338.819 325.662C340.598 326.591 342.362 327.523 344.144 328.437C364.047 338.807 384.085 348.943 404.222 358.841C405.948 359.694 407.663 360.531 409.378 361.368C409.873 359.594 410.371 357.807 410.866 356.034C409.138 355.195 407.423 354.359 405.711 353.508C402.85 352.108 399.986 350.679 397.12 349.263C379.818 340.659 362.6 331.864 345.461 322.914C343.693 322.002 341.915 321.067 340.143 320.14C339.7 321.988 339.252 323.827 338.812 325.661L338.819 325.662Z" fill="#200020"/>
<path d="M397.316 395.777C404.336 394.483 411.608 395.084 418.672 395.575C426.315 396.108 433.951 396.633 441.599 397.137C456.66 398.142 471.729 399.098 486.792 400.008C490.529 400.234 494.451 400.829 498.192 400.522C500.545 400.327 504.106 398.979 503.23 395.99C502.819 394.595 503.986 393.091 505.321 392.816C506.861 392.496 508.06 393.522 508.495 394.906C509.433 397.914 508.086 401.15 505.837 403.206C503.284 405.539 499.795 406.087 496.46 406.077C488.605 406.056 480.684 405.227 472.84 404.761C456.659 403.798 440.491 402.763 424.324 401.677C415.695 401.099 407.08 400.223 398.454 401.321C394.886 401.775 393.675 396.437 397.31 395.768L397.316 395.777Z" fill="#200020"/>
<path d="M240.356 90.8112C256.299 67.7367 281.776 50.6566 309.837 47.0881C338.017 43.5038 368.091 53.9122 386.775 75.6167C392.038 81.7246 396.233 88.6803 399.857 95.8522C401.752 99.5951 403.494 103.414 405.263 107.209C406.748 110.398 408.324 113.742 410.994 116.126C413.703 118.538 417.451 119.506 420.931 120.119C424.85 120.816 428.807 121.292 432.714 122.06C440.216 123.534 447.604 125.713 454.628 128.737C468.485 134.693 481.047 143.886 489.126 156.8C496.579 168.721 499.979 183.398 497.215 197.284C496.555 200.609 495.504 203.823 494.088 206.908C493.41 208.379 491.973 209.375 490.302 208.839C488.902 208.385 487.69 206.538 488.371 205.053C493.891 193.09 493.116 179.275 487.906 167.331C482.265 154.405 471.976 144.593 459.702 137.9C453.314 134.415 446.447 131.843 439.44 129.912C435.961 128.955 432.425 128.156 428.874 127.53C425.118 126.869 421.308 126.469 417.578 125.651C413.891 124.841 410.311 123.449 407.378 121.02C404.452 118.592 402.422 115.338 400.751 111.956C397.23 104.823 394.123 97.5356 390.073 90.6708C376.029 66.8823 349.558 52.9311 322.16 52.5238C295.55 52.1278 269.904 65.2573 252.359 84.8442C242.377 95.9879 234.48 109.685 231.515 124.444C228.827 137.802 230.871 152.669 239.004 163.866C240.986 166.592 243.285 169.051 245.852 171.227C246.969 172.173 246.663 174.161 245.682 175.06C244.483 176.156 242.972 175.838 241.848 174.891C230.837 165.613 225.264 151.235 224.856 137.067C224.376 120.515 231.057 104.238 240.333 90.8146L240.356 90.8112Z" fill="#200020"/>
<path d="M492.828 205.337C506.912 205.728 515.914 218.684 520.38 230.61C522.78 237.03 524.61 244.039 523.655 250.942C522.801 257.139 519.776 262.639 515.023 266.701C510.698 270.405 505.472 272.834 500.028 274.406C504.376 288.295 497.393 304.974 483.733 310.75C483.243 310.959 482.781 311.011 482.341 310.972C481.184 311.314 480.022 311.648 478.866 311.99C478.514 312.076 478.172 312.068 477.828 311.98C477.483 311.943 477.16 311.821 476.865 311.624C476.546 311.437 476.303 311.191 476.123 310.874C475.887 310.592 475.738 310.267 475.678 309.89C475.568 309.213 475.645 308.465 476.052 307.892C476.2 307.712 476.355 307.534 476.503 307.355C476.867 307.022 477.3 306.804 477.778 306.704C478.924 306.381 480.078 306.053 481.224 305.731C493.008 300.692 499.205 285.524 493.803 273.759C493.032 272.075 493.912 270.149 495.742 269.725C505.155 267.534 515.272 262.325 517.687 252.161C519.061 246.391 517.691 240.192 515.836 234.693C514.105 229.574 511.771 224.387 508.422 220.123C504.448 215.071 499.019 211.415 492.513 210.822C489.005 210.503 489.288 205.247 492.827 205.345L492.828 205.337Z" fill="#200020"/>
<path d="M239.83 198.218C240.264 199.647 240.802 201.071 241.421 202.45C241.594 202.846 241.826 203.157 242.088 203.377C243.52 202.373 245.022 201.468 246.574 200.653C246.549 200.414 246.464 200.187 246.361 199.935C245.694 198.453 245.147 196.917 244.735 195.354C242.972 188.89 243.327 181.942 245.688 175.625C246.922 172.325 241.754 170.675 240.497 173.941C237.533 181.72 237.363 190.317 239.831 198.211L239.83 198.218Z" fill="#200020"/>
<path d="M271.922 269.326C270.974 266.544 269.963 263.787 269.029 261.007C266.873 254.578 265.236 247.975 265.527 241.141C265.678 237.633 271.104 237.945 270.968 241.455C270.752 247.22 272.165 252.826 273.926 258.28C274.856 261.162 275.895 264.011 276.895 266.875C277.831 269.553 279.149 272.48 279.392 275.324C279.673 278.577 277.432 280.503 275.448 282.715C273.664 284.705 272.107 286.91 270.74 289.199C267.985 293.809 266.043 298.969 265.074 304.26C263.956 310.367 264.132 316.616 265.58 322.653C266.424 326.171 260.907 327.314 260.065 323.789C257.43 312.785 258.783 301.019 263.58 290.79C264.807 288.17 266.236 285.65 267.908 283.29C269.541 280.988 271.455 279.006 273.305 276.888C274.154 275.907 273.749 275.077 273.4 273.912C272.94 272.377 272.441 270.857 271.92 269.333L271.922 269.326Z" fill="#200020"/>
<path d="M297.173 225.218C298.606 231.639 300.906 238.042 305.261 243.094C309.591 248.119 315.762 251.42 322.485 251.173C323.935 251.122 325.097 252.661 325.019 254.009C324.931 255.581 323.637 256.47 322.183 256.542C314.314 256.899 306.737 252.968 301.57 247.192C296.367 241.372 293.414 233.877 291.839 226.319C291.12 222.888 296.417 221.788 297.18 225.219L297.173 225.218Z" fill="#200020"/>
<path d="M347.774 296.007C347.774 296.007 328.358 298.32 325.873 279.902C323.388 261.483 327.571 258.092 327.571 258.092C327.571 258.092 305.191 238.823 318.642 214.413C332.093 190.002 348.498 190.258 352.27 186.284C356.042 182.309 360.085 176.208 360.085 176.208C360.085 176.208 395.447 172.009 382.964 145.314C376.953 132.456 357.952 150.256 357.952 150.256C357.952 150.256 325.543 153.412 298.062 136.866C270.59 120.313 259.351 103.863 259.351 103.863C259.351 103.863 250.553 123.471 252.18 142.29C253.799 161.108 260.86 190.857 260.86 190.857L242.776 198.272C242.776 198.272 241.553 193.438 241.582 187.275C241.618 181.114 241.855 174.892 241.855 174.892C241.855 174.892 224.742 159.706 228.638 131.082C232.541 102.46 253.892 65.0176 297.174 52.4293C340.464 39.8351 377.473 63.6848 384.726 78.293C391.98 92.9012 403.516 115.446 411.074 119.315C418.633 123.184 481.876 132.016 490.04 162.203C498.204 192.391 492.809 205.327 492.809 205.327C492.809 205.327 527.008 225.1 520.886 248.717C514.764 272.334 498.359 272.077 498.359 272.077C498.359 272.077 501.993 292.75 491.876 300.768C481.758 308.793 478.502 309.769 478.502 309.769C478.502 309.769 457.006 249.536 450.307 240.671C443.609 231.807 421.398 196.633 396.575 197.503C371.753 198.366 370.072 217.099 365.824 232.807C361.575 248.523 347.754 295.996 347.754 295.996L347.774 296.007Z" fill="#200020"/>
<path d="M424.725 121.877C435.977 123.931 447.197 126.251 458.389 128.609C469.015 130.848 479.577 133.807 489.196 138.968C493.743 141.412 498.128 144.42 501.589 148.286C504.738 151.799 507.05 155.964 508.614 160.397C511.798 169.446 512.074 179.532 510.269 188.908C509.189 194.502 507.032 199.808 503.272 204.136C499.895 208.024 494.915 211.242 489.646 211.286C488.188 211.299 486.968 209.925 486.891 208.544C486.799 206.999 487.769 205.871 489.22 205.433C493.029 204.304 496.211 202.737 498.853 199.673C501.707 196.352 503.253 192.09 504.135 187.859C505.824 179.707 505.526 170.43 502.726 162.551C496.275 144.386 474.851 138.73 458.024 134.721C446.638 132.007 435.113 129.884 423.718 127.22C420.728 126.523 421.646 121.318 424.718 121.876L424.725 121.877Z" fill="#200020"/>
<path d="M493.465 203.171C509.633 203.738 524.624 213.525 531.385 228.275C534.719 235.558 536.169 243.753 535.367 251.729C534.961 255.742 534.118 259.876 532.436 263.567C530.568 267.657 527.505 270.663 523.532 272.745C515.255 277.086 505.372 276.73 497.158 272.507C495.551 271.681 495.242 269.309 496.145 267.891C497.196 266.251 499.154 266.054 500.761 266.879C506.286 269.725 513.348 269.887 519.02 267.374C522.094 266.008 524.739 264.071 526.177 260.946C527.545 257.977 528.218 254.573 528.541 251.337C529.832 238.229 524.39 224.957 513.816 216.969C507.789 212.412 500.699 209.392 493.152 208.641C489.649 208.294 489.923 203.044 493.466 203.164L493.465 203.171Z" fill="#200020"/>
<path d="M479.754 315.34C482.363 315.525 484.553 315.559 487.024 314.506C489.061 313.642 490.915 312.476 492.572 311.013C495.869 308.098 498.269 304.275 499.72 300.135C503.306 289.888 500.666 279.212 497.301 269.305C496.304 266.382 501.223 264.668 502.448 267.498C507.226 278.512 509.424 291.921 504.792 303.357C502.782 308.322 499.662 312.972 495.403 316.285C493.138 318.053 490.675 319.437 487.96 320.374C485.13 321.343 481.595 321.985 478.728 320.833C475.874 319.683 476.409 315.093 479.762 315.334L479.754 315.34Z" fill="#200020"/>
<path d="M315.389 269.647C316.7 264.502 319.626 259.745 323.734 256.37C326.546 254.059 330.385 258.239 327.557 260.555C319.906 266.832 318.331 277.637 322.351 286.421C324.276 290.623 327.339 294.889 331.318 297.366C335.778 300.146 342.45 299.473 347.116 297.576C350.287 296.286 352.761 300.911 349.565 302.388C344.837 304.566 339.415 305.243 334.286 304.308C329.114 303.367 325.123 300.199 321.868 296.193C315.836 288.775 312.991 279.03 315.382 269.645L315.389 269.647Z" fill="#200020"/>
<path d="M230.772 184.016C233.106 177.175 237.457 170.988 243.422 166.857C244.634 166.019 246.194 165.841 247.277 167.03C248.188 168.028 248.3 170.016 247.104 170.885C242.013 174.611 238.209 179.794 236.199 185.777C235.223 188.682 234.685 191.677 234.597 194.742C234.556 196.256 234.626 197.761 234.835 199.267C235.084 201.008 235.719 202.719 235.731 204.477C235.75 207.466 231.833 207.691 230.5 205.574C229.557 204.08 229.344 201.922 229.122 200.193C228.888 198.361 228.777 196.498 228.832 194.649C228.925 191.051 229.609 187.415 230.765 184.015L230.772 184.016Z" fill="#200020"/>
<path d="M322.949 38.8895C323.56 38.5704 324.447 38.4744 325.1 38.7185C325.761 38.9638 326.478 39.4311 326.74 40.1201C327.079 40.9979 327.349 41.8931 327.588 42.7976C328.287 42.0546 328.973 41.302 329.69 40.5768C330.169 40.0886 331.088 39.7711 331.763 39.8435C332.381 39.9061 332.93 40.1176 333.409 40.522C334.489 41.4322 334.727 42.9875 333.984 44.1986C333.283 45.3363 332.523 46.4347 331.712 47.4948C330.788 48.6965 329.822 49.9277 328.702 50.9495C328.259 51.356 327.71 51.5688 327.152 51.6263C327.036 51.7016 326.927 51.7851 326.811 51.8604C326.57 51.9433 326.336 52.0273 326.095 52.1102C325.534 52.2258 324.97 52.1433 324.445 51.9212C323.581 51.7945 322.749 51.3147 322.394 50.4854C321.96 49.4815 321.778 48.4113 321.544 47.3468C321.35 46.4792 321.155 45.6117 320.968 44.7453C320.789 43.9537 320.65 43.1031 320.746 42.2928C320.914 40.8511 321.629 39.5842 322.948 38.8966L322.949 38.8895Z" fill="#200020"/>
</g>
<defs>
<clipPath id="clip0_9461_198842">
<rect width="537.329" height="591.743" fill="white" transform="translate(100.398) rotate(9.76773)"/>
</clipPath>
</defs>
</svg>
