<svg width="50" height="24" viewBox="0 0 50 24" fill="none" xmlns="http://www.w3.org/2000/svg">
<path d="M4.24609 17.18C3.65009 17.18 3.14609 17.03 2.73409 16.73C2.32209 16.426 2.01009 16.016 1.79809 15.5C1.58609 14.98 1.48009 14.398 1.48009 13.754C1.48009 13.098 1.58609 12.514 1.79809 12.002C2.01409 11.486 2.33009 11.08 2.74609 10.784C3.16209 10.488 3.67409 10.34 4.28209 10.34C4.87409 10.34 5.38209 10.49 5.80609 10.79C6.23009 11.09 6.55409 11.498 6.77809 12.014C7.00609 12.53 7.12009 13.11 7.12009 13.754C7.12009 14.402 7.00609 14.984 6.77809 15.5C6.55009 16.016 6.22209 16.426 5.79409 16.73C5.36609 17.03 4.85009 17.18 4.24609 17.18ZM1.33009 17V8.36H2.21809V12.122H2.12209V17H1.33009ZM4.15609 16.358C4.60809 16.358 4.98409 16.244 5.28409 16.016C5.58409 15.788 5.80809 15.478 5.95609 15.086C6.10809 14.69 6.18409 14.246 6.18409 13.754C6.18409 13.266 6.11009 12.826 5.96209 12.434C5.81409 12.042 5.58809 11.732 5.28409 11.504C4.98409 11.276 4.60209 11.162 4.13809 11.162C3.68609 11.162 3.31009 11.272 3.01009 11.492C2.71409 11.712 2.49209 12.018 2.34409 12.41C2.19609 12.798 2.12209 13.246 2.12209 13.754C2.12209 14.254 2.19609 14.702 2.34409 15.098C2.49209 15.49 2.71609 15.798 3.01609 16.022C3.31609 16.246 3.69609 16.358 4.15609 16.358ZM9.04525 19.88L10.2993 16.478L10.3173 17.486L7.47925 10.52H8.41525L10.7433 16.346H10.3593L12.5073 10.52H13.4073L9.92725 19.88H9.04525Z" fill="#454545"/>
<path d="M23.4931 0H19.3618C18.8837 0 18.4961 0.380655 18.4961 0.850218V4.29584C18.4961 4.7654 18.8837 5.14605 19.3618 5.14605H23.4931C23.9713 5.14605 24.3589 4.7654 24.3589 4.29584V0.850218C24.3589 0.380655 23.9713 0 23.4931 0Z" fill="#200020"/>
<path d="M48.6609 0H45.1067C44.6207 0 44.241 0.387819 44.241 0.850218V14.7968C44.241 15.0802 43.8613 15.1846 43.7246 14.931L35.462 0.372902C35.3253 0.134245 35.0822 0 34.7937 0H28.8853C28.3992 0 28.0195 0.387819 28.0195 0.850218V23.1349C28.0195 23.6122 28.4144 23.9851 28.8853 23.9851H32.4394C32.9255 23.9851 33.3052 23.5973 33.3052 23.1349V8.77067C33.3052 8.48726 33.6849 8.38285 33.8216 8.63642L42.312 23.6271C42.4487 23.8658 42.6917 24 42.9803 24H48.6305C49.1165 24 49.4962 23.6122 49.4962 23.1498V0.850218C49.4962 0.372902 49.1013 0 48.6305 0H48.6609Z" fill="#200020"/>
</svg>
