<svg width="662" height="25" viewBox="0 0 662 25" fill="none" xmlns="http://www.w3.org/2000/svg">
<path d="M7.812 19.36C6.588 19.36 5.484 19.152 4.5 18.736C3.524 18.32 2.716 17.728 2.076 16.96C1.444 16.184 1.032 15.268 0.84 14.212L3.048 13.864C3.328 14.952 3.908 15.804 4.788 16.42C5.676 17.028 6.72 17.332 7.92 17.332C8.696 17.332 9.396 17.212 10.02 16.972C10.652 16.724 11.152 16.372 11.52 15.916C11.888 15.46 12.072 14.92 12.072 14.296C12.072 13.912 12.004 13.584 11.868 13.312C11.74 13.032 11.56 12.796 11.328 12.604C11.104 12.404 10.848 12.236 10.56 12.1C10.272 11.964 9.972 11.852 9.66 11.764L5.256 10.456C4.776 10.312 4.312 10.132 3.864 9.916C3.416 9.692 3.016 9.416 2.664 9.088C2.312 8.752 2.032 8.352 1.824 7.888C1.616 7.416 1.512 6.86 1.512 6.22C1.512 5.196 1.776 4.324 2.304 3.604C2.84 2.876 3.564 2.32 4.476 1.936C5.388 1.552 6.416 1.364 7.56 1.372C8.72 1.38 9.756 1.588 10.668 1.996C11.588 2.396 12.348 2.972 12.948 3.724C13.556 4.476 13.964 5.376 14.172 6.424L11.904 6.82C11.784 6.116 11.516 5.512 11.1 5.008C10.692 4.496 10.18 4.104 9.564 3.832C8.948 3.552 8.272 3.408 7.536 3.4C6.832 3.392 6.196 3.504 5.628 3.736C5.06 3.968 4.608 4.292 4.272 4.708C3.936 5.116 3.768 5.588 3.768 6.124C3.768 6.652 3.92 7.08 4.224 7.408C4.528 7.728 4.9 7.984 5.34 8.176C5.788 8.36 6.224 8.512 6.648 8.632L9.936 9.58C10.312 9.684 10.744 9.828 11.232 10.012C11.728 10.196 12.208 10.456 12.672 10.792C13.136 11.12 13.52 11.56 13.824 12.112C14.128 12.656 14.28 13.344 14.28 14.176C14.28 15.008 14.112 15.748 13.776 16.396C13.448 17.044 12.988 17.588 12.396 18.028C11.804 18.46 11.116 18.788 10.332 19.012C9.548 19.244 8.708 19.36 7.812 19.36ZM21.7172 19.336C20.8852 19.336 20.1692 19.204 19.5692 18.94C18.9772 18.676 18.4852 18.324 18.0932 17.884C17.7012 17.444 17.3932 16.956 17.1692 16.42C16.9452 15.884 16.7852 15.336 16.6892 14.776C16.6012 14.216 16.5572 13.692 16.5572 13.204V6.04H18.7172V12.532C18.7172 13.14 18.7732 13.728 18.8852 14.296C18.9972 14.864 19.1852 15.376 19.4492 15.832C19.7212 16.288 20.0812 16.648 20.5292 16.912C20.9852 17.176 21.5532 17.308 22.2332 17.308C22.7692 17.308 23.2572 17.216 23.6972 17.032C24.1372 16.848 24.5132 16.576 24.8252 16.216C25.1372 15.848 25.3772 15.384 25.5452 14.824C25.7132 14.264 25.7972 13.612 25.7972 12.868L27.2012 13.3C27.2012 14.548 26.9732 15.624 26.5172 16.528C26.0692 17.432 25.4332 18.128 24.6092 18.616C23.7932 19.096 22.8292 19.336 21.7172 19.336ZM26.0372 19V15.532H25.7972V6.04H27.9452V19H26.0372ZM29.385 24.76V22.72H30.081C30.705 22.72 31.181 22.564 31.509 22.252C31.837 21.94 32.001 21.444 32.001 20.764V6.04H34.137V21.496C34.137 22.56 33.861 23.368 33.309 23.92C32.765 24.48 31.957 24.76 30.885 24.76H29.385ZM32.001 3.748V1.54H34.137V3.748H32.001ZM43.2257 19.36C41.9537 19.36 40.8417 19.08 39.8897 18.52C38.9457 17.952 38.2097 17.164 37.6817 16.156C37.1537 15.14 36.8897 13.956 36.8897 12.604C36.8897 11.188 37.1497 9.964 37.6697 8.932C38.1897 7.892 38.9137 7.092 39.8417 6.532C40.7777 5.964 41.8737 5.68 43.1297 5.68C44.4337 5.68 45.5417 5.98 46.4537 6.58C47.3737 7.18 48.0617 8.036 48.5177 9.148C48.9817 10.26 49.1817 11.584 49.1177 13.12H46.9577V12.352C46.9337 10.76 46.6097 9.572 45.9857 8.788C45.3617 7.996 44.4337 7.6 43.2017 7.6C41.8817 7.6 40.8777 8.024 40.1897 8.872C39.5017 9.72 39.1577 10.936 39.1577 12.52C39.1577 14.048 39.5017 15.232 40.1897 16.072C40.8777 16.912 41.8577 17.332 43.1297 17.332C43.9857 17.332 44.7297 17.136 45.3617 16.744C45.9937 16.352 46.4897 15.788 46.8497 15.052L48.9017 15.76C48.3977 16.904 47.6377 17.792 46.6217 18.424C45.6137 19.048 44.4817 19.36 43.2257 19.36ZM38.4377 13.12V11.404H48.0137V13.12H38.4377ZM59.0254 19C58.2574 19.152 57.4974 19.212 56.7454 19.18C56.0014 19.156 55.3374 19.008 54.7534 18.736C54.1694 18.456 53.7254 18.024 53.4214 17.44C53.1654 16.928 53.0254 16.412 53.0014 15.892C52.9854 15.364 52.9774 14.768 52.9774 14.104V2.44H55.1134V14.008C55.1134 14.536 55.1174 14.988 55.1254 15.364C55.1414 15.74 55.2254 16.064 55.3774 16.336C55.6654 16.848 56.1214 17.148 56.7454 17.236C57.3774 17.324 58.1374 17.3 59.0254 17.164V19ZM50.3494 7.804V6.04H59.0254V7.804H50.3494ZM66.6375 19.36C65.3495 19.36 64.2375 19.068 63.3015 18.484C62.3735 17.9 61.6575 17.092 61.1535 16.06C60.6495 15.028 60.3975 13.844 60.3975 12.508C60.3975 11.148 60.6535 9.956 61.1655 8.932C61.6775 7.908 62.4015 7.112 63.3375 6.544C64.2735 5.968 65.3735 5.68 66.6375 5.68C67.9335 5.68 69.0495 5.972 69.9855 6.556C70.9215 7.132 71.6375 7.936 72.1335 8.968C72.6375 9.992 72.8895 11.172 72.8895 12.508C72.8895 13.86 72.6375 15.052 72.1335 16.084C71.6295 17.108 70.9095 17.912 69.9735 18.496C69.0375 19.072 67.9255 19.36 66.6375 19.36ZM66.6375 17.332C67.9815 17.332 68.9815 16.884 69.6375 15.988C70.2935 15.092 70.6215 13.932 70.6215 12.508C70.6215 11.044 70.2895 9.88 69.6255 9.016C68.9615 8.144 67.9655 7.708 66.6375 7.708C65.7335 7.708 64.9895 7.912 64.4055 8.32C63.8215 8.728 63.3855 9.292 63.0975 10.012C62.8095 10.732 62.6655 11.564 62.6655 12.508C62.6655 13.964 63.0015 15.132 63.6735 16.012C64.3455 16.892 65.3335 17.332 66.6375 17.332ZM84.0203 19.36C83.0523 19.36 82.2403 19.184 81.5843 18.832C80.9363 18.472 80.4443 18 80.1083 17.416C79.7803 16.832 79.6163 16.192 79.6163 15.496C79.6163 14.816 79.7443 14.228 80.0003 13.732C80.2643 13.228 80.6323 12.812 81.1043 12.484C81.5763 12.148 82.1403 11.884 82.7963 11.692C83.4123 11.524 84.1003 11.38 84.8603 11.26C85.6283 11.132 86.4043 11.016 87.1883 10.912C87.9723 10.808 88.7043 10.708 89.3843 10.612L88.6163 11.056C88.6403 9.904 88.4083 9.052 87.9203 8.5C87.4403 7.948 86.6083 7.672 85.4243 7.672C84.6403 7.672 83.9523 7.852 83.3603 8.212C82.7763 8.564 82.3643 9.14 82.1243 9.94L80.0963 9.328C80.4083 8.192 81.0123 7.3 81.9083 6.652C82.8043 6.004 83.9843 5.68 85.4483 5.68C86.6243 5.68 87.6323 5.892 88.4723 6.316C89.3203 6.732 89.9283 7.364 90.2963 8.212C90.4803 8.612 90.5963 9.048 90.6443 9.52C90.6923 9.984 90.7162 10.472 90.7162 10.984V19H88.8203V15.892L89.2643 16.18C88.7763 17.228 88.0923 18.02 87.2123 18.556C86.3403 19.092 85.2763 19.36 84.0203 19.36ZM84.3443 17.572C85.1123 17.572 85.7763 17.436 86.3363 17.164C86.9043 16.884 87.3603 16.52 87.7043 16.072C88.0483 15.616 88.2723 15.12 88.3763 14.584C88.4963 14.184 88.5603 13.74 88.5683 13.252C88.5843 12.756 88.5923 12.376 88.5923 12.112L89.3363 12.436C88.6403 12.532 87.9563 12.624 87.2843 12.712C86.6123 12.8 85.9763 12.896 85.3763 13C84.7763 13.096 84.2363 13.212 83.7563 13.348C83.4043 13.46 83.0723 13.604 82.7603 13.78C82.4563 13.956 82.2083 14.184 82.0163 14.464C81.8322 14.736 81.7402 15.076 81.7402 15.484C81.7402 15.836 81.8283 16.172 82.0043 16.492C82.1883 16.812 82.4683 17.072 82.8443 17.272C83.2283 17.472 83.7283 17.572 84.3443 17.572ZM104.593 19.36C103.377 19.36 102.353 19.06 101.521 18.46C100.689 17.852 100.057 17.032 99.6249 16C99.2009 14.96 98.9889 13.796 98.9889 12.508C98.9889 11.204 99.2009 10.036 99.6249 9.004C100.057 7.972 100.689 7.16 101.521 6.568C102.361 5.976 103.389 5.68 104.605 5.68C105.805 5.68 106.837 5.98 107.701 6.58C108.573 7.172 109.241 7.984 109.705 9.016C110.169 10.048 110.401 11.212 110.401 12.508C110.401 13.804 110.169 14.968 109.705 16C109.241 17.032 108.573 17.852 107.701 18.46C106.837 19.06 105.801 19.36 104.593 19.36ZM98.6289 24.76V6.04H100.537V15.58H100.777V24.76H98.6289ZM104.329 17.404C105.185 17.404 105.893 17.188 106.453 16.756C107.013 16.324 107.433 15.74 107.713 15.004C107.993 14.26 108.133 13.428 108.133 12.508C108.133 11.596 107.993 10.772 107.713 10.036C107.441 9.3 107.017 8.716 106.441 8.284C105.873 7.852 105.149 7.636 104.269 7.636C103.429 7.636 102.733 7.844 102.181 8.26C101.629 8.668 101.217 9.24 100.945 9.976C100.673 10.704 100.537 11.548 100.537 12.508C100.537 13.452 100.669 14.296 100.933 15.04C101.205 15.776 101.621 16.356 102.181 16.78C102.741 17.196 103.457 17.404 104.329 17.404ZM118.552 19.36C117.264 19.36 116.152 19.068 115.216 18.484C114.288 17.9 113.572 17.092 113.068 16.06C112.564 15.028 112.312 13.844 112.312 12.508C112.312 11.148 112.568 9.956 113.08 8.932C113.592 7.908 114.316 7.112 115.252 6.544C116.188 5.968 117.288 5.68 118.552 5.68C119.848 5.68 120.964 5.972 121.9 6.556C122.836 7.132 123.552 7.936 124.048 8.968C124.552 9.992 124.804 11.172 124.804 12.508C124.804 13.86 124.552 15.052 124.048 16.084C123.544 17.108 122.824 17.912 121.888 18.496C120.952 19.072 119.84 19.36 118.552 19.36ZM118.552 17.332C119.896 17.332 120.896 16.884 121.552 15.988C122.208 15.092 122.536 13.932 122.536 12.508C122.536 11.044 122.204 9.88 121.54 9.016C120.876 8.144 119.88 7.708 118.552 7.708C117.648 7.708 116.904 7.912 116.32 8.32C115.736 8.728 115.3 9.292 115.012 10.012C114.724 10.732 114.58 11.564 114.58 12.508C114.58 13.964 114.916 15.132 115.588 16.012C116.26 16.892 117.248 17.332 118.552 17.332ZM127.686 19V1.36H129.822V19H127.686ZM135.642 4.06H133.902L135.474 0.0999994H137.214L135.642 4.06ZM133.662 19V6.04H135.798V19H133.662ZM146.635 19C145.867 19.152 145.107 19.212 144.355 19.18C143.611 19.156 142.947 19.008 142.363 18.736C141.779 18.456 141.335 18.024 141.031 17.44C140.775 16.928 140.635 16.412 140.611 15.892C140.595 15.364 140.587 14.768 140.587 14.104V2.44H142.723V14.008C142.723 14.536 142.727 14.988 142.735 15.364C142.751 15.74 142.835 16.064 142.987 16.336C143.275 16.848 143.731 17.148 144.355 17.236C144.987 17.324 145.747 17.3 146.635 17.164V19ZM137.959 7.804V6.04H146.635V7.804H137.959ZM149.506 3.748V1.54H151.642V3.748H149.506ZM149.506 19V6.04H151.642V19H149.506ZM160.703 19.36C159.391 19.36 158.275 19.068 157.355 18.484C156.443 17.892 155.747 17.08 155.267 16.048C154.787 15.016 154.539 13.84 154.523 12.52C154.539 11.168 154.791 9.98 155.279 8.956C155.775 7.924 156.483 7.12 157.403 6.544C158.323 5.968 159.431 5.68 160.727 5.68C162.095 5.68 163.271 6.016 164.255 6.688C165.247 7.36 165.911 8.28 166.247 9.448L164.135 10.084C163.863 9.332 163.419 8.748 162.803 8.332C162.195 7.916 161.495 7.708 160.703 7.708C159.815 7.708 159.083 7.916 158.507 8.332C157.931 8.74 157.503 9.308 157.223 10.036C156.943 10.756 156.799 11.584 156.791 12.52C156.807 13.96 157.139 15.124 157.787 16.012C158.443 16.892 159.415 17.332 160.703 17.332C161.551 17.332 162.255 17.14 162.815 16.756C163.375 16.364 163.799 15.8 164.087 15.064L166.247 15.628C165.799 16.836 165.099 17.76 164.147 18.4C163.195 19.04 162.047 19.36 160.703 19.36ZM172.262 19.36C171.294 19.36 170.482 19.184 169.826 18.832C169.178 18.472 168.686 18 168.35 17.416C168.022 16.832 167.858 16.192 167.858 15.496C167.858 14.816 167.986 14.228 168.242 13.732C168.506 13.228 168.874 12.812 169.346 12.484C169.818 12.148 170.382 11.884 171.038 11.692C171.654 11.524 172.342 11.38 173.102 11.26C173.87 11.132 174.646 11.016 175.43 10.912C176.214 10.808 176.946 10.708 177.626 10.612L176.858 11.056C176.882 9.904 176.65 9.052 176.162 8.5C175.682 7.948 174.85 7.672 173.666 7.672C172.882 7.672 172.194 7.852 171.602 8.212C171.018 8.564 170.606 9.14 170.366 9.94L168.338 9.328C168.65 8.192 169.254 7.3 170.15 6.652C171.046 6.004 172.226 5.68 173.69 5.68C174.866 5.68 175.874 5.892 176.714 6.316C177.562 6.732 178.17 7.364 178.538 8.212C178.722 8.612 178.838 9.048 178.886 9.52C178.934 9.984 178.958 10.472 178.958 10.984V19H177.062V15.892L177.506 16.18C177.018 17.228 176.334 18.02 175.454 18.556C174.582 19.092 173.518 19.36 172.262 19.36ZM172.586 17.572C173.354 17.572 174.018 17.436 174.578 17.164C175.146 16.884 175.602 16.52 175.946 16.072C176.29 15.616 176.514 15.12 176.618 14.584C176.738 14.184 176.802 13.74 176.81 13.252C176.826 12.756 176.834 12.376 176.834 12.112L177.578 12.436C176.882 12.532 176.198 12.624 175.526 12.712C174.854 12.8 174.218 12.896 173.618 13C173.018 13.096 172.478 13.212 171.998 13.348C171.646 13.46 171.314 13.604 171.002 13.78C170.698 13.956 170.45 14.184 170.258 14.464C170.074 14.736 169.982 15.076 169.982 15.484C169.982 15.836 170.07 16.172 170.246 16.492C170.43 16.812 170.71 17.072 171.086 17.272C171.47 17.472 171.97 17.572 172.586 17.572ZM186.974 19.348C185.43 19.348 184.162 19.012 183.17 18.34C182.186 17.66 181.582 16.712 181.358 15.496L183.542 15.148C183.718 15.852 184.122 16.412 184.754 16.828C185.386 17.236 186.17 17.44 187.106 17.44C187.994 17.44 188.69 17.256 189.194 16.888C189.698 16.52 189.95 16.02 189.95 15.388C189.95 15.02 189.866 14.724 189.698 14.5C189.53 14.268 189.182 14.052 188.654 13.852C188.134 13.652 187.346 13.412 186.29 13.132C185.146 12.828 184.246 12.512 183.59 12.184C182.934 11.856 182.466 11.476 182.186 11.044C181.906 10.612 181.766 10.088 181.766 9.472C181.766 8.712 181.974 8.048 182.39 7.48C182.806 6.904 183.386 6.46 184.13 6.148C184.882 5.836 185.754 5.68 186.746 5.68C187.73 5.68 188.61 5.836 189.386 6.148C190.162 6.46 190.786 6.904 191.258 7.48C191.738 8.048 192.022 8.712 192.11 9.472L189.926 9.868C189.822 9.172 189.486 8.624 188.918 8.224C188.358 7.824 187.634 7.612 186.746 7.588C185.906 7.556 185.222 7.704 184.694 8.032C184.174 8.36 183.914 8.804 183.914 9.364C183.914 9.676 184.01 9.944 184.202 10.168C184.402 10.392 184.766 10.604 185.294 10.804C185.83 11.004 186.606 11.232 187.622 11.488C188.766 11.776 189.666 12.092 190.322 12.436C190.986 12.772 191.458 13.172 191.738 13.636C192.018 14.092 192.158 14.656 192.158 15.328C192.158 16.576 191.698 17.56 190.778 18.28C189.858 18.992 188.59 19.348 186.974 19.348ZM204.698 19.36C203.49 19.36 202.454 19.06 201.59 18.46C200.726 17.852 200.058 17.032 199.586 16C199.122 14.968 198.89 13.804 198.89 12.508C198.89 11.212 199.122 10.048 199.586 9.016C200.058 7.984 200.726 7.172 201.59 6.58C202.454 5.98 203.486 5.68 204.686 5.68C205.91 5.68 206.938 5.976 207.77 6.568C208.602 7.16 209.23 7.972 209.654 9.004C210.086 10.036 210.302 11.204 210.302 12.508C210.302 13.796 210.086 14.96 209.654 16C209.23 17.032 208.602 17.852 207.77 18.46C206.938 19.06 205.914 19.36 204.698 19.36ZM204.962 17.404C205.834 17.404 206.55 17.196 207.11 16.78C207.67 16.356 208.082 15.776 208.346 15.04C208.618 14.296 208.754 13.452 208.754 12.508C208.754 11.548 208.618 10.704 208.346 9.976C208.082 9.24 207.674 8.668 207.122 8.26C206.57 7.844 205.87 7.636 205.022 7.636C204.142 7.636 203.414 7.852 202.838 8.284C202.27 8.716 201.846 9.3 201.566 10.036C201.294 10.772 201.158 11.596 201.158 12.508C201.158 13.428 201.298 14.26 201.578 15.004C201.858 15.74 202.278 16.324 202.838 16.756C203.406 17.188 204.114 17.404 204.962 17.404ZM208.754 19V9.46H208.514V1.72H210.662V19H208.754ZM219.64 19.36C218.368 19.36 217.256 19.08 216.304 18.52C215.36 17.952 214.624 17.164 214.096 16.156C213.568 15.14 213.304 13.956 213.304 12.604C213.304 11.188 213.564 9.964 214.084 8.932C214.604 7.892 215.328 7.092 216.256 6.532C217.192 5.964 218.288 5.68 219.544 5.68C220.848 5.68 221.956 5.98 222.868 6.58C223.788 7.18 224.476 8.036 224.932 9.148C225.396 10.26 225.596 11.584 225.532 13.12H223.372V12.352C223.348 10.76 223.024 9.572 222.4 8.788C221.776 7.996 220.848 7.6 219.616 7.6C218.296 7.6 217.292 8.024 216.604 8.872C215.916 9.72 215.572 10.936 215.572 12.52C215.572 14.048 215.916 15.232 216.604 16.072C217.292 16.912 218.272 17.332 219.544 17.332C220.4 17.332 221.144 17.136 221.776 16.744C222.408 16.352 222.904 15.788 223.264 15.052L225.316 15.76C224.812 16.904 224.052 17.792 223.036 18.424C222.028 19.048 220.896 19.36 219.64 19.36ZM214.852 13.12V11.404H224.428V13.12H214.852ZM236.692 19.36C235.724 19.36 234.912 19.184 234.256 18.832C233.608 18.472 233.116 18 232.78 17.416C232.452 16.832 232.288 16.192 232.288 15.496C232.288 14.816 232.416 14.228 232.672 13.732C232.936 13.228 233.304 12.812 233.776 12.484C234.248 12.148 234.812 11.884 235.468 11.692C236.084 11.524 236.772 11.38 237.532 11.26C238.3 11.132 239.076 11.016 239.86 10.912C240.644 10.808 241.376 10.708 242.056 10.612L241.288 11.056C241.312 9.904 241.08 9.052 240.592 8.5C240.112 7.948 239.28 7.672 238.096 7.672C237.312 7.672 236.624 7.852 236.032 8.212C235.448 8.564 235.036 9.14 234.796 9.94L232.768 9.328C233.08 8.192 233.684 7.3 234.58 6.652C235.476 6.004 236.656 5.68 238.12 5.68C239.296 5.68 240.304 5.892 241.144 6.316C241.992 6.732 242.6 7.364 242.968 8.212C243.152 8.612 243.268 9.048 243.316 9.52C243.364 9.984 243.388 10.472 243.388 10.984V19H241.492V15.892L241.936 16.18C241.448 17.228 240.764 18.02 239.884 18.556C239.012 19.092 237.948 19.36 236.692 19.36ZM237.016 17.572C237.784 17.572 238.448 17.436 239.008 17.164C239.576 16.884 240.032 16.52 240.376 16.072C240.72 15.616 240.944 15.12 241.048 14.584C241.168 14.184 241.232 13.74 241.24 13.252C241.256 12.756 241.264 12.376 241.264 12.112L242.008 12.436C241.312 12.532 240.628 12.624 239.956 12.712C239.284 12.8 238.648 12.896 238.048 13C237.448 13.096 236.908 13.212 236.428 13.348C236.076 13.46 235.744 13.604 235.432 13.78C235.128 13.956 234.88 14.184 234.688 14.464C234.504 14.736 234.412 15.076 234.412 15.484C234.412 15.836 234.5 16.172 234.676 16.492C234.86 16.812 235.14 17.072 235.516 17.272C235.9 17.472 236.4 17.572 237.016 17.572ZM252.46 19.36C251.244 19.36 250.22 19.06 249.388 18.46C248.556 17.852 247.924 17.032 247.492 16C247.068 14.96 246.856 13.796 246.856 12.508C246.856 11.204 247.068 10.036 247.492 9.004C247.924 7.972 248.556 7.16 249.388 6.568C250.228 5.976 251.256 5.68 252.472 5.68C253.672 5.68 254.704 5.98 255.568 6.58C256.44 7.172 257.108 7.984 257.572 9.016C258.036 10.048 258.268 11.212 258.268 12.508C258.268 13.804 258.036 14.968 257.572 16C257.108 17.032 256.44 17.852 255.568 18.46C254.704 19.06 253.668 19.36 252.46 19.36ZM246.496 24.76V6.04H248.404V15.58H248.644V24.76H246.496ZM252.196 17.404C253.052 17.404 253.76 17.188 254.32 16.756C254.88 16.324 255.3 15.74 255.58 15.004C255.86 14.26 256 13.428 256 12.508C256 11.596 255.86 10.772 255.58 10.036C255.308 9.3 254.884 8.716 254.308 8.284C253.74 7.852 253.016 7.636 252.136 7.636C251.296 7.636 250.6 7.844 250.048 8.26C249.496 8.668 249.084 9.24 248.812 9.976C248.54 10.704 248.404 11.548 248.404 12.508C248.404 13.452 248.536 14.296 248.8 15.04C249.072 15.776 249.488 16.356 250.048 16.78C250.608 17.196 251.324 17.404 252.196 17.404ZM260.899 19V6.04H262.807V9.172L262.495 8.764C262.647 8.364 262.843 7.996 263.083 7.66C263.331 7.324 263.607 7.048 263.911 6.832C264.247 6.56 264.627 6.352 265.051 6.208C265.475 6.064 265.907 5.98 266.347 5.956C266.787 5.924 267.199 5.952 267.583 6.04V8.044C267.135 7.924 266.643 7.892 266.107 7.948C265.571 8.004 265.075 8.2 264.619 8.536C264.203 8.832 263.879 9.192 263.647 9.616C263.423 10.04 263.267 10.5 263.179 10.996C263.091 11.484 263.047 11.984 263.047 12.496V19H260.899ZM275.138 19.36C273.85 19.36 272.738 19.068 271.802 18.484C270.874 17.9 270.158 17.092 269.654 16.06C269.15 15.028 268.898 13.844 268.898 12.508C268.898 11.148 269.154 9.956 269.666 8.932C270.178 7.908 270.902 7.112 271.838 6.544C272.774 5.968 273.874 5.68 275.138 5.68C276.434 5.68 277.55 5.972 278.486 6.556C279.422 7.132 280.138 7.936 280.634 8.968C281.138 9.992 281.39 11.172 281.39 12.508C281.39 13.86 281.138 15.052 280.634 16.084C280.13 17.108 279.41 17.912 278.474 18.496C277.538 19.072 276.426 19.36 275.138 19.36ZM275.138 17.332C276.482 17.332 277.482 16.884 278.138 15.988C278.794 15.092 279.122 13.932 279.122 12.508C279.122 11.044 278.79 9.88 278.126 9.016C277.462 8.144 276.466 7.708 275.138 7.708C274.234 7.708 273.49 7.912 272.906 8.32C272.322 8.728 271.886 9.292 271.598 10.012C271.31 10.732 271.166 11.564 271.166 12.508C271.166 13.964 271.502 15.132 272.174 16.012C272.846 16.892 273.834 17.332 275.138 17.332ZM289.984 19.36C288.768 19.36 287.744 19.06 286.912 18.46C286.08 17.852 285.448 17.032 285.016 16C284.592 14.96 284.38 13.796 284.38 12.508C284.38 11.204 284.592 10.036 285.016 9.004C285.448 7.972 286.08 7.16 286.912 6.568C287.752 5.976 288.78 5.68 289.996 5.68C291.196 5.68 292.228 5.98 293.092 6.58C293.964 7.172 294.632 7.984 295.096 9.016C295.56 10.048 295.792 11.212 295.792 12.508C295.792 13.804 295.56 14.968 295.096 16C294.632 17.032 293.964 17.852 293.092 18.46C292.228 19.06 291.192 19.36 289.984 19.36ZM284.02 19V1.72H286.168V9.46H285.928V19H284.02ZM289.72 17.404C290.576 17.404 291.284 17.188 291.844 16.756C292.404 16.324 292.824 15.74 293.104 15.004C293.384 14.26 293.524 13.428 293.524 12.508C293.524 11.596 293.384 10.772 293.104 10.036C292.832 9.3 292.408 8.716 291.832 8.284C291.264 7.852 290.54 7.636 289.66 7.636C288.82 7.636 288.124 7.844 287.572 8.26C287.02 8.668 286.608 9.24 286.336 9.976C286.064 10.704 285.928 11.548 285.928 12.508C285.928 13.452 286.06 14.296 286.324 15.04C286.596 15.776 287.012 16.356 287.572 16.78C288.132 17.196 288.848 17.404 289.72 17.404ZM302.106 19.36C301.138 19.36 300.326 19.184 299.67 18.832C299.022 18.472 298.53 18 298.194 17.416C297.866 16.832 297.702 16.192 297.702 15.496C297.702 14.816 297.83 14.228 298.086 13.732C298.35 13.228 298.718 12.812 299.19 12.484C299.662 12.148 300.226 11.884 300.882 11.692C301.498 11.524 302.186 11.38 302.946 11.26C303.714 11.132 304.49 11.016 305.274 10.912C306.058 10.808 306.79 10.708 307.47 10.612L306.702 11.056C306.726 9.904 306.494 9.052 306.006 8.5C305.526 7.948 304.694 7.672 303.51 7.672C302.726 7.672 302.038 7.852 301.446 8.212C300.862 8.564 300.45 9.14 300.21 9.94L298.182 9.328C298.494 8.192 299.098 7.3 299.994 6.652C300.89 6.004 302.07 5.68 303.534 5.68C304.71 5.68 305.718 5.892 306.558 6.316C307.406 6.732 308.014 7.364 308.382 8.212C308.566 8.612 308.682 9.048 308.73 9.52C308.778 9.984 308.802 10.472 308.802 10.984V19H306.906V15.892L307.35 16.18C306.862 17.228 306.178 18.02 305.298 18.556C304.426 19.092 303.362 19.36 302.106 19.36ZM302.43 17.572C303.198 17.572 303.862 17.436 304.422 17.164C304.99 16.884 305.446 16.52 305.79 16.072C306.134 15.616 306.358 15.12 306.462 14.584C306.582 14.184 306.646 13.74 306.654 13.252C306.67 12.756 306.678 12.376 306.678 12.112L307.422 12.436C306.726 12.532 306.042 12.624 305.37 12.712C304.698 12.8 304.062 12.896 303.462 13C302.862 13.096 302.322 13.212 301.842 13.348C301.49 13.46 301.158 13.604 300.846 13.78C300.542 13.956 300.294 14.184 300.102 14.464C299.918 14.736 299.826 15.076 299.826 15.484C299.826 15.836 299.914 16.172 300.09 16.492C300.274 16.812 300.554 17.072 300.93 17.272C301.314 17.472 301.814 17.572 302.43 17.572ZM317.382 19.36C316.07 19.36 314.954 19.068 314.034 18.484C313.122 17.892 312.426 17.08 311.946 16.048C311.466 15.016 311.218 13.84 311.202 12.52C311.218 11.168 311.47 9.98 311.958 8.956C312.454 7.924 313.162 7.12 314.082 6.544C315.002 5.968 316.11 5.68 317.406 5.68C318.774 5.68 319.95 6.016 320.934 6.688C321.926 7.36 322.59 8.28 322.926 9.448L320.814 10.084C320.542 9.332 320.098 8.748 319.482 8.332C318.874 7.916 318.174 7.708 317.382 7.708C316.494 7.708 315.762 7.916 315.186 8.332C314.61 8.74 314.182 9.308 313.902 10.036C313.622 10.756 313.478 11.584 313.47 12.52C313.486 13.96 313.818 15.124 314.466 16.012C315.122 16.892 316.094 17.332 317.382 17.332C318.23 17.332 318.934 17.14 319.494 16.756C320.054 16.364 320.478 15.8 320.766 15.064L322.926 15.628C322.478 16.836 321.778 17.76 320.826 18.4C319.874 19.04 318.726 19.36 317.382 19.36ZM325.264 3.748V1.54H327.4V3.748H325.264ZM325.264 19V6.04H327.4V19H325.264ZM337.396 4.06H335.656L337.228 0.0999994H338.968L337.396 4.06ZM336.52 19.36C335.232 19.36 334.12 19.068 333.184 18.484C332.256 17.9 331.54 17.092 331.036 16.06C330.532 15.028 330.28 13.844 330.28 12.508C330.28 11.148 330.536 9.956 331.048 8.932C331.56 7.908 332.284 7.112 333.22 6.544C334.156 5.968 335.256 5.68 336.52 5.68C337.816 5.68 338.932 5.972 339.868 6.556C340.804 7.132 341.52 7.936 342.016 8.968C342.52 9.992 342.772 11.172 342.772 12.508C342.772 13.86 342.52 15.052 342.016 16.084C341.512 17.108 340.792 17.912 339.856 18.496C338.92 19.072 337.808 19.36 336.52 19.36ZM336.52 17.332C337.864 17.332 338.864 16.884 339.52 15.988C340.176 15.092 340.504 13.932 340.504 12.508C340.504 11.044 340.172 9.88 339.508 9.016C338.844 8.144 337.848 7.708 336.52 7.708C335.616 7.708 334.872 7.912 334.288 8.32C333.704 8.728 333.268 9.292 332.98 10.012C332.692 10.732 332.548 11.564 332.548 12.508C332.548 13.964 332.884 15.132 333.556 16.012C334.228 16.892 335.216 17.332 336.52 17.332ZM354.642 19V12.508C354.642 11.892 354.586 11.3 354.474 10.732C354.37 10.164 354.182 9.656 353.91 9.208C353.646 8.752 353.286 8.392 352.83 8.128C352.382 7.864 351.814 7.732 351.126 7.732C350.59 7.732 350.102 7.824 349.662 8.008C349.23 8.184 348.858 8.456 348.546 8.824C348.234 9.192 347.99 9.656 347.814 10.216C347.646 10.768 347.562 11.42 347.562 12.172L346.158 11.74C346.158 10.484 346.382 9.408 346.83 8.512C347.286 7.608 347.922 6.916 348.738 6.436C349.562 5.948 350.53 5.704 351.642 5.704C352.482 5.704 353.198 5.836 353.79 6.1C354.382 6.364 354.874 6.716 355.266 7.156C355.658 7.588 355.966 8.076 356.19 8.62C356.414 9.156 356.57 9.704 356.658 10.264C356.754 10.816 356.802 11.34 356.802 11.836V19H354.642ZM345.402 19V6.04H347.322V9.508H347.562V19H345.402ZM369.815 19.36C368.607 19.36 367.571 19.06 366.707 18.46C365.843 17.852 365.175 17.032 364.703 16C364.239 14.968 364.007 13.804 364.007 12.508C364.007 11.212 364.239 10.048 364.703 9.016C365.175 7.984 365.843 7.172 366.707 6.58C367.571 5.98 368.603 5.68 369.803 5.68C371.027 5.68 372.055 5.976 372.887 6.568C373.719 7.16 374.347 7.972 374.771 9.004C375.203 10.036 375.419 11.204 375.419 12.508C375.419 13.796 375.203 14.96 374.771 16C374.347 17.032 373.719 17.852 372.887 18.46C372.055 19.06 371.031 19.36 369.815 19.36ZM370.079 17.404C370.951 17.404 371.667 17.196 372.227 16.78C372.787 16.356 373.199 15.776 373.463 15.04C373.735 14.296 373.871 13.452 373.871 12.508C373.871 11.548 373.735 10.704 373.463 9.976C373.199 9.24 372.791 8.668 372.239 8.26C371.687 7.844 370.987 7.636 370.139 7.636C369.259 7.636 368.531 7.852 367.955 8.284C367.387 8.716 366.963 9.3 366.683 10.036C366.411 10.772 366.275 11.596 366.275 12.508C366.275 13.428 366.415 14.26 366.695 15.004C366.975 15.74 367.395 16.324 367.955 16.756C368.523 17.188 369.231 17.404 370.079 17.404ZM373.871 19V9.46H373.631V1.72H375.779V19H373.871ZM384.757 19.36C383.485 19.36 382.373 19.08 381.421 18.52C380.477 17.952 379.741 17.164 379.213 16.156C378.685 15.14 378.421 13.956 378.421 12.604C378.421 11.188 378.681 9.964 379.201 8.932C379.721 7.892 380.445 7.092 381.373 6.532C382.309 5.964 383.405 5.68 384.661 5.68C385.965 5.68 387.073 5.98 387.985 6.58C388.905 7.18 389.593 8.036 390.049 9.148C390.513 10.26 390.713 11.584 390.649 13.12H388.489V12.352C388.465 10.76 388.141 9.572 387.517 8.788C386.893 7.996 385.965 7.6 384.733 7.6C383.413 7.6 382.409 8.024 381.721 8.872C381.033 9.72 380.689 10.936 380.689 12.52C380.689 14.048 381.033 15.232 381.721 16.072C382.409 16.912 383.389 17.332 384.661 17.332C385.517 17.332 386.261 17.136 386.893 16.744C387.525 16.352 388.021 15.788 388.381 15.052L390.433 15.76C389.929 16.904 389.169 17.792 388.153 18.424C387.145 19.048 386.013 19.36 384.757 19.36ZM379.969 13.12V11.404H389.545V13.12H379.969ZM398.125 19V1.72H400.285L409.297 15.22V1.72H411.457V19H409.297L400.285 5.488V19H398.125ZM420.429 19.36C419.157 19.36 418.045 19.08 417.093 18.52C416.149 17.952 415.413 17.164 414.885 16.156C414.357 15.14 414.093 13.956 414.093 12.604C414.093 11.188 414.353 9.964 414.873 8.932C415.393 7.892 416.117 7.092 417.045 6.532C417.981 5.964 419.077 5.68 420.333 5.68C421.637 5.68 422.745 5.98 423.657 6.58C424.577 7.18 425.265 8.036 425.721 9.148C426.185 10.26 426.385 11.584 426.321 13.12H424.161V12.352C424.137 10.76 423.813 9.572 423.189 8.788C422.565 7.996 421.637 7.6 420.405 7.6C419.085 7.6 418.081 8.024 417.393 8.872C416.705 9.72 416.361 10.936 416.361 12.52C416.361 14.048 416.705 15.232 417.393 16.072C418.081 16.912 419.061 17.332 420.333 17.332C421.189 17.332 421.933 17.136 422.565 16.744C423.197 16.352 423.693 15.788 424.053 15.052L426.105 15.76C425.601 16.904 424.841 17.792 423.825 18.424C422.817 19.048 421.685 19.36 420.429 19.36ZM415.641 13.12V11.404H425.217V13.12H415.641ZM434.081 19.36C432.873 19.36 431.837 19.06 430.973 18.46C430.109 17.852 429.441 17.032 428.969 16C428.505 14.968 428.273 13.804 428.273 12.508C428.273 11.212 428.505 10.048 428.969 9.016C429.441 7.984 430.109 7.172 430.973 6.58C431.837 5.98 432.869 5.68 434.069 5.68C435.293 5.68 436.321 5.976 437.153 6.568C437.985 7.16 438.613 7.972 439.037 9.004C439.469 10.036 439.685 11.204 439.685 12.508C439.685 13.796 439.469 14.96 439.037 16C438.613 17.032 437.985 17.852 437.153 18.46C436.321 19.06 435.297 19.36 434.081 19.36ZM434.345 17.404C435.217 17.404 435.933 17.196 436.493 16.78C437.053 16.356 437.465 15.776 437.729 15.04C438.001 14.296 438.137 13.452 438.137 12.508C438.137 11.548 438.001 10.704 437.729 9.976C437.465 9.24 437.057 8.668 436.505 8.26C435.953 7.844 435.253 7.636 434.405 7.636C433.525 7.636 432.797 7.852 432.221 8.284C431.653 8.716 431.229 9.3 430.949 10.036C430.677 10.772 430.541 11.596 430.541 12.508C430.541 13.428 430.681 14.26 430.961 15.004C431.241 15.74 431.661 16.324 432.221 16.756C432.789 17.188 433.497 17.404 434.345 17.404ZM437.897 24.76V15.58H438.137V6.04H440.045V24.76H437.897ZM448.327 19.336C447.495 19.336 446.779 19.204 446.179 18.94C445.587 18.676 445.095 18.324 444.703 17.884C444.311 17.444 444.003 16.956 443.779 16.42C443.555 15.884 443.395 15.336 443.299 14.776C443.211 14.216 443.167 13.692 443.167 13.204V6.04H445.327V12.532C445.327 13.14 445.383 13.728 445.495 14.296C445.607 14.864 445.795 15.376 446.059 15.832C446.331 16.288 446.691 16.648 447.139 16.912C447.595 17.176 448.163 17.308 448.843 17.308C449.379 17.308 449.867 17.216 450.307 17.032C450.747 16.848 451.123 16.576 451.435 16.216C451.747 15.848 451.987 15.384 452.155 14.824C452.323 14.264 452.407 13.612 452.407 12.868L453.811 13.3C453.811 14.548 453.583 15.624 453.127 16.528C452.679 17.432 452.043 18.128 451.219 18.616C450.403 19.096 449.439 19.336 448.327 19.336ZM452.647 19V15.532H452.407V6.04H454.555V19H452.647ZM458.154 3.748V1.54H460.29V3.748H458.154ZM458.154 19V6.04H460.29V19H458.154ZM470.496 24.76L473.004 17.944L473.04 19.96L467.376 6.04H469.62L474.06 17.236H473.292L477.456 6.04H479.628L472.572 24.76H470.496ZM491.502 19.36C490.294 19.36 489.258 19.06 488.394 18.46C487.53 17.852 486.862 17.032 486.39 16C485.926 14.968 485.694 13.804 485.694 12.508C485.694 11.212 485.926 10.048 486.39 9.016C486.862 7.984 487.53 7.172 488.394 6.58C489.258 5.98 490.29 5.68 491.49 5.68C492.714 5.68 493.742 5.976 494.574 6.568C495.406 7.16 496.034 7.972 496.458 9.004C496.89 10.036 497.106 11.204 497.106 12.508C497.106 13.796 496.89 14.96 496.458 16C496.034 17.032 495.406 17.852 494.574 18.46C493.742 19.06 492.718 19.36 491.502 19.36ZM491.766 17.404C492.638 17.404 493.354 17.196 493.914 16.78C494.474 16.356 494.886 15.776 495.15 15.04C495.422 14.296 495.558 13.452 495.558 12.508C495.558 11.548 495.422 10.704 495.15 9.976C494.886 9.24 494.478 8.668 493.926 8.26C493.374 7.844 492.674 7.636 491.826 7.636C490.946 7.636 490.218 7.852 489.642 8.284C489.074 8.716 488.65 9.3 488.37 10.036C488.098 10.772 487.962 11.596 487.962 12.508C487.962 13.428 488.102 14.26 488.382 15.004C488.662 15.74 489.082 16.324 489.642 16.756C490.21 17.188 490.918 17.404 491.766 17.404ZM495.558 19V9.46H495.318V1.72H497.466V19H495.558ZM506.444 19.36C505.172 19.36 504.06 19.08 503.108 18.52C502.164 17.952 501.428 17.164 500.9 16.156C500.372 15.14 500.108 13.956 500.108 12.604C500.108 11.188 500.368 9.964 500.888 8.932C501.408 7.892 502.132 7.092 503.06 6.532C503.996 5.964 505.092 5.68 506.348 5.68C507.652 5.68 508.76 5.98 509.672 6.58C510.592 7.18 511.28 8.036 511.736 9.148C512.2 10.26 512.4 11.584 512.336 13.12H510.176V12.352C510.152 10.76 509.828 9.572 509.204 8.788C508.58 7.996 507.652 7.6 506.42 7.6C505.1 7.6 504.096 8.024 503.408 8.872C502.72 9.72 502.376 10.936 502.376 12.52C502.376 14.048 502.72 15.232 503.408 16.072C504.096 16.912 505.076 17.332 506.348 17.332C507.204 17.332 507.948 17.136 508.58 16.744C509.212 16.352 509.708 15.788 510.068 15.052L512.12 15.76C511.616 16.904 510.856 17.792 509.84 18.424C508.832 19.048 507.7 19.36 506.444 19.36ZM501.656 13.12V11.404H511.232V13.12H501.656ZM519.813 19V1.72H526.545C527.577 1.72 528.457 1.932 529.185 2.356C529.921 2.78 530.481 3.34 530.865 4.036C531.257 4.724 531.453 5.468 531.453 6.268C531.453 7.204 531.213 8.024 530.733 8.728C530.253 9.432 529.605 9.916 528.789 10.18L528.765 9.592C529.877 9.888 530.741 10.432 531.357 11.224C531.973 12.016 532.281 12.96 532.281 14.056C532.281 15.064 532.073 15.936 531.657 16.672C531.249 17.408 530.657 17.98 529.881 18.388C529.113 18.796 528.201 19 527.145 19H519.813ZM521.973 16.96H526.737C527.377 16.96 527.949 16.844 528.453 16.612C528.957 16.372 529.353 16.036 529.641 15.604C529.937 15.172 530.085 14.652 530.085 14.044C530.085 13.46 529.953 12.936 529.689 12.472C529.433 12.008 529.069 11.64 528.597 11.368C528.133 11.088 527.593 10.948 526.977 10.948H521.973V16.96ZM521.973 8.932H526.521C527.033 8.932 527.493 8.824 527.901 8.608C528.317 8.384 528.645 8.072 528.885 7.672C529.133 7.272 529.257 6.804 529.257 6.268C529.257 5.524 529.005 4.916 528.501 4.444C527.997 3.972 527.337 3.736 526.521 3.736H521.973V8.932ZM538.356 19.36C537.388 19.36 536.576 19.184 535.92 18.832C535.272 18.472 534.78 18 534.444 17.416C534.116 16.832 533.952 16.192 533.952 15.496C533.952 14.816 534.08 14.228 534.336 13.732C534.6 13.228 534.968 12.812 535.44 12.484C535.912 12.148 536.476 11.884 537.132 11.692C537.748 11.524 538.436 11.38 539.196 11.26C539.964 11.132 540.74 11.016 541.524 10.912C542.308 10.808 543.04 10.708 543.72 10.612L542.952 11.056C542.976 9.904 542.744 9.052 542.256 8.5C541.776 7.948 540.944 7.672 539.76 7.672C538.976 7.672 538.288 7.852 537.696 8.212C537.112 8.564 536.7 9.14 536.46 9.94L534.432 9.328C534.744 8.192 535.348 7.3 536.244 6.652C537.14 6.004 538.32 5.68 539.784 5.68C540.96 5.68 541.968 5.892 542.808 6.316C543.656 6.732 544.264 7.364 544.632 8.212C544.816 8.612 544.932 9.048 544.98 9.52C545.028 9.984 545.052 10.472 545.052 10.984V19H543.156V15.892L543.6 16.18C543.112 17.228 542.428 18.02 541.548 18.556C540.676 19.092 539.612 19.36 538.356 19.36ZM538.68 17.572C539.448 17.572 540.112 17.436 540.672 17.164C541.24 16.884 541.696 16.52 542.04 16.072C542.384 15.616 542.608 15.12 542.712 14.584C542.832 14.184 542.896 13.74 542.904 13.252C542.92 12.756 542.928 12.376 542.928 12.112L543.672 12.436C542.976 12.532 542.292 12.624 541.62 12.712C540.948 12.8 540.312 12.896 539.712 13C539.112 13.096 538.572 13.212 538.092 13.348C537.74 13.46 537.408 13.604 537.096 13.78C536.792 13.956 536.544 14.184 536.352 14.464C536.168 14.736 536.076 15.076 536.076 15.484C536.076 15.836 536.164 16.172 536.34 16.492C536.524 16.812 536.804 17.072 537.18 17.272C537.564 17.472 538.064 17.572 538.68 17.572ZM557.4 19V12.508C557.4 11.892 557.344 11.3 557.232 10.732C557.128 10.164 556.94 9.656 556.668 9.208C556.404 8.752 556.044 8.392 555.588 8.128C555.14 7.864 554.572 7.732 553.884 7.732C553.348 7.732 552.86 7.824 552.42 8.008C551.988 8.184 551.616 8.456 551.304 8.824C550.992 9.192 550.748 9.656 550.572 10.216C550.404 10.768 550.32 11.42 550.32 12.172L548.916 11.74C548.916 10.484 549.14 9.408 549.588 8.512C550.044 7.608 550.68 6.916 551.496 6.436C552.32 5.948 553.288 5.704 554.4 5.704C555.24 5.704 555.956 5.836 556.548 6.1C557.14 6.364 557.632 6.716 558.024 7.156C558.416 7.588 558.724 8.076 558.948 8.62C559.172 9.156 559.328 9.704 559.416 10.264C559.512 10.816 559.56 11.34 559.56 11.836V19H557.4ZM548.16 19V6.04H550.08V9.508H550.32V19H548.16ZM568.023 19.36C566.711 19.36 565.595 19.068 564.675 18.484C563.763 17.892 563.067 17.08 562.587 16.048C562.107 15.016 561.859 13.84 561.843 12.52C561.859 11.168 562.111 9.98 562.599 8.956C563.095 7.924 563.803 7.12 564.723 6.544C565.643 5.968 566.751 5.68 568.047 5.68C569.415 5.68 570.591 6.016 571.575 6.688C572.567 7.36 573.231 8.28 573.567 9.448L571.455 10.084C571.183 9.332 570.739 8.748 570.123 8.332C569.515 7.916 568.815 7.708 568.023 7.708C567.135 7.708 566.403 7.916 565.827 8.332C565.251 8.74 564.823 9.308 564.543 10.036C564.263 10.756 564.119 11.584 564.111 12.52C564.127 13.96 564.459 15.124 565.107 16.012C565.763 16.892 566.735 17.332 568.023 17.332C568.871 17.332 569.575 17.14 570.135 16.756C570.695 16.364 571.119 15.8 571.407 15.064L573.567 15.628C573.119 16.836 572.419 17.76 571.467 18.4C570.515 19.04 569.367 19.36 568.023 19.36ZM581.184 19.36C579.896 19.36 578.784 19.068 577.848 18.484C576.92 17.9 576.204 17.092 575.7 16.06C575.196 15.028 574.944 13.844 574.944 12.508C574.944 11.148 575.2 9.956 575.712 8.932C576.224 7.908 576.948 7.112 577.884 6.544C578.82 5.968 579.92 5.68 581.184 5.68C582.48 5.68 583.596 5.972 584.532 6.556C585.468 7.132 586.184 7.936 586.68 8.968C587.184 9.992 587.436 11.172 587.436 12.508C587.436 13.86 587.184 15.052 586.68 16.084C586.176 17.108 585.456 17.912 584.52 18.496C583.584 19.072 582.472 19.36 581.184 19.36ZM581.184 17.332C582.528 17.332 583.528 16.884 584.184 15.988C584.84 15.092 585.168 13.932 585.168 12.508C585.168 11.044 584.836 9.88 584.172 9.016C583.508 8.144 582.512 7.708 581.184 7.708C580.28 7.708 579.536 7.912 578.952 8.32C578.368 8.728 577.932 9.292 577.644 10.012C577.356 10.732 577.212 11.564 577.212 12.508C577.212 13.964 577.548 15.132 578.22 16.012C578.892 16.892 579.88 17.332 581.184 17.332ZM590.318 19V1.36H592.454V19H590.318ZM601.575 19.36C600.287 19.36 599.175 19.068 598.239 18.484C597.311 17.9 596.595 17.092 596.091 16.06C595.587 15.028 595.335 13.844 595.335 12.508C595.335 11.148 595.591 9.956 596.103 8.932C596.615 7.908 597.339 7.112 598.275 6.544C599.211 5.968 600.311 5.68 601.575 5.68C602.871 5.68 603.987 5.972 604.923 6.556C605.859 7.132 606.575 7.936 607.071 8.968C607.575 9.992 607.827 11.172 607.827 12.508C607.827 13.86 607.575 15.052 607.071 16.084C606.567 17.108 605.847 17.912 604.911 18.496C603.975 19.072 602.863 19.36 601.575 19.36ZM601.575 17.332C602.919 17.332 603.919 16.884 604.575 15.988C605.231 15.092 605.559 13.932 605.559 12.508C605.559 11.044 605.227 9.88 604.563 9.016C603.899 8.144 602.903 7.708 601.575 7.708C600.671 7.708 599.927 7.912 599.343 8.32C598.759 8.728 598.323 9.292 598.035 10.012C597.747 10.732 597.603 11.564 597.603 12.508C597.603 13.964 597.939 15.132 598.611 16.012C599.283 16.892 600.271 17.332 601.575 17.332ZM625.961 19L625.973 10.708C625.973 9.74 625.713 8.984 625.193 8.44C624.681 7.888 624.013 7.612 623.189 7.612C622.709 7.612 622.253 7.724 621.821 7.948C621.389 8.164 621.037 8.508 620.765 8.98C620.493 9.444 620.357 10.04 620.357 10.768L619.229 10.312C619.213 9.392 619.401 8.588 619.793 7.9C620.193 7.204 620.737 6.664 621.425 6.28C622.113 5.896 622.889 5.704 623.753 5.704C625.105 5.704 626.169 6.116 626.945 6.94C627.721 7.756 628.109 8.856 628.109 10.24L628.097 19H625.961ZM610.457 19V6.04H612.365V9.508H612.605V19H610.457ZM618.221 19L618.233 10.792C618.233 9.8 617.977 9.024 617.465 8.464C616.953 7.896 616.273 7.612 615.425 7.612C614.585 7.612 613.905 7.9 613.385 8.476C612.865 9.052 612.605 9.816 612.605 10.768L611.477 10.096C611.477 9.256 611.677 8.504 612.077 7.84C612.477 7.176 613.021 6.656 613.709 6.28C614.397 5.896 615.177 5.704 616.049 5.704C616.921 5.704 617.681 5.888 618.329 6.256C618.977 6.624 619.477 7.152 619.829 7.84C620.181 8.52 620.357 9.332 620.357 10.276L620.345 19H618.221ZM637.187 19.36C635.971 19.36 634.947 19.06 634.115 18.46C633.283 17.852 632.651 17.032 632.219 16C631.795 14.96 631.583 13.796 631.583 12.508C631.583 11.204 631.795 10.036 632.219 9.004C632.651 7.972 633.283 7.16 634.115 6.568C634.955 5.976 635.983 5.68 637.199 5.68C638.399 5.68 639.431 5.98 640.295 6.58C641.167 7.172 641.835 7.984 642.299 9.016C642.763 10.048 642.995 11.212 642.995 12.508C642.995 13.804 642.763 14.968 642.299 16C641.835 17.032 641.167 17.852 640.295 18.46C639.431 19.06 638.395 19.36 637.187 19.36ZM631.223 19V1.72H633.371V9.46H633.131V19H631.223ZM636.923 17.404C637.779 17.404 638.487 17.188 639.047 16.756C639.607 16.324 640.027 15.74 640.307 15.004C640.587 14.26 640.727 13.428 640.727 12.508C640.727 11.596 640.587 10.772 640.307 10.036C640.035 9.3 639.611 8.716 639.035 8.284C638.467 7.852 637.743 7.636 636.863 7.636C636.023 7.636 635.327 7.844 634.775 8.26C634.223 8.668 633.811 9.24 633.539 9.976C633.267 10.704 633.131 11.548 633.131 12.508C633.131 13.452 633.263 14.296 633.527 15.04C633.799 15.776 634.215 16.356 634.775 16.78C635.335 17.196 636.051 17.404 636.923 17.404ZM645.865 3.748V1.54H648.001V3.748H645.865ZM645.865 19V6.04H648.001V19H645.865ZM655.286 19.36C654.318 19.36 653.506 19.184 652.85 18.832C652.202 18.472 651.71 18 651.374 17.416C651.046 16.832 650.882 16.192 650.882 15.496C650.882 14.816 651.01 14.228 651.266 13.732C651.53 13.228 651.898 12.812 652.37 12.484C652.842 12.148 653.406 11.884 654.062 11.692C654.678 11.524 655.366 11.38 656.126 11.26C656.894 11.132 657.67 11.016 658.454 10.912C659.238 10.808 659.97 10.708 660.65 10.612L659.882 11.056C659.906 9.904 659.674 9.052 659.186 8.5C658.706 7.948 657.874 7.672 656.69 7.672C655.906 7.672 655.218 7.852 654.626 8.212C654.042 8.564 653.63 9.14 653.39 9.94L651.362 9.328C651.674 8.192 652.278 7.3 653.174 6.652C654.07 6.004 655.25 5.68 656.714 5.68C657.89 5.68 658.898 5.892 659.738 6.316C660.586 6.732 661.194 7.364 661.562 8.212C661.746 8.612 661.862 9.048 661.91 9.52C661.958 9.984 661.982 10.472 661.982 10.984V19H660.086V15.892L660.53 16.18C660.042 17.228 659.358 18.02 658.478 18.556C657.606 19.092 656.542 19.36 655.286 19.36ZM655.61 17.572C656.378 17.572 657.042 17.436 657.602 17.164C658.17 16.884 658.626 16.52 658.97 16.072C659.314 15.616 659.538 15.12 659.642 14.584C659.762 14.184 659.826 13.74 659.834 13.252C659.85 12.756 659.858 12.376 659.858 12.112L660.602 12.436C659.906 12.532 659.222 12.624 658.55 12.712C657.878 12.8 657.242 12.896 656.642 13C656.042 13.096 655.502 13.212 655.022 13.348C654.67 13.46 654.338 13.604 654.026 13.78C653.722 13.956 653.474 14.184 653.282 14.464C653.098 14.736 653.006 15.076 653.006 15.484C653.006 15.836 653.094 16.172 653.27 16.492C653.454 16.812 653.734 17.072 654.11 17.272C654.494 17.472 654.994 17.572 655.61 17.572Z" fill="#ECE7F5"/>
</svg>
