<svg width="61" height="50" viewBox="0 0 61 50" fill="none" xmlns="http://www.w3.org/2000/svg">
<path d="M4.58594 34.18C3.98994 34.18 3.48594 34.03 3.07394 33.73C2.66194 33.426 2.34994 33.016 2.13794 32.5C1.92594 31.98 1.81994 31.398 1.81994 30.754C1.81994 30.098 1.92594 29.514 2.13794 29.002C2.35394 28.486 2.66994 28.08 3.08594 27.784C3.50194 27.488 4.01394 27.34 4.62194 27.34C5.21394 27.34 5.72194 27.49 6.14594 27.79C6.56994 28.09 6.89394 28.498 7.11794 29.014C7.34594 29.53 7.45994 30.11 7.45994 30.754C7.45994 31.402 7.34594 31.984 7.11794 32.5C6.88994 33.016 6.56194 33.426 6.13394 33.73C5.70594 34.03 5.18994 34.18 4.58594 34.18ZM1.66994 34V25.36H2.55794V29.122H2.46194V34H1.66994ZM4.49594 33.358C4.94794 33.358 5.32394 33.244 5.62394 33.016C5.92394 32.788 6.14794 32.478 6.29594 32.086C6.44794 31.69 6.52394 31.246 6.52394 30.754C6.52394 30.266 6.44994 29.826 6.30194 29.434C6.15394 29.042 5.92794 28.732 5.62394 28.504C5.32394 28.276 4.94194 28.162 4.47794 28.162C4.02594 28.162 3.64994 28.272 3.34994 28.492C3.05394 28.712 2.83194 29.018 2.68394 29.41C2.53594 29.798 2.46194 30.246 2.46194 30.754C2.46194 31.254 2.53594 31.702 2.68394 32.098C2.83194 32.49 3.05594 32.798 3.35594 33.022C3.65594 33.246 4.03594 33.358 4.49594 33.358ZM9.38509 36.88L10.6391 33.478L10.6571 34.486L7.81909 27.52H8.75509L11.0831 33.346H10.6991L12.8471 27.52H13.7471L10.2671 36.88H9.38509Z" fill="#454545"/>
<path d="M51.6238 10.1541V18.5492C51.6238 19.0527 51.3773 19.5273 50.964 19.8191L42.9104 25.496C42.9104 25.496 42.9035 25.5007 42.9 25.503C42.5273 25.7704 42.2934 26.186 42.2575 26.6375C42.2529 26.6803 42.2517 26.7243 42.2517 26.7671V39.6966C42.2517 40.1261 41.9021 40.4745 41.4703 40.4745H40.8765C40.5987 40.4745 40.3417 40.3263 40.2016 40.089L31.9616 26.0285C31.9616 26.0285 31.9582 26.0228 31.9558 26.0216C31.7753 25.7253 31.3145 25.8526 31.3145 26.2022V39.6966C31.3145 40.1261 30.9649 40.4745 30.5331 40.4745H29.9393C29.6614 40.4745 29.4045 40.3263 29.2644 40.089L20.691 25.4625C20.4838 25.1117 20.375 24.71 20.375 24.3025V10.1541C20.375 9.72344 20.7246 9.37616 21.1564 9.37616H21.7503C22.0269 9.37616 22.2839 9.52317 22.4251 9.76049L30.6651 23.821C30.8434 24.1266 31.3122 24.0004 31.3122 23.6473V10.1541C31.3122 9.72344 31.6618 9.37616 32.0936 9.37616H32.6875C32.9641 9.37616 33.2211 9.52317 33.3624 9.76049L41.6023 23.821C41.7806 24.1266 42.2494 24.0004 42.2494 23.6473V16.2686C42.2494 15.5208 42.6129 14.8193 43.2265 14.3875L50.134 9.51739C50.266 9.42478 50.4234 9.375 50.5866 9.375H50.8436C51.2742 9.375 51.625 9.72229 51.625 10.1529L51.6238 10.1541Z" fill="#2C2A29"/>
</svg>
