<svg width="313" height="99" viewBox="0 0 313 99" fill="none" xmlns="http://www.w3.org/2000/svg">
<path d="M284.699 71.3862C280.805 71.3862 277.108 72.1828 273.743 73.6287C268.211 56.0428 251.822 43.2861 232.46 43.2861C230.567 43.2861 228.713 43.4238 226.888 43.6599C216.099 18.0088 190.784 0 161.27 0C159.603 0 157.955 0.0786828 156.317 0.186873C154.679 0.0786828 153.031 0 151.364 0C121.85 0 96.5443 18.0088 85.7452 43.6599C83.9209 43.4238 82.0671 43.2861 80.1741 43.2861C60.8122 43.2861 44.4125 56.0428 38.8904 73.6287C35.5261 72.1927 31.8283 71.3862 27.9344 71.3862C12.6823 71.3862 0.304061 83.6412 0 98.8568H312.624C312.32 83.6412 299.942 71.3862 284.69 71.3862H284.699Z" fill="white"/>
</svg>
