<svg width="24" height="24" viewBox="0 0 24 24" fill="none" xmlns="http://www.w3.org/2000/svg">
<path fill-rule="evenodd" clip-rule="evenodd" d="M10.5002 2.25C11.5836 2.25 12.6565 2.46336 13.6574 2.87793C14.6583 3.29253 15.5681 3.89995 16.3342 4.66602C17.1003 5.43209 17.7077 6.34186 18.1223 7.34277C18.5369 8.34368 18.7502 9.41663 18.7502 10.5L18.7443 10.8057C18.6878 12.3301 18.2093 13.8113 17.3596 15.083C17.1981 15.3247 17.0239 15.5564 16.8391 15.7783L21.5305 20.4697L21.5822 20.5264C21.8225 20.8209 21.8051 21.2557 21.5305 21.5303C21.2559 21.8047 20.8211 21.8223 20.5266 21.582L20.4699 21.5303L15.7775 16.8379C15.1424 17.3669 14.4293 17.8023 13.6574 18.1221C12.1501 18.7464 10.491 18.9101 8.89083 18.5918C7.29055 18.2734 5.81997 17.4877 4.66622 16.334C3.51248 15.1802 2.72675 13.7097 2.40841 12.1094C2.09014 10.5092 2.25381 8.85015 2.87814 7.34277C3.50253 5.83539 4.56062 4.54713 5.9172 3.64062C7.27381 2.73422 8.86866 2.25004 10.5002 2.25ZM10.5002 3.75C9.16526 3.75004 7.86018 4.14604 6.75021 4.8877C5.64028 5.62939 4.77473 6.68367 4.26388 7.91699C3.75316 9.15017 3.61977 10.5073 3.88009 11.8164C4.14056 13.1257 4.7828 14.3295 5.72677 15.2734C6.67074 16.2174 7.87449 16.8596 9.1838 17.1201C10.4929 17.3804 11.85 17.247 13.0832 16.7363C14.3165 16.2255 15.3708 15.3599 16.1125 14.25C16.8542 13.14 17.2502 11.835 17.2502 10.5L17.2424 10.168C17.2043 9.39505 17.0333 8.63347 16.7365 7.91699C16.3973 7.09805 15.9004 6.35336 15.2736 5.72656C14.6468 5.09977 13.9022 4.60289 13.0832 4.26367C12.2643 3.92452 11.3865 3.75 10.5002 3.75Z" fill="#200020"/>
</svg>
