<svg width="44" height="42" viewBox="0 0 44 42" fill="none" xmlns="http://www.w3.org/2000/svg">
<path d="M37.8562 42H6.28357C3.01259 42 0.36084 39.4501 0.36084 36.3048V5.69521C0.36084 2.54988 3.01259 0 6.28357 0H37.8562C41.1272 0 43.779 2.54988 43.779 5.69521V36.3032C43.779 39.4486 41.1272 41.9984 37.8562 41.9984" fill="#5A9CF9"/>
<g style="mix-blend-mode:multiply" opacity="0.2">
<mask id="mask0_16341_3064" style="mask-type:luminance" maskUnits="userSpaceOnUse" x="0" y="0" width="44" height="42">
<path d="M43.779 0H0.36084V42H43.779V0Z" fill="white"/>
</mask>
<g mask="url(#mask0_16341_3064)">
<path d="M37.8562 42H6.28357C3.01259 42 0.36084 39.4501 0.36084 36.3048V5.69521C0.36084 2.54988 3.01259 0 6.28357 0H37.8562C41.1272 0 43.779 2.54988 43.779 5.69521V36.3032C43.779 39.4486 41.1272 41.9984 37.8562 41.9984" fill="#5A9CF9"/>
</g>
</g>
<path d="M15.9981 17.3342H12.2909C11.8612 17.3342 11.5132 17.6689 11.5132 18.0821V21.1096C11.5132 21.5228 11.8612 21.8574 12.2909 21.8574H15.9981C16.4278 21.8574 16.7758 21.5228 16.7758 21.1096V18.0821C16.7758 17.6689 16.4278 17.3342 15.9981 17.3342Z" fill="#ECE7F5"/>
<path d="M38.7095 16.9022H35.5202C35.084 16.9022 34.7425 17.2431 34.7425 17.65V29.9046C34.7425 30.1544 34.401 30.2455 34.2785 30.0224L26.864 17.2306C26.7415 17.02 26.5242 16.9022 26.2644 16.9022H20.9625C20.5263 16.9022 20.1848 17.2431 20.1848 17.65V37.2306C20.1848 37.65 20.5394 37.9784 20.9625 37.9784H24.1518C24.5881 37.9784 24.9295 37.6375 24.9295 37.2306V24.6084C24.9295 24.3586 25.271 24.2675 25.3936 24.4906L33.0122 37.6626C33.1348 37.8731 33.3537 37.991 33.6119 37.991H38.6817C39.118 37.991 39.4594 37.65 39.4594 37.2431V17.6485C39.4594 17.229 39.1049 16.9006 38.6817 16.9006H38.7095V16.9022Z" fill="#ECE7F5"/>
<mask id="mask1_16341_3064" style="mask-type:luminance" maskUnits="userSpaceOnUse" x="0" y="0" width="44" height="15">
<path d="M6.28357 0C3.01259 0 0.36084 2.54988 0.36084 5.69521V14.2781H43.7806V5.69521C43.7806 2.54988 41.1288 0 37.8579 0L6.28357 0Z" fill="white"/>
</mask>
<g mask="url(#mask1_16341_3064)">
<path d="M43.7806 0H0.36084V7.29144H43.7806V0Z" fill="#5A9CF9"/>
<path d="M17.2288 11.0972H12.6262C12.0102 11.0972 11.5103 10.6164 11.5103 10.0241V5.5481H18.343V10.0241C18.343 10.6164 17.8431 11.0972 17.2271 11.0972" fill="#5A9CF9"/>
<path d="M3.29182 11.0972H-1.30912C-1.92509 11.0972 -2.42505 10.6164 -2.42505 10.0241V5.5481H4.40774V10.0241C4.40774 10.6164 3.90778 11.0972 3.29182 11.0972Z" fill="#5A9CF9"/>
<path d="M31.5026 11.0972H26.9163C26.2955 11.0972 25.7922 10.6133 25.7922 10.0163V5.5481H32.625V10.0163C32.625 10.6133 32.1218 11.0972 31.5009 11.0972" fill="#5A9CF9"/>
<path d="M45.4528 11.0972H40.8665C40.2457 11.0972 39.7424 10.6133 39.7424 10.0163V5.5481H46.5752V10.0163C46.5752 10.6133 46.072 11.0972 45.4511 11.0972" fill="#5A9CF9"/>
</g>
<path d="M4.40886 5.59152V9.63237C4.40886 10.4415 5.09018 11.0982 5.93325 11.0982H10.0048C10.8463 11.0982 11.5276 10.443 11.5276 9.63237V5.5868C11.5276 5.42655 11.5684 5.26944 11.6485 5.12804L14.5388 0H7.48868L4.53303 5.1249C4.45134 5.26787 4.40723 5.42812 4.40723 5.59152" fill="#ECE7F5"/>
<path d="M36.6641 0H29.614L32.5059 5.12804C32.586 5.26944 32.6268 5.42655 32.6268 5.5868V9.63237C32.6268 10.4415 33.3082 11.0982 34.1512 11.0982H38.2228C39.0642 11.0982 39.7456 10.4415 39.7456 9.63237V5.59152C39.7456 5.42812 39.7031 5.26787 39.6198 5.1249L36.6641 0Z" fill="#ECE7F5"/>
<path d="M18.9629 0L18.3535 5.28987C18.3502 5.326 18.3469 5.36057 18.3469 5.3967L18.3502 9.63394C18.3502 10.443 19.0331 11.0982 19.8729 11.0982H24.2713C25.1127 11.0982 25.7957 10.4415 25.7957 9.63237V5.3967C25.7957 5.36057 25.794 5.326 25.7891 5.29144L25.1781 0H18.9613H18.9629Z" fill="#ECE7F5"/>
<g style="mix-blend-mode:multiply" opacity="0.2">
<mask id="mask2_16341_3064" style="mask-type:luminance" maskUnits="userSpaceOnUse" x="0" y="0" width="44" height="6">
<path d="M43.779 0H0.36084V5.69521H43.779V0Z" fill="white"/>
</mask>
<g mask="url(#mask2_16341_3064)">
<path d="M43.779 5.5491H0.36084V5.69678C0.36084 2.54988 3.01259 0 6.28357 0H37.8562C41.1272 0 43.779 2.54988 43.779 5.69521V5.54753V5.5491Z" fill="#5A9CF9"/>
</g>
</g>
<mask id="path-17-inside-1_16341_3064" fill="white">
<path d="M37.998 0C38.3436 3.43053e-07 38.6821 0.0288233 39.0117 0.0820312C39.1322 0.101514 39.2512 0.125178 39.3691 0.151367C41.9748 0.729359 43.9261 2.91624 43.9961 5.54883H43.998V5.62207C43.9984 5.64642 44 5.67089 44 5.69531V14.2783H43.998V36.3037C43.9978 39.4488 41.3106 41.998 37.9961 41.998L6.00195 42C2.68727 42 0 39.45 0 36.3047V5.54883H0.00390625C0.0857667 2.47117 2.73887 0 6.00195 0H37.998Z"/>
</mask>
<path d="M37.998 0V-0.499979V-0.499979V0ZM39.0117 0.0820312L39.0915 -0.411535L39.0914 -0.411556L39.0117 0.0820312ZM39.3691 0.151367L39.2607 0.639452L39.2609 0.639481L39.3691 0.151367ZM43.9961 5.54883L43.4963 5.56212L43.5092 6.04881H43.9961V5.54883ZM43.998 5.54883H44.498V5.04885H43.998V5.54883ZM43.998 5.62207H43.498L43.4981 5.6287L43.998 5.62207ZM44 14.2783V14.7783H44.5V14.2783H44ZM43.998 14.2783V13.7783H43.4981V14.2783H43.998ZM43.998 36.3037L44.498 36.3038V36.3037H43.998ZM37.9961 41.998V41.4981H37.9961L37.9961 41.998ZM6.00195 42V42.5H6.00198L6.00195 42ZM0 5.54883V5.04885H-0.499979V5.54883H0ZM0.00390625 5.54883V6.04881H0.490763L0.503708 5.56212L0.00390625 5.54883ZM37.998 0V0.499979C38.3157 0.499979 38.6276 0.526475 38.932 0.575619L39.0117 0.0820312L39.0914 -0.411556C38.7367 -0.468828 38.3715 -0.499978 37.998 -0.499979V0ZM39.0117 0.0820312L38.9319 0.575598C39.0407 0.593197 39.15 0.614859 39.2607 0.639452L39.3691 0.151367L39.4775 -0.336718C39.3524 -0.364503 39.2237 -0.390169 39.0915 -0.411535L39.0117 0.0820312ZM39.3691 0.151367L39.2609 0.639481C41.6634 1.17242 43.4329 3.17964 43.4963 5.56212L43.9961 5.54883L44.4959 5.53553C44.4192 2.65284 42.2861 0.286295 39.4774 -0.336746L39.3691 0.151367ZM43.9961 5.54883V6.04881H43.998V5.54883V5.04885H43.9961V5.54883ZM43.998 5.54883H43.4981V5.62207H43.998H44.498V5.54883H43.998ZM43.998 5.62207L43.4981 5.6287C43.4984 5.64818 43.4992 5.66751 43.4995 5.67699C43.4999 5.68912 43.5 5.69319 43.5 5.69531H44H44.5C44.5 5.67301 44.4992 5.65263 44.4988 5.64034C44.4982 5.62539 44.498 5.62031 44.498 5.61544L43.998 5.62207ZM44 5.69531H43.5V14.2783H44H44.5V5.69531H44ZM44 14.2783V13.7783H43.998V14.2783V14.7783H44V14.2783ZM43.998 14.2783H43.4981V36.3037H43.998H44.498V14.2783H43.998ZM43.998 36.3037L43.4981 36.3037C43.4978 39.1482 41.0596 41.4981 37.9961 41.4981V41.998V42.498C41.5616 42.498 44.4977 39.7494 44.498 36.3038L43.998 36.3037ZM37.9961 41.998L37.9961 41.4981L6.00192 41.5L6.00195 42L6.00198 42.5L37.9961 42.498L37.9961 41.998ZM6.00195 42V41.5C2.93837 41.5 0.499979 39.1495 0.499979 36.3047H0H-0.499979C-0.499979 39.7505 2.43617 42.5 6.00195 42.5V42ZM0 36.3047H0.499979V5.54883H0H-0.499979V36.3047H0ZM0 5.54883V6.04881H0.00390625V5.54883V5.04885H0V5.54883ZM0.00390625 5.54883L0.503708 5.56212C0.577765 2.77786 2.9867 0.499979 6.00195 0.499979V0V-0.499979C2.49104 -0.499979 -0.406231 2.16448 -0.495896 5.53553L0.00390625 5.54883ZM6.00195 0V0.499979H37.998V0V-0.499979H6.00195V0Z" fill="white" mask="url(#path-17-inside-1_16341_3064)"/>
</svg>
