<svg width="68" height="64" viewBox="0 0 68 64" fill="none" xmlns="http://www.w3.org/2000/svg">
<path d="M31.7337 27.4667L31.7337 0.266475C31.7337 -0.985382 30.7189 -2.00021 29.467 -2.00021L2.26675 -2.00021C1.01489 -2.00021 5.71761e-05 -0.985384 5.71214e-05 0.266474L5.59324e-05 27.4667C5.58777e-05 28.7186 1.01489 29.7334 2.26675 29.7334L29.467 29.7334C30.7189 29.7334 31.7337 28.7186 31.7337 27.4667Z" fill="#E366A7"/>
<path d="M15.8669 52.3994L29.467 52.3994C30.7189 52.3994 31.7337 51.3846 31.7337 50.1327L31.7337 36.5326C31.7337 35.2807 30.7189 34.2659 29.467 34.2659L15.8669 34.2659C14.615 34.2659 13.6002 35.2807 13.6002 36.5326L13.6002 50.1327C13.6002 51.3846 14.615 52.3994 15.8669 52.3994Z" fill="#F1BFDA"/>
<path d="M2.26715 66.0015L9.06722 66.0015C10.3191 66.0015 11.3339 64.9866 11.3339 63.7348L11.3339 56.9347C11.3339 55.6829 10.3191 54.668 9.06722 54.668L2.26716 54.668C1.0153 54.668 0.000465844 55.6829 0.000465789 56.9347L0.000465492 63.7348C0.000465437 64.9866 1.0153 66.0015 2.26715 66.0015Z" fill="#ECE7F5"/>
<path d="M36.2664 36.5345L36.2664 63.7348C36.2664 64.9866 37.2812 66.0015 38.5331 66.0015L65.7333 66.0015C66.9852 66.0015 68 64.9866 68 63.7348L68 36.5345C68 35.2827 66.9852 34.2678 65.7333 34.2678L38.5331 34.2678C37.2812 34.2678 36.2664 35.2827 36.2664 36.5345Z" fill="#E366A7"/>
<path d="M52.1332 11.5997L38.5331 11.5997C37.2812 11.5997 36.2664 12.6145 36.2664 13.8664L36.2664 27.4665C36.2664 28.7183 37.2812 29.7332 38.5331 29.7332L52.1332 29.7332C53.385 29.7332 54.3999 28.7183 54.3999 27.4665L54.3999 13.8664C54.3999 12.6145 53.385 11.5997 52.1332 11.5997Z" fill="#ECE7F5"/>
<path d="M65.7328 -2.00021L58.9328 -2.00021C57.6809 -2.00021 56.6661 -0.985383 56.6661 0.266475L56.6661 7.06654C56.6661 8.3184 57.6809 9.33323 58.9328 9.33323L65.7328 9.33323C66.9847 9.33323 67.9995 8.3184 67.9995 7.06654L67.9995 0.266475C67.9995 -0.985382 66.9847 -2.00021 65.7328 -2.00021Z" fill="#F1BFDA"/>
</svg>
