<svg xmlns="http://www.w3.org/2000/svg" xmlns:xlink="http://www.w3.org/1999/xlink" width="611" zoomAndPan="magnify" viewBox="0 0 458.25 263.250001" height="351" preserveAspectRatio="xMidYMid meet" version="1.0"><defs><filter x="0%" y="0%" width="100%" height="100%" id="06bfa38dfd"><feColorMatrix values="0 0 0 0 1 0 0 0 0 1 0 0 0 0 1 0 0 0 1 0" color-interpolation-filters="sRGB"/></filter><clipPath id="ea129890a3"><path d="M 0.277344 0 L 457.226562 0 L 457.226562 262.503906 L 0.277344 262.503906 Z M 0.277344 0 " clip-rule="nonzero"/></clipPath><mask id="f787e1f7bb"><g filter="url(#06bfa38dfd)"><rect x="-45.825" width="549.9" fill="#000000" y="-26.325" height="315.900001" fill-opacity="0.93"/></g></mask><clipPath id="ab4528688d"><path d="M 0.277344 0 L 457.226562 0 L 457.226562 262.503906 L 0.277344 262.503906 Z M 0.277344 0 " clip-rule="nonzero"/></clipPath><clipPath id="163eb80e56"><rect x="0" width="458" y="0" height="263"/></clipPath></defs><g clip-path="url(#ea129890a3)"><g mask="url(#f787e1f7bb)"><g transform="matrix(1, 0, 0, 1, 0.000000000000000056, 0.000000000000027431)"><g clip-path="url(#163eb80e56)"><g clip-path="url(#ab4528688d)"><path fill="#193b6a" d="M 394.828125 -117.4375 L 6.738281 91.855469 C 0.738281 95.09375 -1.484375 102.585938 1.785156 108.5625 L 158.953125 396.085938 C 161.230469 400.25 165.710938 402.742188 170.460938 402.464844 L 613.066406 377.078125 C 617.898438 376.800781 622.121094 373.722656 623.855469 369.210938 L 735.667969 78.171875 C 737.859375 72.460938 735.519531 66.011719 730.179688 63.03125 L 406.675781 -117.351562 C 403.003906 -119.398438 398.535156 -119.433594 394.828125 -117.4375 Z M 394.828125 -117.4375 " fill-opacity="1" fill-rule="nonzero"/></g></g></g></g></g></svg>