<svg width="580" height="388" viewBox="0 0 580 388" fill="none" xmlns="http://www.w3.org/2000/svg">
<path d="M867.917 35.7745L1041.75 457.011C1045.13 465.204 1041.42 474.605 1033.35 478.266L492.811 723.529C487.515 725.931 481.347 725.364 476.585 722.024L55.3101 427.153C48.7968 422.596 46.4777 414.034 49.7919 406.812L253.332 -36.6168C256.317 -43.1231 263.176 -46.9561 270.282 -46.0842L854.718 25.7149C860.606 26.4388 865.655 30.28 867.917 35.7663V35.7745Z" fill="#EFF6FF"/>
<path d="M485.171 -50.029L1004.1 229.821C1012.12 234.152 1015.09 244.171 1010.72 252.16L800.569 636.617C797.524 642.189 791.533 645.518 785.18 645.148L193.358 611.203C186.898 610.833 181.253 606.715 178.932 600.682L29.4256 211.524C26.496 203.889 29.6231 195.267 36.766 191.28L469.33 -49.9139C474.243 -52.6509 480.217 -52.7002 485.171 -50.029Z" fill="#5A9EFB"/>
<path d="M1.0082 195.796L5.76935 178.667C6.32605 176.664 8.40159 175.492 10.4052 176.048L24.9238 180.084C26.9274 180.641 28.1004 182.716 27.5437 184.719L22.7826 201.849C22.2259 203.852 20.1503 205.024 18.1467 204.467L3.62808 200.432C1.62445 199.875 0.451498 197.799 1.0082 195.796Z" fill="#5A9EFB"/>
</svg>
