<svg xmlns="http://www.w3.org/2000/svg" xmlns:xlink="http://www.w3.org/1999/xlink" width="327" zoomAndPan="magnify" viewBox="0 0 245.25 282.749996" height="377" preserveAspectRatio="xMidYMid meet" version="1.0"><defs><filter x="0%" y="0%" width="100%" height="100%" id="378b79c259"><feColorMatrix values="0 0 0 0 1 0 0 0 0 1 0 0 0 0 1 0 0 0 1 0" color-interpolation-filters="sRGB"/></filter><clipPath id="216a42b09a"><path d="M 0 0.304688 L 244.503906 0.304688 L 244.503906 282.195312 L 0 282.195312 Z M 0 0.304688 " clip-rule="nonzero"/></clipPath><mask id="b0d2bdea05"><g filter="url(#378b79c259)"><rect x="-24.525" width="294.3" fill="#000000" y="-28.275" height="339.299995" fill-opacity="0.7"/></g></mask><clipPath id="00ac1dd032"><path d="M 0 0.304688 L 244.503906 0.304688 L 244.503906 282.195312 L 0 282.195312 Z M 0 0.304688 " clip-rule="nonzero"/></clipPath><clipPath id="17780d8272"><rect x="0" width="245" y="0" height="283"/></clipPath></defs><g clip-path="url(#216a42b09a)"><g mask="url(#b0d2bdea05)"><g transform="matrix(1, 0, 0, 1, 0, -0.000000000000016154)"><g clip-path="url(#17780d8272)"><g clip-path="url(#00ac1dd032)"><path fill="#193b6a" d="M 128.59375 1.429688 L 425 161.101562 C 429.582031 163.574219 431.28125 169.292969 428.785156 173.847656 L 308.746094 393.207031 C 307.007812 396.386719 303.585938 398.285156 299.957031 398.074219 L -38.085938 378.707031 C -41.773438 378.496094 -45 376.144531 -46.324219 372.703125 L -131.722656 150.664062 C -133.394531 146.308594 -131.609375 141.386719 -127.527344 139.113281 L 119.546875 1.496094 C 122.351562 -0.0664062 125.765625 -0.09375 128.59375 1.429688 Z M 128.59375 1.429688 " fill-opacity="1" fill-rule="nonzero"/></g></g></g></g></g></svg>