<svg xmlns="http://www.w3.org/2000/svg" xmlns:xlink="http://www.w3.org/1999/xlink" width="88" zoomAndPan="magnify" viewBox="0 0 66 66.75" height="89" preserveAspectRatio="xMidYMid meet" version="1.0"><defs><clipPath id="8d3f685b15"><path d="M 6.699219 3.636719 L 37.332031 3.636719 L 37.332031 49.960938 L 6.699219 49.960938 Z M 6.699219 3.636719 " clip-rule="nonzero"/></clipPath><clipPath id="d17fbe43d8"><path d="M 29.070312 18 L 57.464844 18 L 57.464844 64.28125 L 29.070312 64.28125 Z M 29.070312 18 " clip-rule="nonzero"/></clipPath></defs><g clip-path="url(#8d3f685b15)"><path fill="#25569a" d="M 27.070312 13.402344 C 27.070312 14.964844 26.925781 16.46875 26.632812 17.917969 C 26.320312 19.386719 25.8125 20.746094 25.117188 21.988281 C 24.511719 23.1875 23.839844 24.140625 23.097656 24.839844 C 22.355469 25.566406 21.527344 26.277344 20.605469 26.980469 C 19.683594 27.703125 18.664062 28.664062 17.542969 29.863281 C 16.621094 30.882812 16.015625 31.890625 15.722656 32.886719 C 15.429688 33.902344 15.285156 34.992188 15.285156 36.144531 C 15.285156 36.890625 15.363281 37.59375 15.519531 38.25 C 15.679688 38.90625 15.957031 39.472656 16.363281 39.945312 C 16.992188 40.785156 17.800781 41.371094 18.789062 41.710938 C 19.773438 42.074219 20.832031 42.253906 21.953125 42.253906 C 22.875 42.253906 23.761719 42.128906 24.613281 41.882812 C 25.445312 41.65625 26.152344 41.292969 26.734375 40.792969 C 27.40625 40.25 27.902344 39.585938 28.214844 38.792969 C 28.53125 38 28.675781 37.128906 28.652344 36.179688 L 37.207031 36.179688 C 36.984375 38.441406 36.375 40.535156 35.390625 42.457031 C 34.378906 44.402344 33.054688 45.953125 31.414062 47.109375 C 30.136719 48.058594 28.699219 48.773438 27.105469 49.246094 C 25.488281 49.722656 23.871094 49.960938 22.253906 49.960938 C 19.785156 49.960938 17.460938 49.574219 15.285156 48.804688 C 13.085938 48.035156 11.253906 46.769531 9.796875 45.003906 C 8.785156 43.851562 8.023438 42.515625 7.507812 41 C 6.96875 39.480469 6.699219 37.945312 6.699219 36.382812 C 6.699219 34.050781 7.203125 31.925781 8.214844 30 C 9.203125 28.078125 10.457031 26.300781 11.984375 24.671875 C 12.703125 23.902344 13.386719 23.222656 14.039062 22.636719 C 14.691406 22.046875 15.296875 21.46875 15.859375 20.902344 C 16.394531 20.359375 16.84375 19.785156 17.203125 19.171875 C 17.832031 18.109375 18.203125 17.203125 18.316406 16.457031 C 18.429688 15.734375 18.484375 14.714844 18.484375 13.402344 Z M 27.003906 0.128906 L 27.003906 9.125 L 18.484375 9.125 L 18.484375 0.128906 Z M 27.003906 0.128906 " fill-opacity="0.2" fill-rule="nonzero"/></g><g clip-path="url(#d17fbe43d8)"><path fill="#25569a" d="M 38.503906 51.914062 C 38.503906 50.46875 38.640625 49.070312 38.914062 47.726562 C 39.207031 46.363281 39.675781 45.105469 40.324219 43.953125 C 40.886719 42.839844 41.515625 41.957031 42.203125 41.308594 C 42.894531 40.636719 43.664062 39.976562 44.523438 39.324219 C 45.378906 38.652344 46.328125 37.761719 47.375 36.648438 C 48.230469 35.703125 48.796875 34.769531 49.066406 33.847656 C 49.339844 32.902344 49.472656 31.894531 49.472656 30.824219 C 49.472656 30.132812 49.402344 29.484375 49.253906 28.875 C 49.109375 28.265625 48.847656 27.742188 48.472656 27.300781 C 47.886719 26.523438 47.132812 25.976562 46.214844 25.664062 C 45.296875 25.328125 44.3125 25.160156 43.269531 25.160156 C 42.414062 25.160156 41.585938 25.273438 40.792969 25.507812 C 40.019531 25.714844 39.363281 26.050781 38.820312 26.511719 C 38.191406 27.015625 37.730469 27.636719 37.441406 28.371094 C 37.148438 29.105469 37.011719 29.914062 37.03125 30.792969 L 29.070312 30.792969 C 29.28125 28.695312 29.84375 26.753906 30.765625 24.972656 C 31.703125 23.167969 32.9375 21.730469 34.460938 20.660156 C 35.652344 19.777344 36.992188 19.117188 38.472656 18.675781 C 39.976562 18.234375 41.484375 18.015625 42.988281 18.015625 C 45.285156 18.015625 47.449219 18.371094 49.472656 19.085938 C 51.523438 19.796875 53.222656 20.972656 54.582031 22.609375 C 55.523438 23.679688 56.234375 24.917969 56.714844 26.324219 C 57.214844 27.730469 57.464844 29.15625 57.464844 30.605469 C 57.464844 32.765625 56.996094 34.738281 56.054688 36.523438 C 55.136719 38.304688 53.964844 39.953125 52.546875 41.464844 C 51.875 42.179688 51.238281 42.808594 50.632812 43.351562 C 50.027344 43.898438 49.464844 44.433594 48.941406 44.957031 C 48.441406 45.460938 48.023438 45.996094 47.6875 46.5625 C 47.101562 47.550781 46.757812 48.390625 46.652344 49.082031 C 46.550781 49.753906 46.496094 50.699219 46.496094 51.914062 Z M 38.566406 64.222656 L 38.566406 55.882812 L 46.496094 55.882812 L 46.496094 64.222656 Z M 38.566406 64.222656 " fill-opacity="0.2" fill-rule="nonzero"/></g></svg>