<svg width="230" height="49" viewBox="0 0 230 49" fill="none" xmlns="http://www.w3.org/2000/svg">
<path d="M183.474 24.2753C183.474 25.0659 183.556 25.7065 183.706 26.1835C183.883 26.6606 184.087 27.1649 184.387 27.7237C184.496 27.9009 184.537 28.0645 184.537 28.2144C184.537 28.4325 184.414 28.6369 184.128 28.855L182.779 29.7546C182.588 29.8773 182.397 29.9454 182.22 29.9454C182.002 29.9454 181.797 29.8364 181.579 29.6456C181.279 29.3184 181.02 28.9777 180.802 28.637C180.584 28.2689 180.38 27.86 180.135 27.3694C178.458 29.3457 176.359 30.3271 173.837 30.3271C172.038 30.3271 170.607 29.8091 169.558 28.7869C168.508 27.7646 167.977 26.388 167.977 24.6706C167.977 22.8442 168.617 21.3722 169.926 20.2545C171.234 19.1368 172.965 18.578 175.173 18.578C175.896 18.578 176.659 18.6462 177.449 18.7552C178.24 18.8642 179.058 19.0278 179.916 19.2323V17.6648C179.916 16.0292 179.576 14.8979 178.908 14.23C178.226 13.5622 177.068 13.2487 175.419 13.2487C174.669 13.2487 173.892 13.3305 173.101 13.5213C172.311 13.7121 171.534 13.9438 170.784 14.2437C170.444 14.3936 170.185 14.4754 170.035 14.5163C169.885 14.5572 169.776 14.5844 169.694 14.5844C169.394 14.5844 169.244 14.3663 169.244 13.9166V12.867C169.244 12.5263 169.285 12.2673 169.394 12.1174C169.503 11.9675 169.694 11.8175 169.994 11.6676C170.743 11.286 171.643 10.9588 172.693 10.6999C173.742 10.4273 174.86 10.291 176.032 10.291C178.581 10.291 180.448 10.8634 181.647 12.022C182.82 13.1805 183.433 14.9388 183.433 17.2968V24.2345H183.474V24.2753ZM174.778 27.5329C175.487 27.5329 176.209 27.4102 176.986 27.1513C177.763 26.8923 178.444 26.4289 179.017 25.7747C179.358 25.3658 179.617 24.916 179.739 24.398C179.862 23.8801 179.957 23.2667 179.957 22.5307V21.6311C179.33 21.4812 178.676 21.3585 177.981 21.2631C177.286 21.1677 176.632 21.1405 175.964 21.1405C174.533 21.1405 173.483 21.413 172.774 21.9991C172.066 22.5716 171.725 23.3894 171.725 24.4662C171.725 25.4748 171.984 26.2244 172.515 26.7424C173.033 27.274 173.783 27.5329 174.764 27.5329H174.778ZM191.993 29.85C191.611 29.85 191.352 29.7819 191.175 29.6319C190.998 29.5093 190.848 29.2094 190.725 28.8005L185.682 12.2264C185.559 11.8039 185.491 11.5177 185.491 11.3677C185.491 11.027 185.668 10.8362 186.009 10.8362H188.108C188.517 10.8362 188.79 10.9043 188.94 11.0543C189.117 11.1769 189.239 11.4768 189.362 11.8857L192.96 26.0745L196.3 11.8857C196.409 11.4632 196.531 11.1769 196.709 11.0543C196.886 10.9316 197.186 10.8362 197.567 10.8362H199.285C199.694 10.8362 199.966 10.9043 200.143 11.0543C200.321 11.1769 200.47 11.4768 200.552 11.8857L203.933 26.2517L207.64 11.8857C207.763 11.4632 207.912 11.1769 208.062 11.0543C208.24 10.9316 208.512 10.8362 208.894 10.8362H210.884C211.225 10.8362 211.415 11.0134 211.415 11.3677C211.415 11.4768 211.388 11.5858 211.374 11.7085C211.347 11.8312 211.306 12.0084 211.225 12.2401L206.059 28.8141C205.936 29.2367 205.786 29.5229 205.609 29.6456C205.432 29.7682 205.159 29.8637 204.791 29.8637H202.951C202.542 29.8637 202.27 29.7955 202.092 29.6456C201.915 29.4956 201.765 29.223 201.684 28.7869L198.358 14.9661L195.059 28.7733C194.95 29.1958 194.828 29.482 194.65 29.6319C194.473 29.7819 194.173 29.85 193.792 29.85H191.952H191.993ZM219.525 30.4225C218.408 30.4225 217.29 30.2998 216.227 30.0408C215.15 29.7819 214.319 29.5093 213.76 29.1822C213.419 28.9913 213.187 28.7733 213.092 28.5824C213.01 28.3916 212.969 28.1735 212.969 27.9827V26.8923C212.969 26.4425 213.146 26.2244 213.46 26.2244C213.583 26.2244 213.719 26.2517 213.842 26.2926C213.964 26.3335 214.169 26.4153 214.373 26.5107C215.095 26.8378 215.9 27.0831 216.731 27.2603C217.59 27.4375 218.421 27.5193 219.28 27.5193C220.629 27.5193 221.679 27.2876 222.415 26.8105C223.137 26.3335 223.532 25.652 223.532 24.7797C223.532 24.1799 223.342 23.6893 222.96 23.2804C222.578 22.8715 221.842 22.5035 220.793 22.1627L217.685 21.195C216.118 20.7043 214.959 19.9683 214.25 19.0142C213.542 18.0737 213.174 17.0242 213.174 15.9065C213.174 15.0069 213.364 14.2164 213.746 13.5213C214.128 12.8261 214.646 12.2401 215.286 11.763C215.927 11.2723 216.663 10.9043 217.522 10.6453C218.38 10.3864 219.28 10.2773 220.22 10.2773C220.697 10.2773 221.188 10.3046 221.651 10.3591C222.142 10.4273 222.592 10.5091 223.042 10.5908C223.464 10.6999 223.873 10.8089 224.268 10.9316C224.65 11.0543 224.95 11.1906 225.168 11.3132C225.468 11.4904 225.686 11.654 225.809 11.8448C225.931 12.022 225.999 12.2537 225.999 12.5536V13.5622C225.999 14.012 225.822 14.2437 225.509 14.2437C225.332 14.2437 225.059 14.1619 224.691 13.9847C223.464 13.4259 222.101 13.1533 220.575 13.1533C219.348 13.1533 218.394 13.3441 217.726 13.753C217.058 14.1619 216.717 14.7752 216.717 15.6612C216.717 16.2609 216.936 16.7789 217.358 17.1878C217.781 17.5967 218.585 18.0056 219.716 18.3599L222.756 19.3277C224.296 19.8183 225.413 20.4998 226.081 21.3858C226.749 22.2717 227.063 23.2667 227.063 24.3844C227.063 25.3112 226.872 26.1427 226.504 26.865C226.122 27.5874 225.604 28.2417 224.936 28.746C224.268 29.2776 223.478 29.6728 222.551 29.9454C221.583 30.2453 220.575 30.3952 219.484 30.3952L219.525 30.4225Z" fill="#200020"/>
<path d="M223.573 40.8365C216.526 46.0431 206.276 48.81 197.471 48.81C185.122 48.81 174 44.244 165.604 36.6521C164.936 36.0523 165.536 35.2346 166.327 35.7116C175.418 40.9864 186.622 44.1758 198.221 44.1758C206.045 44.1758 214.645 42.5402 222.55 39.2009C223.723 38.6693 224.731 39.9778 223.573 40.8365Z" fill="#200020"/>
<path d="M226.518 37.497C225.618 36.3385 220.561 36.9382 218.271 37.2244C217.59 37.3062 217.481 36.7065 218.094 36.2567C222.129 33.4216 228.753 34.2394 229.516 35.1799C230.293 36.1476 229.298 42.7718 225.536 45.934C224.964 46.4247 224.405 46.1657 224.664 45.5251C225.523 43.3988 227.431 38.6283 226.531 37.4834L226.518 37.497Z" fill="#200020"/>
<path d="M2.22792 33.9411V12.157H4.57962V14.6737H4.86843C5.04721 14.3987 5.29476 14.048 5.61107 13.6216C5.93425 13.1884 6.39497 12.8034 6.9932 12.4664C7.59832 12.1226 8.4166 11.9507 9.44805 11.9507C10.782 11.9507 11.9579 12.2842 12.9756 12.9512C13.9933 13.6182 14.7875 14.5637 15.3582 15.7877C15.929 17.0117 16.2143 18.4557 16.2143 20.1198C16.2143 21.7976 15.929 23.2519 15.3582 24.4828C14.7875 25.7068 13.9967 26.6557 12.9859 27.3296C11.9751 27.9966 10.8096 28.3301 9.4893 28.3301C8.47161 28.3301 7.65677 28.1616 7.04478 27.8247C6.43279 27.4808 5.96176 27.0923 5.6317 26.6591C5.30163 26.219 5.04721 25.8546 4.86843 25.5658H4.66214V33.9411H2.22792ZM4.62088 20.0785C4.62088 21.275 4.79622 22.3305 5.14692 23.245C5.49761 24.1527 6.00989 24.8644 6.68377 25.3801C7.35765 25.889 8.18281 26.1434 9.15924 26.1434C10.1769 26.1434 11.0262 25.8752 11.7069 25.3389C12.3945 24.7956 12.9103 24.0668 13.2541 23.1522C13.6048 22.2308 13.7801 21.2062 13.7801 20.0785C13.7801 18.9645 13.6082 17.9606 13.2644 17.0667C12.9275 16.1659 12.4152 15.4542 11.7275 14.9316C11.0468 14.4021 10.1907 14.1374 9.15924 14.1374C8.16905 14.1374 7.33702 14.3883 6.66314 14.8903C5.98926 15.3854 5.48042 16.0799 5.1366 16.9738C4.79279 17.8609 4.62088 18.8958 4.62088 20.0785ZM26.3638 28.3301C24.9335 28.3301 23.6786 27.9897 22.599 27.3089C21.5263 26.6282 20.6874 25.6758 20.0823 24.4518C19.484 23.2278 19.1849 21.7976 19.1849 20.161C19.1849 18.5107 19.484 17.0701 20.0823 15.8393C20.6874 14.6084 21.5263 13.6526 22.599 12.9718C23.6786 12.2911 24.9335 11.9507 26.3638 11.9507C27.794 11.9507 29.0455 12.2911 30.1182 12.9718C31.1978 13.6526 32.0367 14.6084 32.635 15.8393C33.2401 17.0701 33.5426 18.5107 33.5426 20.161C33.5426 21.7976 33.2401 23.2278 32.635 24.4518C32.0367 25.6758 31.1978 26.6282 30.1182 27.3089C29.0455 27.9897 27.794 28.3301 26.3638 28.3301ZM26.3638 26.1434C27.4502 26.1434 28.3441 25.8649 29.0455 25.3079C29.7469 24.7509 30.2661 24.0186 30.603 23.1109C30.9399 22.2033 31.1084 21.22 31.1084 20.161C31.1084 19.1021 30.9399 18.1153 30.603 17.2008C30.2661 16.2862 29.7469 15.547 29.0455 14.9832C28.3441 14.4193 27.4502 14.1374 26.3638 14.1374C25.2773 14.1374 24.3834 14.4193 23.682 14.9832C22.9806 15.547 22.4615 16.2862 22.1245 17.2008C21.7876 18.1153 21.6191 19.1021 21.6191 20.161C21.6191 21.22 21.7876 22.2033 22.1245 23.1109C22.4615 24.0186 22.9806 24.7509 23.682 25.3079C24.3834 25.8649 25.2773 26.1434 26.3638 26.1434ZM40.3089 28L35.4817 12.157H38.0397L41.4641 24.2868H41.6292L45.0123 12.157H47.6115L50.9534 24.2455H51.1185L54.5429 12.157H57.1009L52.2737 28H49.8807L46.4151 15.8289H46.1675L42.7019 28H40.3089ZM66.4225 28.3301C64.896 28.3301 63.5792 27.9931 62.4721 27.3192C61.3719 26.6385 60.5227 25.6896 59.9244 24.4725C59.3331 23.2485 59.0374 21.8251 59.0374 20.2023C59.0374 18.5795 59.3331 17.1492 59.9244 15.9115C60.5227 14.6668 61.3547 13.6973 62.4205 13.0028C63.4932 12.3014 64.7447 11.9507 66.175 11.9507C67.0002 11.9507 67.815 12.0882 68.6195 12.3633C69.4241 12.6383 70.1564 13.0853 70.8165 13.7042C71.4766 14.3161 72.0027 15.1276 72.3946 16.1384C72.7866 17.1492 72.9825 18.3938 72.9825 19.8722V20.9037H60.7702V18.7995H70.5071C70.5071 17.9056 70.3283 17.1079 69.9707 16.4065C69.62 15.7052 69.1181 15.1516 68.4648 14.7459C67.8184 14.3402 67.0552 14.1374 66.175 14.1374C65.2054 14.1374 64.3665 14.378 63.6583 14.8594C62.9569 15.3338 62.4171 15.9527 62.0389 16.716C61.6607 17.4792 61.4716 18.2975 61.4716 19.1708V20.5736C61.4716 21.7701 61.6779 22.7843 62.0905 23.6164C62.5099 24.4415 63.091 25.0707 63.8336 25.5039C64.5763 25.9302 65.4392 26.1434 66.4225 26.1434C67.062 26.1434 67.6397 26.054 68.1554 25.8752C68.678 25.6896 69.1284 25.4145 69.5066 25.0501C69.8848 24.6787 70.177 24.218 70.3833 23.6679L72.735 24.3281C72.4874 25.1257 72.0714 25.8271 71.4869 26.4322C70.9025 27.0304 70.1804 27.498 69.3209 27.835C68.4614 28.165 67.4952 28.3301 66.4225 28.3301ZM76.6854 28V12.157H79.0371V14.5499H79.2022C79.491 13.766 80.0136 13.13 80.77 12.6418C81.5264 12.1535 82.379 11.9094 83.3279 11.9094C83.5067 11.9094 83.7302 11.9129 83.9984 11.9198C84.2666 11.9266 84.4694 11.9369 84.6069 11.9507V14.4262C84.5244 14.4055 84.3353 14.3746 84.0396 14.3333C83.7508 14.2852 83.4448 14.2611 83.1217 14.2611C82.3515 14.2611 81.6639 14.4227 81.0588 14.7459C80.4605 15.0622 79.9861 15.5023 79.6354 16.0662C79.2916 16.6231 79.1196 17.2592 79.1196 17.9743V28H76.6854ZM93.6527 28.3301C92.1262 28.3301 90.8094 27.9931 89.7023 27.3192C88.6021 26.6385 87.7529 25.6896 87.1546 24.4725C86.5633 23.2485 86.2676 21.8251 86.2676 20.2023C86.2676 18.5795 86.5633 17.1492 87.1546 15.9115C87.7529 14.6668 88.5849 13.6973 89.6507 13.0028C90.7234 12.3014 91.9749 11.9507 93.4052 11.9507C94.2303 11.9507 95.0452 12.0882 95.8497 12.3633C96.6542 12.6383 97.3866 13.0853 98.0467 13.7042C98.7068 14.3161 99.2328 15.1276 99.6248 16.1384C100.017 17.1492 100.213 18.3938 100.213 19.8722V20.9037H88.0004V18.7995H97.7373C97.7373 17.9056 97.5585 17.1079 97.2009 16.4065C96.8502 15.7052 96.3482 15.1516 95.695 14.7459C95.0486 14.3402 94.2853 14.1374 93.4052 14.1374C92.4356 14.1374 91.5967 14.378 90.8884 14.8594C90.1871 15.3338 89.6473 15.9527 89.2691 16.716C88.8909 17.4792 88.7018 18.2975 88.7018 19.1708V20.5736C88.7018 21.7701 88.9081 22.7843 89.3207 23.6164C89.7401 24.4415 90.3212 25.0707 91.0638 25.5039C91.8064 25.9302 92.6694 26.1434 93.6527 26.1434C94.2922 26.1434 94.8698 26.054 95.3856 25.8752C95.9082 25.6896 96.3586 25.4145 96.7367 25.0501C97.1149 24.6787 97.4072 24.218 97.6135 23.6679L99.9652 24.3281C99.7176 25.1257 99.3016 25.8271 98.7171 26.4322C98.1326 27.0304 97.4106 27.498 96.5511 27.835C95.6915 28.165 94.7254 28.3301 93.6527 28.3301ZM109.898 28.3301C108.578 28.3301 107.412 27.9966 106.401 27.3296C105.391 26.6557 104.6 25.7068 104.029 24.4828C103.458 23.2519 103.173 21.7976 103.173 20.1198C103.173 18.4557 103.458 17.0117 104.029 15.7877C104.6 14.5637 105.394 13.6182 106.412 12.9512C107.429 12.2842 108.605 11.9507 109.939 11.9507C110.971 11.9507 111.786 12.1226 112.384 12.4664C112.989 12.8034 113.45 13.1884 113.766 13.6216C114.089 14.048 114.34 14.3987 114.519 14.6737H114.725V6.87598H117.159V28H114.808V25.5658H114.519C114.34 25.8546 114.086 26.219 113.756 26.6591C113.426 27.0923 112.955 27.4808 112.343 27.8247C111.731 28.1616 110.916 28.3301 109.898 28.3301ZM110.228 26.1434C111.205 26.1434 112.03 25.889 112.704 25.3801C113.377 24.8644 113.89 24.1527 114.24 23.245C114.591 22.3305 114.766 21.275 114.766 20.0785C114.766 18.8958 114.595 17.8609 114.251 16.9738C113.907 16.0799 113.398 15.3854 112.724 14.8903C112.05 14.3883 111.218 14.1374 110.228 14.1374C109.197 14.1374 108.337 14.4021 107.649 14.9316C106.969 15.4542 106.456 16.1659 106.113 17.0667C105.776 17.9606 105.607 18.9645 105.607 20.0785C105.607 21.2062 105.779 22.2308 106.123 23.1522C106.474 24.0668 106.989 24.7956 107.67 25.3389C108.358 25.8752 109.21 26.1434 110.228 26.1434ZM130.455 28V6.87598H132.889V14.6737H133.095C133.274 14.3987 133.522 14.048 133.838 13.6216C134.161 13.1884 134.622 12.8034 135.22 12.4664C135.825 12.1226 136.643 11.9507 137.675 11.9507C139.009 11.9507 140.185 12.2842 141.202 12.9512C142.22 13.6182 143.014 14.5637 143.585 15.7877C144.156 17.0117 144.441 18.4557 144.441 20.1198C144.441 21.7976 144.156 23.2519 143.585 24.4828C143.014 25.7068 142.224 26.6557 141.213 27.3296C140.202 27.9966 139.036 28.3301 137.716 28.3301C136.698 28.3301 135.884 28.1616 135.272 27.8247C134.66 27.4808 134.189 27.0923 133.858 26.6591C133.528 26.219 133.274 25.8546 133.095 25.5658H132.806V28H130.455ZM132.848 20.0785C132.848 21.275 133.023 22.3305 133.374 23.245C133.724 24.1527 134.237 24.8644 134.911 25.3801C135.584 25.889 136.41 26.1434 137.386 26.1434C138.404 26.1434 139.253 25.8752 139.934 25.3389C140.621 24.7956 141.137 24.0668 141.481 23.1522C141.832 22.2308 142.007 21.2062 142.007 20.0785C142.007 18.9645 141.835 17.9606 141.491 17.0667C141.154 16.1659 140.642 15.4542 139.954 14.9316C139.274 14.4021 138.417 14.1374 137.386 14.1374C136.396 14.1374 135.564 14.3883 134.89 14.8903C134.216 15.3854 133.707 16.0799 133.363 16.9738C133.02 17.8609 132.848 18.8958 132.848 20.0785ZM149.165 33.9411C148.753 33.9411 148.385 33.9067 148.062 33.838C147.738 33.7761 147.515 33.7142 147.391 33.6523L148.01 31.5069C148.601 31.6582 149.124 31.7132 149.578 31.6719C150.032 31.6307 150.434 31.4278 150.785 31.0634C151.142 30.7058 151.469 30.1248 151.764 29.3203L152.218 28.0825L146.36 12.157H149L153.373 24.7819H153.538L157.912 12.157H160.552L153.827 30.3104C153.525 31.1287 153.15 31.806 152.703 32.3424C152.256 32.8856 151.737 33.2879 151.146 33.5492C150.561 33.8105 149.901 33.9411 149.165 33.9411Z" fill="#200020"/>
</svg>
