<svg width="24" height="24" viewBox="0 0 24 24" fill="none" xmlns="http://www.w3.org/2000/svg">
<g clip-path="url(#clip0_166_51024)">
<path d="M11.594 1.22042C11.594 6.95339 16.2421 11.594 21.9676 11.594C16.2346 11.594 11.594 16.2422 11.594 21.9676C11.594 16.2346 6.94582 11.594 1.22039 11.594C6.95335 11.594 11.594 6.94586 11.594 1.22042ZM11.594 0C10.9235 0 10.3735 0.54241 10.3735 1.22042C10.3735 6.26784 6.26781 10.3811 1.21285 10.3811C0.542375 10.3811 -0.00756836 10.9235 -0.00756836 11.6015C-0.00756836 12.2796 0.534841 12.822 1.21285 12.822C6.26028 12.822 10.3735 16.9277 10.3735 21.9827C10.3735 22.6531 10.916 23.2031 11.594 23.2031C12.272 23.2031 12.8144 22.6607 12.8144 21.9827C12.8144 16.9352 16.9201 12.822 21.9751 12.822C22.6456 12.822 23.1955 12.2796 23.1955 11.6015C23.1955 10.9235 22.6531 10.3811 21.9751 10.3811C16.9277 10.3811 12.8144 6.27538 12.8144 1.22042C12.8144 0.549943 12.272 0 11.594 0Z" fill="#ECE7F5"/>
</g>
<defs>
<clipPath id="clip0_166_51024">
<rect width="23.188" height="23.188" fill="white"/>
</clipPath>
</defs>
</svg>
