<svg width="487" height="107" viewBox="0 0 487 107" fill="none" xmlns="http://www.w3.org/2000/svg">
<path d="M459.854 12.1057H27.1455C26.6453 12.1057 26.2451 11.7167 26.2451 11.2275C26.2451 10.7384 26.6453 10.3494 27.1455 10.3494H459.843C460.343 10.3494 460.743 10.7384 460.743 11.2275C460.743 11.7167 460.343 12.1057 459.843 12.1057H459.854Z" fill="#FF0084"/>
<path d="M11.238 80.4813C10.7489 80.4813 10.3599 80.0477 10.3599 79.5142V27.8572C10.3599 27.3237 10.7489 26.8901 11.238 26.8901C11.7272 26.8901 12.1162 27.3237 12.1162 27.8572V79.503C12.1162 80.0366 11.7272 80.4701 11.238 80.4701V80.4813Z" fill="#FF0084"/>
<path d="M475.762 80.4813C475.273 80.4813 474.884 80.0477 474.884 79.5142V27.8572C474.884 27.3237 475.273 26.8901 475.762 26.8901C476.251 26.8901 476.64 27.3237 476.64 27.8572V79.503C476.64 80.0366 476.251 80.4701 475.762 80.4701V80.4813Z" fill="#FF0084"/>
<path d="M475.761 1.17832C475.761 6.73641 480.263 11.2385 485.822 11.2385C480.263 11.2385 475.761 15.7405 475.761 21.2986C475.761 15.7405 471.259 11.2385 465.701 11.2385C471.259 11.2385 475.761 6.73641 475.761 1.17832ZM475.761 0C475.106 0 474.583 0.533577 474.583 1.17832C474.583 6.06944 470.604 10.0601 465.701 10.0601C465.045 10.0601 464.523 10.5937 464.523 11.2385C464.523 11.8832 465.057 12.4168 465.701 12.4168C470.592 12.4168 474.583 16.3964 474.583 21.2986C474.583 21.9545 475.117 22.4769 475.761 22.4769C476.406 22.4769 476.94 21.9434 476.94 21.2986C476.94 16.4075 480.919 12.4168 485.822 12.4168C486.477 12.4168 487 11.8832 487 11.2385C487 10.5937 486.466 10.0601 485.822 10.0601C480.93 10.0601 476.94 6.08055 476.94 1.17832C476.94 0.522461 476.406 0 475.761 0Z" fill="#FF0084"/>
<path d="M11.2385 1.17832C11.2385 6.73641 15.7405 11.2385 21.2986 11.2385C15.7405 11.2385 11.2385 15.7405 11.2385 21.2986C11.2385 15.7405 6.73641 11.2385 1.17832 11.2385C6.73641 11.2385 11.2385 6.73641 11.2385 1.17832ZM11.2385 0C10.5826 0 10.0601 0.533577 10.0601 1.17832C10.0601 6.06944 6.08055 10.0601 1.17832 10.0601C0.522461 10.0601 0 10.5937 0 11.2385C0 11.8832 0.533577 12.4168 1.17832 12.4168C6.06944 12.4168 10.0601 16.3964 10.0601 21.2986C10.0601 21.9545 10.5937 22.4769 11.2385 22.4769C11.8832 22.4769 12.4168 21.9434 12.4168 21.2986C12.4168 16.4075 16.3964 12.4168 21.2986 12.4168C21.9545 12.4168 22.4769 11.8832 22.4769 11.2385C22.4769 10.5937 21.9434 10.0601 21.2986 10.0601C16.4075 10.0601 12.4168 6.08055 12.4168 1.17832C12.4168 0.522461 11.8832 0 11.2385 0Z" fill="#FF0084"/>
<path d="M459.854 96.0217H27.1455C26.6453 96.0217 26.2451 95.6327 26.2451 95.1436C26.2451 94.6544 26.6453 94.2654 27.1455 94.2654H459.843C460.343 94.2654 460.743 94.6544 460.743 95.1436C460.743 95.6327 460.343 96.0217 459.843 96.0217H459.854Z" fill="#FF0084"/>
<path d="M475.761 85.1054C475.761 90.6635 480.263 95.1656 485.822 95.1656C480.263 95.1656 475.761 99.6677 475.761 105.226C475.761 99.6677 471.259 95.1656 465.701 95.1656C471.259 95.1656 475.761 90.6635 475.761 85.1054ZM475.761 83.916C475.106 83.916 474.583 84.4496 474.583 85.0943C474.583 89.9855 470.604 93.9762 465.701 93.9762C465.045 93.9762 464.523 94.5097 464.523 95.1545C464.523 95.7992 465.057 96.3328 465.701 96.3328C470.592 96.3328 474.583 100.312 474.583 105.215C474.583 105.87 475.117 106.393 475.761 106.393C476.406 106.393 476.94 105.859 476.94 105.215C476.94 100.324 480.919 96.3328 485.822 96.3328C486.477 96.3328 487 95.7992 487 95.1545C487 94.5097 486.466 93.9762 485.822 93.9762C480.93 93.9762 476.94 89.9966 476.94 85.0943C476.94 84.4385 476.406 83.916 475.761 83.916Z" fill="#FF0084"/>
<path d="M11.2385 85.1054C11.2385 90.6635 15.7405 95.1656 21.2986 95.1656C15.7405 95.1656 11.2385 99.6677 11.2385 105.226C11.2385 99.6677 6.73641 95.1656 1.17832 95.1656C6.73641 95.1656 11.2385 90.6635 11.2385 85.1054ZM11.2385 83.916C10.5826 83.916 10.0601 84.4496 10.0601 85.0943C10.0601 89.9855 6.08055 93.9762 1.17832 93.9762C0.522461 93.9762 0 94.5097 0 95.1545C0 95.7992 0.533577 96.3328 1.17832 96.3328C6.06944 96.3328 10.0601 100.312 10.0601 105.215C10.0601 105.87 10.5937 106.393 11.2385 106.393C11.8832 106.393 12.4168 105.859 12.4168 105.215C12.4168 100.324 16.3964 96.3328 21.2986 96.3328C21.9545 96.3328 22.4769 95.7992 22.4769 95.1545C22.4769 94.5097 21.9434 93.9762 21.2986 93.9762C16.4075 93.9762 12.4168 89.9966 12.4168 85.0943C12.4168 84.4385 11.8832 83.916 11.2385 83.916Z" fill="#FF0084"/>
</svg>
