<svg width="375" height="494" viewBox="0 0 375 494" fill="none" xmlns="http://www.w3.org/2000/svg">
<path d="M525.721 296.296L441.082 577.426C439.771 581.773 435.19 584.216 430.868 582.873L222.886 518.305C219.872 517.37 217.657 514.774 217.205 511.634L174.929 219.252C174.467 216.06 175.91 212.896 178.616 211.165L353.153 99.6238C356.578 97.4371 361.085 98.1107 363.735 101.204L524.091 288.571C525.911 290.7 526.529 293.612 525.721 296.296Z" fill="#5A9EFB"/>
<path d="M425.354 200.533L542.507 480.737C544.785 486.186 542.28 492.44 536.843 494.875L172.559 658.022C168.99 659.62 164.833 659.242 161.625 657.021L-122.285 460.875C-126.674 457.844 -128.237 452.148 -126.004 447.344L11.1681 152.379C13.1799 148.051 17.8022 145.502 22.5907 146.082L416.459 193.842C420.427 194.323 423.83 196.879 425.354 200.528V200.533Z" fill="url(#paint0_linear_2087_19253)"/>
<path d="M345.696 82.4417L353.713 77.9508C354.65 77.4257 355.842 77.7555 356.375 78.6876L360.235 85.4411C360.768 86.3731 360.44 87.5544 359.503 88.0795L351.486 92.5704C350.549 93.0955 349.357 92.7656 348.824 91.8336L344.964 85.08C344.431 84.148 344.759 82.9668 345.696 82.4417Z" fill="#5A9EFB"/>
<defs>
<linearGradient id="paint0_linear_2087_19253" x1="208.166" y1="146" x2="208.166" y2="659" gradientUnits="userSpaceOnUse">
<stop stop-color="#F8FBFF"/>
<stop offset="1" stop-color="#DFECFE"/>
</linearGradient>
</defs>
</svg>
