<svg width="390" height="5" viewBox="0 0 390 5" fill="none" xmlns="http://www.w3.org/2000/svg">
<g clip-path="url(#clip0_5129_3043)">
<path d="M26.2326 4.68863C26.3833 4.68645 26.6177 4.77784 26.7893 4.72344L26.9525 4.67122C27.1074 4.62118 27.0907 4.76696 27.2874 4.78872L27.3753 4.63206L27.6474 4.71474C27.7269 4.6908 27.7939 4.66252 27.8316 4.66905C28.4845 4.76696 28.1748 4.63641 28.6394 4.75173L27.9697 4.80177C28.4929 4.84529 29.7487 4.78872 30.2844 4.83441C30.6109 4.86269 31.0086 4.82788 31.3225 4.83876C31.783 4.85399 32.2099 4.87575 32.6829 4.87792L33.9554 4.88663C34.4284 4.8888 34.9391 4.87792 35.3869 4.8888L36.6217 4.92144C36.9943 4.93232 37.3543 4.92144 37.7394 4.92362L39.3593 4.93885C39.8155 4.9432 40.3429 4.91274 40.7531 4.93232C41.2345 4.95408 41.6489 4.95843 42.1428 4.95843L43.3107 4.96278C43.8088 4.96278 44.332 5.00847 44.8301 4.99759C46.2114 4.96931 46.877 4.99759 48.296 4.98236L49.0913 4.97366C49.3299 4.97148 49.6061 4.98019 49.8531 4.98454C50.5689 4.99759 51.0544 4.93449 52.0716 4.93449C52.465 4.93449 52.9045 4.97366 53.3022 4.94537C53.9468 4.89751 54.4324 4.91056 54.9974 4.95843L56.2364 4.90403C56.3453 4.89968 56.5881 4.93014 56.6927 4.93449C57.2243 4.91709 57.9275 4.85617 58.3963 4.90839C58.7437 4.94755 58.8777 4.9432 59.3172 4.91491L60.485 4.84529C60.8743 4.82135 61.205 4.84529 61.5524 4.86922C62.264 4.82135 62.5779 4.86052 63.2435 4.84964C63.5114 4.84529 63.7081 4.84746 63.9551 4.86052L64.4657 4.85617C65.1145 4.85181 65.7508 4.83223 66.3787 4.84746L67.0693 4.86487C67.5883 4.87792 68.0739 4.85617 68.6264 4.8257C69.2501 4.79307 69.3841 4.8801 70.5393 4.80395C70.5812 4.80177 70.6817 4.73432 70.7068 4.74302L70.8324 4.78872C70.8156 4.8257 70.8031 4.83441 70.8324 4.83006C70.9161 4.81918 70.9956 4.81047 71.0123 4.79524C71.0375 4.77349 71.0626 4.75173 71.0751 4.7452C71.0877 4.73867 71.1547 4.74085 71.1923 4.7452L71.3305 4.75608C71.3556 4.75608 71.297 4.77784 71.2719 4.78436L71.0919 4.83441C71.8914 4.85399 72.5318 4.79089 73.4317 4.81047L74.0429 4.76478L74.2563 4.82135C74.3066 4.83441 74.4405 4.77784 74.5535 4.74302L74.6875 4.86704L340.227 4.66252L341.122 4.65599C341.194 4.65599 341.336 4.69298 341.399 4.67993C341.474 4.66469 341.637 4.62553 341.729 4.6016C341.859 4.65164 342.01 4.70168 342.177 4.72344L342.466 4.59289C342.508 4.64294 342.634 4.69516 342.759 4.69298C342.851 4.69298 342.964 4.69298 342.96 4.6821L342.935 4.63641L343.429 4.62553L344.073 4.6103C344.107 4.54285 344.262 4.47758 344.433 4.49281L344.375 4.57766C344.358 4.59942 344.555 4.62118 344.618 4.62988L344.756 4.64946C344.793 4.65382 344.89 4.63859 344.952 4.62988C344.969 4.57549 344.973 4.5559 344.961 4.60377C345.195 4.64729 345.346 4.64294 345.614 4.64076L346.602 4.63423C346.723 4.62771 346.723 4.62335 346.572 4.58637C346.38 4.59289 346.518 4.58637 346.673 4.57766L346.874 4.58854C346.928 4.59072 346.999 4.56896 347.125 4.53632C347.125 4.48193 347.146 4.48628 347.192 4.53197C347.271 4.55155 347.372 4.59072 347.443 4.58201L347.795 4.53415C347.828 4.52109 347.82 4.52544 347.64 4.59289L348.209 4.53415L348.368 4.40577C348.418 4.41013 348.531 4.41883 348.519 4.43188L348.423 4.51456C348.46 4.51456 348.615 4.51456 348.632 4.53197L348.728 4.62988L348.841 4.52327L349.302 4.54285C349.352 4.54285 349.465 4.56678 349.511 4.57331C349.557 4.57984 349.666 4.53415 349.695 4.52544C349.775 4.5559 349.938 4.58419 350.072 4.58201H350.348C350.398 4.57766 350.361 4.52544 350.361 4.49281C350.453 4.47758 350.691 4.50586 350.787 4.53197C350.792 4.51021 350.808 4.45147 350.808 4.45582C351.026 4.4841 351.135 4.49498 351.34 4.51456C351.503 4.5298 351.65 4.56896 351.872 4.56026C352.022 4.55373 352.232 4.51674 352.353 4.4841L352.592 4.54503L352.73 4.46452C352.751 4.45147 352.889 4.44929 352.893 4.46235V4.56678L353.111 4.46887L353.303 4.52327C353.345 4.53632 353.462 4.49933 353.558 4.47105L353.898 4.52544C353.973 4.50151 354.061 4.46452 354.082 4.47322L354.253 4.53197C354.304 4.57766 354.312 4.56896 354.291 4.52109L354.408 4.43841L354.571 4.51892C354.601 4.53415 354.735 4.52327 354.806 4.5298C354.89 4.54503 354.998 4.56678 355.057 4.55808L355.325 4.51456L355.4 4.54938C355.421 4.55808 355.538 4.56461 355.551 4.54938L355.635 4.4754C355.702 4.5385 355.785 4.57549 355.982 4.59724C356.434 4.64729 356.145 4.50151 356.782 4.53197L356.953 4.49063C356.982 4.4841 356.844 4.47322 356.807 4.47105C356.748 4.45364 356.715 4.44494 356.756 4.45799L357.372 4.44059L357.204 4.48845C357.162 4.50151 357.2 4.52327 357.259 4.57549L357.598 4.4754C357.623 4.46887 357.665 4.43841 357.682 4.44494L357.807 4.4841C357.841 4.49498 358.029 4.45364 358.046 4.46887L358.129 4.54938C358.159 4.57766 358.33 4.56026 358.326 4.54938C358.326 4.5472 358.268 4.51674 358.268 4.50804C358.28 4.47758 358.435 4.4036 358.498 4.39272L358.468 4.48628H359.059C359.1 4.4841 359.201 4.421 359.234 4.42753C359.272 4.43406 359.331 4.44494 359.356 4.45364C359.381 4.46235 359.301 4.50369 359.268 4.51456L359.113 4.56461C359.08 4.57549 359.1 4.61248 359.142 4.60595C359.205 4.59724 359.352 4.57114 359.402 4.5559L359.687 4.48193C359.8 4.45147 360.168 4.60377 360.13 4.51892C360.126 4.50804 360.109 4.47758 360.084 4.47105L359.871 4.41883C360.088 4.41883 360.36 4.40577 360.503 4.34703C360.612 4.30134 360.469 4.24694 360.335 4.23606C360.285 4.23171 360.21 4.22083 360.239 4.2143C360.524 4.15121 360.507 4.26 360.712 4.23171L361.168 4.17296L360.766 4.30786L361.013 4.421C360.896 4.48193 360.926 4.46887 360.997 4.42971C361.03 4.41665 361.114 4.39054 361.152 4.3949L361.369 4.41665C361.369 4.36008 361.369 4.32527 361.373 4.27958L361.386 4.20778C361.386 4.19255 361.474 4.16644 361.553 4.14033L361.625 4.1512L361.738 4.19037L361.955 4.12292C362.01 4.10551 362.206 4.15121 362.152 4.15773L361.83 4.32309L361.729 4.26217C361.708 4.24912 361.541 4.28828 361.558 4.30134C361.683 4.41448 361.532 4.39925 361.47 4.44494C361.47 4.44494 361.578 4.45799 361.604 4.45799L362.227 4.40577C362.252 4.42971 362.307 4.48628 362.365 4.50151C362.437 4.52109 362.679 4.46235 362.771 4.44276L362.91 4.41013C362.985 4.39272 362.884 4.41883 362.997 4.49498C363.111 4.57114 363.274 4.33832 363.337 4.3949L363.429 4.47758L363.931 4.34485C364.056 4.31221 364.236 4.40795 364.266 4.44929L364.308 4.50151C364.308 4.50151 364.383 4.49281 364.509 4.45582C364.483 4.41013 364.563 4.44494 364.592 4.47322L364.617 4.53632C364.617 4.53632 364.684 4.53632 364.709 4.5298L364.814 4.49933L364.927 4.48845C364.927 4.48845 364.91 4.47322 364.889 4.45799L364.789 4.37531C364.768 4.35573 364.906 4.30786 364.948 4.29698L365.09 4.43624L365.162 4.50586C365.187 4.5298 365.643 4.51021 365.727 4.47975C365.877 4.42753 365.622 4.31439 365.702 4.29481L366.015 4.22083L365.89 4.11857C365.869 4.10334 365.756 4.06635 365.81 4.05765L366.07 4.02066C366.999 3.88576 366.857 4.1425 367.305 3.99455C367.397 3.96409 367.493 3.93362 367.556 3.92492C367.635 3.91404 367.732 3.95103 367.845 3.9902L367.916 3.95973L367.979 3.92057C368 3.90751 368.113 3.8727 368.121 3.88358L368.167 3.94015C368.167 3.94015 368.167 3.98149 368.167 3.98802C368.159 3.99672 368.284 3.97061 368.293 3.96191L368.443 3.84877L368.82 3.89664L369.201 3.87053C369.452 3.85312 369.774 3.79655 370.017 3.74651V3.84659C370.189 3.83136 370.394 3.77261 370.549 3.71169C370.578 3.70734 370.821 3.72475 370.808 3.74651L370.733 3.86617L371.193 3.67906L371.344 3.71604C371.344 3.71604 371.373 3.71604 371.44 3.69211L371.775 3.60508L371.553 3.72475C371.461 3.77044 371.478 3.77697 371.637 3.73345C371.863 3.68993 371.934 3.52675 372.106 3.5855L372.273 3.64207L372.57 3.57462C372.667 3.59855 372.763 3.62248 372.646 3.5942C373.42 3.28306 373.537 3.42666 373.634 3.38967L373.835 3.31134C373.868 3.29829 373.985 3.27218 374.031 3.27218C374.077 3.27218 374.128 3.31787 374.094 3.32875L373.897 3.38967C373.818 3.40273 373.939 3.38315 374.019 3.36792L374.236 3.32005C374.303 3.30482 374.45 3.34616 374.492 3.36356L374.655 3.42666C374.701 3.44407 374.601 3.51369 374.55 3.51587C374.404 3.54851 374.324 3.56591 374.379 3.55286C374.718 3.54633 374.894 3.53545 375.157 3.50282L374.864 3.48323C374.789 3.47888 374.898 3.40273 374.91 3.37879L374.718 3.3331C374.668 3.32222 374.739 3.25695 374.81 3.24825C375.027 3.22431 375.207 3.3157 375.241 3.30264L375.379 3.24825C375.379 3.24825 375.463 3.22866 375.488 3.22214C375.521 3.21343 375.517 3.25912 375.509 3.27L375.471 3.32005C375.463 3.3331 375.542 3.35704 375.534 3.34616L375.643 3.28959C375.643 3.28959 375.664 3.28523 375.794 3.3331C375.71 3.35704 375.798 3.3331 375.89 3.30482L375.814 3.14598C375.806 3.12422 375.986 3.07636 376.049 3.06983L376.493 3.02849L376.384 3.19385C376.371 3.24389 376.451 3.20908 376.505 3.16992L376.664 2.95669C376.903 3.02631 377.217 3.01543 377.556 2.94798L377.765 2.90664C377.815 2.89794 377.932 2.92188 377.958 2.92405L378.125 2.82614C378.158 2.80656 378.338 2.83702 378.397 2.83919L379.18 2.66513L379.297 2.69994C379.544 2.59986 379.716 2.56722 380.03 2.54764L380.473 2.44537L380.373 2.53458L380.821 2.42362L380.523 2.3888C380.318 2.36487 380.883 2.23867 381.013 2.07766L381.331 2.21256L381.361 2.11465L381.838 1.98628C381.988 2.04503 382.085 2.09507 382.206 2.16905C382.34 2.12553 382.34 2.0559 382.269 1.98628C382.332 1.9667 382.608 1.92318 382.729 1.90795C382.834 1.94059 382.897 1.96017 382.826 1.93841C382.855 1.8492 383.035 1.8318 383.219 1.78175C383.546 1.69255 383.826 1.63162 384.224 1.59246L385.902 1.4271C386.363 1.3814 386.836 1.3727 387.363 1.35094C387.116 1.3009 386.911 1.18993 387.028 1.08114C387.112 1.05939 387.392 1.05939 387.51 1.05068C387.911 1.01805 388.343 0.985409 388.765 0.961475L390.004 0.887497C388.811 0.783059 387.514 0.756949 386.35 0.630752C385.802 0.572005 385.371 0.484973 384.743 0.471919L384.261 0.461039C383.985 0.424051 383.6 0.397941 383.294 0.36748C382.65 0.304381 381.901 0.223876 381.156 0.226052C380.256 0.230404 380.816 0.156427 379.674 0.199943C379.259 0.215174 378.975 0.197767 378.606 0.169481C378.142 0.132493 377.526 0.182536 377.041 0.176009L376.359 0.112911C375.994 0.145548 375.693 0.152075 375.354 0.147724L374.312 0.132493L372.909 0.147724C372.428 0.152075 371.98 0.162954 371.528 0.167306C371.193 0.169482 370.829 0.149899 370.511 0.167306C370.31 0.176009 369.372 0.171657 369.151 0.136844L367.748 0.147724C367.468 0.147724 367.275 0.143372 367.012 0.130317C366.325 0.102032 365.848 0.149899 365.157 0.117262C364.864 0.102031 364.504 0.106383 364.182 0.106383H362.759C362.453 0.104208 362.185 0.075922 361.892 0.0628672L361.11 0.0280542C360.846 0.0171752 360.444 0.0454602 360.164 0.0411086C359.544 0.0302296 358.979 0.019351 358.33 0.0411086C357.887 0.0541635 357.359 0.108559 356.945 0.0780973C356.447 0.0411086 355.995 0.03023 355.467 0.0324059H354.157L353.37 0.0367575C353.09 0.0367575 352.763 0.0106478 352.474 0.019351C352.206 0.0280542 351.846 0.0737462 351.625 0.0672188C350.268 0.0258784 350.997 0.0889769 349.779 0.0846252L348.682 0.0802732C348.184 0.0802732 347.69 0.0846248 347.188 0.0955038C345.798 0.125965 345.241 0.0802736 343.755 0.143372C342.763 0.184712 342.742 0.121614 341.441 0.152075C341.051 0.160778 340.742 0.169481 340.39 0.149899C339.297 0.0911522 74.3275 0.308733 73.482 0.267393C73.0969 0.24781 72.6825 0.286975 72.3099 0.284799L71.0458 0.273921C70.6524 0.271745 70.0956 0.319612 69.7692 0.308733C68.6683 0.269568 69.3213 0.302206 67.8855 0.328315C67.6511 0.332667 67.3288 0.297854 67.0735 0.295678C65.6713 0.278272 64.2732 0.306557 62.8333 0.319612L60.4725 0.339194C59.6521 0.345722 58.8526 0.313085 58.1452 0.326139L56.9815 0.347898L55.6128 0.360952C55.1314 0.365304 54.7086 0.376183 54.2482 0.376183L51.7702 0.384886L49.3926 0.378359C48.2625 0.376183 48.2416 0.458864 46.9063 0.43493C45.0938 0.402293 43.3107 0.410996 41.4689 0.439281L38.8612 0.478446L38.1245 0.458863L37.0654 0.467567L36.1571 0.489325H34.3907C34.0391 0.491501 33.6708 0.508907 33.3359 0.515434C32.7373 0.526313 32.1974 0.537192 31.5862 0.572005C31.423 0.580709 31.1216 0.572005 30.9416 0.572005C30.364 0.567654 29.8282 0.591588 29.2464 0.615521C27.1828 0.693851 28.179 0.615521 26.4293 0.661213L23.809 0.730839C23.3946 0.741718 22.909 0.778707 22.5323 0.767828C22.051 0.752597 21.6659 0.765652 21.1636 0.785234L19.8701 0.837454L19.0079 0.872267L18.1665 0.920134C17.5345 0.954947 16.6638 0.983232 16.1573 0.935365L15.9522 0.98976C15.9229 0.998463 15.8978 0.970178 15.8643 0.946244L15.0272 0.972353L14.0686 1.01369C13.8133 1.02457 13.491 1.05721 13.2817 1.1029C12.4864 1.05939 13.1687 1.15512 12.3985 1.08985C12.2227 1.07462 11.8836 1.08985 11.6911 1.10508C11.7329 1.14207 11.7497 1.15512 11.7497 1.16165L11.7664 1.20516C11.7664 1.20516 11.6827 1.18558 11.6576 1.17688L11.5655 1.14424C11.5446 1.13771 11.4818 1.10943 11.465 1.11813L11.3353 1.17906L9.94979 1.20734C10.2763 1.27914 10.6907 1.23345 11.0172 1.25956L11.8669 1.32919L12.1766 1.42927C12.1599 1.45321 12.1055 1.5076 12.139 1.52501C12.1599 1.53589 12.3148 1.57288 12.3273 1.55982L12.4152 1.47279H12.5575C12.5575 1.47279 12.6287 1.48367 12.6622 1.48802L12.7878 1.50325L12.8506 1.41187C12.8631 1.39011 13.1226 1.34224 13.1268 1.36182C13.1436 1.48149 13.0598 1.52501 13.1268 1.53371L13.2273 1.54677C13.3445 1.56417 13.3361 1.5707 13.4073 1.54894L13.5412 1.51195C13.5663 1.50543 13.4868 1.4902 13.4617 1.47932L13.3821 1.45321C13.3821 1.45321 13.3487 1.4358 13.2942 1.40969C13.2608 1.41187 13.3989 1.39881 13.4198 1.39664L13.6752 1.44668L14.1733 1.40534C14.8388 1.35094 14.9351 1.6512 14.9811 1.53371L15.0021 1.48149C15.0021 1.48149 15.0062 1.43798 15.023 1.44233C15.0481 1.45103 15.1318 1.48149 15.1653 1.4902L15.5923 1.60116C15.7722 1.50325 15.4499 1.5076 15.5337 1.44015C15.5588 1.42275 15.7136 1.40316 15.7597 1.40969C15.7806 1.41187 15.8643 1.4271 15.8685 1.43145L16.0066 1.52718L16.082 1.44015C16.0945 1.42492 16.0945 1.39228 16.128 1.39446C16.1866 1.39664 16.2452 1.39446 16.2536 1.40316C16.2704 1.41622 16.2745 1.44886 16.2662 1.47279L16.1448 1.82092C16.1448 1.82092 16.2452 1.86443 16.2285 1.87314L16.149 1.9036L15.8853 1.88402C15.6634 1.90577 15.3871 1.90577 15.0732 1.89925L15.1025 1.96887L15.1946 2.01456C15.1946 2.01456 15.1653 2.04503 15.1402 2.06026C15.1151 2.07549 15.0021 2.05155 14.9686 2.04285C14.9476 1.95147 14.9225 1.87531 14.8807 1.7861L14.8556 1.73171C14.8472 1.71865 14.709 1.74041 14.6672 1.74912C14.6546 1.75129 14.5918 1.7861 14.5918 1.79046L14.73 2.01239C14.73 2.01239 14.6965 2.04938 14.6839 2.05373L14.5918 2.08854C14.5918 2.08854 14.5625 2.09724 14.5584 2.09072L14.5207 2.03632C14.4914 1.98845 14.5542 1.9123 14.5416 1.90577C14.4495 1.86661 14.0979 1.88402 13.8593 1.90577L13.7631 1.8318L13.6793 1.81221L13.5663 1.86008L13.2649 1.83832C13.2189 1.83397 13.1436 1.82092 13.1268 1.82962C13.1101 1.83832 13.0598 1.87314 13.0305 1.87749L12.5575 1.95582H12.0762C11.9715 1.95364 11.7748 1.92536 11.7539 1.89707C11.7497 1.88837 11.8585 1.83615 11.8878 1.8318L12.0511 1.80569C12.0762 1.80134 12.0762 1.79046 12.0511 1.78828C12.0259 1.7861 11.9339 1.77523 11.9087 1.77523L11.6785 1.76652C11.4567 1.75782 11.9004 1.85791 11.5906 1.99498L11.5237 1.95147C11.4902 1.92971 11.3395 1.9123 11.2892 1.92753C11.2348 1.94494 11.1427 1.99498 11.1595 2.01239L11.2306 2.07766C11.2306 2.07766 11.1093 2.09072 11.0423 2.09289C10.9628 2.09289 10.8037 2.04067 10.8497 2.01674L11.1093 1.89054L10.6572 1.87749C10.72 1.93406 10.766 1.97975 10.7618 2.00804C10.7618 2.02327 10.5567 2.06026 10.5274 2.04938L10.3893 2.00586C10.3098 1.97975 10.2302 1.94929 10.113 1.89925L10.0377 2.02109L9.90793 1.99498L9.83677 1.97975L9.74468 2.01239C9.72375 2.01892 9.71538 2.01892 9.7112 2.01239C9.69864 2.00151 9.66515 1.96887 9.65259 1.96017L9.32192 1.72083L9.65678 1.63597C9.28424 1.66644 9.10844 1.65773 8.90752 1.59899L8.77776 1.63597C8.42615 1.73389 8.06617 1.71865 8.32151 1.73824C8.38011 1.74259 8.52661 1.75129 8.58103 1.74912C9.16286 1.72518 9.17541 1.96887 9.10844 2.04503L8.94101 1.99933C8.94101 1.99933 8.87822 2.00369 8.85729 2.00369L8.82799 2.08201C8.43452 2.02762 8.44708 2.09724 8.25035 1.96234C8.25035 1.90577 8.25035 1.97105 8.25035 2.01021L8.20012 2.06678C8.19175 2.07766 8.20849 2.07549 8.08292 2.06243L7.96571 2.10377L7.60155 1.85791V2.04938C7.14111 2.04067 6.79787 1.98845 6.46301 1.86661L6.57184 2.0385C6.24535 1.97322 6.30813 1.82745 6.5551 1.74041C6.59277 1.7143 6.48394 1.67514 6.37929 1.65773C6.28721 1.6425 6.16163 1.66644 5.9942 1.68819C5.36633 1.76217 4.64637 1.80134 4.03943 1.83397C3.96408 1.94929 3.70038 1.92318 3.80921 1.99716C3.82177 2.00586 3.89292 2.02762 3.91385 2.01674L4.03524 1.94929C4.03524 1.94929 4.14407 1.9667 4.15663 1.9667L4.48731 1.98845C4.51242 1.98845 4.61707 1.98845 4.64637 1.99063C4.68404 1.99063 4.67986 2.02327 4.6673 2.03632L4.59614 2.1103C4.5794 2.12988 4.39522 2.1016 4.33662 2.09724C3.93478 2.06896 4.22779 2.16252 3.80084 2.11248L3.61247 2.09072L3.66689 2.24738L3.23994 2.1103L3.18971 2.21474L2.93437 2.1734C2.96367 2.11465 2.88414 2.16469 2.82136 2.21039C2.8088 2.22562 2.76694 2.27566 2.77531 2.28654L2.85484 2.41926C2.62462 2.43232 2.43208 2.4432 2.33162 2.44102H2.16419C2.1307 2.44102 2.16419 2.47148 2.1893 2.47583L2.61625 2.57157C2.71253 2.56722 2.51998 2.62597 2.44463 2.63249C2.35673 2.63902 2.23534 2.59768 2.08884 2.55634C2.14326 2.60203 2.28976 2.66295 2.43208 2.72388C2.52835 2.76304 2.49905 2.76087 2.35255 2.73258C1.47771 2.68254 2.33162 2.48236 1.18889 2.50847C0.431261 2.52588 0.498234 2.46278 0.188484 2.48454L0.0126804 2.49542C-0.0333635 2.49759 0.167555 2.52805 0.201042 2.53676L0.2722 2.55416L1.23912 2.7848C1.38144 2.81744 1.31865 2.9828 1.24331 3.01761L1.08425 2.99803L1.04239 3.02849L0.987973 3.06765C0.987973 3.06765 0.983788 3.09594 0.987973 3.09812L1.0675 3.1177C1.12192 3.13075 1.25168 3.16774 1.32284 3.15469C1.394 3.14163 1.5405 3.10682 1.60329 3.11335C1.73723 3.12858 1.72468 3.15904 1.72468 3.17427V3.21343L1.73305 3.2526V3.28306C1.73723 3.30482 1.63677 3.33963 1.64096 3.34616L1.69956 3.40708C1.71212 3.42013 1.82513 3.37662 1.90048 3.34833L2.81299 3.39185C3.23575 3.37662 3.46179 3.38315 3.78828 3.42884C4.11477 3.47453 4.36592 3.51369 4.13151 3.67035C3.77991 3.58332 4.01013 3.47235 3.70038 3.52675L3.43667 3.48758L3.34877 3.5224C3.34877 3.5224 3.2818 3.51587 3.23157 3.50717L3.13111 3.48541C3.13111 3.48541 3.06832 3.48106 3.00972 3.47671L3.17296 3.666C3.17296 3.666 3.18971 3.68558 3.18134 3.68776L3.04739 3.7204C2.83391 3.77044 3.45341 3.84442 3.4283 3.83789C3.48271 3.84659 4.06873 3.9989 4.13151 4.01848C4.2236 4.04459 4.19012 3.98802 4.45801 4.01195L4.70916 4.03371C4.8431 4.01195 4.86822 4.0076 4.86403 4.00978L4.78869 4.07723C4.77194 4.09463 4.931 4.10551 4.98542 4.10334L5.45842 4.07288C5.89374 4.1512 5.83095 4.03154 6.35836 4.11204C6.42952 4.15338 6.45882 4.16861 6.42534 4.1512L6.50905 4.09463L6.96531 4.1425C7.06577 4.15338 7.25831 4.21213 7.3797 4.19907L8.09547 4.11857C8.45964 4.07723 8.14989 4.21865 8.35918 4.22518L8.74009 4.23606C8.97449 4.24259 9.2382 4.2143 9.51028 4.19907C9.66515 4.19037 9.90793 4.27087 10.0712 4.19255L10.2261 4.2056C10.2261 4.2056 10.2805 4.24041 10.2805 4.24476L10.2637 4.30786C10.2637 4.32309 10.3181 4.3405 10.36 4.35138C10.3977 4.36008 10.4856 4.29916 10.5149 4.27958L10.7828 4.32309C10.7828 4.32309 10.8497 4.34268 10.8581 4.34703L10.9335 4.39054C10.9335 4.39054 10.9711 4.39054 10.9879 4.37966L11.0548 4.33615C11.0548 4.33615 11.1344 4.31004 11.1427 4.31221C11.1637 4.31221 11.2223 4.32092 11.2558 4.32309L11.3604 4.33397L11.465 4.34485L11.5697 4.35573L11.6827 4.36661C11.6827 4.36661 11.8041 4.38402 11.8208 4.38184L12.4069 4.3405C12.4822 4.3318 12.545 4.32309 12.4906 4.32962C12.4403 4.47758 13.3068 4.39272 13.4952 4.4036C13.8384 4.42536 14.2486 4.45147 14.6086 4.46017L15.5923 4.48193L16.0359 4.48845C15.9983 4.49716 16.0611 4.48193 16.1239 4.47105L16.5968 4.5298C17.5303 4.64511 17.0154 4.45799 17.7856 4.57114C17.9572 4.56461 18.1414 4.56026 18.2837 4.56026L19.573 4.56461L20.3348 4.55808C20.4896 4.55808 20.6989 4.57766 20.8706 4.60377C20.971 4.619 21.2766 4.59072 21.3938 4.59724C21.8207 4.62118 22.3481 4.65817 22.796 4.67122L22.7793 4.619C22.7793 4.619 22.863 4.59507 22.8797 4.59942L22.9718 4.62771C23.1016 4.66905 23.3988 4.71909 23.5788 4.69733C24.2652 4.61465 23.9262 4.70386 24.8052 4.70821L25.1778 4.76043L25.1987 4.71039C25.1987 4.71039 25.2573 4.59289 25.2908 4.62771C25.2908 4.62771 25.3745 4.64729 25.3954 4.65164C25.6298 4.70821 25.8642 4.70821 26.2326 4.70168V4.68863ZM381.913 1.39011C381.922 1.3727 382.039 1.32701 382.093 1.32919C382.135 1.32919 382.235 1.33571 382.286 1.33354L382.754 1.32483C382.951 1.26826 383.152 1.25303 383.403 1.24868L384.211 1.23563L384.374 1.24868C384.408 1.25086 384.303 1.31831 384.266 1.31831L383.449 1.33354C383.408 1.33354 383.294 1.29002 383.286 1.30308C383.274 1.31831 383.253 1.32919 383.269 1.33571L383.387 1.38793C382.947 1.40534 382.566 1.41404 382.127 1.40316C382.127 1.41187 382.194 1.45973 382.127 1.46844C382.072 1.47714 381.871 1.48802 381.88 1.47061L381.917 1.38576L381.913 1.39011ZM380.607 1.47279L380.946 1.4902L381.386 1.42927C381.26 1.50978 381.068 1.57288 380.909 1.59463C380.724 1.59463 380.448 1.61422 380.31 1.6251C380.251 1.62945 380.138 1.58593 380.084 1.59463L379.891 1.62074L380.034 1.53589C380.055 1.52283 379.954 1.5163 379.854 1.50325C379.787 1.49455 379.963 1.4358 380.05 1.41622C380.314 1.35965 380.243 1.69472 380.603 1.47279H380.607ZM378.171 1.65338C378.276 1.68167 378.318 1.69907 378.334 1.68602C378.343 1.67731 378.401 1.6425 378.41 1.6338C378.577 1.4358 379.427 1.47714 379.393 1.45973L379.519 1.53154C379.544 1.4902 379.611 1.45538 379.774 1.40099V1.52936C379.774 1.56417 379.774 1.61639 379.716 1.64468C379.665 1.66861 379.427 1.68602 379.331 1.69472L379.042 1.72083C378.983 1.72518 378.908 1.68167 378.945 1.66426L379.155 1.5794C378.858 1.55982 378.749 1.65991 378.531 1.73389C378.389 1.77087 378.045 1.76435 377.794 1.73389L378.175 1.6512L378.171 1.65338ZM376.011 1.8318C376.011 1.8318 375.886 1.87966 375.873 1.87314C375.86 1.86661 375.81 1.85573 375.827 1.84703L375.936 1.79698L375.886 1.60334L376.459 1.6251C376.555 1.60551 376.668 1.58375 376.756 1.5794C376.869 1.5707 376.961 1.63815 376.961 1.66861C376.957 1.73606 376.961 1.79698 376.731 1.81874L376.84 1.70125L376.283 1.87096C376.246 1.7687 376.271 1.73606 376.141 1.69255L376.007 1.8318H376.011ZM375.346 1.66644C375.321 1.64033 375.706 1.62074 375.697 1.6512L375.651 1.85791L375.249 1.9036L375.555 1.78393C375.622 1.75782 375.392 1.71865 375.346 1.66644ZM373.336 1.70342C373.717 1.64033 373.943 1.6425 374.228 1.6338L374.278 1.70342C374.349 1.80134 374.801 1.55765 375.036 1.6425C375.136 1.67949 375.153 1.70778 375.011 1.78393L374.839 1.69255L374.647 1.83397L374.508 1.72953L374.337 1.84268L374.32 1.75782C374.312 1.7056 373.462 1.75782 373.341 1.7056L373.336 1.70342ZM373.341 1.70125C373.286 1.78828 373.194 1.89707 373.341 1.91665C373.458 1.92971 373.495 1.94711 373.445 1.96017C373.37 1.97975 373.177 2.02544 373.202 2.02109C373.177 1.93188 373.152 1.8949 373.043 1.82745C372.976 1.78828 373.202 1.67296 373.336 1.70125H373.341ZM368.272 1.77958C368.426 1.71865 368.493 1.71213 368.426 1.76652C368.326 1.82962 368.196 1.9036 368.071 1.9036H367.594C367.711 1.79916 367.991 1.7687 368.272 1.77958ZM365.132 4.13815C365.3 4.07505 365.358 4.062 365.358 4.04024V3.93362L365.605 4.06852C365.178 4.13162 365.706 4.2056 365.388 4.40142L365.128 4.14033L365.132 4.13815ZM364.517 4.13815C364.743 4.10334 364.76 4.08593 364.885 4.02718C364.982 4.02718 364.956 4.11422 364.889 4.16426L364.647 4.34703L364.517 4.13815ZM364.329 4.11422C364.337 4.1251 364.312 4.19907 364.278 4.22736C364.249 4.25129 364.094 4.28828 364.023 4.28175C363.952 4.27523 363.826 4.24912 363.801 4.23389C363.78 4.22083 363.889 4.18384 363.935 4.17514L364.329 4.11639V4.11422ZM363.039 4.35791C363.023 4.21865 363.383 4.09681 363.856 4.06635C363.856 4.14033 363.642 4.2143 363.362 4.26435L363.039 4.35573V4.35791ZM362.575 4.22518L362.776 4.16426L362.721 4.3318L362.236 4.25782C362.185 4.24912 362.273 4.18167 362.336 4.17296C362.625 4.1338 362.432 4.2687 362.579 4.22518H362.575ZM29.8784 1.75347L30.6863 1.70995C30.7574 1.7056 30.9625 1.74912 30.9416 1.77087L30.8872 1.81874C30.7784 1.79263 29.9872 1.82962 29.8784 1.75564V1.75347ZM26.7098 1.72301C26.7725 1.72301 26.9525 1.73606 26.9274 1.75347C26.9023 1.77087 26.8395 1.82092 26.8521 1.81221C26.6553 1.79481 26.5758 1.79263 26.4126 1.79481L25.6591 1.80351C26.174 1.6512 25.9563 1.71648 26.7098 1.72301ZM23.8802 1.74912L24.4327 1.70995C24.4787 1.7056 24.621 1.73824 24.6629 1.72736L24.8596 1.67949C24.868 1.72736 24.8596 1.81221 24.7508 1.8318C24.6964 1.8405 24.4871 1.81221 24.4787 1.8318L24.4452 1.9123C24.2485 1.83615 24.0936 1.78175 23.8802 1.74912ZM22.7081 1.69255H23.3025C23.4406 1.70125 23.6039 1.77523 23.629 1.8318L22.9844 1.80134C22.8714 1.79481 22.7416 1.70778 22.7039 1.69037L22.7081 1.69255ZM22.0677 1.79263L21.8584 1.7687C21.8333 1.76652 21.8835 1.73606 21.917 1.73389C22.143 1.70778 22.7374 1.65773 22.637 1.76652L22.4905 1.92318C22.3774 1.87096 22.21 1.80786 22.0719 1.79263H22.0677ZM21.4398 1.72518L21.6533 1.70342C21.6993 1.69907 21.7203 1.74912 21.7119 1.76652L21.6324 1.94059C21.3101 1.98845 21.4398 1.72518 21.4398 1.72518ZM16.3666 1.59681C16.3666 1.56417 16.6973 1.50543 16.7475 1.50325L16.9317 1.58811C17.0447 1.57505 17.3042 1.55329 17.2875 1.58158L17.2122 1.68167C17.3042 1.69037 17.4968 1.70342 17.5805 1.71648C17.6642 1.72953 17.681 1.80134 17.7563 1.8318L17.6475 1.67296C17.7689 1.65991 17.8819 1.65556 17.9028 1.63815L18.0075 1.55112L18.5181 1.65991C18.5684 1.67079 18.6898 1.69037 18.7735 1.70342C18.8279 1.71213 18.8907 1.67296 18.9702 1.63162L19.3344 1.71213L19.7488 1.72083L20.1004 1.70342C20.1925 1.69907 20.2385 1.7861 20.1925 1.80569L19.6357 1.81004L19.5437 1.88619C19.5269 1.89925 19.3804 1.87749 19.4013 1.86443L19.4599 1.81874C19.4934 1.79481 19.5227 1.77958 19.4976 1.77523C19.4725 1.77087 19.3762 1.75782 19.3679 1.76652L19.3302 1.83832C19.2088 1.81439 19.0497 1.78393 18.9074 1.80569C18.807 1.82092 18.6772 1.8492 18.5265 1.88402C18.493 1.84485 18.4302 1.79481 18.2712 1.80569C17.8149 1.83397 17.8651 1.95364 17.5428 1.94276C17.4508 1.94059 17.3419 1.87749 17.3042 1.84268C17.2875 1.82745 17.1368 1.85573 17.0447 1.86879V1.79481C17.0405 1.77958 16.8899 1.78828 16.8313 1.78393L16.5801 1.77305L16.5173 1.8405C16.5048 1.85355 16.3541 1.84703 16.3541 1.83397L16.3666 1.59681ZM13.0975 1.90577C13.2482 1.81004 13.4407 2.00369 13.6542 2.01892L13.4994 2.08637C13.2901 2.07766 13.1938 2.07549 13.1059 2.06678C13.018 2.05808 13.0138 1.96017 13.0975 1.90577ZM12.7794 2.05808L12.9175 2.28219L12.5282 2.119C12.4864 2.1016 12.2897 2.05155 12.3566 2.03632L12.6371 1.9754C12.6915 1.96452 12.7668 2.03197 12.7836 2.0559L12.7794 2.05808ZM5.35796 2.07331L4.92263 1.99281C5.24494 1.93841 5.41656 1.86661 5.48772 1.77523L5.63422 1.81439C5.63422 1.81439 6.22442 1.74694 6.22442 1.83397C6.22442 1.87096 6.14489 1.96452 6.1114 1.9754L5.77235 1.95364L5.94815 2.17557L5.35796 2.07549V2.07331ZM4.52079 3.85965C4.44126 3.7922 4.42034 3.71169 4.49149 3.63771C4.8724 3.72692 5.1989 3.77261 5.11518 3.9271L4.58358 3.89664C4.5501 3.89664 4.44545 3.89664 4.41615 3.89664C4.38685 3.89664 4.41615 3.87488 4.44545 3.87053L4.52498 3.85747L4.52079 3.85965ZM3.68363 3.59637L3.80502 3.73998C3.92641 3.75086 4.1064 3.75303 4.10221 3.77697L4.09384 3.87923L3.38644 3.65947C3.34458 3.64642 3.39481 3.56809 3.44086 3.57897C3.47434 3.5855 3.67526 3.5855 3.68363 3.59637ZM3.41993 2.76304C3.57062 2.7848 3.6627 2.83702 3.57899 2.88924L3.13529 2.7935C3.10181 2.78697 3.16041 2.72388 3.19808 2.72823L3.41993 2.76087V2.76304ZM2.75438 2.70865L2.93437 2.91535L2.76694 3.00456C2.56602 2.96974 2.41115 2.93058 2.46556 2.86313C2.51161 2.80656 2.60788 2.75651 2.75438 2.70865Z" fill="#FE1CA2"/>
</g>
<defs>
<clipPath id="clip0_5129_3043">
<rect width="390" height="5" fill="white" transform="matrix(1 0 0 -1 0 5)"/>
</clipPath>
</defs>
</svg>
