<svg width="327" height="112" viewBox="0 0 327 112" fill="none" xmlns="http://www.w3.org/2000/svg">
<g clip-path="url(#clip0_5155_7027)">
<path d="M127.217 100.584C124.501 100.594 122.313 100.365 119.858 100.329L110.398 100.195C109.997 100.19 109.821 98.8808 109.802 98.6675C107.916 100.683 105.284 99.6407 102.416 99.3664C94.4156 98.5902 95.651 99.4974 91.3355 98.8994C89.0457 98.5857 86.7222 98.0421 84.4622 97.8892C80.8793 97.6472 75.6993 97.4879 72.6502 96.7479C72.0882 96.6129 71.2977 95.3146 70.837 95.4237L68.7105 95.9197C67.2916 95.4861 64.4366 95.3982 63.0176 95.1132L52.7618 93.0592L44.2816 89.8066C41.8939 88.8881 39.9881 88.6313 37.8841 87.6531C35.7801 86.6749 32.6096 85.7853 30.9304 84.8077L26.5925 82.2768C14.3448 75.132 16.2481 76.1795 5.94937 66.9692L7.59247 65.1003L4.14413 63.565L1.9524 56.7497C2.81693 55.7167 4.02607 54.0272 3.83281 53.062C3.78395 52.8313 1.99702 52.4744 2.25426 52.339L3.68018 51.6001C3.96849 51.4503 5.58914 51.0557 5.29413 50.892L3.13153 49.725L8.22842 49.1371C7.53933 48.3747 7.23877 47.5791 7.55497 47.1814L9.3697 44.9233C12.0618 43.8989 15.4645 42.6244 18.4973 41.3151C16.909 40.7826 16.3365 41.5918 14.6388 42.3061C14.4581 42.1324 13.8523 41.077 14.2246 40.9157L15.8697 40.1933L21.5317 37.4583C23.6782 36.422 25.6586 35.5204 27.9226 34.7076L32.3037 33.1383C34.0654 32.5068 35.9693 31.9144 37.8726 31.3326C39.0151 31.8317 39.4462 32.151 40.0379 32.1494C40.9104 32.1464 43.0631 31.4341 42.8356 31.2844L38.9893 30.8538L44.773 29.0008L45.5538 30.6382C46.7562 29.0812 53.1188 26.2919 55.4222 25.8951L63.4423 24.5069L69.0108 23.5982L66.7515 22.0972L70.9259 23.2293C80.3985 22.0641 75.0359 20.8818 81.9618 20.7166C83.0326 20.6919 85.0974 20.2139 86.1184 20.4201L89.6466 21.1369C90.465 21.3009 90.9604 19.1822 91.7847 19.0811L96.3418 18.5186L103.082 17.6911L101.835 18.4763C101.593 18.6284 101.386 18.6603 101.691 18.7715C102.042 18.8956 103.37 19.16 103.621 19.0083L105.46 17.9137C105.976 17.6058 107.327 18.0307 108.637 18.2146L107.137 16.9967C115.885 16.3622 113.244 15.2026 122.783 14.6724L121.358 17.0089L130.05 14.9546L130.734 16.9905L131.538 15.8057C131.727 15.5288 132.591 15.6845 133.363 15.7188L133.327 14.6449C133.322 14.4535 137.863 14.4899 139.272 15.4218C140.078 15.081 142.115 13.97 143.314 13.9625L148.83 13.932C150.211 13.9232 153.192 14.5058 154.416 14.1599L160.202 12.5405C163.213 14.7752 167.508 13.5517 169.958 12.515C178.909 10.4262 178.54 13.1988 185.697 11.4693C189.66 10.5101 192.913 11.2659 196.985 11.2994C200.101 11.3263 203.656 10.7708 207.22 11.102C209.137 11.2799 211.408 11.5077 212.999 11.5468L218.992 11.6787C222.174 11.7516 225.197 11.8215 228.024 12.0036C228.113 11.764 228.146 11.4154 228.334 11.441L230.067 11.6677L234.897 12.2868C236.148 12.4464 238.415 12.7642 239.539 12.8749C242.718 13.006 246.808 12.9767 250.245 13.8428L254.626 14.9482L256.578 14.4485C257.17 14.2984 258.357 15.5587 259.039 15.7157L265.523 17.2155C268.004 17.7885 272.579 19.5461 271.075 21.6609C268.958 24.6253 263.858 22.3259 260.903 21.5165L256.415 20.2887C252.617 19.7969 247.858 18.9746 243.918 18.3003C242.309 18.0268 238.982 18.1217 237.214 17.9886L221.301 16.8017C214.365 16.2818 211.596 17.4667 199.332 16.2704C197.732 16.1141 196.444 15.7828 195.086 16.0847C186.155 18.0737 184.735 16.0425 172.382 16.8743L166.11 17.2959C165.479 17.3379 164.838 18.1436 164.435 18.9031C166.331 18.7508 168.361 18.5152 170.547 18.6325L179.822 19.1078C180.162 19.1252 181.221 20.0764 181.465 19.9137L183.209 18.7347C185.509 19.2983 188.737 20.0953 191.05 19.6566C197.53 18.423 197.17 19.5297 201.158 20.1533C209.811 21.5042 204.209 20.1186 214.322 21.1091C214.745 21.152 215.828 20.5866 216.269 20.5667C216.71 20.5469 217.566 21.148 218.029 21.1452L219.949 21.1321C220.465 21.1267 221.06 21.6614 221.609 22.0345L231.725 21.6453C233.549 22.8958 235.765 22.2875 237.658 22.6446L245.193 24.0603C247.642 24.5201 249.919 25.0879 252.691 25.1769C255.053 25.2555 256.489 26.3905 258.068 26.8163C262.198 27.9302 270.427 27.7946 272.587 30.4846L275.016 29.5688C275.557 29.3631 275.952 30.8428 276.356 30.9484L280.132 31.1101C280.988 31.1486 281.347 32.1329 281.674 32.8608C284.514 32.932 289.997 33.1015 290.02 35.6236C292.217 34.9242 293.879 35.2005 295.325 36.1555L292.906 37.9156C295.485 37.6073 298.928 36.5896 299.756 38.0384C300.981 40.1869 303.295 41.0644 306.428 41.7928C308.602 42.3023 309.557 43.9328 310.737 44.5982C311.666 45.1182 313.659 45.8837 314.665 46.6942C321.976 52.6201 328.206 62.3331 322.079 69.2582C317.2 74.7717 318.697 74.8803 311.191 78.959C307.992 80.7003 304.595 82.3095 300.951 83.699L292.898 86.7679C291.784 87.1937 288.885 87.2203 287.918 87.7386C285.391 89.0899 282.15 89.29 279.508 90.0727C274.679 91.5024 269.94 92.3634 264.953 93.1746C261.389 93.7509 258.363 94.6308 254.703 94.7086C252.698 94.7492 250.346 95.361 248.471 95.5409L235.719 96.7556C224.4 97.8367 226.062 96.6323 216.936 97.9903C214.398 98.3698 211.939 98.5463 209.102 98.5495L200.235 98.5516C198.491 98.5524 195.588 99.2581 193.641 99.36L180.818 100.03L172.509 100.246C168.613 100.349 164.972 100.353 161.04 100.412L144.37 100.667L135.912 100.531L127.248 100.57L127.217 100.584ZM153.237 95.6232C158.734 95.8252 153.413 94.7193 160.204 95.2478L166.278 95.7236C166.278 95.7236 166.242 94.6655 166.226 94.3834C166.214 94.1705 167.081 94.4273 167.293 94.5655L168.414 95.3341C171.856 94.6295 175.225 94.9136 177.98 94.7204L189.291 93.9414L197.006 93.7794C204.288 93.6272 203.121 97.1497 209.66 93.4407C209.941 93.28 211.079 93.5718 211.456 93.6177C214.685 92.9128 218.77 92.5489 222.635 92.317C227.976 91.9963 234.306 91.3123 239.465 90.7116C240.189 90.6267 242.307 91.0483 242.842 91.1129C244.422 90.0368 246.557 89.8172 248.632 90.4755L250.878 91.1903C251.363 91.3478 252.257 89.8917 252.796 89.7336C255.931 88.8062 261.761 87.8153 265.549 87.3195L269.161 86.8465C270.359 86.6903 271.554 86.311 272.897 85.8756C277.602 84.3441 283.264 83.9815 287.618 82.1879L303.905 75.4969C305.23 74.9544 307.322 73.7879 308.537 73.4628C308.937 73.3559 310.487 73.6104 310.741 73.3793C310.98 73.158 311.728 72.4799 311.107 73.0425C309.186 72.5035 308.874 72.2222 309.777 71.7696C311.661 70.8206 313.283 70.251 314.911 70.4511C314.117 70.4051 316.299 64.2333 318.391 64.4147L316.991 60.214L318.637 59.757C318.884 59.6847 318.907 59.532 318.675 59.4618C318.429 59.3802 316.757 59.0026 316.721 58.8203C315.558 53.3793 310.069 50.5187 304.386 46.5655L300.937 44.165C299.025 42.8358 294.806 42.4286 293.776 40.4705C292.082 40.5164 290.201 40.075 288.169 39.4667L272.288 34.6938C270.264 34.0859 266.798 33.4784 264.528 32.635C263.242 32.8557 262.042 32.5978 260.381 32.3004L238.11 28.3358C232.097 27.2634 223.689 27.0449 216.293 26.1617C208.898 25.2786 201.966 25.1144 194.608 24.8171L187.637 24.5288L181.731 24.3429L170.402 24.1339L161.337 24.1418L139.06 24.1519C135.73 24.1511 131.999 24.5756 128.693 24.4062C125.387 24.2368 122.785 24.2467 119.707 24.365L111.879 24.6644C109.098 24.7713 106.902 24.8498 104.199 25.0457L94.4315 25.7499C93.0611 25.8495 89.8559 24.454 88.8701 25.0404C87.3523 25.9444 85.9916 26.2993 84.1049 26.5582C73.8073 27.9835 62.1416 30.3525 52.4795 32.9939L44.356 35.2153L39.7976 36.9879C35.7964 38.5448 26.7087 37.5272 32.4261 38.595L34.1314 38.9159L24.6185 42.791C18.1887 45.4123 12.5601 49.8632 9.57101 54.3167C6.77918 58.4724 11.5678 64.492 14.8922 67.2629C16.7107 68.7784 18.7524 70.8255 20.6734 72.118C31.9656 79.7021 27.0114 76.4709 39.7172 82.668C42.64 84.0968 47.1853 84.3563 47.4341 87.495C50.0785 85.3271 55.7843 87.9547 56.9826 89.1412L58.9873 88.3576C59.3123 88.231 59.72 89.5999 59.9402 89.7439L67.4051 90.0149C68.6087 90.0607 70.9198 91.7341 72.2575 91.6806C75.5711 91.5532 78.7117 91.8415 81.4495 92.884C83.9406 91.7857 89.6883 92.5579 89.4848 92.8287L88.1365 94.5694C88.8532 95.2377 92.1409 92.0626 94.0808 93.579C94.657 94.0278 95.04 94.8435 95.4016 95.6316C96.6663 95.5213 98.6379 95.2349 99.3761 95.0392L96.5892 94.6575C98.1404 93.1024 102.369 94.216 101.135 95.9519L110.766 95.5379L121.075 95.0631L125.73 94.9567C126.292 94.943 128.355 94.9638 128.337 95.3131L128.256 96.8958L130.84 95.1654C132.096 94.3223 135.791 97.1121 136.915 96.3471L138.644 95.1726L142.692 95.2261L153.253 95.6134L153.237 95.6232Z" fill="#FE1CA2"/>
</g>
<defs>
<clipPath id="clip0_5155_7027">
<rect width="322.499" height="94.6622" fill="white" transform="translate(4.84431) rotate(2.93338)"/>
</clipPath>
</defs>
</svg>
