<svg xmlns="http://www.w3.org/2000/svg" xmlns:xlink="http://www.w3.org/1999/xlink" width="76" zoomAndPan="magnify" viewBox="0 0 56.879997 56.999997" height="76" preserveAspectRatio="xMidYMid meet" version="1.0"><defs><clipPath id="8c2ba053d3"><path d="M 0 0.0585938 L 56.761719 0.0585938 L 56.761719 56.9375 L 0 56.9375 Z M 0 0.0585938 " clip-rule="nonzero"/></clipPath></defs><g clip-path="url(#8c2ba053d3)"><path fill="#25569a" d="M 55.429688 50.742188 L 42.777344 38.089844 C 45.820312 34.03125 47.464844 29.097656 47.460938 24.023438 C 47.460938 11.070312 36.921875 0.527344 23.964844 0.527344 C 11.007812 0.527344 0.46875 11.070312 0.46875 24.023438 C 0.46875 36.980469 11.007812 47.519531 23.964844 47.519531 C 29.035156 47.527344 33.972656 45.882812 38.027344 42.835938 L 50.683594 55.488281 C 51.324219 56.0625 52.15625 56.367188 53.015625 56.34375 C 53.875 56.320312 54.691406 55.96875 55.300781 55.359375 C 55.90625 54.753906 56.257812 53.933594 56.285156 53.078125 C 56.308594 52.21875 56 51.382812 55.429688 50.742188 Z M 7.179688 24.023438 C 7.179688 20.703125 8.164062 17.460938 10.007812 14.699219 C 11.855469 11.941406 14.476562 9.789062 17.542969 8.519531 C 20.609375 7.25 23.984375 6.914062 27.238281 7.5625 C 30.496094 8.210938 33.484375 9.808594 35.832031 12.15625 C 38.179688 14.503906 39.777344 17.496094 40.425781 20.75 C 41.074219 24.003906 40.742188 27.378906 39.46875 30.445312 C 38.199219 33.515625 36.046875 36.136719 33.289062 37.980469 C 30.527344 39.824219 27.285156 40.808594 23.964844 40.808594 C 19.515625 40.800781 15.25 39.03125 12.101562 35.886719 C 8.957031 32.738281 7.1875 28.472656 7.179688 24.023438 Z M 7.179688 24.023438 " fill-opacity="1" fill-rule="nonzero"/></g></svg>