<svg width="19" height="415" viewBox="0 0 19 415" fill="none" xmlns="http://www.w3.org/2000/svg">
<path d="M0.200001 344.56L0 413.97H1.87L2.08 344.57L0.200001 344.56Z" fill="#200020"/>
<path d="M16.43 344.609L16.21 414.019H18.09L18.3 344.619L16.43 344.609Z" fill="#200020"/>
<path d="M5.98981 341.08L5.87981 340.02C6.24981 339.96 6.49981 339.84 6.67981 339.64C6.82981 339.44 6.91981 339.18 6.91981 338.85C6.91981 338.49 6.8498 338.24 6.7098 338.06C6.5598 337.88 6.38981 337.79 6.18981 337.79C6.05981 337.79 5.95981 337.82 5.85981 337.9C5.77981 337.98 5.6998 338.09 5.6398 338.29C5.5898 338.42 5.51981 338.72 5.39981 339.15C5.25981 339.74 5.07981 340.14 4.87981 340.37C4.57981 340.71 4.21981 340.87 3.77981 340.87C3.52981 340.87 3.25981 340.78 3.01981 340.63C2.78981 340.48 2.5998 340.25 2.4798 339.95C2.3598 339.68 2.2998 339.31 2.2998 338.89C2.2998 338.22 2.45981 337.73 2.75981 337.39C3.05981 337.05 3.45981 336.87 3.94981 336.85L3.98981 337.94C3.70981 337.98 3.50981 338.09 3.37981 338.24C3.25981 338.39 3.2098 338.62 3.2098 338.92C3.2098 339.24 3.27981 339.47 3.39981 339.66C3.47981 339.78 3.58981 339.82 3.73981 339.82C3.86981 339.82 3.96981 339.77 4.05981 339.67C4.17981 339.52 4.29981 339.2 4.42981 338.67C4.55981 338.14 4.67981 337.76 4.80981 337.5C4.95981 337.26 5.12981 337.06 5.35981 336.92C5.58981 336.78 5.8698 336.71 6.2098 336.71C6.5098 336.71 6.8098 336.81 7.06981 336.96C7.33981 337.13 7.53981 337.39 7.66981 337.7C7.79981 338.01 7.85981 338.4 7.85981 338.86C7.85981 339.54 7.69981 340.05 7.37981 340.43C7.06981 340.79 6.59981 341 5.99981 341.07" fill="#200020"/>
<path d="M2.37988 335.9V334.81H5.30988C5.77988 334.81 6.07988 334.81 6.19988 334.78C6.42988 334.72 6.61988 334.62 6.73988 334.44C6.86988 334.27 6.93988 334.03 6.93988 333.73C6.93988 333.43 6.86988 333.2 6.74988 333.03C6.61988 332.87 6.47988 332.78 6.27988 332.75C6.09988 332.72 5.79988 332.7 5.35988 332.7H2.37988V331.6L5.21988 331.62C5.85988 331.62 6.31988 331.65 6.58988 331.71C6.84988 331.78 7.06988 331.87 7.26988 332.04C7.43988 332.2 7.59988 332.41 7.70988 332.67C7.81988 332.93 7.86988 333.27 7.86988 333.7C7.86988 334.2 7.80988 334.59 7.68988 334.85C7.56988 335.12 7.41988 335.33 7.21988 335.48C7.03988 335.63 6.82988 335.73 6.62988 335.78C6.31988 335.86 5.84988 335.89 5.25988 335.89H2.37988V335.9Z" fill="#200020"/>
<path d="M7.75965 330.619L2.38965 330.599V328.859C2.38965 328.199 2.42965 327.769 2.48965 327.569C2.55965 327.269 2.73965 326.999 3.00965 326.789C3.27965 326.589 3.62965 326.479 4.05965 326.479C4.38965 326.479 4.65965 326.549 4.87965 326.659C5.10965 326.789 5.28965 326.939 5.40965 327.119C5.53965 327.309 5.61965 327.5 5.65965 327.68C5.70965 327.95 5.73965 328.319 5.72965 328.809V329.529H7.76965V330.609L7.75965 330.619ZM3.29965 329.529H4.82965V328.93C4.82965 328.5 4.80965 328.219 4.73965 328.079C4.67965 327.939 4.58965 327.82 4.47965 327.74C4.36965 327.66 4.22965 327.609 4.06965 327.609C3.86965 327.609 3.69965 327.659 3.57965 327.769C3.45965 327.899 3.37965 328.029 3.34965 328.209C3.31965 328.349 3.30965 328.609 3.30965 328.999V329.529H3.29965Z" fill="#200020"/>
<path d="M7.78016 325.729L2.41016 325.709L2.42016 321.739L3.32016 321.749V324.639H4.51016L4.52016 321.949H5.43016L5.42016 324.639L6.88016 324.649L6.89016 321.649H7.80016L7.78016 325.729Z" fill="#200020"/>
<path d="M7.79969 320.84H2.42969V318.55C2.42969 317.98 2.48969 317.56 2.58969 317.3C2.68969 317.04 2.85969 316.83 3.10969 316.68C3.33969 316.53 3.62969 316.45 3.94969 316.45C4.34969 316.45 4.68969 316.58 4.94969 316.81C5.20969 317.05 5.38969 317.4 5.43969 317.87C5.57969 317.66 5.71969 317.44 5.88969 317.31C6.05969 317.15 6.34969 316.94 6.76969 316.69L7.81969 316.04V317.34L6.63969 318.1C6.21969 318.39 5.95969 318.58 5.84969 318.68C5.73969 318.79 5.66969 318.89 5.62969 319.01C5.58969 319.12 5.56969 319.3 5.56969 319.54V319.76H7.80969V320.85L7.79969 320.84ZM4.69969 319.75V318.95C4.69969 318.44 4.67969 318.11 4.63969 317.99C4.58969 317.85 4.51969 317.75 4.40969 317.68C4.29969 317.61 4.16969 317.56 4.00969 317.56C3.82969 317.56 3.67969 317.62 3.56969 317.71C3.44969 317.82 3.37969 317.94 3.35969 318.12C3.33969 318.21 3.32969 318.48 3.32969 318.91V319.76H4.69969V319.75Z" fill="#200020"/>
<path d="M7.81043 315.579L2.44043 315.559V314.479L7.81043 314.49V315.579Z" fill="#200020"/>
<path d="M7.82019 313.569L2.4502 313.549V312.499L6.0602 310.299L2.46019 310.289V309.279L7.8302 309.289V310.389L4.30019 312.559L7.8302 312.569L7.82019 313.569Z" fill="#200020"/>
<path d="M7.83973 307.059L3.36973 307.049V308.629H2.46973L2.47972 304.359L3.37973 304.369V305.949L7.84973 305.969L7.83973 307.059Z" fill="#200020"/>
<path d="M7.84973 303.789L2.46973 303.779L2.47972 299.819H3.38972V302.709H4.57973L4.58973 300.009H5.48973L5.47972 302.719H6.94973L6.95972 299.729H7.86973L7.84973 303.789Z" fill="#200020"/>
<path d="M7.86023 298.92L2.49023 298.9V297.84L6.11023 295.64L2.50023 295.63V294.63L7.87024 294.64V295.73L4.34023 297.9L7.86023 297.91V298.92Z" fill="#200020"/>
<path d="M2.50977 293.59V291.61C2.50977 291.17 2.54976 290.84 2.62976 290.6C2.71976 290.28 2.87977 290.02 3.11977 289.79C3.34977 289.57 3.63977 289.41 3.98977 289.28C4.32977 289.17 4.75976 289.12 5.24976 289.12C5.69976 289.12 6.07977 289.18 6.39977 289.28C6.78976 289.43 7.09977 289.62 7.34977 289.86C7.51977 290.04 7.65976 290.31 7.76976 290.63C7.84976 290.87 7.88976 291.18 7.88976 291.59V293.62L2.50977 293.6V293.59ZM3.41977 292.52H6.97976V291.73C6.97976 291.43 6.95976 291.22 6.92976 291.07C6.87976 290.9 6.79976 290.76 6.70976 290.64C6.59976 290.52 6.42976 290.44 6.19976 290.35C5.94976 290.27 5.62976 290.25 5.20976 290.24C4.79976 290.24 4.46977 290.27 4.25977 290.35C4.03977 290.43 3.85977 290.52 3.73977 290.65C3.60977 290.79 3.52977 290.95 3.48977 291.15C3.44977 291.3 3.42976 291.59 3.42976 292.03V292.51L3.41977 292.52Z" fill="#200020"/>
<path d="M7.88953 288.32L2.51953 288.3L2.52953 284.33H3.42953V287.22H4.61953L4.62953 284.53L5.53953 284.54L5.52953 287.22L6.98953 287.23L6.99953 284.24H7.89953L7.88953 288.32Z" fill="#200020"/>
<path d="M7.91004 283.43L2.54004 283.41V282.36L6.16004 280.15H2.55004V279.14L7.92004 279.15V280.23L4.38004 282.42L7.91004 282.43V283.43Z" fill="#200020"/>
<path d="M5.95972 274.68L6.28973 273.62C6.86973 273.78 7.30973 274.07 7.59973 274.43C7.87973 274.82 8.02973 275.28 8.02973 275.86C8.02973 276.58 7.77973 277.17 7.28973 277.62C6.79973 278.09 6.13973 278.31 5.28973 278.31C4.39973 278.31 3.70972 278.08 3.20972 277.61C2.71972 277.13 2.46973 276.54 2.46973 275.78C2.46973 275.13 2.66972 274.59 3.04972 274.18C3.27972 273.94 3.59973 273.75 4.03973 273.64L4.28973 274.71C4.01973 274.77 3.79973 274.9 3.62973 275.11C3.46973 275.31 3.38972 275.56 3.38972 275.85C3.38972 276.25 3.53973 276.58 3.81973 276.82C4.09973 277.07 4.56972 277.2 5.20972 277.2C5.88972 277.2 6.35973 277.08 6.65973 276.84C6.93973 276.6 7.08973 276.28 7.09973 275.88C7.09973 275.6 6.99973 275.36 6.82973 275.14C6.63973 274.93 6.33972 274.78 5.95972 274.68Z" fill="#200020"/>
<path d="M7.94032 272.87L2.57031 272.85V271.76L7.94032 271.78V272.87Z" fill="#200020"/>
<path d="M7.96008 266.01V267.18L6.74008 267.64V269.79L7.95008 270.25V271.41L2.58008 269.32V268.17L7.96008 266.02V266.01ZM5.82008 267.98L3.82008 268.74L5.81008 269.47V267.99L5.82008 267.98Z" fill="#200020"/>
<path d="M7.95984 263.86L2.58984 263.84L2.59985 260.17L3.49984 260.18V262.77H4.75985L4.76984 260.52H5.68985L5.67984 262.77L7.95984 262.78V263.86Z" fill="#200020"/>
<path d="M7.98035 259.43L2.61035 259.41V258.34L7.98035 258.35V259.43Z" fill="#200020"/>
<path d="M7.98035 257.42L2.61035 257.41V256.37L6.23035 254.16L2.62035 254.15V253.14L7.99035 253.16V254.24L4.46035 256.41L7.99035 256.43L7.98035 257.42Z" fill="#200020"/>
<path d="M8.01965 247.29V248.44L6.79965 248.92V251.07L7.99965 251.53V252.67L2.63965 250.59V249.43L8.01965 247.3V247.29ZM5.86965 249.26L3.87965 250.02L5.86965 250.75V249.27V249.26Z" fill="#200020"/>
<path d="M8.00965 246.83L2.64965 246.81L2.63965 245.76L6.25965 243.55L2.64965 243.54V242.54L8.01965 242.55V243.65L4.48965 245.81L8.00965 245.83V246.83Z" fill="#200020"/>
<path d="M6.06013 238.08L6.39013 237.03C6.98013 237.19 7.42013 237.47 7.70013 237.83C7.98013 238.21 8.14013 238.69 8.13013 239.26C8.13013 239.98 7.89013 240.57 7.40013 241.02C6.91013 241.49 6.25013 241.7 5.40013 241.71C4.50013 241.71 3.81013 241.47 3.32013 241.01C2.83013 240.53 2.58013 239.92 2.59013 239.17C2.59013 238.52 2.78013 237.98 3.16013 237.58C3.39013 237.33 3.72013 237.14 4.15013 237.02L4.40013 238.11C4.13013 238.18 3.92013 238.3 3.75013 238.51C3.59013 238.7 3.51013 238.96 3.51013 239.23C3.51013 239.64 3.65013 239.98 3.94013 240.21C4.21013 240.47 4.69013 240.6 5.32013 240.6C6.01013 240.6 6.48013 240.48 6.77013 240.23C7.06013 239.99 7.21013 239.67 7.21013 239.28C7.21013 239 7.12013 238.75 6.94013 238.54C6.75013 238.32 6.46013 238.18 6.07013 238.08" fill="#200020"/>
<path d="M8.04969 236.26L2.67969 236.24V235.17L8.04969 235.18V236.26Z" fill="#200020"/>
<path d="M8.05043 234.25L2.69043 234.23V230.27H3.60043L3.59043 233.17H4.78043L4.79043 230.47H5.71043L5.69043 233.18H7.15043L7.16043 230.18H8.06043L8.05043 234.25Z" fill="#200020"/>
<path d="M8.07019 229.36H2.7002V227.07C2.7002 226.49 2.7402 226.08 2.8502 225.82C2.9502 225.55 3.1202 225.35 3.3702 225.21C3.6102 225.05 3.89019 224.97 4.21019 224.97C4.61019 224.97 4.95019 225.1 5.21019 225.32C5.47019 225.57 5.6502 225.91 5.7002 226.39C5.8402 226.16 5.9902 225.96 6.1502 225.82C6.3202 225.66 6.61019 225.47 7.0202 225.21L8.07019 224.55V225.85L6.91019 226.63C6.48019 226.9 6.2302 227.1 6.1102 227.19C6.0002 227.31 5.93019 227.41 5.89019 227.53C5.85019 227.64 5.8302 227.82 5.8302 228.06V228.28H8.0602V229.37L8.07019 229.36ZM4.9702 228.28V227.48C4.9702 226.97 4.95019 226.65 4.91019 226.51C4.86019 226.38 4.79019 226.29 4.68019 226.2C4.57019 226.13 4.44019 226.1 4.2702 226.1C4.1002 226.1 3.9502 226.14 3.8302 226.24C3.7102 226.33 3.6602 226.48 3.6202 226.65C3.6202 226.73 3.6002 227 3.6002 227.45V228.29H4.9702V228.28Z" fill="#200020"/>
<path d="M8.09973 219.22V220.4L6.86973 220.86V223.01L8.07973 223.47V224.61L2.71973 222.53V221.38L8.09973 219.23V219.22ZM5.95972 221.19L3.96973 221.95L5.95972 222.68V221.2V221.19Z" fill="#200020"/>
<path d="M10.79 305.69V303.7C10.79 303.26 10.84 302.91 10.91 302.68C11.01 302.37 11.16 302.1 11.4 301.88C11.63 301.66 11.92 301.5 12.27 301.38C12.61 301.27 13.04 301.21 13.54 301.21C13.99 301.21 14.36 301.28 14.68 301.38C15.07 301.52 15.39 301.71 15.62 301.96C15.8 302.13 15.95 302.4 16.06 302.71C16.13 302.95 16.18 303.28 16.17 303.68V305.71H10.79V305.69ZM11.71 304.61H15.27V303.8C15.27 303.52 15.25 303.29 15.22 303.16C15.17 302.99 15.09 302.83 15 302.72C14.89 302.59 14.72 302.51 14.49 302.43C14.25 302.35 13.92 302.31 13.51 302.31C13.09 302.31 12.77 302.35 12.55 302.43C12.33 302.5 12.15 302.6 12.04 302.73C11.91 302.86 11.82 303.03 11.78 303.24C11.74 303.38 11.72 303.68 11.72 304.12V304.6L11.71 304.61Z" fill="#200020"/>
<path d="M16.1896 300.41L10.8096 300.39L10.8196 296.42H11.7296L11.7196 299.31H12.8996L12.9096 296.61L13.8296 296.62L13.8196 299.31L15.2796 299.32L15.2896 296.33H16.1996L16.1896 300.41Z" fill="#200020"/>
<path d="M14.2403 290.1L14.5703 289.04C15.1503 289.2 15.5903 289.49 15.8703 289.86C16.1603 290.24 16.3103 290.69 16.3003 291.28C16.3003 292 16.0503 292.59 15.5703 293.03C15.0903 293.51 14.4203 293.72 13.5603 293.72C12.6803 293.72 11.9803 293.5 11.4903 293.02C11.0003 292.55 10.7403 291.95 10.7503 291.19C10.7503 290.54 10.9403 290 11.3303 289.59C11.5503 289.36 11.8903 289.17 12.3203 289.06L12.5703 290.13C12.2903 290.19 12.0703 290.31 11.9203 290.52C11.7503 290.72 11.6603 290.97 11.6703 291.27C11.6703 291.66 11.8103 292 12.1003 292.23C12.3803 292.49 12.8503 292.62 13.4903 292.62C14.1703 292.62 14.6503 292.49 14.9303 292.26C15.2203 292.01 15.3703 291.7 15.3703 291.3C15.3703 291.02 15.2803 290.77 15.1003 290.56C14.9203 290.36 14.6303 290.2 14.2403 290.1Z" fill="#200020"/>
<path d="M13.5795 288.44C13.0395 288.44 12.5795 288.36 12.1895 288.2C11.9295 288.07 11.6795 287.92 11.4595 287.7C11.2495 287.49 11.0795 287.25 10.9795 287.01C10.8395 286.68 10.7695 286.28 10.7695 285.85C10.7695 285.06 11.0295 284.43 11.5295 283.97C12.0095 283.48 12.6895 283.24 13.5795 283.24C14.4395 283.24 15.1195 283.48 15.6195 283.97C16.0995 284.45 16.3495 285.07 16.3595 285.86C16.3595 286.66 16.0995 287.29 15.6095 287.76C15.1295 288.23 14.4495 288.46 13.5895 288.45M13.5395 287.33C14.1495 287.33 14.6095 287.21 14.9295 286.92C15.2495 286.64 15.4195 286.28 15.4195 285.85C15.4195 285.41 15.2595 285.07 14.9395 284.78C14.6295 284.5 14.1595 284.37 13.5395 284.37C12.9195 284.37 12.4595 284.5 12.1595 284.76C11.8395 285.03 11.6895 285.38 11.6895 285.84C11.6895 286.29 11.8395 286.64 12.1495 286.92C12.4595 287.2 12.9195 287.33 13.5395 287.33Z" fill="#200020"/>
<path d="M16.2399 282.51L10.9199 282.5V281.4L15.3299 281.41L15.3399 278.71H16.2499L16.2399 282.51Z" fill="#200020"/>
<path d="M13.5995 278.279C13.0695 278.279 12.6095 278.189 12.2195 278.039C11.9595 277.899 11.7095 277.739 11.4895 277.519C11.2795 277.319 11.1095 277.069 11.0095 276.829C10.8695 276.479 10.7995 276.099 10.8095 275.669C10.8095 274.879 11.0595 274.239 11.5595 273.779C12.0395 273.299 12.7195 273.069 13.6095 273.079C14.4695 273.079 15.1495 273.309 15.6495 273.779C16.1295 274.259 16.3795 274.899 16.3795 275.679C16.3795 276.489 16.1295 277.109 15.6395 277.579C15.1595 278.049 14.4795 278.289 13.6095 278.289M13.5695 277.159C14.1795 277.159 14.6395 277.009 14.9595 276.739C15.2795 276.449 15.4495 276.109 15.4495 275.669C15.4495 275.239 15.2895 274.879 14.9695 274.589C14.6595 274.319 14.1895 274.189 13.5695 274.179C12.9495 274.179 12.4895 274.309 12.1895 274.579C11.8695 274.839 11.7195 275.199 11.7195 275.649C11.7195 276.099 11.8795 276.459 12.1895 276.739C12.4995 277.009 12.9595 277.159 13.5795 277.159" fill="#200020"/>
<path d="M16.2696 272.349L10.8896 272.329L10.8997 270.699L14.5696 269.749L10.8997 268.789L10.9096 267.149L16.2896 267.169L16.2797 268.169L12.0496 268.159L16.2797 269.229V270.289L12.0496 271.329L16.2696 271.349V272.349Z" fill="#200020"/>
<path d="M10.9004 266.189V264.049C10.9004 263.609 10.9304 263.299 10.9704 263.079C11.0204 262.889 11.0904 262.689 11.2004 262.529C11.3204 262.369 11.4604 262.229 11.6504 262.119C11.8404 261.989 12.0504 261.949 12.2904 261.949C12.5304 261.949 12.7704 262.029 12.9804 262.159C13.1904 262.299 13.3604 262.479 13.4704 262.719C13.5604 262.379 13.7204 262.139 13.9504 261.949C14.1804 261.779 14.4404 261.699 14.7504 261.699C14.9804 261.699 15.2304 261.759 15.4604 261.859C15.6904 261.989 15.8704 262.139 16.0004 262.329C16.1404 262.529 16.2204 262.769 16.2504 263.069C16.2804 263.249 16.2804 263.679 16.2904 264.369V266.199H10.9004V266.189ZM11.8304 265.119H13.0704V264.409C13.0704 263.969 13.0704 263.709 13.0504 263.609C13.0304 263.429 12.9704 263.269 12.8704 263.159C12.7604 263.049 12.6304 263.009 12.4504 263.009C12.2904 263.009 12.1504 263.049 12.0504 263.139C11.9304 263.249 11.8804 263.369 11.8504 263.559C11.8504 263.669 11.8304 263.969 11.8304 264.479V265.119ZM13.9804 265.119H15.3904V264.119C15.3904 263.719 15.3904 263.479 15.3604 263.369C15.3304 263.209 15.2504 263.079 15.1504 262.959C15.0404 262.859 14.8904 262.809 14.7004 262.809C14.5404 262.809 14.4204 262.859 14.3004 262.929C14.1904 263.019 14.1104 263.109 14.0604 263.279C14.0104 263.429 13.9804 263.749 13.9804 264.239V265.109V265.119Z" fill="#200020"/>
<path d="M16.3099 260.94L10.9199 260.93V259.85L16.3099 259.86V260.94Z" fill="#200020"/>
<path d="M16.3304 254.1V255.25L15.1004 255.72V257.88L16.3204 258.33V259.48L10.9404 257.4V256.24L16.3304 254.1ZM14.1804 256.07L12.1904 256.82L14.1804 257.55V256.08V256.07Z" fill="#200020"/>
<path d="M13.4998 408.51L4.5498 411.65L4.55981 409.7L11.1698 407.47L4.56981 405.27L4.57981 403.34L13.5098 406.55L13.4998 408.51Z" fill="#200020"/>
<path d="M13.5201 401.869L4.58008 401.839L4.59008 400.029L13.5301 400.059L13.5201 401.869Z" fill="#200020"/>
<path d="M10.2704 393.549H8.76043L8.78043 389.649H12.3404C12.7104 390.039 13.0404 390.589 13.3104 391.299C13.5804 392.019 13.7204 392.749 13.7304 393.489C13.7304 394.419 13.5304 395.239 13.1304 395.929C12.7304 396.619 12.1704 397.149 11.4404 397.489C10.7004 397.829 9.90043 398.009 9.04043 398.009C8.10043 398.009 7.28043 397.809 6.55043 397.409C5.81043 397.019 5.27043 396.449 4.89043 395.699C4.58043 395.119 4.44043 394.399 4.44043 393.549C4.44043 392.449 4.67043 391.569 5.15043 390.949C5.62043 390.319 6.26043 389.929 7.08043 389.759L7.41043 391.549C6.97043 391.669 6.62043 391.909 6.37043 392.259C6.12043 392.599 5.99043 393.039 5.99043 393.559C5.99043 394.339 6.23043 394.979 6.74043 395.439C7.23043 395.909 7.98043 396.149 8.96043 396.149C10.0304 396.149 10.8304 395.919 11.3604 395.439C11.8804 394.959 12.1604 394.349 12.1704 393.579C12.1704 393.209 12.0904 392.839 11.9504 392.449C11.8004 392.079 11.6104 391.739 11.4104 391.479H10.2804V393.549H10.2704Z" fill="#200020"/>
<path d="M13.5699 387.439L4.62988 387.409V385.609L13.5799 385.629L13.5699 387.439Z" fill="#200020"/>
<path d="M13.58 383.239L4.70996 383.209V381.399L12.08 381.409L12.09 376.949L13.59 376.959L13.58 383.239Z" fill="#200020"/>
<path d="M13.6199 366.96V368.91L11.5899 369.68V373.28L13.5999 374.03V375.94L4.66992 372.45V370.55L13.6199 366.97V366.96ZM10.0699 370.26L6.74992 371.51L10.0699 372.73V370.26Z" fill="#200020"/>
<path d="M4.68992 365.35V362.06C4.68992 361.31 4.75992 360.75 4.86992 360.36C5.02992 359.85 5.29992 359.39 5.69992 359.01C6.08992 358.64 6.55992 358.36 7.13992 358.16C7.70992 357.98 8.41992 357.88 9.23992 357.88C9.98992 357.88 10.6199 357.99 11.1499 358.16C11.7999 358.38 12.3199 358.69 12.7199 359.12C13.0299 359.44 13.2599 359.85 13.4399 360.39C13.5599 360.79 13.6199 361.33 13.6199 361.98V365.36L4.66992 365.34L4.68992 365.35ZM6.19992 363.56L12.1199 363.58V362.23C12.1199 361.72 12.0999 361.37 12.0399 361.13C11.9699 360.84 11.8499 360.6 11.6599 360.41C11.4999 360.21 11.1999 360.05 10.7999 359.93C10.4099 359.79 9.86992 359.75 9.16992 359.74C8.47992 359.74 7.94992 359.79 7.57992 359.92C7.19992 360.04 6.91992 360.21 6.71992 360.41C6.50992 360.64 6.35992 360.91 6.28992 361.24C6.22992 361.49 6.19992 361.99 6.18992 362.72V363.53L6.19992 363.56Z" fill="#200020"/>
<path d="M9.2298 356.08C8.3198 356.08 7.55981 355.95 6.93981 355.67C6.46981 355.47 6.0698 355.18 5.7098 354.83C5.3398 354.47 5.07981 354.09 4.89981 353.67C4.66981 353.12 4.5498 352.48 4.5498 351.75C4.5498 350.44 4.96981 349.37 5.78981 348.59C6.60981 347.79 7.7498 347.41 9.2098 347.41C10.6598 347.41 11.7898 347.8 12.6098 348.59C13.4198 349.39 13.8198 350.44 13.8198 351.75C13.8198 353.08 13.3998 354.14 12.5898 354.92C11.7798 355.7 10.6398 356.08 9.21981 356.08M9.18981 354.22C10.2098 354.22 10.9698 353.99 11.5098 353.53C12.0298 353.06 12.3098 352.46 12.3098 351.74C12.3098 351.02 12.0398 350.43 11.5198 349.98C11.0098 349.5 10.2298 349.27 9.17981 349.27C8.14981 349.27 7.38981 349.48 6.87981 349.95C6.36981 350.39 6.10981 350.99 6.10981 351.73C6.10981 352.48 6.35981 353.09 6.87981 353.54C7.37981 354 8.14981 354.22 9.18981 354.22Z" fill="#200020"/>
<path d="M12.9198 206.66L4.33984 206.63V203.84C4.33984 202.66 4.75984 202.25 5.22984 201.93C5.69984 201.64 6.20985 201.59 6.36985 201.59C7.43985 201.59 8.14985 201.97 8.39985 203.07H8.45984C8.60984 201.85 9.33985 201.31 10.5298 201.31C12.7198 201.31 12.9298 202.92 12.9298 203.9V206.65L12.9198 206.66ZM7.95984 205.55V203.96C7.95984 203.1 7.43985 202.68 6.59985 202.68C5.87985 202.68 5.29984 203.08 5.29984 204V205.54H7.95984V205.55ZM11.9698 205.56V204.02C11.9698 202.86 11.1498 202.43 10.5198 202.43C9.14984 202.43 8.91984 203.27 8.90984 204.39V205.55H11.9698V205.56Z" fill="#200020"/>
<path d="M4.37012 197.96V196.57L12.9601 193.81V195.03L10.9001 195.64V198.96L12.9401 199.61V200.72L4.37012 197.97V197.96ZM5.38012 197.3V197.32L9.95012 198.68V195.94L5.38012 197.31V197.3Z" fill="#200020"/>
<path d="M4.39988 187.12L12.9799 187.15L12.9699 188.64L5.52988 192.01V192.03L12.9599 192.06V193.03L4.37988 193.01L4.38988 191.46L11.7399 188.14V188.12L4.39988 188.09V187.12Z" fill="#200020"/>
<path d="M6.78 181.79C6.29 181.79 5.8 181.81 5.53 182.03C5.26 182.26 5.16 182.77 5.16 183C5.16 183.9 5.7 184.26 5.82 184.29C5.92 184.33 6.13 184.54 7.6 184.55H9.89C11.99 184.55 12.25 183.87 12.26 183.03C12.26 182.7 12.14 181.68 10.47 181.67V180.54C13.19 180.5 13.18 182.41 13.18 182.97C13.18 184.04 13.1 185.68 9.78 185.67H7.36C4.94 185.67 4.25 184.58 4.25 182.9C4.25 181.2 5.14 180.55 6.8 180.67V181.79H6.78Z" fill="#200020"/>
<path d="M9.86977 179.43H7.04976C5.33976 179.43 4.25977 178.54 4.25977 176.71C4.25977 174.9 5.36976 174.01 7.06976 174.02H9.87976C12.2698 174.02 13.1998 174.91 13.1998 176.74C13.1998 178.55 12.2498 179.44 9.86977 179.43ZM9.92976 175.15H7.02977C5.23977 175.15 5.17977 176.37 5.16977 176.71C5.16977 177.06 5.22976 178.29 7.01976 178.3H9.91977C11.7998 178.3 12.2798 177.77 12.2798 176.74C12.2798 175.7 11.8098 175.16 9.92976 175.15Z" fill="#200020"/>
<path d="M13.0204 172.56L4.44043 172.53L4.45043 171.45L12.0704 171.47L12.0804 168.32H13.0304L13.0204 172.56Z" fill="#200020"/>
<path d="M9.90004 167.73H7.08004C5.37004 167.73 4.29004 166.84 4.29004 165.01C4.29004 163.2 5.40004 162.31 7.10004 162.32H9.91004C12.3 162.32 13.23 163.21 13.23 165.04C13.23 166.85 12.28 167.74 9.90004 167.73ZM9.96004 163.46H7.06004C5.27004 163.46 5.21004 164.68 5.20004 165.02C5.20004 165.37 5.26004 166.6 7.05004 166.61H9.95004C11.83 166.61 12.31 166.08 12.31 165.05C12.31 164.01 11.84 163.47 9.96004 163.46Z" fill="#200020"/>
<path d="M13.0605 159.83V160.85L4.48047 160.83L4.49047 159.06L11.6905 156.92V156.9L4.50047 154.69V152.88L13.0805 152.91V154L5.45047 153.98V154.01L13.0705 156.42V157.46L5.43047 159.79V159.82L13.0605 159.83Z" fill="#200020"/>
<path d="M13.0898 151.29L4.50977 151.26V148.47C4.50977 147.29 4.92977 146.88 5.39977 146.56C5.86977 146.27 6.37976 146.22 6.53976 146.22C7.60976 146.22 8.31976 146.6 8.56976 147.7H8.62976C8.77976 146.48 9.50976 145.94 10.6998 145.94C12.8898 145.94 13.1098 147.55 13.1098 148.53V151.28L13.0898 151.29ZM8.11977 150.18V148.59C8.11977 147.73 7.59977 147.31 6.75977 147.31C6.03977 147.31 5.45976 147.71 5.45976 148.63V150.17H8.11977V150.18ZM12.1398 150.19V148.65C12.1398 147.49 11.3198 147.06 10.6898 147.06C9.31977 147.06 9.08977 147.9 9.07977 149.02V150.18H12.1398V150.19Z" fill="#200020"/>
<path d="M13.1103 143.32V144.42L4.53027 144.39V143.29L13.1103 143.32Z" fill="#200020"/>
<path d="M4.54004 139.71V138.32L13.13 135.56V136.78L11.07 137.39V140.71L13.11 141.36V142.47L4.54004 139.72V139.71ZM5.55004 139.05V139.07L10.12 140.43V137.69L5.55004 139.06V139.05Z" fill="#200020"/>
<path d="M10.59 131.76H10.84C12 131.76 12.37 131.03 12.37 130.33C12.37 129.47 12.01 128.8 10.98 128.8C9.07997 128.8 9.27997 132.64 6.69997 132.63C5.17997 132.63 4.36997 131.54 4.37997 130.11C4.37997 128.54 5.14997 127.67 6.88997 127.74V128.87C5.94997 128.87 5.32998 129.15 5.32998 130.19C5.32998 130.84 5.65998 131.51 6.57998 131.51C8.46997 131.51 8.20997 127.67 10.93 127.68C12.73 127.68 13.32 128.93 13.31 130.35C13.33 132.88 11.39 132.87 10.58 132.84V131.76H10.59Z" fill="#200020"/>
<path d="M13.1599 125.52V126.63H11.9199L11.9299 125.52H13.1599Z" fill="#200020"/>
<path d="M4.58984 122.25V120.86L13.1798 118.1V119.32L11.1198 119.93V123.25L13.1598 123.9V125.01L4.58984 122.26V122.25ZM5.59985 121.59V121.61L10.1698 122.97V120.23L5.59985 121.6V121.59Z" fill="#200020"/>
<path d="M13.1902 116.46V117.57H11.9502L11.9602 116.46H13.1902Z" fill="#200020"/>
<path d="M13.2001 112.93L4.62012 112.9L4.64011 108.49H5.59011L5.58012 111.82L8.33012 111.83L8.34011 108.73L9.29012 108.74L9.28012 111.83L12.2501 111.84L12.2601 108.44H13.2101L13.2001 112.93Z" fill="#200020"/>
<path d="M13.3397 105.75C13.3397 107.05 12.7597 107.85 11.3797 107.82V106.71C11.7297 106.71 12.5397 106.71 12.5397 105.71C12.5397 105.13 12.2497 104.67 11.6297 104.67C10.5597 104.67 10.5197 107.67 8.72968 107.66C8.09968 107.66 7.08968 107.27 7.09968 105.58C7.09968 104.51 7.60968 103.6 8.80968 103.69V104.77C8.16968 104.77 7.83968 105.09 7.83968 105.71C7.83968 106.23 8.11968 106.64 8.64968 106.64C9.70968 106.64 9.68968 103.64 11.5197 103.65C12.8397 103.65 13.3397 104.56 13.3397 105.74" fill="#200020"/>
<path d="M7.22965 102.54H6.07965L5.63965 101.56H7.22965V100.26H7.96965V101.57H11.6396C12.0196 101.57 12.4997 101.57 12.5097 100.69C12.5097 100.62 12.4796 100.47 12.4596 100.25H13.2096C13.2296 100.57 13.3097 100.89 13.3097 101.21C13.3097 102.14 12.9196 102.56 12.2296 102.55H7.95965V103.53H7.21965V102.54H7.22965Z" fill="#200020"/>
<path d="M12.3799 96.6901V96.7101C13.0699 97.0101 13.3599 97.4801 13.3599 98.2201C13.3599 99.4901 12.5399 99.8601 11.3799 99.8501C9.56988 99.8501 9.48988 98.0701 9.52988 96.7001C8.72988 96.6701 7.85988 96.6601 7.85988 97.7101C7.85988 98.3601 8.29988 98.7101 8.92988 98.6501V99.7101C7.57988 99.6601 7.12988 98.9401 7.12988 97.6701C7.12988 96.1301 7.93988 95.7201 8.93988 95.7301H11.8299C12.3099 95.7301 12.7899 95.6901 13.2599 95.6201V96.6901H12.3899H12.3799ZM11.4599 98.8801C12.0399 98.8801 12.5699 98.6001 12.5699 97.9501C12.5699 97.3501 12.2099 96.6101 10.2699 96.7001C10.2699 97.6301 10.1899 98.8801 11.4599 98.8801Z" fill="#200020"/>
<path d="M13.2597 93.1997V94.1697L4.67969 94.1497V93.1697H7.85969V93.1397C7.38969 92.7997 7.13969 92.3797 7.13969 91.8097C7.13969 89.8797 8.86969 89.8297 10.3697 89.8397C13.0097 89.8397 13.3897 90.8197 13.3797 91.7797C13.3797 92.4097 13.1097 92.8297 12.5497 93.1597V93.1897H13.2697L13.2597 93.1997ZM12.5797 92.1097C12.5797 90.8897 11.2797 90.8797 10.3697 90.8797C8.76969 90.8797 7.93969 91.0197 7.93969 92.0597C7.93969 93.0997 9.21969 93.1897 10.0197 93.1897C10.9297 93.1897 12.5897 93.3097 12.5897 92.0997" fill="#200020"/>
<path d="M13.2704 87.7898V88.7598L4.69043 88.7398V87.7598L13.2704 87.7898Z" fill="#200020"/>
<path d="M10.59 85.5599C12.27 85.5599 12.61 85.1099 12.61 84.3499C12.61 83.6899 12.08 83.3399 11.47 83.2999V82.2298C12.81 82.2298 13.41 83.0599 13.41 84.3199C13.41 85.5899 13.02 86.5999 10.37 86.5899C8.60997 86.5899 7.15997 86.3899 7.16997 84.2999C7.16997 82.5899 8.10997 82.1699 10.1 82.1799H10.6V85.5499L10.59 85.5599ZM9.85997 83.2199C8.10997 83.2199 7.89997 83.7099 7.89997 84.4099C7.89997 85.0299 8.18997 85.5399 9.84997 85.5499V83.2099L9.85997 83.2199Z" fill="#200020"/>
<path d="M9.23048 77.8498C8.24048 77.8198 7.98048 78.3098 7.98048 78.6698C7.98048 79.4298 8.33048 79.9298 9.98048 79.9398C11.9305 79.9398 12.6305 79.6998 12.6305 78.6898C12.6305 78.4698 12.4005 77.7898 11.3105 77.8198V76.7998C13.0105 76.7598 13.4305 78.0198 13.4205 78.6898C13.4205 79.9598 13.0305 80.9698 10.3905 80.9598C8.63048 80.9598 7.18048 80.7598 7.19048 78.6698C7.19048 77.4698 7.90048 76.7698 9.24048 76.8398V77.8498H9.23048Z" fill="#200020"/>
<path d="M4.73047 75.5404V74.4404H5.78047V75.5404H4.73047ZM13.3105 74.5304V75.5004H7.31047V74.5204L13.3105 74.5404V74.5304Z" fill="#200020"/>
<path d="M13.32 70.3096H9.15996C8.55996 70.3096 7.99996 70.4696 7.99996 71.2396C7.99996 71.5396 8.16996 71.9496 8.39996 72.0896C8.69996 72.2596 9.05996 72.3096 9.27996 72.3096H13.31V73.2996L8.55996 73.2796C8.13996 73.2796 7.72996 73.3096 7.30996 73.3396V72.3096H8.06996V72.2796C7.42996 71.9996 7.20996 71.4796 7.20996 70.7896C7.20996 70.0996 7.43996 69.6096 7.98996 69.3796C7.34996 69.0496 7.21996 68.4996 7.21996 67.9496C7.21996 67.3196 7.36996 66.3096 8.77996 66.3096L13.34 66.3296V67.2996H9.17996C8.57996 67.2996 8.01996 67.4596 8.01996 68.2496C8.01996 68.6196 8.01996 68.7296 8.23996 68.9896C8.46996 69.2696 9.05996 69.3196 9.29996 69.3196L13.33 69.3396V70.3096H13.32Z" fill="#200020"/>
<path d="M4.75977 65.1596V64.0596H5.80976V65.1496H4.75977V65.1596ZM13.3398 64.1496V65.1196H7.33976V64.1396L13.3398 64.1596V64.1496Z" fill="#200020"/>
<path d="M10.6603 61.93C12.3403 61.93 12.6703 61.48 12.6803 60.72C12.6803 60.06 12.1503 59.71 11.5403 59.67V58.6C12.8803 58.6 13.4803 59.43 13.4803 60.69C13.4803 61.96 13.0903 62.97 10.4403 62.96C8.68029 62.96 7.23029 62.76 7.24029 60.67C7.24029 58.96 8.18029 58.54 10.1703 58.55H10.6703V61.92L10.6603 61.93ZM9.93028 59.58C8.18028 59.58 7.97028 60.06 7.96028 60.77C7.96028 61.39 8.26029 61.9 9.92029 61.91V59.57L9.93028 59.58Z" fill="#200020"/>
<path d="M13.3698 54.1104H9.20976C8.56976 54.1104 8.04976 54.3204 8.04976 55.1604C8.04976 56.2304 8.98976 56.3804 9.80976 56.3804H13.3598V57.3704L8.60976 57.3504C8.18976 57.3504 7.77976 57.3704 7.35976 57.4104V56.3704H8.13976V56.3204C7.45976 55.9304 7.25977 55.4904 7.25977 54.7104C7.25977 53.4304 8.03976 53.1104 9.21976 53.1104H13.3798V54.1004L13.3698 54.1104Z" fill="#200020"/>
<path d="M7.38004 51.7197H6.23004L5.79004 50.7397H7.38004V49.4397H8.12004V50.7497H11.79C12.17 50.7497 12.65 50.7497 12.66 49.8697C12.66 49.7997 12.63 49.6497 12.61 49.4297H13.36C13.38 49.7497 13.46 50.0697 13.46 50.3897C13.46 51.3197 13.07 51.7397 12.38 51.7297H8.11004V52.7097H7.37004V51.7197H7.38004Z" fill="#200020"/>
<path d="M10.4803 49.1101C8.72032 49.1101 7.27032 48.9102 7.28032 46.8202C7.28032 44.7402 8.73032 44.5401 10.4903 44.5501C13.1403 44.5501 13.5203 45.5702 13.5203 46.8402C13.5203 48.1102 13.1303 49.1201 10.4803 49.1101ZM10.0703 45.5702C8.43032 45.5702 8.07032 46.0702 8.07032 46.8202C8.07032 47.5702 8.42032 48.0802 10.0603 48.0902C12.0103 48.0902 12.7203 47.8502 12.7203 46.8402C12.7203 45.8302 12.0203 45.5802 10.0703 45.5702Z" fill="#200020"/>
<path d="M13.4101 41.0002L4.83008 40.9702V38.1801C4.83008 37.0001 5.25008 36.5901 5.72008 36.2701C6.19008 35.9801 6.70008 35.9301 6.86008 35.9301C7.93008 35.9301 8.64008 36.3102 8.89008 37.4102H8.95008C9.10008 36.1902 9.83008 35.6602 11.0201 35.6602C13.2101 35.6602 13.4201 37.2702 13.4201 38.2502V41.0002H13.4101ZM8.45008 39.9001V38.3102C8.45008 37.4502 7.93008 37.0302 7.09008 37.0302C6.37008 37.0302 5.79008 37.4302 5.79008 38.3502V39.8901H8.45008V39.9001ZM12.4601 39.9102V38.3701C12.4601 37.2101 11.6401 36.7802 11.0101 36.7802C9.64008 36.7802 9.41008 37.6201 9.40008 38.7401V39.9001H12.4601V39.9102Z" fill="#200020"/>
<path d="M12.5703 31.2897V31.3097C13.2603 31.6097 13.5603 32.0797 13.5503 32.8197C13.5503 34.0897 12.7303 34.4597 11.5703 34.4597C9.76031 34.4597 9.68031 32.6697 9.72031 31.2997C8.92031 31.2697 8.05031 31.2597 8.05031 32.3097C8.05031 32.9597 8.49032 33.3097 9.12032 33.2497V34.3097C7.77032 34.2597 7.32031 33.5397 7.32031 32.2697C7.32031 30.7297 8.12031 30.3197 9.13031 30.3297H12.0203C12.4903 30.3297 12.9803 30.2897 13.4503 30.2197V31.2897H12.5803H12.5703ZM11.6503 33.4797C12.2303 33.4797 12.7603 33.1997 12.7603 32.5497C12.7603 31.9497 12.4003 31.2097 10.4603 31.2997C10.4603 32.2297 10.3803 33.4797 11.6503 33.4797Z" fill="#200020"/>
<path d="M13.4596 25.6104H9.29961C8.65961 25.6104 8.13961 25.8204 8.13961 26.6504C8.13961 27.7304 9.07961 27.8804 9.89961 27.8804H13.4496V28.8704L8.69961 28.8504C8.27961 28.8504 7.86961 28.8704 7.44961 28.9104V27.8704H8.22961V27.8204C7.54961 27.4304 7.34961 26.9904 7.34961 26.2104C7.34961 24.9304 8.12961 24.6104 9.30961 24.6104H13.4696V25.6004L13.4596 25.6104Z" fill="#200020"/>
<path d="M9.39966 20.1896C8.40966 20.1596 8.14966 20.6496 8.14966 21.0096C8.14966 21.7696 8.50966 22.2696 10.1497 22.2796C12.0997 22.2796 12.7997 22.0396 12.7997 21.0296C12.7997 20.8096 12.5697 20.1296 11.4797 20.1596V19.1396C13.1797 19.0996 13.5997 20.3596 13.5897 21.0296C13.5897 22.2996 13.1997 23.3096 10.5497 23.2996C8.79966 23.2996 7.33966 23.0996 7.34966 21.0096C7.34966 19.8096 8.05966 19.1096 9.39966 19.1796V20.1896Z" fill="#200020"/>
<path d="M12.6201 14.7301V14.7502C13.3101 15.0502 13.6101 15.5201 13.6001 16.2601C13.6001 17.5301 12.7801 17.9001 11.6201 17.9001C9.81012 17.9001 9.73011 16.1101 9.77011 14.7401C8.97011 14.7101 8.10012 14.7002 8.10012 15.7502C8.10012 16.4002 8.54012 16.7502 9.17012 16.6902V17.7502C7.82012 17.7002 7.37012 16.9801 7.37012 15.7101C7.37012 14.1701 8.18011 13.7601 9.18011 13.7701H12.0701C12.5501 13.7701 13.0301 13.7302 13.5001 13.6602V14.7301H12.6301H12.6201ZM11.7001 16.9201C12.2801 16.9201 12.8101 16.6401 12.8101 15.9901C12.8101 15.3401 12.4501 14.6501 10.5101 14.7401C10.5101 15.6701 10.4301 16.9201 11.7001 16.9201Z" fill="#200020"/>
<path d="M8.39988 11.2804V11.2604C7.48988 10.8504 7.37988 10.3504 7.37988 9.40039H8.38988C8.38988 9.49039 8.36988 9.5804 8.35988 9.6604C8.33988 9.7504 8.32988 9.83038 8.32988 9.92038C8.32988 11.0104 9.13988 11.2804 9.94988 11.2804L13.4999 11.3004V12.2704L7.48988 12.2504V11.2804H8.39988Z" fill="#200020"/>
<path d="M4.92969 8.81973V7.71973H5.97969V8.81973H4.92969ZM13.5097 7.80972V8.77972H7.50969V7.79971L13.5097 7.81973V7.80972Z" fill="#200020"/>
<path d="M10.6004 6.69998C8.84044 6.69998 7.39044 6.50001 7.40044 4.41001C7.40044 2.33001 8.85044 2.12999 10.6104 2.13999C13.2604 2.13999 13.6404 3.15999 13.6404 4.42999C13.6404 5.69999 13.2504 6.70998 10.6004 6.69998ZM10.2004 3.16001C8.56044 3.16001 8.20044 3.66001 8.20044 4.41001C8.20044 5.16001 8.55044 5.66999 10.1904 5.67999C12.1404 5.67999 12.8404 5.43999 12.8504 4.42999C12.8504 3.41999 12.1504 3.17001 10.2004 3.16001Z" fill="#200020"/>
<path d="M13.53 0V1.12H12.29L12.3 0H13.53Z" fill="#200020"/>
</svg>
